<svg width="184" height="184" viewBox="0 0 184 184" fill="none" xmlns="http://www.w3.org/2000/svg">
<path d="M4 92C4 140.601 43.3989 180 92 180C140.601 180 180 140.601 180 92C180 43.3989 140.601 4 92 4" stroke="#5DC1B8" stroke-width="7" stroke-linecap="round" stroke-linejoin="round"/>
<path d="M72.1905 71.4C72.8625 71.4 73.4225 71.608 73.8705 72.024C74.3505 72.44 74.5905 72.968 74.5905 73.608C74.5905 73.928 74.5105 74.28 74.3505 74.664L61.4865 103.752C61.2945 104.2 61.0065 104.552 60.6225 104.808C60.2385 105.064 59.8225 105.192 59.3745 105.192C58.7665 105.192 58.2225 104.984 57.7425 104.568C57.2625 104.152 57.0225 103.64 57.0225 103.032C57.0225 102.712 57.1025 102.36 57.2625 101.976L68.9745 75.624H55.1025C54.4945 75.624 53.9825 75.416 53.5665 75C53.1505 74.584 52.9425 74.072 52.9425 73.464C52.9425 72.856 53.1345 72.36 53.5185 71.976C53.9345 71.592 54.4625 71.4 55.1025 71.4H72.1905Z" fill="#5DC1B8"/>
<path d="M89.1274 82.536C91.2074 82.536 93.0954 83.016 94.7914 83.976C96.4874 84.904 97.8154 86.216 98.7754 87.912C99.7354 89.576 100.215 91.448 100.215 93.528C100.215 95.736 99.6394 97.736 98.4874 99.528C97.3674 101.32 95.8154 102.744 93.8314 103.8C91.8794 104.824 89.7354 105.336 87.3994 105.336C86.0874 105.336 84.7754 105.128 83.4634 104.712C82.1514 104.296 81.0474 103.72 80.1514 102.984C79.8314 102.728 79.5754 102.392 79.3834 101.976C79.1914 101.56 79.0954 101.144 79.0954 100.728C79.0954 100.248 79.2874 99.816 79.6714 99.432C80.0874 99.016 80.6154 98.808 81.2554 98.808C81.6714 98.808 82.2314 99.048 82.9354 99.528C84.3754 100.584 85.8474 101.112 87.3514 101.112C88.8874 101.112 90.2794 100.776 91.5274 100.104C92.8074 99.432 93.8154 98.52 94.5514 97.368C95.2874 96.216 95.6554 94.952 95.6554 93.576C95.6554 91.528 94.9834 89.88 93.6394 88.632C92.2954 87.384 90.5994 86.76 88.5514 86.76C87.6874 86.76 86.9194 86.872 86.2474 87.096C85.6074 87.32 84.8234 87.656 83.8954 88.104C83.5114 88.296 83.1274 88.472 82.7434 88.632C82.3914 88.76 82.0874 88.824 81.8314 88.824C80.9034 88.824 80.2154 88.552 79.7674 88.008C79.3194 87.464 79.0954 86.84 79.0954 86.136L79.1434 85.656L80.8714 73.224C80.9674 72.712 81.2234 72.28 81.6394 71.928C82.0874 71.576 82.6154 71.4 83.2234 71.4H97.3354C97.9434 71.4 98.4394 71.608 98.8234 72.024C99.2394 72.44 99.4474 72.952 99.4474 73.56C99.4474 74.168 99.2394 74.68 98.8234 75.096C98.4394 75.48 97.9434 75.672 97.3354 75.672H84.8074L83.5594 83.88C84.2634 83.496 85.1114 83.176 86.1034 82.92C87.1274 82.664 88.1354 82.536 89.1274 82.536Z" fill="#5DC1B8"/>
<path d="M112.666 89.208C111.194 89.208 109.898 88.808 108.778 88.008C107.69 87.208 106.842 86.12 106.234 84.744C105.626 83.336 105.322 81.8 105.322 80.136C105.322 78.44 105.626 76.904 106.234 75.528C106.842 74.12 107.69 73.016 108.778 72.216C109.898 71.384 111.194 70.968 112.666 70.968C114.874 70.968 116.634 71.848 117.946 73.608C119.29 75.336 119.962 77.496 119.962 80.088C119.962 81.752 119.642 83.288 119.002 84.696C118.394 86.072 117.53 87.176 116.41 88.008C115.322 88.808 114.074 89.208 112.666 89.208ZM112.762 105.096C112.282 105.096 111.818 104.92 111.37 104.568C110.954 104.216 110.746 103.768 110.746 103.224C110.746 102.84 110.874 102.44 111.13 102.024L130.81 72.216C131.258 71.608 131.802 71.304 132.442 71.304C132.922 71.304 133.37 71.48 133.786 71.832C134.234 72.184 134.458 72.632 134.458 73.176C134.458 73.464 134.33 73.864 134.074 74.376L114.346 104.184C113.898 104.792 113.37 105.096 112.762 105.096ZM112.666 85.656C113.754 85.656 114.586 85.144 115.162 84.12C115.77 83.096 116.074 81.768 116.074 80.136C116.074 78.472 115.77 77.128 115.162 76.104C114.586 75.08 113.754 74.568 112.666 74.568C111.578 74.568 110.73 75.08 110.122 76.104C109.546 77.128 109.258 78.456 109.258 80.088C109.258 81.752 109.546 83.096 110.122 84.12C110.73 85.144 111.578 85.656 112.666 85.656ZM132.922 105.432C131.514 105.432 130.25 105.032 129.13 104.232C128.01 103.432 127.13 102.344 126.49 100.968C125.882 99.592 125.578 98.072 125.578 96.408C125.578 94.712 125.882 93.176 126.49 91.8C127.098 90.392 127.946 89.288 129.034 88.488C130.154 87.656 131.45 87.24 132.922 87.24C134.394 87.24 135.674 87.656 136.762 88.488C137.882 89.288 138.73 90.376 139.306 91.752C139.914 93.128 140.218 94.664 140.218 96.36C140.218 98.024 139.898 99.544 139.258 100.92C138.65 102.296 137.786 103.4 136.666 104.232C135.578 105.032 134.33 105.432 132.922 105.432ZM132.922 101.928C134.01 101.928 134.842 101.416 135.418 100.392C135.994 99.368 136.282 98.04 136.282 96.408C136.282 94.744 135.978 93.4 135.37 92.376C134.794 91.32 133.978 90.792 132.922 90.792C131.834 90.792 130.986 91.32 130.378 92.376C129.802 93.4 129.514 94.728 129.514 96.36C129.514 98.024 129.802 99.368 130.378 100.392C130.986 101.416 131.834 101.928 132.922 101.928Z" fill="#5DC1B8"/>
</svg>
