<svg width="180" height="184" viewBox="0 0 180 184" fill="none" xmlns="http://www.w3.org/2000/svg">
<path d="M88 4C136.601 4 176 43.3989 176 92C176 140.601 136.601 180 88 180C63.0821 180 40.5832 169.643 24.5728 153" stroke="#5DC1B8" stroke-width="7" stroke-linecap="round" stroke-linejoin="round"/>
<path d="M61.237 83.4479C62.997 83.4479 64.661 83.9599 66.229 84.9839C67.797 85.9759 69.045 87.3199 69.973 89.0159C70.933 90.7119 71.413 92.5359 71.413 94.4879C71.413 96.4719 70.933 98.3119 69.973 100.008C69.013 101.672 67.701 103 66.037 103.992C64.373 104.984 62.533 105.48 60.517 105.48C58.213 105.48 56.213 104.888 54.517 103.704C52.853 102.52 51.573 100.968 50.677 99.048C49.781 97.128 49.333 95.0639 49.333 92.8559C49.333 90.3919 49.813 87.6879 50.773 84.7439C51.733 81.7679 53.301 79.0159 55.477 76.4879C57.685 73.9279 60.501 72.1039 63.925 71.0159C64.213 70.9199 64.501 70.8719 64.789 70.8719C65.461 70.8719 66.005 71.0479 66.421 71.3999C66.869 71.7519 67.093 72.3119 67.093 73.0799C67.093 73.6239 66.917 74.1039 66.565 74.5199C66.213 74.9359 65.733 75.2239 65.125 75.3839C62.885 76.1839 60.805 77.5599 58.885 79.5119C56.965 81.4639 55.589 83.6559 54.757 86.0879C56.645 84.3279 58.805 83.4479 61.237 83.4479ZM60.469 101.256C62.293 101.256 63.813 100.616 65.029 99.3359C66.245 98.0559 66.853 96.4399 66.853 94.4879C66.853 92.5999 66.261 90.9999 65.077 89.688C63.925 88.3439 62.421 87.6719 60.565 87.6719C58.645 87.6719 57.061 88.3439 55.813 89.688C54.597 90.9999 53.989 92.6319 53.989 94.584C53.989 96.4399 54.581 98.0239 55.765 99.3359C56.981 100.616 58.549 101.256 60.469 101.256Z" fill="#5DC1B8"/>
<path d="M95.6515 100.776C96.2595 100.776 96.7715 100.984 97.1875 101.4C97.6035 101.816 97.8115 102.328 97.8115 102.936C97.8115 103.544 97.6035 104.04 97.1875 104.424C96.7715 104.808 96.2595 105 95.6515 105H78.6115C77.9715 105 77.4435 104.808 77.0275 104.424C76.6115 104.008 76.4035 103.464 76.4035 102.792C76.4035 102.216 76.6275 101.672 77.0755 101.16L87.7795 89.5439C90.7555 86.3759 92.2435 83.5759 92.2435 81.1439C92.2435 79.4159 91.6675 77.9919 90.5155 76.8719C89.3955 75.7199 87.9555 75.1439 86.1955 75.1439C85.0115 75.1439 83.8755 75.4799 82.7875 76.1519C81.6995 76.8239 80.8195 77.7839 80.1475 79.0319C79.6355 79.7039 79.0275 80.0399 78.3235 80.0399C77.7795 80.0399 77.2675 79.8319 76.7875 79.4159C76.3075 78.9999 76.0675 78.5199 76.0675 77.9759C76.0675 77.6239 76.1795 77.2559 76.4035 76.8719C76.6595 76.4879 77.0115 76.0399 77.4595 75.5279C78.5155 74.1199 79.8595 72.9999 81.4915 72.1679C83.1235 71.3359 84.7715 70.9199 86.4355 70.9199C88.5795 70.9199 90.4355 71.3519 92.0035 72.2159C93.5715 73.0799 94.7715 74.2639 95.6035 75.7679C96.4675 77.2719 96.8995 78.9999 96.8995 80.9519C96.8995 84.6319 94.9155 88.5999 90.9475 92.8559L83.6995 100.776H95.6515Z" fill="#5DC1B8"/>
<path d="M108.603 89.208C107.131 89.208 105.835 88.8079 104.715 88.0079C103.627 87.2079 102.779 86.1199 102.171 84.7439C101.563 83.3359 101.259 81.7999 101.259 80.1359C101.259 78.4399 101.563 76.9039 102.171 75.5279C102.779 74.1199 103.627 73.0159 104.715 72.2159C105.835 71.3839 107.131 70.9679 108.603 70.9679C110.811 70.9679 112.571 71.8479 113.883 73.6079C115.227 75.3359 115.899 77.4959 115.899 80.0879C115.899 81.7519 115.579 83.2879 114.939 84.6959C114.331 86.0719 113.467 87.1759 112.347 88.0079C111.259 88.8079 110.011 89.208 108.603 89.208ZM108.699 105.096C108.219 105.096 107.755 104.92 107.307 104.568C106.891 104.216 106.683 103.768 106.683 103.224C106.683 102.84 106.811 102.44 107.067 102.024L126.747 72.2159C127.195 71.6079 127.739 71.3039 128.379 71.3039C128.859 71.3039 129.307 71.4799 129.723 71.8319C130.171 72.1839 130.395 72.6319 130.395 73.1759C130.395 73.4639 130.267 73.8639 130.011 74.3759L110.283 104.184C109.835 104.792 109.307 105.096 108.699 105.096ZM108.603 85.6559C109.691 85.6559 110.523 85.1439 111.099 84.1199C111.707 83.0959 112.011 81.7679 112.011 80.1359C112.011 78.4719 111.707 77.1279 111.099 76.1039C110.523 75.0799 109.691 74.568 108.603 74.568C107.515 74.568 106.667 75.0799 106.059 76.1039C105.483 77.1279 105.195 78.4559 105.195 80.0879C105.195 81.7519 105.483 83.0959 106.059 84.1199C106.667 85.1439 107.515 85.6559 108.603 85.6559ZM128.859 105.432C127.451 105.432 126.187 105.032 125.067 104.232C123.947 103.432 123.067 102.344 122.427 100.968C121.819 99.5919 121.515 98.072 121.515 96.408C121.515 94.712 121.819 93.1759 122.427 91.7999C123.035 90.3919 123.883 89.2879 124.971 88.4879C126.091 87.6559 127.387 87.2399 128.859 87.2399C130.331 87.2399 131.611 87.6559 132.699 88.4879C133.819 89.2879 134.667 90.3759 135.243 91.7519C135.851 93.1279 136.155 94.664 136.155 96.36C136.155 98.024 135.835 99.5439 135.195 100.92C134.587 102.296 133.723 103.4 132.603 104.232C131.515 105.032 130.267 105.432 128.859 105.432ZM128.859 101.928C129.947 101.928 130.779 101.416 131.355 100.392C131.931 99.3679 132.219 98.04 132.219 96.408C132.219 94.744 131.915 93.4 131.307 92.3759C130.731 91.32 129.915 90.792 128.859 90.792C127.771 90.792 126.923 91.32 126.315 92.3759C125.739 93.4 125.451 94.728 125.451 96.36C125.451 98.024 125.739 99.3679 126.315 100.392C126.923 101.416 127.771 101.928 128.859 101.928Z" fill="#5DC1B8"/>
</svg>
