<svg width="180" height="184" viewBox="0 0 180 184" fill="none" xmlns="http://www.w3.org/2000/svg">
<path d="M88 180C136.601 180 176 140.601 176 92C176 43.3989 136.601 4 88 4" stroke="#5DC1B8" stroke-width="7" stroke-linecap="round" stroke-linejoin="round"/>
<path d="M57.9243 82.536C60.0043 82.536 61.8923 83.016 63.5883 83.976C65.2843 84.904 66.6123 86.216 67.5723 87.912C68.5323 89.576 69.0123 91.448 69.0123 93.528C69.0123 95.736 68.4363 97.736 67.2843 99.528C66.1643 101.32 64.6123 102.744 62.6283 103.8C60.6763 104.824 58.5323 105.336 56.1963 105.336C54.8843 105.336 53.5723 105.128 52.2603 104.712C50.9483 104.296 49.8443 103.72 48.9483 102.984C48.6283 102.728 48.3723 102.392 48.1803 101.976C47.9883 101.56 47.8923 101.144 47.8923 100.728C47.8923 100.248 48.0843 99.816 48.4683 99.432C48.8843 99.016 49.4123 98.808 50.0523 98.808C50.4683 98.808 51.0283 99.048 51.7323 99.528C53.1723 100.584 54.6443 101.112 56.1483 101.112C57.6843 101.112 59.0763 100.776 60.3243 100.104C61.6043 99.432 62.6123 98.52 63.3483 97.368C64.0843 96.216 64.4523 94.952 64.4523 93.576C64.4523 91.528 63.7803 89.88 62.4363 88.632C61.0923 87.384 59.3963 86.76 57.3483 86.76C56.4843 86.76 55.7163 86.872 55.0443 87.096C54.4043 87.32 53.6203 87.656 52.6923 88.104C52.3083 88.296 51.9243 88.472 51.5403 88.632C51.1883 88.76 50.8843 88.824 50.6283 88.824C49.7003 88.824 49.0123 88.552 48.5643 88.008C48.1163 87.464 47.8923 86.84 47.8923 86.136L47.9403 85.656L49.6683 73.224C49.7643 72.712 50.0203 72.28 50.4363 71.928C50.8843 71.576 51.4123 71.4 52.0203 71.4H66.1323C66.7403 71.4 67.2363 71.608 67.6203 72.024C68.0363 72.44 68.2443 72.952 68.2443 73.56C68.2443 74.168 68.0363 74.68 67.6203 75.096C67.2363 75.48 66.7403 75.672 66.1323 75.672H53.6043L52.3563 83.88C53.0603 83.496 53.9083 83.176 54.9003 82.92C55.9243 82.664 56.9323 82.536 57.9243 82.536Z" fill="#5DC1B8"/>
<path d="M86.9346 105.48C84.3106 105.48 82.0706 104.744 80.2146 103.272C78.3586 101.8 76.9506 99.768 75.9906 97.176C75.0626 94.584 74.5986 91.592 74.5986 88.2C74.5986 84.808 75.0626 81.816 75.9906 79.224C76.9506 76.632 78.3586 74.6 80.2146 73.128C82.0706 71.656 84.3106 70.92 86.9346 70.92C89.5586 70.92 91.7986 71.656 93.6546 73.128C95.5106 74.6 96.9027 76.632 97.8307 79.224C98.7906 81.816 99.2706 84.808 99.2706 88.2C99.2706 91.592 98.7906 94.584 97.8307 97.176C96.9027 99.768 95.5106 101.8 93.6546 103.272C91.7986 104.744 89.5586 105.48 86.9346 105.48ZM86.9346 100.872C89.2706 100.872 91.0787 99.768 92.3587 97.56C93.6707 95.352 94.3266 92.232 94.3266 88.2C94.3266 84.168 93.6707 81.048 92.3587 78.84C91.0787 76.632 89.2706 75.528 86.9346 75.528C84.5986 75.528 82.7746 76.632 81.4626 78.84C80.1826 81.048 79.5426 84.168 79.5426 88.2C79.5426 92.232 80.1826 95.352 81.4626 97.56C82.7746 99.768 84.5986 100.872 86.9346 100.872Z" fill="#5DC1B8"/>
<path d="M110.572 89.208C109.1 89.208 107.804 88.808 106.684 88.008C105.596 87.208 104.748 86.12 104.14 84.744C103.532 83.336 103.228 81.8 103.228 80.136C103.228 78.44 103.532 76.904 104.14 75.528C104.748 74.12 105.596 73.016 106.684 72.216C107.804 71.384 109.1 70.968 110.572 70.968C112.78 70.968 114.54 71.848 115.852 73.608C117.196 75.336 117.868 77.496 117.868 80.088C117.868 81.752 117.548 83.288 116.908 84.696C116.3 86.072 115.436 87.176 114.316 88.008C113.228 88.808 111.98 89.208 110.572 89.208ZM110.668 105.096C110.188 105.096 109.724 104.92 109.276 104.568C108.86 104.216 108.652 103.768 108.652 103.224C108.652 102.84 108.78 102.44 109.036 102.024L128.716 72.216C129.164 71.608 129.708 71.304 130.348 71.304C130.828 71.304 131.276 71.48 131.692 71.832C132.14 72.184 132.364 72.632 132.364 73.176C132.364 73.464 132.236 73.864 131.98 74.376L112.252 104.184C111.804 104.792 111.276 105.096 110.668 105.096ZM110.572 85.656C111.66 85.656 112.492 85.144 113.068 84.12C113.676 83.096 113.98 81.768 113.98 80.136C113.98 78.472 113.676 77.128 113.068 76.104C112.492 75.08 111.66 74.568 110.572 74.568C109.484 74.568 108.636 75.08 108.028 76.104C107.452 77.128 107.164 78.456 107.164 80.088C107.164 81.752 107.452 83.096 108.028 84.12C108.636 85.144 109.484 85.656 110.572 85.656ZM130.828 105.432C129.42 105.432 128.156 105.032 127.036 104.232C125.916 103.432 125.036 102.344 124.396 100.968C123.788 99.592 123.484 98.072 123.484 96.408C123.484 94.712 123.788 93.176 124.396 91.8C125.004 90.392 125.852 89.288 126.94 88.488C128.06 87.656 129.356 87.24 130.828 87.24C132.3 87.24 133.58 87.656 134.668 88.488C135.788 89.288 136.636 90.376 137.212 91.752C137.82 93.128 138.124 94.664 138.124 96.36C138.124 98.024 137.804 99.544 137.164 100.92C136.556 102.296 135.692 103.4 134.572 104.232C133.484 105.032 132.236 105.432 130.828 105.432ZM130.828 101.928C131.916 101.928 132.748 101.416 133.324 100.392C133.9 99.368 134.188 98.04 134.188 96.408C134.188 94.744 133.884 93.4 133.276 92.376C132.7 91.32 131.884 90.792 130.828 90.792C129.74 90.792 128.892 91.32 128.284 92.376C127.708 93.4 127.42 94.728 127.42 96.36C127.42 98.024 127.708 99.368 128.284 100.392C128.892 101.416 129.74 101.928 130.828 101.928Z" fill="#5DC1B8"/>
</svg>
