<svg width="176" height="80" viewBox="0 0 176 80" fill="none" xmlns="http://www.w3.org/2000/svg">
<rect y="64" width="6" height="16" rx="3" fill="#5DC1B8"/>
<rect x="10" y="55" width="6" height="25" rx="3" fill="#5DC1B8"/>
<rect x="20" y="39" width="6" height="41" rx="3" fill="#5DC1B8"/>
<rect x="30" y="26" width="6" height="54" rx="3" fill="#5DC1B8"/>
<rect x="40" width="6" height="80" rx="3" fill="#5DC1B8"/>
<rect x="50" y="26" width="6" height="54" rx="3" fill="#5DC1B8"/>
<rect x="60" y="11" width="6" height="69" rx="3" fill="#5DC1B8"/>
<rect x="70" y="39" width="6" height="41" rx="3" fill="#5DC1B8"/>
<rect x="80" width="6" height="80" rx="3" fill="#5DC1B8"/>
<rect x="90" y="33" width="6" height="47" rx="3" fill="#5DC1B8"/>
<rect x="100" y="39" width="6" height="41" rx="3" fill="#5DC1B8"/>
<rect x="110" y="45" width="6" height="35" rx="3" fill="#5DC1B8"/>
<rect x="120" y="52" width="6" height="28" rx="3" fill="#5DC1B8"/>
<rect x="130" y="45" width="6" height="35" rx="3" fill="#5DC1B8"/>
<rect x="140" y="52" width="6" height="28" rx="3" fill="#5DC1B8"/>
<rect x="150" y="58" width="6" height="22" rx="3" fill="#5DC1B8"/>
<rect x="160" y="58" width="6" height="22" rx="3" fill="#5DC1B8"/>
<rect x="170" y="64" width="6" height="16" rx="3" fill="#5DC1B8"/>
</svg>
