<svg width="44" height="44" viewBox="0 0 44 44" fill="none" xmlns="http://www.w3.org/2000/svg">
<circle cx="22" cy="22" r="22" fill="#5DC1B8"/>
<path fill-rule="evenodd" clip-rule="evenodd" d="M36.3108 38.7098C41.0177 34.675 44 28.6858 44 22C44 9.84974 34.1503 0 22 0C9.84974 0 0 9.84974 0 22C0 28.6858 2.98232 34.675 7.68921 38.7098C9.95488 31.2401 15.5084 25.9611 22 25.9611C28.4916 25.9611 34.0451 31.2401 36.3108 38.7098ZM28.8448 13.7999C28.8448 17.7762 25.7804 20.9997 22.0003 20.9997C18.2202 20.9997 15.1559 17.7762 15.1559 13.7999C15.1559 9.82349 18.2202 6.6 22.0003 6.6C25.7804 6.6 28.8448 9.82349 28.8448 13.7999Z" fill="#AEE0DB"/>
</svg>
