<?xml version="1.0" encoding="utf-8"?>
<!-- Generator: Adobe Illustrator 23.1.0, SVG Export Plug-In . SVG Version: 6.00 Build 0)  -->
<svg version="1.1" id="Layer_1" xmlns="http://www.w3.org/2000/svg" xmlns:xlink="http://www.w3.org/1999/xlink" x="0px" y="0px"
	 viewBox="0 0 28 28" style="enable-background:new 0 0 28 28;" xml:space="preserve">
<style type="text/css">
	.st0{display:none;}
	.st1{display:inline;stroke:#FFFFFF;stroke-miterlimit:10;}
	.st2{fill:#FFFFFF;}
</style>
<g class="st0">
	<circle class="st1" cx="14" cy="-48" r="30"/>
</g>
<g>
	<path class="st2" d="M9,6c0.4-0.6,0.9-1.1,1.3-1.6c0.1-0.1,0.6-0.3,0.9-0.3c0.1,0.1,0.4,0.6,0.4,0.9c0,1.9,0,3.8,0,5.7
		c0,0.6-0.3,0.9-0.9,0.9c-1.9,0-3.8,0-5.7,0c-0.3,0-0.6-0.3-0.7-0.4c-0.1-0.1,0.1-0.6,0.3-0.7c0.4-0.6,1-1,1.7-1.6
		c-1.4-1.4-2.8-2.7-4.1-4c-0.7-0.6-0.7-1,0-1.7c2.4-2.3,1.7-2.3,4,0C7,4,8,4.9,8.9,5.7c0,0,0.1,0,0.1,0.1C8.9,5.9,9,5.9,9,6z"/>
	<path class="st2" d="M6.2,19c-0.9-0.6-1.4-1-1.9-1.4C4.2,17.4,4,17,4,16.7c0-0.1,0.4-0.3,0.7-0.3c2,0,3.8,0,5.8,0
		c0.3,0,0.9,0.6,0.9,0.9c0.1,2,0,3.8,0,5.8c0,0.3-0.1,0.7-0.4,0.7c-0.3,0-0.6-0.1-0.9-0.3c-0.6-0.4-1-1-1.6-1.6
		c-1.4,1.4-2.8,2.8-4.1,4.3c-0.6,0.6-1,0.6-1.6,0c-2.1-2-2.1-2,0-4.1C3.9,20.8,4.9,20.1,6.2,19z"/>
	<path class="st2" d="M21.9,19.1c1.6,1.4,2.8,2.8,4.3,4.1c0.7,0.6,0.6,1,0,1.7c-2,2-2,2-4,0c-0.9-0.9-1.9-1.7-2.7-2.7
		c0,0-0.1,0-0.4-0.3c-0.4,0.6-0.7,1.1-1.3,1.6c-0.3,0.3-0.6,0.4-0.9,0.3c-0.1,0-0.4-0.6-0.4-0.9c0-1.9,0-3.7,0-5.7
		c0-0.6,0.3-0.9,0.9-0.9c1.9,0,3.8,0,5.7,0c0.3,0,0.6,0.3,0.7,0.4c0.1,0.1-0.1,0.6-0.3,0.7C23,18.1,22.4,18.5,21.9,19.1z"/>
	<path class="st2" d="M19.1,6c1.4-1.6,2.7-2.8,4-4.1c0.6-0.7,1.1-0.7,1.9,0c0.4,0.4,0.9,0.9,1.3,1.3c0.6,0.6,0.6,1,0,1.4
		c-1.4,1.3-2.7,2.6-4.3,4.1c0.7,0.6,1.3,1,1.7,1.4c0.1,0.1,0.3,0.6,0.3,0.9c0,0.1-0.4,0.3-0.7,0.3c-1.9,0-3.8,0-5.7,0
		c-0.7,0-1-0.3-1-1c0-1.9,0-3.7,0-5.7c0-0.3,0.1-0.7,0.4-0.7c0.3-0.1,0.6,0.1,0.9,0.3C18,4.9,18.4,5.4,19.1,6z"/>
</g>
</svg>
