<?xml version="1.0" encoding="utf-8"?>
<!-- Generator: Adobe Illustrator 23.1.0, SVG Export Plug-In . SVG Version: 6.00 Build 0)  -->
<svg version="1.1" id="Layer_1" xmlns="http://www.w3.org/2000/svg" xmlns:xlink="http://www.w3.org/1999/xlink" x="0px" y="0px"
	 viewBox="0 0 28 28" style="enable-background:new 0 0 28 28;" xml:space="preserve">
<style type="text/css">
	.st0{display:none;}
	.st1{display:inline;stroke:#FFFFFF;stroke-miterlimit:10;}
	.st2{fill:none;stroke:#FFFFFF;stroke-miterlimit:10;}
</style>
<g class="st0">
	<circle class="st1" cx="14" cy="-48" r="30"/>
</g>
<g>
	<path class="st2" d="M6.6,3.8c0.7-0.6,1.2-0.9,1.7-1.4c0.2-0.2,0.5-0.7,0.4-0.8C8.5,1.3,8,1.1,7.8,1.1c-1.9,0-3.9,0-5.9,0
		c-0.7,0-0.9,0.4-0.9,1.1c0,1.9,0,3.9,0,5.8c0,0.2,0.2,0.8,0.4,0.8c0.2,0.1,0.8-0.1,1.1-0.4C2.8,8,3.2,7.4,3.8,6.7
		C5.1,8,5.9,9,6.8,9.9c2.4,2.4,1.7,2.4,4.3-0.1c0.6-0.6,0.6-0.9,0-1.5C9.6,6.8,8.1,5.4,6.6,3.8z M6.4,24c1.3-1.3,2.5-2.1,3.4-3.1
		c1.9-1.9,1.9-1.9,0-3.9c-0.8-0.8-1.3-0.8-2.1,0c-1.3,1.3-2.6,2.7-3.9,4.3c-0.6-0.8-0.9-1.3-1.4-1.8c-0.2-0.2-0.7-0.4-0.8-0.4
		c-0.2,0.1-0.5,0.6-0.5,0.8c0,1.9-0.1,3.9,0,5.9c0,0.2,0.6,0.8,0.8,0.8c2,0.1,4,0.1,5.9,0c0.2,0,0.8-0.2,0.8-0.4
		c0.1-0.2-0.1-0.7-0.2-0.8C7.9,25.1,7.2,24.8,6.4,24z M24,21.4c-1.2-1.3-2.1-2.4-3.1-3.3c-2.4-2.4-1.5-2.4-4.1,0
		c-0.7,0.6-0.7,1.1,0,1.8c1.4,1.3,2.8,2.7,4.4,4.3c-0.7,0.6-1.3,1.1-1.8,1.5c-0.2,0.2-0.4,0.7-0.2,0.8c0.2,0.2,0.6,0.5,0.8,0.5
		c1.9,0,3.9,0.1,5.9,0c0.2,0,0.9-0.6,0.9-0.8c0.1-2,0.1-4,0-5.9c0-0.2-0.2-0.7-0.4-0.8c-0.2-0.1-0.7,0.1-0.8,0.2
		C25.1,20,24.6,20.6,24,21.4z M24,6.5c0.6,0.7,1.1,1.3,1.5,1.8c0.2,0.2,0.7,0.4,0.8,0.2c0.2-0.2,0.4-0.6,0.5-0.8c0-1.9,0-3.9,0-5.8
		c0-0.7-0.2-1.1-0.9-1.1c-2,0-4,0-5.9,0c-0.2,0-0.7,0.2-0.8,0.4c-0.1,0.2,0,0.7,0.2,0.8C20,2.5,20.6,3,21.3,3.6
		C20,4.9,18.9,5.7,18,6.8c-2.2,2.4-2.2,1.5,0,3.9c0.7,0.8,1.3,0.7,1.9,0C21.2,9.5,22.5,8.2,24,6.5z"/>
	<path class="st2" d="M6.6,3.8c1.5,1.5,3,3,4.4,4.4c0.6,0.6,0.6,0.9,0,1.5c-2.6,2.5-1.9,2.4-4.3,0.1C5.9,8.9,5,8,3.8,6.7
		C3.2,7.4,2.8,8,2.4,8.4C2.1,8.7,1.6,8.8,1.3,8.8C1.1,8.8,0.9,8.2,0.9,8c0-1.9,0-3.9,0-5.8c0-0.7,0.2-1.1,0.9-1.1c1.9,0,3.9,0,5.9,0
		c0.2,0,0.8,0.2,0.8,0.5c0.1,0.2-0.1,0.7-0.4,0.8C7.8,2.9,7.2,3.4,6.6,3.8z"/>
	<path class="st2" d="M6.4,24c0.8,0.7,1.4,1.1,2,1.5c0.2,0.2,0.4,0.7,0.2,0.8c0,0.2-0.5,0.4-0.8,0.4c-2,0-4,0.1-5.9,0
		c-0.2,0-0.8-0.6-0.8-0.8C0.9,24,0.9,22,1.1,20c0-0.2,0.2-0.8,0.5-0.8c0.2-0.1,0.7,0.1,0.8,0.4c0.5,0.5,0.8,0.9,1.5,1.8
		c1.4-1.4,2.7-2.8,3.9-4.3c0.8-0.8,1.3-0.8,2.1,0c1.9,2,1.9,2,0,3.9C8.9,21.9,7.8,22.9,6.4,24z"/>
	<path class="st2" d="M24,21.4c0.6-0.8,0.9-1.3,1.4-1.8c0.2-0.2,0.6-0.4,0.8-0.2c0.2,0,0.4,0.5,0.4,0.8c0,2,0.1,4,0,5.9
		c0,0.2-0.6,0.8-0.9,0.8c-1.9,0.1-3.9,0.1-5.9,0c-0.2,0-0.7-0.2-0.8-0.5c-0.1-0.2,0.1-0.6,0.2-0.8c0.5-0.5,1.1-0.9,1.8-1.5
		c-1.5-1.5-3-2.8-4.4-4.3c-0.7-0.7-0.7-1.2,0-1.8c2.6-2.4,1.8-2.4,4.1,0C22,19,22.8,20,24,21.4z"/>
	<path class="st2" d="M24,6.5c-1.5,1.5-2.8,2.8-4.1,4.3c-0.7,0.8-1.3,0.8-1.9,0c-2.4-2.4-2.4-1.7,0-3.9C18.9,6,20,5,21.3,3.7
		c-0.8-0.6-1.4-1.1-1.9-1.5c-0.2-0.2-0.2-0.6-0.2-0.8C19.3,1.1,19.6,1,20,1c2,0,4,0,5.9,0c0.7,0,0.9,0.4,0.9,1.1c0,1.9,0,3.9,0,5.8
		c0,0.2-0.2,0.7-0.5,0.8c-0.2,0.1-0.6-0.1-0.8-0.2C25.1,7.8,24.6,7.4,24,6.5z"/>
</g>
</svg>
