<?xml version="1.0" encoding="utf-8"?>
<!-- Generator: Adobe Illustrator 23.1.0, SVG Export Plug-In . SVG Version: 6.00 Build 0)  -->
<svg version="1.1" id="Layer_1" xmlns="http://www.w3.org/2000/svg" xmlns:xlink="http://www.w3.org/1999/xlink" x="0px" y="0px"
	 viewBox="0 0 28 28" style="enable-background:new 0 0 28 28;" xml:space="preserve">
<style type="text/css">
	.st0{display:none;}
	.st1{display:inline;stroke:#FFFFFF;stroke-miterlimit:10;}
	.st2{fill:#FDFDFD;}
</style>
<g class="st0">
	<circle class="st1" cx="14" cy="-48" r="30"/>
</g>
<g>
	<g>
		<path class="st2" d="M15.7,21.7c-2.5,0-5,0-7.4,0c-4.1,0-7.4-3.6-6.9-7.7c0.3-3.6,2.6-6.1,6.3-7.3c0.9-0.3,2-0.3,2.9-0.3
			c1.6,0,3.2,0,4.8,0c1,0,1.5,0.3,1.5,0.9c0,0.9-0.7,1.6-1.6,1.6c-1,0-2,0-3.1,0c-0.3,0-0.9-0.3-0.9,0.3c0,0.4,0.6,0.3,0.9,0.3
			c4.2,0,8.4,0,12.7,0c1.3,0,1.9,0.4,1.9,1.4s-0.6,1.3-1.9,1.3c-2.6,0-5.3,0-7.9,0c-0.3,0-0.3,0-0.6,0s-0.3,0-0.3,0.3
			c0,0.3,0.3,0.3,0.4,0.3c1,0,2.1,0,3.2,0c1,0,1.6,1,1,2c-0.3,0.4-0.7,0.6-1.2,0.6c-0.9,0-2,0-2.9,0c-0.3,0-0.6-0.1-0.6,0.3
			c0,0.4,0.3,0.3,0.6,0.3c0.6,0,1.2,0,1.9,0c1.2,0,1.6,0.4,1.6,1.3c0,0.9-0.6,1.3-1.8,1.3c-0.6,0-1.2,0-1.9,0
			c-0.3,0-0.6-0.1-0.6,0.3c0,0.3,0.3,0.3,0.6,0.3c0.3,0,0.9,0,1.2,0c0.9,0,1.2,0.6,1.2,1.4c0,0.8-0.4,1.2-1.3,1.2
			C16.9,21.6,16.3,21.6,15.7,21.7z"/>
	</g>
</g>
</svg>
