<?xml version="1.0" encoding="utf-8"?>
<!-- Generator: Adobe Illustrator 23.1.0, SVG Export Plug-In . SVG Version: 6.00 Build 0)  -->
<svg version="1.1" id="Layer_1" xmlns="http://www.w3.org/2000/svg" xmlns:xlink="http://www.w3.org/1999/xlink" x="0px" y="0px"
	 viewBox="0 0 28 28" style="enable-background:new 0 0 28 28;" xml:space="preserve">
<style type="text/css">
	.st0{display:none;}
	.st1{display:inline;stroke:#FFFFFF;stroke-miterlimit:10;}
	.st2{fill:#FFFFFF;}
</style>
<g class="st0">
	<circle class="st1" cx="14" cy="-48" r="30"/>
</g>
<g>
	<path class="st2" d="M9.6,17c0-3.7,0-7.5,0-11.4c0-0.3,0-0.8,0-1.1c0.1-0.9,0.8-1.4,1.6-1.3c1,0.1,1.3,0.7,1.3,1.5
		c0,1.9,0,3.8,0,5.7c0,0.3,0,0.7,0.1,1c0.1,0,0.2,0,0.3,0c0-0.3,0.1-0.7,0.1-0.9c0-2.3,0-4.7,0-7c0-1.2,0.5-1.9,1.5-1.7
		c0.9,0,1.4,0.7,1.4,1.7c0,2.5,0,5.1,0,7.6c0,0.3,0,0.7,0,1c0.1,0,0.2,0,0.3,0c0-0.9,0-1.7,0-2.6c0-1.4,0-2.8,0-4.3
		c0-1,0.5-1.4,1.5-1.4c0.9,0,1.4,0.5,1.4,1.5c0,2.3,0,4.7,0,7c0,0.3,0,0.7,0.1,1c0.1,0,0.2,0,0.3,0c0-0.3,0.1-0.7,0.1-1
		c0-1.2,0-2.4,0-3.7c0-0.9,0.4-1.3,1.3-1.3s1.2,0.5,1.2,1.3c0,3.4,0.1,6.7,0,10.1c-0.1,2.4-1.2,4.7-2.4,6.8
		c-0.2,0.3-0.8,0.5-1.2,0.5c-2.2,0-4.5,0.1-6.7,0c-0.5,0-1.2-0.4-1.4-0.9c-1.7-2.5-3.4-5.1-5-7.9c-0.2-0.4-0.4-1.4-0.3-1.5
		C5.6,15.3,6.4,14.9,7,15C8.1,15.7,8.8,16.5,9.6,17z"/>
</g>
</svg>
