<?xml version="1.0" encoding="utf-8"?>
<!-- Generator: Adobe Illustrator 23.1.0, SVG Export Plug-In . SVG Version: 6.00 Build 0)  -->
<svg version="1.1" id="Layer_1" xmlns="http://www.w3.org/2000/svg" xmlns:xlink="http://www.w3.org/1999/xlink" x="0px" y="0px"
	 viewBox="0 0 40 40" style="enable-background:new 0 0 40 40;" xml:space="preserve">
<style type="text/css">
	.st0{fill:#86D0CA;}
	.st1{fill:none;stroke:#86D0CA;stroke-width:2;stroke-linecap:round;stroke-miterlimit:10;}
</style>
<g>
	<g>
		<path class="st0" d="M19.9,28.2L19.9,28.2c-3.2,0-5.8-2.6-5.8-5.8V10.8c0-3.2,2.6-5.8,5.8-5.8l0,0c3.2,0,5.8,2.6,5.8,5.8v11.7
			C25.7,25.7,23.2,28.2,19.9,28.2z"/>
		<path class="st1" d="M28,25c0,3.2-2.6,5.8-5.8,5.8h-4.4c-3.2,0-5.8-2.6-5.8-5.8"/>
		<path class="st0" d="M25.7,29.5c1.6-0.7-0.7,1.6-2.9,3.6c-1.2,1.2-4.3,1.1-5.6-0.1c-2-2-3.1-3.6-3.1-3.6S18.9,32.6,25.7,29.5z"/>
	</g>
</g>
</svg>
