<?xml version="1.0" encoding="utf-8"?>
<!-- Generator: Adobe Illustrator 23.1.0, SVG Export Plug-In . SVG Version: 6.00 Build 0)  -->
<svg version="1.1" id="Layer_1" xmlns="http://www.w3.org/2000/svg" xmlns:xlink="http://www.w3.org/1999/xlink" x="0px" y="0px"
	 viewBox="0 0 60 60" style="enable-background:new 0 0 60 60;" xml:space="preserve">
<style type="text/css">
	.st0{display:none;}
	.st1{display:inline;stroke:#FFFFFF;stroke-miterlimit:10;}
	.st2{fill:#FFFFFF;}
</style>
<g class="st0">
	<circle class="st1" cx="30" cy="30" r="30"/>
</g>
<g>
	<path class="st2" d="M14,19.1L26.5,12v3.9C31,16.1,41.1,17.8,46,28.1c0,0-6.2-7.7-19.5-6.7v4.9L14,19.1z"/>
</g>
<g>
	<path class="st2" d="M25.6,43.5h-3.1v2.9H26v0.9h-4.5v-8.1h4.4v0.9h-3.3v2.6h3.1v0.8H25.6z"/>
	<path class="st2" d="M27.8,41.5l0.8,1.2c0.2,0.3,0.4,0.6,0.6,0.9l0,0c0.2-0.3,0.4-0.6,0.6-1l0.8-1.2h1.1l-2,2.8l2,3h-1.2L29.8,46
		c-0.2-0.3-0.4-0.7-0.6-1l0,0c-0.2,0.3-0.4,0.7-0.6,1l-0.8,1.3h-1.2l2.1-3l-2-2.8H27.8z"/>
	<path class="st2" d="M34,39.9c0,0.4-0.3,0.6-0.7,0.6s-0.6-0.3-0.6-0.6c0-0.4,0.3-0.7,0.7-0.7C33.8,39.2,34,39.5,34,39.9z
		 M32.9,47.3v-5.8H34v5.8H32.9z"/>
	<path class="st2" d="M36.9,39.8v1.7h1.5v0.8h-1.5v3.1c0,0.7,0.2,1.1,0.8,1.1c0.3,0,0.5,0,0.6-0.1v0.8c-0.2,0.1-0.5,0.1-0.9,0.1
		c-0.5,0-0.9-0.2-1.1-0.4c-0.3-0.3-0.4-0.8-0.4-1.5v-3.2H35v-0.8h0.9V40L36.9,39.8z"/>
</g>
</svg>
