<?xml version="1.0" encoding="utf-8"?>
<!-- Generator: Adobe Illustrator 23.1.0, SVG Export Plug-In . SVG Version: 6.00 Build 0)  -->
<svg version="1.1" id="Layer_1" xmlns="http://www.w3.org/2000/svg" xmlns:xlink="http://www.w3.org/1999/xlink" x="0px" y="0px"
	 viewBox="0 0 60 60" style="enable-background:new 0 0 60 60;" xml:space="preserve">
<style type="text/css">
	.st0{display:none;}
	.st1{display:inline;stroke:#FFFFFF;stroke-miterlimit:10;}
	.st2{fill:#FFFFFF;}
</style>
<g class="st0">
	<circle class="st1" cx="30" cy="30" r="30"/>
</g>
<g>
	<path class="st2" d="M22.1,39.4h4.4v0.9h-3.3v2.7h3.1v0.9h-3.1v3.7h-1V39.4z"/>
	<path class="st2" d="M32.3,45.9c0,0.6,0,1.1,0,1.6h-0.9l-0.1-0.9h0c-0.3,0.5-0.9,1.1-1.9,1.1c-0.9,0-2-0.5-2-2.5v-3.4h1.1v3.2
		c0,1.1,0.3,1.8,1.3,1.8c0.7,0,1.2-0.5,1.4-1c0.1-0.2,0.1-0.3,0.1-0.5v-3.6h1.1V45.9z"/>
	<path class="st2" d="M34.1,38.9h1.1v8.5h-1.1V38.9z"/>
	<path class="st2" d="M36.9,38.9h1.1v8.5h-1.1V38.9z"/>
</g>
<g>
	<path class="st2" d="M23,18.4c-0.3,0.4-0.6,0.8-0.9,1.1c-0.1,0.1-0.4,0.2-0.6,0.2c-0.1-0.1-0.3-0.4-0.3-0.6c0-1.3,0-2.7,0-4
		c0-0.4,0.2-0.6,0.6-0.6c1.3,0,2.7,0,4,0c0.2,0,0.4,0.2,0.5,0.3c0.1,0.1-0.1,0.4-0.2,0.5c-0.3,0.4-0.7,0.7-1.2,1.1
		c1,1,2,1.9,2.9,2.8c0.5,0.4,0.5,0.7,0,1.2c-1.7,1.6-1.2,1.6-2.8,0c-0.6-0.6-1.3-1.2-1.9-1.8c0,0-0.1,0-0.1-0.1
		C23.1,18.5,23.1,18.4,23,18.4z"/>
	<path class="st2" d="M24.9,30.1c0.6,0.4,1,0.7,1.3,1c0.1,0.1,0.2,0.4,0.2,0.6c0,0.1-0.3,0.2-0.5,0.2c-1.4,0-2.7,0-4.1,0
		c-0.2,0-0.6-0.4-0.6-0.6c-0.1-1.4,0-2.7,0-4.1c0-0.2,0.1-0.5,0.3-0.5c0.2,0,0.4,0.1,0.6,0.2c0.4,0.3,0.7,0.7,1.1,1.1c1-1,2-2,2.9-3
		c0.4-0.4,0.7-0.4,1.1,0c1.5,1.4,1.5,1.4,0,2.9C26.5,28.7,25.8,29.3,24.9,30.1z"/>
	<path class="st2" d="M35,30.1c-1.1-1-2-2-3-2.9c-0.5-0.4-0.4-0.7,0-1.2c1.4-1.4,1.4-1.4,2.8,0c0.6,0.6,1.3,1.2,1.9,1.9
		c0,0,0.1,0,0.3,0.2c0.3-0.4,0.5-0.8,0.9-1.1c0.2-0.2,0.4-0.3,0.6-0.2c0.1,0,0.3,0.4,0.3,0.6c0,1.3,0,2.6,0,4c0,0.4-0.2,0.6-0.6,0.6
		c-1.3,0-2.7,0-4,0c-0.2,0-0.4-0.2-0.5-0.3c-0.1-0.1,0.1-0.4,0.2-0.5C34.1,30.8,34.5,30.5,35,30.1z"/>
	<path class="st2" d="M36.9,18.2c-1,1.1-1.9,2-2.8,2.9c-0.4,0.5-0.8,0.5-1.3,0c-0.3-0.3-0.6-0.6-0.9-0.9c-0.4-0.4-0.4-0.7,0-1
		c1-0.9,1.9-1.8,3-2.9c-0.5-0.4-0.9-0.7-1.2-1c-0.1-0.1-0.2-0.4-0.2-0.6c0-0.1,0.3-0.2,0.5-0.2c1.3,0,2.7,0,4,0
		c0.5,0,0.7,0.2,0.7,0.7c0,1.3,0,2.6,0,4c0,0.2-0.1,0.5-0.3,0.5c-0.2,0.1-0.4-0.1-0.6-0.2C37.6,19.1,37.3,18.7,36.9,18.2z"/>
</g>
</svg>
