<?xml version="1.0" encoding="utf-8"?>
<!-- Generator: Adobe Illustrator 23.1.0, SVG Export Plug-In . SVG Version: 6.00 Build 0)  -->
<svg version="1.1" xmlns="http://www.w3.org/2000/svg" xmlns:xlink="http://www.w3.org/1999/xlink" x="0px" y="0px"
	 viewBox="0 0 60 60" style="enable-background:new 0 0 60 60;" xml:space="preserve">
<style type="text/css">
	.st0{display:none;}
	.st1{display:inline;stroke:#FFFFFF;stroke-miterlimit:10;}
	.st2{fill:#F7F7F7;}
	.st3{fill:#FDFDFD;}
</style>
<g id="Layer_1" class="st0">
	<circle class="st1" cx="30" cy="30" r="30"/>
</g>
<g id="Layer_2">
	<g>
		<path class="st2" d="M14.5,46.4v-8.1h1.1l2.6,4.1c0.6,0.9,1.1,1.8,1.5,2.6l0,0c-0.1-1.1-0.1-2.1-0.1-3.3v-3.4h1v8.1h-1.1L17,42.3
			c-0.6-0.9-1.1-1.8-1.5-2.7l0,0c0.1,1,0.1,2,0.1,3.3v3.5H14.5z"/>
		<path class="st2" d="M27.2,44.8c0,0.6,0,1.1,0,1.6h-0.9l-0.1-0.9h0c-0.3,0.5-0.9,1.1-1.9,1.1c-0.9,0-2-0.5-2-2.5v-3.4h1.1v3.2
			c0,1.1,0.3,1.8,1.3,1.8c0.7,0,1.2-0.5,1.4-1c0.1-0.2,0.1-0.3,0.1-0.5v-3.6h1.1V44.8z"/>
		<path class="st2" d="M34,37.9v7c0,0.5,0,1.1,0,1.5h-0.9l0-1h0c-0.3,0.6-1,1.1-2,1.1c-1.4,0-2.5-1.2-2.5-3c0-1.9,1.2-3.1,2.6-3.1
			c0.9,0,1.5,0.4,1.8,0.9h0v-3.5H34z M33,42.9c0-0.1,0-0.3,0-0.4c-0.2-0.7-0.7-1.2-1.5-1.2c-1.1,0-1.7,1-1.7,2.2
			c0,1.2,0.6,2.1,1.7,2.1c0.7,0,1.4-0.5,1.5-1.3c0-0.1,0-0.3,0-0.5V42.9z"/>
		<path class="st2" d="M40.8,40.6c0,0.4,0,0.9,0,1.6v3.4c0,1.3-0.3,2.1-0.8,2.7c-0.6,0.5-1.4,0.7-2.1,0.7c-0.7,0-1.5-0.2-1.9-0.5
			l0.3-0.8c0.4,0.2,1,0.5,1.7,0.5c1.1,0,1.9-0.6,1.9-2v-0.6h0c-0.3,0.5-0.9,1-1.8,1c-1.4,0-2.5-1.2-2.5-2.8c0-2,1.3-3.1,2.6-3.1
			c1,0,1.6,0.5,1.8,1h0l0-0.9H40.8z M39.7,42.9c0-0.2,0-0.3-0.1-0.5c-0.2-0.6-0.7-1.1-1.5-1.1c-1,0-1.7,0.9-1.7,2.2
			c0,1.1,0.6,2.1,1.7,2.1c0.6,0,1.2-0.4,1.5-1.1c0.1-0.2,0.1-0.4,0.1-0.6V42.9z"/>
		<path class="st2" d="M43.1,43.7c0,1.4,0.9,2,2,2c0.8,0,1.2-0.1,1.6-0.3l0.2,0.8c-0.4,0.2-1,0.4-1.9,0.4c-1.8,0-2.9-1.2-2.9-2.9
			s1-3.1,2.7-3.1c1.9,0,2.4,1.7,2.4,2.7c0,0.2,0,0.4,0,0.5H43.1z M46.2,42.9c0-0.7-0.3-1.7-1.5-1.7c-1.1,0-1.5,1-1.6,1.7H46.2z"/>
	</g>
	<g>
		<path class="st3" d="M34.1,29.1c-2.1,0-4.3,0-6.4,0c-3.5,0-6.3-3.1-5.9-6.6c0.3-3.1,2.2-5.2,5.4-6.2c0.8-0.3,1.7-0.3,2.5-0.3
			c1.4,0,2.7,0,4.1,0c0.9,0,1.3,0.2,1.3,0.8c0,0.7-0.6,1.4-1.4,1.4c-0.9,0-1.7,0-2.6,0c-0.3,0-0.7-0.2-0.7,0.3
			c0,0.4,0.5,0.2,0.7,0.2c3.6,0,7.2,0,10.8,0c1.1,0,1.6,0.4,1.6,1.2c0,0.8-0.5,1.1-1.6,1.1c-2.2,0-4.5,0-6.7,0c-0.2,0-0.3,0-0.5,0
			c-0.2,0-0.3,0-0.3,0.2c0,0.3,0.2,0.3,0.4,0.3c0.9,0,1.8,0,2.7,0c0.9,0,1.4,0.9,0.9,1.7c-0.2,0.4-0.6,0.5-1,0.5c-0.8,0-1.7,0-2.5,0
			c-0.2,0-0.5-0.1-0.5,0.2c0,0.4,0.3,0.3,0.5,0.3c0.5,0,1,0,1.6,0c1,0,1.4,0.4,1.4,1.1c0,0.7-0.5,1.1-1.5,1.1c-0.5,0-1,0-1.6,0
			c-0.2,0-0.5-0.1-0.5,0.2c0,0.3,0.3,0.3,0.5,0.3c0.3,0,0.7,0,1,0c0.7,0,1,0.5,1,1.2c0,0.7-0.4,1-1.1,1C35.1,29,34.6,29,34.1,29.1z"
			/>
	</g>
</g>
</svg>
