<?xml version="1.0" encoding="utf-8"?>
<!-- Generator: Adobe Illustrator 23.1.0, SVG Export Plug-In . SVG Version: 6.00 Build 0)  -->
<svg version="1.1" id="Layer_1" xmlns="http://www.w3.org/2000/svg" xmlns:xlink="http://www.w3.org/1999/xlink" x="0px" y="0px"
	 viewBox="0 0 60 60" style="enable-background:new 0 0 60 60;" xml:space="preserve">
<style type="text/css">
	.st0{display:none;}
	.st1{display:inline;stroke:#FFFFFF;stroke-miterlimit:10;}
	.st2{fill:#FFFFFF;}
	.st3{fill:#FCFCFC;}
</style>
<g class="st0">
	<circle class="st1" cx="30" cy="30" r="30"/>
</g>
<g>
	<path class="st2" d="M26.5,17.7c0.3-0.4,0.6-0.8,0.9-1.1c0.1-0.1,0.4-0.2,0.6-0.2c0.1,0.1,0.3,0.4,0.3,0.6c0,1.3,0,2.7,0,4
		c0,0.4-0.2,0.6-0.6,0.6c-1.3,0-2.7,0-4,0c-0.2,0-0.4-0.2-0.5-0.3c-0.1-0.1,0.1-0.4,0.2-0.5c0.3-0.4,0.7-0.7,1.2-1.1
		c-1-1-2-1.9-2.9-2.8c-0.5-0.4-0.5-0.7,0-1.2c1.7-1.6,1.2-1.6,2.8,0c0.6,0.6,1.3,1.2,1.9,1.8c0,0,0.1,0,0.1,0.1
		C26.4,17.6,26.5,17.6,26.5,17.7z"/>
	<path class="st2" d="M24.5,26.8c-0.6-0.4-1-0.7-1.3-1c-0.1-0.1-0.2-0.4-0.2-0.6c0-0.1,0.3-0.2,0.5-0.2c1.4,0,2.7,0,4.1,0
		c0.2,0,0.6,0.4,0.6,0.6c0.1,1.4,0,2.7,0,4.1c0,0.2-0.1,0.5-0.3,0.5c-0.2,0-0.4-0.1-0.6-0.2c-0.4-0.3-0.7-0.7-1.1-1.1
		c-1,1-2,2-2.9,3c-0.4,0.4-0.7,0.4-1.1,0c-1.5-1.4-1.5-1.4,0-2.9C22.9,28.1,23.6,27.6,24.5,26.8z"/>
	<path class="st2" d="M35.5,26.9c1.1,1,2,2,3,2.9c0.5,0.4,0.4,0.7,0,1.2c-1.4,1.4-1.4,1.4-2.8,0c-0.6-0.6-1.3-1.2-1.9-1.9
		c0,0-0.1,0-0.3-0.2c-0.3,0.4-0.5,0.8-0.9,1.1c-0.2,0.2-0.4,0.3-0.6,0.2c-0.1,0-0.3-0.4-0.3-0.6c0-1.3,0-2.6,0-4
		c0-0.4,0.2-0.6,0.6-0.6c1.3,0,2.7,0,4,0c0.2,0,0.4,0.2,0.5,0.3c0.1,0.1-0.1,0.4-0.2,0.5C36.3,26.2,35.9,26.5,35.5,26.9z"/>
	<path class="st2" d="M33.6,17.7c1-1.1,1.9-2,2.8-2.9c0.4-0.5,0.8-0.5,1.3,0c0.3,0.3,0.6,0.6,0.9,0.9c0.4,0.4,0.4,0.7,0,1
		c-1,0.9-1.9,1.8-3,2.9c0.5,0.4,0.9,0.7,1.2,1c0.1,0.1,0.2,0.4,0.2,0.6c0,0.1-0.3,0.2-0.5,0.2c-1.3,0-2.7,0-4,0
		c-0.5,0-0.7-0.2-0.7-0.7c0-1.3,0-2.6,0-4c0-0.2,0.1-0.5,0.3-0.5c0.2-0.1,0.4,0.1,0.6,0.2C32.8,16.9,33.1,17.3,33.6,17.7z"/>
</g>
<g>
	<path class="st3" d="M12.3,40c0.5-0.1,1.3-0.2,2-0.2c1.1,0,1.8,0.2,2.3,0.7c0.4,0.4,0.6,0.9,0.6,1.5c0,1.1-0.7,1.8-1.5,2.1v0
		c0.6,0.2,1,0.8,1.2,1.6c0.3,1.1,0.5,1.9,0.6,2.2h-1.1c-0.1-0.2-0.3-0.9-0.5-1.9c-0.2-1.1-0.7-1.5-1.6-1.6h-1V48h-1V40z M13.3,43.7
		h1.1c1.1,0,1.8-0.6,1.8-1.5c0-1-0.8-1.5-1.9-1.5c-0.5,0-0.9,0-1,0.1V43.7z"/>
	<path class="st3" d="M19.4,45.3c0,1.4,0.9,2,2,2c0.8,0,1.2-0.1,1.6-0.3l0.2,0.8c-0.4,0.2-1,0.4-1.9,0.4c-1.8,0-2.9-1.2-2.9-2.9
		s1-3.1,2.7-3.1c1.9,0,2.4,1.7,2.4,2.7c0,0.2,0,0.4,0,0.5H19.4z M22.5,44.5c0-0.7-0.3-1.7-1.5-1.7c-1.1,0-1.5,1-1.6,1.7H22.5z"/>
	<path class="st3" d="M29.8,39.5v7c0,0.5,0,1.1,0,1.5h-0.9l0-1h0c-0.3,0.6-1,1.1-2,1.1c-1.4,0-2.5-1.2-2.5-3c0-1.9,1.2-3.1,2.6-3.1
		c0.9,0,1.5,0.4,1.8,0.9h0v-3.5H29.8z M28.7,44.6c0-0.1,0-0.3,0-0.4c-0.2-0.7-0.7-1.2-1.5-1.2c-1.1,0-1.7,1-1.7,2.2
		c0,1.2,0.6,2.1,1.7,2.1c0.7,0,1.4-0.5,1.5-1.3c0-0.1,0-0.3,0-0.5V44.6z"/>
	<path class="st3" d="M36.4,46.4c0,0.6,0,1.1,0,1.6h-0.9l-0.1-0.9h0c-0.3,0.5-0.9,1.1-1.9,1.1c-0.9,0-2-0.5-2-2.5v-3.4h1.1v3.2
		c0,1.1,0.3,1.8,1.3,1.8c0.7,0,1.2-0.5,1.4-1c0.1-0.2,0.1-0.3,0.1-0.5v-3.6h1.1V46.4z"/>
	<path class="st3" d="M42.3,47.8c-0.3,0.1-0.9,0.3-1.7,0.3c-1.8,0-2.9-1.2-2.9-3c0-1.8,1.2-3.1,3.1-3.1c0.6,0,1.2,0.2,1.5,0.3
		l-0.2,0.8c-0.3-0.1-0.6-0.3-1.2-0.3c-1.3,0-2.1,1-2.1,2.2c0,1.3,0.9,2.2,2,2.2c0.6,0,1-0.2,1.3-0.3L42.3,47.8z"/>
	<path class="st3" d="M44.1,45.3c0,1.4,0.9,2,2,2c0.8,0,1.2-0.1,1.6-0.3l0.2,0.8c-0.4,0.2-1,0.4-1.9,0.4c-1.8,0-2.9-1.2-2.9-2.9
		s1-3.1,2.7-3.1c1.9,0,2.4,1.7,2.4,2.7c0,0.2,0,0.4,0,0.5H44.1z M47.2,44.5c0-0.7-0.3-1.7-1.5-1.7c-1.1,0-1.5,1-1.6,1.7H47.2z"/>
</g>
</svg>
