<?xml version="1.0" encoding="utf-8"?>
<!-- Generator: Adobe Illustrator 23.1.0, SVG Export Plug-In . SVG Version: 6.00 Build 0)  -->
<svg version="1.1" id="Layer_1" xmlns="http://www.w3.org/2000/svg" xmlns:xlink="http://www.w3.org/1999/xlink" x="0px" y="0px"
	 viewBox="0 0 959 593" style="enable-background:new 0 0 959 593;" xml:space="preserve">
<style type="text/css">
	.st0{opacity:0.5;}
	.st1{fill-rule:evenodd;clip-rule:evenodd;fill:#FFFFFF;stroke:#4A4A4A;stroke-width:3;}
	.st2{fill:none;stroke:#4A4A4A;stroke-width:3;stroke-linecap:square;}
	.st3{enable-background:new    ;}
	.st4{fill:#7C7C7C;}
	.st5{fill-rule:evenodd;clip-rule:evenodd;fill:#4A4A4A;}
</style>
<title>Blank map of the United States, territories not included</title>
<g id="Page-1" class="st0">
	<g id="Canvas" transform="translate(10.000000, 12.000000)">
		<rect id="Rectangle-1" x="150.1" y="81.1" class="st1" width="629.5" height="440.6">
		</rect>
		<path id="Line" class="st2" d="M151.7,397.4h625.7"/>
		<path class="st2" d="M276.3,251.9h125.9"/>
		<path class="st2" d="M528.1,250.6H654"/>
		<path class="st2" d="M276.3,82.7v314.7"/>
		<path class="st2" d="M402.2,82.7v314.7"/>
		<path class="st2" d="M464.5,397.4l-0.6,123.4"/>
		<path class="st2" d="M527.9,82.7l0.2,314.7"/>
		<path class="st2" d="M654,83.3l0.6,314.1"/>
		<g class="st3">
			<path class="st4" d="M163.5,97h0.9v3.3h0c0.2-0.3,0.4-0.5,0.5-0.7L167,97h1.1l-2.5,2.9l2.6,3.9h-1l-2.2-3.3l-0.6,0.7v2.6h-0.9V97
				z"/>
			<path class="st4" d="M169.4,101.5c0,1.2,0.8,1.7,1.7,1.7c0.6,0,1-0.1,1.4-0.3l0.2,0.6c-0.3,0.1-0.8,0.3-1.6,0.3
				c-1.5,0-2.4-1-2.4-2.5c0-1.5,0.9-2.6,2.3-2.6c1.6,0,2,1.4,2,2.3c0,0.2,0,0.3,0,0.4H169.4z M172,100.9c0-0.6-0.2-1.4-1.2-1.4
				c-0.9,0-1.3,0.8-1.4,1.4H172z"/>
			<path class="st4" d="M174.3,98.9l1.1,2.9c0.1,0.3,0.2,0.7,0.3,1h0c0.1-0.3,0.2-0.7,0.3-1l1-2.9h0.9l-1.3,3.5
				c-0.6,1.7-1.1,2.5-1.7,3.1c-0.4,0.4-0.9,0.5-1.1,0.6l-0.2-0.7c0.2-0.1,0.5-0.2,0.8-0.4c0.2-0.2,0.5-0.5,0.7-1
				c0-0.1,0.1-0.2,0.1-0.2s0-0.1-0.1-0.2l-1.8-4.5H174.3z"/>
		</g>
		<g class="st3">
			<path class="st4" d="M163.5,109c0.4-0.1,1-0.1,1.7-0.1c0.9,0,1.5,0.2,1.9,0.6c0.4,0.3,0.6,0.8,0.6,1.4c0,0.6-0.2,1.1-0.5,1.5
				c-0.5,0.5-1.2,0.7-2.1,0.7c-0.3,0-0.5,0-0.7-0.1v2.7h-0.9V109z M164.4,112.3c0.2,0.1,0.4,0.1,0.7,0.1c1.1,0,1.7-0.5,1.7-1.5
				c0-0.9-0.6-1.3-1.6-1.3c-0.4,0-0.7,0-0.8,0.1V112.3z"/>
			<path class="st4" d="M171.2,115.7l-0.1-0.6h0c-0.3,0.4-0.8,0.7-1.5,0.7c-1,0-1.5-0.7-1.5-1.4c0-1.2,1-1.8,2.9-1.8v-0.1
				c0-0.4-0.1-1.1-1.1-1.1c-0.5,0-0.9,0.1-1.3,0.4l-0.2-0.6c0.4-0.3,1-0.4,1.6-0.4c1.5,0,1.9,1,1.9,2v1.8c0,0.4,0,0.8,0.1,1.2H171.2
				z M171.1,113.3c-1,0-2.1,0.2-2.1,1.1c0,0.6,0.4,0.8,0.8,0.8c0.6,0,1-0.4,1.2-0.8c0-0.1,0.1-0.2,0.1-0.3V113.3z"/>
			<path class="st4" d="M173.4,112.4c0-0.6,0-1.1,0-1.5h0.8l0,1h0c0.2-0.7,0.8-1.1,1.3-1.1c0.1,0,0.2,0,0.3,0v0.8
				c-0.1,0-0.2,0-0.3,0c-0.6,0-1.1,0.5-1.2,1.1c0,0.1,0,0.3,0,0.4v2.6h-0.9V112.4z"/>
			<path class="st4" d="M178,109.5v1.4h1.3v0.7H178v2.6c0,0.6,0.2,0.9,0.7,0.9c0.2,0,0.4,0,0.5-0.1l0,0.7c-0.2,0.1-0.4,0.1-0.8,0.1
				c-0.4,0-0.7-0.1-1-0.4c-0.3-0.3-0.3-0.7-0.3-1.3v-2.7h-0.8v-0.7h0.8v-1.2L178,109.5z"/>
			<path class="st4" d="M180.3,112.2c0-0.5,0-0.9,0-1.3h0.8l0.1,0.8h0c0.2-0.5,0.8-0.9,1.6-0.9c0.7,0,1.7,0.4,1.7,2.1v2.9h-0.9v-2.8
				c0-0.8-0.3-1.4-1.1-1.4c-0.6,0-1,0.4-1.2,0.9c0,0.1-0.1,0.3-0.1,0.4v2.9h-0.9V112.2z"/>
			<path class="st4" d="M186.3,113.5c0,1.2,0.8,1.7,1.7,1.7c0.6,0,1-0.1,1.4-0.3l0.2,0.6c-0.3,0.1-0.8,0.3-1.6,0.3
				c-1.5,0-2.4-1-2.4-2.5c0-1.5,0.9-2.6,2.3-2.6c1.6,0,2,1.4,2,2.3c0,0.2,0,0.3,0,0.4H186.3z M188.9,112.8c0-0.6-0.2-1.4-1.2-1.4
				c-0.9,0-1.3,0.8-1.4,1.4H188.9z"/>
			<path class="st4" d="M190.9,112.4c0-0.6,0-1.1,0-1.5h0.8l0,1h0c0.2-0.7,0.8-1.1,1.3-1.1c0.1,0,0.2,0,0.3,0v0.8
				c-0.1,0-0.2,0-0.3,0c-0.6,0-1.1,0.5-1.2,1.1c0,0.1,0,0.3,0,0.4v2.6h-0.9V112.4z"/>
			<path class="st4" d="M194.1,114.8c0.3,0.2,0.7,0.4,1.2,0.4c0.6,0,0.9-0.3,0.9-0.7c0-0.4-0.3-0.7-0.9-0.9
				c-0.9-0.3-1.3-0.8-1.3-1.4c0-0.8,0.6-1.4,1.7-1.4c0.5,0,0.9,0.1,1.2,0.3l-0.2,0.6c-0.2-0.1-0.5-0.3-1-0.3c-0.5,0-0.8,0.3-0.8,0.7
				c0,0.4,0.3,0.6,0.9,0.8c0.8,0.3,1.3,0.7,1.3,1.5c0,0.9-0.7,1.5-1.8,1.5c-0.5,0-1-0.1-1.4-0.3L194.1,114.8z"/>
		</g>
		<g class="st3">
			<path class="st4" d="M289.4,97h0.9v3.3h0c0.2-0.3,0.4-0.5,0.5-0.7l2.1-2.5h1.1l-2.5,2.9l2.6,3.9h-1l-2.2-3.3l-0.6,0.7v2.6h-0.9
				V97z"/>
			<path class="st4" d="M295.3,101.5c0,1.2,0.8,1.7,1.7,1.7c0.6,0,1-0.1,1.4-0.3l0.2,0.6c-0.3,0.1-0.8,0.3-1.6,0.3
				c-1.5,0-2.4-1-2.4-2.5c0-1.5,0.9-2.6,2.3-2.6c1.6,0,2,1.4,2,2.3c0,0.2,0,0.3,0,0.4H295.3z M297.9,100.9c0-0.6-0.2-1.4-1.2-1.4
				c-0.9,0-1.3,0.8-1.4,1.4H297.9z"/>
			<path class="st4" d="M300.2,98.9l1.1,2.9c0.1,0.3,0.2,0.7,0.3,1h0c0.1-0.3,0.2-0.7,0.3-1l1-2.9h0.9l-1.3,3.5
				c-0.6,1.7-1.1,2.5-1.7,3.1c-0.4,0.4-0.9,0.5-1.1,0.6l-0.2-0.7c0.2-0.1,0.5-0.2,0.8-0.4c0.2-0.2,0.5-0.5,0.7-1
				c0-0.1,0.1-0.2,0.1-0.2s0-0.1-0.1-0.2l-1.8-4.5H300.2z"/>
		</g>
		<g class="st3">
			<path class="st4" d="M290.5,113.6l-0.7,2.1h-0.9l2.3-6.8h1.1l2.3,6.8h-0.9l-0.7-2.1H290.5z M292.7,112.9l-0.7-2
				c-0.2-0.4-0.3-0.8-0.4-1.2h0c-0.1,0.4-0.2,0.8-0.3,1.2l-0.7,2H292.7z"/>
			<path class="st4" d="M298.9,115.6c-0.2,0.1-0.7,0.3-1.4,0.3c-1.5,0-2.4-1-2.4-2.5c0-1.5,1-2.6,2.6-2.6c0.5,0,1,0.1,1.2,0.3
				l-0.2,0.7c-0.2-0.1-0.5-0.2-1-0.2c-1.1,0-1.7,0.8-1.7,1.8c0,1.1,0.7,1.8,1.7,1.8c0.5,0,0.8-0.1,1.1-0.2L298.9,115.6z"/>
			<path class="st4" d="M301.1,109.5v1.4h1.3v0.7h-1.3v2.6c0,0.6,0.2,0.9,0.7,0.9c0.2,0,0.4,0,0.5-0.1l0,0.7
				c-0.2,0.1-0.4,0.1-0.8,0.1c-0.4,0-0.7-0.1-1-0.4c-0.3-0.3-0.3-0.7-0.3-1.3v-2.7h-0.8v-0.7h0.8v-1.2L301.1,109.5z"/>
			<path class="st4" d="M304.3,109.5c0,0.3-0.2,0.5-0.6,0.5c-0.3,0-0.5-0.2-0.5-0.5c0-0.3,0.2-0.6,0.6-0.6
				C304.1,108.9,304.3,109.2,304.3,109.5z M303.4,115.7v-4.9h0.9v4.9H303.4z"/>
			<path class="st4" d="M306.1,110.9l1,2.7c0.2,0.4,0.3,0.8,0.4,1.2h0c0.1-0.4,0.3-0.8,0.4-1.2l0.9-2.7h0.9l-1.9,4.9H307l-1.9-4.9
				H306.1z"/>
			<path class="st4" d="M311.5,109.5c0,0.3-0.2,0.5-0.6,0.5c-0.3,0-0.5-0.2-0.5-0.5c0-0.3,0.2-0.6,0.6-0.6
				C311.3,108.9,311.5,109.2,311.5,109.5z M310.6,115.7v-4.9h0.9v4.9H310.6z"/>
			<path class="st4" d="M314,109.5v1.4h1.3v0.7H314v2.6c0,0.6,0.2,0.9,0.7,0.9c0.2,0,0.4,0,0.5-0.1l0,0.7c-0.2,0.1-0.4,0.1-0.8,0.1
				c-0.4,0-0.7-0.1-1-0.4c-0.3-0.3-0.3-0.7-0.3-1.3v-2.7h-0.8v-0.7h0.8v-1.2L314,109.5z"/>
			<path class="st4" d="M317.2,109.5c0,0.3-0.2,0.5-0.6,0.5c-0.3,0-0.5-0.2-0.5-0.5c0-0.3,0.2-0.6,0.6-0.6
				C317,108.9,317.2,109.2,317.2,109.5z M316.3,115.7v-4.9h0.9v4.9H316.3z"/>
			<path class="st4" d="M319.1,113.5c0,1.2,0.8,1.7,1.7,1.7c0.6,0,1-0.1,1.4-0.3l0.2,0.6c-0.3,0.1-0.8,0.3-1.6,0.3
				c-1.5,0-2.4-1-2.4-2.5c0-1.5,0.9-2.6,2.3-2.6c1.6,0,2,1.4,2,2.3c0,0.2,0,0.3,0,0.4H319.1z M321.7,112.8c0-0.6-0.2-1.4-1.2-1.4
				c-0.9,0-1.3,0.8-1.4,1.4H321.7z"/>
			<path class="st4" d="M323.5,114.8c0.3,0.2,0.7,0.4,1.2,0.4c0.6,0,0.9-0.3,0.9-0.7c0-0.4-0.3-0.7-0.9-0.9
				c-0.9-0.3-1.3-0.8-1.3-1.4c0-0.8,0.6-1.4,1.7-1.4c0.5,0,0.9,0.1,1.2,0.3l-0.2,0.6c-0.2-0.1-0.5-0.3-1-0.3c-0.5,0-0.8,0.3-0.8,0.7
				c0,0.4,0.3,0.6,0.9,0.8c0.8,0.3,1.3,0.7,1.3,1.5c0,0.9-0.7,1.5-1.8,1.5c-0.5,0-1-0.1-1.4-0.3L323.5,114.8z"/>
		</g>
		<g class="st3">
			<path class="st4" d="M168.2,418.3c-0.3,0.2-1,0.3-1.8,0.3c-1.9,0-3.4-1.2-3.4-3.4c0-2.1,1.4-3.6,3.5-3.6c0.8,0,1.4,0.2,1.6,0.3
				l-0.2,0.7c-0.3-0.2-0.8-0.3-1.4-0.3c-1.6,0-2.6,1-2.6,2.8c0,1.7,1,2.7,2.6,2.7c0.5,0,1.1-0.1,1.4-0.3L168.2,418.3z"/>
			<path class="st4" d="M173.6,416.1c0,1.8-1.2,2.6-2.4,2.6c-1.3,0-2.3-1-2.3-2.5c0-1.6,1.1-2.6,2.4-2.6
				C172.6,413.5,173.6,414.6,173.6,416.1z M169.7,416.1c0,1.1,0.6,1.9,1.5,1.9c0.8,0,1.5-0.8,1.5-1.9c0-0.8-0.4-1.9-1.5-1.9
				C170.2,414.2,169.7,415.2,169.7,416.1z"/>
			<path class="st4" d="M174.6,417.6c0.3,0.2,0.7,0.4,1.2,0.4c0.6,0,0.9-0.3,0.9-0.7c0-0.4-0.3-0.7-0.9-0.9
				c-0.9-0.3-1.3-0.8-1.3-1.4c0-0.8,0.6-1.4,1.7-1.4c0.5,0,0.9,0.1,1.2,0.3l-0.2,0.6c-0.2-0.1-0.5-0.3-1-0.3c-0.5,0-0.8,0.3-0.8,0.7
				c0,0.4,0.3,0.6,0.9,0.8c0.8,0.3,1.3,0.7,1.3,1.5c0,0.9-0.7,1.5-1.8,1.5c-0.5,0-1-0.1-1.4-0.3L174.6,417.6z"/>
			<path class="st4" d="M179.8,412.3v1.4h1.3v0.7h-1.3v2.6c0,0.6,0.2,0.9,0.7,0.9c0.2,0,0.4,0,0.5-0.1l0,0.7
				c-0.2,0.1-0.4,0.1-0.8,0.1c-0.4,0-0.7-0.1-1-0.4c-0.3-0.3-0.3-0.7-0.3-1.3v-2.7h-0.8v-0.7h0.8v-1.2L179.8,412.3z"/>
		</g>
		<g class="st3">
			<path class="st4" d="M163.4,429.4c0.4,0.2,1,0.4,1.6,0.4c0.9,0,1.4-0.5,1.4-1.2c0-0.6-0.4-1-1.3-1.3c-1.1-0.4-1.8-1-1.8-1.9
				c0-1.1,0.9-1.8,2.2-1.8c0.7,0,1.2,0.2,1.5,0.3l-0.2,0.7c-0.2-0.1-0.7-0.3-1.3-0.3c-0.9,0-1.3,0.6-1.3,1c0,0.6,0.4,0.9,1.4,1.3
				c1.1,0.4,1.7,1,1.7,2c0,1-0.8,2-2.4,2c-0.7,0-1.4-0.2-1.7-0.4L163.4,429.4z"/>
			<path class="st4" d="M169.4,424.2v1.4h1.3v0.7h-1.3v2.6c0,0.6,0.2,0.9,0.7,0.9c0.2,0,0.4,0,0.5-0.1l0,0.7
				c-0.2,0.1-0.4,0.1-0.8,0.1c-0.4,0-0.7-0.1-1-0.4c-0.3-0.3-0.3-0.7-0.3-1.3v-2.7h-0.8v-0.7h0.8v-1.2L169.4,424.2z"/>
			<path class="st4" d="M171.7,427.1c0-0.6,0-1.1,0-1.5h0.8l0,1h0c0.2-0.7,0.8-1.1,1.3-1.1c0.1,0,0.2,0,0.3,0v0.8
				c-0.1,0-0.2,0-0.3,0c-0.6,0-1.1,0.5-1.2,1.1c0,0.1,0,0.3,0,0.4v2.6h-0.9V427.1z"/>
			<path class="st4" d="M179.1,429.2c0,0.5,0,0.9,0,1.3h-0.8l-0.1-0.8h0c-0.2,0.4-0.7,0.9-1.6,0.9c-0.8,0-1.7-0.4-1.7-2.1v-2.9h0.9
				v2.7c0,0.9,0.3,1.6,1.1,1.6c0.6,0,1-0.4,1.2-0.8c0.1-0.1,0.1-0.3,0.1-0.5v-3h0.9V429.2z"/>
			<path class="st4" d="M184,430.3c-0.2,0.1-0.7,0.3-1.4,0.3c-1.5,0-2.4-1-2.4-2.5c0-1.5,1-2.6,2.6-2.6c0.5,0,1,0.1,1.2,0.3
				l-0.2,0.7c-0.2-0.1-0.5-0.2-1-0.2c-1.1,0-1.7,0.8-1.7,1.8c0,1.1,0.7,1.8,1.7,1.8c0.5,0,0.8-0.1,1.1-0.2L184,430.3z"/>
			<path class="st4" d="M186.3,424.2v1.4h1.3v0.7h-1.3v2.6c0,0.6,0.2,0.9,0.7,0.9c0.2,0,0.4,0,0.5-0.1l0,0.7
				c-0.2,0.1-0.4,0.1-0.8,0.1c-0.4,0-0.7-0.1-1-0.4c-0.3-0.3-0.3-0.7-0.3-1.3v-2.7h-0.8v-0.7h0.8v-1.2L186.3,424.2z"/>
			<path class="st4" d="M192.6,429.2c0,0.5,0,0.9,0,1.3h-0.8l-0.1-0.8h0c-0.2,0.4-0.7,0.9-1.6,0.9c-0.8,0-1.7-0.4-1.7-2.1v-2.9h0.9
				v2.7c0,0.9,0.3,1.6,1.1,1.6c0.6,0,1-0.4,1.2-0.8c0.1-0.1,0.1-0.3,0.1-0.5v-3h0.9V429.2z"/>
			<path class="st4" d="M194.1,427.1c0-0.6,0-1.1,0-1.5h0.8l0,1h0c0.2-0.7,0.8-1.1,1.3-1.1c0.1,0,0.2,0,0.3,0v0.8
				c-0.1,0-0.2,0-0.3,0c-0.6,0-1.1,0.5-1.2,1.1c0,0.1,0,0.3,0,0.4v2.6h-0.9V427.1z"/>
			<path class="st4" d="M197.8,428.2c0,1.2,0.8,1.7,1.7,1.7c0.6,0,1-0.1,1.4-0.3l0.2,0.6c-0.3,0.1-0.8,0.3-1.6,0.3
				c-1.5,0-2.4-1-2.4-2.5s0.9-2.6,2.3-2.6c1.6,0,2,1.4,2,2.3c0,0.2,0,0.3,0,0.4H197.8z M200.4,427.6c0-0.6-0.2-1.4-1.2-1.4
				c-0.9,0-1.3,0.8-1.4,1.4H200.4z"/>
		</g>
		<g class="st3">
			<path class="st4" d="M477.6,411.8c0.4-0.1,1.1-0.1,1.7-0.1c0.9,0,1.5,0.2,2,0.6c0.3,0.3,0.5,0.8,0.5,1.3c0,0.9-0.6,1.5-1.3,1.7v0
				c0.5,0.2,0.8,0.7,1,1.4c0.2,0.9,0.4,1.6,0.5,1.9h-0.9c-0.1-0.2-0.3-0.8-0.5-1.6c-0.2-0.9-0.6-1.3-1.4-1.3h-0.8v2.9h-0.9V411.8z
				 M478.5,414.9h0.9c0.9,0,1.5-0.5,1.5-1.3c0-0.9-0.6-1.3-1.6-1.3c-0.4,0-0.7,0-0.9,0.1V414.9z"/>
			<path class="st4" d="M483.5,416.3c0,1.2,0.8,1.7,1.7,1.7c0.6,0,1-0.1,1.4-0.3l0.2,0.6c-0.3,0.1-0.8,0.3-1.6,0.3
				c-1.5,0-2.4-1-2.4-2.5s0.9-2.6,2.3-2.6c1.6,0,2,1.4,2,2.3c0,0.2,0,0.3,0,0.4H483.5z M486.1,415.6c0-0.6-0.2-1.4-1.2-1.4
				c-0.9,0-1.3,0.8-1.4,1.4H486.1z"/>
			<path class="st4" d="M488.4,413.7l1,2.7c0.2,0.4,0.3,0.8,0.4,1.2h0c0.1-0.4,0.3-0.8,0.4-1.2l0.9-2.7h0.9l-1.9,4.9h-0.8l-1.9-4.9
				H488.4z"/>
			<path class="st4" d="M493.3,416.3c0,1.2,0.8,1.7,1.7,1.7c0.6,0,1-0.1,1.3-0.3l0.2,0.6c-0.3,0.1-0.8,0.3-1.6,0.3
				c-1.5,0-2.4-1-2.4-2.5s0.9-2.6,2.3-2.6c1.6,0,2,1.4,2,2.3c0,0.2,0,0.3,0,0.4H493.3z M495.9,415.6c0-0.6-0.2-1.4-1.2-1.4
				c-0.9,0-1.3,0.8-1.4,1.4H495.9z"/>
			<path class="st4" d="M497.9,415c0-0.5,0-0.9,0-1.3h0.8l0.1,0.8h0c0.2-0.5,0.8-0.9,1.6-0.9c0.7,0,1.7,0.4,1.7,2.1v2.9h-0.9v-2.8
				c0-0.8-0.3-1.4-1.1-1.4c-0.6,0-1,0.4-1.2,0.9c0,0.1-0.1,0.3-0.1,0.4v2.9h-0.9V415z"/>
			<path class="st4" d="M507.5,417.2c0,0.5,0,0.9,0,1.3h-0.8l-0.1-0.8h0c-0.2,0.4-0.7,0.9-1.6,0.9c-0.8,0-1.7-0.4-1.7-2.1v-2.9h0.9
				v2.7c0,0.9,0.3,1.6,1.1,1.6c0.6,0,1-0.4,1.2-0.8c0.1-0.1,0.1-0.3,0.1-0.5v-3h0.9V417.2z"/>
			<path class="st4" d="M509.5,416.3c0,1.2,0.8,1.7,1.7,1.7c0.6,0,1-0.1,1.4-0.3l0.2,0.6c-0.3,0.1-0.8,0.3-1.6,0.3
				c-1.5,0-2.4-1-2.4-2.5s0.9-2.6,2.3-2.6c1.6,0,2,1.4,2,2.3c0,0.2,0,0.3,0,0.4H509.5z M512.1,415.6c0-0.6-0.2-1.4-1.2-1.4
				c-0.9,0-1.3,0.8-1.4,1.4H512.1z"/>
		</g>
		<g class="st3">
			<path class="st4" d="M477.5,429.4c0.4,0.2,1,0.4,1.6,0.4c0.9,0,1.4-0.5,1.4-1.2c0-0.6-0.4-1-1.3-1.3c-1.1-0.4-1.8-1-1.8-1.9
				c0-1.1,0.9-1.8,2.2-1.8c0.7,0,1.2,0.2,1.5,0.3l-0.2,0.7c-0.2-0.1-0.7-0.3-1.3-0.3c-0.9,0-1.3,0.6-1.3,1c0,0.6,0.4,0.9,1.3,1.3
				c1.1,0.4,1.7,1,1.7,2c0,1-0.8,2-2.4,2c-0.7,0-1.4-0.2-1.7-0.4L477.5,429.4z"/>
			<path class="st4" d="M483.6,424.2v1.4h1.3v0.7h-1.3v2.6c0,0.6,0.2,0.9,0.7,0.9c0.2,0,0.4,0,0.5-0.1l0,0.7
				c-0.2,0.1-0.4,0.1-0.8,0.1c-0.4,0-0.7-0.1-1-0.4c-0.3-0.3-0.3-0.7-0.3-1.3v-2.7h-0.8v-0.7h0.8v-1.2L483.6,424.2z"/>
			<path class="st4" d="M485.8,427.1c0-0.6,0-1.1,0-1.5h0.8l0,1h0c0.2-0.7,0.8-1.1,1.3-1.1c0.1,0,0.2,0,0.3,0v0.8
				c-0.1,0-0.2,0-0.3,0c-0.6,0-1.1,0.5-1.2,1.1c0,0.1,0,0.3,0,0.4v2.6h-0.9V427.1z"/>
			<path class="st4" d="M489.5,428.2c0,1.2,0.8,1.7,1.7,1.7c0.6,0,1-0.1,1.3-0.3l0.2,0.6c-0.3,0.1-0.8,0.3-1.6,0.3
				c-1.5,0-2.4-1-2.4-2.5s0.9-2.6,2.3-2.6c1.6,0,2,1.4,2,2.3c0,0.2,0,0.3,0,0.4H489.5z M492.1,427.6c0-0.6-0.2-1.4-1.2-1.4
				c-0.9,0-1.3,0.8-1.4,1.4H492.1z"/>
			<path class="st4" d="M496.8,430.5l-0.1-0.6h0c-0.3,0.4-0.8,0.7-1.5,0.7c-1,0-1.5-0.7-1.5-1.4c0-1.2,1-1.8,2.9-1.8v-0.1
				c0-0.4-0.1-1.1-1.1-1.1c-0.5,0-0.9,0.1-1.3,0.4l-0.2-0.6c0.4-0.3,1-0.4,1.6-0.4c1.5,0,1.9,1,1.9,2v1.8c0,0.4,0,0.8,0.1,1.2H496.8
				z M496.6,428c-1,0-2.1,0.2-2.1,1.1c0,0.6,0.4,0.8,0.8,0.8c0.6,0,1-0.4,1.2-0.8c0-0.1,0.1-0.2,0.1-0.3V428z"/>
			<path class="st4" d="M498.9,426.9c0-0.5,0-0.9,0-1.3h0.8l0,0.8h0c0.3-0.5,0.7-0.9,1.5-0.9c0.7,0,1.2,0.4,1.4,1h0
				c0.2-0.3,0.3-0.5,0.5-0.6c0.3-0.2,0.6-0.3,1.1-0.3c0.6,0,1.6,0.4,1.6,2.1v2.9H505v-2.8c0-0.9-0.3-1.5-1.1-1.5
				c-0.5,0-0.9,0.4-1,0.8c0,0.1-0.1,0.3-0.1,0.4v3H502v-2.9c0-0.8-0.3-1.3-1-1.3c-0.6,0-1,0.4-1.1,0.9c-0.1,0.1-0.1,0.3-0.1,0.4v2.9
				h-0.9V426.9z"/>
			<path class="st4" d="M507.2,429.6c0.3,0.2,0.7,0.4,1.2,0.4c0.6,0,0.9-0.3,0.9-0.7c0-0.4-0.3-0.7-0.9-0.9
				c-0.9-0.3-1.3-0.8-1.3-1.4c0-0.8,0.6-1.4,1.7-1.4c0.5,0,0.9,0.1,1.2,0.3l-0.2,0.6c-0.2-0.1-0.5-0.3-1-0.3c-0.5,0-0.8,0.3-0.8,0.7
				c0,0.4,0.3,0.6,0.9,0.8c0.8,0.3,1.3,0.7,1.3,1.5c0,0.9-0.7,1.5-1.8,1.5c-0.5,0-1-0.1-1.4-0.3L507.2,429.6z"/>
		</g>
		<g class="st3">
			<path class="st4" d="M288.7,267.6h0.9v3.3h0c0.2-0.3,0.4-0.5,0.5-0.7l2.1-2.5h1.1l-2.5,2.9l2.6,3.9h-1l-2.2-3.3l-0.6,0.7v2.6
				h-0.9V267.6z"/>
			<path class="st4" d="M294.7,272.1c0,1.2,0.8,1.7,1.7,1.7c0.6,0,1-0.1,1.4-0.3l0.2,0.6c-0.3,0.1-0.8,0.3-1.6,0.3
				c-1.5,0-2.4-1-2.4-2.5s0.9-2.6,2.3-2.6c1.6,0,2,1.4,2,2.3c0,0.2,0,0.3,0,0.4H294.7z M297.3,271.5c0-0.6-0.2-1.4-1.2-1.4
				c-0.9,0-1.3,0.8-1.4,1.4H297.3z"/>
			<path class="st4" d="M299.5,269.5l1.1,2.9c0.1,0.3,0.2,0.7,0.3,1h0c0.1-0.3,0.2-0.7,0.3-1l1-2.9h0.9l-1.3,3.5
				c-0.6,1.7-1.1,2.5-1.7,3.1c-0.4,0.4-0.9,0.5-1.1,0.6l-0.2-0.7c0.2-0.1,0.5-0.2,0.8-0.4c0.2-0.2,0.5-0.5,0.7-1
				c0-0.1,0.1-0.2,0.1-0.2c0-0.1,0-0.1-0.1-0.2l-1.8-4.5H299.5z"/>
		</g>
		<g class="st3">
			<path class="st4" d="M288.7,279.6c0.4-0.1,1.1-0.1,1.7-0.1c0.9,0,1.5,0.2,2,0.6c0.3,0.3,0.5,0.8,0.5,1.3c0,0.9-0.6,1.5-1.3,1.7v0
				c0.5,0.2,0.8,0.7,1,1.4c0.2,0.9,0.4,1.6,0.5,1.9h-0.9c-0.1-0.2-0.3-0.8-0.5-1.6c-0.2-0.9-0.6-1.3-1.4-1.3h-0.8v2.9h-0.9V279.6z
				 M289.6,282.7h0.9c0.9,0,1.5-0.5,1.5-1.3c0-0.9-0.6-1.3-1.6-1.3c-0.4,0-0.7,0-0.9,0.1V282.7z"/>
			<path class="st4" d="M294.7,284.1c0,1.2,0.8,1.7,1.7,1.7c0.6,0,1-0.1,1.4-0.3l0.2,0.6c-0.3,0.1-0.8,0.3-1.6,0.3
				c-1.5,0-2.4-1-2.4-2.5s0.9-2.6,2.3-2.6c1.6,0,2,1.4,2,2.3c0,0.2,0,0.3,0,0.4H294.7z M297.3,283.4c0-0.6-0.2-1.4-1.2-1.4
				c-0.9,0-1.3,0.8-1.4,1.4H297.3z"/>
			<path class="st4" d="M299.1,285.4c0.3,0.2,0.7,0.4,1.2,0.4c0.6,0,0.9-0.3,0.9-0.7c0-0.4-0.3-0.7-0.9-0.9
				c-0.9-0.3-1.3-0.8-1.3-1.4c0-0.8,0.6-1.4,1.7-1.4c0.5,0,0.9,0.1,1.2,0.3l-0.2,0.6c-0.2-0.1-0.5-0.3-1-0.3c-0.5,0-0.8,0.3-0.8,0.7
				c0,0.4,0.3,0.6,0.9,0.8c0.8,0.3,1.3,0.7,1.3,1.5c0,0.9-0.7,1.5-1.8,1.5c-0.5,0-1-0.1-1.4-0.3L299.1,285.4z"/>
			<path class="st4" d="M307.6,283.9c0,1.8-1.2,2.6-2.4,2.6c-1.3,0-2.3-1-2.3-2.5c0-1.6,1.1-2.6,2.4-2.6
				C306.7,281.4,307.6,282.4,307.6,283.9z M303.7,283.9c0,1.1,0.6,1.9,1.5,1.9c0.8,0,1.5-0.8,1.5-1.9c0-0.8-0.4-1.9-1.5-1.9
				C304.2,282,303.7,283,303.7,283.9z"/>
			<path class="st4" d="M312.8,285c0,0.5,0,0.9,0,1.3h-0.8l-0.1-0.8h0c-0.2,0.4-0.7,0.9-1.6,0.9c-0.8,0-1.7-0.4-1.7-2.1v-2.9h0.9
				v2.7c0,0.9,0.3,1.6,1.1,1.6c0.6,0,1-0.4,1.2-0.8c0.1-0.1,0.1-0.3,0.1-0.5v-3h0.9V285z"/>
			<path class="st4" d="M314.3,283c0-0.6,0-1.1,0-1.5h0.8l0,1h0c0.2-0.7,0.8-1.1,1.3-1.1c0.1,0,0.2,0,0.3,0v0.8c-0.1,0-0.2,0-0.3,0
				c-0.6,0-1.1,0.5-1.2,1.1c0,0.1,0,0.3,0,0.4v2.6h-0.9V283z"/>
			<path class="st4" d="M321,286.2c-0.2,0.1-0.7,0.3-1.4,0.3c-1.5,0-2.4-1-2.4-2.5c0-1.5,1-2.6,2.6-2.6c0.5,0,1,0.1,1.2,0.3
				l-0.2,0.7c-0.2-0.1-0.5-0.2-1-0.2c-1.1,0-1.7,0.8-1.7,1.8c0,1.1,0.7,1.8,1.7,1.8c0.5,0,0.8-0.1,1.1-0.2L321,286.2z"/>
			<path class="st4" d="M322.4,284.1c0,1.2,0.8,1.7,1.7,1.7c0.6,0,1-0.1,1.4-0.3l0.2,0.6c-0.3,0.1-0.8,0.3-1.6,0.3
				c-1.5,0-2.4-1-2.4-2.5s0.9-2.6,2.3-2.6c1.6,0,2,1.4,2,2.3c0,0.2,0,0.3,0,0.4H322.4z M325,283.4c0-0.6-0.2-1.4-1.2-1.4
				c-0.9,0-1.3,0.8-1.4,1.4H325z"/>
			<path class="st4" d="M326.9,285.4c0.3,0.2,0.7,0.4,1.2,0.4c0.6,0,0.9-0.3,0.9-0.7c0-0.4-0.3-0.7-0.9-0.9
				c-0.9-0.3-1.3-0.8-1.3-1.4c0-0.8,0.6-1.4,1.7-1.4c0.5,0,0.9,0.1,1.2,0.3l-0.2,0.6c-0.2-0.1-0.5-0.3-1-0.3c-0.5,0-0.8,0.3-0.8,0.7
				c0,0.4,0.3,0.6,0.9,0.8c0.8,0.3,1.3,0.7,1.3,1.5c0,0.9-0.7,1.5-1.8,1.5c-0.5,0-1-0.1-1.4-0.3L326.9,285.4z"/>
		</g>
		<g class="st3">
			<path class="st4" d="M416.8,99.4l-2.2-6.8h0.9l1.1,3.3c0.3,0.9,0.5,1.7,0.7,2.5h0c0.2-0.8,0.5-1.6,0.8-2.5l1.1-3.4h0.9l-2.4,6.8
				H416.8z"/>
			<path class="st4" d="M423.2,99.4l-0.1-0.6h0c-0.3,0.4-0.8,0.7-1.5,0.7c-1,0-1.5-0.7-1.5-1.4c0-1.2,1-1.8,2.9-1.8v-0.1
				c0-0.4-0.1-1.1-1.1-1.1c-0.5,0-0.9,0.1-1.3,0.4l-0.2-0.6c0.4-0.3,1-0.4,1.6-0.4c1.5,0,1.9,1,1.9,2v1.8c0,0.4,0,0.8,0.1,1.2H423.2
				z M423.1,96.9c-1,0-2.1,0.2-2.1,1.1c0,0.6,0.4,0.8,0.8,0.8c0.6,0,1-0.4,1.2-0.8c0-0.1,0.1-0.2,0.1-0.3V96.9z"/>
			<path class="st4" d="M425.4,92.2h0.9v7.2h-0.9V92.2z"/>
			<path class="st4" d="M431.8,98.1c0,0.5,0,0.9,0,1.3h-0.8l-0.1-0.8h0c-0.2,0.4-0.7,0.9-1.6,0.9c-0.8,0-1.7-0.4-1.7-2.1v-2.9h0.9
				v2.7c0,0.9,0.3,1.6,1.1,1.6c0.6,0,1-0.4,1.2-0.8c0.1-0.1,0.1-0.3,0.1-0.5v-3h0.9V98.1z"/>
			<path class="st4" d="M433.8,97.1c0,1.2,0.8,1.7,1.7,1.7c0.6,0,1-0.1,1.4-0.3l0.2,0.6c-0.3,0.1-0.8,0.3-1.6,0.3
				c-1.5,0-2.4-1-2.4-2.5c0-1.5,0.9-2.6,2.3-2.6c1.6,0,2,1.4,2,2.3c0,0.2,0,0.3,0,0.4H433.8z M436.4,96.5c0-0.6-0.2-1.4-1.2-1.4
				c-0.9,0-1.3,0.8-1.4,1.4H436.4z"/>
		</g>
		<g class="st3">
			<path class="st4" d="M415.3,104.6c0.4-0.1,1-0.1,1.7-0.1c0.9,0,1.5,0.2,1.9,0.6c0.4,0.3,0.6,0.8,0.6,1.4c0,0.6-0.2,1.1-0.5,1.5
				c-0.5,0.5-1.2,0.7-2.1,0.7c-0.3,0-0.5,0-0.7-0.1v2.7h-0.9V104.6z M416.1,107.9c0.2,0.1,0.4,0.1,0.7,0.1c1.1,0,1.7-0.5,1.7-1.5
				c0-0.9-0.6-1.3-1.6-1.3c-0.4,0-0.7,0-0.8,0.1V107.9z"/>
			<path class="st4" d="M420.4,108c0-0.6,0-1.1,0-1.5h0.8l0,1h0c0.2-0.7,0.8-1.1,1.3-1.1c0.1,0,0.2,0,0.3,0v0.8c-0.1,0-0.2,0-0.3,0
				c-0.6,0-1.1,0.5-1.2,1.1c0,0.1,0,0.3,0,0.4v2.6h-0.9V108z"/>
			<path class="st4" d="M428,108.9c0,1.8-1.2,2.6-2.4,2.6c-1.3,0-2.3-1-2.3-2.5c0-1.6,1.1-2.6,2.4-2.6
				C427.1,106.4,428,107.4,428,108.9z M424.2,108.9c0,1.1,0.6,1.9,1.5,1.9c0.8,0,1.5-0.8,1.5-1.9c0-0.8-0.4-1.9-1.5-1.9
				C424.6,107,424.2,108,424.2,108.9z"/>
			<path class="st4" d="M429.2,108.1c0-0.6,0-1.1,0-1.6h0.8l0,0.8h0c0.4-0.6,0.9-0.9,1.7-0.9c1.2,0,2.1,1,2.1,2.5
				c0,1.8-1.1,2.6-2.2,2.6c-0.6,0-1.2-0.3-1.5-0.8h0v2.6h-0.9V108.1z M430,109.4c0,0.1,0,0.3,0,0.4c0.2,0.6,0.7,1,1.3,1
				c0.9,0,1.5-0.8,1.5-1.9c0-1-0.5-1.8-1.5-1.8c-0.6,0-1.2,0.4-1.3,1.1c0,0.1-0.1,0.2-0.1,0.4V109.4z"/>
			<path class="st4" d="M439.3,108.9c0,1.8-1.2,2.6-2.4,2.6c-1.3,0-2.3-1-2.3-2.5c0-1.6,1.1-2.6,2.4-2.6
				C438.4,106.4,439.3,107.4,439.3,108.9z M435.4,108.9c0,1.1,0.6,1.9,1.5,1.9c0.8,0,1.5-0.8,1.5-1.9c0-0.8-0.4-1.9-1.5-1.9
				C435.9,107,435.4,108,435.4,108.9z"/>
			<path class="st4" d="M440.3,110.4c0.3,0.2,0.7,0.4,1.2,0.4c0.6,0,0.9-0.3,0.9-0.7c0-0.4-0.3-0.7-0.9-0.9
				c-0.9-0.3-1.3-0.8-1.3-1.4c0-0.8,0.6-1.4,1.7-1.4c0.5,0,0.9,0.1,1.2,0.3l-0.2,0.6c-0.2-0.1-0.5-0.3-1-0.3c-0.5,0-0.8,0.3-0.8,0.7
				c0,0.4,0.3,0.6,0.9,0.8c0.8,0.3,1.3,0.7,1.3,1.5c0,0.9-0.7,1.5-1.8,1.5c-0.5,0-1-0.1-1.4-0.3L440.3,110.4z"/>
			<path class="st4" d="M445.4,105.1c0,0.3-0.2,0.5-0.6,0.5c-0.3,0-0.5-0.2-0.5-0.5c0-0.3,0.2-0.6,0.6-0.6
				C445.2,104.5,445.4,104.8,445.4,105.1z M444.4,111.3v-4.9h0.9v4.9H444.4z"/>
			<path class="st4" d="M447.8,105.1v1.4h1.3v0.7h-1.3v2.6c0,0.6,0.2,0.9,0.7,0.9c0.2,0,0.4,0,0.5-0.1l0,0.7
				c-0.2,0.1-0.4,0.1-0.8,0.1c-0.4,0-0.7-0.1-1-0.4c-0.3-0.3-0.3-0.7-0.3-1.3v-2.7h-0.8v-0.7h0.8v-1.2L447.8,105.1z"/>
			<path class="st4" d="M451.1,105.1c0,0.3-0.2,0.5-0.6,0.5c-0.3,0-0.5-0.2-0.5-0.5c0-0.3,0.2-0.6,0.6-0.6
				C450.9,104.5,451.1,104.8,451.1,105.1z M450.1,111.3v-4.9h0.9v4.9H450.1z"/>
			<path class="st4" d="M456.9,108.9c0,1.8-1.2,2.6-2.4,2.6c-1.3,0-2.3-1-2.3-2.5c0-1.6,1.1-2.6,2.4-2.6
				C455.9,106.4,456.9,107.4,456.9,108.9z M453,108.9c0,1.1,0.6,1.9,1.5,1.9c0.8,0,1.5-0.8,1.5-1.9c0-0.8-0.4-1.9-1.5-1.9
				C453.4,107,453,108,453,108.9z"/>
			<path class="st4" d="M458,107.8c0-0.5,0-0.9,0-1.3h0.8l0.1,0.8h0c0.2-0.5,0.8-0.9,1.6-0.9c0.7,0,1.7,0.4,1.7,2.1v2.9h-0.9v-2.8
				c0-0.8-0.3-1.4-1.1-1.4c-0.6,0-1,0.4-1.2,0.9c0,0.1-0.1,0.3-0.1,0.4v2.9H458V107.8z"/>
		</g>
		<g class="st3">
			<path class="st4" d="M545.3,95.4c-0.3,0.2-1,0.3-1.8,0.3c-1.9,0-3.4-1.2-3.4-3.4c0-2.1,1.4-3.6,3.5-3.6c0.8,0,1.4,0.2,1.6,0.3
				l-0.2,0.7c-0.3-0.2-0.8-0.3-1.4-0.3c-1.6,0-2.6,1-2.6,2.8c0,1.7,1,2.7,2.6,2.7c0.5,0,1.1-0.1,1.4-0.3L545.3,95.4z"/>
			<path class="st4" d="M550.3,94.3c0,0.5,0,0.9,0,1.3h-0.8l-0.1-0.8h0c-0.2,0.4-0.7,0.9-1.6,0.9c-0.8,0-1.7-0.4-1.7-2.1v-2.9h0.9
				v2.7c0,0.9,0.3,1.6,1.1,1.6c0.6,0,1-0.4,1.2-0.8c0.1-0.1,0.1-0.3,0.1-0.5v-3h0.9V94.3z"/>
			<path class="st4" d="M551.7,94.7c0.3,0.2,0.7,0.4,1.2,0.4c0.6,0,0.9-0.3,0.9-0.7c0-0.4-0.3-0.7-0.9-0.9c-0.9-0.3-1.3-0.8-1.3-1.4
				c0-0.8,0.6-1.4,1.7-1.4c0.5,0,0.9,0.1,1.2,0.3l-0.2,0.6c-0.2-0.1-0.5-0.3-1-0.3c-0.5,0-0.8,0.3-0.8,0.7c0,0.4,0.3,0.6,0.9,0.8
				c0.8,0.3,1.3,0.7,1.3,1.5c0,0.9-0.7,1.5-1.8,1.5c-0.5,0-1-0.1-1.4-0.3L551.7,94.7z"/>
			<path class="st4" d="M556.8,89.3v1.4h1.3v0.7h-1.3V94c0,0.6,0.2,0.9,0.7,0.9c0.2,0,0.4,0,0.5-0.1l0,0.7c-0.2,0.1-0.4,0.1-0.8,0.1
				c-0.4,0-0.7-0.1-1-0.4c-0.3-0.3-0.3-0.7-0.3-1.3v-2.7h-0.8v-0.7h0.8v-1.2L556.8,89.3z"/>
			<path class="st4" d="M563.4,93.1c0,1.8-1.2,2.6-2.4,2.6c-1.3,0-2.3-1-2.3-2.5c0-1.6,1.1-2.6,2.4-2.6
				C562.5,90.6,563.4,91.6,563.4,93.1z M559.6,93.2c0,1.1,0.6,1.9,1.5,1.9c0.8,0,1.5-0.8,1.5-1.9c0-0.8-0.4-1.9-1.5-1.9
				C560,91.3,559.6,92.3,559.6,93.2z"/>
			<path class="st4" d="M564.6,92c0-0.5,0-0.9,0-1.3h0.8l0,0.8h0c0.3-0.5,0.7-0.9,1.5-0.9c0.7,0,1.2,0.4,1.4,1h0
				c0.2-0.3,0.3-0.5,0.5-0.6c0.3-0.2,0.6-0.3,1.1-0.3c0.6,0,1.6,0.4,1.6,2.1v2.9h-0.9v-2.8c0-0.9-0.3-1.5-1.1-1.5
				c-0.5,0-0.9,0.4-1,0.8c0,0.1-0.1,0.3-0.1,0.4v3h-0.9v-2.9c0-0.8-0.3-1.3-1-1.3c-0.6,0-1,0.4-1.1,0.9c-0.1,0.1-0.1,0.3-0.1,0.4
				v2.9h-0.9V92z"/>
			<path class="st4" d="M573.5,93.3c0,1.2,0.8,1.7,1.7,1.7c0.6,0,1-0.1,1.3-0.3l0.2,0.6c-0.3,0.1-0.8,0.3-1.6,0.3
				c-1.5,0-2.4-1-2.4-2.5c0-1.5,0.9-2.6,2.3-2.6c1.6,0,2,1.4,2,2.3c0,0.2,0,0.3,0,0.4H573.5z M576.1,92.7c0-0.6-0.2-1.4-1.2-1.4
				c-0.9,0-1.3,0.8-1.4,1.4H576.1z"/>
			<path class="st4" d="M578,92.3c0-0.6,0-1.1,0-1.5h0.8l0,1h0c0.2-0.7,0.8-1.1,1.3-1.1c0.1,0,0.2,0,0.3,0v0.8c-0.1,0-0.2,0-0.3,0
				c-0.6,0-1.1,0.5-1.2,1.1c0,0.1,0,0.3,0,0.4v2.6H578V92.3z"/>
		</g>
		<g class="st3">
			<path class="st4" d="M540.5,100.9c0.4-0.1,1.1-0.1,1.7-0.1c0.9,0,1.5,0.2,2,0.6c0.3,0.3,0.5,0.8,0.5,1.3c0,0.9-0.6,1.5-1.3,1.7v0
				c0.5,0.2,0.8,0.7,1,1.4c0.2,0.9,0.4,1.6,0.5,1.9h-0.9c-0.1-0.2-0.3-0.8-0.5-1.6c-0.2-0.9-0.6-1.3-1.4-1.3h-0.8v2.9h-0.9V100.9z
				 M541.4,104h0.9c0.9,0,1.5-0.5,1.5-1.3c0-0.9-0.6-1.3-1.6-1.3c-0.4,0-0.7,0-0.9,0.1V104z"/>
			<path class="st4" d="M546.5,105.3c0,1.2,0.8,1.7,1.7,1.7c0.6,0,1-0.1,1.4-0.3l0.2,0.6c-0.3,0.1-0.8,0.3-1.6,0.3
				c-1.5,0-2.4-1-2.4-2.5c0-1.5,0.9-2.6,2.3-2.6c1.6,0,2,1.4,2,2.3c0,0.2,0,0.3,0,0.4H546.5z M549.1,104.7c0-0.6-0.2-1.4-1.2-1.4
				c-0.9,0-1.3,0.8-1.4,1.4H549.1z"/>
			<path class="st4" d="M551,100.4h0.9v7.2H551V100.4z"/>
			<path class="st4" d="M556.1,107.6L556,107h0c-0.3,0.4-0.8,0.7-1.5,0.7c-1,0-1.5-0.7-1.5-1.4c0-1.2,1-1.8,2.9-1.8v-0.1
				c0-0.4-0.1-1.1-1.1-1.1c-0.5,0-0.9,0.1-1.3,0.4l-0.2-0.6c0.4-0.3,1-0.4,1.6-0.4c1.5,0,1.9,1,1.9,2v1.8c0,0.4,0,0.8,0.1,1.2H556.1
				z M556,105.1c-1,0-2.1,0.2-2.1,1.1c0,0.6,0.4,0.8,0.8,0.8c0.6,0,1-0.4,1.2-0.8c0-0.1,0.1-0.2,0.1-0.3V105.1z"/>
			<path class="st4" d="M559.3,101.3v1.4h1.3v0.7h-1.3v2.6c0,0.6,0.2,0.9,0.7,0.9c0.2,0,0.4,0,0.5-0.1l0,0.7
				c-0.2,0.1-0.4,0.1-0.8,0.1c-0.4,0-0.7-0.1-1-0.4c-0.3-0.3-0.3-0.7-0.3-1.3v-2.7h-0.8v-0.7h0.8v-1.2L559.3,101.3z"/>
			<path class="st4" d="M562.5,101.3c0,0.3-0.2,0.5-0.6,0.5c-0.3,0-0.5-0.2-0.5-0.5c0-0.3,0.2-0.6,0.6-0.6
				C562.3,100.8,562.5,101,562.5,101.3z M561.5,107.6v-4.9h0.9v4.9H561.5z"/>
			<path class="st4" d="M568.3,105.1c0,1.8-1.2,2.6-2.4,2.6c-1.3,0-2.3-1-2.3-2.5c0-1.6,1.1-2.6,2.4-2.6
				C567.4,102.6,568.3,103.6,568.3,105.1z M564.4,105.1c0,1.1,0.6,1.9,1.5,1.9c0.8,0,1.5-0.8,1.5-1.9c0-0.8-0.4-1.9-1.5-1.9
				S564.4,104.2,564.4,105.1z"/>
			<path class="st4" d="M569.4,104c0-0.5,0-0.9,0-1.3h0.8l0.1,0.8h0c0.2-0.5,0.8-0.9,1.6-0.9c0.7,0,1.7,0.4,1.7,2.1v2.9h-0.9v-2.8
				c0-0.8-0.3-1.4-1.1-1.4c-0.6,0-1,0.4-1.2,0.9c0,0.1-0.1,0.3-0.1,0.4v2.9h-0.9V104z"/>
			<path class="st4" d="M574.9,106.7c0.3,0.2,0.7,0.4,1.2,0.4c0.6,0,0.9-0.3,0.9-0.7c0-0.4-0.3-0.7-0.9-0.9
				c-0.9-0.3-1.3-0.8-1.3-1.4c0-0.8,0.6-1.4,1.7-1.4c0.5,0,0.9,0.1,1.2,0.3l-0.2,0.6c-0.2-0.1-0.5-0.3-1-0.3c-0.5,0-0.8,0.3-0.8,0.7
				c0,0.4,0.3,0.6,0.9,0.8c0.8,0.3,1.3,0.7,1.3,1.5c0,0.9-0.7,1.5-1.8,1.5c-0.5,0-1-0.1-1.4-0.3L574.9,106.7z"/>
			<path class="st4" d="M579,100.4h0.9v3h0c0.1-0.3,0.4-0.5,0.6-0.6c0.3-0.2,0.6-0.3,0.9-0.3c0.7,0,1.7,0.4,1.7,2.1v2.9h-0.9v-2.8
				c0-0.8-0.3-1.5-1.1-1.5c-0.6,0-1,0.4-1.2,0.9c-0.1,0.1-0.1,0.3-0.1,0.4v2.9H579V100.4z"/>
			<path class="st4" d="M585.6,101.3c0,0.3-0.2,0.5-0.6,0.5c-0.3,0-0.5-0.2-0.5-0.5c0-0.3,0.2-0.6,0.6-0.6
				C585.4,100.8,585.6,101,585.6,101.3z M584.6,107.6v-4.9h0.9v4.9H584.6z"/>
			<path class="st4" d="M586.9,104.3c0-0.6,0-1.1,0-1.6h0.8l0,0.8h0c0.4-0.6,0.9-0.9,1.7-0.9c1.2,0,2.1,1,2.1,2.5
				c0,1.8-1.1,2.6-2.2,2.6c-0.6,0-1.2-0.3-1.5-0.8h0v2.6h-0.9V104.3z M587.8,105.6c0,0.1,0,0.3,0,0.4c0.2,0.6,0.7,1,1.3,1
				c0.9,0,1.5-0.8,1.5-1.9c0-1-0.5-1.8-1.5-1.8c-0.6,0-1.2,0.4-1.3,1.1c0,0.1-0.1,0.2-0.1,0.4V105.6z"/>
			<path class="st4" d="M592.6,106.7c0.3,0.2,0.7,0.4,1.2,0.4c0.6,0,0.9-0.3,0.9-0.7c0-0.4-0.3-0.7-0.9-0.9
				c-0.9-0.3-1.3-0.8-1.3-1.4c0-0.8,0.6-1.4,1.7-1.4c0.5,0,0.9,0.1,1.2,0.3l-0.2,0.6c-0.2-0.1-0.5-0.3-1-0.3c-0.5,0-0.8,0.3-0.8,0.7
				c0,0.4,0.3,0.6,0.9,0.8c0.8,0.3,1.3,0.7,1.3,1.5c0,0.9-0.7,1.5-1.8,1.5c-0.5,0-1-0.1-1.4-0.3L592.6,106.7z"/>
		</g>
		<g class="st3">
			<path class="st4" d="M545.3,269.1c-0.3,0.2-1,0.3-1.8,0.3c-1.9,0-3.4-1.2-3.4-3.4c0-2.1,1.4-3.6,3.5-3.6c0.8,0,1.4,0.2,1.6,0.3
				l-0.2,0.7c-0.3-0.2-0.8-0.3-1.4-0.3c-1.6,0-2.6,1-2.6,2.8c0,1.7,1,2.7,2.6,2.7c0.5,0,1.1-0.1,1.4-0.3L545.3,269.1z"/>
			<path class="st4" d="M546.3,262.2h0.9v3h0c0.1-0.3,0.4-0.5,0.6-0.6c0.3-0.2,0.6-0.3,0.9-0.3c0.7,0,1.7,0.4,1.7,2.1v2.9h-0.9v-2.8
				c0-0.8-0.3-1.5-1.1-1.5c-0.6,0-1,0.4-1.2,0.9c-0.1,0.1-0.1,0.3-0.1,0.4v2.9h-0.9V262.2z"/>
			<path class="st4" d="M554.6,269.3l-0.1-0.6h0c-0.3,0.4-0.8,0.7-1.5,0.7c-1,0-1.5-0.7-1.5-1.4c0-1.2,1-1.8,2.9-1.8v-0.1
				c0-0.4-0.1-1.1-1.1-1.1c-0.5,0-0.9,0.1-1.3,0.4l-0.2-0.6c0.4-0.3,1-0.4,1.6-0.4c1.5,0,1.9,1,1.9,2v1.8c0,0.4,0,0.8,0.1,1.2H554.6
				z M554.5,266.9c-1,0-2.1,0.2-2.1,1.1c0,0.6,0.4,0.8,0.8,0.8c0.6,0,1-0.4,1.2-0.8c0-0.1,0.1-0.2,0.1-0.3V266.9z"/>
			<path class="st4" d="M556.8,265.8c0-0.5,0-0.9,0-1.3h0.8l0.1,0.8h0c0.2-0.5,0.8-0.9,1.6-0.9c0.7,0,1.7,0.4,1.7,2.1v2.9h-0.9v-2.8
				c0-0.8-0.3-1.4-1.1-1.4c-0.6,0-1,0.4-1.2,0.9c0,0.1-0.1,0.3-0.1,0.4v2.9h-0.9V265.8z"/>
			<path class="st4" d="M562.4,265.8c0-0.5,0-0.9,0-1.3h0.8l0.1,0.8h0c0.2-0.5,0.8-0.9,1.6-0.9c0.7,0,1.7,0.4,1.7,2.1v2.9h-0.9v-2.8
				c0-0.8-0.3-1.4-1.1-1.4c-0.6,0-1,0.4-1.2,0.9c0,0.1-0.1,0.3-0.1,0.4v2.9h-0.9V265.8z"/>
			<path class="st4" d="M568.5,267.1c0,1.2,0.8,1.7,1.7,1.7c0.6,0,1-0.1,1.4-0.3l0.2,0.6c-0.3,0.1-0.8,0.3-1.6,0.3
				c-1.5,0-2.4-1-2.4-2.5c0-1.5,0.9-2.6,2.3-2.6c1.6,0,2,1.4,2,2.3c0,0.2,0,0.3,0,0.4H568.5z M571.1,266.4c0-0.6-0.2-1.4-1.2-1.4
				c-0.9,0-1.3,0.8-1.4,1.4H571.1z"/>
			<path class="st4" d="M573,262.2h0.9v7.2H573V262.2z"/>
			<path class="st4" d="M575.3,268.4c0.3,0.2,0.7,0.4,1.2,0.4c0.6,0,0.9-0.3,0.9-0.7c0-0.4-0.3-0.7-0.9-0.9
				c-0.9-0.3-1.3-0.8-1.3-1.4c0-0.8,0.6-1.4,1.7-1.4c0.5,0,0.9,0.1,1.2,0.3l-0.2,0.6c-0.2-0.1-0.5-0.3-1-0.3c-0.5,0-0.8,0.3-0.8,0.7
				c0,0.4,0.3,0.6,0.9,0.8c0.8,0.3,1.3,0.7,1.3,1.5c0,0.9-0.7,1.5-1.8,1.5c-0.5,0-1-0.1-1.4-0.3L575.3,268.4z"/>
		</g>
		<g class="st3">
			<path class="st4" d="M667.4,95.4c-0.3,0.2-1,0.3-1.8,0.3c-1.9,0-3.4-1.2-3.4-3.4c0-2.1,1.4-3.6,3.5-3.6c0.8,0,1.4,0.2,1.6,0.3
				l-0.2,0.7c-0.3-0.2-0.8-0.3-1.4-0.3c-1.6,0-2.6,1-2.6,2.8c0,1.7,1,2.7,2.6,2.7c0.5,0,1.1-0.1,1.4-0.3L667.4,95.4z"/>
			<path class="st4" d="M672.4,94.3c0,0.5,0,0.9,0,1.3h-0.8l-0.1-0.8h0c-0.2,0.4-0.7,0.9-1.6,0.9c-0.8,0-1.7-0.4-1.7-2.1v-2.9h0.9
				v2.7c0,0.9,0.3,1.6,1.1,1.6c0.6,0,1-0.4,1.2-0.8c0.1-0.1,0.1-0.3,0.1-0.5v-3h0.9V94.3z"/>
			<path class="st4" d="M673.8,94.7c0.3,0.2,0.7,0.4,1.2,0.4c0.6,0,0.9-0.3,0.9-0.7c0-0.4-0.3-0.7-0.9-0.9c-0.9-0.3-1.3-0.8-1.3-1.4
				c0-0.8,0.6-1.4,1.7-1.4c0.5,0,0.9,0.1,1.2,0.3l-0.2,0.6c-0.2-0.1-0.5-0.3-1-0.3c-0.5,0-0.8,0.3-0.8,0.7c0,0.4,0.3,0.6,0.9,0.8
				c0.8,0.3,1.3,0.7,1.3,1.5c0,0.9-0.7,1.5-1.8,1.5c-0.5,0-1-0.1-1.4-0.3L673.8,94.7z"/>
			<path class="st4" d="M679,89.3v1.4h1.3v0.7H679V94c0,0.6,0.2,0.9,0.7,0.9c0.2,0,0.4,0,0.5-0.1l0,0.7c-0.2,0.1-0.4,0.1-0.8,0.1
				c-0.4,0-0.7-0.1-1-0.4c-0.3-0.3-0.3-0.7-0.3-1.3v-2.7h-0.8v-0.7h0.8v-1.2L679,89.3z"/>
			<path class="st4" d="M685.6,93.1c0,1.8-1.2,2.6-2.4,2.6c-1.3,0-2.3-1-2.3-2.5c0-1.6,1.1-2.6,2.4-2.6
				C684.6,90.6,685.6,91.6,685.6,93.1z M681.7,93.2c0,1.1,0.6,1.9,1.5,1.9c0.8,0,1.5-0.8,1.5-1.9c0-0.8-0.4-1.9-1.5-1.9
				C682.2,91.3,681.7,92.3,681.7,93.2z"/>
			<path class="st4" d="M686.7,92c0-0.5,0-0.9,0-1.3h0.8l0,0.8h0c0.3-0.5,0.7-0.9,1.5-0.9c0.7,0,1.2,0.4,1.4,1h0
				c0.2-0.3,0.3-0.5,0.5-0.6c0.3-0.2,0.6-0.3,1.1-0.3c0.6,0,1.6,0.4,1.6,2.1v2.9h-0.9v-2.8c0-0.9-0.3-1.5-1.1-1.5
				c-0.5,0-0.9,0.4-1,0.8c0,0.1-0.1,0.3-0.1,0.4v3h-0.9v-2.9c0-0.8-0.3-1.3-1-1.3c-0.6,0-1,0.4-1.1,0.9c-0.1,0.1-0.1,0.3-0.1,0.4
				v2.9h-0.9V92z"/>
			<path class="st4" d="M695.6,93.3c0,1.2,0.8,1.7,1.7,1.7c0.6,0,1-0.1,1.3-0.3l0.2,0.6c-0.3,0.1-0.8,0.3-1.6,0.3
				c-1.5,0-2.4-1-2.4-2.5c0-1.5,0.9-2.6,2.3-2.6c1.6,0,2,1.4,2,2.3c0,0.2,0,0.3,0,0.4H695.6z M698.2,92.7c0-0.6-0.2-1.4-1.2-1.4
				c-0.9,0-1.3,0.8-1.4,1.4H698.2z"/>
			<path class="st4" d="M700.1,92.3c0-0.6,0-1.1,0-1.5h0.8l0,1h0c0.2-0.7,0.8-1.1,1.3-1.1c0.1,0,0.2,0,0.3,0v0.8c-0.1,0-0.2,0-0.3,0
				c-0.6,0-1.1,0.5-1.2,1.1c0,0.1,0,0.3,0,0.4v2.6h-0.9V92.3z"/>
		</g>
		<g class="st3">
			<path class="st4" d="M662.5,106.5c0.4,0.2,1,0.4,1.6,0.4c0.9,0,1.4-0.5,1.4-1.2c0-0.6-0.4-1-1.3-1.3c-1.1-0.4-1.8-1-1.8-1.9
				c0-1.1,0.9-1.8,2.2-1.8c0.7,0,1.2,0.2,1.5,0.3l-0.2,0.7c-0.2-0.1-0.7-0.3-1.3-0.3c-0.9,0-1.3,0.6-1.3,1c0,0.6,0.4,0.9,1.3,1.3
				c1.1,0.4,1.7,1,1.7,2c0,1-0.8,2-2.4,2c-0.7,0-1.4-0.2-1.7-0.4L662.5,106.5z"/>
			<path class="st4" d="M668.1,105.3c0,1.2,0.8,1.7,1.7,1.7c0.6,0,1-0.1,1.3-0.3l0.2,0.6c-0.3,0.1-0.8,0.3-1.6,0.3
				c-1.5,0-2.4-1-2.4-2.5c0-1.5,0.9-2.6,2.3-2.6c1.6,0,2,1.4,2,2.3c0,0.2,0,0.3,0,0.4H668.1z M670.7,104.7c0-0.6-0.2-1.4-1.2-1.4
				c-0.9,0-1.3,0.8-1.4,1.4H670.7z"/>
			<path class="st4" d="M676.9,102.7c0,0.4,0,0.7,0,1.3v2.8c0,1.1-0.2,1.8-0.7,2.2c-0.5,0.4-1.2,0.6-1.8,0.6c-0.6,0-1.2-0.1-1.6-0.4
				l0.2-0.7c0.3,0.2,0.8,0.4,1.4,0.4c0.9,0,1.6-0.5,1.6-1.7v-0.5h0c-0.3,0.5-0.8,0.8-1.6,0.8c-1.2,0-2.1-1-2.1-2.4
				c0-1.7,1.1-2.6,2.2-2.6c0.8,0,1.3,0.4,1.5,0.8h0l0-0.7H676.9z M676,104.6c0-0.2,0-0.3-0.1-0.4c-0.2-0.5-0.6-0.9-1.2-0.9
				c-0.8,0-1.5,0.7-1.5,1.8c0,1,0.5,1.8,1.4,1.8c0.5,0,1-0.3,1.2-0.9c0.1-0.2,0.1-0.3,0.1-0.5V104.6z"/>
			<path class="st4" d="M678.3,104c0-0.5,0-0.9,0-1.3h0.8l0,0.8h0c0.3-0.5,0.7-0.9,1.5-0.9c0.7,0,1.2,0.4,1.4,1h0
				c0.2-0.3,0.3-0.5,0.5-0.6c0.3-0.2,0.6-0.3,1.1-0.3c0.6,0,1.6,0.4,1.6,2.1v2.9h-0.9v-2.8c0-0.9-0.3-1.5-1.1-1.5
				c-0.5,0-0.9,0.4-1,0.8c0,0.1-0.1,0.3-0.1,0.4v3h-0.9v-2.9c0-0.8-0.3-1.3-1-1.3c-0.6,0-1,0.4-1.1,0.9c-0.1,0.1-0.1,0.3-0.1,0.4
				v2.9h-0.9V104z"/>
			<path class="st4" d="M687.2,105.3c0,1.2,0.8,1.7,1.7,1.7c0.6,0,1-0.1,1.4-0.3l0.2,0.6c-0.3,0.1-0.8,0.3-1.6,0.3
				c-1.5,0-2.4-1-2.4-2.5c0-1.5,0.9-2.6,2.3-2.6c1.6,0,2,1.4,2,2.3c0,0.2,0,0.3,0,0.4H687.2z M689.8,104.7c0-0.6-0.2-1.4-1.2-1.4
				c-0.9,0-1.3,0.8-1.4,1.4H689.8z"/>
			<path class="st4" d="M691.7,104c0-0.5,0-0.9,0-1.3h0.8l0.1,0.8h0c0.2-0.5,0.8-0.9,1.6-0.9c0.7,0,1.7,0.4,1.7,2.1v2.9H695v-2.8
				c0-0.8-0.3-1.4-1.1-1.4c-0.6,0-1,0.4-1.2,0.9c0,0.1-0.1,0.3-0.1,0.4v2.9h-0.9V104z"/>
			<path class="st4" d="M698.3,101.3v1.4h1.3v0.7h-1.3v2.6c0,0.6,0.2,0.9,0.7,0.9c0.2,0,0.4,0,0.5-0.1l0,0.7
				c-0.2,0.1-0.4,0.1-0.8,0.1c-0.4,0-0.7-0.1-1-0.4c-0.3-0.3-0.3-0.7-0.3-1.3v-2.7h-0.8v-0.7h0.8v-1.2L698.3,101.3z"/>
			<path class="st4" d="M700.5,106.7c0.3,0.2,0.7,0.4,1.2,0.4c0.6,0,0.9-0.3,0.9-0.7c0-0.4-0.3-0.7-0.9-0.9
				c-0.9-0.3-1.3-0.8-1.3-1.4c0-0.8,0.6-1.4,1.7-1.4c0.5,0,0.9,0.1,1.2,0.3l-0.2,0.6c-0.2-0.1-0.5-0.3-1-0.3c-0.5,0-0.8,0.3-0.8,0.7
				c0,0.4,0.3,0.6,0.9,0.8c0.8,0.3,1.3,0.7,1.3,1.5c0,0.9-0.7,1.5-1.8,1.5c-0.5,0-1-0.1-1.4-0.3L700.5,106.7z"/>
		</g>
		<g id="compromise1" transform="translate(150.000000, 81.000000)">
			<path id="Shape" class="st5" d="M111.5,10.4c-1.7,0-3.2,0.5-4.5,1.4c-0.8-0.5-1.7-0.9-2.6-1.1l0.5-0.8c0.1-0.2,0.1-0.6,0-0.8
				l-0.8-1.4c-0.1-0.2-0.5-0.5-0.7-0.5h-1.7c-0.3,0-0.6,0.3-0.7,0.5L100.1,9c-0.1,0.2-0.1,0.6,0,0.8l0.5,0.8
				c-3.5,0.9-6.1,4.1-6.1,7.9c0,4.5,3.6,8.2,8.1,8.2c1.7,0,3.2-0.5,4.5-1.4c1.3,0.9,2.8,1.4,4.5,1.4c4.5,0,8.1-3.7,8.1-8.2
				S116,10.4,111.5,10.4L111.5,10.4z M107,22.3c-0.8-1-1.3-2.3-1.3-3.8c0-1.4,0.5-2.7,1.3-3.8c0.8,1,1.3,2.3,1.3,3.8
				C108.4,20,107.9,21.3,107,22.3L107,22.3z M102.5,24.5c-3.2,0-5.8-2.6-5.8-5.9s2.6-5.9,5.8-5.9c1,0,1.9,0.3,2.8,0.7
				c-1.2,1.4-1.9,3.2-1.9,5.2s0.7,3.8,1.9,5.2C104.5,24.2,103.5,24.5,102.5,24.5L102.5,24.5z M111.5,24.5c-1,0-1.9-0.3-2.8-0.7
				c1.2-1.4,1.9-3.2,1.9-5.2s-0.7-3.8-1.9-5.2c0.8-0.4,1.8-0.7,2.8-0.7c3.2,0,5.8,2.6,5.8,5.9S114.7,24.5,111.5,24.5L111.5,24.5z"/>
		</g>
		<g id="person128" transform="translate(351.000000, 81.000000)">
			<g id="Group">
				<path class="st5" d="M32.9,16.9H20.1v1.4h1.1v12.6h9.1V18.3h2.7V16.9z"/>
				<path class="st5" d="M39.5,23.2C39.5,23.2,39.5,23.2,39.5,23.2c1.7,0.1,2.6-0.5,2.8-1.8l0.7-6.1c0.1-1.1-0.8-2-1.7-2.4l0,0
					c0,0-0.3-0.1-0.6-0.1c-0.3,0-0.6,0-0.6,0c-0.7,0.1-1.4,0.6-1.4,0.6c-1.3,0.9-3.3,1.1-6,0.6c-0.7-0.1-1.3,0.3-1.5,1
					c-0.1,0.7,0.3,1.3,1,1.5c1.1,0.2,2.2,0.3,3.1,0.3c0.9,0,1.7-0.1,2.4-0.3l0,0.1l-0.4,3.9C35,20.6,33.6,21,33,21.9
					c-0.8,1.2-2,5.8-2.3,7.3c-0.2,0.7,0.3,1.5,1,1.7c0.1,0,0.2,0,0.3,0c0.6,0,1.2-0.4,1.3-1c0.6-2.5,1.5-5.1,1.9-6
					C35.6,23.1,37.7,23.1,39.5,23.2L39.5,23.2z"/>
				<ellipse id="Oval" class="st5" cx="40.3" cy="9.9" rx="2.8" ry="2.8"/>
				<path class="st5" d="M44.9,20.5l0.4-4.8c0,0,0-0.1,0-0.1c0,0,0,0-0.1,0h-1.5c-0.1,0-0.1,0-0.1,0.1l-0.3,4.8c0,1.5-0.5,3.3-3,3.3
					c0,0-2.7,0-2.7,0h0c0,0-0.1,0-0.1,0c0,0,0,0,0,0.1v1.5c0,0.1,0,0.1,0.1,0.1l2.5,0v3.4h-0.8c-1,0-1.9,0.9-1.9,2
					c0,0.1,0,0.1,0.1,0.1h1c0.1,0,0.1,0,0.1-0.1c0-0.4,0.3-0.7,0.7-0.7h3.2c0.4,0,0.7,0.3,0.7,0.7c0,0.1,0,0.1,0.1,0.1h1
					c0.1,0,0.1,0,0.1-0.1c0-1.1-0.9-2-1.9-2h-0.8v-3.6C44.1,25.2,44.7,22.8,44.9,20.5L44.9,20.5z"/>
				<path class="st5" d="M30.5,15.5h-4.7l-1.6-5.9c0,0-0.1-0.1-0.1-0.1l-0.8,0.2c0,0,0,0,0,0c0,0,0,0,0,0.1l1.8,6.6
					c0,0,0,0.1,0.1,0.1h5.4c0,0,0.1,0,0.1-0.1L30.5,15.5C30.6,15.5,30.5,15.5,30.5,15.5L30.5,15.5z"/>
			</g>
		</g>
		<g id="businessman116" transform="translate(351.000000, 351.000000)">
			<g>
				<path class="st5" d="M41.5-83.7c1.1,0,1.9-0.9,1.9-1.9c0-1.1-0.9-1.9-1.9-1.9c-1.1,0-1.9,0.9-1.9,1.9
					C39.6-84.6,40.4-83.7,41.5-83.7L41.5-83.7z"/>
				<path class="st5" d="M42.7-83.2C42.7-83.2,42.7-83.3,42.7-83.2c-0.3-0.2-0.5-0.3-0.8-0.4l-0.5,0.5L41-83.6c0,0,0,0,0,0
					c-0.2,0.1-0.5,0.2-0.7,0.3c0,0-0.1,0-0.1,0.1c-1.5,0.9-2.3,1.6-2.6,5.9c0,0.4,0.3,0.8,0.7,0.8c0,0,0,0,0,0
					c0.4,0,0.7-0.3,0.7-0.7c0.1-1.4,0.2-2.4,0.4-3v2.6c0,0.2,0,0.4,0.1,0.6c0,0,0,0.1,0,0.1l0,7.2c0,0.5,0.4,0.9,0.9,0.9
					c0.5,0,0.9-0.4,0.9-0.9l0-6.2c0,0,0.1,0,0.1,0c0,0,0,0,0,0v6.2c0,0.5,0.4,0.9,0.9,0.9c0.5,0,0.9-0.4,0.9-0.9l0-7.1
					c0.1-0.2,0.2-0.5,0.2-0.7v-2.6c0.2,0.6,0.3,1.6,0.4,3c0,0.4,0.4,0.7,0.7,0.7c0,0,0,0,0,0c0.4,0,0.7-0.4,0.7-0.8
					C45.1-81.6,44.2-82.3,42.7-83.2L42.7-83.2z M41.5-79.3L41.5-79.3L41-79.9l0.5-3.1h0l0.5,3.1L41.5-79.3L41.5-79.3z"/>
				<path class="st5" d="M21.3-82c0,0.8,0.6,1.4,1.4,1.4c0.7,0,1.4-0.6,1.4-1.4s-0.6-1.4-1.4-1.4C21.9-83.4,21.3-82.8,21.3-82
					L21.3-82z"/>
				<path class="st5" d="M23.6-80.3C23.5-80.4,23.5-80.4,23.6-80.3c-0.2-0.1-0.4-0.2-0.6-0.3l-0.3,0.3l-0.3-0.3c0,0,0,0,0,0
					c-0.2,0-0.3,0.1-0.5,0.2c0,0-0.1,0-0.1,0c-0.9,0.6-1.5,1.1-1.8,3.3H21c0.1-0.5,0.1-0.9,0.2-1.2v1.2H24v-1.2
					c0.1,0.3,0.2,0.7,0.2,1.2h1.1C25.1-79.3,24.5-79.8,23.6-80.3L23.6-80.3z M22.7-77.5L22.7-77.5L22.3-78l0.3-2.2h0L23-78
					L22.7-77.5L22.7-77.5z"/>
				<path class="st5" d="M26.6-82c0,0.8,0.6,1.4,1.4,1.4c0.7,0,1.4-0.6,1.4-1.4s-0.6-1.4-1.4-1.4C27.2-83.4,26.6-82.8,26.6-82
					L26.6-82z"/>
				<path class="st5" d="M28.9-80.3C28.9-80.4,28.8-80.4,28.9-80.3c-0.2-0.1-0.4-0.2-0.6-0.3L28-80.3l-0.3-0.3c0,0,0,0,0,0
					c-0.2,0-0.3,0.1-0.5,0.2c0,0-0.1,0-0.1,0c-0.9,0.6-1.5,1.1-1.8,3.3h1.1c0.1-0.5,0.1-0.9,0.2-1.2v1.2h2.8v-1.2
					c0.1,0.3,0.2,0.7,0.2,1.2h1.1C30.4-79.3,29.8-79.8,28.9-80.3L28.9-80.3z M28-77.5L28-77.5L27.7-78l0.3-2.2h0l0.3,2.2L28-77.5
					L28-77.5z"/>
				<path class="st5" d="M25.3-83.8c2.5,0,4.6-2.1,4.6-4.6c0-2.6-2-4.6-4.6-4.6c-2.5,0-4.6,2.1-4.6,4.6
					C20.7-85.9,22.8-83.8,25.3-83.8L25.3-83.8z M25.3-91.8c1.8,0,3.3,1.5,3.3,3.4c0,1.9-1.5,3.4-3.3,3.4c-1.8,0-3.3-1.5-3.3-3.4
					C22-90.3,23.5-91.8,25.3-91.8L25.3-91.8z"/>
				<path class="st5" d="M27.6-88.9h-1.9v-2h-1v3h2.8V-88.9z"/>
				<path class="st5" d="M29.4-70.7l-0.5-0.2c0-0.4,0-0.7,0-1.1l0.5-0.2c0.3-0.1,0.4-0.5,0.3-0.8l-0.3-0.6c-0.1-0.3-0.5-0.4-0.8-0.3
					l-0.5,0.2c-0.2-0.3-0.5-0.6-0.8-0.8l0.2-0.5c0.1-0.3,0-0.7-0.4-0.8L26.5-76c-0.3-0.1-0.7,0.1-0.8,0.4l-0.2,0.5
					c-0.4,0-0.7,0-1.1,0l-0.2-0.5c-0.1-0.3-0.5-0.4-0.8-0.3l-0.6,0.3c-0.3,0.1-0.4,0.5-0.3,0.8l0.2,0.5c-0.3,0.2-0.5,0.5-0.7,0.8
					l-0.5-0.2c-0.3-0.1-0.7,0.1-0.8,0.4l-0.2,0.6c-0.1,0.2,0,0.3,0,0.5c0.1,0.1,0.2,0.3,0.3,0.3l0.5,0.2c0,0.4,0,0.7,0,1.1l-0.5,0.2
					c-0.3,0.1-0.4,0.5-0.3,0.8l0.3,0.6c0.1,0.3,0.5,0.4,0.8,0.3l0.5-0.2c0.2,0.3,0.5,0.6,0.8,0.8l-0.2,0.5c-0.1,0.2,0,0.3,0,0.5
					c0.1,0.1,0.2,0.3,0.3,0.3l0.6,0.2c0.2,0.1,0.3,0,0.5,0c0.1-0.1,0.3-0.2,0.3-0.3l0.2-0.5c0.4,0,0.7,0,1.1,0l0.2,0.5
					c0.1,0.3,0.5,0.4,0.8,0.3l0.6-0.3c0.3-0.1,0.4-0.5,0.3-0.8l-0.2-0.5c0.3-0.2,0.5-0.5,0.7-0.8l0.5,0.2c0.2,0.1,0.3,0,0.5,0
					c0.1-0.1,0.3-0.2,0.3-0.3l0.2-0.6C29.9-70.2,29.7-70.5,29.4-70.7L29.4-70.7z M26.1-69.1c-0.3,0.1-0.6,0.2-1,0.2
					c-0.9,0-1.8-0.6-2.2-1.4c-0.5-1.2,0-2.6,1.2-3.2c0.3-0.1,0.6-0.2,1-0.2c0.9,0,1.8,0.6,2.2,1.4C27.8-71,27.3-69.6,26.1-69.1
					L26.1-69.1z"/>
				<path class="st5" d="M34.5-80.2v-10.4h-3.1v0.7h2.4v9.7h-2.4v0.8h2.4v10.5h-2.4v0.7h3.1v-11.2h2.8l0-0.8H34.5z"/>
			</g>
		</g>
		<g id="present3" transform="translate(551.000000, 81.000000)">
			<path class="st5" d="M-39.9,11.1l-0.3-1c-0.1-0.4-0.3-0.8-0.5-1.1c-0.7-1.2-1.5-1.7-1.8-1.7c-0.1,0.2-0.1,1.2,0.6,2.4
				c0.7,1.2,1.5,1.7,1.8,1.7L-39.9,11.1L-39.9,11.1z M-36.8,9.7c0.7-1.2,0.7-2.2,0.6-2.4c-0.3,0-1.1,0.5-1.8,1.7
				c-0.2,0.4-0.4,0.7-0.5,1.1l-0.3,1l0.2,0.3C-38.3,11.3-37.5,10.8-36.8,9.7L-36.8,9.7z M-39.7,12h2.5v3.5h6.2V12h-5.8
				c0.5-0.3,0.9-0.9,1.3-1.5c0.8-1.4,1-2.9,0.3-3.3c-0.1-0.1-0.3-0.1-0.4-0.1c-0.7,0-1.7,0.8-2.4,2c-0.2,0.4-0.4,0.8-0.5,1.2
				c-0.1-0.4-0.3-0.8-0.5-1.2c-0.7-1.2-1.7-2-2.4-2c-0.1,0-0.3,0-0.4,0.1c-0.7,0.4-0.6,1.9,0.3,3.3c0.4,0.7,0.9,1.2,1.3,1.5H-46v3.5
				h6.3V12L-39.7,12z M-37.7,10.5c0.1-0.3,0.3-0.7,0.5-1c0.6-1.1,1.4-1.5,1.6-1.6c0.1,0.2,0.1,1.1-0.6,2.2c-0.6,1.1-1.4,1.5-1.6,1.6
				l-0.2-0.3L-37.7,10.5L-37.7,10.5z M-40.9,10.1c-0.6-1.1-0.7-2-0.6-2.2c0.3,0,1,0.5,1.6,1.6c0.2,0.3,0.3,0.7,0.5,1l0.3,0.9
				l-0.2,0.3C-39.5,11.6-40.2,11.1-40.9,10.1L-40.9,10.1z M-37,16.7v4c0.5,0.2,0.6,0.6,0.6,0.6s0.1,0,0.1,1.9c0,1.9-0.4,2-0.7,2v1
				c0,0,3.1-1,4.9-3.3c0.7-0.8,1-0.6,1-0.6l0-5.6H-37L-37,16.7z M-39.7,16.7H-46v3.2h6.3L-39.7,16.7L-39.7,16.7L-39.7,16.7z M-54,20
				h3.6v12.2H-54V20L-54,20z M-31.3,23.9c-0.1-0.1-0.3-0.1-0.4-0.1c-1.1,0.2-2.8,4.4-7.3,3.2c0,0-1.3-0.4-1.8-0.7
				c-0.4-0.2-1.4-0.8-2.1-1.4h2.1h2.4c0,0,0.2,0,0.4,0c0.3-0.1,0.6-0.2,0.6-0.7v-2.1c0,0-0.1-0.7-0.6-0.9c-0.1-0.1-0.2-0.1-0.4-0.1
				h-2.4h-6.9h-1.2v8.8c0,0,7.1,2.2,9.5,2.2c0,0,6.2,0.3,10.4-4.6C-29,27.6-30.1,24.4-31.3,23.9L-31.3,23.9z"/>
		</g>
		<g id="moving10" transform="translate(750.000000, 351.000000)">
			<g>
				<path class="st5" d="M-112.1-83.2v-9.1c0-0.3-0.2-0.5-0.5-0.5h-14.6c-0.3,0-0.5,0.2-0.5,0.5v9.1c0,0.3,0.2,0.5,0.5,0.5h14.6
					C-112.3-82.7-112.1-82.9-112.1-83.2L-112.1-83.2z M-115.6-89l0.7-1.3c0.1-0.1,0.3-0.1,0.3,0l0.7,1.3c0.1,0.1,0,0.3-0.2,0.3h-0.3
					v2.4c0,0.1-0.1,0.2-0.2,0.2h-0.5c-0.1,0-0.2-0.1-0.2-0.2v-2.4h-0.3C-115.6-88.7-115.7-88.8-115.6-89L-115.6-89z M-118.4-89
					l0.7-1.3c0.1-0.1,0.3-0.1,0.3,0l0.7,1.3c0.1,0.1,0,0.3-0.2,0.3h-0.3v2.4c0,0.1-0.1,0.2-0.2,0.2h-0.5c-0.1,0-0.2-0.1-0.2-0.2
					v-2.4h-0.3C-118.4-88.7-118.4-88.8-118.4-89L-118.4-89z M-121.5-85.4c0,0,0.1,0.1,0.1,0.1v0.2c0,0.1-0.1,0.1-0.1,0.1h-3.4
					c-0.1,0-0.1,0-0.1-0.1v-0.2c0-0.1,0-0.1,0.1-0.1l1.2-0.3v-1c-1-0.2-1.7-1.1-1.7-2.2c0-0.6,0.2-1.1,0.6-1.5h3.4
					c0.3,0.4,0.6,0.9,0.6,1.5c0,1.1-0.7,2-1.7,2.2v1L-121.5-85.4L-121.5-85.4z M-113.5-85C-113.5-85-113.5-84.9-113.5-85l-5.2,0.1
					c-0.1,0-0.1,0-0.1-0.1v-0.3c0-0.1,0-0.1,0.1-0.1h5.1c0.1,0,0.1,0,0.1,0.1V-85L-113.5-85z"/>
				<path class="st5" d="M-103-81.9h-0.7V-86c0-0.5-0.1-1-0.4-1.4l-1.8-2.7c-0.4-0.7-1.2-1.1-2-1.1h-2.8c-0.3,0-0.6,0.3-0.6,0.6v8.2
					c0,0.3-0.2,0.5-0.5,0.5h-4.1c0.4,0.4,0.7,0.9,0.8,1.5h4.8c0.2-1.2,1.2-2.1,2.4-2.1c1.2,0,2.2,0.9,2.4,2.1h2.4
					c0.2,0,0.3-0.1,0.3-0.3v-0.9C-102.8-81.8-102.9-81.9-103-81.9L-103-81.9z M-106-86.8h-3.7c-0.2,0-0.3-0.1-0.3-0.3v-2.1
					c0-0.2,0.1-0.3,0.3-0.3h2.2c0.1,0,0.2,0,0.2,0.1l1.4,2.1C-105.6-87.1-105.8-86.8-106-86.8L-106-86.8z"/>
				<path class="st5" d="M-107.9-81.9c-1,0-1.8,0.8-1.8,1.9c0,1,0.8,1.9,1.8,1.9c1,0,1.8-0.8,1.8-1.9
					C-106-81.1-106.8-81.9-107.9-81.9L-107.9-81.9z M-107.9-79.1c-0.5,0-0.9-0.4-0.9-0.9c0-0.5,0.4-0.9,0.9-0.9
					c0.5,0,0.9,0.4,0.9,0.9C-106.9-79.5-107.3-79.1-107.9-79.1L-107.9-79.1z"/>
				<path class="st5" d="M-123.2-81.9c-0.2,0-0.3,0.1-0.3,0.3v0.9c0,0.2,0.1,0.3,0.3,0.3h3.3c0.1-0.6,0.4-1.1,0.8-1.5L-123.2-81.9
					L-123.2-81.9z"/>
				<path class="st5" d="M-117.5-81.9c-1,0-1.8,0.8-1.8,1.9c0,1,0.8,1.9,1.8,1.9c1,0,1.8-0.8,1.8-1.9
					C-115.6-81.1-116.5-81.9-117.5-81.9L-117.5-81.9z M-117.5-79.1c-0.5,0-0.9-0.4-0.9-0.9c0-0.5,0.4-0.9,0.9-0.9
					c0.5,0,0.9,0.4,0.9,0.9C-116.6-79.5-117-79.1-117.5-79.1L-117.5-79.1z"/>
			</g>
		</g>
		<g id="partnership" transform="translate(750.000000, 81.000000)">
			<g>
				<path class="st5" d="M-106.6,13.8c1.9,0,3.4-1.5,3.4-3.4c0-1.9-1.5-3.4-3.4-3.4c-1.9,0-3.4,1.5-3.4,3.4
					C-109.9,12.3-108.4,13.8-106.6,13.8L-106.6,13.8z"/>
				<path class="st5" d="M-103.8,14.4h-5.4c-0.8,0-1.5,0.6-1.7,1.5l-3.2,6.6c0,0-0.1,0-0.1,0h-1.2c0,0-0.1,0-0.1,0l-3.2-6.6
					c-0.2-0.8-0.9-1.5-1.7-1.5h-5.4c-1,0-1.8,0.9-1.8,2v10.5h8.9v-6l2,3.6c0.2,0.6,0.7,1.1,1.3,1.1h1.2c0.6,0,1.1-0.5,1.3-1.1l2-3.6
					v6h8.9V16.4C-102.1,15.3-102.9,14.4-103.8,14.4L-103.8,14.4z"/>
				<path class="st5" d="M-123.3,13.8c1.9,0,3.4-1.5,3.4-3.4c0-1.9-1.5-3.4-3.4-3.4c-1.9,0-3.4,1.5-3.4,3.4
					C-126.7,12.3-125.2,13.8-123.3,13.8L-123.3,13.8z"/>
			</g>
		</g>
		<g id="group12" transform="translate(951.000000, 81.000000)">
			<g>
				<path class="st5" d="M-196.8,23.2v-9c0,0,0-0.4,0.2-0.9h-3.8c0,0-1.8,0-1.8,1.8v6.3c0,1.8,1.8,1.8,1.8,1.8v9h5.4V25
					C-195,25-196.8,25-196.8,23.2L-196.8,23.2z"/>
				<path class="st5" d="M-196.8,12.4c0.5,0,0.9-0.1,1.3-0.3c0.1,0,0.1-0.1,0.2-0.1c0.7-0.5,1.2-1.3,1.2-2.3c0-1.5-1.2-2.7-2.7-2.7
					c-1.5,0-2.7,1.2-2.7,2.7S-198.3,12.4-196.8,12.4L-196.8,12.4z"/>
				<path class="st5" d="M-178.9,13.3h-3.8c0.2,0.5,0.2,0.9,0.2,0.9v9c0,1.8-1.8,1.8-1.8,1.8v7.2h5.4v-9c0,0,1.8,0,1.8-1.8v-6.3
					C-177.1,15.1-177.1,13.3-178.9,13.3L-178.9,13.3z"/>
				<path class="st5" d="M-183.9,12c0.1,0,0.1,0.1,0.2,0.1c0.4,0.2,0.8,0.3,1.3,0.3c1.5,0,2.7-1.2,2.7-2.7s-1.2-2.7-2.7-2.7
					c-1.5,0-2.7,1.2-2.7,2.7C-185.2,10.7-184.7,11.5-183.9,12L-183.9,12z"/>
				<circle class="st5" cx="-189.7" cy="9.7" r="2.7"/>
				<path class="st5" d="M-184.3,15.1c0,0,0-1.8-1.8-1.8h-7.2c0,0-1.8,0-1.8,1.8v6.3c0,1.8,1.8,1.8,1.8,1.8v9h7.2v-9
					c0,0,1.8,0,1.8-1.8V15.1L-184.3,15.1z"/>
			</g>
		</g>
		<g id="files5" transform="translate(451.000000, 581.000000)">
			<g>
				<path class="st5" d="M3.7-178h-13.9l-6.6,7v18.6H3.7V-178L3.7-178z M-10.8-175.1v3.1h-2.9L-10.8-175.1L-10.8-175.1z M2.1-154
					h-17.3v-16.4h6v-6.1H2.1L2.1-154L2.1-154z"/>
				<rect id="Rectangle-path" x="-13.3" y="-165.9" class="st5" width="13.4" height="1.8"/>
				<rect x="-13.3" y="-162.2" class="st5" width="13.4" height="1.8"/>
				<rect x="-13.3" y="-158.4" class="st5" width="13.4" height="1.8"/>
				<path class="st5" d="M4.5-173.8v1.6h1.8v22.4H-11v-1.7h-1.6v3.3H7.9v-25.6H4.5z"/>
			</g>
		</g>
		<path class="st5" d="M773.2,402.8h-10.5c-0.4,0-0.7,0.3-0.7,0.7v4.8h-8c-0.8,0-1.4,0.5-1.4,1.1l-1.8,12.4h-0.5
			c-0.8,0-1.5,0.7-1.5,1.5v4.4c0,0.8,0.7,1.5,1.5,1.5h20.4c0.8,0,1.5-0.7,1.5-1.5v-4.4c0-0.8-0.7-1.5-1.5-1.5h-0.5l-1.8-12.4
			c0-0.1,0-0.1,0-0.2h4.9c0.4,0,0.7-0.3,0.7-0.7v-5C773.9,403.1,773.6,402.8,773.2,402.8L773.2,402.8z M756.1,410.3
			c0-0.2,0.2-0.4,0.4-0.4h8.4c0.2,0,0.4,0.2,0.4,0.4v1.5c0,0.2-0.2,0.4-0.4,0.4h-8.4c-0.2,0-0.4-0.2-0.4-0.4V410.3L756.1,410.3z
			 M763.3,417.3h-1.8c-0.4,0-0.7-0.3-0.7-0.7v-1.7c0-0.4,0.3-0.7,0.7-0.7h1.8c0.4,0,0.7,0.3,0.7,0.7v1.7
			C764.1,417,763.7,417.3,763.3,417.3L763.3,417.3z M764.1,418.8v1.7c0,0.4-0.3,0.7-0.7,0.7h-1.8c-0.4,0-0.7-0.3-0.7-0.7v-1.7
			c0-0.4,0.3-0.7,0.7-0.7h1.8C763.7,418.1,764.1,418.5,764.1,418.8L764.1,418.8z M759.3,417.4h-1.8c-0.4,0-0.7-0.3-0.7-0.7V415
			c0-0.4,0.3-0.7,0.7-0.7h1.8c0.4,0,0.7,0.3,0.7,0.7v1.7C760,417.1,759.7,417.4,759.3,417.4L759.3,417.4z M760,418.9v1.7
			c0,0.4-0.3,0.7-0.7,0.7h-1.8c-0.4,0-0.7-0.3-0.7-0.7v-1.7c0-0.4,0.3-0.7,0.7-0.7h1.8C759.7,418.2,760,418.5,760,418.9L760,418.9z
			 M770.3,423c0.4,0,0.7,0.3,0.7,0.7v1.1c0,0.4-0.3,0.7-0.7,0.7h-19.8c-0.4,0-0.7-0.3-0.7-0.7v-1.1c0-0.4,0.3-0.7,0.7-0.7H770.3
			L770.3,423z M772.6,407.3c0,0.4-0.3,0.7-0.7,0.7H764c-0.4,0-0.7-0.3-0.7-0.7v-2.6c0-0.4,0.3-0.7,0.7-0.7h7.9
			c0.4,0,0.7,0.3,0.7,0.7V407.3L772.6,407.3z"/>
		<g class="st3">
			<path class="st4" d="M156.6,530.9c0,1.4-1.1,2.5-2.5,2.5c-1.4,0-2.5-1.1-2.5-2.5c0-1.4,1.1-2.5,2.5-2.5
				C155.5,528.4,156.6,529.6,156.6,530.9z M152.1,531c0,1.2,0.9,2.2,2.1,2.2c1.2,0,2.1-1,2.1-2.2c0-1.2-0.9-2.2-2.1-2.2
				C153,528.8,152.1,529.7,152.1,531z M155.2,530c-0.1-0.1-0.4-0.2-0.8-0.2c-0.8,0-1.1,0.5-1.1,1.1c0,0.6,0.4,1.2,1.2,1.2
				c0.3,0,0.6-0.1,0.8-0.2l0.1,0.3c-0.3,0.2-0.7,0.3-1,0.3c-0.9,0-1.5-0.7-1.5-1.5c0-0.9,0.7-1.5,1.6-1.5c0.4,0,0.8,0.1,0.9,0.2
				L155.2,530z"/>
			<path class="st4" d="M159.3,527.9h0.7v2.5h0c0.1-0.2,0.3-0.4,0.5-0.5c0.2-0.1,0.5-0.2,0.7-0.2c0.5,0,1.4,0.3,1.4,1.7v2.4h-0.7
				v-2.3c0-0.6-0.2-1.2-0.9-1.2c-0.5,0-0.8,0.3-1,0.7c0,0.1,0,0.2,0,0.3v2.4h-0.7V527.9z"/>
			<path class="st4" d="M164.6,528.6v1.1h1v0.5h-1v2.1c0,0.5,0.1,0.8,0.5,0.8c0.2,0,0.3,0,0.4,0l0,0.5c-0.1,0.1-0.4,0.1-0.6,0.1
				c-0.3,0-0.6-0.1-0.8-0.3c-0.2-0.2-0.3-0.6-0.3-1v-2.2h-0.6v-0.5h0.6v-0.9L164.6,528.6z"/>
			<path class="st4" d="M167.3,528.6v1.1h1v0.5h-1v2.1c0,0.5,0.1,0.8,0.5,0.8c0.2,0,0.3,0,0.4,0l0,0.5c-0.1,0.1-0.4,0.1-0.6,0.1
				c-0.3,0-0.6-0.1-0.8-0.3c-0.2-0.2-0.3-0.6-0.3-1v-2.2H166v-0.5h0.6v-0.9L167.3,528.6z"/>
			<path class="st4" d="M169.2,531.1c0-0.5,0-0.9,0-1.3h0.6l0,0.7h0c0.3-0.5,0.8-0.8,1.4-0.8c1,0,1.7,0.8,1.7,2
				c0,1.4-0.9,2.1-1.8,2.1c-0.5,0-1-0.2-1.2-0.6h0v2.2h-0.7V531.1z M169.9,532.1c0,0.1,0,0.2,0,0.3c0.1,0.5,0.6,0.8,1.1,0.8
				c0.8,0,1.2-0.6,1.2-1.5c0-0.8-0.4-1.5-1.2-1.5c-0.5,0-0.9,0.4-1.1,0.9c0,0.1,0,0.2,0,0.3V532.1z"/>
			<path class="st4" d="M173.7,530.4c0-0.3,0.2-0.5,0.5-0.5c0.3,0,0.5,0.2,0.5,0.5c0,0.3-0.2,0.5-0.5,0.5
				C173.9,530.9,173.7,530.7,173.7,530.4z M173.7,533.3c0-0.3,0.2-0.5,0.5-0.5c0.3,0,0.5,0.2,0.5,0.5c0,0.3-0.2,0.5-0.5,0.5
				C173.9,533.8,173.7,533.6,173.7,533.3z"/>
			<path class="st4" d="M174.9,534.1l2.3-5.9h0.6l-2.3,5.9H174.9z"/>
			<path class="st4" d="M177.7,534.1l2.3-5.9h0.6l-2.3,5.9H177.7z"/>
			<path class="st4" d="M181.4,529.8l0.5,2c0.1,0.4,0.2,0.9,0.3,1.3h0c0.1-0.4,0.2-0.8,0.4-1.3l0.6-2h0.6l0.6,2
				c0.1,0.5,0.3,0.9,0.4,1.3h0c0.1-0.4,0.2-0.8,0.3-1.3l0.6-2h0.7l-1.3,4h-0.7l-0.6-1.9c-0.1-0.4-0.3-0.8-0.4-1.3h0
				c-0.1,0.5-0.2,0.9-0.4,1.3l-0.6,1.9h-0.7l-1.2-4H181.4z"/>
			<path class="st4" d="M187.5,529.8l0.5,2c0.1,0.4,0.2,0.9,0.3,1.3h0c0.1-0.4,0.2-0.8,0.4-1.3l0.6-2h0.6l0.6,2
				c0.1,0.5,0.3,0.9,0.4,1.3h0c0.1-0.4,0.2-0.8,0.3-1.3l0.6-2h0.7l-1.3,4h-0.7l-0.6-1.9c-0.1-0.4-0.3-0.8-0.4-1.3h0
				c-0.1,0.5-0.2,0.9-0.4,1.3l-0.6,1.9H188l-1.2-4H187.5z"/>
			<path class="st4" d="M193.7,529.8l0.5,2c0.1,0.4,0.2,0.9,0.3,1.3h0c0.1-0.4,0.2-0.8,0.4-1.3l0.6-2h0.6l0.6,2
				c0.1,0.5,0.3,0.9,0.4,1.3h0c0.1-0.4,0.2-0.8,0.3-1.3l0.6-2h0.7l-1.3,4h-0.7l-0.6-1.9c-0.1-0.4-0.3-0.8-0.4-1.3h0
				c-0.1,0.5-0.2,0.9-0.4,1.3l-0.6,1.9h-0.7l-1.2-4H193.7z"/>
			<path class="st4" d="M198.9,533.3c0-0.3,0.2-0.5,0.5-0.5s0.5,0.2,0.5,0.5c0,0.3-0.2,0.5-0.5,0.5
				C199.1,533.8,198.9,533.6,198.9,533.3z"/>
			<path class="st4" d="M200.7,533.7c0-0.3,0-0.7,0-1v-4.8h0.7v2.5h0c0.3-0.4,0.7-0.7,1.4-0.7c1,0,1.7,0.8,1.7,2
				c0,1.4-0.9,2.1-1.8,2.1c-0.6,0-1-0.2-1.3-0.7h0l0,0.7H200.7z M201.5,532.1c0,0.1,0,0.2,0,0.3c0.1,0.5,0.6,0.8,1.1,0.8
				c0.8,0,1.2-0.6,1.2-1.5c0-0.8-0.4-1.5-1.2-1.5c-0.5,0-0.9,0.3-1.1,0.9c0,0.1,0,0.2,0,0.3V532.1z"/>
			<path class="st4" d="M208.8,532.6c0,0.4,0,0.8,0,1.1h-0.6l0-0.6h0c-0.2,0.3-0.6,0.7-1.3,0.7c-0.6,0-1.4-0.3-1.4-1.7v-2.3h0.7v2.2
				c0,0.8,0.2,1.3,0.9,1.3c0.5,0,0.8-0.3,0.9-0.7c0-0.1,0.1-0.2,0.1-0.4v-2.4h0.7V532.6z"/>
			<path class="st4" d="M209.8,533c0.2,0.1,0.6,0.3,0.9,0.3c0.5,0,0.8-0.3,0.8-0.6c0-0.3-0.2-0.5-0.7-0.7c-0.7-0.3-1-0.6-1-1.1
				c0-0.6,0.5-1.2,1.4-1.2c0.4,0,0.8,0.1,1,0.2l-0.2,0.5c-0.2-0.1-0.4-0.2-0.8-0.2c-0.4,0-0.7,0.2-0.7,0.5c0,0.3,0.2,0.5,0.8,0.7
				c0.7,0.3,1,0.6,1,1.2c0,0.7-0.5,1.2-1.5,1.2c-0.4,0-0.8-0.1-1.1-0.3L209.8,533z"/>
			<path class="st4" d="M214,528.7c0,0.2-0.2,0.4-0.5,0.4c-0.3,0-0.4-0.2-0.4-0.4c0-0.3,0.2-0.4,0.4-0.4
				C213.8,528.2,214,528.4,214,528.7z M213.2,533.7v-4h0.7v4H213.2z"/>
			<path class="st4" d="M215.1,530.8c0-0.4,0-0.7,0-1.1h0.6l0,0.7h0c0.2-0.4,0.7-0.7,1.3-0.7c0.5,0,1.4,0.3,1.4,1.7v2.4h-0.7v-2.3
				c0-0.6-0.2-1.2-0.9-1.2c-0.5,0-0.8,0.3-1,0.7c0,0.1,0,0.2,0,0.3v2.4h-0.7V530.8z"/>
			<path class="st4" d="M220,531.9c0,1,0.6,1.4,1.4,1.4c0.5,0,0.8-0.1,1.1-0.2l0.1,0.5c-0.3,0.1-0.7,0.2-1.3,0.2
				c-1.2,0-1.9-0.8-1.9-2c0-1.2,0.7-2.1,1.9-2.1c1.3,0,1.6,1.1,1.6,1.9c0,0.1,0,0.3,0,0.3H220z M222.2,531.4c0-0.5-0.2-1.2-1-1.2
				c-0.7,0-1,0.7-1.1,1.2H222.2z"/>
			<path class="st4" d="M223.6,533c0.2,0.1,0.6,0.3,0.9,0.3c0.5,0,0.8-0.3,0.8-0.6c0-0.3-0.2-0.5-0.7-0.7c-0.7-0.3-1-0.6-1-1.1
				c0-0.6,0.5-1.2,1.4-1.2c0.4,0,0.8,0.1,1,0.2l-0.2,0.5c-0.2-0.1-0.4-0.2-0.8-0.2c-0.4,0-0.7,0.2-0.7,0.5c0,0.3,0.2,0.5,0.8,0.7
				c0.7,0.3,1,0.6,1,1.2c0,0.7-0.5,1.2-1.5,1.2c-0.4,0-0.8-0.1-1.1-0.3L223.6,533z"/>
			<path class="st4" d="M226.9,533c0.2,0.1,0.6,0.3,0.9,0.3c0.5,0,0.8-0.3,0.8-0.6c0-0.3-0.2-0.5-0.7-0.7c-0.7-0.3-1-0.6-1-1.1
				c0-0.6,0.5-1.2,1.4-1.2c0.4,0,0.8,0.1,1,0.2l-0.2,0.5c-0.2-0.1-0.4-0.2-0.8-0.2c-0.4,0-0.7,0.2-0.7,0.5c0,0.3,0.2,0.5,0.8,0.7
				c0.7,0.3,1,0.6,1,1.2c0,0.7-0.5,1.2-1.5,1.2c-0.4,0-0.8-0.1-1.1-0.3L226.9,533z"/>
			<path class="st4" d="M230.2,530.8c0-0.4,0-0.7,0-1.1h0.6l0,0.6h0c0.2-0.4,0.6-0.7,1.2-0.7c0.5,0,0.9,0.3,1.1,0.8h0
				c0.1-0.2,0.3-0.4,0.4-0.5c0.2-0.2,0.5-0.3,0.9-0.3c0.5,0,1.3,0.3,1.3,1.7v2.3h-0.7v-2.2c0-0.8-0.3-1.2-0.9-1.2
				c-0.4,0-0.7,0.3-0.9,0.7c0,0.1-0.1,0.2-0.1,0.4v2.4h-0.7v-2.4c0-0.6-0.3-1.1-0.8-1.1c-0.4,0-0.8,0.4-0.9,0.7
				c0,0.1-0.1,0.2-0.1,0.4v2.4h-0.7V530.8z"/>
			<path class="st4" d="M240.6,531.7c0,1.5-1,2.1-2,2.1c-1.1,0-1.9-0.8-1.9-2c0-1.3,0.9-2.1,2-2.1
				C239.9,529.7,240.6,530.5,240.6,531.7z M237.5,531.8c0,0.9,0.5,1.5,1.2,1.5c0.7,0,1.2-0.6,1.2-1.5c0-0.7-0.3-1.5-1.2-1.5
				C237.9,530.2,237.5,531,237.5,531.8z"/>
			<path class="st4" d="M245,527.9v4.8c0,0.4,0,0.8,0,1h-0.6l0-0.7h0c-0.2,0.4-0.7,0.8-1.4,0.8c-1,0-1.7-0.8-1.7-2
				c0-1.3,0.8-2.1,1.8-2.1c0.6,0,1,0.3,1.2,0.6h0v-2.4H245z M244.2,531.4c0-0.1,0-0.2,0-0.3c-0.1-0.5-0.5-0.8-1-0.8
				c-0.7,0-1.2,0.7-1.2,1.5c0,0.8,0.4,1.5,1.2,1.5c0.5,0,0.9-0.3,1.1-0.9c0-0.1,0-0.2,0-0.3V531.4z"/>
			<path class="st4" d="M246.6,531.9c0,1,0.6,1.4,1.4,1.4c0.5,0,0.8-0.1,1.1-0.2l0.1,0.5c-0.3,0.1-0.7,0.2-1.3,0.2
				c-1.2,0-1.9-0.8-1.9-2c0-1.2,0.7-2.1,1.9-2.1c1.3,0,1.6,1.1,1.6,1.9c0,0.1,0,0.3,0,0.3H246.6z M248.7,531.4c0-0.5-0.2-1.2-1-1.2
				c-0.7,0-1,0.7-1.1,1.2H248.7z"/>
			<path class="st4" d="M250.3,527.9h0.7v5.8h-0.7V527.9z"/>
			<path class="st4" d="M255.6,529.8c0,0.3,0,0.6,0,1.1v2.3c0,0.9-0.2,1.5-0.6,1.8c-0.4,0.4-0.9,0.5-1.4,0.5c-0.5,0-1-0.1-1.3-0.3
				l0.2-0.5c0.3,0.2,0.7,0.3,1.2,0.3c0.7,0,1.3-0.4,1.3-1.4V533h0c-0.2,0.4-0.6,0.7-1.3,0.7c-1,0-1.7-0.8-1.7-1.9
				c0-1.3,0.9-2.1,1.8-2.1c0.7,0,1.1,0.4,1.2,0.7h0l0-0.6H255.6z M254.9,531.3c0-0.1,0-0.2,0-0.3c-0.1-0.4-0.5-0.8-1-0.8
				c-0.7,0-1.2,0.6-1.2,1.5c0,0.8,0.4,1.4,1.2,1.4c0.4,0,0.8-0.3,1-0.7c0-0.1,0.1-0.3,0.1-0.4V531.3z"/>
			<path class="st4" d="M257.2,531.9c0,1,0.6,1.4,1.4,1.4c0.5,0,0.8-0.1,1.1-0.2l0.1,0.5c-0.3,0.1-0.7,0.2-1.3,0.2
				c-1.2,0-1.9-0.8-1.9-2c0-1.2,0.7-2.1,1.9-2.1c1.3,0,1.6,1.1,1.6,1.9c0,0.1,0,0.3,0,0.3H257.2z M259.3,531.4c0-0.5-0.2-1.2-1-1.2
				c-0.7,0-1,0.7-1.1,1.2H259.3z"/>
			<path class="st4" d="M260.9,530.8c0-0.4,0-0.7,0-1.1h0.6l0,0.7h0c0.2-0.4,0.7-0.7,1.3-0.7c0.5,0,1.4,0.3,1.4,1.7v2.4h-0.7v-2.3
				c0-0.6-0.2-1.2-0.9-1.2c-0.5,0-0.8,0.3-1,0.7c0,0.1,0,0.2,0,0.3v2.4h-0.7V530.8z"/>
			<path class="st4" d="M265.8,531.9c0,1,0.6,1.4,1.4,1.4c0.5,0,0.8-0.1,1.1-0.2l0.1,0.5c-0.3,0.1-0.7,0.2-1.3,0.2
				c-1.2,0-1.9-0.8-1.9-2c0-1.2,0.7-2.1,1.9-2.1c1.3,0,1.6,1.1,1.6,1.9c0,0.1,0,0.3,0,0.3H265.8z M267.9,531.4c0-0.5-0.2-1.2-1-1.2
				c-0.7,0-1,0.7-1.1,1.2H267.9z"/>
			<path class="st4" d="M269.5,531c0-0.5,0-0.9,0-1.2h0.6l0,0.8h0c0.2-0.5,0.6-0.9,1.1-0.9c0.1,0,0.1,0,0.2,0v0.7
				c-0.1,0-0.1,0-0.2,0c-0.5,0-0.9,0.4-1,0.9c0,0.1,0,0.2,0,0.3v2.1h-0.7V531z"/>
			<path class="st4" d="M274.3,533.7l-0.1-0.5h0c-0.2,0.3-0.6,0.6-1.2,0.6c-0.8,0-1.2-0.6-1.2-1.1c0-1,0.9-1.5,2.4-1.5v-0.1
				c0-0.3-0.1-0.9-0.9-0.9c-0.4,0-0.8,0.1-1,0.3l-0.2-0.5c0.3-0.2,0.8-0.4,1.3-0.4c1.2,0,1.5,0.8,1.5,1.6v1.5c0,0.3,0,0.7,0.1,0.9
				H274.3z M274.2,531.7c-0.8,0-1.7,0.1-1.7,0.9c0,0.5,0.3,0.7,0.7,0.7c0.5,0,0.8-0.3,1-0.7c0-0.1,0-0.2,0-0.2V531.7z"/>
			<path class="st4" d="M276.9,528.6v1.1h1v0.5h-1v2.1c0,0.5,0.1,0.8,0.5,0.8c0.2,0,0.3,0,0.4,0l0,0.5c-0.1,0.1-0.4,0.1-0.6,0.1
				c-0.3,0-0.6-0.1-0.8-0.3c-0.2-0.2-0.3-0.6-0.3-1v-2.2h-0.6v-0.5h0.6v-0.9L276.9,528.6z"/>
			<path class="st4" d="M279.6,528.7c0,0.2-0.2,0.4-0.5,0.4c-0.3,0-0.4-0.2-0.4-0.4c0-0.3,0.2-0.4,0.4-0.4
				C279.4,528.2,279.6,528.4,279.6,528.7z M278.8,533.7v-4h0.7v4H278.8z"/>
			<path class="st4" d="M284.3,531.7c0,1.5-1,2.1-2,2.1c-1.1,0-1.9-0.8-1.9-2c0-1.3,0.9-2.1,2-2.1
				C283.5,529.7,284.3,530.5,284.3,531.7z M281.1,531.8c0,0.9,0.5,1.5,1.2,1.5c0.7,0,1.2-0.6,1.2-1.5c0-0.7-0.3-1.5-1.2-1.5
				C281.5,530.2,281.1,531,281.1,531.8z"/>
			<path class="st4" d="M285.2,530.8c0-0.4,0-0.7,0-1.1h0.6l0,0.7h0c0.2-0.4,0.7-0.7,1.3-0.7c0.5,0,1.4,0.3,1.4,1.7v2.4h-0.7v-2.3
				c0-0.6-0.2-1.2-0.9-1.2c-0.5,0-0.8,0.3-1,0.7c0,0.1,0,0.2,0,0.3v2.4h-0.7V530.8z"/>
			<path class="st4" d="M289.5,533.3c0-0.3,0.2-0.5,0.5-0.5s0.5,0.2,0.5,0.5c0,0.3-0.2,0.5-0.5,0.5
				C289.7,533.8,289.5,533.6,289.5,533.3z"/>
			<path class="st4" d="M294.2,533.6c-0.2,0.1-0.6,0.2-1.1,0.2c-1.2,0-2-0.8-2-2c0-1.2,0.8-2.1,2.1-2.1c0.4,0,0.8,0.1,1,0.2
				l-0.2,0.6c-0.2-0.1-0.4-0.2-0.8-0.2c-0.9,0-1.4,0.7-1.4,1.5c0,0.9,0.6,1.5,1.4,1.5c0.4,0,0.7-0.1,0.9-0.2L294.2,533.6z"/>
			<path class="st4" d="M298.6,531.7c0,1.5-1,2.1-2,2.1c-1.1,0-1.9-0.8-1.9-2c0-1.3,0.9-2.1,2-2.1
				C297.8,529.7,298.6,530.5,298.6,531.7z M295.5,531.8c0,0.9,0.5,1.5,1.2,1.5c0.7,0,1.2-0.6,1.2-1.5c0-0.7-0.3-1.5-1.2-1.5
				C295.8,530.2,295.5,531,295.5,531.8z"/>
			<path class="st4" d="M299.5,530.8c0-0.4,0-0.7,0-1.1h0.6l0,0.6h0c0.2-0.4,0.6-0.7,1.2-0.7c0.5,0,0.9,0.3,1.1,0.8h0
				c0.1-0.2,0.3-0.4,0.4-0.5c0.2-0.2,0.5-0.3,0.9-0.3c0.5,0,1.3,0.3,1.3,1.7v2.3h-0.7v-2.2c0-0.8-0.3-1.2-0.9-1.2
				c-0.4,0-0.7,0.3-0.9,0.7c0,0.1-0.1,0.2-0.1,0.4v2.4H302v-2.4c0-0.6-0.3-1.1-0.8-1.1c-0.5,0-0.8,0.4-0.9,0.7
				c0,0.1-0.1,0.2-0.1,0.4v2.4h-0.7V530.8z"/>
		</g>
		<g class="st3">
			<path class="st4" d="M324,528.2v5.5h-0.7v-5.5H324z"/>
			<path class="st4" d="M328.1,533.6c-0.2,0.1-0.6,0.2-1.1,0.2c-1.2,0-2-0.8-2-2c0-1.2,0.8-2.1,2.1-2.1c0.4,0,0.8,0.1,1,0.2
				l-0.2,0.6c-0.2-0.1-0.4-0.2-0.8-0.2c-0.9,0-1.4,0.7-1.4,1.5c0,0.9,0.6,1.5,1.4,1.5c0.4,0,0.7-0.1,0.9-0.2L328.1,533.6z"/>
			<path class="st4" d="M332.5,531.7c0,1.5-1,2.1-2,2.1c-1.1,0-1.9-0.8-1.9-2c0-1.3,0.9-2.1,2-2.1
				C331.7,529.7,332.5,530.5,332.5,531.7z M329.3,531.8c0,0.9,0.5,1.5,1.2,1.5c0.7,0,1.2-0.6,1.2-1.5c0-0.7-0.3-1.5-1.2-1.5
				C329.7,530.2,329.3,531,329.3,531.8z"/>
			<path class="st4" d="M333.4,530.8c0-0.4,0-0.7,0-1.1h0.6l0,0.7h0c0.2-0.4,0.7-0.7,1.3-0.7c0.5,0,1.4,0.3,1.4,1.7v2.4H336v-2.3
				c0-0.6-0.2-1.2-0.9-1.2c-0.5,0-0.8,0.3-1,0.7c0,0.1,0,0.2,0,0.3v2.4h-0.7V530.8z"/>
			<path class="st4" d="M337.8,533c0.2,0.1,0.6,0.3,0.9,0.3c0.5,0,0.8-0.3,0.8-0.6c0-0.3-0.2-0.5-0.7-0.7c-0.7-0.3-1-0.6-1-1.1
				c0-0.6,0.5-1.2,1.4-1.2c0.4,0,0.8,0.1,1,0.2l-0.2,0.5c-0.2-0.1-0.4-0.2-0.8-0.2c-0.4,0-0.7,0.2-0.7,0.5c0,0.3,0.2,0.5,0.8,0.7
				c0.7,0.3,1,0.6,1,1.2c0,0.7-0.5,1.2-1.5,1.2c-0.4,0-0.8-0.1-1.1-0.3L337.8,533z"/>
			<path class="st4" d="M343,533.7v-3.4h-0.6v-0.5h0.6v-0.2c0-0.6,0.1-1.1,0.5-1.4c0.3-0.3,0.6-0.4,1-0.4c0.3,0,0.5,0.1,0.6,0.1
				l-0.1,0.6c-0.1,0-0.3-0.1-0.5-0.1c-0.6,0-0.8,0.5-0.8,1.1v0.2h1v0.5h-1v3.4H343z"/>
			<path class="st4" d="M345.3,531c0-0.5,0-0.9,0-1.2h0.6l0,0.8h0c0.2-0.5,0.6-0.9,1.1-0.9c0.1,0,0.1,0,0.2,0v0.7
				c-0.1,0-0.1,0-0.2,0c-0.5,0-0.9,0.4-1,0.9c0,0.1,0,0.2,0,0.3v2.1h-0.7V531z"/>
			<path class="st4" d="M351.5,531.7c0,1.5-1,2.1-2,2.1c-1.1,0-1.9-0.8-1.9-2c0-1.3,0.9-2.1,2-2.1
				C350.7,529.7,351.5,530.5,351.5,531.7z M348.3,531.8c0,0.9,0.5,1.5,1.2,1.5c0.7,0,1.2-0.6,1.2-1.5c0-0.7-0.3-1.5-1.2-1.5
				C348.7,530.2,348.3,531,348.3,531.8z"/>
			<path class="st4" d="M352.4,530.8c0-0.4,0-0.7,0-1.1h0.6l0,0.6h0c0.2-0.4,0.6-0.7,1.2-0.7c0.5,0,0.9,0.3,1.1,0.8h0
				c0.1-0.2,0.3-0.4,0.4-0.5c0.2-0.2,0.5-0.3,0.9-0.3c0.5,0,1.3,0.3,1.3,1.7v2.3h-0.7v-2.2c0-0.8-0.3-1.2-0.9-1.2
				c-0.4,0-0.7,0.3-0.9,0.7c0,0.1-0.1,0.2-0.1,0.4v2.4h-0.7v-2.4c0-0.6-0.3-1.1-0.8-1.1c-0.5,0-0.8,0.4-0.9,0.7
				c0,0.1-0.1,0.2-0.1,0.4v2.4h-0.7V530.8z"/>
			<path class="st4" d="M360.9,527.9h0.7v2.5h0c0.1-0.2,0.3-0.4,0.5-0.5c0.2-0.1,0.5-0.2,0.7-0.2c0.5,0,1.4,0.3,1.4,1.7v2.4h-0.7
				v-2.3c0-0.6-0.2-1.2-0.9-1.2c-0.5,0-0.8,0.3-1,0.7c0,0.1,0,0.2,0,0.3v2.4h-0.7V527.9z"/>
			<path class="st4" d="M366.3,528.6v1.1h1v0.5h-1v2.1c0,0.5,0.1,0.8,0.5,0.8c0.2,0,0.3,0,0.4,0l0,0.5c-0.1,0.1-0.4,0.1-0.6,0.1
				c-0.3,0-0.6-0.1-0.8-0.3c-0.2-0.2-0.3-0.6-0.3-1v-2.2H365v-0.5h0.6v-0.9L366.3,528.6z"/>
			<path class="st4" d="M369,528.6v1.1h1v0.5h-1v2.1c0,0.5,0.1,0.8,0.5,0.8c0.2,0,0.3,0,0.4,0l0,0.5c-0.1,0.1-0.4,0.1-0.6,0.1
				c-0.3,0-0.6-0.1-0.8-0.3c-0.2-0.2-0.3-0.6-0.3-1v-2.2h-0.6v-0.5h0.6v-0.9L369,528.6z"/>
			<path class="st4" d="M370.8,531.1c0-0.5,0-0.9,0-1.3h0.6l0,0.7h0c0.3-0.5,0.8-0.8,1.4-0.8c1,0,1.7,0.8,1.7,2
				c0,1.4-0.9,2.1-1.8,2.1c-0.5,0-1-0.2-1.2-0.6h0v2.2h-0.7V531.1z M371.6,532.1c0,0.1,0,0.2,0,0.3c0.1,0.5,0.6,0.8,1.1,0.8
				c0.8,0,1.2-0.6,1.2-1.5c0-0.8-0.4-1.5-1.2-1.5c-0.5,0-0.9,0.4-1.1,0.9c0,0.1,0,0.2,0,0.3V532.1z"/>
			<path class="st4" d="M375.3,530.4c0-0.3,0.2-0.5,0.5-0.5s0.5,0.2,0.5,0.5c0,0.3-0.2,0.5-0.5,0.5
				C375.5,530.9,375.3,530.7,375.3,530.4z M375.3,533.3c0-0.3,0.2-0.5,0.5-0.5s0.5,0.2,0.5,0.5c0,0.3-0.2,0.5-0.5,0.5
				C375.5,533.8,375.3,533.6,375.3,533.3z"/>
			<path class="st4" d="M376.6,534.1l2.3-5.9h0.6l-2.3,5.9H376.6z"/>
			<path class="st4" d="M379.4,534.1l2.3-5.9h0.6l-2.3,5.9H379.4z"/>
			<path class="st4" d="M383.1,529.8l0.5,2c0.1,0.4,0.2,0.9,0.3,1.3h0c0.1-0.4,0.2-0.8,0.4-1.3l0.6-2h0.6l0.6,2
				c0.1,0.5,0.3,0.9,0.4,1.3h0c0.1-0.4,0.2-0.8,0.3-1.3l0.6-2h0.7l-1.3,4h-0.7l-0.6-1.9c-0.1-0.4-0.3-0.8-0.4-1.3h0
				c-0.1,0.5-0.2,0.9-0.4,1.3l-0.6,1.9h-0.7l-1.2-4H383.1z"/>
			<path class="st4" d="M389.2,529.8l0.5,2c0.1,0.4,0.2,0.9,0.3,1.3h0c0.1-0.4,0.2-0.8,0.4-1.3l0.6-2h0.6l0.6,2
				c0.1,0.5,0.3,0.9,0.4,1.3h0c0.1-0.4,0.2-0.8,0.3-1.3l0.6-2h0.7l-1.3,4h-0.7l-0.6-1.9c-0.1-0.4-0.3-0.8-0.4-1.3h0
				c-0.1,0.5-0.2,0.9-0.4,1.3l-0.6,1.9h-0.7l-1.2-4H389.2z"/>
			<path class="st4" d="M395.3,529.8l0.5,2c0.1,0.4,0.2,0.9,0.3,1.3h0c0.1-0.4,0.2-0.8,0.4-1.3l0.6-2h0.6l0.6,2
				c0.1,0.5,0.3,0.9,0.4,1.3h0c0.1-0.4,0.2-0.8,0.3-1.3l0.6-2h0.7l-1.3,4h-0.7l-0.6-1.9c-0.1-0.4-0.3-0.8-0.4-1.3h0
				c-0.1,0.5-0.2,0.9-0.4,1.3l-0.6,1.9h-0.7l-1.2-4H395.3z"/>
			<path class="st4" d="M400.6,533.3c0-0.3,0.2-0.5,0.5-0.5c0.3,0,0.5,0.2,0.5,0.5c0,0.3-0.2,0.5-0.5,0.5
				C400.8,533.8,400.6,533.6,400.6,533.3z"/>
			<path class="st4" d="M402.5,533.7v-3.4H402v-0.5h0.6v-0.2c0-0.5,0.2-1,0.6-1.4c0.3-0.3,0.7-0.4,1.3-0.4c0.5,0,0.9,0.1,1.2,0.3
				v5.6h-0.7v-5.2c-0.1-0.1-0.3-0.1-0.6-0.1c-0.8,0-1,0.5-1,1.2v0.2h0.9v0.5h-0.9v3.4H402.5z"/>
			<path class="st4" d="M408.9,533.7l-0.1-0.5h0c-0.2,0.3-0.6,0.6-1.2,0.6c-0.8,0-1.2-0.6-1.2-1.1c0-1,0.9-1.5,2.4-1.5v-0.1
				c0-0.3-0.1-0.9-0.9-0.9c-0.4,0-0.8,0.1-1,0.3l-0.2-0.5c0.3-0.2,0.8-0.4,1.3-0.4c1.2,0,1.5,0.8,1.5,1.6v1.5c0,0.3,0,0.7,0.1,0.9
				H408.9z M408.8,531.7c-0.8,0-1.7,0.1-1.7,0.9c0,0.5,0.3,0.7,0.7,0.7c0.5,0,0.8-0.3,1-0.7c0-0.1,0-0.2,0-0.2V531.7z"/>
			<path class="st4" d="M411.5,528.6v1.1h1v0.5h-1v2.1c0,0.5,0.1,0.8,0.5,0.8c0.2,0,0.3,0,0.4,0l0,0.5c-0.1,0.1-0.4,0.1-0.6,0.1
				c-0.3,0-0.6-0.1-0.8-0.3c-0.2-0.2-0.3-0.6-0.3-1v-2.2h-0.6v-0.5h0.6v-0.9L411.5,528.6z"/>
			<path class="st4" d="M414.2,528.7c0,0.2-0.2,0.4-0.5,0.4c-0.3,0-0.4-0.2-0.4-0.4c0-0.3,0.2-0.4,0.4-0.4
				C414,528.2,414.2,528.4,414.2,528.7z M413.4,533.7v-4h0.7v4H413.4z"/>
			<path class="st4" d="M418.1,533.6c-0.2,0.1-0.6,0.2-1.1,0.2c-1.2,0-2-0.8-2-2c0-1.2,0.8-2.1,2.1-2.1c0.4,0,0.8,0.1,1,0.2
				l-0.2,0.6c-0.2-0.1-0.4-0.2-0.8-0.2c-0.9,0-1.4,0.7-1.4,1.5c0,0.9,0.6,1.5,1.4,1.5c0.4,0,0.7-0.1,0.9-0.2L418.1,533.6z"/>
			<path class="st4" d="M422.5,531.7c0,1.5-1,2.1-2,2.1c-1.1,0-1.9-0.8-1.9-2c0-1.3,0.9-2.1,2-2.1
				C421.7,529.7,422.5,530.5,422.5,531.7z M419.3,531.8c0,0.9,0.5,1.5,1.2,1.5c0.7,0,1.2-0.6,1.2-1.5c0-0.7-0.3-1.5-1.2-1.5
				C419.7,530.2,419.3,531,419.3,531.8z"/>
			<path class="st4" d="M423.4,530.8c0-0.4,0-0.7,0-1.1h0.6l0,0.7h0c0.2-0.4,0.7-0.7,1.3-0.7c0.5,0,1.4,0.3,1.4,1.7v2.4H426v-2.3
				c0-0.6-0.2-1.2-0.9-1.2c-0.5,0-0.8,0.3-1,0.7c0,0.1,0,0.2,0,0.3v2.4h-0.7V530.8z"/>
			<path class="st4" d="M427.7,533.3c0-0.3,0.2-0.5,0.5-0.5c0.3,0,0.5,0.2,0.5,0.5c0,0.3-0.2,0.5-0.5,0.5
				C427.9,533.8,427.7,533.6,427.7,533.3z"/>
			<path class="st4" d="M432.4,533.6c-0.2,0.1-0.6,0.2-1.1,0.2c-1.2,0-2-0.8-2-2c0-1.2,0.8-2.1,2.1-2.1c0.4,0,0.8,0.1,1,0.2
				l-0.2,0.6c-0.2-0.1-0.4-0.2-0.8-0.2c-0.9,0-1.4,0.7-1.4,1.5c0,0.9,0.6,1.5,1.4,1.5c0.4,0,0.7-0.1,0.9-0.2L432.4,533.6z"/>
			<path class="st4" d="M436.8,531.7c0,1.5-1,2.1-2,2.1c-1.1,0-1.9-0.8-1.9-2c0-1.3,0.9-2.1,2-2.1
				C436,529.7,436.8,530.5,436.8,531.7z M433.7,531.8c0,0.9,0.5,1.5,1.2,1.5c0.7,0,1.2-0.6,1.2-1.5c0-0.7-0.3-1.5-1.2-1.5
				C434,530.2,433.7,531,433.7,531.8z"/>
			<path class="st4" d="M437.7,530.8c0-0.4,0-0.7,0-1.1h0.6l0,0.6h0c0.2-0.4,0.6-0.7,1.2-0.7c0.5,0,0.9,0.3,1.1,0.8h0
				c0.1-0.2,0.3-0.4,0.4-0.5c0.2-0.2,0.5-0.3,0.9-0.3c0.5,0,1.3,0.3,1.3,1.7v2.3h-0.7v-2.2c0-0.8-0.3-1.2-0.9-1.2
				c-0.4,0-0.7,0.3-0.9,0.7c0,0.1-0.1,0.2-0.1,0.4v2.4h-0.7v-2.4c0-0.6-0.3-1.1-0.8-1.1c-0.5,0-0.8,0.4-0.9,0.7
				c0,0.1-0.1,0.2-0.1,0.4v2.4h-0.7V530.8z"/>
		</g>
		<g id="On" transform="translate(800.000000, 0.000000)">
			<rect id="Rectangle-5" x="-146.3" y="37.1" class="st1" width="125.9" height="18.9">
			</rect>
			<g class="st3">
				<path class="st4" d="M-134.9,46.6c0,2-1.2,3.1-2.8,3.1c-1.6,0-2.7-1.2-2.7-3c0-1.9,1.2-3.1,2.8-3.1
					C-135.9,43.6-134.9,44.9-134.9,46.6z M-139.5,46.7c0,1.3,0.7,2.4,1.9,2.4c1.2,0,1.9-1.1,1.9-2.5c0-1.2-0.6-2.4-1.9-2.4
					C-138.9,44.2-139.5,45.4-139.5,46.7z"/>
				<path class="st4" d="M-133.9,46.5c0-0.4,0-0.8,0-1.2h0.7l0,0.7h0c0.2-0.4,0.7-0.8,1.4-0.8c0.6,0,1.5,0.4,1.5,1.8v2.5h-0.8v-2.5
					c0-0.7-0.3-1.3-1-1.3c-0.5,0-0.9,0.4-1,0.8c0,0.1-0.1,0.2-0.1,0.4v2.6h-0.8V46.5z"/>
				<path class="st4" d="M-129.2,46.1c0-0.3,0.2-0.6,0.5-0.6s0.5,0.2,0.5,0.6c0,0.3-0.2,0.5-0.5,0.5
					C-129,46.6-129.2,46.4-129.2,46.1z M-129.2,49.2c0-0.3,0.2-0.6,0.5-0.6s0.5,0.2,0.5,0.6c0,0.3-0.2,0.5-0.5,0.5
					C-129,49.8-129.2,49.5-129.2,49.2z"/>
			</g>
		</g>
		<g id="Author" transform="translate(596.000000, 0.000000)">
			<rect x="-70.7" y="37.1" class="st1" width="125.9" height="41.5">
			</rect>
			<g class="st3">
				<path class="st4" d="M-62.2,48.7l-0.6,1.9h-0.8l2-5.9h0.9l2,5.9h-0.8l-0.6-1.9H-62.2z M-60.2,48.1l-0.6-1.7
					c-0.1-0.4-0.2-0.7-0.3-1.1h0c-0.1,0.4-0.2,0.7-0.3,1.1l-0.6,1.7H-60.2z"/>
				<path class="st4" d="M-54.3,49.4c0,0.4,0,0.8,0,1.2h-0.7l0-0.7h0c-0.2,0.3-0.7,0.8-1.4,0.8c-0.7,0-1.5-0.4-1.5-1.9v-2.5h0.8v2.4
					c0,0.8,0.2,1.4,1,1.4c0.5,0,0.9-0.4,1-0.7c0-0.1,0.1-0.3,0.1-0.4v-2.6h0.8V49.4z"/>
				<path class="st4" d="M-52.1,45v1.2h1.1v0.6h-1.1v2.3c0,0.5,0.1,0.8,0.6,0.8c0.2,0,0.4,0,0.4-0.1l0,0.6c-0.1,0.1-0.4,0.1-0.7,0.1
					c-0.4,0-0.7-0.1-0.8-0.3c-0.2-0.2-0.3-0.6-0.3-1.1v-2.3h-0.7v-0.6h0.7v-1L-52.1,45z"/>
				<path class="st4" d="M-50.1,44.3h0.8v2.7h0c0.1-0.2,0.3-0.4,0.6-0.5c0.2-0.1,0.5-0.2,0.8-0.2c0.6,0,1.5,0.4,1.5,1.8v2.5h-0.8
					v-2.5c0-0.7-0.3-1.3-1-1.3c-0.5,0-0.9,0.4-1,0.8c0,0.1-0.1,0.2-0.1,0.4v2.6h-0.8V44.3z"/>
				<path class="st4" d="M-41.3,48.4c0,1.6-1.1,2.3-2.1,2.3c-1.2,0-2-0.8-2-2.2c0-1.4,0.9-2.3,2.1-2.3
					C-42.2,46.2-41.3,47.1-41.3,48.4z M-44.7,48.4c0,0.9,0.5,1.6,1.3,1.6c0.7,0,1.3-0.7,1.3-1.7c0-0.7-0.4-1.6-1.3-1.6
					C-44.3,46.8-44.7,47.6-44.7,48.4z"/>
				<path class="st4" d="M-40.4,47.6c0-0.5,0-0.9,0-1.3h0.7l0,0.8h0c0.2-0.6,0.7-0.9,1.2-0.9c0.1,0,0.1,0,0.2,0v0.7
					c-0.1,0-0.2,0-0.3,0c-0.5,0-0.9,0.4-1,1c0,0.1,0,0.2,0,0.4v2.3h-0.8V47.6z"/>
				<path class="st4" d="M-37.6,47c0-0.3,0.2-0.6,0.5-0.6s0.5,0.2,0.5,0.6c0,0.3-0.2,0.5-0.5,0.5C-37.4,47.5-37.6,47.3-37.6,47z
					 M-37.6,50.1c0-0.3,0.2-0.6,0.5-0.6s0.5,0.2,0.5,0.6c0,0.3-0.2,0.5-0.5,0.5C-37.4,50.6-37.6,50.4-37.6,50.1z"/>
			</g>
		</g>
		<g id="Business-Model-Canvas-IDEA">
			<rect x="150.1" y="37.1" class="st1" width="372" height="41.5">
			</rect>
			<g class="st3">
				<path class="st4" d="M163.9,47.8c0.4-0.1,1.1-0.2,1.8-0.2c1,0,1.6,0.2,2.1,0.6c0.4,0.3,0.6,0.7,0.6,1.3c0,0.7-0.5,1.4-1.3,1.7v0
					c0.7,0.2,1.6,0.8,1.6,1.9c0,0.7-0.3,1.2-0.6,1.5c-0.5,0.5-1.4,0.7-2.6,0.7c-0.7,0-1.2,0-1.5-0.1V47.8z M164.9,50.9h0.9
					c1,0,1.7-0.5,1.7-1.3c0-0.9-0.7-1.2-1.7-1.2c-0.5,0-0.7,0-0.9,0.1V50.9z M164.9,54.6c0.2,0,0.5,0,0.8,0c1,0,2-0.4,2-1.5
					c0-1-0.9-1.5-2-1.5h-0.8V54.6z"/>
				<path class="st4" d="M174.6,53.8c0,0.6,0,1.1,0,1.5h-0.9l-0.1-0.9h0c-0.3,0.4-0.8,1-1.8,1c-0.9,0-1.9-0.5-1.9-2.4v-3.2h1v3
					c0,1,0.3,1.7,1.2,1.7c0.7,0,1.1-0.5,1.3-0.9c0.1-0.1,0.1-0.3,0.1-0.5v-3.4h1V53.8z"/>
				<path class="st4" d="M176.2,54.3c0.3,0.2,0.8,0.4,1.3,0.4c0.7,0,1.1-0.4,1.1-0.8c0-0.5-0.3-0.7-1-1c-1-0.4-1.5-0.9-1.5-1.6
					c0-0.9,0.7-1.6,1.9-1.6c0.6,0,1,0.2,1.3,0.3l-0.2,0.7c-0.2-0.1-0.6-0.3-1.1-0.3c-0.6,0-0.9,0.3-0.9,0.7c0,0.5,0.3,0.7,1,0.9
					c1,0.4,1.4,0.8,1.4,1.7c0,1-0.7,1.6-2.1,1.6c-0.6,0-1.2-0.1-1.5-0.4L176.2,54.3z"/>
				<path class="st4" d="M181.9,48.3c0,0.3-0.2,0.6-0.6,0.6c-0.4,0-0.6-0.3-0.6-0.6c0-0.4,0.3-0.6,0.6-0.6
					C181.7,47.7,181.9,47.9,181.9,48.3z M180.8,55.3v-5.5h1v5.5H180.8z"/>
				<path class="st4" d="M183.4,51.3c0-0.6,0-1,0-1.5h0.9l0.1,0.9h0c0.3-0.5,0.9-1,1.8-1c0.8,0,1.9,0.5,1.9,2.3v3.3h-1v-3.2
					c0-0.9-0.3-1.6-1.3-1.6c-0.7,0-1.2,0.5-1.3,1c0,0.1-0.1,0.3-0.1,0.5v3.3h-1V51.3z"/>
				<path class="st4" d="M190.3,52.8c0,1.3,0.9,1.9,1.9,1.9c0.7,0,1.1-0.1,1.5-0.3l0.2,0.7c-0.4,0.2-1,0.3-1.8,0.3
					c-1.7,0-2.7-1.1-2.7-2.8s1-3,2.6-3c1.8,0,2.3,1.6,2.3,2.6c0,0.2,0,0.4,0,0.5H190.3z M193.2,52c0-0.6-0.3-1.6-1.4-1.6
					c-1,0-1.5,0.9-1.5,1.6H193.2z"/>
				<path class="st4" d="M195.3,54.3c0.3,0.2,0.8,0.4,1.3,0.4c0.7,0,1.1-0.4,1.1-0.8c0-0.5-0.3-0.7-1-1c-1-0.4-1.5-0.9-1.5-1.6
					c0-0.9,0.7-1.6,1.9-1.6c0.6,0,1,0.2,1.3,0.3l-0.2,0.7c-0.2-0.1-0.6-0.3-1.1-0.3c-0.6,0-0.9,0.3-0.9,0.7c0,0.5,0.3,0.7,1,0.9
					c1,0.4,1.4,0.8,1.4,1.7c0,1-0.7,1.6-2.1,1.6c-0.6,0-1.2-0.1-1.5-0.4L195.3,54.3z"/>
				<path class="st4" d="M199.7,54.3c0.3,0.2,0.8,0.4,1.3,0.4c0.7,0,1.1-0.4,1.1-0.8c0-0.5-0.3-0.7-1-1c-1-0.4-1.5-0.9-1.5-1.6
					c0-0.9,0.7-1.6,1.9-1.6c0.6,0,1,0.2,1.3,0.3l-0.2,0.7c-0.2-0.1-0.6-0.3-1.1-0.3c-0.6,0-0.9,0.3-0.9,0.7c0,0.5,0.3,0.7,1,0.9
					c1,0.4,1.4,0.8,1.4,1.7c0,1-0.7,1.6-2.1,1.6c-0.6,0-1.2-0.1-1.5-0.4L199.7,54.3z"/>
				<path class="st4" d="M213.2,52c-0.1-1.1-0.1-2.3-0.1-3.3h0c-0.3,0.9-0.6,1.8-1,2.9l-1.3,3.7H210l-1.2-3.6
					c-0.4-1.1-0.7-2.1-0.9-3h0c0,1-0.1,2.2-0.1,3.4l-0.2,3.3h-0.9l0.5-7.6h1.3l1.3,3.7c0.3,0.9,0.6,1.8,0.8,2.6h0
					c0.2-0.8,0.5-1.6,0.8-2.6l1.4-3.7h1.3l0.5,7.6h-1L213.2,52z"/>
				<path class="st4" d="M220.9,52.5c0,2-1.4,2.9-2.7,2.9c-1.5,0-2.6-1.1-2.6-2.8c0-1.8,1.2-2.9,2.7-2.9
					C219.9,49.7,220.9,50.9,220.9,52.5z M216.6,52.6c0,1.2,0.7,2.1,1.7,2.1c1,0,1.7-0.9,1.7-2.1c0-0.9-0.5-2.1-1.6-2.1
					C217.1,50.5,216.6,51.5,216.6,52.6z"/>
				<path class="st4" d="M226.9,47.3v6.6c0,0.5,0,1,0,1.4h-0.9l0-1h0c-0.3,0.6-1,1.1-1.9,1.1c-1.3,0-2.3-1.1-2.3-2.8
					c0-1.8,1.1-2.9,2.5-2.9c0.8,0,1.4,0.4,1.7,0.8h0v-3.3H226.9z M225.9,52.1c0-0.1,0-0.3,0-0.4c-0.1-0.6-0.7-1.2-1.4-1.2
					c-1,0-1.6,0.9-1.6,2.1c0,1.1,0.5,2,1.6,2c0.7,0,1.3-0.4,1.5-1.2c0-0.1,0-0.3,0-0.4V52.1z"/>
				<path class="st4" d="M229.1,52.8c0,1.3,0.9,1.9,1.9,1.9c0.7,0,1.1-0.1,1.5-0.3l0.2,0.7c-0.4,0.2-1,0.3-1.8,0.3
					c-1.7,0-2.7-1.1-2.7-2.8s1-3,2.6-3c1.8,0,2.3,1.6,2.3,2.6c0,0.2,0,0.4,0,0.5H229.1z M232,52c0-0.6-0.3-1.6-1.4-1.6
					c-1,0-1.5,0.9-1.5,1.6H232z"/>
				<path class="st4" d="M234.2,47.3h1v8h-1V47.3z"/>
				<path class="st4" d="M244.7,55.1c-0.4,0.2-1.1,0.4-2,0.4c-2.2,0-3.8-1.4-3.8-3.9c0-2.4,1.6-4,4-4c1,0,1.6,0.2,1.8,0.3l-0.2,0.8
					c-0.4-0.2-0.9-0.3-1.5-0.3c-1.8,0-3,1.1-3,3.2c0,1.9,1.1,3.1,2.9,3.1c0.6,0,1.2-0.1,1.6-0.3L244.7,55.1z"/>
				<path class="st4" d="M248.8,55.3l-0.1-0.7h0c-0.3,0.4-0.9,0.8-1.7,0.8c-1.1,0-1.7-0.8-1.7-1.6c0-1.3,1.2-2.1,3.3-2v-0.1
					c0-0.5-0.1-1.3-1.2-1.3c-0.5,0-1,0.2-1.4,0.4l-0.2-0.7c0.5-0.3,1.1-0.5,1.8-0.5c1.7,0,2.1,1.1,2.1,2.2V54c0,0.5,0,0.9,0.1,1.3
					H248.8z M248.7,52.5c-1.1,0-2.3,0.2-2.3,1.2c0,0.6,0.4,1,0.9,1c0.7,0,1.2-0.5,1.3-0.9c0-0.1,0.1-0.2,0.1-0.3V52.5z"/>
				<path class="st4" d="M251.3,51.3c0-0.6,0-1,0-1.5h0.9l0.1,0.9h0c0.3-0.5,0.9-1,1.8-1c0.8,0,1.9,0.5,1.9,2.3v3.3h-1v-3.2
					c0-0.9-0.3-1.6-1.3-1.6c-0.7,0-1.2,0.5-1.3,1c0,0.1-0.1,0.3-0.1,0.5v3.3h-1V51.3z"/>
				<path class="st4" d="M257.8,49.8l1.1,3.1c0.2,0.5,0.3,1,0.4,1.4h0c0.1-0.5,0.3-0.9,0.5-1.4l1.1-3.1h1l-2.2,5.5h-1l-2.1-5.5
					H257.8z"/>
				<path class="st4" d="M265.9,55.3l-0.1-0.7h0c-0.3,0.4-0.9,0.8-1.7,0.8c-1.1,0-1.7-0.8-1.7-1.6c0-1.3,1.2-2.1,3.3-2v-0.1
					c0-0.5-0.1-1.3-1.2-1.3c-0.5,0-1,0.2-1.4,0.4l-0.2-0.7c0.5-0.3,1.1-0.5,1.8-0.5c1.7,0,2.1,1.1,2.1,2.2V54c0,0.5,0,0.9,0.1,1.3
					H265.9z M265.7,52.5c-1.1,0-2.3,0.2-2.3,1.2c0,0.6,0.4,1,0.9,1c0.7,0,1.2-0.5,1.3-0.9c0-0.1,0.1-0.2,0.1-0.3V52.5z"/>
				<path class="st4" d="M268.1,54.3c0.3,0.2,0.8,0.4,1.3,0.4c0.7,0,1.1-0.4,1.1-0.8c0-0.5-0.3-0.7-1-1c-1-0.4-1.5-0.9-1.5-1.6
					c0-0.9,0.7-1.6,1.9-1.6c0.6,0,1,0.2,1.3,0.3l-0.2,0.7c-0.2-0.1-0.6-0.3-1.1-0.3c-0.6,0-0.9,0.3-0.9,0.7c0,0.5,0.3,0.7,1,0.9
					c1,0.4,1.4,0.8,1.4,1.7c0,1-0.7,1.6-2.1,1.6c-0.6,0-1.2-0.1-1.5-0.4L268.1,54.3z"/>
				<path class="st4" d="M276.2,47.7v7.6h-1v-7.6H276.2z"/>
				<path class="st4" d="M277.9,47.8c0.6-0.1,1.3-0.2,2.1-0.2c1.4,0,2.4,0.3,3.1,1c0.7,0.6,1.1,1.5,1.1,2.7c0,1.2-0.4,2.3-1.1,3
					c-0.7,0.7-1.9,1.1-3.4,1.1c-0.7,0-1.3,0-1.8-0.1V47.8z M278.9,54.5c0.2,0,0.6,0.1,1,0.1c2.1,0,3.3-1.2,3.3-3.2
					c0-1.8-1-2.9-3.1-2.9c-0.5,0-0.9,0-1.2,0.1V54.5z"/>
				<path class="st4" d="M289.4,51.7h-3v2.8h3.3v0.8h-4.3v-7.6h4.1v0.8h-3.1v2.4h3V51.7z"/>
				<path class="st4" d="M292.3,52.9l-0.8,2.4h-1l2.6-7.6h1.2l2.6,7.6h-1.1l-0.8-2.4H292.3z M294.8,52.1l-0.7-2.2
					c-0.2-0.5-0.3-1-0.4-1.4h0c-0.1,0.5-0.2,0.9-0.4,1.4l-0.7,2.2H294.8z"/>
				<path class="st4" d="M297.7,50.7c0-0.4,0.3-0.7,0.7-0.7c0.4,0,0.7,0.3,0.7,0.7c0,0.4-0.3,0.7-0.7,0.7
					C298,51.4,297.7,51.1,297.7,50.7z M297.7,54.7c0-0.4,0.3-0.7,0.7-0.7c0.4,0,0.7,0.3,0.7,0.7c0,0.4-0.3,0.7-0.7,0.7
					C298,55.4,297.7,55.1,297.7,54.7z"/>
			</g>
		</g>
		<g id="Iteration" transform="translate(800.000000, 36.000000)">
			<rect id="Rectangle-6" x="-146.3" y="23.7" class="st1" width="125.9" height="18.9">
			</rect>
			<g class="st3">
				<path class="st4" d="M-139.2,30.4v5.9h-0.8v-5.9H-139.2z"/>
				<path class="st4" d="M-136.8,30.8V32h1.1v0.6h-1.1v2.3c0,0.5,0.1,0.8,0.6,0.8c0.2,0,0.4,0,0.4-0.1l0,0.6
					c-0.1,0.1-0.4,0.1-0.7,0.1c-0.4,0-0.7-0.1-0.8-0.3c-0.2-0.2-0.3-0.6-0.3-1.1v-2.3h-0.7V32h0.7v-1L-136.8,30.8z"/>
				<path class="st4" d="M-134.4,34.3c0,1,0.7,1.5,1.5,1.5c0.6,0,0.9-0.1,1.2-0.2l0.1,0.6c-0.3,0.1-0.7,0.3-1.4,0.3
					c-1.3,0-2.1-0.9-2.1-2.2c0-1.3,0.8-2.3,2-2.3c1.4,0,1.8,1.2,1.8,2c0,0.2,0,0.3,0,0.4H-134.4z M-132.2,33.8
					c0-0.5-0.2-1.3-1.1-1.3c-0.8,0-1.1,0.7-1.2,1.3H-132.2z"/>
				<path class="st4" d="M-130.5,33.4c0-0.5,0-0.9,0-1.3h0.7l0,0.8h0c0.2-0.6,0.7-0.9,1.2-0.9c0.1,0,0.1,0,0.2,0v0.7
					c-0.1,0-0.2,0-0.3,0c-0.5,0-0.9,0.4-1,1c0,0.1,0,0.2,0,0.4v2.3h-0.8V33.4z"/>
				<path class="st4" d="M-125.3,36.3l-0.1-0.5h0c-0.2,0.3-0.7,0.6-1.3,0.6c-0.9,0-1.3-0.6-1.3-1.2c0-1,0.9-1.6,2.6-1.6v-0.1
					c0-0.4-0.1-1-1-1c-0.4,0-0.8,0.1-1.1,0.3l-0.2-0.5c0.4-0.2,0.9-0.4,1.4-0.4c1.3,0,1.6,0.9,1.6,1.7v1.6c0,0.4,0,0.7,0.1,1H-125.3
					z M-125.4,34.1c-0.8,0-1.8,0.1-1.8,1c0,0.5,0.3,0.7,0.7,0.7c0.6,0,0.9-0.4,1-0.7c0-0.1,0-0.2,0-0.2V34.1z"/>
				<path class="st4" d="M-122.5,30.8V32h1.1v0.6h-1.1v2.3c0,0.5,0.1,0.8,0.6,0.8c0.2,0,0.4,0,0.4-0.1l0,0.6
					c-0.1,0.1-0.4,0.1-0.7,0.1c-0.4,0-0.7-0.1-0.8-0.3c-0.2-0.2-0.3-0.6-0.3-1.1v-2.3h-0.7V32h0.7v-1L-122.5,30.8z"/>
				<path class="st4" d="M-119.6,30.8c0,0.3-0.2,0.5-0.5,0.5c-0.3,0-0.5-0.2-0.5-0.5c0-0.3,0.2-0.5,0.5-0.5
					C-119.8,30.4-119.6,30.6-119.6,30.8z M-120.5,36.3V32h0.8v4.3H-120.5z"/>
				<path class="st4" d="M-114.6,34.1c0,1.6-1.1,2.3-2.1,2.3c-1.2,0-2-0.8-2-2.2c0-1.4,0.9-2.3,2.1-2.3
					C-115.4,32-114.6,32.8-114.6,34.1z M-118,34.2c0,0.9,0.5,1.6,1.3,1.6c0.7,0,1.3-0.7,1.3-1.7c0-0.7-0.4-1.6-1.3-1.6
					C-117.6,32.5-118,33.4-118,34.2z"/>
				<path class="st4" d="M-113.6,33.2c0-0.4,0-0.8,0-1.2h0.7l0,0.7h0c0.2-0.4,0.7-0.8,1.4-0.8c0.6,0,1.5,0.4,1.5,1.8v2.5h-0.8v-2.5
					c0-0.7-0.3-1.3-1-1.3c-0.5,0-0.9,0.4-1,0.8c0,0.1-0.1,0.2-0.1,0.4v2.6h-0.8V33.2z"/>
				<path class="st4" d="M-108.9,32.8c0-0.3,0.2-0.6,0.5-0.6s0.5,0.2,0.5,0.6c0,0.3-0.2,0.5-0.5,0.5
					C-108.7,33.3-108.9,33.1-108.9,32.8z M-108.9,35.9c0-0.3,0.2-0.6,0.5-0.6s0.5,0.2,0.5,0.6c0,0.3-0.2,0.5-0.5,0.5
					C-108.7,36.4-108.9,36.2-108.9,35.9z"/>
			</g>
		</g>
	</g>
</g>
</svg>
