<?xml version="1.0" encoding="utf-8"?>
<!-- Generator: Adobe Illustrator 23.1.0, SVG Export Plug-In . SVG Version: 6.00 Build 0)  -->
<svg version="1.1" id="Layer_1" xmlns="http://www.w3.org/2000/svg" xmlns:xlink="http://www.w3.org/1999/xlink" x="0px" y="0px"
	 viewBox="0 0 1280 800" style="enable-background:new 0 0 1280 800;" xml:space="preserve">
<style type="text/css">
	.st0{opacity:0.5;fill:none;stroke:#7F7F7F;stroke-miterlimit:10;}
	.st1{opacity:0.5;}
	.st2{fill:#7B7B7B;}
	.st3{opacity:0.2;fill:#7B7B7B;}
	.st4{opacity:0.5;fill:none;stroke:#7F7F7F;stroke-width:3;stroke-miterlimit:10;}
</style>
<rect x="148" y="289" class="st0" width="58.7" height="39.8"/>
<rect x="206.7" y="289" class="st0" width="58.7" height="39.8"/>
<rect x="265.4" y="289" class="st0" width="58.7" height="39.8"/>
<rect x="324.1" y="289" class="st0" width="58.7" height="39.8"/>
<rect x="382.8" y="289" class="st0" width="58.7" height="39.8"/>
<rect x="441.5" y="289" class="st0" width="58.7" height="39.8"/>
<rect x="500.2" y="289" class="st0" width="58.7" height="39.8"/>
<rect x="558.9" y="289" class="st0" width="58.7" height="39.8"/>
<rect x="617.6" y="289" class="st0" width="58.7" height="39.8"/>
<rect x="676.4" y="289" class="st0" width="58.7" height="39.8"/>
<rect x="735.1" y="289" class="st0" width="58.7" height="39.8"/>
<rect x="793.8" y="289" class="st0" width="58.7" height="39.8"/>
<rect x="852.5" y="289" class="st0" width="58.7" height="39.8"/>
<rect x="911.2" y="289" class="st0" width="58.7" height="39.8"/>
<rect x="969.9" y="289" class="st0" width="58.7" height="39.8"/>
<rect x="1028.6" y="289" class="st0" width="58.7" height="39.8"/>
<rect x="1087.3" y="289" class="st0" width="58.7" height="39.8"/>
<rect x="148" y="328.8" class="st0" width="58.7" height="39.8"/>
<rect x="206.7" y="328.8" class="st0" width="58.7" height="39.8"/>
<rect x="265.4" y="328.8" class="st0" width="58.7" height="39.8"/>
<rect x="324.1" y="328.8" class="st0" width="58.7" height="39.8"/>
<rect x="382.8" y="328.8" class="st0" width="58.7" height="39.8"/>
<rect x="441.5" y="328.8" class="st0" width="58.7" height="39.8"/>
<rect x="500.2" y="328.8" class="st0" width="58.7" height="39.8"/>
<rect x="558.9" y="328.8" class="st0" width="58.7" height="39.8"/>
<rect x="617.6" y="328.8" class="st0" width="58.7" height="39.8"/>
<rect x="676.4" y="328.8" class="st0" width="58.7" height="39.8"/>
<rect x="735.1" y="328.8" class="st0" width="58.7" height="39.8"/>
<rect x="793.8" y="328.8" class="st0" width="58.7" height="39.8"/>
<rect x="852.5" y="328.8" class="st0" width="58.7" height="39.8"/>
<rect x="911.2" y="328.8" class="st0" width="58.7" height="39.8"/>
<rect x="969.9" y="328.8" class="st0" width="58.7" height="39.8"/>
<rect x="1028.6" y="328.8" class="st0" width="58.7" height="39.8"/>
<rect x="1087.3" y="328.8" class="st0" width="58.7" height="39.8"/>
<rect x="148" y="368.6" class="st0" width="58.7" height="39.8"/>
<rect x="206.7" y="368.6" class="st0" width="58.7" height="39.8"/>
<rect x="265.4" y="368.6" class="st0" width="58.7" height="39.8"/>
<rect x="324.1" y="368.6" class="st0" width="58.7" height="39.8"/>
<rect x="382.8" y="368.6" class="st0" width="58.7" height="39.8"/>
<rect x="441.5" y="368.6" class="st0" width="58.7" height="39.8"/>
<rect x="500.2" y="368.6" class="st0" width="58.7" height="39.8"/>
<rect x="558.9" y="368.6" class="st0" width="58.7" height="39.8"/>
<rect x="617.6" y="368.6" class="st0" width="58.7" height="39.8"/>
<rect x="676.4" y="368.6" class="st0" width="58.7" height="39.8"/>
<rect x="735.1" y="368.6" class="st0" width="58.7" height="39.8"/>
<rect x="793.8" y="368.6" class="st0" width="58.7" height="39.8"/>
<rect x="852.5" y="368.6" class="st0" width="58.7" height="39.8"/>
<rect x="911.2" y="368.6" class="st0" width="58.7" height="39.8"/>
<rect x="969.9" y="368.6" class="st0" width="58.7" height="39.8"/>
<rect x="1028.6" y="368.6" class="st0" width="58.7" height="39.8"/>
<rect x="1087.3" y="368.6" class="st0" width="58.7" height="39.8"/>
<rect x="148" y="408.4" class="st0" width="58.7" height="39.8"/>
<rect x="206.7" y="408.4" class="st0" width="58.7" height="39.8"/>
<rect x="265.4" y="408.4" class="st0" width="58.7" height="39.8"/>
<rect x="324.1" y="408.4" class="st0" width="58.7" height="39.8"/>
<rect x="382.8" y="408.4" class="st0" width="58.7" height="39.8"/>
<rect x="441.5" y="408.4" class="st0" width="58.7" height="39.8"/>
<rect x="500.2" y="408.4" class="st0" width="58.7" height="39.8"/>
<rect x="558.9" y="408.4" class="st0" width="58.7" height="39.8"/>
<rect x="617.6" y="408.4" class="st0" width="58.7" height="39.8"/>
<rect x="676.4" y="408.4" class="st0" width="58.7" height="39.8"/>
<rect x="735.1" y="408.4" class="st0" width="58.7" height="39.8"/>
<rect x="793.8" y="408.4" class="st0" width="58.7" height="39.8"/>
<rect x="852.5" y="408.4" class="st0" width="58.7" height="39.8"/>
<rect x="911.2" y="408.4" class="st0" width="58.7" height="39.8"/>
<rect x="969.9" y="408.4" class="st0" width="58.7" height="39.8"/>
<rect x="1028.6" y="408.4" class="st0" width="58.7" height="39.8"/>
<rect x="1087.3" y="408.4" class="st0" width="58.7" height="39.8"/>
<rect x="148" y="448.2" class="st0" width="58.7" height="39.8"/>
<rect x="206.7" y="448.2" class="st0" width="58.7" height="39.8"/>
<rect x="265.4" y="448.2" class="st0" width="58.7" height="39.8"/>
<rect x="324.1" y="448.2" class="st0" width="58.7" height="39.8"/>
<rect x="382.8" y="448.2" class="st0" width="58.7" height="39.8"/>
<rect x="441.5" y="448.2" class="st0" width="58.7" height="39.8"/>
<rect x="500.2" y="448.2" class="st0" width="58.7" height="39.8"/>
<rect x="558.9" y="448.2" class="st0" width="58.7" height="39.8"/>
<rect x="617.6" y="448.2" class="st0" width="58.7" height="39.8"/>
<rect x="676.4" y="448.2" class="st0" width="58.7" height="39.8"/>
<rect x="735.1" y="448.2" class="st0" width="58.7" height="39.8"/>
<rect x="793.8" y="448.2" class="st0" width="58.7" height="39.8"/>
<rect x="852.5" y="448.2" class="st0" width="58.7" height="39.8"/>
<rect x="911.2" y="448.2" class="st0" width="58.7" height="39.8"/>
<rect x="969.9" y="448.2" class="st0" width="58.7" height="39.8"/>
<rect x="1028.6" y="448.2" class="st0" width="58.7" height="39.8"/>
<rect x="1087.3" y="448.2" class="st0" width="58.7" height="39.8"/>
<g class="st1">
	<path class="st2" d="M135.7,486.3h-4.7v4.4h5.3v1.3h-6.8v-12.1h6.6v1.3h-5v3.8h4.7V486.3z"/>
</g>
<g class="st1">
	<path class="st2" d="M131.3,451.2l-1.3,3.8h-1.6l4.1-12.1h1.9l4.1,12.1h-1.7l-1.3-3.8H131.3z M135.3,450l-1.2-3.5
		c-0.3-0.8-0.5-1.5-0.6-2.2h0c-0.2,0.7-0.4,1.5-0.6,2.2l-1.2,3.5H135.3z"/>
</g>
<g class="st1">
	<path class="st2" d="M129.4,403c1-0.1,2.1-0.3,3.3-0.3c2.3,0,3.9,0.5,4.9,1.5c1.1,1,1.7,2.4,1.7,4.4c0,2-0.6,3.6-1.7,4.7
		c-1.1,1.1-3,1.7-5.4,1.7c-1.1,0-2.1-0.1-2.8-0.1V403z M130.9,413.8c0.4,0.1,1,0.1,1.6,0.1c3.3,0,5.2-1.9,5.2-5.1
		c0-2.9-1.6-4.7-4.9-4.7c-0.8,0-1.4,0.1-1.8,0.2V413.8z"/>
</g>
<g class="st1">
	<path class="st2" d="M138.6,374.5c-0.7,0.3-2.1,0.7-3.7,0.7c-1.8,0-3.3-0.5-4.5-1.6c-1-1-1.7-2.6-1.7-4.5c0-3.6,2.5-6.3,6.6-6.3
		c1.4,0,2.5,0.3,3,0.6l-0.4,1.3c-0.6-0.3-1.5-0.5-2.7-0.5c-3,0-4.9,1.8-4.9,4.9c0,3.1,1.9,4.9,4.7,4.9c1,0,1.7-0.1,2.1-0.3v-3.6
		h-2.5v-1.3h4V374.5z"/>
</g>
<g class="st1">
	<path class="st2" d="M129.4,323c0.7-0.1,1.8-0.3,2.9-0.3c1.6,0,2.6,0.3,3.3,0.9c0.6,0.5,1,1.2,1,2.1c0,1.2-0.8,2.2-2.1,2.7v0
		c1.2,0.3,2.5,1.2,2.5,3c0,1-0.4,1.8-1,2.4c-0.8,0.8-2.2,1.1-4.2,1.1c-1.1,0-1.9-0.1-2.4-0.1V323z M130.9,328h1.4
		c1.7,0,2.6-0.9,2.6-2c0-1.4-1.1-2-2.7-2c-0.7,0-1.1,0.1-1.4,0.1V328z M130.9,333.8c0.3,0.1,0.8,0.1,1.3,0.1c1.6,0,3.1-0.6,3.1-2.4
		c0-1.7-1.4-2.3-3.1-2.3h-1.3V333.8z"/>
</g>
<g class="st1">
	<path class="st2" d="M131.2,290.9c0,2.1,1.4,3,3,3c1.1,0,1.8-0.2,2.4-0.5l0.3,1.1c-0.6,0.3-1.5,0.5-2.9,0.5c-2.7,0-4.3-1.8-4.3-4.4
		s1.5-4.7,4.1-4.7c2.8,0,3.6,2.5,3.6,4.1c0,0.3,0,0.6-0.1,0.7H131.2z M135.8,289.8c0-1-0.4-2.6-2.2-2.6c-1.6,0-2.3,1.5-2.4,2.6
		H135.8z"/>
</g>
<g class="st1">
	<path class="st2" d="M175.7,499.6L175.7,499.6l-2.1,1.1l-0.3-1.2l2.6-1.4h1.4v11.7h-1.5V499.6z"/>
</g>
<g class="st1">
	<path class="st2" d="M231.3,509.8v-1l1.2-1.2c3-2.8,4.3-4.4,4.4-6.1c0-1.2-0.6-2.3-2.3-2.3c-1.1,0-1.9,0.5-2.5,1l-0.5-1.1
		c0.8-0.7,2-1.2,3.3-1.2c2.5,0,3.6,1.7,3.6,3.4c0,2.2-1.6,3.9-4,6.3l-0.9,0.9v0h5.3v1.3H231.3z"/>
</g>
<g class="st1">
	<path class="st2" d="M291.7,508c0.5,0.3,1.5,0.7,2.6,0.7c2,0,2.7-1.3,2.6-2.3c0-1.6-1.5-2.3-3-2.3H293v-1.2h0.9
		c1.2,0,2.6-0.6,2.6-2c0-0.9-0.6-1.8-2.1-1.8c-0.9,0-1.8,0.4-2.3,0.8l-0.4-1.2c0.6-0.5,1.8-0.9,3.1-0.9c2.3,0,3.3,1.4,3.3,2.8
		c0,1.2-0.7,2.2-2.2,2.8v0c1.4,0.3,2.6,1.4,2.6,3c0,1.9-1.5,3.5-4.3,3.5c-1.3,0-2.5-0.4-3-0.8L291.7,508z"/>
</g>
<g class="st1">
	<path class="st2" d="M354.2,509.8v-3.2h-5.4v-1l5.2-7.5h1.7v7.3h1.6v1.2h-1.6v3.2H354.2z M354.2,505.4v-3.9c0-0.6,0-1.2,0.1-1.8
		h-0.1c-0.4,0.7-0.6,1.2-1,1.7l-2.9,4v0H354.2z"/>
</g>
<g class="st1">
	<path class="st2" d="M414.3,499.4h-4.5l-0.5,3c0.3,0,0.5-0.1,1-0.1c0.9,0,1.8,0.2,2.5,0.6c0.9,0.5,1.7,1.5,1.7,3c0,2.3-1.8,4-4.4,4
		c-1.3,0-2.4-0.4-2.9-0.7l0.4-1.2c0.5,0.3,1.4,0.6,2.5,0.6c1.5,0,2.8-1,2.8-2.5c0-1.5-1-2.6-3.4-2.6c-0.7,0-1.2,0.1-1.6,0.1l0.8-5.6
		h5.6V499.4z"/>
</g>
<g class="st1">
	<path class="st2" d="M474,499.2c-0.3,0-0.7,0-1.2,0.1c-2.5,0.4-3.8,2.2-4.1,4.2h0.1c0.6-0.7,1.5-1.4,2.8-1.4c2.1,0,3.5,1.5,3.5,3.8
		c0,2.1-1.5,4.1-3.9,4.1c-2.5,0-4.1-1.9-4.1-5c0-2.3,0.8-4.1,2-5.3c1-1,2.3-1.5,3.7-1.7c0.5-0.1,0.9-0.1,1.2-0.1V499.2z
		 M473.5,505.9c0-1.7-1-2.7-2.4-2.7c-1,0-1.8,0.6-2.3,1.4c-0.1,0.2-0.2,0.4-0.2,0.7c0,1.9,0.9,3.3,2.6,3.3
		C472.6,508.8,473.5,507.6,473.5,505.9z"/>
</g>
<g class="st1">
	<path class="st2" d="M532.9,498.1v1l-5.1,10.7h-1.6l5.1-10.4v0h-5.7v-1.3H532.9z"/>
</g>
<g class="st1">
	<path class="st2" d="M585.2,506.8c0-1.5,0.9-2.5,2.3-3.1l0-0.1c-1.3-0.6-1.9-1.6-1.9-2.6c0-1.9,1.6-3.1,3.6-3.1
		c2.3,0,3.4,1.4,3.4,2.9c0,1-0.5,2.1-1.9,2.7v0.1c1.5,0.6,2.4,1.6,2.4,3c0,2-1.7,3.4-4,3.4C586.6,510,585.2,508.5,585.2,506.8z
		 M591.5,506.7c0-1.4-1-2.1-2.6-2.6c-1.4,0.4-2.1,1.3-2.1,2.4c-0.1,1.2,0.8,2.2,2.3,2.2C590.5,508.8,591.5,507.9,591.5,506.7z
		 M587.1,500.9c0,1.2,0.9,1.8,2.2,2.2c1-0.3,1.8-1.1,1.8-2.1c0-0.9-0.6-1.9-2-1.9C587.8,499,587.1,499.9,587.1,500.9z"/>
</g>
<g class="st1">
	<path class="st2" d="M643.2,508.7c0.3,0,0.7,0,1.3-0.1c0.9-0.1,1.8-0.5,2.4-1.1c0.8-0.7,1.3-1.7,1.5-3.1h-0.1
		c-0.6,0.8-1.6,1.3-2.8,1.3c-2.1,0-3.5-1.6-3.5-3.6c0-2.2,1.6-4.2,4-4.2s3.9,1.9,3.9,4.9c0,2.6-0.9,4.4-2,5.5
		c-0.9,0.9-2.1,1.4-3.4,1.6c-0.6,0.1-1.1,0.1-1.5,0.1V508.7z M643.8,501.9c0,1.5,0.9,2.5,2.3,2.5c1.1,0,1.9-0.5,2.3-1.2
		c0.1-0.1,0.1-0.3,0.1-0.6c0-2-0.7-3.5-2.4-3.5C644.7,499.1,643.8,500.3,643.8,501.9z"/>
</g>
<g class="st1">
	<path class="st2" d="M700.7,499.6L700.7,499.6l-2.1,1.1l-0.3-1.2l2.6-1.4h1.4v11.7h-1.5V499.6z"/>
	<path class="st2" d="M714.3,503.8c0,4-1.5,6.2-4.1,6.2c-2.3,0-3.8-2.1-3.9-6c0-3.9,1.7-6.1,4.1-6.1
		C712.9,497.9,714.3,500.1,714.3,503.8z M708,504c0,3,0.9,4.8,2.4,4.8c1.6,0,2.4-1.9,2.4-4.9c0-2.9-0.7-4.8-2.4-4.8
		C709,499.1,708,500.8,708,504z"/>
</g>
<g class="st1">
	<path class="st2" d="M759.7,499.6L759.7,499.6l-2.1,1.1l-0.3-1.2l2.6-1.4h1.4v11.7h-1.5V499.6z"/>
	<path class="st2" d="M769,499.6L769,499.6l-2.1,1.1l-0.3-1.2l2.6-1.4h1.4v11.7H769V499.6z"/>
</g>
<g class="st1">
	<path class="st2" d="M817.7,499.6L817.7,499.6l-2.1,1.1l-0.3-1.2l2.6-1.4h1.4v11.7h-1.5V499.6z"/>
	<path class="st2" d="M823.5,509.8v-1l1.2-1.2c3-2.8,4.3-4.4,4.4-6.1c0-1.2-0.6-2.3-2.3-2.3c-1.1,0-1.9,0.5-2.5,1l-0.5-1.1
		c0.8-0.7,2-1.2,3.3-1.2c2.5,0,3.6,1.7,3.6,3.4c0,2.2-1.6,3.9-4,6.3l-0.9,0.9v0h5.3v1.3H823.5z"/>
</g>
<g class="st1">
	<path class="st2" d="M875.7,499.6L875.7,499.6l-2.1,1.1l-0.3-1.2l2.6-1.4h1.4v11.7h-1.5V499.6z"/>
	<path class="st2" d="M881.9,508c0.5,0.3,1.5,0.7,2.6,0.7c2,0,2.7-1.3,2.6-2.3c0-1.6-1.5-2.3-3-2.3h-0.9v-1.2h0.9
		c1.2,0,2.6-0.6,2.6-2c0-0.9-0.6-1.8-2.1-1.8c-0.9,0-1.8,0.4-2.3,0.8l-0.4-1.2c0.6-0.5,1.8-0.9,3.1-0.9c2.3,0,3.3,1.4,3.3,2.8
		c0,1.2-0.7,2.2-2.2,2.8v0c1.4,0.3,2.6,1.4,2.6,3c0,1.9-1.5,3.5-4.3,3.5c-1.3,0-2.5-0.4-3-0.8L881.9,508z"/>
</g>
<g class="st1">
	<path class="st2" d="M934.7,499.6L934.7,499.6l-2.1,1.1l-0.3-1.2l2.6-1.4h1.4v11.7h-1.5V499.6z"/>
	<path class="st2" d="M945.4,509.8v-3.2H940v-1l5.2-7.5h1.7v7.3h1.6v1.2h-1.6v3.2H945.4z M945.4,505.4v-3.9c0-0.6,0-1.2,0.1-1.8
		h-0.1c-0.4,0.7-0.6,1.2-1,1.7l-2.9,4v0H945.4z"/>
</g>
<g class="st1">
	<path class="st2" d="M993.7,499.6L993.7,499.6l-2.1,1.1l-0.3-1.2l2.6-1.4h1.4v11.7h-1.5V499.6z"/>
	<path class="st2" d="M1006.5,499.4h-4.5l-0.5,3c0.3,0,0.5-0.1,1-0.1c0.9,0,1.8,0.2,2.5,0.6c0.9,0.5,1.7,1.5,1.7,3
		c0,2.3-1.8,4-4.4,4c-1.3,0-2.4-0.4-2.9-0.7l0.4-1.2c0.5,0.3,1.4,0.6,2.5,0.6c1.5,0,2.8-1,2.8-2.5c0-1.5-1-2.6-3.4-2.6
		c-0.7,0-1.2,0.1-1.6,0.1l0.8-5.6h5.6V499.4z"/>
</g>
<g class="st1">
	<path class="st2" d="M1052.7,499.6L1052.7,499.6l-2.1,1.1l-0.3-1.2l2.6-1.4h1.4v11.7h-1.5V499.6z"/>
	<path class="st2" d="M1065.2,499.2c-0.3,0-0.7,0-1.2,0.1c-2.5,0.4-3.8,2.2-4.1,4.2h0.1c0.6-0.7,1.5-1.4,2.8-1.4
		c2.1,0,3.5,1.5,3.5,3.8c0,2.1-1.5,4.1-3.9,4.1c-2.5,0-4.1-1.9-4.1-5c0-2.3,0.8-4.1,2-5.3c1-1,2.3-1.5,3.7-1.7
		c0.5-0.1,0.9-0.1,1.2-0.1V499.2z M1064.8,505.9c0-1.7-1-2.7-2.4-2.7c-1,0-1.8,0.6-2.3,1.4c-0.1,0.2-0.2,0.4-0.2,0.7
		c0,1.9,0.9,3.3,2.6,3.3C1063.8,508.8,1064.8,507.6,1064.8,505.9z"/>
</g>
<g class="st1">
	<path class="st2" d="M1110.7,499.6L1110.7,499.6l-2.1,1.1l-0.3-1.2l2.6-1.4h1.4v11.7h-1.5V499.6z"/>
	<path class="st2" d="M1124.1,498.1v1l-5.1,10.7h-1.6l5.1-10.4v0h-5.7v-1.3H1124.1z"/>
</g>
<circle class="st3" cx="294.6" cy="388.5" r="9.3"/>
<circle class="st3" cx="412.6" cy="388.5" r="9.3"/>
<circle class="st3" cx="529.6" cy="388.5" r="9.3"/>
<circle class="st3" cx="647.6" cy="388.5" r="9.3"/>
<circle class="st3" cx="822.6" cy="388.5" r="9.3"/>
<circle class="st3" cx="998.6" cy="388.5" r="9.3"/>
<circle class="st3" cx="1116.6" cy="388.5" r="9.3"/>
<line class="st4" x1="148" y1="288.1" x2="148" y2="488"/>
</svg>
