<?xml version="1.0" encoding="utf-8"?>
<!-- Generator: Adobe Illustrator 23.1.0, SVG Export Plug-In . SVG Version: 6.00 Build 0)  -->
<svg version="1.1" id="Layer_1" xmlns="http://www.w3.org/2000/svg" xmlns:xlink="http://www.w3.org/1999/xlink" x="0px" y="0px"
	 viewBox="0 0 959 593" style="enable-background:new 0 0 959 593;" xml:space="preserve">
<style type="text/css">
	.st0{opacity:0.5;}
	.st1{clip-path:url(#SVGID_2_);fill:none;}
	.st2{clip-path:url(#SVGID_2_);fill:none;stroke:#231F20;stroke-width:4.564;}
	.st3{clip-path:url(#SVGID_2_);fill:none;stroke:#231F20;stroke-width:2.017;}
	.st4{clip-path:url(#SVGID_2_);fill:#FFFFFF;}
	.st5{clip-path:url(#SVGID_2_);fill:#231F20;}
	.st6{clip-path:url(#SVGID_2_);fill:none;stroke:#231F20;stroke-width:0.23;}
	.st7{clip-path:url(#SVGID_2_);}
	.st8{fill:#231F20;}
	.st9{clip-path:url(#SVGID_2_);fill:none;stroke:#231F20;stroke-width:0.922;}
	.st10{clip-path:url(#SVGID_2_);fill:none;stroke:#231F20;stroke-width:0.231;}
	
		.st11{clip-path:url(#SVGID_2_);fill:none;stroke:#231F20;stroke-width:0.461;stroke-linecap:round;stroke-linejoin:round;stroke-dasharray:0,1.382;}
	.st12{clip-path:url(#SVGID_2_);fill:none;stroke:#231F20;stroke-width:0.461;stroke-linecap:round;stroke-linejoin:round;}
	
		.st13{clip-path:url(#SVGID_2_);fill:none;stroke:#231F20;stroke-width:0.461;stroke-linecap:round;stroke-linejoin:round;stroke-dasharray:0,1.393;}
	
		.st14{clip-path:url(#SVGID_2_);fill:none;stroke:#231F20;stroke-width:0.461;stroke-linecap:round;stroke-linejoin:round;stroke-dasharray:0,1.381;}
	
		.st15{clip-path:url(#SVGID_2_);fill:none;stroke:#231F20;stroke-width:0.461;stroke-linecap:round;stroke-linejoin:round;stroke-dasharray:0,1.401;}
	
		.st16{clip-path:url(#SVGID_2_);fill:none;stroke:#231F20;stroke-width:0.461;stroke-linecap:round;stroke-linejoin:round;stroke-dasharray:0,1.384;}
	.st17{opacity:0.5;fill:#231F20;}
	.st18{clip-path:url(#SVGID_4_);}
	.st19{clip-path:url(#SVGID_4_);fill:none;stroke:#231F20;stroke-width:2.017;}
	.st20{clip-path:url(#SVGID_4_);fill:#FFFFFF;}
	.st21{clip-path:url(#SVGID_6_);fill:#231F20;}
</style>
<title>Blank map of the United States, territories not included</title>
<g class="st0">
	<defs>
		<rect id="SVGID_1_" x="59.7" y="3.8" class="st0" width="826.6" height="584.5"/>
	</defs>
	<clipPath id="SVGID_2_">
		<use xlink:href="#SVGID_1_"  style="overflow:visible;"/>
	</clipPath>
	<rect x="86.3" y="139.1" class="st1" width="363.4" height="363.4"/>
	<rect x="86.3" y="139.1" class="st2" width="363.4" height="363.4"/>
	<path class="st1" d="M678,502.6c243.5-11.5,238.8-354.1,0-363.4C434.5,150.7,439.2,493.3,678,502.6"/>
	<path class="st2" d="M678,502.6c243.5-11.5,238.8-354.1,0-363.4C434.5,150.7,439.2,493.3,678,502.6z"/>
	<line class="st3" x1="85.4" y1="138.3" x2="268" y2="320.1"/>
	<line class="st3" x1="85.4" y1="503.4" x2="268" y2="320.1"/>
	<path class="st4" d="M821.7,473.5"/>
	<path class="st3" d="M821.7,473.5"/>
	<line class="st3" x1="649.8" y1="320.1" x2="477.2" y2="320.1"/>
	<line class="st3" x1="468.8" y1="320.1" x2="268" y2="320.1"/>
	<polygon class="st5" points="465.5,316.5 465.5,323.8 471,320.1 	"/>
	<polygon class="st5" points="480.5,316.5 480.5,323.8 475,320.1 	"/>
	<path class="st6" d="M268.1,295.5"/>
	<g class="st7">
		<path class="st8" d="M296.2,217.8c-0.4,0.2-1.3,0.4-2.3,0.4c-1.1,0-2.1-0.3-2.8-1c-0.6-0.6-1-1.6-1-2.8c0-2.2,1.5-3.9,4.1-3.9
			c0.9,0,1.5,0.2,1.9,0.3l-0.2,0.8c-0.4-0.2-0.9-0.3-1.7-0.3c-1.8,0-3,1.1-3,3c0,1.9,1.1,3,2.9,3c0.6,0,1.1-0.1,1.3-0.2V215h-1.5
			v-0.8h2.5V217.8z"/>
		<path class="st8" d="M300.7,218.2l-0.1-0.7h0c-0.3,0.4-0.9,0.8-1.6,0.8c-1.1,0-1.6-0.8-1.6-1.5c0-1.3,1.2-2,3.2-2v-0.1
			c0-0.4-0.1-1.2-1.2-1.2c-0.5,0-1,0.2-1.4,0.4l-0.2-0.6c0.4-0.3,1.1-0.5,1.8-0.5c1.6,0,2,1.1,2,2.2v2c0,0.5,0,0.9,0.1,1.3H300.7z
			 M300.5,215.4c-1.1,0-2.3,0.2-2.3,1.2c0,0.6,0.4,0.9,0.9,0.9c0.7,0,1.1-0.4,1.3-0.9c0-0.1,0.1-0.2,0.1-0.3V215.4z"/>
		<path class="st8" d="M304.1,211.3c0,0.3-0.2,0.6-0.6,0.6c-0.3,0-0.6-0.3-0.6-0.6c0-0.3,0.3-0.6,0.6-0.6
			C303.9,210.7,304.1,210.9,304.1,211.3z M303,218.2v-5.4h1v5.4H303z"/>
		<path class="st8" d="M305.6,214.2c0-0.6,0-1,0-1.5h0.9l0.1,0.9h0c0.3-0.5,0.9-1,1.8-1c0.7,0,1.9,0.4,1.9,2.3v3.2h-1v-3.1
			c0-0.9-0.3-1.6-1.2-1.6c-0.6,0-1.1,0.5-1.3,1c0,0.1-0.1,0.3-0.1,0.5v3.2h-1V214.2z"/>
		<path class="st8" d="M319.4,217.9c-0.4,0.2-1.1,0.4-2,0.4c-2.1,0-3.7-1.3-3.7-3.8c0-2.3,1.6-3.9,3.9-3.9c0.9,0,1.5,0.2,1.8,0.3
			l-0.2,0.8c-0.4-0.2-0.9-0.3-1.5-0.3c-1.8,0-2.9,1.1-2.9,3.1c0,1.8,1.1,3,2.9,3c0.6,0,1.2-0.1,1.6-0.3L319.4,217.9z"/>
		<path class="st8" d="M320.6,214.5c0-0.6,0-1.2,0-1.7h0.9l0,1.1h0c0.2-0.7,0.8-1.2,1.5-1.2c0.1,0,0.2,0,0.3,0v0.9
			c-0.1,0-0.2,0-0.3,0c-0.7,0-1.2,0.5-1.3,1.3c0,0.1,0,0.3,0,0.5v2.9h-1V214.5z"/>
		<path class="st8" d="M324.7,215.7c0,1.3,0.9,1.9,1.8,1.9c0.7,0,1.1-0.1,1.5-0.3l0.2,0.7c-0.3,0.2-0.9,0.3-1.8,0.3
			c-1.7,0-2.6-1.1-2.6-2.7c0-1.6,1-2.9,2.5-2.9c1.8,0,2.2,1.5,2.2,2.5c0,0.2,0,0.4,0,0.5H324.7z M327.6,215c0-0.6-0.3-1.6-1.4-1.6
			c-1,0-1.4,0.9-1.5,1.6H327.6z"/>
		<path class="st8" d="M332.7,218.2l-0.1-0.7h0c-0.3,0.4-0.9,0.8-1.6,0.8c-1.1,0-1.6-0.8-1.6-1.5c0-1.3,1.2-2,3.2-2v-0.1
			c0-0.4-0.1-1.2-1.2-1.2c-0.5,0-1,0.2-1.4,0.4l-0.2-0.6c0.4-0.3,1.1-0.5,1.8-0.5c1.6,0,2,1.1,2,2.2v2c0,0.5,0,0.9,0.1,1.3H332.7z
			 M332.5,215.4c-1.1,0-2.3,0.2-2.3,1.2c0,0.6,0.4,0.9,0.9,0.9c0.7,0,1.1-0.4,1.3-0.9c0-0.1,0.1-0.2,0.1-0.3V215.4z"/>
		<path class="st8" d="M336.2,211.3v1.5h1.4v0.7h-1.4v2.9c0,0.7,0.2,1,0.7,1c0.3,0,0.4,0,0.6-0.1l0,0.7c-0.2,0.1-0.5,0.1-0.9,0.1
			c-0.5,0-0.8-0.1-1.1-0.4c-0.3-0.3-0.4-0.8-0.4-1.4v-2.9h-0.8v-0.7h0.8v-1.3L336.2,211.3z"/>
		<path class="st8" d="M343.6,215.4c0,2-1.4,2.9-2.7,2.9c-1.5,0-2.6-1.1-2.6-2.8c0-1.8,1.2-2.9,2.7-2.9
			C342.6,212.7,343.6,213.8,343.6,215.4z M339.3,215.5c0,1.2,0.7,2.1,1.6,2.1c0.9,0,1.6-0.9,1.6-2.1c0-0.9-0.5-2.1-1.6-2.1
			S339.3,214.5,339.3,215.5z"/>
		<path class="st8" d="M344.8,214.5c0-0.6,0-1.2,0-1.7h0.9l0,1.1h0c0.2-0.7,0.8-1.2,1.5-1.2c0.1,0,0.2,0,0.3,0v0.9
			c-0.1,0-0.2,0-0.3,0c-0.7,0-1.2,0.5-1.3,1.3c0,0.1,0,0.3,0,0.5v2.9h-1V214.5z"/>
		<path class="st8" d="M348.3,217.2c0.3,0.2,0.8,0.4,1.3,0.4c0.7,0,1-0.4,1-0.8c0-0.5-0.3-0.7-1-1c-1-0.3-1.4-0.9-1.4-1.5
			c0-0.9,0.7-1.6,1.9-1.6c0.5,0,1,0.2,1.3,0.3l-0.2,0.7c-0.2-0.1-0.6-0.3-1.1-0.3c-0.6,0-0.9,0.3-0.9,0.7c0,0.4,0.3,0.6,1,0.9
			c0.9,0.4,1.4,0.8,1.4,1.6c0,0.9-0.7,1.6-2,1.6c-0.6,0-1.1-0.1-1.5-0.4L348.3,217.2z"/>
	</g>
	<g class="st7">
		<path class="st8" d="M289.7,395.4c0.5-0.1,1.1-0.1,1.9-0.1c1,0,1.7,0.2,2.1,0.6c0.4,0.4,0.7,0.9,0.7,1.6c0,0.7-0.2,1.2-0.6,1.6
			c-0.5,0.5-1.3,0.8-2.3,0.8c-0.3,0-0.6,0-0.8-0.1v3h-1V395.4z M290.7,399c0.2,0.1,0.5,0.1,0.8,0.1c1.2,0,1.9-0.6,1.9-1.6
			c0-1-0.7-1.5-1.8-1.5c-0.4,0-0.7,0-0.9,0.1V399z"/>
		<path class="st8" d="M298.6,402.7l-0.1-0.7h0c-0.3,0.4-0.9,0.8-1.6,0.8c-1.1,0-1.6-0.8-1.6-1.5c0-1.3,1.2-2,3.2-2v-0.1
			c0-0.4-0.1-1.2-1.2-1.2c-0.5,0-1,0.2-1.4,0.4l-0.2-0.6c0.4-0.3,1.1-0.5,1.8-0.5c1.6,0,2,1.1,2,2.2v2c0,0.5,0,0.9,0.1,1.3H298.6z
			 M298.4,400c-1.1,0-2.3,0.2-2.3,1.2c0,0.6,0.4,0.9,0.9,0.9c0.7,0,1.1-0.4,1.3-0.9c0-0.1,0.1-0.2,0.1-0.3V400z"/>
		<path class="st8" d="M302.1,395.9c0,0.3-0.2,0.6-0.6,0.6c-0.3,0-0.6-0.3-0.6-0.6c0-0.3,0.3-0.6,0.6-0.6
			C301.8,395.3,302.1,395.5,302.1,395.9z M301,402.7v-5.4h1v5.4H301z"/>
		<path class="st8" d="M303.6,398.8c0-0.6,0-1,0-1.5h0.9l0.1,0.9h0c0.3-0.5,0.9-1,1.8-1c0.7,0,1.9,0.4,1.9,2.3v3.2h-1v-3.1
			c0-0.9-0.3-1.6-1.2-1.6c-0.6,0-1.1,0.5-1.3,1c0,0.1-0.1,0.3-0.1,0.5v3.2h-1V398.8z"/>
		<path class="st8" d="M312.1,395.4c0.5-0.1,1.2-0.2,1.9-0.2c1,0,1.7,0.2,2.2,0.6c0.4,0.3,0.6,0.8,0.6,1.4c0,1-0.6,1.6-1.4,1.9v0
			c0.6,0.2,0.9,0.7,1.1,1.5c0.2,1,0.4,1.8,0.6,2.1h-1c-0.1-0.2-0.3-0.9-0.5-1.8c-0.2-1-0.6-1.4-1.5-1.5h-0.9v3.2h-1V395.4z
			 M313.1,398.8h1c1,0,1.7-0.6,1.7-1.4c0-1-0.7-1.4-1.7-1.4c-0.5,0-0.8,0-1,0.1V398.8z"/>
		<path class="st8" d="M318.5,400.2c0,1.3,0.9,1.9,1.8,1.9c0.7,0,1.1-0.1,1.5-0.3l0.2,0.7c-0.3,0.2-0.9,0.3-1.8,0.3
			c-1.7,0-2.6-1.1-2.6-2.7s1-2.9,2.5-2.9c1.8,0,2.2,1.5,2.2,2.5c0,0.2,0,0.4,0,0.5H318.5z M321.4,399.5c0-0.6-0.3-1.6-1.4-1.6
			c-1,0-1.4,0.9-1.5,1.6H321.4z"/>
		<path class="st8" d="M323.5,394.9h1v7.9h-1V394.9z"/>
		<path class="st8" d="M327.2,395.9c0,0.3-0.2,0.6-0.6,0.6c-0.3,0-0.6-0.3-0.6-0.6c0-0.3,0.3-0.6,0.6-0.6
			C327,395.3,327.2,395.5,327.2,395.9z M326.2,402.7v-5.4h1v5.4H326.2z"/>
		<path class="st8" d="M329.3,400.2c0,1.3,0.9,1.9,1.8,1.9c0.7,0,1.1-0.1,1.5-0.3l0.2,0.7c-0.3,0.2-0.9,0.3-1.8,0.3
			c-1.7,0-2.6-1.1-2.6-2.7s1-2.9,2.5-2.9c1.8,0,2.2,1.5,2.2,2.5c0,0.2,0,0.4,0,0.5H329.3z M332.2,399.5c0-0.6-0.3-1.6-1.4-1.6
			c-1,0-1.4,0.9-1.5,1.6H332.2z"/>
		<path class="st8" d="M334.7,397.4l1.1,3c0.2,0.5,0.3,0.9,0.4,1.4h0c0.1-0.4,0.3-0.9,0.5-1.4l1-3h1l-2.1,5.4h-0.9l-2-5.4H334.7z"/>
		<path class="st8" d="M340.2,400.2c0,1.3,0.9,1.9,1.8,1.9c0.7,0,1.1-0.1,1.5-0.3l0.2,0.7c-0.3,0.2-0.9,0.3-1.8,0.3
			c-1.7,0-2.6-1.1-2.6-2.7s1-2.9,2.5-2.9c1.8,0,2.2,1.5,2.2,2.5c0,0.2,0,0.4,0,0.5H340.2z M343,399.5c0-0.6-0.3-1.6-1.4-1.6
			c-1,0-1.4,0.9-1.5,1.6H343z"/>
		<path class="st8" d="M345.2,399c0-0.6,0-1.2,0-1.7h0.9l0,1.1h0c0.2-0.7,0.8-1.2,1.5-1.2c0.1,0,0.2,0,0.3,0v0.9c-0.1,0-0.2,0-0.3,0
			c-0.7,0-1.2,0.5-1.3,1.3c0,0.1,0,0.3,0,0.5v2.9h-1V399z"/>
		<path class="st8" d="M348.7,401.7c0.3,0.2,0.8,0.4,1.3,0.4c0.7,0,1-0.4,1-0.8c0-0.5-0.3-0.7-1-1c-1-0.3-1.4-0.9-1.4-1.5
			c0-0.9,0.7-1.6,1.9-1.6c0.5,0,1,0.2,1.3,0.3l-0.2,0.7c-0.2-0.1-0.6-0.3-1.1-0.3c-0.6,0-0.9,0.3-0.9,0.7c0,0.4,0.3,0.6,1,0.9
			c0.9,0.4,1.4,0.8,1.4,1.6c0,0.9-0.7,1.6-2,1.6c-0.6,0-1.1-0.1-1.5-0.4L348.7,401.7z"/>
	</g>
	<g class="st7">
		<path class="st8" d="M607.2,395.4c0.5-0.1,1.1-0.1,1.9-0.1c1,0,1.7,0.2,2.1,0.6c0.4,0.4,0.7,0.9,0.7,1.6c0,0.7-0.2,1.2-0.6,1.6
			c-0.5,0.5-1.3,0.8-2.3,0.8c-0.3,0-0.6,0-0.8-0.1v3h-1V395.4z M608.2,399c0.2,0.1,0.5,0.1,0.8,0.1c1.2,0,1.9-0.6,1.9-1.6
			c0-1-0.7-1.5-1.8-1.5c-0.4,0-0.7,0-0.9,0.1V399z"/>
		<path class="st8" d="M616,402.7l-0.1-0.7h0c-0.3,0.4-0.9,0.8-1.6,0.8c-1.1,0-1.6-0.8-1.6-1.5c0-1.3,1.2-2,3.2-2v-0.1
			c0-0.4-0.1-1.2-1.2-1.2c-0.5,0-1,0.2-1.4,0.4l-0.2-0.6c0.4-0.3,1.1-0.5,1.8-0.5c1.6,0,2,1.1,2,2.2v2c0,0.5,0,0.9,0.1,1.3H616z
			 M615.9,400c-1.1,0-2.3,0.2-2.3,1.2c0,0.6,0.4,0.9,0.9,0.9c0.7,0,1.1-0.4,1.3-0.9c0-0.1,0.1-0.2,0.1-0.3V400z"/>
		<path class="st8" d="M619.5,395.9c0,0.3-0.2,0.6-0.6,0.6c-0.3,0-0.6-0.3-0.6-0.6c0-0.3,0.3-0.6,0.6-0.6
			C619.3,395.3,619.5,395.5,619.5,395.9z M618.4,402.7v-5.4h1v5.4H618.4z"/>
		<path class="st8" d="M621,398.8c0-0.6,0-1,0-1.5h0.9l0.1,0.9h0c0.3-0.5,0.9-1,1.8-1c0.7,0,1.9,0.4,1.9,2.3v3.2h-1v-3.1
			c0-0.9-0.3-1.6-1.2-1.6c-0.6,0-1.1,0.5-1.3,1c0,0.1-0.1,0.3-0.1,0.5v3.2h-1V398.8z"/>
		<path class="st8" d="M627.1,401.7c0.3,0.2,0.8,0.4,1.3,0.4c0.7,0,1-0.4,1-0.8c0-0.5-0.3-0.7-1-1c-1-0.3-1.4-0.9-1.4-1.5
			c0-0.9,0.7-1.6,1.9-1.6c0.5,0,1,0.2,1.3,0.3l-0.2,0.7c-0.2-0.1-0.6-0.3-1.1-0.3c-0.6,0-0.9,0.3-0.9,0.7c0,0.4,0.3,0.6,1,0.9
			c0.9,0.4,1.4,0.8,1.4,1.6c0,0.9-0.7,1.6-2,1.6c-0.6,0-1.1-0.1-1.5-0.4L627.1,401.7z"/>
	</g>
	<g class="st7">
		<path class="st8" d="M612.4,217.8c-0.4,0.2-1.3,0.4-2.3,0.4c-1.1,0-2.1-0.3-2.8-1c-0.6-0.6-1-1.6-1-2.8c0-2.2,1.5-3.9,4.1-3.9
			c0.9,0,1.5,0.2,1.9,0.3l-0.2,0.8c-0.4-0.2-0.9-0.3-1.7-0.3c-1.8,0-3,1.1-3,3c0,1.9,1.1,3,2.9,3c0.6,0,1.1-0.1,1.3-0.2V215h-1.5
			v-0.8h2.5V217.8z"/>
		<path class="st8" d="M616.8,218.2l-0.1-0.7h0c-0.3,0.4-0.9,0.8-1.6,0.8c-1.1,0-1.6-0.8-1.6-1.5c0-1.3,1.2-2,3.2-2v-0.1
			c0-0.4-0.1-1.2-1.2-1.2c-0.5,0-1,0.2-1.4,0.4l-0.2-0.6c0.4-0.3,1.1-0.5,1.8-0.5c1.6,0,2,1.1,2,2.2v2c0,0.5,0,0.9,0.1,1.3H616.8z
			 M616.7,215.4c-1.1,0-2.3,0.2-2.3,1.2c0,0.6,0.4,0.9,0.9,0.9c0.7,0,1.1-0.4,1.3-0.9c0-0.1,0.1-0.2,0.1-0.3V215.4z"/>
		<path class="st8" d="M620.3,211.3c0,0.3-0.2,0.6-0.6,0.6c-0.3,0-0.6-0.3-0.6-0.6c0-0.3,0.3-0.6,0.6-0.6
			C620.1,210.7,620.3,210.9,620.3,211.3z M619.2,218.2v-5.4h1v5.4H619.2z"/>
		<path class="st8" d="M621.8,214.2c0-0.6,0-1,0-1.5h0.9l0.1,0.9h0c0.3-0.5,0.9-1,1.8-1c0.7,0,1.9,0.4,1.9,2.3v3.2h-1v-3.1
			c0-0.9-0.3-1.6-1.2-1.6c-0.6,0-1.1,0.5-1.3,1c0,0.1-0.1,0.3-0.1,0.5v3.2h-1V214.2z"/>
		<path class="st8" d="M627.8,217.2c0.3,0.2,0.8,0.4,1.3,0.4c0.7,0,1-0.4,1-0.8c0-0.5-0.3-0.7-1-1c-1-0.3-1.4-0.9-1.4-1.5
			c0-0.9,0.7-1.6,1.9-1.6c0.5,0,1,0.2,1.3,0.3l-0.2,0.7c-0.2-0.1-0.6-0.3-1.1-0.3c-0.6,0-0.9,0.3-0.9,0.7c0,0.4,0.3,0.6,1,0.9
			c0.9,0.4,1.4,0.8,1.4,1.6c0,0.9-0.7,1.6-2,1.6c-0.6,0-1.1-0.1-1.5-0.4L627.8,217.2z"/>
	</g>
	<g class="st7">
		<path class="st8" d="M131,295.9c0.5-0.1,1.1-0.1,1.9-0.1c1,0,1.7,0.2,2.1,0.6c0.4,0.4,0.7,0.9,0.7,1.6c0,0.7-0.2,1.2-0.6,1.6
			c-0.5,0.5-1.3,0.8-2.3,0.8c-0.3,0-0.6,0-0.8-0.1v3h-1V295.9z M132,299.5c0.2,0.1,0.5,0.1,0.8,0.1c1.2,0,1.9-0.6,1.9-1.6
			c0-1-0.7-1.5-1.8-1.5c-0.4,0-0.7,0-0.9,0.1V299.5z"/>
		<path class="st8" d="M136.9,299.6c0-0.6,0-1.2,0-1.7h0.9l0,1.1h0c0.2-0.7,0.8-1.2,1.5-1.2c0.1,0,0.2,0,0.3,0v0.9
			c-0.1,0-0.2,0-0.3,0c-0.7,0-1.2,0.5-1.3,1.3c0,0.1,0,0.3,0,0.5v2.9h-1V299.6z"/>
		<path class="st8" d="M145.3,300.5c0,2-1.4,2.9-2.7,2.9c-1.5,0-2.6-1.1-2.6-2.8c0-1.8,1.2-2.9,2.7-2.9
			C144.2,297.8,145.3,298.9,145.3,300.5z M141,300.6c0,1.2,0.7,2.1,1.6,2.1c0.9,0,1.6-0.9,1.6-2.1c0-0.9-0.5-2.1-1.6-2.1
			S141,299.6,141,300.6z"/>
		<path class="st8" d="M151.2,295.4v6.5c0,0.5,0,1,0,1.4h-0.9l0-0.9h0c-0.3,0.6-1,1.1-1.8,1.1c-1.3,0-2.3-1.1-2.3-2.7
			c0-1.8,1.1-2.9,2.4-2.9c0.8,0,1.4,0.4,1.6,0.8h0v-3.2H151.2z M150.2,300.1c0-0.1,0-0.3,0-0.4c-0.1-0.6-0.7-1.1-1.4-1.1
			c-1,0-1.6,0.9-1.6,2.1c0,1.1,0.5,2,1.6,2c0.7,0,1.3-0.4,1.4-1.2c0-0.1,0-0.3,0-0.4V300.1z"/>
		<path class="st8" d="M157.3,301.8c0,0.6,0,1,0,1.5h-0.9l-0.1-0.9h0c-0.3,0.4-0.8,1-1.8,1c-0.8,0-1.9-0.5-1.9-2.4v-3.1h1v3
			c0,1,0.3,1.7,1.2,1.7c0.7,0,1.1-0.5,1.3-0.9c0.1-0.1,0.1-0.3,0.1-0.5v-3.3h1V301.8z"/>
		<path class="st8" d="M162.7,303.1c-0.3,0.1-0.8,0.3-1.5,0.3c-1.6,0-2.7-1.1-2.7-2.7c0-1.7,1.1-2.9,2.9-2.9c0.6,0,1.1,0.1,1.4,0.3
			l-0.2,0.8c-0.2-0.1-0.6-0.3-1.1-0.3c-1.2,0-1.9,0.9-1.9,2c0,1.2,0.8,2,1.9,2c0.6,0,0.9-0.1,1.2-0.3L162.7,303.1z"/>
		<path class="st8" d="M165.1,296.3v1.5h1.4v0.7h-1.4v2.9c0,0.7,0.2,1,0.7,1c0.3,0,0.4,0,0.6-0.1l0,0.7c-0.2,0.1-0.5,0.1-0.9,0.1
			c-0.5,0-0.8-0.1-1.1-0.4c-0.3-0.3-0.4-0.8-0.4-1.4v-2.9h-0.8v-0.7h0.8v-1.3L165.1,296.3z"/>
		<path class="st8" d="M167.4,302.3c0.3,0.2,0.8,0.4,1.3,0.4c0.7,0,1-0.4,1-0.8c0-0.5-0.3-0.7-1-1c-1-0.3-1.4-0.9-1.4-1.5
			c0-0.9,0.7-1.6,1.9-1.6c0.5,0,1,0.2,1.3,0.3l-0.2,0.7c-0.2-0.1-0.6-0.3-1.1-0.3c-0.6,0-0.9,0.3-0.9,0.7c0,0.4,0.3,0.6,1,0.9
			c0.9,0.4,1.4,0.8,1.4,1.6c0,0.9-0.7,1.6-2,1.6c-0.6,0-1.1-0.1-1.5-0.4L167.4,302.3z"/>
	</g>
	<g class="st7">
		<path class="st8" d="M132.1,315.8c-0.2-0.2-0.4-0.4-0.7-0.7c-0.6,0.6-1.4,0.9-2.2,0.9c-1.5,0-2.3-1-2.3-2.1c0-1,0.6-1.7,1.5-2.2v0
			c-0.4-0.5-0.6-1-0.6-1.6c0-0.9,0.7-1.8,1.9-1.8c0.9,0,1.7,0.6,1.7,1.6c0,0.8-0.5,1.4-1.6,2v0c0.6,0.7,1.3,1.6,1.8,2.1
			c0.3-0.5,0.6-1.2,0.7-2.2h0.9c-0.2,1.2-0.5,2.1-1.1,2.8c0.4,0.4,0.8,0.8,1.2,1.3H132.1z M130.9,314.5c-0.4-0.5-1.3-1.4-2.1-2.4
			c-0.4,0.3-1,0.7-1,1.5c0,0.9,0.6,1.5,1.5,1.5C130,315.1,130.6,314.9,130.9,314.5z M128.7,309.9c0,0.5,0.2,0.9,0.6,1.3
			c0.8-0.4,1.2-0.8,1.2-1.5c0-0.5-0.3-1-0.9-1C129,308.8,128.7,309.3,128.7,309.9z"/>
		<path class="st8" d="M136.4,314.6c0.4,0.3,1.1,0.5,1.7,0.5c1,0,1.6-0.5,1.6-1.3c0-0.7-0.4-1.1-1.4-1.5c-1.2-0.4-2-1.1-2-2.1
			c0-1.2,1-2,2.4-2c0.8,0,1.3,0.2,1.7,0.4l-0.3,0.8c-0.2-0.1-0.7-0.4-1.4-0.4c-1,0-1.4,0.6-1.4,1.1c0,0.7,0.5,1,1.5,1.4
			c1.3,0.5,1.9,1.1,1.9,2.2c0,1.2-0.9,2.2-2.6,2.2c-0.7,0-1.5-0.2-1.9-0.5L136.4,314.6z"/>
		<path class="st8" d="M142.5,313.2c0,1.3,0.9,1.9,1.8,1.9c0.7,0,1.1-0.1,1.5-0.3l0.2,0.7c-0.3,0.2-0.9,0.3-1.8,0.3
			c-1.7,0-2.6-1.1-2.6-2.7s1-2.9,2.5-2.9c1.8,0,2.2,1.5,2.2,2.5c0,0.2,0,0.4,0,0.5H142.5z M145.4,312.5c0-0.6-0.3-1.6-1.4-1.6
			c-1,0-1.4,0.9-1.5,1.6H145.4z"/>
		<path class="st8" d="M147.5,312.1c0-0.6,0-1.2,0-1.7h0.9l0,1.1h0c0.2-0.7,0.8-1.2,1.5-1.2c0.1,0,0.2,0,0.3,0v0.9
			c-0.1,0-0.2,0-0.3,0c-0.7,0-1.2,0.5-1.3,1.3c0,0.1,0,0.3,0,0.5v2.9h-1V312.1z"/>
		<path class="st8" d="M151.5,310.4l1.1,3c0.2,0.5,0.3,0.9,0.4,1.4h0c0.1-0.4,0.3-0.9,0.5-1.4l1-3h1l-2.1,5.4h-0.9l-2-5.4H151.5z"/>
		<path class="st8" d="M157.6,308.9c0,0.3-0.2,0.6-0.6,0.6c-0.3,0-0.6-0.3-0.6-0.6c0-0.3,0.3-0.6,0.6-0.6
			C157.3,308.3,157.6,308.5,157.6,308.9z M156.5,315.8v-5.4h1v5.4H156.5z"/>
		<path class="st8" d="M162.9,315.6c-0.3,0.1-0.8,0.3-1.5,0.3c-1.6,0-2.7-1.1-2.7-2.7c0-1.7,1.1-2.9,2.9-2.9c0.6,0,1.1,0.1,1.4,0.3
			l-0.2,0.8c-0.2-0.1-0.6-0.3-1.1-0.3c-1.2,0-1.9,0.9-1.9,2c0,1.2,0.8,2,1.9,2c0.6,0,0.9-0.1,1.2-0.3L162.9,315.6z"/>
		<path class="st8" d="M164.5,313.2c0,1.3,0.9,1.9,1.8,1.9c0.7,0,1.1-0.1,1.5-0.3l0.2,0.7c-0.3,0.2-0.9,0.3-1.8,0.3
			c-1.7,0-2.6-1.1-2.6-2.7s1-2.9,2.5-2.9c1.8,0,2.2,1.5,2.2,2.5c0,0.2,0,0.4,0,0.5H164.5z M167.4,312.5c0-0.6-0.3-1.6-1.4-1.6
			c-1,0-1.4,0.9-1.5,1.6H167.4z"/>
		<path class="st8" d="M169.4,314.8c0.3,0.2,0.8,0.4,1.3,0.4c0.7,0,1-0.4,1-0.8c0-0.5-0.3-0.7-1-1c-1-0.3-1.4-0.9-1.4-1.5
			c0-0.9,0.7-1.6,1.9-1.6c0.5,0,1,0.2,1.3,0.3l-0.2,0.7c-0.2-0.1-0.6-0.3-1.1-0.3c-0.6,0-0.9,0.3-0.9,0.7c0,0.4,0.3,0.6,1,0.9
			c0.9,0.4,1.4,0.8,1.4,1.6c0,0.9-0.7,1.6-2,1.6c-0.6,0-1.1-0.1-1.5-0.4L169.4,314.8z"/>
	</g>
	<g class="st7">
		<path class="st8" d="M771.8,303c-0.4,0.2-1.1,0.4-2,0.4c-2.1,0-3.7-1.3-3.7-3.8c0-2.3,1.6-3.9,3.9-3.9c0.9,0,1.5,0.2,1.8,0.3
			l-0.2,0.8c-0.4-0.2-0.9-0.3-1.5-0.3c-1.8,0-2.9,1.1-2.9,3.1c0,1.8,1.1,3,2.9,3c0.6,0,1.2-0.1,1.6-0.3L771.8,303z"/>
		<path class="st8" d="M777.5,301.8c0,0.6,0,1,0,1.5h-0.9l-0.1-0.9h0c-0.3,0.4-0.8,1-1.8,1c-0.8,0-1.9-0.5-1.9-2.4v-3.1h1v3
			c0,1,0.3,1.7,1.2,1.7c0.7,0,1.1-0.5,1.3-0.9c0.1-0.1,0.1-0.3,0.1-0.5v-3.3h1V301.8z"/>
		<path class="st8" d="M779,302.3c0.3,0.2,0.8,0.4,1.3,0.4c0.7,0,1-0.4,1-0.8c0-0.5-0.3-0.7-1-1c-1-0.3-1.4-0.9-1.4-1.5
			c0-0.9,0.7-1.6,1.9-1.6c0.5,0,1,0.2,1.3,0.3l-0.2,0.7c-0.2-0.1-0.6-0.3-1.1-0.3c-0.6,0-0.9,0.3-0.9,0.7c0,0.4,0.3,0.6,1,0.9
			c0.9,0.4,1.4,0.8,1.4,1.6c0,0.9-0.7,1.6-2,1.6c-0.6,0-1.1-0.1-1.5-0.4L779,302.3z"/>
		<path class="st8" d="M784.7,296.3v1.5h1.4v0.7h-1.4v2.9c0,0.7,0.2,1,0.7,1c0.3,0,0.4,0,0.6-0.1l0,0.7c-0.2,0.1-0.5,0.1-0.9,0.1
			c-0.5,0-0.8-0.1-1.1-0.4c-0.3-0.3-0.4-0.8-0.4-1.4v-2.9h-0.8v-0.7h0.8v-1.3L784.7,296.3z"/>
		<path class="st8" d="M792.1,300.5c0,2-1.4,2.9-2.7,2.9c-1.5,0-2.6-1.1-2.6-2.8c0-1.8,1.2-2.9,2.7-2.9
			C791,297.8,792.1,298.9,792.1,300.5z M787.8,300.6c0,1.2,0.7,2.1,1.6,2.1c0.9,0,1.6-0.9,1.6-2.1c0-0.9-0.5-2.1-1.6-2.1
			C788.3,298.5,787.8,299.6,787.8,300.6z"/>
		<path class="st8" d="M793.3,299.3c0-0.6,0-1,0-1.5h0.9l0,0.9h0c0.3-0.5,0.8-1,1.7-1c0.7,0,1.3,0.4,1.5,1.1h0
			c0.2-0.3,0.4-0.5,0.6-0.7c0.3-0.2,0.7-0.4,1.2-0.4c0.7,0,1.8,0.5,1.8,2.3v3.2h-1v-3c0-1-0.4-1.7-1.2-1.7c-0.6,0-1,0.4-1.2,0.9
			c0,0.1-0.1,0.3-0.1,0.5v3.3h-1V300c0-0.9-0.4-1.5-1.1-1.5c-0.6,0-1.1,0.5-1.2,1c-0.1,0.1-0.1,0.3-0.1,0.5v3.2h-1V299.3z"/>
		<path class="st8" d="M803.1,300.7c0,1.3,0.9,1.9,1.8,1.9c0.7,0,1.1-0.1,1.5-0.3l0.2,0.7c-0.3,0.2-0.9,0.3-1.8,0.3
			c-1.7,0-2.6-1.1-2.6-2.7c0-1.6,1-2.9,2.5-2.9c1.8,0,2.2,1.5,2.2,2.5c0,0.2,0,0.4,0,0.5H803.1z M806,300c0-0.6-0.3-1.6-1.4-1.6
			c-1,0-1.4,0.9-1.5,1.6H806z"/>
		<path class="st8" d="M808.1,299.6c0-0.6,0-1.2,0-1.7h0.9l0,1.1h0c0.2-0.7,0.8-1.2,1.5-1.2c0.1,0,0.2,0,0.3,0v0.9
			c-0.1,0-0.2,0-0.3,0c-0.7,0-1.2,0.5-1.3,1.3c0,0.1,0,0.3,0,0.5v2.9h-1V299.6z"/>
	</g>
	<g class="st7">
		<path class="st8" d="M778.3,308.3h1v5c0,2-1,2.6-2.3,2.6c-0.4,0-0.8-0.1-1-0.2l0.1-0.8c0.2,0.1,0.5,0.1,0.8,0.1
			c0.9,0,1.4-0.4,1.4-1.9V308.3z"/>
		<path class="st8" d="M785.7,313c0,2-1.4,2.9-2.7,2.9c-1.5,0-2.6-1.1-2.6-2.8c0-1.8,1.2-2.9,2.7-2.9
			C784.7,310.3,785.7,311.4,785.7,313z M781.5,313.1c0,1.2,0.7,2.1,1.6,2.1c0.9,0,1.6-0.9,1.6-2.1c0-0.9-0.5-2.1-1.6-2.1
			C782,311,781.5,312.1,781.5,313.1z"/>
		<path class="st8" d="M786.9,315.8c0-0.4,0-0.9,0-1.4v-6.5h1v3.4h0c0.3-0.6,1-1,1.8-1c1.3,0,2.3,1.1,2.3,2.7c0,1.9-1.2,2.9-2.4,2.9
			c-0.8,0-1.4-0.3-1.8-1h0l0,0.9H786.9z M787.9,313.6c0,0.1,0,0.2,0,0.4c0.2,0.7,0.8,1.1,1.5,1.1c1,0,1.6-0.8,1.6-2.1
			c0-1.1-0.6-2-1.6-2c-0.7,0-1.3,0.5-1.5,1.2c0,0.1-0.1,0.2-0.1,0.4V313.6z"/>
		<path class="st8" d="M795.8,308c-0.8,1.1-1.4,2.5-1.4,4.5c0,2,0.6,3.4,1.4,4.5h-0.8c-0.7-0.9-1.5-2.3-1.5-4.5
			c0-2.2,0.8-3.6,1.5-4.5H795.8z"/>
		<path class="st8" d="M796.6,314.8c0.3,0.2,0.8,0.4,1.3,0.4c0.7,0,1-0.4,1-0.8c0-0.5-0.3-0.7-1-1c-1-0.3-1.4-0.9-1.4-1.5
			c0-0.9,0.7-1.6,1.9-1.6c0.5,0,1,0.2,1.3,0.3l-0.2,0.7c-0.2-0.1-0.6-0.3-1.1-0.3c-0.6,0-0.9,0.3-0.9,0.7c0,0.4,0.3,0.6,1,0.9
			c0.9,0.4,1.4,0.8,1.4,1.6c0,0.9-0.7,1.6-2,1.6c-0.6,0-1.1-0.1-1.5-0.4L796.6,314.8z"/>
		<path class="st8" d="M800.4,317.1c0.8-1.1,1.4-2.5,1.4-4.5c0-2-0.6-3.4-1.4-4.5h0.8c0.7,0.9,1.5,2.3,1.5,4.5
			c0,2.2-0.7,3.6-1.5,4.5H800.4z"/>
	</g>
	<rect x="467.6" y="49.3" class="st4" width="10.4" height="22.6"/>
	<rect x="488.2" y="49.3" class="st4" width="10.4" height="22.6"/>
	<rect x="447" y="49.5" class="st9" width="51.6" height="30.3"/>
	<line class="st10" x1="457.3" y1="71.8" x2="457.3" y2="49.7"/>
	<line class="st10" x1="467.6" y1="71.8" x2="467.6" y2="49.7"/>
	<line class="st10" x1="477.9" y1="71.8" x2="477.9" y2="49.7"/>
	<line class="st10" x1="488.2" y1="71.8" x2="488.2" y2="49.7"/>
	<line class="st10" x1="457.3" y1="60.7" x2="467.6" y2="60.7"/>
	<line class="st10" x1="472.7" y1="79.9" x2="472.7" y2="71.9"/>
	<line class="st10" x1="477.9" y1="60.7" x2="488.2" y2="60.7"/>
	<line class="st10" x1="447" y1="71.8" x2="498.7" y2="71.8"/>
	<line class="st11" x1="86.4" y1="116.5" x2="467.1" y2="71.9"/>
	<path class="st12" d="M467.6,71.9L467.6,71.9 M85.4,116.7L85.4,116.7"/>
	<line class="st13" x1="457.7" y1="91.5" x2="477.8" y2="50.1"/>
	<path class="st12" d="M478,49.7L478,49.7 M457.3,92.3L457.3,92.3"/>
	<line class="st13" x1="457.6" y1="115.7" x2="477.7" y2="72.3"/>
	<path class="st12" d="M477.9,71.9L477.9,71.9 M457.2,116.6L457.2,116.6"/>
	<line class="st14" x1="86.4" y1="92.9" x2="467.1" y2="49.8"/>
	<path class="st12" d="M467.6,49.7L467.6,49.7 M85.4,93L85.4,93"/>
	<line class="st15" x1="488.8" y1="91.3" x2="488.2" y2="72.4"/>
	<path class="st12" d="M488.2,71.9L488.2,71.9 M488.8,92.3L488.8,92.3"/>
	<line class="st16" x1="859.6" y1="116.5" x2="498.8" y2="71.9"/>
	<path class="st12" d="M498.3,71.9L498.3,71.9 M860.6,116.6L860.6,116.6"/>
	<line class="st11" x1="859.6" y1="92.9" x2="499.1" y2="49.7"/>
	<path class="st12" d="M498.6,49.7L498.6,49.7 M860.6,93L860.6,93"/>
	<rect x="84.7" y="92.3" class="st4" width="372.6" height="25"/>
	<g class="st7">
		<path class="st8" d="M93,104.6L91.2,99H92l0.9,2.8c0.2,0.8,0.4,1.4,0.6,2.1h0c0.2-0.6,0.4-1.4,0.6-2.1L95,99h0.8l-2,5.6H93z"/>
		<path class="st8" d="M98.6,104.6l-0.1-0.5h0c-0.2,0.3-0.7,0.6-1.2,0.6c-0.8,0-1.2-0.6-1.2-1.2c0-1,0.9-1.5,2.4-1.5V102
			c0-0.3-0.1-0.9-0.9-0.9c-0.4,0-0.8,0.1-1,0.3l-0.2-0.5c0.3-0.2,0.8-0.4,1.3-0.4c1.2,0,1.5,0.8,1.5,1.6v1.5c0,0.3,0,0.7,0.1,1H98.6
			z M98.5,102.6c-0.8,0-1.7,0.1-1.7,0.9c0,0.5,0.3,0.7,0.7,0.7c0.5,0,0.9-0.3,1-0.7c0-0.1,0-0.2,0-0.2V102.6z"/>
		<path class="st8" d="M100.3,98.7h0.7v5.9h-0.7V98.7z"/>
		<path class="st8" d="M105.7,103.5c0,0.4,0,0.8,0,1.1h-0.6l0-0.7h0c-0.2,0.3-0.6,0.8-1.3,0.8c-0.6,0-1.4-0.4-1.4-1.8v-2.4h0.7v2.2
			c0,0.8,0.2,1.3,0.9,1.3c0.5,0,0.8-0.3,1-0.7c0-0.1,0.1-0.2,0.1-0.4v-2.5h0.7V103.5z"/>
		<path class="st8" d="M107.3,102.7c0,1,0.6,1.4,1.4,1.4c0.5,0,0.8-0.1,1.1-0.2l0.1,0.5c-0.3,0.1-0.7,0.3-1.3,0.3c-1.2,0-2-0.8-2-2
			c0-1.2,0.7-2.2,1.9-2.2c1.3,0,1.7,1.2,1.7,1.9c0,0.1,0,0.3,0,0.3H107.3z M109.5,102.2c0-0.5-0.2-1.2-1-1.2c-0.7,0-1.1,0.7-1.1,1.2
			H109.5z"/>
		<path class="st8" d="M112.9,99.1c0.3-0.1,0.8-0.1,1.4-0.1c0.7,0,1.2,0.2,1.6,0.5c0.3,0.3,0.5,0.7,0.5,1.2c0,0.5-0.1,0.9-0.4,1.2
			c-0.4,0.4-1,0.6-1.7,0.6c-0.2,0-0.4,0-0.6,0v2.2h-0.7V99.1z M113.6,101.8c0.2,0,0.4,0.1,0.6,0.1c0.9,0,1.4-0.4,1.4-1.2
			c0-0.7-0.5-1.1-1.3-1.1c-0.3,0-0.6,0-0.7,0.1V101.8z"/>
		<path class="st8" d="M117.3,101.8c0-0.5,0-0.9,0-1.3h0.6l0,0.8h0c0.2-0.5,0.6-0.9,1.1-0.9c0.1,0,0.1,0,0.2,0v0.7
			c-0.1,0-0.1,0-0.2,0c-0.5,0-0.9,0.4-1,0.9c0,0.1,0,0.2,0,0.3v2.1h-0.7V101.8z"/>
		<path class="st8" d="M123.6,102.6c0,1.5-1,2.1-2,2.1c-1.1,0-1.9-0.8-1.9-2.1c0-1.3,0.9-2.1,2-2.1
			C122.9,100.5,123.6,101.3,123.6,102.6z M120.4,102.6c0,0.9,0.5,1.5,1.2,1.5c0.7,0,1.2-0.7,1.2-1.6c0-0.7-0.3-1.5-1.2-1.5
			C120.8,101,120.4,101.8,120.4,102.6z"/>
		<path class="st8" d="M124.6,101.9c0-0.5,0-0.9,0-1.3h0.7l0,0.7h0c0.3-0.5,0.8-0.8,1.4-0.8c1,0,1.7,0.8,1.7,2
			c0,1.4-0.9,2.2-1.8,2.2c-0.5,0-1-0.2-1.2-0.6h0v2.2h-0.7V101.9z M125.3,103c0,0.1,0,0.2,0,0.3c0.1,0.5,0.6,0.9,1.1,0.9
			c0.8,0,1.2-0.6,1.2-1.6c0-0.8-0.4-1.5-1.2-1.5c-0.5,0-1,0.4-1.1,0.9c0,0.1,0,0.2,0,0.3V103z"/>
		<path class="st8" d="M133,102.6c0,1.5-1,2.1-2,2.1c-1.1,0-1.9-0.8-1.9-2.1c0-1.3,0.9-2.1,2-2.1C132.2,100.5,133,101.3,133,102.6z
			 M129.8,102.6c0,0.9,0.5,1.5,1.2,1.5c0.7,0,1.2-0.7,1.2-1.6c0-0.7-0.3-1.5-1.2-1.5C130.1,101,129.8,101.8,129.8,102.6z"/>
		<path class="st8" d="M133.8,103.9c0.2,0.1,0.6,0.3,1,0.3c0.5,0,0.8-0.3,0.8-0.6c0-0.4-0.2-0.5-0.8-0.7c-0.7-0.3-1.1-0.7-1.1-1.1
			c0-0.6,0.5-1.2,1.4-1.2c0.4,0,0.8,0.1,1,0.3l-0.2,0.5c-0.2-0.1-0.5-0.2-0.8-0.2c-0.4,0-0.7,0.3-0.7,0.5c0,0.3,0.2,0.5,0.8,0.7
			c0.7,0.3,1.1,0.6,1.1,1.2c0,0.7-0.5,1.2-1.5,1.2c-0.4,0-0.8-0.1-1.1-0.3L133.8,103.9z"/>
		<path class="st8" d="M138,99.5c0,0.3-0.2,0.5-0.5,0.5c-0.3,0-0.4-0.2-0.4-0.5c0-0.3,0.2-0.5,0.5-0.5C137.8,99,138,99.2,138,99.5z
			 M137.2,104.6v-4h0.7v4H137.2z"/>
		<path class="st8" d="M140,99.4v1.2h1v0.6h-1v2.2c0,0.5,0.1,0.8,0.5,0.8c0.2,0,0.3,0,0.4,0l0,0.5c-0.1,0.1-0.4,0.1-0.6,0.1
			c-0.3,0-0.6-0.1-0.8-0.3c-0.2-0.2-0.3-0.6-0.3-1v-2.2h-0.6v-0.6h0.6v-1L140,99.4z"/>
		<path class="st8" d="M142.7,99.5c0,0.3-0.2,0.5-0.5,0.5c-0.3,0-0.4-0.2-0.4-0.5c0-0.3,0.2-0.5,0.5-0.5
			C142.5,99,142.7,99.2,142.7,99.5z M141.9,104.6v-4h0.7v4H141.9z"/>
		<path class="st8" d="M147.5,102.6c0,1.5-1,2.1-2,2.1c-1.1,0-1.9-0.8-1.9-2.1c0-1.3,0.9-2.1,2-2.1
			C146.7,100.5,147.5,101.3,147.5,102.6z M144.3,102.6c0,0.9,0.5,1.5,1.2,1.5c0.7,0,1.2-0.7,1.2-1.6c0-0.7-0.3-1.5-1.2-1.5
			C144.7,101,144.3,101.8,144.3,102.6z"/>
		<path class="st8" d="M148.4,101.7c0-0.4,0-0.8,0-1.1h0.6l0,0.7h0c0.2-0.4,0.7-0.8,1.3-0.8c0.6,0,1.4,0.3,1.4,1.7v2.4h-0.7v-2.3
			c0-0.6-0.2-1.2-0.9-1.2c-0.5,0-0.9,0.3-1,0.7c0,0.1,0,0.2,0,0.3v2.4h-0.7V101.7z"/>
	</g>
	<rect x="488.8" y="92.3" class="st4" width="372.5" height="25"/>
	<g class="st7">
		<path class="st8" d="M498.2,104.4c-0.3,0.1-0.8,0.3-1.5,0.3c-1.6,0-2.8-1-2.8-2.8c0-1.8,1.2-2.9,2.9-2.9c0.7,0,1.1,0.1,1.3,0.3
			l-0.2,0.6c-0.3-0.1-0.7-0.2-1.1-0.2c-1.3,0-2.2,0.8-2.2,2.3c0,1.4,0.8,2.3,2.2,2.3c0.4,0,0.9-0.1,1.2-0.2L498.2,104.4z"/>
		<path class="st8" d="M502.5,103.5c0,0.4,0,0.8,0,1.1h-0.6l0-0.7h0c-0.2,0.3-0.6,0.8-1.3,0.8c-0.6,0-1.4-0.4-1.4-1.8v-2.4h0.7v2.2
			c0,0.8,0.2,1.3,0.9,1.3c0.5,0,0.8-0.3,1-0.7c0-0.1,0.1-0.2,0.1-0.4v-2.5h0.7V103.5z"/>
		<path class="st8" d="M503.6,103.9c0.2,0.1,0.6,0.3,1,0.3c0.5,0,0.8-0.3,0.8-0.6c0-0.4-0.2-0.5-0.8-0.7c-0.7-0.3-1.1-0.7-1.1-1.1
			c0-0.6,0.5-1.2,1.4-1.2c0.4,0,0.8,0.1,1,0.3l-0.2,0.5c-0.2-0.1-0.4-0.2-0.8-0.2c-0.4,0-0.7,0.3-0.7,0.5c0,0.3,0.2,0.5,0.8,0.7
			c0.7,0.3,1.1,0.6,1.1,1.2c0,0.7-0.5,1.2-1.5,1.2c-0.4,0-0.8-0.1-1.1-0.3L503.6,103.9z"/>
		<path class="st8" d="M507.9,99.4v1.2h1v0.6h-1v2.2c0,0.5,0.1,0.8,0.5,0.8c0.2,0,0.3,0,0.4,0l0,0.5c-0.1,0.1-0.4,0.1-0.6,0.1
			c-0.3,0-0.6-0.1-0.8-0.3c-0.2-0.2-0.3-0.6-0.3-1v-2.2h-0.6v-0.6h0.6v-1L507.9,99.4z"/>
		<path class="st8" d="M513.4,102.6c0,1.5-1,2.1-2,2.1c-1.1,0-1.9-0.8-1.9-2.1c0-1.3,0.9-2.1,2-2.1
			C512.6,100.5,513.4,101.3,513.4,102.6z M510.2,102.6c0,0.9,0.5,1.5,1.2,1.5c0.7,0,1.2-0.7,1.2-1.6c0-0.7-0.3-1.5-1.2-1.5
			C510.6,101,510.2,101.8,510.2,102.6z"/>
		<path class="st8" d="M514.3,101.7c0-0.4,0-0.8,0-1.1h0.6l0,0.6h0c0.2-0.4,0.6-0.7,1.3-0.7c0.5,0,1,0.3,1.1,0.8h0
			c0.1-0.2,0.3-0.4,0.5-0.5c0.2-0.2,0.5-0.3,0.9-0.3c0.5,0,1.3,0.4,1.3,1.7v2.4h-0.7v-2.3c0-0.8-0.3-1.2-0.9-1.2
			c-0.4,0-0.7,0.3-0.9,0.7c0,0.1-0.1,0.2-0.1,0.4v2.5h-0.7v-2.4c0-0.6-0.3-1.1-0.8-1.1c-0.5,0-0.8,0.4-0.9,0.7
			c0,0.1-0.1,0.2-0.1,0.4v2.4h-0.7V101.7z"/>
		<path class="st8" d="M521.7,102.7c0,1,0.6,1.4,1.4,1.4c0.5,0,0.8-0.1,1.1-0.2l0.1,0.5c-0.3,0.1-0.7,0.3-1.3,0.3c-1.2,0-2-0.8-2-2
			c0-1.2,0.7-2.2,1.9-2.2c1.3,0,1.7,1.2,1.7,1.9c0,0.1,0,0.3,0,0.3H521.7z M523.9,102.2c0-0.5-0.2-1.2-1-1.2c-0.7,0-1.1,0.7-1.1,1.2
			H523.9z"/>
		<path class="st8" d="M525.5,101.8c0-0.5,0-0.9,0-1.3h0.6l0,0.8h0c0.2-0.5,0.6-0.9,1.1-0.9c0.1,0,0.1,0,0.2,0v0.7
			c-0.1,0-0.2,0-0.3,0c-0.5,0-0.9,0.4-1,0.9c0,0.1,0,0.2,0,0.3v2.1h-0.7V101.8z"/>
		<path class="st8" d="M529.9,103.7c0.3,0.2,0.8,0.4,1.3,0.4c0.7,0,1.2-0.4,1.2-1c0-0.5-0.3-0.8-1.1-1.1c-0.9-0.3-1.5-0.8-1.5-1.6
			c0-0.9,0.7-1.5,1.8-1.5c0.6,0,1,0.1,1.2,0.3l-0.2,0.6c-0.2-0.1-0.6-0.3-1.1-0.3c-0.8,0-1.1,0.5-1.1,0.8c0,0.5,0.3,0.8,1.1,1.1
			c0.9,0.4,1.4,0.8,1.4,1.6c0,0.9-0.6,1.6-2,1.6c-0.5,0-1.1-0.2-1.4-0.4L529.9,103.7z"/>
		<path class="st8" d="M534.5,102.7c0,1,0.6,1.4,1.4,1.4c0.5,0,0.8-0.1,1.1-0.2l0.1,0.5c-0.3,0.1-0.7,0.3-1.3,0.3c-1.2,0-2-0.8-2-2
			c0-1.2,0.7-2.2,1.9-2.2c1.3,0,1.7,1.2,1.7,1.9c0,0.1,0,0.3,0,0.3H534.5z M536.6,102.2c0-0.5-0.2-1.2-1-1.2c-0.7,0-1.1,0.7-1.1,1.2
			H536.6z"/>
		<path class="st8" d="M541.7,100.6c0,0.3,0,0.6,0,1.1v2.3c0,0.9-0.2,1.5-0.6,1.8c-0.4,0.4-1,0.5-1.5,0.5c-0.5,0-1-0.1-1.3-0.3
			l0.2-0.6c0.3,0.2,0.7,0.3,1.2,0.3c0.7,0,1.3-0.4,1.3-1.4v-0.4h0c-0.2,0.4-0.7,0.7-1.3,0.7c-1,0-1.7-0.9-1.7-2
			c0-1.4,0.9-2.1,1.8-2.1c0.7,0,1.1,0.4,1.3,0.7h0l0-0.6H541.7z M541,102.2c0-0.1,0-0.2,0-0.3c-0.1-0.4-0.5-0.8-1-0.8
			c-0.7,0-1.2,0.6-1.2,1.5c0,0.8,0.4,1.4,1.2,1.4c0.5,0,0.9-0.3,1-0.8c0-0.1,0.1-0.3,0.1-0.4V102.2z"/>
		<path class="st8" d="M542.9,101.7c0-0.4,0-0.8,0-1.1h0.6l0,0.6h0c0.2-0.4,0.6-0.7,1.3-0.7c0.5,0,1,0.3,1.1,0.8h0
			c0.1-0.2,0.3-0.4,0.5-0.5c0.2-0.2,0.5-0.3,0.9-0.3c0.5,0,1.3,0.4,1.3,1.7v2.4h-0.7v-2.3c0-0.8-0.3-1.2-0.9-1.2
			c-0.4,0-0.7,0.3-0.9,0.7c0,0.1-0.1,0.2-0.1,0.4v2.5h-0.7v-2.4c0-0.6-0.3-1.1-0.8-1.1c-0.5,0-0.8,0.4-0.9,0.7
			c0,0.1-0.1,0.2-0.1,0.4v2.4h-0.7V101.7z"/>
		<path class="st8" d="M550.3,102.7c0,1,0.6,1.4,1.4,1.4c0.5,0,0.8-0.1,1.1-0.2l0.1,0.5c-0.3,0.1-0.7,0.3-1.3,0.3c-1.2,0-2-0.8-2-2
			c0-1.2,0.7-2.2,1.9-2.2c1.3,0,1.7,1.2,1.7,1.9c0,0.1,0,0.3,0,0.3H550.3z M552.4,102.2c0-0.5-0.2-1.2-1-1.2c-0.7,0-1.1,0.7-1.1,1.2
			H552.4z"/>
		<path class="st8" d="M554,101.7c0-0.4,0-0.8,0-1.1h0.6l0,0.7h0c0.2-0.4,0.7-0.8,1.3-0.8c0.6,0,1.4,0.3,1.4,1.7v2.4h-0.7v-2.3
			c0-0.6-0.2-1.2-0.9-1.2c-0.5,0-0.9,0.3-1,0.7c0,0.1,0,0.2,0,0.3v2.4H554V101.7z"/>
		<path class="st8" d="M559.5,99.4v1.2h1v0.6h-1v2.2c0,0.5,0.1,0.8,0.5,0.8c0.2,0,0.3,0,0.4,0l0,0.5c-0.1,0.1-0.4,0.1-0.6,0.1
			c-0.3,0-0.6-0.1-0.8-0.3c-0.2-0.2-0.3-0.6-0.3-1v-2.2h-0.6v-0.6h0.6v-1L559.5,99.4z"/>
	</g>
	<path class="st7" d="M620.6,422.3c-6,0-7,5.9-7,5.9c9.4-4.1,4.6-4.2,13.9,0C627.5,428.2,626.6,422.3,620.6,422.3 M616.1,418.3
		c3.7,0.1,0.8-7.5-2-2C614.1,416.9,614.2,417.5,616.1,418.3 M625.1,418.3c3.7,0.1,0.8-7.5-2-2C623.1,416.9,623.2,417.5,625.1,418.3"
		/>
	<path class="st7" d="M626.8,237.7c-6.1,11.1-12-1.2-15.1,0c3,10.8,16.6,7,17.6,0H626.8z M625,233.5c3.6,0.1,0.8-7.3-2-2
		C623.1,232.1,623.2,232.7,625,233.5 M616.1,233.5c3.6,0.1,0.8-7.3-2-2C614.3,232.1,614.4,232.7,616.1,233.5"/>
	<path class="st7" d="M780,333.7c-0.5-1.1-4.2-2.3-1.3-3.9l1.2,1.2l3.9-4.4C787.6,327.4,780.9,332,780,333.7z"/>
	<path class="st7" d="M780,342.6c-1.5-0.3-4-5.7-0.1-2.7c1.5-0.8,3.6-6.4,5.3-3.1L780,342.6z"/>
	<path class="st7" d="M781.2,347.2c-3-0.1-0.7,6.1,1.6,1.6C782.8,348.3,782.7,347.8,781.2,347.2 M781.2,352.4
		c-7.8-1.2,0.1-12.6,3.5-3.5C784.6,350,783.9,351.7,781.2,352.4"/>
	<rect x="788.7" y="329.5" class="st7" width="17.6" height="2.8"/>
	<rect x="788.7" y="338.5" class="st7" width="17.6" height="2.8"/>
	<rect x="788.7" y="347.4" class="st7" width="17.6" height="2.8"/>
	<rect x="241.3" y="307.3" class="st4" width="53.4" height="9.2"/>
	<path class="st7" d="M293.5,315.3h-51v-6.8h51V315.3z M240.1,317.7h55.8V306h-55.8V317.7z"/>
	<polyline class="st4" points="243.9,317.4 243.9,349.7 291.2,349.7 291.2,317.4 	"/>
	<polygon class="st7" points="242.7,350.9 292.4,350.9 292.4,317.4 290,317.4 290,348.5 245.1,348.5 245.1,317.4 242.7,317.4 	"/>
	<rect x="266.4" y="307" class="st7" width="2.4" height="43.5"/>
	<path class="st4" d="M267.8,303.9c6.6,0.7,15.2-1,11.1-9.8C271.8,286,266.2,296.9,267.8,303.9z"/>
	<path class="st7" d="M274,292.8c9.4,2.3,3.7,12.1-4.9,9.9C268.9,299,268.3,293.6,274,292.8 M266.7,305.1
		c7.7,0.7,17.6-0.8,13.6-11.1C271.7,283.1,264.6,296.7,266.7,305.1z"/>
	<path class="st4" d="M267.6,303.9c-6.6,0.7-15.2-1-11.1-9.8C263.6,286,269.2,296.9,267.6,303.9z"/>
	<path class="st7" d="M266.4,302.7c-5.1,0.7-13-1.2-8.4-8.5C263.3,289.2,267.7,296.8,266.4,302.7z M261.5,305.1h7.3
		C271.5,275.4,240.2,298.7,261.5,305.1"/>
	<path class="st7" d="M318.7,253.7l-2.3-2.3c4.4-3.7,9.8-13.9,14.4-5.3l4.7-4.7c5.6,2.8-4.2,7.3-4.7,9.3
		C324.7,241.7,322.9,251.3,318.7,253.7z"/>
	<polygon class="st7" points="338.9,246.7 341.2,238 332.6,240.3 	"/>
	<polygon class="st7" points="340.3,260 310.4,260 310.4,229.4 312.5,229.4 312.5,257.9 340.3,257.9 	"/>
	<rect x="311.9" y="233" class="st7" width="2.4" height="2.1"/>
	<rect x="311.9" y="239.4" class="st7" width="2.4" height="2.1"/>
	<rect x="311.9" y="245.8" class="st7" width="2.4" height="2.1"/>
	<rect x="311.9" y="252.2" class="st7" width="2.4" height="2.1"/>
	<path class="st7" d="M318.1,414.7c-16,2.3,8.4,25.1,15.3,27c10.2-2.2,4.9-11-4.1-18.3C321.7,416.8,325.1,416.8,318.1,414.7
		 M333.4,443.6c-11.7-1.6-38.7-37.4-9.8-28.5C329.4,421.5,353.2,439,333.4,443.6"/>
	<path class="st7" d="M322.5,434.6c-22.6-17.7-4.9-29.9,9.6-9.6L322.5,434.6z"/>
	<rect x="127.4" y="326.5" class="st7" width="3.6" height="21"/>
	<rect x="143.5" y="326.5" class="st7" width="3.6" height="21"/>
	<rect x="132.8" y="326.5" class="st7" width="1.6" height="21"/>
	<rect x="135" y="326.5" class="st7" width="3.6" height="21"/>
	<rect x="140.4" y="326.5" class="st7" width="1.8" height="21"/>
	<rect x="149.3" y="326.5" class="st7" width="1.8" height="21"/>
	<path class="st7" d="M165.8,335.9c0.2-1.2-3.1-4.2-4.5,0H165.8z"/>
	<path class="st7" d="M158.7,336.5v-9.9h-3.6v12.3C156.2,337.8,157.4,337,158.7,336.5"/>
	<path class="st7" d="M174.9,352c-2-1.3-28.1,3.2-23.9-3.1C151.5,348.4,184.6,346.1,174.9,352"/>
	<path class="st7" d="M154.3,339.7v-13.2h-1.8v15.9C152.9,341.4,153.5,340.5,154.3,339.7"/>
	<path class="st7" d="M163.6,337.3c-5.6,0-10.1,4.3-10.6,9.7h21.2C173.7,341.6,169.1,337.3,163.6,337.3"/>
</g>
<path class="st17" d="M87.5,555.6l0.7,0.4c-0.3,0.6-0.8,0.9-1.5,0.9c-1,0-1.7-0.7-1.7-1.7c0-1,0.7-1.7,1.7-1.7
	c0.6,0,1.1,0.2,1.5,0.8l-0.7,0.4c-0.1-0.3-0.4-0.5-0.7-0.5c-0.5,0-0.8,0.4-0.8,1c0,0.5,0.3,1,0.8,1C87,556.1,87.3,556,87.5,555.6z
	 M92.1,555.2c0,0.9-0.6,1.7-1.7,1.7c-1.1,0-1.7-0.8-1.7-1.7c0-0.9,0.6-1.7,1.7-1.7C91.4,553.5,92.1,554.2,92.1,555.2z M91.1,555.2
	c0-0.5-0.3-0.9-0.8-0.9c-0.5,0-0.8,0.4-0.8,0.9c0,0.5,0.3,0.9,0.8,0.9C90.9,556.1,91.1,555.7,91.1,555.2z M94.7,555.8
	c-0.1,0-0.3,0-0.4,0h-0.6v1h-0.9v-3.2h1.6c0.8,0,1.3,0.4,1.3,1.1C95.7,555.3,95.3,555.7,94.7,555.8z M94.3,554.3h-0.6v0.8h0.7
	c0.2,0,0.4-0.1,0.4-0.4C94.8,554.4,94.5,554.3,94.3,554.3z M98,555.5v1.3h-0.9v-1.3l-1.3-2h1.1l0.7,1.2l0.7-1.2h1L98,555.5z
	 M101.9,556.8l-0.6-1.1h-0.6v1.1h-0.9v-3.2h1.7c0.8,0,1.3,0.5,1.3,1.1c0,0.4-0.2,0.7-0.6,1l0.7,1.2H101.9z M101.5,554.3h-0.7v0.8
	h0.7c0.2,0,0.4-0.1,0.4-0.4C101.9,554.4,101.8,554.3,101.5,554.3z M103.6,556.8v-3.2h0.9v3.2H103.6z M106.1,555.2c0,0.6,0.3,1,0.8,1
	c0.4,0,0.7-0.2,0.8-0.5h-0.8V555h1.6c0,0.1,0,0.2,0,0.3c0,0.9-0.6,1.6-1.7,1.6c-1.1,0-1.7-0.7-1.7-1.7c0-1,0.7-1.7,1.7-1.7
	c0.7,0,1.2,0.3,1.5,0.8l-0.7,0.3c-0.2-0.3-0.4-0.4-0.8-0.4C106.4,554.2,106.1,554.6,106.1,555.2z M111.4,556.8v-1.3h-1.2v1.3h-0.9
	v-3.2h0.9v1.2h1.2v-1.2h0.9v3.2H111.4z M114.8,554.3v2.5h-0.9v-2.5h-1v-0.8h2.9v0.8H114.8z"/>
<g class="st0">
	<path class="st8" d="M116.3,554.4c0-0.2,0.1-0.4,0.4-0.4c0.2,0,0.3,0.2,0.3,0.4c0,0.2-0.1,0.4-0.4,0.4
		C116.5,554.8,116.3,554.6,116.3,554.4z M116.3,556.5c0-0.2,0.1-0.4,0.4-0.4c0.2,0,0.3,0.2,0.3,0.4c0,0.2-0.1,0.4-0.4,0.4
		C116.5,556.9,116.3,556.7,116.3,556.5z"/>
</g>
<g class="st0">
	<path class="st8" d="M119.8,556.2c0.2,0.1,0.6,0.3,0.9,0.3c0.5,0,0.8-0.3,0.8-0.7c0-0.4-0.2-0.6-0.8-0.8c-0.6-0.2-1.1-0.6-1.1-1.1
		c0-0.6,0.5-1.1,1.3-1.1c0.4,0,0.7,0.1,0.9,0.2l-0.1,0.4c-0.1-0.1-0.4-0.2-0.8-0.2c-0.5,0-0.8,0.3-0.8,0.6c0,0.4,0.2,0.6,0.8,0.8
		c0.7,0.3,1,0.6,1,1.2c0,0.6-0.5,1.1-1.4,1.1c-0.4,0-0.8-0.1-1-0.3L119.8,556.2z"/>
	<path class="st8" d="M123.5,553.1v0.8h0.7v0.4h-0.7v1.5c0,0.4,0.1,0.6,0.4,0.6c0.1,0,0.2,0,0.3,0l0,0.4c-0.1,0-0.3,0.1-0.5,0.1
		c-0.2,0-0.4-0.1-0.6-0.2c-0.1-0.2-0.2-0.4-0.2-0.7v-1.6h-0.4v-0.4h0.4v-0.7L123.5,553.1z"/>
	<path class="st8" d="M125,554.8c0-0.3,0-0.6,0-0.9h0.5l0,0.6h0c0.1-0.4,0.4-0.6,0.8-0.6c0.1,0,0.1,0,0.1,0v0.5c-0.1,0-0.1,0-0.2,0
		c-0.4,0-0.6,0.3-0.7,0.7c0,0.1,0,0.2,0,0.2v1.5H125V554.8z"/>
	<path class="st8" d="M128.7,556.8l0-0.4h0c-0.2,0.2-0.5,0.4-0.9,0.4c-0.6,0-0.9-0.4-0.9-0.8c0-0.7,0.6-1.1,1.7-1.1v-0.1
		c0-0.2-0.1-0.7-0.6-0.7c-0.3,0-0.5,0.1-0.7,0.2l-0.1-0.3c0.2-0.2,0.6-0.3,0.9-0.3c0.9,0,1.1,0.6,1.1,1.2v1.1c0,0.2,0,0.5,0,0.7
		H128.7z M128.6,555.3c-0.6,0-1.2,0.1-1.2,0.6c0,0.3,0.2,0.5,0.5,0.5c0.4,0,0.6-0.2,0.7-0.5c0-0.1,0-0.1,0-0.2V555.3z"/>
	<path class="st8" d="M130.6,553.1v0.8h0.7v0.4h-0.7v1.5c0,0.4,0.1,0.6,0.4,0.6c0.1,0,0.2,0,0.3,0l0,0.4c-0.1,0-0.3,0.1-0.5,0.1
		c-0.2,0-0.4-0.1-0.6-0.2c-0.1-0.2-0.2-0.4-0.2-0.7v-1.6h-0.4v-0.4h0.4v-0.7L130.6,553.1z"/>
	<path class="st8" d="M132.3,555.5c0,0.7,0.5,1,1,1c0.4,0,0.6-0.1,0.8-0.1l0.1,0.4c-0.2,0.1-0.5,0.2-1,0.2c-0.9,0-1.4-0.6-1.4-1.4
		s0.5-1.5,1.3-1.5c0.9,0,1.2,0.8,1.2,1.3c0,0.1,0,0.2,0,0.2H132.3z M133.8,555.1c0-0.3-0.1-0.8-0.7-0.8c-0.5,0-0.8,0.5-0.8,0.8
		H133.8z"/>
	<path class="st8" d="M137.5,553.9c0,0.2,0,0.4,0,0.8v1.7c0,0.7-0.1,1.1-0.4,1.3c-0.3,0.3-0.7,0.3-1,0.3c-0.3,0-0.7-0.1-1-0.2
		l0.1-0.4c0.2,0.1,0.5,0.2,0.8,0.2c0.5,0,0.9-0.3,0.9-1v-0.3h0c-0.2,0.3-0.5,0.5-0.9,0.5c-0.7,0-1.2-0.6-1.2-1.4
		c0-1,0.6-1.5,1.3-1.5c0.5,0,0.8,0.3,0.9,0.5h0l0-0.4H137.5z M137,555.1c0-0.1,0-0.2,0-0.2c-0.1-0.3-0.3-0.5-0.7-0.5
		c-0.5,0-0.9,0.4-0.9,1.1c0,0.6,0.3,1,0.8,1c0.3,0,0.6-0.2,0.7-0.5c0-0.1,0-0.2,0-0.3V555.1z"/>
	<path class="st8" d="M138.7,553.9l0.6,1.7c0.1,0.2,0.1,0.4,0.2,0.6h0c0.1-0.2,0.1-0.4,0.2-0.6l0.6-1.7h0.5l-0.8,2
		c-0.4,1-0.6,1.5-1,1.8c-0.3,0.2-0.5,0.3-0.6,0.3l-0.1-0.4c0.1,0,0.3-0.1,0.5-0.3c0.1-0.1,0.3-0.3,0.4-0.6c0-0.1,0-0.1,0-0.1
		c0,0,0-0.1,0-0.1l-1.1-2.6H138.7z"/>
	<path class="st8" d="M141.2,556.5l1.3-1.7c0.1-0.2,0.2-0.3,0.4-0.4v0h-1.5v-0.4h2.2l0,0.3l-1.3,1.7c-0.1,0.2-0.2,0.3-0.4,0.4v0h1.7
		v0.4h-2.3V556.5z"/>
	<path class="st8" d="M144.3,555.5c0,0.7,0.5,1,1,1c0.4,0,0.6-0.1,0.8-0.1l0.1,0.4c-0.2,0.1-0.5,0.2-1,0.2c-0.9,0-1.4-0.6-1.4-1.4
		s0.5-1.5,1.3-1.5c0.9,0,1.2,0.8,1.2,1.3c0,0.1,0,0.2,0,0.2H144.3z M145.8,555.1c0-0.3-0.1-0.8-0.7-0.8c-0.5,0-0.8,0.5-0.8,0.8
		H145.8z"/>
	<path class="st8" d="M147.1,554.8c0-0.3,0-0.6,0-0.9h0.5l0,0.6h0c0.1-0.4,0.4-0.6,0.8-0.6c0.1,0,0.1,0,0.1,0v0.5
		c-0.1,0-0.1,0-0.2,0c-0.4,0-0.6,0.3-0.7,0.7c0,0.1,0,0.2,0,0.2v1.5h-0.5V554.8z"/>
	<path class="st8" d="M151.1,555.5l-0.4,1.3h-0.5l1.4-4h0.6l1.4,4h-0.5l-0.4-1.3H151.1z M152.4,555.1L152,554
		c-0.1-0.3-0.1-0.5-0.2-0.7h0c-0.1,0.2-0.1,0.5-0.2,0.7l-0.4,1.2H152.4z"/>
	<path class="st8" d="M157,556.6c-0.2,0.1-0.7,0.2-1.2,0.2c-0.6,0-1.1-0.2-1.5-0.5c-0.3-0.3-0.6-0.9-0.6-1.5c0-1.2,0.8-2.1,2.2-2.1
		c0.5,0,0.8,0.1,1,0.2l-0.1,0.4c-0.2-0.1-0.5-0.2-0.9-0.2c-1,0-1.6,0.6-1.6,1.6c0,1,0.6,1.6,1.5,1.6c0.3,0,0.6,0,0.7-0.1v-1.2h-0.8
		v-0.4h1.3V556.6z"/>
</g>
<g class="st0">
	<path class="st8" d="M85.8,560.4h-1v-0.4h2.4v0.4h-1v2.9h-0.4V560.4z"/>
	<path class="st8" d="M87.7,559.9h0.4v1.5h0c0.1-0.1,0.2-0.2,0.3-0.3c0.1-0.1,0.3-0.1,0.4-0.1c0.3,0,0.8,0.2,0.8,1v1.4h-0.4V562
		c0-0.4-0.1-0.7-0.5-0.7c-0.3,0-0.5,0.2-0.6,0.4c0,0.1,0,0.1,0,0.2v1.4h-0.4V559.9z"/>
	<path class="st8" d="M90.8,562.2c0,0.6,0.4,0.8,0.8,0.8c0.3,0,0.5-0.1,0.7-0.1l0.1,0.3c-0.2,0.1-0.4,0.1-0.8,0.1
		c-0.7,0-1.2-0.5-1.2-1.2c0-0.7,0.4-1.3,1.1-1.3c0.8,0,1,0.7,1,1.1c0,0.1,0,0.2,0,0.2H90.8z M92,561.9c0-0.3-0.1-0.7-0.6-0.7
		c-0.4,0-0.6,0.4-0.7,0.7H92z"/>
	<path class="st8" d="M94.1,561.6c0-0.2,0-0.4,0-0.6h0.4l0,0.4h0c0.1-0.2,0.4-0.4,0.7-0.4c0.3,0,0.6,0.2,0.7,0.5h0
		c0.1-0.1,0.2-0.2,0.3-0.3c0.1-0.1,0.3-0.2,0.5-0.2c0.3,0,0.8,0.2,0.8,1v1.4h-0.4V562c0-0.5-0.2-0.7-0.5-0.7c-0.2,0-0.4,0.2-0.5,0.4
		c0,0.1,0,0.1,0,0.2v1.5h-0.4v-1.4c0-0.4-0.2-0.6-0.5-0.6c-0.3,0-0.5,0.2-0.5,0.4c0,0.1,0,0.1,0,0.2v1.4h-0.4V561.6z"/>
	<path class="st8" d="M99.6,563.3l0-0.3h0c-0.1,0.2-0.4,0.4-0.7,0.4c-0.5,0-0.7-0.3-0.7-0.7c0-0.6,0.5-0.9,1.4-0.9v0
		c0-0.2-0.1-0.5-0.5-0.5c-0.2,0-0.4,0.1-0.6,0.2l-0.1-0.3c0.2-0.1,0.5-0.2,0.8-0.2c0.7,0,0.9,0.5,0.9,1v0.9c0,0.2,0,0.4,0,0.6H99.6z
		 M99.5,562.1c-0.5,0-1,0.1-1,0.5c0,0.3,0.2,0.4,0.4,0.4c0.3,0,0.5-0.2,0.6-0.4c0,0,0-0.1,0-0.1V562.1z"/>
	<path class="st8" d="M101.3,562.1L101.3,562.1c0.1-0.1,0.2-0.2,0.2-0.3l0.7-0.8h0.5l-0.9,1l1,1.4h-0.5l-0.8-1.1l-0.2,0.2v0.9h-0.4
		v-3.5h0.4V562.1z"/>
	<path class="st8" d="M103.4,562.2c0,0.6,0.4,0.8,0.8,0.8c0.3,0,0.5-0.1,0.7-0.1l0.1,0.3c-0.2,0.1-0.4,0.1-0.8,0.1
		c-0.7,0-1.2-0.5-1.2-1.2c0-0.7,0.4-1.3,1.1-1.3c0.8,0,1,0.7,1,1.1c0,0.1,0,0.2,0,0.2H103.4z M104.7,561.9c0-0.3-0.1-0.7-0.6-0.7
		c-0.4,0-0.6,0.4-0.7,0.7H104.7z"/>
	<path class="st8" d="M105.8,561.7c0-0.3,0-0.5,0-0.7h0.4l0,0.5h0c0.1-0.3,0.4-0.5,0.7-0.5c0,0,0.1,0,0.1,0v0.4c0,0-0.1,0-0.1,0
		c-0.3,0-0.5,0.2-0.6,0.6c0,0.1,0,0.1,0,0.2v1.3h-0.4V561.7z"/>
	<path class="st8" d="M107.5,562.9c0.1,0.1,0.4,0.2,0.6,0.2c0.3,0,0.5-0.2,0.5-0.4c0-0.2-0.1-0.3-0.4-0.4c-0.4-0.2-0.6-0.4-0.6-0.7
		c0-0.4,0.3-0.7,0.8-0.7c0.2,0,0.4,0.1,0.6,0.1l-0.1,0.3c-0.1-0.1-0.3-0.1-0.5-0.1c-0.3,0-0.4,0.1-0.4,0.3c0,0.2,0.1,0.3,0.4,0.4
		c0.4,0.2,0.6,0.4,0.6,0.7c0,0.4-0.3,0.7-0.9,0.7c-0.3,0-0.5-0.1-0.7-0.2L107.5,562.9z"/>
	<path class="st8" d="M112.7,562.1c0,0.9-0.6,1.3-1.2,1.3c-0.6,0-1.1-0.5-1.1-1.2c0-0.8,0.5-1.3,1.2-1.3
		C112.3,560.9,112.7,561.4,112.7,562.1z M110.8,562.2c0,0.5,0.3,0.9,0.7,0.9c0.4,0,0.7-0.4,0.7-0.9c0-0.4-0.2-0.9-0.7-0.9
		C111.1,561.2,110.8,561.7,110.8,562.2z"/>
	<path class="st8" d="M113.4,563.3v-2H113V561h0.3v-0.1c0-0.3,0.1-0.6,0.3-0.8c0.2-0.2,0.4-0.2,0.6-0.2c0.2,0,0.3,0,0.4,0.1
		l-0.1,0.3c-0.1,0-0.2-0.1-0.3-0.1c-0.4,0-0.5,0.3-0.5,0.7v0.1h0.6v0.3h-0.6v2H113.4z"/>
	<path class="st8" d="M115.9,560.1c0.2,0,0.5-0.1,0.8-0.1c0.4,0,0.7,0.1,0.9,0.2c0.2,0.1,0.3,0.3,0.3,0.6c0,0.3-0.2,0.6-0.6,0.7v0
		c0.3,0.1,0.7,0.3,0.7,0.8c0,0.3-0.1,0.5-0.3,0.7c-0.2,0.2-0.6,0.3-1.1,0.3c-0.3,0-0.5,0-0.7,0V560.1z M116.3,561.4h0.4
		c0.4,0,0.7-0.2,0.7-0.5c0-0.4-0.3-0.5-0.7-0.5c-0.2,0-0.3,0-0.4,0V561.4z M116.3,563c0.1,0,0.2,0,0.4,0c0.4,0,0.8-0.2,0.8-0.6
		c0-0.4-0.4-0.6-0.8-0.6h-0.4V563z"/>
	<path class="st8" d="M120.6,562.7c0,0.2,0,0.5,0,0.6h-0.4l0-0.4h0c-0.1,0.2-0.4,0.4-0.8,0.4c-0.4,0-0.8-0.2-0.8-1V561h0.4v1.3
		c0,0.4,0.1,0.8,0.5,0.8c0.3,0,0.5-0.2,0.6-0.4c0-0.1,0-0.1,0-0.2V561h0.4V562.7z"/>
	<path class="st8" d="M121.4,562.9c0.1,0.1,0.4,0.2,0.6,0.2c0.3,0,0.5-0.2,0.5-0.4c0-0.2-0.1-0.3-0.4-0.4c-0.4-0.2-0.6-0.4-0.6-0.7
		c0-0.4,0.3-0.7,0.8-0.7c0.2,0,0.4,0.1,0.6,0.1l-0.1,0.3c-0.1-0.1-0.3-0.1-0.5-0.1c-0.3,0-0.4,0.1-0.4,0.3c0,0.2,0.1,0.3,0.4,0.4
		c0.4,0.2,0.6,0.4,0.6,0.7c0,0.4-0.3,0.7-0.9,0.7c-0.3,0-0.5-0.1-0.7-0.2L121.4,562.9z"/>
	<path class="st8" d="M124,560.3c0,0.1-0.1,0.3-0.3,0.3c-0.2,0-0.3-0.1-0.3-0.3c0-0.2,0.1-0.3,0.3-0.3
		C123.9,560,124,560.2,124,560.3z M123.5,563.3V561h0.4v2.4H123.5z"/>
	<path class="st8" d="M124.8,561.6c0-0.2,0-0.4,0-0.6h0.4l0,0.4h0c0.1-0.2,0.4-0.4,0.8-0.4c0.3,0,0.8,0.2,0.8,1v1.4h-0.4V562
		c0-0.4-0.1-0.7-0.5-0.7c-0.3,0-0.5,0.2-0.6,0.4c0,0.1,0,0.1,0,0.2v1.4h-0.4V561.6z"/>
	<path class="st8" d="M127.9,562.2c0,0.6,0.4,0.8,0.8,0.8c0.3,0,0.5-0.1,0.7-0.1l0.1,0.3c-0.2,0.1-0.4,0.1-0.8,0.1
		c-0.7,0-1.2-0.5-1.2-1.2c0-0.7,0.4-1.3,1.1-1.3c0.8,0,1,0.7,1,1.1c0,0.1,0,0.2,0,0.2H127.9z M129.1,561.9c0-0.3-0.1-0.7-0.6-0.7
		c-0.4,0-0.6,0.4-0.7,0.7H129.1z"/>
	<path class="st8" d="M130.2,562.9c0.1,0.1,0.4,0.2,0.6,0.2c0.3,0,0.5-0.2,0.5-0.4c0-0.2-0.1-0.3-0.4-0.4c-0.4-0.2-0.6-0.4-0.6-0.7
		c0-0.4,0.3-0.7,0.8-0.7c0.2,0,0.4,0.1,0.6,0.1l-0.1,0.3c-0.1-0.1-0.3-0.1-0.5-0.1c-0.3,0-0.4,0.1-0.4,0.3c0,0.2,0.1,0.3,0.4,0.4
		c0.4,0.2,0.6,0.4,0.6,0.7c0,0.4-0.3,0.7-0.9,0.7c-0.3,0-0.5-0.1-0.7-0.2L130.2,562.9z"/>
	<path class="st8" d="M132.3,562.9c0.1,0.1,0.4,0.2,0.6,0.2c0.3,0,0.5-0.2,0.5-0.4c0-0.2-0.1-0.3-0.4-0.4c-0.4-0.2-0.6-0.4-0.6-0.7
		c0-0.4,0.3-0.7,0.8-0.7c0.2,0,0.4,0.1,0.6,0.1l-0.1,0.3c-0.1-0.1-0.3-0.1-0.5-0.1c-0.3,0-0.4,0.1-0.4,0.3c0,0.2,0.1,0.3,0.4,0.4
		c0.4,0.2,0.6,0.4,0.6,0.7c0,0.4-0.3,0.7-0.9,0.7c-0.3,0-0.5-0.1-0.7-0.2L132.3,562.9z"/>
	<path class="st8" d="M138.2,561.9c0-0.5-0.1-1,0-1.4h0c-0.1,0.4-0.2,0.8-0.4,1.2l-0.6,1.6h-0.3l-0.5-1.6c-0.2-0.5-0.3-0.9-0.4-1.3
		h0c0,0.4,0,1-0.1,1.5l-0.1,1.4h-0.4l0.2-3.3h0.5l0.6,1.6c0.1,0.4,0.2,0.8,0.3,1.1h0c0.1-0.3,0.2-0.7,0.3-1.1l0.6-1.6h0.5l0.2,3.3
		h-0.4L138.2,561.9z"/>
	<path class="st8" d="M141.6,562.1c0,0.9-0.6,1.3-1.2,1.3c-0.6,0-1.1-0.5-1.1-1.2c0-0.8,0.5-1.3,1.2-1.3
		C141.1,560.9,141.6,561.4,141.6,562.1z M139.7,562.2c0,0.5,0.3,0.9,0.7,0.9c0.4,0,0.7-0.4,0.7-0.9c0-0.4-0.2-0.9-0.7-0.9
		C139.9,561.2,139.7,561.7,139.7,562.2z"/>
	<path class="st8" d="M144.3,559.9v2.8c0,0.2,0,0.4,0,0.6h-0.4l0-0.4h0c-0.1,0.3-0.4,0.5-0.8,0.5c-0.6,0-1-0.5-1-1.2
		c0-0.8,0.5-1.3,1.1-1.3c0.4,0,0.6,0.2,0.7,0.4h0v-1.4H144.3z M143.9,561.9c0-0.1,0-0.1,0-0.2c-0.1-0.3-0.3-0.5-0.6-0.5
		c-0.4,0-0.7,0.4-0.7,0.9c0,0.5,0.2,0.9,0.7,0.9c0.3,0,0.5-0.2,0.6-0.5c0-0.1,0-0.1,0-0.2V561.9z"/>
	<path class="st8" d="M145.4,562.2c0,0.6,0.4,0.8,0.8,0.8c0.3,0,0.5-0.1,0.7-0.1l0.1,0.3c-0.2,0.1-0.4,0.1-0.8,0.1
		c-0.7,0-1.2-0.5-1.2-1.2c0-0.7,0.4-1.3,1.1-1.3c0.8,0,1,0.7,1,1.1c0,0.1,0,0.2,0,0.2H145.4z M146.6,561.9c0-0.3-0.1-0.7-0.6-0.7
		c-0.4,0-0.6,0.4-0.7,0.7H146.6z"/>
	<path class="st8" d="M147.7,559.9h0.4v3.5h-0.4V559.9z"/>
	<path class="st8" d="M152.5,563.2c-0.2,0.1-0.6,0.2-1,0.2c-0.5,0-0.9-0.1-1.2-0.4c-0.3-0.3-0.5-0.7-0.5-1.2c0-1,0.7-1.7,1.8-1.7
		c0.4,0,0.7,0.1,0.8,0.2l-0.1,0.3c-0.2-0.1-0.4-0.1-0.7-0.1c-0.8,0-1.3,0.5-1.3,1.3c0,0.8,0.5,1.3,1.3,1.3c0.3,0,0.5,0,0.6-0.1v-1
		h-0.7v-0.3h1.1V563.2z"/>
	<path class="st8" d="M153.6,562.2c0,0.6,0.4,0.8,0.8,0.8c0.3,0,0.5-0.1,0.7-0.1l0.1,0.3c-0.2,0.1-0.4,0.1-0.8,0.1
		c-0.7,0-1.2-0.5-1.2-1.2c0-0.7,0.4-1.3,1.1-1.3c0.8,0,1,0.7,1,1.1c0,0.1,0,0.2,0,0.2H153.6z M154.8,561.9c0-0.3-0.1-0.7-0.6-0.7
		c-0.4,0-0.6,0.4-0.7,0.7H154.8z"/>
	<path class="st8" d="M155.9,561.6c0-0.2,0-0.4,0-0.6h0.4l0,0.4h0c0.1-0.2,0.4-0.4,0.8-0.4c0.3,0,0.8,0.2,0.8,1v1.4h-0.4V562
		c0-0.4-0.1-0.7-0.5-0.7c-0.3,0-0.5,0.2-0.6,0.4c0,0.1,0,0.1,0,0.2v1.4h-0.4V561.6z"/>
	<path class="st8" d="M159,562.2c0,0.6,0.4,0.8,0.8,0.8c0.3,0,0.5-0.1,0.7-0.1l0.1,0.3c-0.2,0.1-0.4,0.1-0.8,0.1
		c-0.7,0-1.2-0.5-1.2-1.2c0-0.7,0.4-1.3,1.1-1.3c0.8,0,1,0.7,1,1.1c0,0.1,0,0.2,0,0.2H159z M160.2,561.9c0-0.3-0.1-0.7-0.6-0.7
		c-0.4,0-0.6,0.4-0.7,0.7H160.2z"/>
	<path class="st8" d="M161.3,561.7c0-0.3,0-0.5,0-0.7h0.4l0,0.5h0c0.1-0.3,0.4-0.5,0.7-0.5c0,0,0.1,0,0.1,0v0.4c0,0-0.1,0-0.1,0
		c-0.3,0-0.5,0.2-0.6,0.6c0,0.1,0,0.1,0,0.2v1.3h-0.4V561.7z"/>
	<path class="st8" d="M164.4,563.3l0-0.3h0c-0.1,0.2-0.4,0.4-0.7,0.4c-0.5,0-0.7-0.3-0.7-0.7c0-0.6,0.5-0.9,1.4-0.9v0
		c0-0.2-0.1-0.5-0.5-0.5c-0.2,0-0.4,0.1-0.6,0.2l-0.1-0.3c0.2-0.1,0.5-0.2,0.8-0.2c0.7,0,0.9,0.5,0.9,1v0.9c0,0.2,0,0.4,0,0.6H164.4
		z M164.3,562.1c-0.5,0-1,0.1-1,0.5c0,0.3,0.2,0.4,0.4,0.4c0.3,0,0.5-0.2,0.6-0.4c0,0,0-0.1,0-0.1V562.1z"/>
	<path class="st8" d="M166,560.3v0.7h0.6v0.3H166v1.3c0,0.3,0.1,0.5,0.3,0.5c0.1,0,0.2,0,0.2,0l0,0.3c-0.1,0-0.2,0.1-0.4,0.1
		c-0.2,0-0.4-0.1-0.5-0.2c-0.1-0.1-0.2-0.3-0.2-0.6v-1.3h-0.4V561h0.4v-0.6L166,560.3z"/>
	<path class="st8" d="M167.8,560.3c0,0.1-0.1,0.3-0.3,0.3c-0.2,0-0.3-0.1-0.3-0.3c0-0.2,0.1-0.3,0.3-0.3
		C167.7,560,167.8,560.2,167.8,560.3z M167.3,563.3V561h0.4v2.4H167.3z"/>
	<path class="st8" d="M170.7,562.1c0,0.9-0.6,1.3-1.2,1.3c-0.6,0-1.1-0.5-1.1-1.2c0-0.8,0.5-1.3,1.2-1.3
		C170.2,560.9,170.7,561.4,170.7,562.1z M168.8,562.2c0,0.5,0.3,0.9,0.7,0.9c0.4,0,0.7-0.4,0.7-0.9c0-0.4-0.2-0.9-0.7-0.9
		C169.1,561.2,168.8,561.7,168.8,562.2z"/>
	<path class="st8" d="M171.4,561.6c0-0.2,0-0.4,0-0.6h0.4l0,0.4h0c0.1-0.2,0.4-0.4,0.8-0.4c0.3,0,0.8,0.2,0.8,1v1.4H173V562
		c0-0.4-0.1-0.7-0.5-0.7c-0.3,0-0.5,0.2-0.6,0.4c0,0.1,0,0.1,0,0.2v1.4h-0.4V561.6z"/>
	<path class="st8" d="M176.5,563.3l0-0.3h0c-0.1,0.2-0.4,0.4-0.7,0.4c-0.5,0-0.7-0.3-0.7-0.7c0-0.6,0.5-0.9,1.4-0.9v0
		c0-0.2-0.1-0.5-0.5-0.5c-0.2,0-0.4,0.1-0.6,0.2l-0.1-0.3c0.2-0.1,0.5-0.2,0.8-0.2c0.7,0,0.9,0.5,0.9,1v0.9c0,0.2,0,0.4,0,0.6H176.5
		z M176.4,562.1c-0.5,0-1,0.1-1,0.5c0,0.3,0.2,0.4,0.4,0.4c0.3,0,0.5-0.2,0.6-0.4c0,0,0-0.1,0-0.1V562.1z"/>
	<path class="st8" d="M177.7,561.6c0-0.2,0-0.4,0-0.6h0.4l0,0.4h0c0.1-0.2,0.4-0.4,0.8-0.4c0.3,0,0.8,0.2,0.8,1v1.4h-0.4V562
		c0-0.4-0.1-0.7-0.5-0.7c-0.3,0-0.5,0.2-0.6,0.4c0,0.1,0,0.1,0,0.2v1.4h-0.4V561.6z"/>
	<path class="st8" d="M182.6,559.9v2.8c0,0.2,0,0.4,0,0.6h-0.4l0-0.4h0c-0.1,0.3-0.4,0.5-0.8,0.5c-0.6,0-1-0.5-1-1.2
		c0-0.8,0.5-1.3,1.1-1.3c0.4,0,0.6,0.2,0.7,0.4h0v-1.4H182.6z M182.2,561.9c0-0.1,0-0.1,0-0.2c-0.1-0.3-0.3-0.5-0.6-0.5
		c-0.4,0-0.7,0.4-0.7,0.9c0,0.5,0.2,0.9,0.7,0.9c0.3,0,0.5-0.2,0.6-0.5c0-0.1,0-0.1,0-0.2V561.9z"/>
	<path class="st8" d="M184.4,562.8c0.2,0.1,0.5,0.2,0.8,0.2c0.4,0,0.7-0.2,0.7-0.6c0-0.3-0.2-0.5-0.6-0.7c-0.5-0.2-0.9-0.5-0.9-0.9
		c0-0.5,0.4-0.9,1.1-0.9c0.3,0,0.6,0.1,0.7,0.2l-0.1,0.3c-0.1-0.1-0.3-0.2-0.6-0.2c-0.4,0-0.6,0.3-0.6,0.5c0,0.3,0.2,0.5,0.7,0.6
		c0.6,0.2,0.8,0.5,0.8,1c0,0.5-0.4,0.9-1.1,0.9c-0.3,0-0.7-0.1-0.8-0.2L184.4,562.8z"/>
	<path class="st8" d="M187.5,560.3v0.7h0.6v0.3h-0.6v1.3c0,0.3,0.1,0.5,0.3,0.5c0.1,0,0.2,0,0.2,0l0,0.3c-0.1,0-0.2,0.1-0.4,0.1
		c-0.2,0-0.4-0.1-0.5-0.2c-0.1-0.1-0.2-0.3-0.2-0.6v-1.3h-0.4V561h0.4v-0.6L187.5,560.3z"/>
	<path class="st8" d="M188.8,561.7c0-0.3,0-0.5,0-0.7h0.4l0,0.5h0c0.1-0.3,0.4-0.5,0.7-0.5c0,0,0.1,0,0.1,0v0.4c0,0-0.1,0-0.1,0
		c-0.3,0-0.5,0.2-0.6,0.6c0,0.1,0,0.1,0,0.2v1.3h-0.4V561.7z"/>
	<path class="st8" d="M191.9,563.3l0-0.3h0c-0.1,0.2-0.4,0.4-0.7,0.4c-0.5,0-0.7-0.3-0.7-0.7c0-0.6,0.5-0.9,1.4-0.9v0
		c0-0.2-0.1-0.5-0.5-0.5c-0.2,0-0.4,0.1-0.6,0.2l-0.1-0.3c0.2-0.1,0.5-0.2,0.8-0.2c0.7,0,0.9,0.5,0.9,1v0.9c0,0.2,0,0.4,0,0.6H191.9
		z M191.8,562.1c-0.5,0-1,0.1-1,0.5c0,0.3,0.2,0.4,0.4,0.4c0.3,0,0.5-0.2,0.6-0.4c0,0,0-0.1,0-0.1V562.1z"/>
	<path class="st8" d="M193.5,560.3v0.7h0.6v0.3h-0.6v1.3c0,0.3,0.1,0.5,0.3,0.5c0.1,0,0.2,0,0.2,0l0,0.3c-0.1,0-0.2,0.1-0.4,0.1
		c-0.2,0-0.4-0.1-0.5-0.2c-0.1-0.1-0.2-0.3-0.2-0.6v-1.3h-0.4V561h0.4v-0.6L193.5,560.3z"/>
	<path class="st8" d="M194.9,562.2c0,0.6,0.4,0.8,0.8,0.8c0.3,0,0.5-0.1,0.7-0.1l0.1,0.3c-0.2,0.1-0.4,0.1-0.8,0.1
		c-0.7,0-1.2-0.5-1.2-1.2c0-0.7,0.4-1.3,1.1-1.3c0.8,0,1,0.7,1,1.1c0,0.1,0,0.2,0,0.2H194.9z M196.2,561.9c0-0.3-0.1-0.7-0.6-0.7
		c-0.4,0-0.6,0.4-0.7,0.7H196.2z"/>
	<path class="st8" d="M199.3,561c0,0.2,0,0.4,0,0.6v1.4c0,0.5-0.1,0.9-0.3,1.1c-0.2,0.2-0.6,0.3-0.9,0.3c-0.3,0-0.6-0.1-0.8-0.2
		l0.1-0.3c0.2,0.1,0.4,0.2,0.7,0.2c0.4,0,0.8-0.2,0.8-0.8v-0.3h0c-0.1,0.2-0.4,0.4-0.8,0.4c-0.6,0-1-0.5-1-1.1
		c0-0.8,0.5-1.3,1.1-1.3c0.4,0,0.6,0.2,0.7,0.4h0l0-0.4H199.3z M198.9,561.9c0-0.1,0-0.1,0-0.2c-0.1-0.2-0.3-0.5-0.6-0.5
		c-0.4,0-0.7,0.3-0.7,0.9c0,0.5,0.2,0.8,0.7,0.8c0.3,0,0.5-0.2,0.6-0.4c0-0.1,0-0.2,0-0.2V561.9z"/>
	<path class="st8" d="M200.3,561l0.5,1.4c0.1,0.2,0.1,0.3,0.2,0.5h0c0-0.1,0.1-0.3,0.2-0.5l0.5-1.4h0.5l-0.6,1.7
		c-0.3,0.8-0.5,1.2-0.8,1.5c-0.2,0.2-0.4,0.3-0.5,0.3L200,564c0.1,0,0.2-0.1,0.4-0.2c0.1-0.1,0.3-0.3,0.4-0.5c0,0,0-0.1,0-0.1
		s0-0.1,0-0.1l-0.9-2.2H200.3z"/>
	<path class="st8" d="M202.4,563.1l1.1-1.4c0.1-0.1,0.2-0.2,0.3-0.4v0h-1.3V561h1.8l0,0.3l-1.1,1.4c-0.1,0.1-0.2,0.2-0.3,0.4v0h1.4
		v0.3h-1.9V563.1z"/>
	<path class="st8" d="M205.1,562.2c0,0.6,0.4,0.8,0.8,0.8c0.3,0,0.5-0.1,0.7-0.1l0.1,0.3c-0.2,0.1-0.4,0.1-0.8,0.1
		c-0.7,0-1.2-0.5-1.2-1.2c0-0.7,0.4-1.3,1.1-1.3c0.8,0,1,0.7,1,1.1c0,0.1,0,0.2,0,0.2H205.1z M206.3,561.9c0-0.3-0.1-0.7-0.6-0.7
		c-0.4,0-0.6,0.4-0.7,0.7H206.3z"/>
	<path class="st8" d="M207.4,561.7c0-0.3,0-0.5,0-0.7h0.4l0,0.5h0c0.1-0.3,0.4-0.5,0.7-0.5c0,0,0.1,0,0.1,0v0.4c0,0-0.1,0-0.1,0
		c-0.3,0-0.5,0.2-0.6,0.6c0,0.1,0,0.1,0,0.2v1.3h-0.4V561.7z"/>
</g>
<g class="st0">
	<defs>
		<rect id="SVGID_3_" x="59.7" y="3.8" class="st0" width="826.6" height="584.5"/>
	</defs>
	<clipPath id="SVGID_4_">
		<use xlink:href="#SVGID_3_"  style="overflow:visible;"/>
	</clipPath>
	<g class="st18">
		<path class="st8" d="M89.6,41.8h-4v-1.4h9.7v1.4h-4v11.7h-1.7V41.8z"/>
		<path class="st8" d="M96.7,39.7h1.7v5.9h0c0.3-0.5,0.7-0.9,1.2-1.2c0.5-0.3,1.1-0.5,1.7-0.5c1.3,0,3.3,0.8,3.3,4v5.6H103v-5.4
			c0-1.5-0.6-2.8-2.2-2.8c-1.1,0-2,0.8-2.3,1.7c-0.1,0.2-0.1,0.5-0.1,0.8v5.7h-1.7V39.7z"/>
		<path class="st8" d="M108.4,49.1c0,2.3,1.5,3.3,3.2,3.3c1.2,0,2-0.2,2.6-0.5l0.3,1.2c-0.6,0.3-1.6,0.6-3.1,0.6
			c-2.9,0-4.6-1.9-4.6-4.7s1.7-5.1,4.4-5.1c3.1,0,3.9,2.7,3.9,4.4c0,0.4,0,0.6-0.1,0.8H108.4z M113.4,47.9c0-1.1-0.4-2.8-2.4-2.8
			c-1.7,0-2.5,1.6-2.6,2.8H113.4z"/>
		<path class="st8" d="M124.3,53.5L120,40.4h1.8l2,6.5c0.6,1.8,1,3.4,1.4,4.9h0c0.4-1.5,0.9-3.2,1.5-4.9l2.2-6.5h1.8l-4.7,13.1
			H124.3z"/>
		<path class="st8" d="M137,53.5l-0.1-1.2h-0.1c-0.5,0.7-1.5,1.4-2.9,1.4c-1.9,0-2.9-1.3-2.9-2.7c0-2.3,2-3.5,5.7-3.5v-0.2
			c0-0.8-0.2-2.2-2.1-2.2c-0.9,0-1.8,0.3-2.4,0.7l-0.4-1.1c0.8-0.5,1.9-0.8,3.1-0.8c2.9,0,3.6,2,3.6,3.8v3.5c0,0.8,0,1.6,0.2,2.3
			H137z M136.7,48.7c-1.9,0-4,0.3-4,2.1c0,1.1,0.7,1.6,1.6,1.6c1.2,0,2-0.8,2.3-1.6c0.1-0.2,0.1-0.4,0.1-0.5V48.7z"/>
		<path class="st8" d="M141.1,39.7h1.7v13.8h-1.7V39.7z"/>
		<path class="st8" d="M153.6,50.9c0,1,0,1.8,0.1,2.6h-1.5l-0.1-1.5h0c-0.4,0.8-1.4,1.7-3.1,1.7c-1.5,0-3.2-0.8-3.2-4.1v-5.5h1.7
			v5.2c0,1.8,0.5,3,2.1,3c1.1,0,1.9-0.8,2.3-1.6c0.1-0.3,0.2-0.6,0.2-0.9v-5.8h1.7V50.9z"/>
		<path class="st8" d="M157.4,49.1c0,2.3,1.5,3.3,3.2,3.3c1.2,0,2-0.2,2.6-0.5l0.3,1.2c-0.6,0.3-1.6,0.6-3.1,0.6
			c-2.9,0-4.6-1.9-4.6-4.7s1.7-5.1,4.4-5.1c3.1,0,3.9,2.7,3.9,4.4c0,0.4,0,0.6-0.1,0.8H157.4z M162.4,47.9c0-1.1-0.4-2.8-2.4-2.8
			c-1.7,0-2.5,1.6-2.6,2.8H162.4z"/>
		<path class="st8" d="M170.4,40.6c0.8-0.1,1.9-0.3,3.2-0.3c1.7,0,2.9,0.4,3.7,1.1c0.7,0.6,1.1,1.6,1.1,2.7c0,1.2-0.4,2.1-1,2.8
			c-0.9,1-2.4,1.4-4,1.4c-0.5,0-1,0-1.4-0.1v5.2h-1.7V40.6z M172,46.9c0.4,0.1,0.8,0.1,1.4,0.1c2,0,3.3-1,3.3-2.8
			c0-1.7-1.2-2.6-3.1-2.6c-0.7,0-1.3,0.1-1.6,0.1V46.9z"/>
		<path class="st8" d="M180.6,47c0-1.1,0-2.1-0.1-2.9h1.5l0.1,1.8h0.1c0.4-1.3,1.5-2.1,2.6-2.1c0.2,0,0.3,0,0.5,0.1v1.6
			c-0.2,0-0.3-0.1-0.6-0.1c-1.2,0-2.1,0.9-2.3,2.2c0,0.2-0.1,0.5-0.1,0.8v5h-1.7V47z"/>
		<path class="st8" d="M195.4,48.7c0,3.5-2.4,5-4.7,5c-2.5,0-4.5-1.9-4.5-4.8c0-3.1,2.1-5,4.7-5C193.6,43.9,195.4,45.9,195.4,48.7z
			 M187.9,48.8c0,2.1,1.2,3.6,2.9,3.6c1.6,0,2.9-1.5,2.9-3.7c0-1.6-0.8-3.6-2.8-3.6C188.8,45.2,187.9,47,187.9,48.8z"/>
		<path class="st8" d="M197.6,47.2c0-1.2,0-2.2-0.1-3.1h1.5l0.1,1.6h0c0.7-1.1,1.8-1.8,3.3-1.8c2.3,0,4,1.9,4,4.8
			c0,3.4-2.1,5.1-4.3,5.1c-1.2,0-2.3-0.5-2.9-1.5h0v5.1h-1.7V47.2z M199.2,49.7c0,0.3,0,0.5,0.1,0.7c0.3,1.2,1.3,2,2.6,2
			c1.8,0,2.9-1.5,2.9-3.6c0-1.9-1-3.5-2.8-3.5c-1.2,0-2.3,0.8-2.6,2.1c-0.1,0.2-0.1,0.5-0.1,0.7V49.7z"/>
		<path class="st8" d="M217.1,48.7c0,3.5-2.4,5-4.7,5c-2.5,0-4.5-1.9-4.5-4.8c0-3.1,2.1-5,4.7-5C215.3,43.9,217.1,45.9,217.1,48.7z
			 M209.7,48.8c0,2.1,1.2,3.6,2.9,3.6c1.6,0,2.9-1.5,2.9-3.7c0-1.6-0.8-3.6-2.8-3.6C210.5,45.2,209.7,47,209.7,48.8z"/>
		<path class="st8" d="M219.1,51.8c0.5,0.3,1.4,0.7,2.3,0.7c1.2,0,1.8-0.6,1.8-1.4c0-0.8-0.5-1.3-1.7-1.7c-1.7-0.6-2.5-1.5-2.5-2.7
			c0-1.5,1.2-2.8,3.2-2.8c1,0,1.8,0.3,2.3,0.6l-0.4,1.2c-0.4-0.2-1-0.5-1.9-0.5c-1,0-1.6,0.6-1.6,1.3c0,0.8,0.6,1.1,1.8,1.6
			c1.6,0.6,2.5,1.4,2.5,2.8c0,1.7-1.3,2.8-3.5,2.8c-1,0-2-0.3-2.6-0.6L219.1,51.8z"/>
		<path class="st8" d="M228.9,41.5c0,0.6-0.4,1-1.1,1c-0.6,0-1-0.5-1-1c0-0.6,0.4-1.1,1.1-1.1C228.5,40.4,228.9,40.9,228.9,41.5z
			 M227,53.5v-9.4h1.7v9.4H227z"/>
		<path class="st8" d="M233.6,41.4v2.7h2.4v1.3h-2.4v5.1c0,1.2,0.3,1.8,1.3,1.8c0.4,0,0.8-0.1,1-0.1l0.1,1.3
			c-0.3,0.1-0.9,0.2-1.5,0.2c-0.8,0-1.4-0.3-1.8-0.7c-0.5-0.5-0.7-1.3-0.7-2.4v-5.1h-1.5v-1.3h1.5v-2.3L233.6,41.4z"/>
		<path class="st8" d="M239.9,41.5c0,0.6-0.4,1-1.1,1c-0.6,0-1-0.5-1-1c0-0.6,0.4-1.1,1.1-1.1C239.5,40.4,239.9,40.9,239.9,41.5z
			 M238,53.5v-9.4h1.7v9.4H238z"/>
		<path class="st8" d="M251,48.7c0,3.5-2.4,5-4.7,5c-2.5,0-4.5-1.9-4.5-4.8c0-3.1,2.1-5,4.7-5C249.2,43.9,251,45.9,251,48.7z
			 M243.6,48.8c0,2.1,1.2,3.6,2.9,3.6c1.6,0,2.9-1.5,2.9-3.7c0-1.6-0.8-3.6-2.8-3.6C244.4,45.2,243.6,47,243.6,48.8z"/>
		<path class="st8" d="M253.2,46.6c0-1,0-1.8-0.1-2.5h1.5l0.1,1.6h0c0.5-0.9,1.6-1.8,3.1-1.8c1.3,0,3.3,0.8,3.3,4v5.6h-1.7v-5.4
			c0-1.5-0.6-2.8-2.2-2.8c-1.1,0-2,0.8-2.3,1.7c-0.1,0.2-0.1,0.5-0.1,0.8v5.7h-1.7V46.6z"/>
		<path class="st8" d="M277.3,53.1c-0.6,0.3-1.9,0.6-3.5,0.6c-3.7,0-6.5-2.3-6.5-6.6c0-4.1,2.8-6.9,6.8-6.9c1.6,0,2.7,0.4,3.1,0.6
			l-0.4,1.4c-0.6-0.3-1.6-0.5-2.6-0.5c-3.1,0-5.1,2-5.1,5.4c0,3.2,1.8,5.3,5,5.3c1,0,2.1-0.2,2.8-0.5L277.3,53.1z"/>
		<path class="st8" d="M284.6,53.5l-0.1-1.2h-0.1c-0.5,0.7-1.5,1.4-2.9,1.4c-1.9,0-2.9-1.3-2.9-2.7c0-2.3,2-3.5,5.7-3.5v-0.2
			c0-0.8-0.2-2.2-2.1-2.2c-0.9,0-1.8,0.3-2.4,0.7l-0.4-1.1c0.8-0.5,1.9-0.8,3.1-0.8c2.9,0,3.6,2,3.6,3.8v3.5c0,0.8,0,1.6,0.2,2.3
			H284.6z M284.3,48.7c-1.9,0-4,0.3-4,2.1c0,1.1,0.7,1.6,1.6,1.6c1.2,0,2-0.8,2.3-1.6c0.1-0.2,0.1-0.4,0.1-0.5V48.7z"/>
		<path class="st8" d="M288.7,46.6c0-1,0-1.8-0.1-2.5h1.5l0.1,1.6h0c0.5-0.9,1.6-1.8,3.1-1.8c1.3,0,3.3,0.8,3.3,4v5.6H295v-5.4
			c0-1.5-0.6-2.8-2.2-2.8c-1.1,0-2,0.8-2.3,1.7c-0.1,0.2-0.1,0.5-0.1,0.8v5.7h-1.7V46.6z"/>
		<path class="st8" d="M300.1,44.1l1.8,5.3c0.3,0.9,0.6,1.6,0.8,2.4h0.1c0.2-0.8,0.5-1.6,0.8-2.4l1.8-5.3h1.8l-3.7,9.4h-1.6
			l-3.6-9.4H300.1z"/>
		<path class="st8" d="M314,53.5l-0.1-1.2h-0.1c-0.5,0.7-1.5,1.4-2.9,1.4c-1.9,0-2.9-1.3-2.9-2.7c0-2.3,2-3.5,5.7-3.5v-0.2
			c0-0.8-0.2-2.2-2.1-2.2c-0.9,0-1.8,0.3-2.4,0.7l-0.4-1.1c0.8-0.5,1.9-0.8,3.1-0.8c2.9,0,3.6,2,3.6,3.8v3.5c0,0.8,0,1.6,0.2,2.3
			H314z M313.7,48.7c-1.9,0-4,0.3-4,2.1c0,1.1,0.7,1.6,1.6,1.6c1.2,0,2-0.8,2.3-1.6c0.1-0.2,0.1-0.4,0.1-0.5V48.7z"/>
		<path class="st8" d="M317.9,51.8c0.5,0.3,1.4,0.7,2.3,0.7c1.2,0,1.8-0.6,1.8-1.4c0-0.8-0.5-1.3-1.7-1.7c-1.7-0.6-2.5-1.5-2.5-2.7
			c0-1.5,1.2-2.8,3.2-2.8c1,0,1.8,0.3,2.3,0.6l-0.4,1.2c-0.4-0.2-1-0.5-1.9-0.5c-1,0-1.6,0.6-1.6,1.3c0,0.8,0.6,1.1,1.8,1.6
			c1.6,0.6,2.5,1.4,2.5,2.8c0,1.7-1.3,2.8-3.5,2.8c-1,0-2-0.3-2.6-0.6L317.9,51.8z"/>
	</g>
	<line class="st19" x1="678" y1="320.1" x2="805.8" y2="192.4"/>
	<line class="st19" x1="678" y1="319.9" x2="805.8" y2="447.7"/>
	<path class="st20" d="M656.8,336.9c2.6,3.4,5.9,6.3,9.9,8.2c15.5,7.7,34.2,0.2,40-16.1c4.7-13.4-1.4-28.5-14.2-34.9
		c-15.5-7.7-34.2-0.2-40,16.1l-4.6,11.4c-0.6,1.5,0.1,3.2,1.6,3.9l2.3,0.9c0.5,2.2,1.3,4.3,2.4,6.3l9.5,0.5L656.8,336.9z"/>
	<path class="st18" d="M658.7,337.3c2.4,2.9,5.3,5.1,8.6,6.8c3.9,1.9,8,2.9,12.3,2.9c11.7,0,22.1-7.4,26-18.4
		c4.6-12.9-1.3-27.3-13.6-33.4c-3.9-1.9-8-2.9-12.3-2.9c-11.7,0-22.1,7.4-26,18.4l-4.6,11.4c-0.4,0.9,0.1,1.9,1,2.3l2.9,1.2l0.1,0.6
		c0.5,2,1.1,3.8,2,5.5l13.2,0.7L658.7,337.3z M679.6,349.4L679.6,349.4c-4.7,0-9.2-1.1-13.4-3.2c-4.1-2-7.6-4.9-10.3-8.6l-0.9-1.1
		l4.3-2.3l-5.9-0.3l-0.3-0.6c-1-1.8-1.7-3.9-2.3-6l-1.7-0.7c-2.1-0.9-3.1-3.3-2.3-5.4l4.6-11.4c4.2-11.9,15.5-19.9,28.2-19.9
		c4.7,0,9.2,1.1,13.4,3.2c13.4,6.7,19.8,22.3,14.8,36.4C703.6,341.4,692.3,349.4,679.6,349.4"/>
	<path class="st18" d="M666.2,313.5c-0.4,1.7-2.3,2.5-3.8,1.5c-0.8-0.5-1.2-1.6-1-2.5c0.4-1.7,2.3-2.5,3.8-1.5
		C666,311.5,666.4,312.6,666.2,313.5"/>
</g>
<g class="st0">
	<path class="st8" d="M797.6,561.2c0.2,0.1,0.6,0.3,1,0.3c0.5,0,0.8-0.3,0.8-0.6c0-0.4-0.2-0.5-0.8-0.7c-0.7-0.3-1.1-0.7-1.1-1.1
		c0-0.6,0.5-1.2,1.4-1.2c0.4,0,0.8,0.1,1,0.3l-0.2,0.5c-0.2-0.1-0.4-0.2-0.8-0.2c-0.4,0-0.7,0.3-0.7,0.5c0,0.3,0.2,0.5,0.8,0.7
		c0.7,0.3,1.1,0.6,1.1,1.2c0,0.7-0.5,1.2-1.5,1.2c-0.4,0-0.8-0.1-1.1-0.3L797.6,561.2z"/>
	<path class="st8" d="M801.9,556.8v1.2h1v0.6h-1v2.2c0,0.5,0.1,0.8,0.5,0.8c0.2,0,0.3,0,0.4,0l0,0.5c-0.1,0.1-0.4,0.1-0.6,0.1
		c-0.3,0-0.6-0.1-0.8-0.3c-0.2-0.2-0.3-0.6-0.3-1v-2.2h-0.6v-0.6h0.6v-1L801.9,556.8z"/>
	<path class="st8" d="M803.7,559.2c0-0.5,0-0.9,0-1.3h0.6l0,0.8h0c0.2-0.5,0.6-0.9,1.1-0.9c0.1,0,0.1,0,0.2,0v0.7
		c-0.1,0-0.2,0-0.3,0c-0.5,0-0.9,0.4-1,0.9c0,0.1,0,0.2,0,0.3v2.1h-0.7V559.2z"/>
	<path class="st8" d="M808.6,562l-0.1-0.5h0c-0.2,0.3-0.7,0.6-1.2,0.6c-0.8,0-1.2-0.6-1.2-1.2c0-1,0.9-1.5,2.4-1.5v-0.1
		c0-0.3-0.1-0.9-0.9-0.9c-0.4,0-0.8,0.1-1,0.3l-0.2-0.5c0.3-0.2,0.8-0.4,1.3-0.4c1.2,0,1.5,0.8,1.5,1.6v1.5c0,0.4,0,0.7,0.1,1H808.6
		z M808.5,559.9c-0.8,0-1.7,0.1-1.7,0.9c0,0.5,0.3,0.7,0.7,0.7c0.5,0,0.9-0.3,1-0.7c0-0.1,0-0.2,0-0.2V559.9z"/>
	<path class="st8" d="M811.3,556.8v1.2h1v0.6h-1v2.2c0,0.5,0.1,0.8,0.5,0.8c0.2,0,0.3,0,0.4,0l0,0.5c-0.1,0.1-0.4,0.1-0.6,0.1
		c-0.3,0-0.6-0.1-0.8-0.3c-0.2-0.2-0.3-0.6-0.3-1v-2.2h-0.6v-0.6h0.6v-1L811.3,556.8z"/>
	<path class="st8" d="M813.6,560.1c0,1,0.6,1.4,1.4,1.4c0.5,0,0.8-0.1,1.1-0.2l0.1,0.5c-0.3,0.1-0.7,0.3-1.3,0.3c-1.2,0-2-0.8-2-2
		c0-1.2,0.7-2.2,1.9-2.2c1.3,0,1.7,1.2,1.7,1.9c0,0.2,0,0.3,0,0.3H813.6z M815.7,559.6c0-0.5-0.2-1.2-1-1.2c-0.7,0-1.1,0.7-1.1,1.2
		H815.7z"/>
	<path class="st8" d="M820.8,557.9c0,0.3,0,0.6,0,1.1v2.3c0,0.9-0.2,1.5-0.6,1.8c-0.4,0.4-1,0.5-1.5,0.5c-0.5,0-1-0.1-1.3-0.3
		l0.2-0.6c0.3,0.2,0.7,0.3,1.2,0.3c0.7,0,1.3-0.4,1.3-1.4v-0.5h0c-0.2,0.4-0.7,0.7-1.3,0.7c-1,0-1.7-0.8-1.7-2
		c0-1.4,0.9-2.1,1.8-2.1c0.7,0,1.1,0.4,1.3,0.7h0l0-0.6H820.8z M820.1,559.5c0-0.1,0-0.2,0-0.3c-0.1-0.4-0.5-0.8-1-0.8
		c-0.7,0-1.2,0.6-1.2,1.5c0,0.8,0.4,1.4,1.2,1.4c0.5,0,0.9-0.3,1-0.7c0-0.1,0.1-0.3,0.1-0.4V559.5z"/>
	<path class="st8" d="M822.3,557.9l0.9,2.4c0.1,0.3,0.2,0.6,0.3,0.8h0c0.1-0.2,0.2-0.5,0.3-0.8l0.8-2.4h0.8l-1.1,2.9
		c-0.5,1.4-0.9,2.1-1.4,2.5c-0.4,0.3-0.7,0.4-0.9,0.5l-0.2-0.6c0.2-0.1,0.4-0.2,0.6-0.4c0.2-0.2,0.5-0.4,0.6-0.8
		c0-0.1,0.1-0.1,0.1-0.2s0-0.1,0-0.2l-1.5-3.7H822.3z"/>
	<path class="st8" d="M825.1,561.5l1.8-2.4c0.2-0.2,0.3-0.4,0.5-0.6v0h-2.2v-0.6h3.1l0,0.5l-1.8,2.3c-0.2,0.2-0.3,0.4-0.5,0.6v0h2.4
		v0.6h-3.3V561.5z"/>
	<path class="st8" d="M829.5,560.1c0,1,0.6,1.4,1.4,1.4c0.5,0,0.8-0.1,1.1-0.2l0.1,0.5c-0.3,0.1-0.7,0.3-1.3,0.3c-1.2,0-2-0.8-2-2
		c0-1.2,0.7-2.2,1.9-2.2c1.3,0,1.7,1.2,1.7,1.9c0,0.2,0,0.3,0,0.3H829.5z M831.7,559.6c0-0.5-0.2-1.2-1-1.2c-0.7,0-1.1,0.7-1.1,1.2
		H831.7z"/>
	<path class="st8" d="M833.3,559.2c0-0.5,0-0.9,0-1.3h0.6l0,0.8h0c0.2-0.5,0.6-0.9,1.1-0.9c0.1,0,0.1,0,0.2,0v0.7
		c-0.1,0-0.2,0-0.3,0c-0.5,0-0.9,0.4-1,0.9c0,0.1,0,0.2,0,0.3v2.1h-0.7V559.2z"/>
	<path class="st8" d="M835.3,561.5c0-0.3,0.2-0.5,0.5-0.5c0.3,0,0.5,0.2,0.5,0.5c0,0.3-0.2,0.5-0.5,0.5
		C835.5,562.1,835.3,561.8,835.3,561.5z"/>
	<path class="st8" d="M840.1,561.8c-0.2,0.1-0.6,0.2-1.2,0.2c-1.2,0-2-0.8-2-2.1c0-1.2,0.8-2.1,2.2-2.1c0.4,0,0.8,0.1,1,0.2
		l-0.2,0.6c-0.2-0.1-0.5-0.2-0.9-0.2c-0.9,0-1.4,0.7-1.4,1.5c0,0.9,0.6,1.5,1.4,1.5c0.4,0,0.7-0.1,0.9-0.2L840.1,561.8z"/>
	<path class="st8" d="M844.6,559.9c0,1.5-1,2.1-2,2.1c-1.1,0-1.9-0.8-1.9-2.1c0-1.3,0.9-2.1,2-2.1
		C843.8,557.8,844.6,558.7,844.6,559.9z M841.4,560c0,0.9,0.5,1.5,1.2,1.5c0.7,0,1.2-0.7,1.2-1.6c0-0.7-0.3-1.5-1.2-1.5
		C841.8,558.4,841.4,559.2,841.4,560z"/>
	<path class="st8" d="M845.5,559c0-0.4,0-0.8,0-1.1h0.6l0,0.6h0c0.2-0.4,0.6-0.7,1.3-0.7c0.5,0,1,0.3,1.1,0.8h0
		c0.1-0.2,0.3-0.4,0.5-0.5c0.2-0.2,0.5-0.3,0.9-0.3c0.5,0,1.3,0.3,1.3,1.8v2.4h-0.7v-2.3c0-0.8-0.3-1.2-0.9-1.2
		c-0.4,0-0.7,0.3-0.9,0.7c0,0.1-0.1,0.2-0.1,0.4v2.5H848v-2.4c0-0.6-0.3-1.1-0.8-1.1c-0.5,0-0.8,0.4-0.9,0.7c0,0.1-0.1,0.2-0.1,0.4
		v2.4h-0.7V559z"/>
</g>
<g class="st0">
	<defs>
		<rect id="SVGID_5_" x="59.7" y="3.8" class="st0" width="826.6" height="584.5"/>
	</defs>
	<clipPath id="SVGID_6_">
		<use xlink:href="#SVGID_5_"  style="overflow:visible;"/>
	</clipPath>
	<path class="st21" d="M736.1,537.9l1.9,2.4c0.5-0.4,1.2-0.6,1.9-0.6c0.7,0,1.3,0.2,1.8,0.6l1.9-2.4c-1-0.7-2.3-1.2-3.7-1.2
		C738.4,536.7,737.1,537.2,736.1,537.9 M736.6,542.7c0,1.7,1.4,3,3.1,3c1.7,0,3.1-1.3,3.1-3c0-1-0.5-1.9-1.3-2.4l-1.8,2.4l-1.9-2.4
		C737.1,540.9,736.6,541.7,736.6,542.7 M749.2,542.7c0,5-4.2,9-9.4,9c-5.2,0-9.4-4-9.4-9c0-3,1.5-5.6,3.8-7.2l1.9,2.4
		c-1.6,1.1-2.6,2.8-2.6,4.8c0,3.3,2.8,6,6.3,6c3.5,0,6.3-2.7,6.3-6c0-2-1-3.7-2.6-4.8l1.9-2.4C747.6,537.1,749.2,539.7,749.2,542.7"
		/>
	<path class="st21" d="M761.8,539.5l-2.3,1.4c-0.8-1-2-1.5-3.2-1.5c-1.1,0-1.9,0.4-1.9,1.2c0,0.9,1.2,1.1,2.6,1.3
		c2.7,0.5,5.1,1.3,5.1,3.9c0,2.3-2.1,4-5.5,4c-2.8,0-4.9-1.1-6-3.1l2.4-1.2c0.8,1.4,2.2,1.9,3.7,1.9c1.4,0,2.2-0.5,2.2-1.3
		c0-1-1.3-1.2-2.8-1.5c-2.6-0.4-5-1.2-5-3.8c0-2.3,2.2-4,5.2-4C758.5,536.7,760.6,537.6,761.8,539.5"/>
	<path class="st21" d="M770.6,548.7c-0.7,0.5-1.6,1-2.8,1c-1.3,0-2.3-0.4-2.9-1.2c-0.4-0.6-0.5-1.3-0.5-2.3v-4.5h-1.6v-2.5h1.6v-2.5
		h3.1v2.5h2.6v2.5h-2.6v4.5c0,0.8,0.4,1,1,1c0.5,0,0.7-0.3,1-0.5L770.6,548.7z"/>
	<path class="st21" d="M797.2,548.7c-0.7,0.5-1.6,1-2.8,1c-1.3,0-2.3-0.4-2.9-1.2c-0.4-0.6-0.5-1.3-0.5-2.3v-4.5h-1.6v-2.5h1.6v-2.5
		h3.1v2.5h2.6v2.5H794v4.5c0,0.8,0.4,1,1,1c0.5,0,0.7-0.3,1-0.5L797.2,548.7z"/>
	<path class="st21" d="M785.2,544.5c-0.4,0.5-1.1,0.5-1.9,0.6c-0.7,0.1-1.5,0.3-1.5,1.2c0,0.8,0.6,1.1,1.4,1.1
		c1.1,0,1.9-0.6,1.9-1.8V544.5z M779.4,540.2c1.4-0.8,2.6-1,4.2-1c2.6,0,4.7,1,4.7,3.5v4c0,0.5,0,0.8,0.4,0.8c0.2,0,0.6-0.2,0.7-0.3
		l0.1,1.9c-0.4,0.2-1.2,0.6-1.7,0.6c-1,0-1.8-0.6-2.1-1.5c-0.7,1-1.9,1.5-3.1,1.5c-2.1,0-3.7-1-3.7-3c0-2.4,2.1-3.4,3.7-3.5
		c1.6-0.1,2.6-0.3,2.6-1c0-0.8-0.9-0.7-1.7-0.7c-1,0-2.1,0.1-3,0.7L779.4,540.2z"/>
	<path class="st21" d="M805.1,543.2c-0.1-1.2-1-1.9-2.3-1.9c-1.3,0-2.2,0.7-2.3,1.9H805.1z M807.9,545.1h-7.4c0.1,1.3,1.1,2,2.6,2
		c1.2,0,2.2-0.4,2.8-1.2l1.9,1.7c-1.1,1.1-2.7,2-4.9,2c-3.7,0-5.7-2.5-5.7-5c0-3,2.2-5.5,5.6-5.5c3.3,0,5.4,2,5.4,5
		C808.1,544.5,808,544.9,807.9,545.1"/>
	<path class="st21" d="M850,543.2c-0.1-1.2-1-1.9-2.3-1.9c-1.3,0-2.2,0.7-2.3,1.9H850z M852.8,545.1h-7.4c0.1,1.3,1.1,2,2.6,2
		c1.2,0,2.2-0.4,2.8-1.2l1.9,1.7c-1.1,1.1-2.7,2-4.9,2c-3.7,0-5.7-2.5-5.7-5c0-3,2.2-5.5,5.6-5.5c3.3,0,5.4,2,5.4,5
		C853,544.5,852.9,544.9,852.8,545.1"/>
	<path class="st21" d="M814.8,541.6c-1.5,0-2.5,1-2.5,2.4c0,1.4,1,2.4,2.5,2.4c1.5,0,2.4-1.1,2.4-2.4
		C817.3,542.6,816.4,541.6,814.8,541.6 M820.1,547.4c0,1.6-0.2,2.8-1.1,3.8c-1.2,1.3-3.1,1.6-4.8,1.6c-1.8,0-3.2-0.4-4.5-1.1
		l1.1-2.2c0.8,0.5,2,0.9,3.4,0.9c1.7,0,3.1-0.6,3.1-2.3v-0.7c-0.8,0.9-2.1,1.3-3.4,1.3c-2.8,0-4.7-2.1-4.7-4.7
		c0-2.7,1.9-4.8,4.7-4.8c1.3,0,2.6,0.5,3.4,1.3v-1.3h2.9V547.4z"/>
	<path class="st21" d="M828,549.6c-0.8,2.1-1.9,3.1-3.9,3.1c-1,0-2-0.3-2.7-0.8l1.1-1.9c0.4,0.2,0.8,0.4,1.2,0.4
		c0.7,0,1-0.4,1.3-0.9l0.3-0.5l-4-9.8h3.1l2.4,6.4l2.3-6.4h3.1L828,549.6z"/>
	<polygon class="st21" points="832.2,549.7 832.2,547.3 837.9,541.7 832.7,541.7 832.7,539.2 841.5,539.2 841.5,541.4 836.3,546.7 
		841.5,546.7 841.5,549.7 	"/>
	<path class="st21" d="M860.3,542.3c-0.3-0.2-0.7-0.3-1.2-0.3c-1.2,0-2,1-2,2.4v4.8h-3.1v-10h3.1v1.5c0.6-1,1.5-1.5,2.6-1.5
		c0.5,0,1,0.1,1.3,0.2L860.3,542.3z"/>
	<path class="st21" d="M777.9,542.3c-0.3-0.2-0.7-0.3-1.2-0.3c-1.2,0-2,1-2,2.4v4.8h-3.1v-10h3.1v1.5c0.6-1,1.5-1.5,2.6-1.5
		c0.5,0,1,0.1,1.3,0.2L777.9,542.3z"/>
</g>
</svg>
