<?xml version="1.0" encoding="utf-8"?>
<!-- Generator: Adobe Illustrator 23.1.0, SVG Export Plug-In . SVG Version: 6.00 Build 0)  -->
<svg version="1.1" id="Layer_1" xmlns="http://www.w3.org/2000/svg" xmlns:xlink="http://www.w3.org/1999/xlink" x="0px" y="0px"
	 viewBox="0 0 28 28" style="enable-background:new 0 0 28 28;" xml:space="preserve">
<style type="text/css">
	.st0{display:none;}
	.st1{display:inline;stroke:#FFFFFF;stroke-miterlimit:10;}
	.st2{fill:#F7F7F7;}
</style>
<g class="st0">
	<circle class="st1" cx="14" cy="-48" r="30"/>
</g>
<g>
	<path class="st2" d="M14.8,21.2L14.8,21.2c-2.7,0-4.8-2.2-4.8-4.8V6.7c0-2.7,2.2-4.8,4.8-4.8l0,0c2.7,0,4.8,2.2,4.8,4.8v9.7
		C19.6,19.1,17.5,21.2,14.8,21.2z"/>
	<path class="st2" d="M9.8,22.7c-1.2-1-2.1-2.5-2.1-4.2c0-0.3,0.2-0.5,0.5-0.5s0.5,0.2,0.5,0.5c0,2.4,1.9,4.3,4.3,4.3h3.7
		c2.4,0,4.3-1.9,4.3-4.3c0-0.3,0.2-0.5,0.5-0.5s0.5,0.2,0.5,0.5c0,1.9-1,3.5-2.5,4.5c-0.9,0.3-1.5,1.5-2.3,2.3c-1,1-3.6,0.9-4.7-0.1
		C12.5,25.2,11,23.3,9.8,22.7z"/>
</g>
</svg>
