<?xml version="1.0" encoding="utf-8"?>
<!-- Generator: Adobe Illustrator 23.1.0, SVG Export Plug-In . SVG Version: 6.00 Build 0)  -->
<svg version="1.1" id="Layer_1" xmlns="http://www.w3.org/2000/svg" xmlns:xlink="http://www.w3.org/1999/xlink" x="0px" y="0px"
	 viewBox="0 0 28 28" style="enable-background:new 0 0 28 28;" xml:space="preserve">
<style type="text/css">
	.st0{display:none;}
	.st1{display:inline;stroke:#FFFFFF;stroke-miterlimit:10;}
	.st2{fill:#E82125;}
</style>
<g class="st0">
	<circle class="st1" cx="14" cy="-48" r="30"/>
</g>
<path class="st2" d="M22.1,18.5c0-0.6-0.4-1-1-1s-1,0.4-1,1c0,2.1-1.7,3.8-3.8,3.8h-3.7c-2.1,0-3.8-1.7-3.8-3.8c0-0.6-0.4-1-1-1
	s-1,0.4-1,1c0,2.5,1.6,4.6,3.8,5.4c0.5,0.4,0.9,0.8,1.4,1.3c1.1,1,3.7,1.1,4.7,0.1c0.4-0.4,0.9-0.9,1.3-1.3
	C20.4,23.3,22.1,21.1,22.1,18.5z"/>
<g>
	<path class="st2" d="M19.1,6.1C18.8,3.8,16.8,2,14.3,2c-2.6,0-4.8,2-4.8,4.8v4.8L19.1,6.1z"/>
	<path class="st2" d="M9.8,17.5c0.5,2.1,2.4,3.7,4.7,3.7c2.7,0,4.8-2,4.8-4.8V12L9.8,17.5z"/>
</g>
<path class="st2" d="M4.5,18.6c-0.3,0-0.7-0.2-0.9-0.5C3.4,17.6,3.5,17,4,16.7L22.1,6.2c0.5-0.3,1.1-0.1,1.4,0.4
	c0.3,0.5,0.1,1.1-0.4,1.4L5,18.5C4.8,18.6,4.7,18.6,4.5,18.6z"/>
</svg>
