<?xml version="1.0" encoding="utf-8"?>
<!-- Generator: Adobe Illustrator 23.1.0, SVG Export Plug-In . SVG Version: 6.00 Build 0)  -->
<svg version="1.1" id="Layer_1" xmlns="http://www.w3.org/2000/svg" xmlns:xlink="http://www.w3.org/1999/xlink" x="0px" y="0px"
	 viewBox="0 0 28 28" style="enable-background:new 0 0 28 28;" xml:space="preserve">
<style type="text/css">
	.st0{display:none;}
	.st1{display:inline;stroke:#FFFFFF;stroke-miterlimit:10;}
	.st2{fill:#F7F7F7;}
</style>
<g class="st0">
	<circle class="st1" cx="14" cy="-48" r="30"/>
</g>
<g>
	<polyline class="st2" points="15.7,19.3 22,27.1 22,19.3 	"/>
	<g>
		<path class="st2" d="M7.2,2.2c-2.9,0-5.3,2.4-5.3,5.3V14c0,2.9,2.4,5.3,5.3,5.3h13.8c2.9,0,5.3-2.4,5.3-5.3V7.6
			c0-2.9-2.4-5.3-5.3-5.3C20.9,2.2,7.2,2.2,7.2,2.2z M7.7,12.8c-1.1,0-2-0.9-2-2s0.9-2,2-2s2,0.9,2,2C9.7,11.9,8.8,12.8,7.7,12.8z
			 M14.1,12.8c-1.1,0-2-0.9-2-2s0.9-2,2-2s2,0.9,2,2C16,11.9,15.2,12.8,14.1,12.8z M20.4,12.8c-1.1,0-2-0.9-2-2s0.9-2,2-2
			c1.1,0,2,0.9,2,2C22.3,11.9,21.5,12.8,20.4,12.8z"/>
	</g>
</g>
</svg>
