<?xml version="1.0" encoding="utf-8"?>
<!-- Generator: Adobe Illustrator 23.1.0, SVG Export Plug-In . SVG Version: 6.00 Build 0)  -->
<svg version="1.1" id="Layer_1" xmlns="http://www.w3.org/2000/svg" xmlns:xlink="http://www.w3.org/1999/xlink" x="0px" y="0px"
	 viewBox="0 0 28 28" style="enable-background:new 0 0 28 28;" xml:space="preserve">
<style type="text/css">
	.st0{display:none;}
	.st1{display:inline;stroke:#FFFFFF;stroke-miterlimit:10;}
	.st2{fill:#FFFFFF;}
</style>
<g class="st0">
	<circle class="st1" cx="14" cy="-48" r="30"/>
</g>
<g>
	<path class="st2" d="M14,22.4c-1.7,0-3.4,0-5.1,0c-1.6,0-1.7-0.6-1.6-1.8c0.3-3.8,3.5-7,6.7-6.9c3.3,0.1,6.4,3.6,6.6,7.4
		c0,1.1-0.3,1.4-1.4,1.4C17.5,22.3,15.8,22.4,14,22.4z"/>
	<path class="st2" d="M24,18.4c-1-0.1-2.5,0.3-3-0.3c-0.8-1-1.3-2.3-2.6-3.7c-0.3-0.4,0.2-0.8,0.4-1.1c1.5-1.9,4.5-2.2,6.3-0.5
		c0.4,0.4,0.8,0.9,1.1,1.4c0.7,1.1,1.5,2.5,1,3.7C26.9,18.6,25.5,18.4,24,18.4z"/>
	<path class="st2" d="M3.8,18.4c-0.6,0-2.7,0.1-2.9-0.4c-0.6-1.3,0.2-2.7,0.9-3.9c1.7-2.7,4.8-3.2,6.9-1.3c0.8,0.8,1.3,1.3,0.2,2.5
		c-0.3,0.2-0.8,1-1,1.3C6.4,18.8,6.7,18.4,3.8,18.4z"/>
	<path class="st2" d="M13.9,11.8c-1.7-0.1-3-1.5-3-3.2c0.1-1.7,1.4-3,3.2-3c1.7,0,3.1,1.5,3,3.2C17,10.5,15.5,11.9,13.9,11.8z"/>
	<path class="st2" d="M8.2,7.9c-0.3,1.4-0.9,2.5-2.4,2.5c-1.4,0-2.4-0.9-2.4-2.4c0-1.4,0.8-2.4,2.3-2.4C7.2,5.6,7.9,6.6,8.2,7.9z"/>
	<path class="st2" d="M22.3,10.5c-1.4-0.3-2.4-0.9-2.4-2.4c0-1.4,0.8-2.4,2.3-2.4c1.5,0,2.4,0.9,2.4,2.3
		C24.6,9.3,23.7,10.2,22.3,10.5z"/>
</g>
</svg>
