<?xml version="1.0" encoding="utf-8"?>
<!-- Generator: Adobe Illustrator 23.1.0, SVG Export Plug-In . SVG Version: 6.00 Build 0)  -->
<svg version="1.1" id="Layer_1" xmlns="http://www.w3.org/2000/svg" xmlns:xlink="http://www.w3.org/1999/xlink" x="0px" y="0px"
	 viewBox="0 0 28 28" style="enable-background:new 0 0 28 28;" xml:space="preserve">
<style type="text/css">
	.st0{display:none;}
	.st1{display:inline;stroke:#FFFFFF;stroke-miterlimit:10;}
	.st2{fill:#FFFFFF;}
</style>
<g class="st0">
	<circle class="st1" cx="14" cy="-48" r="30"/>
</g>
<g>
	<g>
		<g>
			<g>
				<path class="st2" d="M13.6,18.9c-0.8,0-1.4-1-1.3-2.2c0,0,0,0,0.3-0.8c0.3-0.8,0.3-0.8,0.3-0.8c0.8-0.9,1.8-2.2,2.4-2.7
					s1.6-2,2.3-3c0,0,0,0,0-1.1s-0.3-1.9-0.9-2.5C16,5.2,15.2,5,14.1,5c-1,0-1.9,0.3-2.5,0.9c-0.6,0.5-0.6,0.5-0.6,0.5
					C10.8,7.3,9.9,8,9.1,8C8.4,8,8,6.6,8.4,5c0,0,0,0,1.1-1s2.7-1.5,4.6-1.5c2,0,3.6,0.5,4.6,1.5c1.1,1,1.6,2.5,1.6,4.3s0,1.8,0,1.8
					c-1.4,1.9-2.9,3.9-3.4,4.4c-0.5,0.5-1.1,1.3-1.4,1.9C15.2,17,14.3,18.9,13.6,18.9z M11.9,23.9c0-0.5,0.1-0.9,0.4-1.1
					c0.3-0.4,0.8-0.5,1.3-0.5s1,0.1,1.3,0.5c0.3,0.4,0.4,0.8,0.4,1.1c0,0.4-0.1,0.9-0.4,1.1c-0.3,0.3-0.8,0.5-1.3,0.5
					s-1-0.1-1.3-0.5C12.2,24.8,11.9,24.4,11.9,23.9z"/>
			</g>
		</g>
	</g>
</g>
</svg>
