<?xml version="1.0" encoding="utf-8"?>
<!-- Generator: Adobe Illustrator 23.1.0, SVG Export Plug-In . SVG Version: 6.00 Build 0)  -->
<svg version="1.1" id="Layer_1" xmlns="http://www.w3.org/2000/svg" xmlns:xlink="http://www.w3.org/1999/xlink" x="0px" y="0px"
	 viewBox="0 0 28 28" style="enable-background:new 0 0 28 28;" xml:space="preserve">
<style type="text/css">
	.st0{display:none;}
	.st1{display:inline;stroke:#FFFFFF;stroke-miterlimit:10;}
	.st2{fill:#FFFFFF;}
</style>
<g class="st0">
	<circle class="st1" cx="14" cy="-48" r="30"/>
</g>
<g>
	<path class="st2" d="M4.7,8.3c0-0.4,0-0.6,0.1-1c0.7,0,1.3,0,2,0c0,0.3,0,0.7,0.1,0.8c0.4,0.3,0.8,0.2,1.1-0.2
		c0.7-0.8,1.5-1.6,2.3-2.3c0.3-0.3,0.7-0.4,1.1-0.4c1.8,0,3.6,0,5.5,0c0.4,0,0.9,0.2,1.2,0.5c0.7,0.7,1.4,1.4,2.1,2.1
		c0.3,0.4,0.7,0.6,1.2,0.5c1.1,0,2.1,0,3.2,0c1.3,0,2.1,0.7,2.1,2c0,3.8,0,7.6,0,11.4c0,1.4-0.8,2.1-2.3,2.1c-6.7,0-13.5,0-20.2,0
		c-1.5,0-2.4-0.9-2.4-2.4c0-3.5,0-7,0-10.6c0-1.6,1.1-2.7,2.5-2.5C4.3,8.3,4.5,8.3,4.7,8.3z M16.7,14.4c0.9,1.2,1.8,2.3,2.6,3.4
		c0.8-1.1,1.6-2.2,2.5-3.4c-0.7,0-1.3,0-1.9,0c-1.1-5.7-6.8-6.3-9.7-3.6c0.3,0.2,0.5,0.5,0.8,0.7c1.6-1.3,3.4-1.6,5.2-0.6
		c1.4,0.7,2.2,1.9,2.4,3.5C18,14.4,17.5,14.4,16.7,14.4z M8.4,15.7c1.2,5.5,7,6.2,9.6,3.4c-0.2-0.2-0.5-0.5-0.7-0.7
		c-1.6,1.3-3.3,1.6-5.2,0.7c-1.4-0.7-2.2-1.8-2.5-3.4c0.7,0,1.3,0,2,0c-0.9-1.2-1.7-2.2-2.6-3.3c-0.8,1.1-1.6,2.2-2.5,3.4
		C7.3,15.7,7.8,15.7,8.4,15.7z"/>
</g>
</svg>
