<?xml version="1.0" encoding="utf-8"?>
<!-- Generator: Adobe Illustrator 23.1.0, SVG Export Plug-In . SVG Version: 6.00 Build 0)  -->
<svg version="1.1" id="Layer_1" xmlns="http://www.w3.org/2000/svg" xmlns:xlink="http://www.w3.org/1999/xlink" x="0px" y="0px"
	 viewBox="0 0 28 28" style="enable-background:new 0 0 28 28;" xml:space="preserve">
<style type="text/css">
	.st0{display:none;}
	.st1{display:inline;stroke:#FFFFFF;stroke-miterlimit:10;}
	.st2{fill:#FFFFFF;}
</style>
<g class="st0">
	<circle class="st1" cx="14" cy="-48" r="30"/>
</g>
<g>
	<g>
		<path class="st2" d="M26.4,22.5c0,0.8-1.5,1.3-3.3,1.3H4.8c-1.7,0-3.3-0.7-3.3-1.3c0-0.8,1.6-1.3,3.3-1.3h18.4
			C24.9,21,26.4,21.7,26.4,22.5z"/>
	</g>
	<path class="st2" d="M1.5,6.1v11.6c0,2.1,1.7,1.7,1.7,1.7h21.6c2,0,1.7-1.6,1.7-1.6v-12c0-1.6-1.6-1.6-1.6-1.6H3.1
		C1.3,4.3,1.5,6.1,1.5,6.1z M15.3,15.1v-2.5c-6.8-0.5-10,3.5-10,3.5c2.5-5.3,7.7-6.1,10-6.3v-2l6.4,3.6L15.3,15.1z"/>
</g>
</svg>
