<?xml version="1.0" encoding="utf-8"?>
<!-- Generator: Adobe Illustrator 23.1.0, SVG Export Plug-In . SVG Version: 6.00 Build 0)  -->
<svg version="1.1" id="Layer_1" xmlns="http://www.w3.org/2000/svg" xmlns:xlink="http://www.w3.org/1999/xlink" x="0px" y="0px"
	 viewBox="0 0 28 28" style="enable-background:new 0 0 28 28;" xml:space="preserve">
<style type="text/css">
	.st0{display:none;}
	.st1{display:inline;stroke:#FFFFFF;stroke-miterlimit:10;}
	.st2{fill:#FFFFFF;}
</style>
<g class="st0">
	<circle class="st1" cx="14" cy="-48" r="30"/>
</g>
<g>
	<g>
		<path class="st2" d="M13.9,24.6c-1.3-0.4-2.3,0.3-3.1,1.1c-0.7,0.7-1.5,0.7-2.4,0.4c-0.5-0.3-1.1-0.5-1.6-0.9
			c-1.2-0.8-2-1.8-1.3-3.4c0.5-1.3-0.1-2.4-0.9-3.5c-0.4-0.5-1.2-0.7-1.8-0.9c-0.9-0.3-1.5-0.9-1.5-1.9c0-0.7-0.1-1.2-0.1-1.9
			c0.1-1.5,0.7-2.4,2.3-2.8c1.9-0.5,2.8-2,2.3-3.9C5.2,5.2,5.9,4.1,7.3,3.5c0.7-0.4,1.3-0.7,1.9-0.8c0.7-0.3,1.3-0.1,1.9,0.4
			c0.3,0.1,0.5,0.4,0.7,0.5c0.9,1.1,2.3,0.9,3.4,0.8c0.7-0.1,1.2-0.8,1.8-1.3c0.5-0.5,1.2-0.7,2-0.4c0.4,0.1,0.8,0.3,1.2,0.5
			c2.2,1.1,2.6,1.8,2.2,4.2c-0.3,1.5,0.7,3,2,3.5c2.4,0.8,2.7,1.3,2.7,3.9c0,1.5-0.4,2.7-2,3c-1.5,0.3-2,1.5-2.4,2.7
			c-0.1,0.7,0,1.5,0.3,2.2c0.3,0.9,0,1.6-0.7,2c-0.8,0.7-1.8,1.2-2.7,1.6c-0.7,0.4-1.3,0.3-2-0.3C16.3,25.1,15.3,24.2,13.9,24.6z
			 M13.7,19.8c2.8,0,5.3-2.3,5.3-5.3c0-2.8-2.3-5.1-5.3-5.1c-2.8,0-5.3,2.3-5.3,5.1C8.6,17.4,10.9,19.8,13.7,19.8z"/>
	</g>
</g>
</svg>
