<?xml version="1.0" encoding="utf-8"?>
<!-- Generator: Adobe Illustrator 23.1.0, SVG Export Plug-In . SVG Version: 6.00 Build 0)  -->
<svg version="1.1" id="Layer_1" xmlns="http://www.w3.org/2000/svg" xmlns:xlink="http://www.w3.org/1999/xlink" x="0px" y="0px"
	 viewBox="0 0 28 28" style="enable-background:new 0 0 28 28;" xml:space="preserve">
<style type="text/css">
	.st0{display:none;}
	.st1{display:inline;stroke:#FFFFFF;stroke-miterlimit:10;}
	.st2{fill:#E42527;}
</style>
<g class="st0">
	<circle class="st1" cx="14" cy="-48" r="30"/>
</g>
<g>
	<polygon class="st2" points="18.9,13.4 27,18.3 27.1,8.6 	"/>
	<path class="st2" d="M4.2,7C2.5,7,1,8.5,1,10.2v6.4c0,0.9,0.4,1.8,1.1,2.3L14.1,7H4.2z"/>
	<path class="st2" d="M9.4,19.7h5.1c1.7,0,3.2-1.4,3.2-3.2v-5.1L9.4,19.7z"/>
</g>
<path class="st2" d="M3.1,23.5c-0.4,0-0.8-0.1-1-0.4c-0.6-0.6-0.6-1.5,0-2.1L17.8,4.8c0.6-0.6,1.5-0.6,2.1,0c0.6,0.6,0.6,1.5,0,2.1
	L4.2,23C3.9,23.3,3.5,23.5,3.1,23.5z"/>
</svg>
