<?xml version="1.0" encoding="utf-8"?>
<!-- Generator: Adobe Illustrator 23.1.0, SVG Export Plug-In . SVG Version: 6.00 Build 0)  -->
<svg version="1.1" id="Layer_1" xmlns="http://www.w3.org/2000/svg" xmlns:xlink="http://www.w3.org/1999/xlink" x="0px" y="0px"
	 viewBox="0 0 60 60" style="enable-background:new 0 0 60 60;" xml:space="preserve">
<style type="text/css">
	.st0{fill:#0078B8;}
	.st1{fill:#FFFFFF;}
</style>
<circle class="st0" cx="30.3" cy="29.8" r="27.1"/>
<g>
	<path class="st1" d="M39.5,42.3c0-3.1,0-6.1,0-9c0-0.6-0.1-1.2-0.2-1.8c-0.2-1-0.8-1.6-1.8-1.8c-0.1,0-0.3,0-0.4-0.1
		c-2.9-0.2-3.7,0.5-3.7,3.4c0,2.8,0,5.6,0,8.4c0,0.3,0,0.6,0,1c-1.8,0-3.6,0-5.5,0c0-0.3,0-0.6,0-0.9c0-5.4,0-10.7,0-16.1
		c0-0.7,0.1-1,0.9-1c1.2,0.1,2.4,0,3.5,0c0.7,0,0.9,0.2,0.8,0.9c0,0.6,0,1.2,0,1.9c0.6-0.5,1.1-0.9,1.5-1.2c2.3-1.6,4.8-1.7,7.3-0.7
		c1.7,0.6,2.6,2,2.7,3.8c0.1,1.1,0.1,2.1,0.1,3.2c0,3.1,0,6.1,0,9.2c0,0.3,0,0.7,0,1C43,42.3,41.3,42.3,39.5,42.3z"/>
	<path class="st1" d="M23.2,42.3c-1.8,0-3.6,0-5.4,0c0-0.3,0-0.6,0-0.9c0-5.4,0-10.8,0-16.1c0-0.8,0.2-1,1-1c1.5,0.1,2.9,0,4.5,0
		C23.2,30.3,23.2,36.2,23.2,42.3z"/>
	<path class="st1" d="M20.6,15.6c1.7,0,3,1.4,3,3c0,1.6-1.4,3-3,3c-1.7,0-3-1.3-3-3C17.5,16.9,18.9,15.6,20.6,15.6z"/>
</g>
</svg>
