<?xml version="1.0" encoding="utf-8"?>
<!-- Generator: Adobe Illustrator 23.1.0, SVG Export Plug-In . SVG Version: 6.00 Build 0)  -->
<svg version="1.1" id="Layer_1" xmlns="http://www.w3.org/2000/svg" xmlns:xlink="http://www.w3.org/1999/xlink" x="0px" y="0px"
	 viewBox="0 0 28 28" enable-background="new 0 0 28 28" xml:space="preserve">
<g display="none">
	<circle display="inline" stroke="#FFFFFF" stroke-miterlimit="10" cx="14" cy="-48" r="30"/>
</g>
<g>
	<path fill="#FFFFFF" d="M21.5,3.8L21.5,3.8h-15l0,0L4.6,6l0,0h18.8l0,0L21.5,3.8z"/>
</g>
<g>
	<path fill="#FFFFFF" d="M16.8,4.1L16.8,4.1h-6.1l0,0v-2l0,0h6.1l0,0V4.1z"/>
</g>
<g>
	<path fill="#FFFFFF" d="M4.8,7.7L4.8,7.7L8,25.9l0,0h12.2l0,0l3.2-18.2l0,0C23.4,7.7,4.8,7.7,4.8,7.7z M10.5,23.8
		c-0.5,0-1-0.8-1-0.8l0,0L8.1,10.8l0,0c0,0,0.3-1,0.8-1s1,0.8,1,0.8l0,0l1.4,12.2l0,0C11.4,22.8,11,23.8,10.5,23.8z M15.1,23
		L15.1,23c0,0-0.5,1-1,1s-1-1-1-1l0,0V10.8l0,0c0,0,0.5-1,1-1s1,1,1,1l0,0V23z M18.8,23L18.8,23c0,0-0.5,1-1,0.8c-0.5,0-0.8-1-0.8-1
		l0,0l1.2-12.2l0,0c0,0,0.5-1,1-0.8c0.5,0,0.8,1,0.8,1l0,0L18.8,23z"/>
</g>
</svg>
