<?xml version="1.0" encoding="utf-8"?>
<!-- Generator: Adobe Illustrator 23.1.0, SVG Export Plug-In . SVG Version: 6.00 Build 0)  -->
<svg version="1.1" id="Layer_1" xmlns="http://www.w3.org/2000/svg" xmlns:xlink="http://www.w3.org/1999/xlink" x="0px" y="0px"
	 viewBox="0 0 28 28" enable-background="new 0 0 28 28" xml:space="preserve">
<g display="none">
	<circle display="inline" stroke="#FFFFFF" stroke-miterlimit="10" cx="14" cy="-48" r="30"/>
</g>
<g>
	<path fill="#FFFFFF" d="M14,19.5C11,19.6,8.5,17,8.5,14c0-3.1,2.5-5.6,5.5-5.6s5.5,2.5,5.5,5.6C19.5,17,17,19.6,14,19.5z"/>
	<path fill="#FFFFFF" d="M3.7,18.9c-0.3,0-0.6-0.2-0.6-0.5c-0.1-0.3,0-0.6,0.3-0.7c0.8-0.3,1.6-0.7,2.4-1c0.4-0.2,0.8-0.3,1.1-0.5
		s0.6,0,0.8,0.4c0.1,0.2,0,0.6-0.2,0.7c-0.3,0.2-0.6,0.3-1,0.4c-0.4,0.2-0.8,0.3-1.3,0.6c-0.4,0.2-0.8,0.3-1.2,0.5
		C4,18.8,3.9,18.9,3.7,18.9z"/>
	<path fill="#FFFFFF" d="M24.3,18.9c-0.1,0-0.2-0.1-0.3-0.1c-0.4-0.2-0.8-0.3-1.2-0.5c-0.5-0.2-1-0.4-1.5-0.6
		c-0.2-0.1-0.6-0.2-0.8-0.3c-0.2-0.2-0.4-0.5-0.2-0.7c0.2-0.4,0.5-0.5,0.8-0.3c0.6,0.2,1.3,0.6,1.9,0.8c0.6,0.2,1.1,0.5,1.7,0.7
		c0.2,0.2,0.3,0.4,0.2,0.7C24.9,18.8,24.6,18.9,24.3,18.9z"/>
	<path fill="#FFFFFF" d="M9.7,25c-0.6,0-0.7-0.5-0.6-0.9c0.2-0.4,0.3-0.9,0.6-1.3c0.2-0.4,0.3-0.8,0.5-1.2c0.1-0.2,0.2-0.6,0.3-0.9
		c0.2-0.3,0.3-0.6,0.7-0.5c0.3,0,0.6,0.5,0.5,0.8c-0.2,0.7-0.6,1.4-0.9,2.2c-0.2,0.4-0.3,0.8-0.5,1.2c-0.1,0.2-0.1,0.2-0.2,0.4
		C10.2,24.9,10,25,9.7,25z"/>
	<path fill="#FFFFFF" d="M18.3,25c-0.3,0-0.5-0.2-0.6-0.4c-0.2-0.4-0.3-0.8-0.5-1.2c-0.1-0.2-0.2-0.6-0.3-0.8
		c-0.2-0.4-0.3-0.8-0.5-1.2c-0.1-0.2-0.2-0.5-0.1-0.8c0.1-0.2,0.2-0.3,0.4-0.3c0.2,0,0.5,0,0.6,0.2c0.2,0.3,0.3,0.6,0.4,1
		c0.2,0.4,0.3,0.8,0.5,1.2s0.3,0.8,0.5,1.2c0.1,0.2,0.2,0.3,0.2,0.5C18.9,24.7,18.7,25,18.3,25z"/>
	<path fill="#FFFFFF" d="M18.9,3.7c0,0.2-0.2,0.5-0.2,0.6c-0.2,0.4-0.3,0.9-0.5,1.3C18,6,17.9,6.4,17.7,6.8
		c-0.1,0.2-0.2,0.5-0.3,0.7c-0.2,0.2-0.5,0.3-0.7,0.2c-0.3-0.2-0.5-0.5-0.4-0.8c0.2-0.6,0.5-1.2,0.7-1.8c0.2-0.5,0.4-1,0.6-1.5
		C17.7,3.4,17.8,3,18.2,3C18.5,3,18.9,3.3,18.9,3.7z"/>
	<path fill="#FFFFFF" d="M9.7,3.1c0.3,0,0.5,0.2,0.6,0.4c0.2,0.5,0.4,1,0.6,1.5c0.2,0.4,0.3,0.8,0.5,1.2c0.1,0.2,0.2,0.6,0.3,0.8
		c0.1,0.2,0,0.5-0.2,0.6c-0.2,0.2-0.5,0.2-0.6,0.1c-0.2-0.1-0.2-0.2-0.3-0.4c-0.2-0.6-0.4-1-0.6-1.6c-0.2-0.5-0.4-1-0.6-1.5
		C9.3,3.9,9.1,3.8,9.1,3.5C9.1,3.3,9.3,3.1,9.7,3.1z"/>
	<path fill="#FFFFFF" d="M25,9.7c0,0.3-0.2,0.5-0.4,0.6c-0.6,0.2-1,0.5-1.6,0.6c-0.4,0.2-0.8,0.3-1.1,0.5c-0.3,0.1-0.6,0.2-0.9,0.3
		s-0.6-0.1-0.7-0.4c-0.1-0.2,0-0.6,0.2-0.7c0.4-0.2,0.8-0.3,1.2-0.6c0.4-0.2,0.8-0.3,1.2-0.5c0.4-0.2,0.8-0.3,1.2-0.5
		C24.6,9,25,9.3,25,9.7z"/>
	<path fill="#FFFFFF" d="M3.7,9.1c0.2,0,0.5,0.2,0.6,0.2c0.4,0.2,0.9,0.3,1.3,0.5c0.6,0.2,1.2,0.5,1.8,0.7c0.4,0.2,0.5,0.6,0.3,1
		c-0.1,0.2-0.4,0.3-0.6,0.2c-0.5-0.2-1-0.4-1.4-0.6c-0.4-0.2-0.8-0.3-1.2-0.5c-0.4-0.2-0.7-0.3-1.1-0.5c-0.2,0-0.4-0.3-0.3-0.6
		C3.2,9.3,3.4,9.1,3.7,9.1z"/>
	<path fill="#FFFFFF" d="M7.5,6.8c0.2,0,0.2,0,0.3,0.1c0.6,0.5,1,1,1.5,1.5c0.2,0.3,0.2,0.6,0,0.8C9,9.4,8.8,9.4,8.5,9.3
		C8.3,9.1,8.1,8.9,7.9,8.7C7.6,8.4,7.3,8.1,7,7.7C6.9,7.6,6.9,7.3,6.9,7.1C7,7,7.2,6.8,7.5,6.8z"/>
	<path fill="#FFFFFF" d="M6.9,20.5c0-0.2,0.1-0.3,0.2-0.4c0.5-0.5,1-1,1.4-1.4c0.2-0.2,0.6-0.2,0.8,0.1c0.2,0.2,0.2,0.6,0.1,0.8
		c-0.3,0.4-0.7,0.7-1,1.1C8.1,20.8,8,21,7.8,21.2c-0.2,0.1-0.3,0.2-0.6,0.1C7,21,6.9,20.8,6.9,20.5z"/>
	<path fill="#FFFFFF" d="M20.5,6.8c0.3,0,0.5,0.2,0.6,0.3c0.1,0.2,0.1,0.4-0.1,0.6c-0.3,0.4-0.6,0.6-1,1c-0.2,0.2-0.4,0.4-0.6,0.6
		c-0.4,0.2-0.9-0.2-0.9-0.5c0-0.2,0.1-0.4,0.2-0.6C19.2,7.8,19.6,7.4,20,7C20.2,6.9,20.4,6.8,20.5,6.8z"/>
	<path fill="#FFFFFF" d="M21.2,20.5c0,0.3-0.2,0.5-0.4,0.6c-0.2,0.1-0.4,0-0.6-0.1c-0.5-0.5-1-1-1.4-1.5c-0.2-0.2-0.2-0.6,0.1-0.8
		c0.2-0.2,0.6-0.2,0.8,0c0.6,0.5,1,1,1.4,1.4C21.2,20.3,21.2,20.4,21.2,20.5z"/>
	<path fill="#FFFFFF" d="M5.7,14.6c-0.3,0-0.6,0-1,0S4.1,14.4,4.1,14c0-0.3,0.2-0.6,0.6-0.6c0.6,0,1.2,0,1.9,0
		c0.4,0,0.6,0.2,0.6,0.6S7,14.6,6.6,14.6C6.4,14.6,6,14.6,5.7,14.6z"/>
	<path fill="#FFFFFF" d="M22.3,13.4c0.3,0,0.6,0,1,0c0.3,0,0.6,0.2,0.6,0.6c0,0.3-0.2,0.6-0.6,0.6c-0.6,0-1.4,0-2,0
		c-0.3,0-0.6-0.3-0.6-0.6s0.2-0.6,0.6-0.6C21.7,13.4,22,13.4,22.3,13.4z"/>
	<path fill="#FFFFFF" d="M14.6,22.3c0,0.3,0,0.6,0,1s-0.3,0.6-0.6,0.6s-0.6-0.2-0.6-0.6c0-0.6,0-1.3,0-1.9c0-0.3,0.2-0.6,0.6-0.6
		c0.3,0,0.6,0.2,0.6,0.6c0,0.2,0,0.3,0,0.5C14.6,22,14.6,22.1,14.6,22.3L14.6,22.3z"/>
	<path fill="#FFFFFF" d="M13.5,5.7c0-0.3,0-0.6,0-1s0.2-0.6,0.6-0.6c0.3,0,0.6,0.2,0.6,0.6c0,0.6,0,1.3,0,1.9c0,0.4-0.3,0.6-0.6,0.6
		S13.4,7,13.5,6.7C13.5,6.4,13.5,6,13.5,5.7z"/>
</g>
</svg>
