<?xml version="1.0" encoding="utf-8"?>
<!-- Generator: Adobe Illustrator 23.1.0, SVG Export Plug-In . SVG Version: 6.00 Build 0)  -->
<svg version="1.1" id="Layer_1" xmlns="http://www.w3.org/2000/svg" xmlns:xlink="http://www.w3.org/1999/xlink" x="0px" y="0px"
	 viewBox="0 0 28 28" enable-background="new 0 0 28 28" xml:space="preserve">
<g display="none">
	<circle display="inline" stroke="#FFFFFF" stroke-miterlimit="10" cx="14" cy="-48" r="30"/>
</g>
<g>
	<path fill="#FFFFFF" d="M22.7,3.6L23,8.3h-0.7c-0.1-0.8-0.3-1.4-0.4-1.8c-0.3-0.7-0.7-1.1-1.3-1.3c-0.5-0.3-1.2-0.4-2.1-0.4h-2.8
		v15.5c0,1.3,0.1,2.1,0.4,2.4c0.4,0.4,0.9,0.7,1.7,0.7h0.7v0.5H10v-0.5h0.7c0.8,0,1.4-0.3,1.8-0.8c0.3-0.3,0.3-1.1,0.3-2.1V4.8h-2.5
		c-0.9,0-1.6,0-2.1,0.1S7.2,5.4,6.8,6S6.2,7.3,6.2,8.1H5.9l0.3-4.7L22.7,3.6L22.7,3.6z"/>
</g>
</svg>
