<?xml version="1.0" encoding="utf-8"?>
<!-- Generator: Adobe Illustrator 23.1.0, SVG Export Plug-In . SVG Version: 6.00 Build 0)  -->
<svg version="1.1" xmlns="http://www.w3.org/2000/svg" xmlns:xlink="http://www.w3.org/1999/xlink" x="0px" y="0px"
	 viewBox="0 0 759.5 447.3" style="enable-background:new 0 0 759.5 447.3;" xml:space="preserve">
<style type="text/css">
	.st0{display:none;}
	.st1{display:inline;fill:#112427;}
	.st2{fill:none;stroke:#33B1A6;stroke-width:2;stroke-linecap:round;stroke-miterlimit:10;}
	.st3{fill:none;stroke:#3679AF;stroke-width:2;stroke-miterlimit:10;}
	.st4{fill:none;stroke:#3679AF;stroke-width:2;stroke-linecap:round;stroke-miterlimit:10;}
	.st5{fill:#3679AF;}
</style>
<g id="Layer_1" class="st0">
	<rect x="-19.7" y="-22.5" class="st1" width="792" height="612"/>
</g>
<g id="Layer_2">
	<g>
		<g>
			<g>
				<path class="st2" d="M676.9,337.5c0,0.4-0.9,1.6-1.9,2.7s-4.5,2.2-5.1-0.3c-0.5-2.4-1.1-7.3-0.1-5.2
					C670.9,336.8,676.9,337.1,676.9,337.5z"/>
			</g>
			<g>
				<path class="st2" d="M417.1,224.4c2.9,4.7,5.7,10.4,6.2,12.8c0,0,0,0,3.3-1c2.8-0.9,2.8-0.9,2.8-0.9c3.7-0.6,5.6,1.8,4.3,5.3
					c-1.3,3.5-8.5,11.9-9.8,13.2s-7,8.4-9.4,13.2c0,0,0,0,1.8,5.1c2.7,7.5,2.7,7.5,2.7,7.5c-3.9,3.7-9.7,8.4-13,10.4
					c0,0,0,0,2.4,4.3c0.4,0.8,0.4,2.4-0.1,3.1c-4,5.6-6.4,8.6-6.4,8.6c-3.5,4.3-10.6,9.1-15.9,10.7c0,0-0.2,0.1-5.2,1
					c-0.6,0.1-2-1.8-2.5-3c-3.2-8.4-5.9-15.7-5.9-15.7c-1.9-5.2-4.4-12.7-5.6-16.7c0,0,0,0,1.7-3.2c3.8-6.9,1.1-12.5-3-17.6
					c-2.2-2.8-3.3-5.1-2.1-8.6c1.2-3.6,1.2-3.6,1.2-3.6c-2.8-1.3-9.6-2.8-15.1-3.4c0,0-0.9-0.1-6.5,0.4c-5.4,0.5-7-0.1-7-0.1
					c-5.2-1.8-12-6.1-15.2-9.5c0,0,0,0-2.4-3.4c-0.9-1.3-0.7-3.6-0.7-5.4c-0.1-3.2-0.8-6.7,0.3-9.5c1.9-4.8,2.2-5.1,2.2-5.1
					c3.1-4.6,6.8-10.1,8.3-12.3c0,0,0,0,1.5-1.9c1.3-1.8,2.9-3.3,4.3-5.1c1.8-2.2,4.1-4.3-0.6-6.3c-1.4-0.6-2.2-3.4-2.4-5.3
					c-0.3-2.3-0.3-2.3-0.3-2.3c0.5-3,2.7-5.5,4.9-5.5s7.9-1.9,7.8-4.2c-0.1-2.3-0.8-7.6,3.2-10.1s14.4-11,13.5-12.9
					c-0.9-1.8,4.4-4.4,4.7-3.7s0.3,4.6-0.5,6.9c0,0,0,0,2.3,0.1c4.7,0.2,9.4-0.5,14.1-1.2c0.9-0.1,1.9-2.1,2.1-3.4
					c0.5-3.5,2-4.6,5.2-2.7c0.1,0.1,0.1,0.1,0.1,0.1c0.5-0.5,0.7-1.5,0.3-2.2c-0.3-0.7,0.1-3.1,1.8-3.5c1.8-0.4,4.5-1.5,1.5-1.4
					c-3,0.1-6.4-3.9-5.4-6.2c1-2.3,1.4-9.4-1.9-10.2c0,0,0,0-0.9,4.2c-0.2,1-1.3,2.2-2.2,2.8c-4.8,2.6-4.8,2.6-4.8,2.6
					c1.3,3.7,1.2,9.2-0.2,12.2c0,0,0,0-1.1,2.5c-1.5,3.3-1.5,3.3-1.5,3.3c-4.3-0.4-6.8-1.6-5.7-2.7c0,0,0,0-0.2-0.6
					c-0.6-2-0.6-2-0.6-2c-1.2-2-2.8-3.3-3.7-2.7c0,0,0,0-0.7,0.1c-2.2,0.2-2.2,0.2-2.2,0.2c-2.4,0.1-5.6-2.9-7.1-6.6
					c0,0,0,0,3.4-3.1c6.1-5.6,11.9-11.6,18.3-16.9c5.8-4.8,12.5-8.1,20.2-7.8c1.9,0.1,3.7,2.2,5.7,3c4.5,1.9,9.1,3.4,13.6,5.3
					c1.2,0.5,1.2,0.5,1.2,0.5c1,1.4,0.6,3.8-0.8,5.4c0,0,0,0-1.3,0c-2.9,0-2.9,0-2.9,0c-3.4-0.8-5.3-0.3-4.4,1.2
					c0.9,1.5,3.6,5.1,3.8,5s0.8-1,0.6-1.4c-0.2-0.4-0.3-1.9,0.8-1.6c1.1,0.3,3.4,0.8,3.3,0.5c-0.1-0.2,0.7-1.5,2.1-2.4
					s5.7-4.7,6.1-6.3c0,0,0,0,0.6-1.9c0-0.1,0-0.1,0-0.1c1.3,0.3,2.2,1,2.1,1.6c-0.1,0.6,3.2,1.2,7.8,0.2c4.5-1,18-4.6,18.7-5.5
					c0.7-0.9,11.6-0.4,10.1-5.4c0,0,0,0,3.6-3.6c1.3-1.3,1.3-1.3,1.3-1.3c3.5-0.2,7.3,3.1,8.5,7.3s-6,11.4-4.4,9.8
					c1.6-1.6,5.1-6.1,3.7-7.8c-1.3-1.7,2.2-7.6,2.3-6.8c0.1,0.8,2.4,1.3,5-0.1c0,0,0,0,2.1,0.2c2.1,0.2,2.1,0.2,2.1,0.2
					c2.7,2.3,4,2.9,2.9,1.3c-1.1-1.6-2.5-6.5-0.2-6.7c2.3-0.2,9.1-3,10.1-5.9c0,0,0,0,3-0.6c4.2-0.9,8.5-0.7,12.7-1.5
					c2.3-0.4,4.9-1.3,6.3-2.9c3-3.6,5.6-3.8,9.1-0.8c1,0.8,2.6,0.9,3.9,1.4c2.9,0.9,2.9,0.9,2.9,0.9c3.2,1,5.1,2.7,4.3,3.9
					c-0.8,1.1-2.4,4.7-1.6,5.1c0,0,0,0,1.1,0.2c4.6,1,4.6,1,4.6,1c5.1,1,10.9,1.1,12.9,0.3c0,0,0,0,1.9-0.2c2.6-0.3,2.6-0.3,2.6-0.3
					c3.5,0.1,5.9,0.8,5.2,1.6c-0.7,0.7-1.1,3,0.1,3.9s4.4,3.2,4.4,2.8c0-0.3,1.7-1.2,3.7-1.2c1.9,0,8.5-0.9,10.4-1.6
					c0,0,0,0,1.1-1.2c2.9-3.1,6-1.3,9.1-1c7.2,0.6,11.4,1.9,11.4,1.9c5.2,1.7,10.3,3.1,11.1,3.1c0.9,0,4.7,2.1,8.3,3.9
					c0,0,0,0,3.6,0.5c3.3,0.5,3.3,0.5,3.3,0.5c3.9,0.7,7,0.8,7,0.3c0-0.5,2.7-2.9,6.3-3.4c3.6-0.4,10.3,7.8,11.1,10.3
					c0.8,2.5-4.2,8.3-3.7,9.1c0.4,0.8,0,3-1.8,3.4s-9.8,3.9-15,5.7c0,0-0.5,0.2-5.7,1.1c-3.9,0.7-3.9,0.7-3.9,0.7
					c-0.4,3.5-0.8,7.4-0.9,8.7s-2.7,5-4.2,6.5c-1.5,1.5-6.3,2.8-7.3-0.4c-1-3.2,6.5-13,8.3-14.7c1.8-1.7,6.3-6.4,6.1-6.6
					c-0.2-0.2-1.5-0.1-2.5,0.8c-1,0.9-5.2,1.5-8,0.2c0,0,0,0-1.3,0.7c-2.4,1.3-2.4,1.3-2.4,1.3c-2.6,3.1-9.3,5.4-14.8,5l-12.9,5.5
					c-4.4,3.2-6.2,6.4-4,7s9.1,3.5,9.4,4.9s0.7,6.2,0.2,7.7c-0.5,1.5-2,5.2-2.1,5.1s-0.5-2-0.5-4.2s-0.8-7.3-1.7-4.9
					c-0.9,2.4-6.1,11.5-8.5,16.4c0,0-0.2,0.5-7.3-0.1c-2-0.2-2-0.2-2-0.2c-2.5,3.9-3.6,8.9-2.5,11.2c1.2,2.2-4.5,4.3-5.1,2.4
					c-0.6-1.8-3.3-6.9-4.3-6.6c-1,0.2-3.6,0.4-3.6-0.1c0.1-0.5-0.8-1.9-2-1.1c-1.2,0.9-3.9,3.9-2.4,4.4c1.5,0.4,4.7,2.1,3.9,2.8
					c-0.9,0.7-0.8,6.4,2.2,11c0,0,0.6,0.9-3.2,6.5c-3,4.4-5.7,8.7-11.8,9.6c-2.4,0.4-6.5,0.8-5.7,5.5c0.1,0.5,0.1,0.5,0.1,0.5
					c-1.6,1-2.8,0.8-2.7-0.4c0.1-1.2-0.7-3.4-1.8-3c-1.1,0.5-1.6,5.2,1.7,9.4c0,0,0,0,0.1,3.4c0.1,3.1,0.1,3.1,0.1,3.1
					c-2.9,3.2-6.8,4.5-8.6,2.8c-1.8-1.6-6.7-1.5-7.3,3.5c0,0,0,0,4,3.6c1.9,1.8,1.9,1.8,1.9,1.8c0.6,3.7-0.6,6.2-2.6,5.4
					c0,0,0,0-0.3-1.1c-1.6-5.1-7-8.7-5.3-15.3c0.7-2.7,0.7-2.7,0.7-2.7c-1.5-3.7-3.4-6.5-4.2-6.1c-0.8,0.3-3.3-0.8-4.4-2.9
					c-1.1-2.2-8.5-6.5-12.9-3.2c0,0-3.9,2.9-9.4,7.3c-0.9,0.7-0.9,2.4-1.3,3.7c-1.2,3.4-1.2,3.4-1.2,3.4c-1.3,3.8-2.7,6.8-3.2,6.8
					c-0.4,0-2.8-3.5-4.3-7.7c-1.5-4.2-6-14.9-7.1-15.6s-4.7-4-6.1-5.4c-1.4-1.4-10.7-3.1-15-4c0,0,0,0-3.9-0.9
					c-0.5-0.1-1.1-0.5-1.5-0.4c-4.6,1.5-4.6,1.5-4.6,1.5c-2.6-3.3-5.1-6.2-5.7-6.5s-2.3,0.3-2.7,1.6c0,0,0,0,0.4,0.7
					c1.7,2.6,3.2,5.8,5.7,7.3c1.5,0.9,1.5,0.9,1.5,0.9c3.2-1.4,6.7-1.8,7.8-0.9c1.1,0.9,1.1,6.7-3.2,10.2l-11.4,8.1
					c-5.3,1.6-11.4-1.2-13.6-6.2l-6.5-10.5c-3.7-4.1-5.2-3.2-3.4,2L417.1,224.4z M386.9,185.7c0,1.7-0.3,3.1-0.6,3.2s-2.9-3.1-5-7.2
					s-10.7-9.7-8.9-7.7c1.8,2,5.5,7.7,4.8,8.6c0,0,0,0-0.5,0.7c-0.7,0.9-0.7,0.9-0.7,0.9c-0.4,0.6-1.9-0.6-3.4-2.7c0,0,0,0-1.5-1.5
					c-1.5-1.4-4-2.1-5-3.7c-1.9-2.9-3.4-4-6.7-1.7c-2,1.4-5.1,1.4-6.8,2.9c-2.6,2.4-4.3,5.9-6.8,8.5c-1.2,1.3-3.2,1.8-4.9,2.7
					c-0.9,0.5-0.9,0.5-0.9,0.5c-1,0.5,0,1.4,2.3,2.1c0,0,0,0,1.8-0.3c5.5-0.9,6.6-1.1,6.6-1.1c5.4-1,11.2-1.8,12.9-1.8
					c1.7,0,4,7,6.7,8.3c2.7,1.2,11.1,1.9,14.2-0.5c0,0,0,0,1.4,0.5c5,1.9,5.2,1.9,5.2,1.9c5.5,0.3,11.9-0.1,14.1-0.8
					c2.3-0.8-1.6-7.9-7.1-7.6c0,0-1.4,0.1-5.8-8c-0.4-0.8-2.4-1.6-2.6-1.4c-1,1.1-2,2.4-2.4,3.8
					C386.9,185.7,386.9,185.7,386.9,185.7z M403.4,169.4c-1.5-1-3.5-0.4-4.6,1.3c-1.1,1.7-1,7.6,3.8,7.6c4.7,0,16.6-0.2,16.6-0.4
					c0.1-0.2-0.9-1.7-2.3-2.8s-4.9-4.4-4.7-5c0.2-0.6,0-2.8-1-2.5c-1,0.3-3.6,1.5-3.1,2s1.2,1.7,1,2
					C408.8,171.9,404.8,170.4,403.4,169.4z M437.8,169.8c0.8-0.6,1.4-1.4,1.2-1.8c-0.2-0.4-2-0.8-3.9,0c-1.8,0.8-6.1,4.4-5.6,6.5
					c0,0,0,0,0.6,1.2c0.6,1.2,1.8,2.2,2.5,3.4c0.5,0.8,0.9,1.8,0.8,2.6c-1.2,6.3-1.2,6.3-1.2,6.3c4.8-0.3,8.4-1.6,8-2.9
					c-0.4-1.3-1-5-0.6-5.2c0.4-0.2,0.2-1.6-1-2.8S437,170.4,437.8,169.8z"/>
			</g>
			<g>
				<path class="st2" d="M212.3,134.1c0.1-0.1-3.2,2.5-7.4,5.8c0,0,0,0-3.3,3.5c-1.8,1.9-4,5.5-3.3,7.1c1.1,2.4,4.3,4.2,7,5.5
					c4.2,2,8.8,3.2,13.1,5.1c0.8,0.3,0.9,2,1.4,3.1c1,2.1,1,2.1,1,2.1c1.2,2.3,2.4,4.1,2.8,3.9s1.2-1.5,1.2-2.8c0-1.3,1.3-6.2,3-7.6
					s-1-8.6-0.6-10.4c0,0,0,0,0.1-1.7c0.1-1.6,0.1-1.6,0.1-1.6c-0.4-2.8,3.4-3.4,8.4-1.4c0,0,0,0,4.1,1.7c0.6,0.3,1.1,1.1,1.5,1.7
					c1,1.6,2.2,4.6,3,4.5c1.9-0.2,1.9-0.2,1.9-0.2c2.6-1.9,5-2.9,5.4-2.3c0,0,0,0,0.5,1.1c2.6,5,3.3,5.7,3.3,5.7
					c3.9,3.8,8.1,7.5,9.2,8.1c0,0,0,0-0.1,0.3c-1.4,6-0.4,7.2-0.4,7.2c3.6,4.1,4.9,7.2,2.8,6.8c-2.1-0.4-7.1-2.5-6.4-3.9
					s-0.4-4.4-3.7-3.8s-12,2.3-12,2.5s0.9,0.8,1.8,0.8s2.9,2.4,3.6,5.2c0,0,0,0,1.4,1.3c0.8,0.7,0.8,0.7,0.8,0.7
					c2.5-0.9,4.7-1.3,4.9-1c0.1,0.4-9.5,5.4-9.6,4.8s-2.9-1.3-5.8,1.4c0,0,0,0-2.3,2.2c-0.5,0.5-0.5,0.5-0.5,0.5
					c-0.4,0.6-3.7,3.9-7.3,7.3c0,0,0,0-1.4,4.7c-0.6,2-0.6,2-0.6,2c-2.4,1.7-5.7,4.3-7.3,5.7s-0.1,8.2,0,9.2c0.2,1,0.4,3.7,0.2,3.8
					s-2-0.8-3.3-2.2c0,0,0,0-0.7-1.6c-2.7-5.7-2.7-5.7-2.7-5.7c-5,0.9-10.3,1.7-11.8,1.8c0,0,0,0-1.3-0.2c-4-0.7-7.7,0.5-9.5,4
					c-2.7,5.2-2.1,6.5-2.1,6.5c2.6,4.9,7.2,8.6,10.1,8.4c0,0,0,0,2.5-1c2-0.8,2-0.8,2-0.8c1.8-1.8,3.5-3.1,3.8-2.8
					c0.2,0.2,0.5,2.3,0.1,4c-0.4,1.7-0.3,6.7,1.3,6.7c0,0,0,0,1.2-0.1c3.6-0.2,5.1,1,4.5,5c-0.9,5.5,0.9,6.8,6.7,6.2
					c1.1-0.1,2.5,0.3,3.4,1c4.9,3.6,10,5.1,16.3,4.6c2.5-0.2,2.5-0.2,2.5-0.2c3,3.1,6.1,6.2,6.9,6.9c0.7,0.7,4.6,1.9,7.1,2.8
					c2.5,0.9,6.2,7.3,5.8,8c-0.5,0.7-0.5,2,0.6,1.9c1.1-0.1,6.7,1.6,10.2,3c3.5,1.4,13.8,5.9,15.1,7.3c1.2,1.4-1.9,8.8-4.4,13.7
					c0,0-1.3,2.5-3,8.8c-1,3.5-2.3,6.9-7.5,7.5c-3.3,0.3-7.5,2.1-7.8,7.8c-0.2,3.2-0.2,3.2-0.2,3.2c-3.2,3.4-6.9,7.4-8.1,9
					c-1.3,1.6-6.3,4.9-5.9,8.9c0,0,0,0-6.2,1.3c-1,0.2-2,0.9-2.9,1.6c-1.4,1.1-1.4,1.1-1.4,1.1c-1.6,1.5-3.4,4.1-4.1,5.8
					s-3.9,7.1-3.1,7.6c0.7,0.5,1,3.9-1.1,6.7c-2,2.8,1.9,12.1,0.5,12.1c-1.4,0-6.2-2.2-9.5-5c0,0,0,0-1.2-2.8
					c-1.5-3.5-1.5-3.5-1.5-3.5c-0.4-4.6,1.1-10.9,3.4-14.1c0,0,0,0-1.7-4.8c-1-2.9,0.3-6.6,0.8-9.9c1.5-10.2,3.4-20.4,4.5-30.7
					c0.2-1.8-1.9-4.9-3.6-5.7c-4.7-2.1-4.7-2.1-4.7-2.1c-2.3-4.3-5-9.2-5.9-10.8c-0.9-1.6-3.8-10.2-4.3-15.7c0,0,0-0.4,3-3.4
					c2.6-2.5,3-5.3,3.4-8.8c0.5-3.7,0.5-3.7,0.5-3.7c3.1-4,5.5-7.5,5.5-7.6s-4.4-0.1-9.2,0c0,0,0,0-3-4c-1.4-1.8-3.5-3.2-5.5-4.5
					c-2.3-1.5-4.9-2.6-7.3-3.9c-0.9-0.5-0.9-0.5-0.9-0.5c-1.1-0.3-4.3-1.2-7.3-1.9c-2.9-0.8-11.4-4.2-12.6-5c0,0,0,0,0-0.7
					c0.1-6.9-1.5-8-1.5-8c-4.4-3.3-8.9-7.1-9.9-8.4c-1-1.4-4-4.8-4.2-4.6c-0.2,0.2,0.6,2.8,2.3,5.4c1.7,2.7,3.1,6.5-0.7,2.5
					c0,0-1.9-2-5.4-7.4c-1.5-2.3-3.8-4.1-5.6-6.3c-4.5-5.2-8.7-10.6-7.7-18.2c0.8-5.8,1.1-11.4-5.2-14.7c-0.4-0.2-1-0.8-1-1.1
					c0-8.8-4.6-12.4-4.6-12.4c-4.3-3.4-7.8-5.7-7.8-5.2s-3.1,1.3-7.1-0.7s-15-6-16.3-5.2c-1.3,0.8-5.3,2.6-5.2,1.7
					c0.1-1-1.8-0.6-4.3,1.8s-9.7,8.4-10.1,8c-0.4-0.4-0.2-1.9,1.1-2.5c1.3-0.7,4.5-2.8,4.2-3.2c-0.3-0.4-3.6-2.1-6.7-2.9
					s-8.3-8.3-6.6-9.5c1.8-1.2,4.2-3.9,1.6-3.6c-2.6,0.3-5.7-5.9-3.5-6.1c2.2-0.2,6.7-1.5,4.9-2.6s-5.1-5.5-2.6-7.3
					c2.4-1.8,11.8-3.8,15.4-3.7c3.6,0.1,17.3,2.1,22.6,3.4c0,0,2.2,0.5,8.2,1.6c1.7,0.3,3.7-0.9,5.5-1.2c3.9-0.8,3.9-0.8,3.9-0.8
					c4-0.7,11.7-0.7,17.2,0.2c0,0,2.9,0.4,8.6,2.6c5.3,2,6.1,2.2,6.1,2.2c5.4,1.2,11.4,1.2,13.4,0c0,0,0,0,1.9-0.1
					c4.3-0.3,8.6-0.1,12.9,0.2c1.1,0.1,1.1,0.1,1.1,0.1c1.3,0.9,2.8,1.2,3.4,0.6c0,0,0,0,0.7-0.8c1.6-1.9,2.3-3.4-1-4.4
					c-1.1-0.3-2.3-2.3-2.2-3.5c0.1-1.3,1.5-3,2.7-3.4c0.8-0.3,2.5,1.3,3.4,2.3c1.5,1.7,2.5,3.7,4,5.4c0.8,0.9,0.8,0.9,0.8,0.9
					c1.9,0.9,3.6,1.9,3.7,2.4s0.7,2.5,1,2.6c0.3,0.1,2.2-1.3,3.7-3.3c0,0,0,0,0-1.9c0-1.2-2.9-2.1-4-3.6c-1.5-1.9-3.4-4.2-3.5-6.4
					c-0.1-3.9-0.1-3.9-0.1-3.9c3.6-0.6,6.4-0.2,6.2,0.8c-0.1,1.1,1.7,1.6,4.3-0.5c0,0,0,0,2.5-1.2c0.4-0.2,0.4-0.2,0.4-0.2
					c1.9,2.8,5.7,5.6,8.4,6.3s11.5,2.7,13.1,3.3c0,0,0,0,1.3,0.8c2.5,1.4,2.5,1.4,2.5,1.4c-0.9,2.4,0.2,5.3,2.4,6.4
					c2.2,1.1,8.1,5,7,5.7c-1.1,0.7-4.7,2-5.5,1.4c-0.8-0.5-3.4-2.1-3.6-1.9s0.2,1.9,1.2,3.4c1.1,1.5,3.7,5.7,3.5,5.9
					c-0.2,0.2-1.4,0.5-2.2,0.2c-0.8-0.3-3.3-0.8-2.6-0.1c0.7,0.7,1.8,2.6,1.3,2.9c0,0,0,0-0.1-0.1c-3.5-1.8-7-3.8-10.5-5.5
					c-1.4-0.7-3.1-1.1-4.7-1.3C230,137,230,137,230,137c-1.7,0.1-3.1-0.1-3.2-0.4c0-0.3,1.1-1.1,2.6-1.2c0,0,0,0,0.9-0.7
					c2.1-1.7,4.3-3.5,5.6-5.7c0.4-0.7-2-3.2-3.4-4.5c-3.8-3.7-3.8-3.7-3.8-3.7c-5.2,0.4-8.6,3-7.7,5.8c0,0,0,0-0.2,2.6
					c-0.1,1-3.4,1.7-5.2,2.6C214.4,132.4,213.4,133.3,212.3,134.1L212.3,134.1z"/>
			</g>
			<g>
				<path class="st2" d="M207.3,82.6c0.1,0.1-0.3-0.4-0.8-1.1s-0.3-3.9,3-4.2s11.6-1.6,12.4-2.3s7.2-1.8,12.7-2.3
					c0,0,10.4-1,20.2,3.2c0.7,0.3,1.8,0.2,2.5-0.1c5.3-2.3,10.6-4.5,15.7-7.1c7.7-3.8,7.7-3.8,7.7-3.8c3.6,2.4,7.3,4.1,8.3,3.6
					c0.9-0.4,3.6-0.3,4.1,1.2c0,0,0,0,0.5,1.4c1.6,4.2,1.6,4.2,1.6,4.2c4.2,2.5,7.1,5,6.6,5.6c-0.6,0.6-0.7,2.4,0.8,2.8
					s5.3,1.7,4.8,1.9c-0.5,0.2-0.1,1.9,1.3,3.8c0,0,0,0-0.4,0.8c-1.8,3.4,1,4.7,2.6,6c4.9,4.2,5.3,7.1,0.5,11.6
					c-1.3,1.2-3.1,1.8-4.3,3c-1.9,1.9-3.5,4.2-5.4,6.3c-1.2,1.4-2.4,3-4,3.9c-3.5,2.1-7.3,2.9-6.6,8.9c0.5,3.7,0.5,3.7,0.5,3.7
					c-2.2,4.7-5.1,8.7-6.5,8.8c0,0,0,0-1.4-0.3c-7-1.5-13.6-3.7-16.9-11c-0.8-1.9-2.7-3.4-3-5.3c-0.5-3-2.4-6.7,1.8-9
					c1.1-0.6,1.1-0.6,1.1-0.6c1.4-1.7,1.3-2.9-0.2-2.6c-1.5,0.3-4.5-0.4-4.1-2.1c0.4-1.7,4.9-1,4.9-1.4s-1-1.4-2.1-1.8
					c-1.1-0.3-4.3-4.5-5.5-8.7c0,0,0,0-1.6-3.7c-2.3-5.4-2.3-5.4-2.3-5.4c-5.3,0.8-9.8,0.2-9.9-1.2s0.6-6.1,2.2-6.5
					c1.6-0.5,5-2.8,4-4.1c-1-1.3-6.6,0.3-5.8,0.4c0.8,0.1,2.5,0.4,2.5,0.5s-2.6,2-6,3.6c-3.4,1.6-11.8,5.8-11.6,6.1
					c0.2,0.3-0.6,2.3-2.3,3.4c-1.8,1.1-5.3,3.9-4.6,4c0.7,0.2,3.1,1,3.1,1.2c0,0.2-2.9,0.9-6.5,0.9s-12.3-1.4-11.1-3.1
					c1.3-1.7,5.3-1.6,3.7-3.8c0,0,0,0-1.4-1.9l-0.2,0.2c1.8,0,1.8,0,1.8,0c2.5,0,3.7-0.7,2.7-1.6s-1.3-3.2,1.1-3.7
					c2.4-0.5,4.3-1.3-0.8-0.7c0,0,0,0-1.4-1.6C211.6,78.7,209.8,81.7,207.3,82.6L207.3,82.6z"/>
			</g>
			<g>
				<path class="st2" d="M608.6,333c-2-1.1-3.6-2.3-3.5-2.8s0-2.5-0.6-2c-0.6,0.5-4.7,0-8.1-2.1c-3.4-2.1-17.1,3-21.3,5
					c0,0,0,0-4,1.3c-0.9,0.3-3.1-1.4-3.5-2.6c-1.2-3.3-1.2-3.3-1.2-3.3c-0.9-3.8-2.5-11.4-3.6-16.8c0,0-0.5-2.6,7.6-5
					c5.8-1.7,6-2,6-2c3.3-4.4,7-9,8.2-10.3c1.2-1.3,6,0.9,6.7-0.4c0.6-1.3,3.4-4.2,5.1-4.3c0,0,0,0,1.7,0.2c2.1,0.2,2.1,0.2,2.1,0.2
					c2.4,0.5,4,1.6,3.7,2.3c-0.4,0.8-0.2,3.8,1.4,4.6s6.8,1.7,7.3-0.4s2.9-6.9,4.2-5.5c1.3,1.4,5.5,8.7,8.6,13.2
					c0,0,1.7,2.5,5.3,7.9c4,6.2,3.3,8.3,3.3,8.3c-1.8,5.2-3.9,10.3-4.7,11.3s-3.8,6.2-6.6,9.2c0,0,0,0-2.1-0.3
					c-3.9-0.6-9.4,1.2-11.4-4.7C608.6,333,608.6,333,608.6,333z"/>
			</g>
			<g>
				<path class="st2" d="M165.4,111.2c5.2,0.9,9.4,1.4,9.4,1c0-0.3-0.1-2,0.1-2.2c0.2-0.2,2,0.4,3.7,1.6c0,0,0,0,1.2,1.4
					c2.2,2.7,2.2,2.7,2.2,2.7c2.5,3.5,3.3,7.2,1.7,8.1c0,0,0,0-2,0.3c-3.1,0.5-6.4,0.9-9.5,0.6c-4.5-0.4-4.5-0.4-4.5-0.4
					c-4.9-1-8.9-2.2-8.9-2.6c0-0.4,1.2-1.5,2.5-1.6c1.3-0.1,4.8-0.5,4.8-0.7c0-0.1-1.2-0.5-2.7-0.5c-1.5,0-6.1-0.5-5.6-1
					c0.4-0.6,0.9-1.8,0.4-2.1c-0.5-0.3-1-3,1.1-4.8c0,0,0,0,1.5,0.1C165.4,111.2,165.4,111.2,165.4,111.2z"/>
			</g>
			<g>
				<path class="st2" d="M599.9,271.1c1.2,0.8,6.2,1.7,11.1,1.9c4.9,0.2,12.5,6.9,13.3,8.2s-0.2,4.6-4.1,4
					c-3.8-0.6-13.8-4.3-13.8-5.7s-4.9-3.9-6.9-4.3C597.4,274.7,598.7,270.2,599.9,271.1z"/>
			</g>
			<g>
				<path class="st2" d="M427.5,281.1c3.5-2.6,6.6-2.6,6.8-0.1c0,0,0,0-0.5,1.9c-1.1,4.5-2.3,8.9-4,13.1c-0.7,1.7-0.7,1.7-0.7,1.7
					c-2,1.4-4.9,0.8-6.5-1.4c0,0,0,0-0.2-2.1c-0.3-2.8-0.3-2.8-0.3-2.8c0.7-3.2,1.7-6.6,2.2-7.7c0,0,0,0,0.7-0.6
					C427.5,281.1,427.5,281.1,427.5,281.1z"/>
			</g>
			<g>
				<path class="st2" d="M546.2,265.9c2.9,3.3,5.6,9.3,5.9,13.3c0,0,0,0,5.8,0.3c2.7,0.1,2.7,0.1,2.7,0.1c2.9,1.1,0.9,1.3-4.4,0.4
					c-5.3-0.9-16.3-12-17.9-14C536.7,264,543.3,262.7,546.2,265.9z"/>
			</g>
			<g>
				<path class="st2" d="M439.6,103.9c-1.5-0.7,0.4-4.4,4.2-8.4l12.4-8.7c5.4-1.1,9.9-1.8,10-1.5c0.1,0.3-2,1.6-5.1,2.4
					c0,0,0,0-2.4,1.3c-4.2,2.2-8.2,4.8-12.1,7.4c-3.7,2.5-3.7,2.5-3.7,2.5c1.7,3.5,3,6.6,2.9,6.8
					C445.5,105.8,441.1,104.6,439.6,103.9z"/>
			</g>
			<g>
				<path class="st2" d="M556,268.1c-0.4-1.8,3.6-2.3,8.9-1.2c0,0,0,0,2.5-5.3c0.3-0.7,0.3-0.7,0.3-0.7c1.4-0.3,3.4,1.3,4.5,3.6
					c0,0,0,0-0.3,1.8c-0.5,2.4-1.9,6.1-3.6,6.5c-3.2,0.8-3.2,0.8-3.2,0.8C561.3,272.7,556.4,269.9,556,268.1z"/>
			</g>
			<g>
				<path class="st2" d="M340,154.2c0.5-1.5-0.4-4.9-2-7.5c0,0,0,0-0.7-2.6c-0.3-1-0.3-1-0.3-1c1.5-1.6,4.4-1.8,6.5-0.4
					c0,0,0,0-0.2,0.6c-1.6,5.1,3.8,6.5,4.9,10c0.3,0.9,1.6,2.2,1.3,2.6c-0.7,1.2-1.9,2.5-3.1,2.8c-2.5,0.7-2.5,0.7-2.5,0.7
					C340.6,159.8,339.5,155.7,340,154.2z"/>
			</g>
			<g>
				<path class="st2" d="M211.6,90.1c0.1-0.1-2.5,0.6-5.7,1.6c0,0,0,0-3,0.3c-1.1,0.1-1.1,0.1-1.1,0.1c-1.4-1.4-2.3-2.8-2.1-2.9
					c0.2-0.2,0-1-0.9-1.3c-1-0.3-2.9-2.2-1.9-3.4c0,0,0,0,0.5-1c1.7-3.4,3.6-4.6,6.8-1.5c0.7,0.7,2.3,0.5,3.5,0.7
					c0,0-0.2-0.2-0.2-0.2c0.5,0.7,0.8,1.6,1.4,2C211,85.8,212.8,87.2,211.6,90.1L211.6,90.1z"/>
			</g>
			<g>
				<path class="st2" d="M590.1,178.8c-0.1,0,1.1,1.6,2.6,3.4c0,0,0,0-0.1,1.6c-0.3,6.8-1.6,7.2-1.6,7.2c-5.2,1.9-10.6,4-12.2,4.8
					c-1.5,0.7-6.1,2.4-6.3,1.9c-0.2-0.5,2.6-5.4,7-8.7c0,0,0.1,0,4.6-1.2C589.7,186.4,589.2,182.4,590.1,178.8L590.1,178.8z"/>
			</g>
			<g>
				<path class="st2" d="M382.5,75.8c0,0-0.9,1.5-2,3.4c-1.1,1.9-5.8,5.6-7.7,3.5c-1.9-2.1-2.8-8.6,2.7-9.2
					C375.5,73.5,377.2,73.3,382.5,75.8L382.5,75.8z"/>
			</g>
			<g>
				<path class="st2" d="M156.9,107.1c3,0.4,2.7,2.3-0.5,4.2c0,0,0,0-1.4,1.8c-3.4,4.4-3.4,4.4-3.4,4.4c-3.9-2-6.8-4.8-6.3-6.1
					C145.7,110,153.9,106.7,156.9,107.1z"/>
			</g>
			<g>
				<path class="st2" d="M310.8,126.7c-3.4-2.9-2.4-5.6,2.1-6.1c4.5-0.5,8,3.9,4.5,6.8c0,0,0,0-3.6-0.3
					C310.8,126.7,310.8,126.7,310.8,126.7z"/>
			</g>
			<g>
				<path class="st2" d="M201.2,99c0.2-0.3,1.9-0.5,3.7-0.5c0,0,0,0,0.3,0.6c2.3,5.2,6.3,2.5,9.8,2.4c3-0.1,3-0.1,3-0.1
					c3.3,0.6,1.6,2.1-3.8,3.2c0,0-2.5,0.5-8.6,0.5c-1.7,0-1.7,0-1.7,0C202,102.3,201,99.2,201.2,99z"/>
			</g>
			<g>
				<path class="st2" d="M177.4,100.8c1.6,0.9-0.3,2.6-4.2,3.7c-3.9,1.2-13.1-3.4-10.5-4.9c0,0,0,0,2,0.1c2.2,0.1,2.2,0.1,2.2,0.1
					c2.6,1.4,4.8,1.8,4.9,1S175.9,99.9,177.4,100.8z"/>
			</g>
			<g>
				<path class="st2" d="M655.8,353.4c-0.1-0.3,1.4-1.9,3.4-3.7c1.9-1.8,7.8-6.7,8.3-6.5s0,4.1-2.4,7.9c0,0,0,0-2.7,2.5
					c-1.3,1.2-1.3,1.2-1.3,1.2C658.3,354.5,655.8,353.7,655.8,353.4z"/>
			</g>
			<g>
				<path class="st2" d="M552.5,245.2c1.1,0.7-0.1,3.3-2.8,5.7s-10.6,0.7-8.4-1.1C543.5,248.1,551.4,244.5,552.5,245.2z"/>
			</g>
			<g>
				<path class="st2" d="M184.4,111.9c0.1-0.2,0.7-0.6,1.4-0.9c0.7-0.3,2.4-1.3,2.3-1.6c-0.1-0.3,0.4-1.2,1.4-1.2
					c0.9,0,4.3,1,4.1,2.4c-0.1,1.4-1.8,4.6-3.5,4C188.4,114.1,184.3,112.1,184.4,111.9z"/>
			</g>
			<g>
				<path class="st2" d="M382.5,75.8c0,0,0.1-0.2,0.3-0.5c0.2-0.3,0-1.1-0.7-1.2s-0.5-0.9,2.1-1.5c2.6-0.6,8.6,0.9,6.5,2.1
					C388.5,75.8,382.5,75.8,382.5,75.8z"/>
			</g>
			<g>
				<path class="st2" d="M329.8,157c1.8-8.8,1.8-8.8,7.2-8.3C337.7,153.9,335.6,156.7,329.8,157z"/>
			</g>
			<g>
				<path class="st2" d="M578.2,266.6c2.5,0.1,3.5,0.3,2.2,0.4c-1.3,0.1-4.7,0.6-4.7,0.9c0,0.3,0.6,1,1.3,1c0.7,0,2.3,1,2.3,2.2
					s-0.4,4.6-1,4.2c-0.5-0.4-2.3-1.2-2.4-0.5c-0.2,0.7-0.7,2.4-0.9,2.4c-0.2,0-0.9-0.7-1.2-1.8
					C573.4,274.5,575.7,266.5,578.2,266.6z"/>
			</g>
			<g>
				<path class="st2" d="M200.2,112.5c-1.6,1.2-3.4-0.3-3.9-3.2c0,0,0,0,0.4-0.2c2.4-1.1,2.4-1.1,2.4-1.1c2.9-0.6,5.5-0.9,5.6-0.6
					C205,107.8,201.8,111.3,200.2,112.5z"/>
			</g>
			<g>
				<path class="st2" d="M212.4,134c0,0,1.5,0.7,3.4,1.4c1.9,0.7,6.9,2.8,6.9,3s-1.8,0.9-3.7,0.9c-1.9,0-6.8-0.8-6.8-1.8
					C212.3,136.5,212.5,134,212.4,134z"/>
			</g>
			<g>
				<path class="st2" d="M160.9,95.8c0.1,0.3-1.3,1.5-3.2,2.6c-1.9,1.1-7.7,1.8-7.9,1.5c-0.1-0.3,1.2-1.7,3.2-2.5
					S160.8,95.4,160.9,95.8z"/>
			</g>
			<g>
				<path class="st2" d="M590,178.8c0,0,0.1-1.1,0.1-2.5c0,0,0,0,0.5-1c0.7-1.5,0.7-1.5,0.7-1.5c1.2-1.5,2.9-2.3,3.9-1.8
					c1,0.5,3.1,3.2,1.3,4S590,178.8,590,178.8z"/>
			</g>
			<g>
				<path class="st2" d="M192.9,99.4c0.3,0.4-0.5,2.3-1.8,4.2c0,0,0,0-1.3,0.1c-1.5,0.1-1.5,0.1-1.5,0.1c-2.5-1.9-3.2-3.8-1.7-4.2
					C188.1,99.2,192.6,99.1,192.9,99.4z"/>
			</g>
			<g>
				<path class="st2" d="M221.2,229.6c-2.9-0.9-2.9-1.3,0.1-0.8s10.7,3.1,10.7,3.4C231.9,232.3,224.1,230.5,221.2,229.6z"/>
			</g>
			<g>
				<path class="st2" d="M557.5,222.4c0.3,0,0.6,0.9,0.6,2c0,1.1,0.5,5,1,5.3c0.6,0.3,2.3,1.4,2.2,1.6c0,0.1-1.1,0.4-2.3,0.3
					c0,0,0,0-1-0.4c-5.2-2.1-5.2-2.1-5.2-2.1C554.7,225.5,557.1,222.5,557.5,222.4z"/>
			</g>
			<g>
				<path class="st2" d="M190.1,93.5c-0.2,0.3-1.6,0.3-3.3-0.1c-1.6-0.4-5.7-1.9-5.8-2.6c-0.2-0.7,0.8-2.8,2.8-1.9
					C185.8,89.9,190.3,93.2,190.1,93.5z"/>
			</g>
			<g>
				<path class="st2" d="M620.7,349c-0.3,0-0.9-0.9-1.3-1.9c-0.4-1-0.8-4.2,0.5-4.1s4.6,1.5,4,2.5C623.3,346.6,621,349,620.7,349z"
					/>
			</g>
			<g>
				<path class="st2" d="M565,243.3c-0.2,1.3-1.4,1.7-2.6,0.9c-1.2-0.9-3-3.2-1.8-3.7C561.7,240,565.2,241.9,565,243.3z"/>
			</g>
			<g>
				<path class="st2" d="M213.4,90.1c-1,0-2.1-2-2.4-4.3c0,0,0,0-2.2-1.3c-0.6-0.4-0.6-0.4-0.6-0.4c-0.4-0.9,1.1-3.3,3.4-5.5
					c0,0,0,0,3.4,3.8c1.4,1.6,1.4,1.6,1.4,1.6c5.1-0.6,7.4-0.7,5.1-0.2s-7.9,2.4-7.1,3C215.1,87.7,214.4,90.1,213.4,90.1z"/>
			</g>
		</g>
	</g>
	<polygon class="st3" points="196.7,195.6 199.1,200.6 204.7,201.4 200.7,205.4 201.6,210.9 196.7,208.3 191.7,210.9 192.6,205.4 
		188.6,201.4 194.2,200.6 	"/>
	<path class="st4" d="M184,210.9c0,0-39.6,16.2-49,46.8"/>
	<polyline class="st4" points="172.2,209 184,209.7 183,221.4 	"/>
	<g>
		<path class="st5" d="M93.9,268.1c0-0.8,0.1-1.6,0.3-2.4s0.6-1.5,1.1-2.1c0.5-0.6,1-1.1,1.7-1.5c0.7-0.4,1.4-0.6,2.2-0.5
			c0.7,0,1.3,0.1,2,0.3c0.7,0.3,1.2,0.7,1.8,1.2c0.5,0.5,1,1.2,1.3,1.9c0.3,0.7,0.5,1.6,0.5,2.5c0,1.9-0.4,3.3-1.3,4.2
			c-0.9,0.9-2.3,1.4-4.1,1.4c-0.8,0-1.5-0.1-2.2-0.3c-0.7-0.2-1.2-0.5-1.7-0.9c-0.5-0.4-0.9-0.9-1.1-1.5S93.9,269,93.9,268.1z
			 M95.3,267.8c0,1.4,0.3,2.4,1,3c0.7,0.7,1.7,1,3,1c0.7,0,1.3-0.1,1.8-0.3c0.5-0.2,0.9-0.5,1.3-0.9c0.3-0.4,0.6-0.8,0.8-1.4
			c0.2-0.5,0.3-1.1,0.3-1.7c0-0.7-0.2-1.4-0.4-2c-0.2-0.6-0.5-1.1-0.9-1.5s-0.8-0.7-1.3-1c-0.5-0.2-1-0.3-1.6-0.3
			c-0.4,0-0.7,0-1.1,0.2c-0.4,0.2-0.7,0.4-1,0.6c-0.3,0.3-0.6,0.6-0.8,0.9c-0.2,0.3-0.5,0.7-0.6,1.1s-0.3,0.8-0.4,1.2
			S95.3,267.5,95.3,267.8z"/>
		<path class="st5" d="M105.3,271c0-0.2-0.1-0.5-0.1-0.9c0-0.4,0-0.7,0-1.1c0-0.4,0.1-0.8,0.1-1.2c0-0.4,0.1-0.8,0.2-1.2
			c0.1-0.4,0.2-0.7,0.2-1c0.1-0.3,0.2-0.5,0.3-0.6c0.3-0.2,0.5-0.2,0.7-0.1c0.2,0.1,0.3,0.3,0.2,0.6c0,0.2-0.1,0.5-0.2,0.9
			c-0.1,0.4-0.2,0.8-0.3,1.3c-0.1,0.5-0.2,1-0.2,1.5s0,1.1,0.1,1.6c0.1,0.3,0.2,0.6,0.5,0.8c0.3,0.2,0.5,0.3,0.9,0.3
			c0.3,0,0.7,0,1.1,0s0.8-0.2,1.2-0.3c0.4-0.1,0.7-0.3,1-0.5c0.3-0.2,0.6-0.4,0.7-0.7c0-0.3,0-0.7,0-1.1c0-0.4,0-0.9,0-1.3
			s0-0.9,0-1.4c0-0.5,0-1,0-1.5c0.2-0.2,0.4-0.3,0.6-0.3c0.2,0,0.4,0.2,0.6,0.3l0.4,7.9c-0.1,0.1-0.2,0.2-0.3,0.2
			c-0.1,0.1-0.2,0.1-0.3,0.1s-0.2,0-0.3,0c-0.1,0-0.2-0.1-0.3-0.2l-0.2-1.3c-0.1,0.1-0.4,0.3-0.8,0.5c-0.4,0.2-0.8,0.4-1.3,0.5
			c-0.5,0.2-1,0.3-1.5,0.3s-1,0-1.4-0.1c-0.4-0.1-0.8-0.3-1.2-0.7S105.4,271.6,105.3,271z"/>
		<path class="st5" d="M114,265.1c0-0.2,0.1-0.3,0.2-0.3c0.1,0,0.3-0.1,0.4,0c0.2,0,0.4,0.1,0.5,0.4c0.1,0.2,0.2,0.5,0.2,0.7
			c0,0.3,0.1,0.5,0.1,0.8c0,0.3,0,0.4,0,0.5c0.3-0.2,0.5-0.5,0.9-0.8c0.3-0.3,0.7-0.5,1.1-0.8s1-0.4,1.6-0.5c0.6-0.1,1.4-0.1,2.3,0
			c0.2,0.1,0.4,0.2,0.5,0.3c0.1,0.2,0.2,0.3,0.2,0.5c0,0.2,0,0.3-0.1,0.5c-0.1,0.1-0.2,0.2-0.4,0.2c-0.2-0.2-0.5-0.3-0.9-0.3
			c-0.4,0-0.8,0-1.2,0.1c-0.4,0.1-0.9,0.2-1.3,0.4c-0.4,0.2-0.9,0.5-1.2,0.8c-0.4,0.3-0.7,0.6-1,1c-0.3,0.4-0.4,0.8-0.5,1.3v3
			c0,0-0.1,0.1-0.2,0.2c-0.1,0.1-0.3,0.2-0.4,0.2c-0.2,0-0.3,0-0.5,0c-0.2,0-0.3-0.2-0.4-0.4c0-0.1,0-0.3,0-0.6s0-0.8,0-1.2
			c0-0.5,0-1,0-1.6c0-0.6,0-1.1,0-1.7c0-0.6,0-1.1,0-1.5C114,265.7,114,265.3,114,265.1z"/>
		<path class="st5" d="M130.3,268.7c-0.2,0-0.3-0.1-0.4-0.1c-0.1-0.1-0.2-0.2-0.2-0.3c0-0.1,0-0.2,0.1-0.4c0.1-0.1,0.2-0.2,0.3-0.4
			c0.1-0.1,0.2-0.3,0.3-0.4c0.1-0.1,0.1-0.3,0.2-0.5c0-0.1,0-0.3,0-0.6c0-0.3,0-0.5,0-0.9c0-0.3,0-0.7,0-1c0-0.4,0-0.7,0-1
			c0-0.3,0-0.6,0-0.9c0-0.3,0-0.4,0-0.6c0.1-0.1,0.2-0.1,0.3-0.2c0.1-0.1,0.2-0.1,0.3-0.1c0.1,0,0.2,0,0.3,0c0.1,0,0.2,0.1,0.2,0.3
			l-0.1,5.1c0,0,0.2,0,0.4,0s0.5,0,0.8,0c0.3,0,0.7,0,1.1,0c0.4,0,0.8,0,1.1-0.1c0.4,0,0.7-0.1,1-0.2c0.3-0.1,0.5-0.2,0.7-0.3
			l0.1-4.6c0-0.1,0.1-0.1,0.2-0.2c0.1,0,0.2-0.1,0.4-0.1c0.1,0,0.3,0,0.4,0c0.1,0,0.2,0,0.3,0c0,0.2,0,0.5,0,0.9c0,0.4,0,0.9,0,1.4
			c0,0.5,0,1,0,1.6c0,0.6,0,1.1,0,1.6c0,0.5,0,1,0,1.4c0,0.4,0,0.7,0,0.9c0,0.3,0,0.6,0.1,0.9c0,0.3,0.1,0.6,0.1,1
			c0.1,0.3,0.1,0.6,0.2,0.9s0.2,0.6,0.4,0.8c-0.3,0.3-0.5,0.4-0.8,0.5c-0.3,0.1-0.6,0-0.9-0.2c-0.2-0.4-0.3-0.8-0.4-1.3
			c-0.1-0.5-0.2-0.9-0.2-1.4s-0.1-0.9-0.1-1.4c0-0.5,0-0.9,0-1.3c-0.5,0-0.9,0-1.3,0c-0.4,0-0.8,0-1.1,0c-0.4,0-0.7,0.1-1.1,0.2
			c-0.4,0.1-0.8,0.2-1.3,0.4c0,0.3,0,0.7-0.1,1.1s0,0.8,0,1.2s0,0.8,0.1,1.3s0.1,0.8,0.2,1.2l-1.3,0.1L130.3,268.7z"/>
		<path class="st5" d="M139.9,269.3c0-0.6,0.1-1.2,0.2-1.8c0.1-0.6,0.3-1.2,0.5-1.8c0.2-0.6,0.5-1.1,0.8-1.6
			c0.3-0.5,0.7-0.9,1.1-1.3c0.4-0.4,0.9-0.7,1.4-0.9c0.5-0.2,1.1-0.3,1.7-0.3c0.9,0,1.7,0.1,2.3,0.4c0.6,0.3,1.2,0.7,1.6,1.2
			c0.4,0.5,0.7,1.1,0.9,1.8s0.3,1.4,0.2,2.1c0,0.7-0.1,1.4-0.3,2.1c-0.2,0.7-0.5,1.3-0.8,1.8c0.4,0.4,0.7,0.6,1,0.8
			c0.3,0.2,0.5,0.3,0.7,0.4c0.1,0.1,0.1,0.2,0,0.2c-0.1,0.1-0.4,0.1-0.9,0.3l-1.5-0.8c-0.3,0.2-0.6,0.4-0.9,0.6s-0.8,0.3-1.2,0.4
			c-0.4,0.1-0.8,0.2-1.3,0.2s-0.8,0.1-1.2,0c-0.5,0-1.1-0.1-1.6-0.3c-0.5-0.2-1-0.5-1.4-0.8c-0.4-0.4-0.8-0.8-1-1.3
			C140,270.3,139.9,269.8,139.9,269.3z M141.2,268.9c0,0.6,0.2,1,0.4,1.4c0.3,0.4,0.6,0.7,0.9,1c0.4,0.3,0.8,0.5,1.3,0.6
			c0.5,0.1,1,0.2,1.4,0.2c0.5,0,1-0.1,1.4-0.3c0.5-0.2,0.9-0.4,1.2-0.6l-3.1-2.8c0,0,0,0,0,0c0,0,0-0.1,0-0.1c0-0.1,0-0.2,0.1-0.3
			c0-0.1,0.1-0.1,0.2-0.1c0.1,0,0.2-0.1,0.2-0.1c0.1,0,0.2,0,0.2,0c0.3,0,0.6,0.1,0.9,0.3c0.3,0.2,0.5,0.4,0.8,0.6s0.5,0.5,0.8,0.8
			s0.5,0.5,0.8,0.6c0.1-0.3,0.3-0.6,0.4-1c0.1-0.4,0.2-0.8,0.3-1.2c0.1-0.4,0.1-0.8,0.1-1.3c0-0.4,0-0.9-0.1-1.3
			c-0.1-0.4-0.2-0.8-0.4-1.1c-0.2-0.4-0.5-0.6-0.8-0.9c-0.3-0.2-0.8-0.4-1.3-0.5c-0.5-0.1-1.1-0.1-1.8-0.1c-0.5,0.1-0.9,0.3-1.3,0.6
			c-0.4,0.3-0.7,0.6-1,1c-0.3,0.4-0.5,0.8-0.8,1.2c-0.2,0.4-0.4,0.9-0.5,1.3c-0.1,0.4-0.2,0.8-0.3,1.2
			C141.1,268.4,141.1,268.7,141.2,268.9z"/>
		<path class="st5" d="M159.3,262.9c0-0.2,0.1-0.4,0.2-0.5c0.1-0.1,0.3-0.1,0.4-0.2s0.3,0,0.5,0c0.2,0,0.3,0.1,0.4,0.2
			c0.1,0.3,0.1,0.5,0,0.7s-0.3,0.2-0.4,0.2s-0.4,0-0.6-0.1C159.6,263.1,159.4,263,159.3,262.9z M160.9,265.2
			c0.1,1.1,0.2,2.3,0.2,3.6c0.1,1.3,0.1,2.5,0.2,3.8c0,0.2-0.1,0.3-0.3,0.4c-0.1,0.1-0.3,0.1-0.5,0.1s-0.3,0-0.5-0.1
			c-0.1-0.1-0.2-0.1-0.3-0.2v-7.6H160.9z"/>
		<path class="st5" d="M162.9,273.2c-0.1,0-0.2,0.1-0.3,0.1c-0.1,0-0.3,0-0.4-0.1c-0.1,0-0.2-0.1-0.3-0.2l0-7.8
			c0.3-0.2,0.6-0.3,0.8-0.2c0.2,0,0.3,0.2,0.4,0.3c0.1,0.2,0.1,0.4,0.1,0.7c0,0.3,0,0.5,0.1,0.8c0.9-0.7,1.8-1.2,2.4-1.5
			c0.7-0.3,1.3-0.4,1.7-0.4c0.5,0,0.8,0.1,1.1,0.4c0.3,0.3,0.5,0.6,0.7,1c0.2,0.4,0.3,0.9,0.3,1.5c0.1,0.6,0.1,1.1,0.1,1.8
			c0,0.6,0,1.2,0,1.8c0,0.6,0,1.2,0.1,1.7c-0.1,0.1-0.3,0.2-0.5,0.2c-0.2,0-0.4,0-0.5,0c-0.2,0-0.3-0.1-0.4-0.1s-0.1,0,0,0
			c0-0.2,0-0.5-0.1-0.9c0-0.4,0-0.7,0-1.2s0-0.8,0-1.3c0-0.4,0-0.9,0-1.3c0-0.4,0-0.8-0.1-1.1c0-0.3-0.1-0.6-0.1-0.8
			c-0.1-0.2-0.2-0.3-0.4-0.4c-0.2-0.1-0.4-0.1-0.7-0.1c-0.3,0-0.6,0.1-0.9,0.2c-0.3,0.1-0.7,0.2-1,0.4s-0.7,0.4-1,0.6
			c-0.3,0.2-0.6,0.5-0.9,0.8l-0.1,4.9C163,273.1,163,273.2,162.9,273.2z"/>
		<path class="st5" d="M94.8,290.3c0,0-0.1,0.1-0.2,0.1c-0.1,0-0.2,0-0.3-0.1c-0.1,0-0.2-0.1-0.3-0.2c-0.1-0.1-0.1-0.1-0.1-0.2
			c0.1-0.2,0.2-0.4,0.3-0.8c0.1-0.4,0.3-0.8,0.5-1.2c0.2-0.5,0.3-1,0.5-1.5s0.4-1.1,0.6-1.6c0.2-0.5,0.4-1.1,0.6-1.6
			c0.2-0.5,0.4-1,0.5-1.5s0.3-0.9,0.4-1.2c0.1-0.4,0.2-0.6,0.3-0.8c0.1-0.2,0.1-0.4,0.2-0.6s0.1-0.3,0.1-0.5
			c0.1-0.1,0.2-0.2,0.3-0.3s0.3-0.1,0.6-0.1c0.4,0.3,0.8,0.7,1.1,1.2s0.6,1,0.8,1.5s0.5,1,0.7,1.4s0.4,0.8,0.7,1.1
			c0.1,0.1,0.2,0.2,0.3,0.2c0.1,0,0.3,0,0.4,0s0.3-0.1,0.5-0.1c0.2,0,0.3-0.1,0.5-0.1s0.2,0,0.3,0c0.1,0,0.1,0.1,0.1,0.3
			c0,0.2,0,0.3,0,0.5c-0.1,0.1-0.2,0.2-0.3,0.3c-0.1,0.1-0.3,0.1-0.4,0.1c-0.2,0-0.3,0-0.4,0.1c-0.1,0-0.2,0-0.3,0.1
			c-0.1,0-0.1,0.1-0.1,0.1c0.1,0.3,0.2,0.7,0.4,1.1c0.1,0.4,0.3,0.8,0.4,1.2s0.3,0.8,0.5,1.2s0.4,0.7,0.6,1c0,0.1,0,0.2-0.1,0.4
			s-0.2,0.2-0.3,0.3c-0.1,0.1-0.3,0.2-0.4,0.2s-0.2,0-0.3,0l-2.4-5.1l-4.7,1.1c0,0.2-0.1,0.4-0.2,0.8c-0.1,0.4-0.2,0.7-0.3,1.1
			c-0.1,0.4-0.3,0.8-0.4,1.2C95.1,289.8,95,290.1,94.8,290.3z M98.5,280.2c-0.1,0.5-0.3,0.9-0.4,1.4c-0.2,0.4-0.3,0.9-0.5,1.3
			s-0.3,0.8-0.5,1.1c-0.2,0.4-0.3,0.7-0.4,1c0.3,0,0.7,0,1-0.1s0.6-0.2,1-0.3c0.3-0.1,0.6-0.2,0.9-0.3c0.3-0.1,0.6-0.2,0.8-0.3
			c-0.1-0.2-0.2-0.4-0.3-0.7c-0.1-0.3-0.3-0.7-0.4-1.1c-0.2-0.4-0.4-0.7-0.5-1.1C98.9,280.7,98.7,280.5,98.5,280.2z"/>
		<path class="st5" d="M105,287.8c0-0.2-0.1-0.5-0.1-0.9c0-0.4,0-0.7,0-1.1c0-0.4,0.1-0.8,0.1-1.2c0-0.4,0.1-0.8,0.2-1.2
			c0.1-0.4,0.2-0.7,0.2-1c0.1-0.3,0.2-0.5,0.3-0.6c0.3-0.2,0.5-0.2,0.7-0.1s0.3,0.3,0.2,0.6c0,0.2-0.1,0.5-0.2,0.9
			c-0.1,0.4-0.2,0.8-0.3,1.3c-0.1,0.5-0.2,1-0.2,1.5s0,1.1,0.1,1.6c0.1,0.3,0.2,0.6,0.5,0.8c0.3,0.2,0.5,0.3,0.9,0.3
			c0.3,0,0.7,0,1.1,0s0.8-0.2,1.2-0.3c0.4-0.1,0.7-0.3,1-0.5c0.3-0.2,0.6-0.4,0.7-0.7c0-0.3,0-0.7,0-1.1c0-0.4,0-0.9,0-1.3
			c0-0.5,0-0.9,0-1.4c0-0.5,0-1,0-1.5c0.2-0.2,0.4-0.3,0.6-0.3c0.2,0,0.4,0.2,0.6,0.3l0.4,7.9c-0.1,0.1-0.2,0.2-0.3,0.2
			c-0.1,0.1-0.2,0.1-0.3,0.1s-0.2,0-0.3,0c-0.1,0-0.2-0.1-0.3-0.2l-0.2-1.3c-0.1,0.1-0.4,0.3-0.8,0.5c-0.4,0.2-0.8,0.4-1.3,0.5
			c-0.5,0.2-1,0.3-1.5,0.3s-1,0-1.4-0.1c-0.4-0.1-0.8-0.3-1.2-0.7S105.1,288.4,105,287.8z"/>
		<path class="st5" d="M114.3,289c0.8-0.1,1.6-0.2,2.2-0.3s1.2-0.4,1.7-0.6c0.5-0.2,0.8-0.4,1-0.7c0.2-0.2,0.3-0.5,0.2-0.7
			c-0.1-0.3-0.4-0.4-1.1-0.3c-0.7,0-1.6,0.2-2.9,0.4c-0.4,0-0.7-0.1-1-0.3c-0.3-0.1-0.5-0.3-0.7-0.5s-0.3-0.4-0.3-0.6
			c0-0.2,0-0.4,0-0.6c0-0.3,0.1-0.6,0.3-0.9s0.4-0.6,0.7-0.8c0.3-0.2,0.7-0.5,1.1-0.7c0.4-0.2,0.8-0.4,1.3-0.5s0.9-0.2,1.4-0.2
			s1,0,1.5,0.1c0.2,0.1,0.4,0.2,0.6,0.4s0.3,0.3,0.3,0.4s0.1,0.3,0,0.4s-0.2,0.2-0.3,0.3c-0.4-0.2-0.8-0.3-1.2-0.4
			c-0.4-0.1-0.8-0.1-1.2-0.1s-0.8,0.1-1.2,0.2c-0.4,0.1-0.7,0.3-1,0.4s-0.5,0.4-0.7,0.7c-0.2,0.3-0.3,0.6-0.3,0.9
			c0,0.2,0.1,0.3,0.2,0.4s0.3,0.1,0.5,0.1s0.4,0,0.6-0.1c0.2,0,0.4-0.1,0.5-0.1c0.9-0.1,1.6-0.2,2.2-0.1s1,0.2,1.3,0.4
			c0.3,0.2,0.5,0.4,0.5,0.7s0,0.6-0.2,0.9c-0.2,0.3-0.4,0.6-0.8,1s-0.8,0.6-1.3,0.9c-0.5,0.3-1.1,0.5-1.7,0.7s-1.3,0.3-2.1,0.3
			c-0.2,0.1-0.3,0.1-0.4,0c-0.1-0.1-0.2-0.2-0.3-0.3s-0.1-0.3-0.1-0.4S114.2,289.1,114.3,289z"/>
		<path class="st5" d="M121.1,283.9c-0.1-0.1-0.1-0.3-0.1-0.4s0.1-0.2,0.2-0.3s0.2-0.2,0.3-0.2h2.6l-0.1-4.3c0-0.1,0.1-0.2,0.2-0.3
			c0.1-0.1,0.2-0.1,0.4-0.1s0.3,0,0.4,0.1s0.2,0.1,0.3,0.3l0.1,4.3l2.4-0.1c0.2,0.1,0.3,0.2,0.3,0.3c0.1,0.1,0.1,0.3,0.1,0.4
			c0,0.1,0,0.2-0.1,0.3c-0.1,0.1-0.1,0.2-0.2,0.2l-2.5,0.1c0,0.6,0,1.1,0,1.5c0,0.5,0,0.9,0.1,1.3c0,0.4,0.1,0.9,0.1,1.3
			c0,0.5,0,1,0,1.5c-0.3,0.2-0.5,0.3-0.8,0.3s-0.5-0.1-0.6-0.3l-0.2-5.6h-2.7C121.3,284.2,121.2,284.1,121.1,283.9z"/>
		<path class="st5" d="M128.7,279.7c0-0.2,0.1-0.4,0.2-0.5c0.1-0.1,0.3-0.1,0.4-0.2s0.3,0,0.5,0s0.3,0.1,0.4,0.2
			c0.1,0.3,0.1,0.5,0,0.7s-0.3,0.2-0.4,0.2s-0.4,0-0.6-0.1S128.8,279.8,128.7,279.7z M130.3,282c0.1,1.1,0.2,2.3,0.2,3.6
			c0.1,1.3,0.1,2.5,0.2,3.8c0,0.2-0.1,0.3-0.3,0.4c-0.1,0.1-0.3,0.1-0.5,0.1s-0.3,0-0.5-0.1c-0.1-0.1-0.2-0.1-0.3-0.2V282H130.3z"/>
		<path class="st5" d="M132.2,290c-0.1,0-0.2,0.1-0.3,0.1c-0.1,0-0.3,0-0.4-0.1c-0.1,0-0.2-0.1-0.3-0.2l0-7.8
			c0.3-0.2,0.6-0.3,0.8-0.2c0.2,0,0.3,0.2,0.4,0.3c0.1,0.2,0.1,0.4,0.1,0.7c0,0.3,0,0.5,0.1,0.8c0.9-0.7,1.8-1.2,2.4-1.5
			s1.3-0.4,1.7-0.4c0.5,0,0.8,0.1,1.1,0.4s0.5,0.6,0.7,1s0.3,0.9,0.3,1.5c0.1,0.6,0.1,1.1,0.1,1.8c0,0.6,0,1.2,0,1.8
			c0,0.6,0,1.2,0.1,1.7c-0.1,0.1-0.3,0.2-0.5,0.2c-0.2,0-0.4,0-0.5,0c-0.2,0-0.3-0.1-0.4-0.1s-0.1,0,0,0c0-0.2,0-0.5-0.1-0.9
			c0-0.4,0-0.7,0-1.2s0-0.8,0-1.3s0-0.9,0-1.3c0-0.4,0-0.8-0.1-1.1c0-0.3-0.1-0.6-0.1-0.8c-0.1-0.2-0.2-0.3-0.4-0.4
			c-0.2-0.1-0.4-0.1-0.7-0.1c-0.3,0-0.6,0.1-0.9,0.2c-0.3,0.1-0.7,0.2-1,0.4s-0.7,0.4-1,0.6c-0.3,0.2-0.6,0.5-0.9,0.8l-0.1,4.9
			C132.4,289.9,132.3,290,132.2,290z"/>
		<path class="st5" d="M140.6,288.6c0.1-0.1,0.2-0.2,0.2-0.3c0.1,0,0.2,0,0.3,0c0.1,0,0.2,0,0.2,0s0.2,0.1,0.2,0.1
			c0.1,0,0.1,0.1,0.1,0.2c0,0.1,0,0.2,0,0.3c-0.1,0.1-0.1,0.3-0.2,0.5c-0.1,0.2-0.2,0.4-0.3,0.5c-0.1,0.2-0.2,0.4-0.3,0.5
			c-0.1,0.2-0.2,0.3-0.3,0.5c0,0-0.1,0.1-0.2,0.2c-0.1,0.1-0.2,0.2-0.3,0.2s-0.2,0.1-0.3,0.2s-0.2,0-0.3,0L140.6,288.6z"/>
		<path class="st5" d="M153.4,279.8l-3.7-0.2c0,0-0.1,0-0.1-0.1c0,0-0.1-0.1-0.1-0.2c0-0.1,0-0.1-0.1-0.2s0-0.1,0-0.2
			c0-0.2,0-0.3,0.2-0.5c0.1-0.2,0.2-0.2,0.4-0.2c0.8,0,1.7,0.1,2.5,0.2c0.8,0.1,1.7,0.1,2.5,0.2c0.8,0,1.7,0,2.5,0s1.7-0.1,2.5-0.3
			c0.1,0,0.1,0.1,0.2,0.2c0,0.1,0.1,0.2,0.1,0.3s0,0.2,0.1,0.4s0,0.2,0,0.3c-0.6,0.2-1.1,0.3-1.5,0.3s-0.8,0-1.2,0
			c-0.4,0-0.8,0-1.2,0s-0.9,0-1.5,0.1c0,0.3,0,0.7-0.1,1.2s-0.1,1.1-0.1,1.7c0,0.6-0.1,1.3-0.1,1.9c0,0.7-0.1,1.3-0.1,2
			s0,1.2-0.1,1.8c0,0.5,0,1,0,1.4l-1.6,0.1L153.4,279.8z"/>
		<path class="st5" d="M165.4,285.7c-0.2,0.2-0.4,0.4-0.7,0.7c-0.2,0.3-0.5,0.6-0.7,0.9c-0.2,0.3-0.5,0.6-0.7,1
			c-0.2,0.3-0.4,0.6-0.7,0.9c-0.2,0.3-0.4,0.5-0.6,0.6c-0.2,0.2-0.4,0.2-0.6,0.2c-0.3,0-0.6-0.1-0.8-0.2c-0.2-0.1-0.2-0.4-0.2-0.7
			l3.7-4.5c-0.9-1.1-1.6-2-2.1-2.7c-0.5-0.7-0.9-1.3-1.2-1.7c-0.3-0.4-0.5-0.7-0.5-0.9c-0.1-0.2-0.1-0.2-0.1-0.3
			c0-0.1,0-0.2,0.1-0.3c0.1-0.1,0.2-0.1,0.3-0.2s0.2,0,0.4,0c0.1,0,0.2,0,0.3,0.1l3.7,5l4.2-5.2c0.1,0,0.2,0,0.3-0.1s0.2,0,0.4,0
			c0.1,0,0.2,0.1,0.3,0.2c0.1,0.1,0.1,0.3,0.1,0.5l-4.3,5.3c0.3,0.3,0.6,0.7,0.9,1c0.3,0.3,0.7,0.6,1,0.9c0.3,0.3,0.7,0.5,1,0.8
			s0.6,0.5,0.8,0.8c0.3,0.3,0.4,0.5,0.6,0.8c0.1,0.3,0.2,0.5,0.2,0.8c0,0.3-0.2,0.4-0.4,0.5c-0.2,0.1-0.5,0-0.8-0.2L165.4,285.7z"/>
	</g>
</g>
</svg>
