<?xml version="1.0" encoding="utf-8"?>
<!-- Generator: Adobe Illustrator 23.1.0, SVG Export Plug-In . SVG Version: 6.00 Build 0)  -->
<svg version="1.1" id="Layer_1" xmlns="http://www.w3.org/2000/svg" xmlns:xlink="http://www.w3.org/1999/xlink" x="0px" y="0px"
	 viewBox="0 0 28 28" style="enable-background:new 0 0 28 28;" xml:space="preserve">
<style type="text/css">
	.st0{display:none;}
	.st1{display:inline;stroke:#FFFFFF;stroke-miterlimit:10;}
	.st2{fill:#FFFFFF;}
</style>
<g class="st0">
	<circle class="st1" cx="14" cy="-48" r="30"/>
</g>
<g>
	<path class="st2" d="M11.5,7.2c1.7-1.5,3.1-3,4.7-4.2c4.2-3.1,10.3-0.6,11.1,4.5c0.3,2.2-0.5,4-2,5.5c-1.4,1.4-2.9,2.7-4.3,4.1
		c-3.3,3.1-9.1,2.4-11.2-1.6c0.5-0.4,1-0.9,1.6-1.3c0.4-0.3,0.8-0.3,1.2,0.3c1.4,2.1,4.3,2.4,6.2,0.7c1.5-1.3,2.9-2.7,4.4-4.1
		c1.3-1.3,1.6-3,0.8-4.5c-0.8-1.5-2.6-2.3-4.3-2c-1.4,0.2-2.4,1.2-3.3,2.1c-0.7,0.7-1.3,1.1-2.4,0.7C13.2,7.2,12.4,7.3,11.5,7.2z"/>
	<path class="st2" d="M18.5,12.7c-0.6,0.5-1.2,1-1.8,1.4c-0.3,0.2-0.6,0.2-0.9-0.2c-1.6-2.3-4.4-2.6-6.4-0.7c-1.4,1.2-2.7,2.5-4,3.8
		c-1.8,1.7-1.9,3.8-0.5,5.5c1.5,1.6,4.1,1.7,5.8,0.3c0.7-0.6,1.3-1.2,1.9-1.8c0.2-0.2,0.5-0.3,0.7-0.3c1.1,0.1,2.1,0.3,3.4,0.5
		c-2.4,1.9-4.1,4.6-7.3,5.3C5,27.3,0.8,23.9,1,19.5c0.1-1.6,0.7-3,1.8-4.1c1.6-1.6,3.3-3.2,5.1-4.7C11.1,8,16.5,8.9,18.5,12.7z"/>
</g>
</svg>
