<?xml version="1.0" encoding="utf-8"?>
<!-- Generator: Adobe Illustrator 23.1.0, SVG Export Plug-In . SVG Version: 6.00 Build 0)  -->
<svg version="1.1" id="Layer_1" xmlns="http://www.w3.org/2000/svg" xmlns:xlink="http://www.w3.org/1999/xlink" x="0px" y="0px"
	 viewBox="0 0 28 28" style="enable-background:new 0 0 28 28;" xml:space="preserve">
<style type="text/css">
	.st0{display:none;}
	.st1{display:inline;stroke:#FFFFFF;stroke-miterlimit:10;}
	.st2{fill:#FFFFFF;}
</style>
<g class="st0">
	<circle class="st1" cx="14" cy="-48" r="30"/>
</g>
<path class="st2" d="M14,26.7c-1.3,0-2.6,0-3.9,0c-2.9-0.1-5.2-2.3-5.3-5.3c0-1.4,0-2.9,0-4.4c0-2,0.8-3.5,2.4-4.6
	c0.3-0.2,0.5-0.6,0.5-0.9c0.1-1.4,0-2.9,0-4.4c0-3.3,2.7-5.9,6.1-5.9c3.3,0,6,2.6,6,5.9c0,1.4,0,2.7,0,4.1c0,0.5,0.1,0.8,0.6,1
	c1.8,1,2.7,2.6,2.7,4.7c0,1.4,0,2.9,0,4.4c-0.1,2.9-2.3,5.3-5.3,5.3C16.7,26.7,15.4,26.7,14,26.7z M17.8,11.5c0-1.6,0.1-3.1,0-4.6
	c-0.1-1.9-1.6-3.4-3.6-3.6c-1.8-0.2-3.8,0.9-4.1,2.7c-0.3,1.8-0.3,3.7-0.4,5.5C12.6,11.5,15.2,11.5,17.8,11.5z M14.1,15.4
	c-1.6,0-2.6,1.6-1.9,3c0.3,0.6,0.4,1.2,0.5,1.8c0.1,0.5,0,1.1,0,1.6c0.1,0.9,0.6,1.4,1.4,1.4c0.8,0,1.4-0.6,1.4-1.4
	c0.1-0.5,0-1,0-1.4c0-0.7,0.1-1.4,0.5-2.1C16.7,17.1,15.6,15.4,14.1,15.4z"/>
</svg>
