<?xml version="1.0" encoding="utf-8"?>
<!-- Generator: Adobe Illustrator 23.1.0, SVG Export Plug-In . SVG Version: 6.00 Build 0)  -->
<svg version="1.1" id="Layer_1" xmlns="http://www.w3.org/2000/svg" xmlns:xlink="http://www.w3.org/1999/xlink" x="0px" y="0px"
	 viewBox="0 0 28 28" style="enable-background:new 0 0 28 28;" xml:space="preserve">
<style type="text/css">
	.st0{display:none;}
	.st1{display:inline;stroke:#FFFFFF;stroke-miterlimit:10;}
	.st2{fill:#FFFFFF;}
</style>
<g class="st0">
	<circle class="st1" cx="14" cy="-48" r="30"/>
</g>
<g>
	<path class="st2" d="M9.7,11.4c0.4,0,0.7,0,1,0c2.8,0,5.5,0,8.3,0c2.5,0,4.3,1.7,4.3,4.2c0.1,2.3,0.1,4.7,0,7
		c-0.1,2.5-1.8,4.2-4.3,4.2c-3.4,0-6.9,0-10.3,0c-2.5,0-4.2-1.7-4.2-4.2c-0.1-2.4-0.1-4.8,0-7.1c0.1-1.7,0.9-3,2.5-3.9
		c0.3-0.1,0.5-0.5,0.5-0.8c0.1-1.5,0-3.1,0.1-4.5c0.2-3.1,3-5.5,6.2-5.5c3.2,0.1,5.9,2.4,6.1,5.5c0.1,1-0.2,1.4-1,1.5
		c-0.7,0.1-1.1-0.4-1.2-1.3c-0.2-2.2-2.1-3.7-4.2-3.6C11.2,3,9.7,4.7,9.7,6.9C9.7,8.4,9.7,9.9,9.7,11.4z M16,17.5
		c0-1-0.6-1.7-1.4-2.1c-0.8-0.3-1.8-0.1-2.4,0.6c-0.6,0.7-0.8,1.5-0.3,2.3c0.5,0.7,0.5,1.5,0.5,2.2c0,0.5-0.1,1.1,0.1,1.6
		c0.1,0.7,0.6,1.2,1.3,1.2c0.8,0.1,1.3-0.4,1.5-1.1c0.1-0.3,0.1-0.7,0.1-1.1c0.1-1.1-0.2-2.2,0.6-3.1C16,17.9,16,17.6,16,17.5z"/>
</g>
</svg>
