<svg width="537" height="117" viewBox="0 0 537 117" fill="none" xmlns="http://www.w3.org/2000/svg">
<path fill-rule="evenodd" clip-rule="evenodd" d="M32.0582 93.503C30.552 93.5048 29.0802 93.9553 27.8288 94.7976C26.5774 95.6399 25.6025 96.8362 25.0275 98.2352C24.4524 99.6342 24.303 101.173 24.5981 102.658C24.8932 104.142 25.6195 105.505 26.6854 106.575C27.7512 107.644 29.1086 108.372 30.586 108.666C32.0634 108.961 33.5945 108.808 34.9857 108.228C36.3769 107.648 37.5658 106.667 38.4021 105.408C39.2383 104.149 39.6845 102.669 39.684 101.155C39.6834 100.15 39.4857 99.154 39.1021 98.2251C38.7185 97.2962 38.1566 96.4523 37.4485 95.7417C36.7403 95.031 35.8998 94.4676 34.9749 94.0835C34.0501 93.6993 33.0589 93.5021 32.0582 93.503ZM55.2559 104.635C55.8342 103.629 56.1026 102.473 56.0272 101.313C55.9519 100.154 55.536 99.0425 54.8323 98.1205C54.1286 97.1984 53.1687 96.5068 52.0738 96.1331C50.979 95.7593 49.7985 95.7202 48.6816 96.0207C47.5646 96.3213 46.5615 96.9479 45.7989 97.8214C45.0363 98.6949 44.5486 99.776 44.3974 100.928C44.2463 102.08 44.4384 103.251 44.9496 104.294C45.4607 105.336 46.268 106.203 47.2692 106.784C47.9339 107.17 48.6678 107.421 49.4291 107.523C50.1904 107.624 50.9641 107.573 51.7059 107.374C52.4477 107.174 53.143 106.829 53.7522 106.359C54.3613 105.89 54.8723 105.304 55.2559 104.635ZM64.8462 94.99C64.237 94.6366 63.5372 94.4727 62.8353 94.5189C62.1334 94.5652 61.461 94.8196 60.9029 95.2499C60.3449 95.6802 59.9263 96.2672 59.7001 96.9365C59.4739 97.6059 59.4503 98.3276 59.6322 99.0105C59.8142 99.6933 60.1935 100.307 60.7222 100.773C61.2509 101.239 61.9053 101.537 62.6026 101.63C63.3 101.722 64.009 101.605 64.64 101.293C65.2709 100.98 65.7956 100.487 66.1476 99.8748C66.6193 99.0535 66.7471 98.0776 66.5031 97.1616C66.259 96.2456 65.6631 95.4645 64.8462 94.99ZM73.2411 92.2178C73.242 91.762 73.1083 91.3162 72.8569 90.9368C72.6056 90.5574 72.2479 90.2615 71.8291 90.0866C71.4103 89.9117 70.9493 89.8655 70.5044 89.9541C70.0595 90.0426 69.6508 90.2618 69.3299 90.5839C69.0091 90.9061 68.7906 91.3166 68.702 91.7636C68.6135 92.2107 68.659 92.674 68.8326 93.0951C69.0063 93.5161 69.3003 93.8759 69.6776 94.1289C70.0548 94.3819 70.4983 94.5167 70.9518 94.5162C71.2523 94.5165 71.55 94.4573 71.8277 94.3419C72.1054 94.2265 72.3578 94.0573 72.5704 93.8438C72.7831 93.6303 72.9517 93.3769 73.0668 93.0979C73.1819 92.8188 73.2411 92.5198 73.2411 92.2178ZM76.5431 88.3892C76.7942 88.3888 77.0395 88.3136 77.248 88.173C77.4565 88.0325 77.6189 87.8331 77.7147 87.5998C77.8105 87.3666 77.8353 87.1101 77.786 86.8627C77.7368 86.6153 77.6157 86.3881 77.438 86.2099C77.2603 86.0316 77.034 85.9103 76.7878 85.8612C76.5415 85.8122 76.2863 85.8376 76.0544 85.9342C75.8225 86.0309 75.6243 86.1945 75.4849 86.4043C75.3455 86.6141 75.271 86.8607 75.271 87.113C75.271 87.2808 75.304 87.447 75.3679 87.6019C75.4319 87.7569 75.5256 87.8977 75.6438 88.0162C75.7619 88.1348 75.9022 88.2287 76.0565 88.2927C76.2108 88.3567 76.3762 88.3895 76.5431 88.3892ZM16.836 85.3269C15.6803 85.3273 14.5508 85.6721 13.5901 86.3176C12.6294 86.9631 11.8807 87.8804 11.4387 88.9535C10.9966 90.0266 10.8811 91.2073 11.1067 92.3463C11.3322 93.4854 11.8887 94.5317 12.7059 95.3529C13.5231 96.1741 14.5642 96.7335 15.6976 96.9601C16.831 97.1868 18.0058 97.0707 19.0736 96.6265C20.1413 96.1822 21.054 95.4298 21.6963 94.4643C22.3387 93.4988 22.6817 92.3636 22.6822 91.2022C22.6825 90.4306 22.5315 89.6664 22.2378 88.9535C21.9441 88.2405 21.5134 87.5927 20.9705 87.0471C20.4276 86.5014 19.783 86.0686 19.0736 85.7735C18.3641 85.4783 17.6038 85.3266 16.836 85.3269ZM7.48472 78.028C6.78142 78.0284 6.09404 78.2384 5.50946 78.6313C4.92488 79.0243 4.46933 79.5826 4.2004 80.2357C3.93146 80.8888 3.86122 81.6073 3.99853 82.3005C4.13585 82.9937 4.47456 83.6305 4.97187 84.1303C5.46917 84.6301 6.10274 84.9705 6.7925 85.1085C7.48226 85.2465 8.19725 85.1759 8.8471 84.9056C9.49695 84.6353 10.0525 84.1775 10.4435 83.59C10.8345 83.0025 11.0434 82.3117 11.0439 81.6049C11.0445 81.134 10.9524 80.6677 10.7731 80.2327C10.5937 79.7977 10.3306 79.4027 9.99876 79.0703C9.66695 78.7378 9.27303 78.4746 8.83964 78.2958C8.40625 78.1169 7.94195 78.0259 7.47344 78.028H7.48472ZM5.55853 73.7098C5.78604 73.3157 5.89208 72.8625 5.86325 72.4078C5.83441 71.953 5.67199 71.5171 5.39653 71.1551C5.12108 70.7932 4.74498 70.5215 4.31582 70.3745C3.88667 70.2274 3.42375 70.2116 2.98566 70.3291C2.54757 70.4465 2.15399 70.6919 1.85474 71.0343C1.55549 71.3766 1.36401 71.8004 1.30454 72.2522C1.24507 72.7039 1.32028 73.1632 1.52065 73.572C1.72102 73.9808 2.03755 74.3206 2.43018 74.5485C2.69038 74.6999 2.97771 74.7983 3.27575 74.8381C3.57379 74.8778 3.87671 74.8582 4.16721 74.7803C4.45771 74.7025 4.73009 74.5678 4.96882 74.3842C5.20755 74.2005 5.40793 73.9713 5.55853 73.7098ZM2.37153 65.9666C2.49821 65.7479 2.55743 65.4963 2.5417 65.2437C2.52597 64.9911 2.43599 64.7489 2.28315 64.5477C2.13032 64.3466 1.92152 64.1955 1.6832 64.1137C1.44488 64.0319 1.18776 64.0231 0.944422 64.0883C0.701085 64.1535 0.482477 64.2898 0.316293 64.4799C0.150109 64.6701 0.0438279 64.9056 0.0109131 65.1565C-0.0220018 65.4074 0.0199311 65.6625 0.1314 65.8894C0.242869 66.1164 0.418854 66.305 0.637067 66.4313C0.927464 66.5984 1.27184 66.6434 1.59508 66.5563C1.91831 66.4693 2.19418 66.2573 2.36251 65.9666H2.37153ZM32.0582 23.4744C33.5644 23.4726 35.0362 23.022 36.2876 22.1797C37.5391 21.3374 38.5139 20.1411 39.089 18.7421C39.664 17.3431 39.8134 15.8042 39.5183 14.3198C39.2232 12.8355 38.4969 11.4724 37.4311 10.4028C36.3653 9.33329 35.0079 8.60532 33.5305 8.31095C32.053 8.01658 30.522 8.16902 29.1307 8.74901C27.7395 9.32899 26.5506 10.3105 25.7144 11.5694C24.8781 12.8283 24.432 14.3082 24.4324 15.8218C24.433 16.8276 24.6308 17.8233 25.0143 18.7522C25.3979 19.6812 25.9598 20.525 26.668 21.2357C27.3761 21.9463 28.2166 22.5098 29.1415 22.8939C30.0664 23.278 31.0575 23.4752 32.0582 23.4744ZM53.1154 20.3644C54.1159 19.7831 54.9224 18.9167 55.4329 17.8748C55.9435 16.8329 56.1353 15.6623 55.984 14.5109C55.8327 13.3595 55.3451 12.2791 54.5828 11.4061C53.8206 10.5332 52.818 9.90695 51.7016 9.6066C50.5853 9.30625 49.4055 9.34526 48.3112 9.7187C47.217 10.0921 46.2574 10.7832 45.554 11.7046C44.8505 12.626 44.4346 13.7364 44.3589 14.8953C44.2832 16.0542 44.5511 17.2096 45.1287 18.2155C45.5118 18.8847 46.0223 19.4713 46.6312 19.9419C47.2401 20.4125 47.9354 20.7578 48.6772 20.9581C49.4191 21.1583 50.1929 21.2095 50.9545 21.1088C51.716 21.0081 52.4504 20.7575 53.1154 20.3712V20.3644ZM61.287 15.7946C60.678 16.1482 60.1869 16.6753 59.8758 17.3093C59.5648 17.9433 59.4478 18.6557 59.5396 19.3565C59.6313 20.0573 59.9278 20.7151 60.3915 21.2466C60.8552 21.7781 61.4653 22.1595 62.1446 22.3427C62.8239 22.5258 63.5421 22.5024 64.2082 22.2754C64.8743 22.0484 65.4585 21.6281 65.8869 21.0675C66.3154 20.5069 66.5688 19.8312 66.6152 19.1259C66.6616 18.4205 66.4989 17.7172 66.1476 17.1048C65.9136 16.6985 65.6023 16.3424 65.2314 16.057C64.8605 15.7716 64.4373 15.5624 63.9859 15.4413C63.5346 15.3203 63.0639 15.2898 62.6008 15.3516C62.1378 15.4134 61.6913 15.5662 61.287 15.8014V15.7946ZM70.9518 27.0603C71.4045 27.0599 71.8469 26.9246 72.223 26.6715C72.5992 26.4184 72.8923 26.0589 73.0652 25.6385C73.2382 25.218 73.2832 24.7555 73.1946 24.3094C73.106 23.8632 72.8878 23.4535 72.5675 23.1319C72.2473 22.8104 71.8393 22.5915 71.3953 22.5029C70.9513 22.4143 70.4911 22.46 70.0729 22.6342C69.6547 22.8084 69.2973 23.1033 69.0459 23.4816C68.7944 23.8599 68.6602 24.3046 68.6602 24.7596C68.659 25.0626 68.7175 25.3628 68.8321 25.643C68.9468 25.9232 69.1155 26.1779 69.3285 26.3923C69.5414 26.6068 69.7945 26.7768 70.0731 26.8926C70.3517 27.0084 70.6503 27.0677 70.9518 27.0671V27.0603ZM76.5431 31.1405C76.7942 31.14 77.0395 31.0648 77.248 30.9243C77.4565 30.7838 77.6189 30.5843 77.7147 30.3511C77.8105 30.1179 77.8353 29.8613 77.786 29.6139C77.7368 29.3665 77.6157 29.1394 77.438 28.9611C77.2603 28.7829 77.034 28.6615 76.7878 28.6125C76.5415 28.5634 76.2863 28.5888 76.0544 28.6855C75.8225 28.7821 75.6243 28.9457 75.4849 29.1555C75.3455 29.3653 75.271 29.612 75.271 29.8643C75.2701 30.0326 75.3024 30.1995 75.366 30.3553C75.4295 30.511 75.5231 30.6526 75.6414 30.7719C75.7596 30.8911 75.9001 30.9857 76.0549 31.0501C76.2097 31.1146 76.3756 31.1476 76.5431 31.1473V31.1405ZM16.836 31.6573C17.991 31.6532 19.119 31.3053 20.0774 30.6574C21.0358 30.0095 21.7817 29.0907 22.2208 28.0171C22.6599 26.9434 22.7726 25.7631 22.5447 24.6251C22.3167 23.4871 21.7583 22.4425 20.94 21.6233C20.1217 20.804 19.0801 20.2469 17.9469 20.0222C16.8137 19.7975 15.6397 19.9153 14.573 20.3607C13.5064 20.8062 12.5951 21.5593 11.9541 22.525C11.3131 23.4907 10.9713 24.6256 10.9717 25.7864C10.9723 26.5591 11.1245 27.3242 11.4197 28.0376C11.7149 28.7511 12.1473 29.3991 12.692 29.9444C13.2367 30.4898 13.8831 30.9218 14.5942 31.2157C15.3053 31.5096 16.0671 31.6597 16.836 31.6573ZM7.48472 38.9562C8.1882 38.9562 8.8759 38.7465 9.46083 38.3537C10.0458 37.961 10.5016 37.4027 10.7709 36.7495C11.0401 36.0963 11.1105 35.3776 10.9733 34.6842C10.836 33.9907 10.4973 33.3538 9.99982 32.8539C9.50238 32.354 8.86861 32.0135 8.17863 31.8756C7.48866 31.7376 6.77349 31.8084 6.12355 32.079C5.47361 32.3495 4.9181 32.8077 4.52726 33.3956C4.13643 33.9834 3.92782 34.6745 3.92782 35.3815C3.92841 36.3274 4.30179 37.2346 4.96628 37.9045C5.63076 38.5745 6.53223 38.9526 7.47344 38.9562H7.48472ZM4.71949 46.4183C5.11096 46.1907 5.42651 45.8516 5.62625 45.4439C5.826 45.0361 5.90098 44.578 5.84172 44.1275C5.78245 43.6769 5.5916 43.2541 5.29329 42.9125C4.99498 42.5709 4.6026 42.3259 4.16575 42.2084C3.7289 42.0908 3.26719 42.1061 2.83897 42.2523C2.41076 42.3984 2.03527 42.6688 1.75996 43.0294C1.48465 43.39 1.32189 43.8245 1.29224 44.278C1.26259 44.7315 1.36739 45.1837 1.59339 45.5773C1.89711 46.1022 2.39497 46.4851 2.97843 46.6426C3.5619 46.8002 4.18367 46.7195 4.70822 46.4183H4.71949ZM1.90691 52.7652C2.12326 52.6384 2.29741 52.4501 2.40738 52.224C2.51735 51.9979 2.55821 51.7441 2.52481 51.4947C2.4914 51.2452 2.38523 51.0113 2.21969 50.8225C2.05415 50.6336 1.83666 50.4983 1.59466 50.4336C1.35267 50.3688 1.09701 50.3775 0.859948 50.4587C0.622888 50.5398 0.415049 50.6897 0.262662 50.8894C0.110275 51.0891 0.0201686 51.3297 0.00370979 51.5809C-0.012749 51.832 0.045178 52.0824 0.170183 52.3005C0.339263 52.5904 0.615464 52.8014 0.938636 52.8876C1.26181 52.9738 1.60577 52.9281 1.89563 52.7606L1.90691 52.7652ZM91.6774 87.3828C89.8178 87.3832 88 87.9379 86.4539 88.9765C84.9079 90.0152 83.703 91.4912 82.9917 93.218C82.2803 94.9448 82.0945 96.8448 82.4575 98.6778C82.8206 100.511 83.7163 102.194 85.0315 103.516C86.3466 104.837 88.0221 105.737 89.8461 106.101C91.67 106.466 93.5606 106.279 95.2786 105.563C96.9967 104.848 98.4651 103.637 99.4982 102.083C100.531 100.529 101.083 98.7018 101.083 96.8328C101.083 95.5916 100.84 94.3626 100.367 93.2159C99.8941 92.0693 99.2013 91.0274 98.3279 90.1498C97.4545 89.2723 96.4176 88.5763 95.2765 88.1015C94.1354 87.6267 92.9125 87.3825 91.6774 87.3828ZM75.9296 104.234C74.774 104.235 73.6446 104.58 72.6841 105.226C71.7237 105.872 70.9754 106.789 70.5337 107.862C70.0921 108.936 69.977 110.116 70.203 111.255C70.429 112.394 70.986 113.44 71.8034 114.261C72.6209 115.082 73.6622 115.641 74.7957 115.867C75.9292 116.094 77.104 115.977 78.1716 115.532C79.2392 115.088 80.1516 114.335 80.7935 113.369C81.4355 112.404 81.7781 111.268 81.7781 110.107C81.7778 109.335 81.6263 108.571 81.3322 107.859C81.0381 107.146 80.6073 106.498 80.0642 105.953C79.5211 105.408 78.8765 104.975 78.1671 104.68C77.4576 104.385 76.6974 104.233 75.9296 104.234ZM63.2177 110.354C62.5647 110.353 61.926 110.547 61.3824 110.91C60.8388 111.274 60.4145 111.791 60.1633 112.397C59.9121 113.003 59.8451 113.67 59.9708 114.314C60.0965 114.958 60.4093 115.55 60.8696 116.016C61.33 116.481 61.9173 116.799 62.5573 116.929C63.1973 117.06 63.8615 116.996 64.4658 116.748C65.0701 116.499 65.5875 116.076 65.9527 115.532C66.3178 114.988 66.5144 114.347 66.5175 113.691C66.5187 113.253 66.434 112.82 66.2681 112.416C66.1023 112.012 65.8587 111.644 65.5513 111.335C65.2439 111.026 64.8787 110.78 64.4767 110.613C64.0747 110.446 63.6438 110.36 63.2087 110.361L63.2177 110.354ZM54.065 112.394C53.6133 112.395 53.1721 112.531 52.7972 112.784C52.4223 113.038 52.1305 113.397 51.9587 113.817C51.7869 114.237 51.7427 114.698 51.8318 115.143C51.9209 115.588 52.1393 115.997 52.4593 116.317C52.7794 116.637 53.1867 116.855 53.6299 116.943C54.073 117.031 54.5322 116.985 54.9492 116.81C55.3663 116.636 55.7226 116.341 55.973 115.964C56.2235 115.586 56.357 115.142 56.3565 114.688C56.3512 114.079 56.1054 113.497 55.6731 113.069C55.2409 112.642 54.6576 112.405 54.0514 112.41L54.065 112.394ZM46.8136 113.555C46.5975 113.42 46.3465 113.353 46.0925 113.362C45.8384 113.371 45.5928 113.455 45.3866 113.605C45.1805 113.754 45.0231 113.962 44.9346 114.202C44.846 114.441 44.8302 114.702 44.8892 114.95C44.9481 115.199 45.0792 115.424 45.2658 115.597C45.4523 115.771 45.686 115.885 45.9371 115.925C46.1881 115.965 46.4454 115.929 46.6761 115.822C46.9069 115.714 47.1007 115.541 47.2331 115.323C47.4044 115.032 47.4555 114.686 47.3753 114.358C47.2952 114.031 47.0902 113.748 46.8046 113.57L46.8136 113.555ZM91.6977 10.7013C89.8381 10.7017 88.0203 11.2563 86.4742 12.295C84.9282 13.3337 83.7234 14.8097 83.012 16.5365C82.3006 18.2633 82.1147 20.1633 82.4778 21.9963C82.8409 23.8293 83.7366 25.5129 85.0518 26.8343C86.3669 28.1557 88.0424 29.0555 89.8663 29.4199C91.6903 29.7844 93.5809 29.5971 95.2989 28.8818C97.017 28.1665 98.4854 26.9552 99.5185 25.4012C100.552 23.8472 101.103 22.0203 101.103 20.1513C101.101 18.9097 100.856 17.6808 100.381 16.5346C99.9058 15.3884 99.2108 14.3475 98.3354 13.4714C97.4601 12.5952 96.4215 11.901 95.2791 11.4285C94.1367 10.9559 92.9128 10.7142 91.6774 10.7171L91.6977 10.7013ZM75.9296 1.02004C74.774 1.02093 73.6446 1.36615 72.6841 2.01204C71.7237 2.65793 70.9754 3.5755 70.5337 4.64875C70.0921 5.722 69.977 6.90275 70.203 8.04172C70.429 9.1807 70.986 10.2268 71.8034 11.0477C72.6209 11.8686 73.6622 12.4275 74.7957 12.6538C75.9292 12.88 77.104 12.7634 78.1716 12.3188C79.2392 11.8741 80.1516 11.1213 80.7935 10.1556C81.4355 9.18988 81.7781 8.05456 81.7781 6.89316C81.7778 6.12159 81.6263 5.35764 81.3322 4.64492C81.0381 3.9322 80.6073 3.28466 80.0642 2.73929C79.5211 2.19392 78.8765 1.7614 78.1671 1.4664C77.4576 1.17141 76.6974 1.01974 75.9296 1.02004ZM63.2087 6.63702C63.8615 6.63567 64.4993 6.4399 65.0414 6.07444C65.5835 5.70898 66.0057 5.19024 66.2546 4.58374C66.5034 3.97725 66.5679 3.31022 66.4397 2.66694C66.3115 2.02367 65.9965 1.433 65.5344 0.969577C65.0724 0.506156 64.484 0.190774 63.8436 0.0632792C63.2033 -0.0642159 62.5397 0.00189748 61.9367 0.253266C61.3338 0.504634 60.8185 0.92998 60.4559 1.47556C60.0934 2.02113 59.8999 2.66246 59.8999 3.31851C59.9002 3.75479 59.986 4.18674 60.1525 4.58967C60.319 4.9926 60.5628 5.35861 60.8701 5.66679C61.1774 5.97497 61.5421 6.21928 61.9433 6.38576C62.3446 6.55223 62.7746 6.63761 63.2087 6.63702ZM54.0514 4.48004e-06C53.5997 0.00134908 53.1586 0.137218 52.7837 0.390444C52.4088 0.643671 52.117 1.00289 51.9452 1.42272C51.7733 1.84254 51.7292 2.30413 51.8183 2.74917C51.9074 3.1942 52.1258 3.6027 52.4458 3.92306C52.7658 4.24342 53.1732 4.46126 53.6163 4.54905C54.0595 4.63685 54.5186 4.59066 54.9357 4.41632C55.3527 4.24198 55.709 3.94731 55.9595 3.56955C56.21 3.1918 56.3435 2.7479 56.343 2.29394C56.3424 1.9921 56.2827 1.69334 56.1672 1.4147C56.0517 1.13606 55.8828 0.883015 55.67 0.670003C55.4572 0.456991 55.2047 0.288189 54.927 0.17323C54.6493 0.0582711 54.3518 -0.000591452 54.0514 4.48004e-06ZM46.8001 3.42958C47.0188 3.29836 47.1938 3.10478 47.3029 2.87341C47.412 2.64205 47.4502 2.38333 47.4128 2.13009C47.3753 1.87685 47.2638 1.64051 47.0924 1.45106C46.9211 1.26161 46.6976 1.1276 46.4503 1.06603C46.203 1.00446 45.9431 1.01811 45.7036 1.10524C45.464 1.19238 45.2556 1.34908 45.1049 1.55544C44.9541 1.76181 44.8677 2.00854 44.8567 2.26433C44.8457 2.52012 44.9105 2.77342 45.043 2.9921C45.1299 3.13726 45.2445 3.26376 45.3801 3.36435C45.5158 3.46494 45.6698 3.53763 45.8335 3.57827C45.9971 3.61892 46.1671 3.6267 46.3338 3.60118C46.5004 3.57567 46.6604 3.51736 46.8046 3.42958H46.8001ZM32.9604 76.4027C32.9613 75.2399 32.619 74.103 31.9768 73.1358C31.3346 72.1686 30.4214 71.4145 29.3527 70.969C28.2839 70.5235 27.1077 70.4066 25.9729 70.6331C24.838 70.8595 23.7955 71.4192 22.9772 72.2412C22.159 73.0633 21.6017 74.1108 21.3759 75.2512C21.1501 76.3916 21.266 77.5737 21.7089 78.648C22.1517 79.7222 22.9017 80.6403 23.8639 81.286C24.826 81.9318 25.9572 82.2763 27.1142 82.2758C27.8818 82.2761 28.642 82.1244 29.3513 81.8294C30.0606 81.5344 30.7051 81.1018 31.248 80.5564C31.7909 80.011 32.2215 79.3635 32.5153 78.6508C32.8092 77.9381 32.9604 77.1742 32.9604 76.4027ZM37.2842 81.7658C36.7315 81.7658 36.1912 81.9305 35.7316 82.2391C35.272 82.5477 34.9139 82.9864 34.7024 83.4995C34.4908 84.0127 34.4355 84.5774 34.5433 85.1222C34.6511 85.667 34.9173 86.1674 35.3081 86.5602C35.699 86.953 36.1969 87.2205 36.739 87.3288C37.2811 87.4372 37.843 87.3816 38.3536 87.169C38.8642 86.9564 39.3007 86.5965 39.6078 86.1346C39.9148 85.6728 40.0787 85.1298 40.0787 84.5743C40.0787 83.8294 39.7843 83.1151 39.2602 82.5884C38.7361 82.0617 38.0253 81.7658 37.2842 81.7658ZM46.2948 82.9309C46.0786 82.7964 45.8275 82.7295 45.5733 82.7387C45.3192 82.7479 45.0735 82.8327 44.8674 82.9825C44.6613 83.1323 44.5042 83.3402 44.4159 83.5798C44.3276 83.8195 44.3121 84.0802 44.3715 84.3287C44.4309 84.5772 44.5624 84.8024 44.7493 84.9757C44.9362 85.149 45.1702 85.2625 45.4214 85.302C45.6727 85.3414 45.9299 85.3049 46.1605 85.1972C46.3911 85.0894 46.5847 84.9152 46.7166 84.6967C46.8934 84.4063 46.9482 84.0572 46.8691 83.7261C46.7901 83.3951 46.5835 83.1091 46.2948 82.9309ZM19.7433 50.5551C18.2357 50.556 16.7622 51.0061 15.5091 51.8485C14.256 52.6909 13.2796 53.8878 12.7033 55.2878C12.1269 56.6879 11.9766 58.2282 12.2713 59.7141C12.5659 61.2 13.2924 62.5648 14.3587 63.6358C15.4251 64.7068 16.7835 65.4361 18.2622 65.7314C19.7409 66.0266 21.2735 65.8746 22.6662 65.2946C24.059 64.7146 25.2493 63.7326 26.0868 62.4727C26.9243 61.2129 27.3713 59.7318 27.3713 58.2167C27.3713 57.2101 27.174 56.2135 26.7906 55.2837C26.4072 54.3538 25.8452 53.509 25.1368 52.7975C24.4285 52.086 23.5875 51.5217 22.6621 51.137C21.7366 50.7522 20.7448 50.5545 19.7433 50.5551ZM27.1142 46.4749C28.2698 46.4741 29.3993 46.1288 30.3597 45.4829C31.3201 44.8371 32.0685 43.9195 32.5101 42.8462C32.9517 41.773 33.0668 40.5922 32.8408 39.4533C32.6148 38.3143 32.0579 37.2682 31.2404 36.4473C30.4229 35.6264 29.3816 35.0675 28.2481 34.8412C27.1146 34.615 25.9398 34.7316 24.8723 35.1762C23.8047 35.6209 22.8922 36.3736 22.2503 37.3394C21.6084 38.3051 21.2657 39.4404 21.2657 40.6018C21.2681 42.1589 21.8854 43.6513 22.982 44.7513C24.0786 45.8512 25.5649 46.4688 27.1142 46.4682V46.4749ZM37.2842 29.624C36.7315 29.624 36.1912 29.7887 35.7316 30.0973C35.272 30.4059 34.9139 30.8446 34.7024 31.3577C34.4908 31.8709 34.4355 32.4356 34.5433 32.9804C34.6511 33.5252 34.9173 34.0256 35.3081 34.4184C35.699 34.8112 36.1969 35.0787 36.739 35.187C37.2811 35.2954 37.843 35.2398 38.3536 35.0272C38.8642 34.8146 39.3007 34.4547 39.6078 33.9928C39.9148 33.531 40.0787 32.988 40.0787 32.4325C40.0796 32.0631 40.008 31.6972 39.8679 31.3557C39.7279 31.0141 39.5222 30.7037 39.2626 30.4422C39.003 30.1807 38.6947 29.9732 38.3552 29.8316C38.0157 29.6901 37.6517 29.6172 37.2842 29.6172V29.624ZM46.7166 32.3078C46.5842 32.0928 46.3915 31.9219 46.1626 31.8168C45.9338 31.7116 45.6791 31.6769 45.4307 31.7171C45.1822 31.7572 44.9512 31.8703 44.7666 32.0422C44.5821 32.2141 44.4523 32.4371 44.3936 32.683C44.3349 32.9289 44.35 33.1867 44.437 33.424C44.5239 33.6614 44.6788 33.8675 44.8821 34.0164C45.0855 34.1654 45.3281 34.2506 45.5795 34.2611C45.8309 34.2717 46.0798 34.2073 46.2948 34.0759C46.4388 33.9874 46.5639 33.8713 46.6631 33.7341C46.7622 33.5969 46.8334 33.4414 46.8726 33.2765C46.9118 33.1116 46.9182 32.9405 46.8914 32.7731C46.8646 32.6057 46.8052 32.4453 46.7166 32.301V32.3078Z" fill="#5DC1B8"/>
<path d="M171.799 35.672C172.951 36.296 173.527 37.256 173.527 38.552C173.527 39.416 173.239 40.208 172.663 40.928C172.087 41.696 171.295 42.08 170.287 42.08C169.615 42.08 168.967 41.912 168.343 41.576C165.367 39.896 162.151 39.056 158.695 39.056C155.095 39.056 151.903 39.848 149.119 41.432C146.383 43.016 144.247 45.248 142.711 48.128C141.175 50.96 140.407 54.224 140.407 57.92C140.407 61.904 141.199 65.336 142.783 68.216C144.367 71.096 146.551 73.304 149.335 74.84C152.119 76.328 155.239 77.072 158.695 77.072C162.247 77.072 165.463 76.208 168.343 74.48C168.919 74.192 169.543 74.048 170.215 74.048C171.271 74.048 172.111 74.456 172.735 75.272C173.311 75.992 173.599 76.76 173.599 77.576C173.599 78.152 173.431 78.704 173.095 79.232C172.807 79.712 172.399 80.096 171.871 80.384C169.999 81.44 167.887 82.28 165.535 82.904C163.231 83.528 160.951 83.84 158.695 83.84C154.039 83.84 149.743 82.808 145.807 80.744C141.919 78.68 138.799 75.68 136.447 71.744C134.143 67.808 132.991 63.2 132.991 57.92C132.991 53.072 134.095 48.704 136.303 44.816C138.559 40.88 141.631 37.808 145.519 35.6C149.455 33.344 153.847 32.216 158.695 32.216C163.351 32.216 167.719 33.368 171.799 35.672Z" fill="#5DC1B8"/>
<path d="M218.073 32.72C219.129 32.72 219.993 33.056 220.665 33.728C221.337 34.352 221.673 35.168 221.673 36.176V79.592C221.625 80.6 221.265 81.44 220.593 82.112C219.921 82.784 219.057 83.12 218.001 83.12C217.041 83.12 216.201 82.784 215.481 82.112C214.809 81.44 214.473 80.6 214.473 79.592V60.944H188.913V79.592C188.913 80.6 188.553 81.44 187.833 82.112C187.113 82.784 186.273 83.12 185.313 83.12C184.257 83.12 183.393 82.784 182.721 82.112C182.097 81.44 181.785 80.6 181.785 79.592V36.176C181.785 35.216 182.121 34.4 182.793 33.728C183.465 33.056 184.329 32.72 185.385 32.72C186.345 32.72 187.161 33.056 187.833 33.728C188.553 34.4 188.913 35.216 188.913 36.176V54.32H214.473V36.176C214.473 35.216 214.833 34.4 215.553 33.728C216.273 33.056 217.113 32.72 218.073 32.72Z" fill="#5DC1B8"/>
<path d="M272.271 78.656C272.415 79.088 272.487 79.544 272.487 80.024C272.487 80.984 272.151 81.776 271.479 82.4C270.855 83.024 270.111 83.336 269.247 83.336C268.575 83.336 267.951 83.144 267.375 82.76C266.847 82.328 266.415 81.752 266.079 81.032L261.615 70.448H239.367L234.975 81.104C234.735 81.824 234.327 82.376 233.751 82.76C233.223 83.144 232.623 83.336 231.951 83.336C230.943 83.336 230.175 83.072 229.647 82.544C229.119 82.016 228.855 81.296 228.855 80.384C228.855 80.192 228.903 79.808 228.999 79.232L247.359 34.736C247.695 33.968 248.151 33.392 248.727 33.008C249.351 32.576 250.047 32.408 250.815 32.504C251.535 32.504 252.183 32.696 252.759 33.08C253.335 33.464 253.743 34.016 253.983 34.736L272.271 78.656ZM258.879 63.896L250.455 43.736L242.103 63.896H258.879Z" fill="#5DC1B8"/>
<path d="M307.522 76.424C308.53 76.424 309.346 76.736 309.97 77.36C310.642 77.984 310.978 78.8 310.978 79.808C310.978 80.768 310.642 81.56 309.97 82.184C309.346 82.808 308.53 83.12 307.522 83.12H283.186C282.178 83.12 281.338 82.784 280.666 82.112C280.042 81.44 279.73 80.624 279.73 79.664V36.176C279.73 35.216 280.066 34.4 280.738 33.728C281.41 33.056 282.274 32.72 283.33 32.72C284.29 32.72 285.106 33.056 285.778 33.728C286.498 34.4 286.858 35.216 286.858 36.176V76.424H307.522Z" fill="#5DC1B8"/>
<path d="M357.62 77.288C358.148 77.96 358.412 78.752 358.412 79.664C358.412 80.72 358.004 81.584 357.188 82.256C356.42 82.928 355.532 83.264 354.524 83.264C353.564 83.264 352.724 82.832 352.004 81.968L334.508 59.432L326.444 67.064V79.592C326.444 80.6 326.108 81.44 325.436 82.112C324.764 82.784 323.9 83.12 322.844 83.12C321.788 83.12 320.924 82.784 320.252 82.112C319.628 81.44 319.316 80.6 319.316 79.592V36.176C319.316 35.216 319.652 34.4 320.324 33.728C320.996 33.056 321.86 32.72 322.916 32.72C323.972 32.72 324.812 33.056 325.436 33.728C326.108 34.352 326.444 35.168 326.444 36.176V58.568L352.004 33.8C352.916 32.984 353.828 32.576 354.74 32.576C355.604 32.576 356.348 32.936 356.972 33.656C357.596 34.376 357.908 35.144 357.908 35.96C357.908 36.68 357.572 37.424 356.9 38.192L339.836 54.32L357.62 77.288Z" fill="#5DC1B8"/>
<path d="M404.642 36.464C405.362 36.896 405.722 37.496 405.722 38.264C405.722 38.696 405.554 39.176 405.218 39.704C404.786 40.232 404.234 40.496 403.562 40.496C403.178 40.496 402.794 40.376 402.41 40.136C398.57 37.592 394.37 36.32 389.81 36.32C385.922 36.32 382.394 37.232 379.226 39.056C376.106 40.88 373.634 43.448 371.81 46.76C370.034 50.024 369.146 53.744 369.146 57.92C369.146 62.192 370.058 65.984 371.882 69.296C373.706 72.56 376.178 75.104 379.298 76.928C382.466 78.704 385.97 79.592 389.81 79.592C394.37 79.592 398.546 78.344 402.338 75.848C402.722 75.608 403.13 75.488 403.562 75.488C404.234 75.488 404.786 75.776 405.218 76.352C405.554 76.736 405.722 77.192 405.722 77.72C405.722 78.488 405.386 79.064 404.714 79.448C402.842 80.696 400.538 81.752 397.802 82.616C395.066 83.432 392.402 83.84 389.81 83.84C385.25 83.84 381.026 82.76 377.138 80.6C373.298 78.392 370.226 75.32 367.922 71.384C365.666 67.448 364.538 62.96 364.538 57.92C364.538 53.072 365.666 48.68 367.922 44.744C370.178 40.76 373.226 37.664 377.066 35.456C380.906 33.2 385.154 32.072 389.81 32.072C392.498 32.072 395.114 32.456 397.658 33.224C400.25 33.992 402.578 35.072 404.642 36.464Z" fill="#5DC1B8"/>
<path d="M452.473 80.24C452.569 80.624 452.617 80.912 452.617 81.104C452.617 81.728 452.401 82.232 451.969 82.616C451.537 83 451.033 83.192 450.457 83.192C449.977 83.192 449.545 83.072 449.161 82.832C448.825 82.544 448.561 82.184 448.369 81.752L442.969 68.576H419.569L414.241 81.752C413.857 82.712 413.209 83.192 412.297 83.192C411.625 83.192 411.121 83.024 410.785 82.688C410.449 82.352 410.257 81.896 410.209 81.32V81.104C410.209 80.816 410.233 80.6 410.281 80.456L429.289 33.944C429.673 32.984 430.393 32.504 431.449 32.504C431.929 32.504 432.337 32.648 432.673 32.936C433.057 33.176 433.345 33.512 433.537 33.944L452.473 80.24ZM441.241 64.328L431.161 39.704L421.225 64.328H441.241Z" fill="#5DC1B8"/>
<path d="M475.114 83.84C471.658 83.84 468.586 83.264 465.898 82.112C463.258 80.96 460.69 79.16 458.194 76.712C457.618 76.232 457.33 75.656 457.33 74.984C457.33 74.408 457.546 73.88 457.978 73.4C458.458 72.92 458.986 72.68 459.562 72.68C460.138 72.68 460.666 72.92 461.146 73.4C464.89 77.528 469.57 79.592 475.186 79.592C478.642 79.592 481.498 78.776 483.754 77.144C486.058 75.512 487.21 73.376 487.21 70.736C487.21 68.672 486.634 66.968 485.482 65.624C484.378 64.232 482.914 63.104 481.09 62.24C479.266 61.376 476.938 60.488 474.106 59.576C471.034 58.664 468.442 57.656 466.33 56.552C464.266 55.448 462.586 53.984 461.29 52.16C459.994 50.288 459.346 47.936 459.346 45.104C459.346 42.56 460.018 40.304 461.362 38.336C462.754 36.368 464.674 34.832 467.122 33.728C469.618 32.576 472.474 32 475.69 32C478.618 32 481.354 32.504 483.898 33.512C486.49 34.472 488.554 35.864 490.09 37.688C490.81 38.504 491.17 39.2 491.17 39.776C491.17 40.304 490.93 40.808 490.45 41.288C489.97 41.72 489.442 41.936 488.866 41.936C488.386 41.936 487.978 41.768 487.642 41.432C486.346 39.896 484.618 38.648 482.458 37.688C480.298 36.728 478.042 36.248 475.69 36.248C472.186 36.248 469.33 37.04 467.122 38.624C464.914 40.16 463.81 42.272 463.81 44.96C463.81 47.744 464.866 49.88 466.978 51.368C469.09 52.856 472.114 54.224 476.05 55.472C479.458 56.48 482.242 57.512 484.402 58.568C486.562 59.624 488.314 61.136 489.658 63.104C491.05 65.024 491.746 67.568 491.746 70.736C491.746 73.184 491.026 75.416 489.586 77.432C488.194 79.4 486.226 80.96 483.682 82.112C481.186 83.264 478.33 83.84 475.114 83.84Z" fill="#5DC1B8"/>
<path d="M534.048 32.72C534.672 32.72 535.176 32.912 535.56 33.296C535.992 33.68 536.208 34.184 536.208 34.808C536.208 35.432 535.992 35.936 535.56 36.32C535.176 36.656 534.672 36.824 534.048 36.824H519.144V80.96C519.144 81.584 518.928 82.112 518.496 82.544C518.064 82.928 517.536 83.12 516.912 83.12C516.24 83.12 515.688 82.928 515.256 82.544C514.872 82.112 514.68 81.584 514.68 80.96V36.824H499.776C499.152 36.824 498.624 36.632 498.192 36.248C497.808 35.864 497.616 35.36 497.616 34.736C497.616 34.16 497.808 33.68 498.192 33.296C498.624 32.912 499.152 32.72 499.776 32.72H534.048Z" fill="#5DC1B8"/>
<rect x="439.991" y="90" width="95" height="24" rx="12" fill="#35B1A6"/>
<path d="M469.88 100.688C470.728 101.024 471.416 101.536 471.944 102.224C472.488 102.912 472.76 103.8 472.76 104.888C472.76 106.792 472.216 108.12 471.128 108.872C470.04 109.624 468.744 110 467.24 110H461.264C460.848 110 460.496 109.864 460.208 109.592C459.936 109.304 459.8 108.952 459.8 108.536V94.664C459.8 94.248 459.936 93.904 460.208 93.632C460.496 93.344 460.848 93.2 461.264 93.2H467.312C470.352 93.2 471.872 94.624 471.872 97.472C471.872 98.192 471.696 98.832 471.344 99.392C471.008 99.936 470.52 100.368 469.88 100.688ZM468.752 98C468.752 97.344 468.584 96.856 468.248 96.536C467.928 96.2 467.472 96.032 466.88 96.032H462.92V99.776H466.952C467.432 99.776 467.848 99.616 468.2 99.296C468.568 98.976 468.752 98.544 468.752 98ZM467.24 107.24C467.992 107.24 468.576 107.04 468.992 106.64C469.424 106.24 469.64 105.656 469.64 104.888C469.64 103.944 469.392 103.328 468.896 103.04C468.4 102.752 467.792 102.608 467.072 102.608H462.92V107.24H467.24ZM485.031 107.24C485.447 107.24 485.791 107.384 486.063 107.672C486.351 107.944 486.495 108.264 486.495 108.632C486.495 109.032 486.351 109.36 486.063 109.616C485.791 109.872 485.447 110 485.031 110H476.991C476.575 110 476.223 109.864 475.935 109.592C475.663 109.304 475.527 108.952 475.527 108.536V94.664C475.527 94.248 475.663 93.904 475.935 93.632C476.223 93.344 476.575 93.2 476.991 93.2H485.031C485.447 93.2 485.791 93.336 486.063 93.608C486.351 93.864 486.495 94.2 486.495 94.616C486.495 95.016 486.359 95.344 486.087 95.6C485.815 95.84 485.463 95.96 485.031 95.96H478.527V100.04H483.951C484.367 100.04 484.711 100.176 484.983 100.448C485.271 100.704 485.415 101.04 485.415 101.456C485.415 101.856 485.279 102.184 485.007 102.44C484.735 102.68 484.383 102.8 483.951 102.8H478.527V107.24H485.031ZM500.301 93.2C500.733 93.2 501.085 93.328 501.357 93.584C501.629 93.84 501.765 94.176 501.765 94.592C501.765 95.008 501.629 95.344 501.357 95.6C501.085 95.84 500.733 95.96 500.301 95.96H496.533V108.536C496.533 108.952 496.381 109.304 496.077 109.592C495.773 109.864 495.397 110 494.949 110C494.501 110 494.133 109.864 493.845 109.592C493.557 109.304 493.413 108.952 493.413 108.536V95.96H489.645C489.213 95.96 488.861 95.832 488.589 95.576C488.317 95.32 488.181 94.984 488.181 94.568C488.181 94.168 488.317 93.84 488.589 93.584C488.877 93.328 489.229 93.2 489.645 93.2H500.301ZM516.265 108.128C516.345 108.336 516.385 108.528 516.385 108.704C516.385 109.12 516.249 109.464 515.977 109.736C515.705 109.992 515.393 110.12 515.041 110.12C514.753 110.12 514.489 110.032 514.249 109.856C514.025 109.68 513.849 109.44 513.721 109.136L512.473 106.232H505.321L504.073 109.16C503.961 109.464 503.785 109.704 503.545 109.88C503.321 110.04 503.073 110.12 502.801 110.12C502.385 110.12 502.065 110.008 501.841 109.784C501.633 109.56 501.529 109.256 501.529 108.872C501.529 108.728 501.553 108.576 501.601 108.416L507.577 94.064C507.705 93.744 507.897 93.496 508.153 93.32C508.409 93.144 508.697 93.072 509.017 93.104C509.305 93.104 509.569 93.192 509.809 93.368C510.065 93.528 510.249 93.76 510.361 94.064L516.265 108.128ZM511.297 103.472L508.873 97.856L506.497 103.472H511.297Z" fill="white"/>
</svg>
