<?xml version="1.0" encoding="utf-8"?>
<!-- Generator: Adobe Illustrator 23.1.0, SVG Export Plug-In . SVG Version: 6.00 Build 0)  -->
<svg version="1.1" id="Layer_1" xmlns="http://www.w3.org/2000/svg" xmlns:xlink="http://www.w3.org/1999/xlink" x="0px" y="0px"
	 viewBox="0 0 117 117" style="enable-background:new 0 0 117 117;" xml:space="preserve">
<style type="text/css">
	.st0{fill-rule:evenodd;clip-rule:evenodd;fill:#FFFFFF;}
</style>
<path class="st0" d="M35.8,33.1c0.9,0.9,1.4,2.2,1.4,3.5c0,1-0.3,1.9-0.8,2.7c-0.5,0.8-1.3,1.4-2.2,1.8c-0.9,0.4-1.9,0.5-2.8,0.3
	c-1-0.2-1.8-0.7-2.5-1.3c-0.7-0.7-1.2-1.6-1.3-2.5c-0.2-1-0.1-1.9,0.3-2.8c0.4-0.9,1-1.7,1.8-2.2c0.8-0.5,1.8-0.8,2.7-0.8
	C33.6,31.6,34.9,32.2,35.8,33.1z M42.6,25.9c0.4,0.2,0.8,0.5,1.2,0.8c0.3,0.3,0.6,0.7,0.8,1.2c0.2,0.4,0.3,0.9,0.3,1.4
	c0,0.7-0.2,1.4-0.6,2c-0.4,0.6-1,1.1-1.6,1.3c-0.7,0.3-1.4,0.3-2.1,0.2c-0.7-0.1-1.4-0.5-1.9-1c-0.5-0.5-0.9-1.2-1-1.9
	c-0.1-0.7-0.1-1.4,0.2-2.1c0.3-0.7,0.7-1.2,1.3-1.6c0.6-0.4,1.3-0.6,2-0.6C41.7,25.6,42.2,25.7,42.6,25.9z M50,25.1
	c0.3,0.1,0.5,0.3,0.7,0.4c0.2,0.2,0.3,0.4,0.4,0.7c0.1,0.3,0.2,0.5,0.2,0.8c0,0.4-0.1,0.8-0.3,1.1c-0.2,0.3-0.5,0.6-0.9,0.8
	s-0.8,0.2-1.2,0.1c-0.4-0.1-0.8-0.3-1.1-0.6c-0.3-0.3-0.5-0.7-0.6-1.1c-0.1-0.4,0-0.8,0.1-1.2s0.4-0.7,0.8-0.9
	c0.3-0.2,0.7-0.3,1.1-0.4C49.4,25,49.7,25,50,25.1z M55.9,25.4c0.3,0.3,0.4,0.6,0.4,1c0,0.3-0.1,0.6-0.2,0.8
	c-0.2,0.2-0.4,0.4-0.6,0.5c-0.3,0.1-0.5,0.1-0.8,0.1s-0.5-0.2-0.7-0.4c-0.2-0.2-0.3-0.5-0.4-0.7c-0.1-0.3,0-0.6,0.1-0.8
	c0.1-0.3,0.3-0.5,0.5-0.6c0.2-0.2,0.5-0.2,0.8-0.2C55.3,25,55.6,25.1,55.9,25.4z M60,25.6c-0.1,0-0.2,0-0.3,0s-0.2,0.1-0.3,0.1
	c-0.1,0.1-0.2,0.1-0.2,0.2c-0.1,0.1-0.1,0.3-0.1,0.5c0,0.2,0.1,0.3,0.2,0.4c0.1,0.1,0.2,0.2,0.4,0.3c0.1,0.1,0.3,0.1,0.5,0
	c0.2,0,0.3-0.1,0.4-0.2s0.2-0.3,0.2-0.4c0-0.2,0-0.3-0.1-0.5c-0.1-0.1-0.2-0.3-0.3-0.3C60.2,25.7,60.1,25.6,60,25.6z"/>
<circle class="st0" cx="27.4" cy="49.9" r="5.9"/>
</svg>
