<?xml version="1.0" encoding="utf-8"?>
<!-- Generator: Adobe Illustrator 23.1.0, SVG Export Plug-In . SVG Version: 6.00 Build 0)  -->
<svg version="1.1" id="Layer_1" xmlns="http://www.w3.org/2000/svg" xmlns:xlink="http://www.w3.org/1999/xlink" x="0px" y="0px"
	 viewBox="0 0 759.5 447.3" style="enable-background:new 0 0 759.5 447.3;" xml:space="preserve">
<style type="text/css">
	.st0{display:none;}
	.st1{display:inline;fill:#112427;}
	.st2{fill:none;stroke:#42BB94;stroke-width:2;stroke-linecap:round;stroke-miterlimit:10;}
	.st3{fill:#FFFFFF;stroke:#27AAE1;stroke-width:2;stroke-linecap:round;stroke-miterlimit:10;}
	.st4{fill:none;stroke:#27AAE1;stroke-width:2;stroke-linecap:round;stroke-miterlimit:10;}
	.st5{fill:none;stroke:#CC3B3B;stroke-width:2;stroke-linecap:round;stroke-miterlimit:10;}
</style>
<g class="st0">
	<rect class="st1" width="759.5" height="447.3"/>
</g>
<rect x="243.6" y="78.1" class="st2" width="199.2" height="258.5"/>
<circle class="st2" cx="256.4" cy="96.7" r="6.4"/>
<circle class="st2" cx="256.4" cy="116.7" r="6.4"/>
<circle class="st2" cx="256.4" cy="136.7" r="6.4"/>
<circle class="st2" cx="256.4" cy="156.7" r="6.4"/>
<circle class="st2" cx="256.4" cy="176.7" r="6.4"/>
<circle class="st2" cx="256.4" cy="196.7" r="6.4"/>
<circle class="st2" cx="256.4" cy="216.7" r="6.4"/>
<circle class="st2" cx="256.4" cy="236.7" r="6.4"/>
<circle class="st2" cx="256.4" cy="256.7" r="6.4"/>
<circle class="st2" cx="256.4" cy="276.7" r="6.4"/>
<circle class="st2" cx="256.4" cy="296.7" r="6.4"/>
<circle class="st2" cx="256.4" cy="316.7" r="6.4"/>
<path class="st3" d="M234.6,99.8h19c1.7,0,3.1-1.4,3.1-3.1l0,0c0-1.7-1.4-3.1-3.1-3.1h-19c-1.7,0-3.1,1.4-3.1,3.1l0,0
	C231.5,98.4,232.9,99.8,234.6,99.8z"/>
<path class="st3" d="M234.6,119.8h19c1.7,0,3.1-1.4,3.1-3.1l0,0c0-1.7-1.4-3.1-3.1-3.1h-19c-1.7,0-3.1,1.4-3.1,3.1l0,0
	C231.5,118.4,232.9,119.8,234.6,119.8z"/>
<path class="st3" d="M234.6,139.8h19c1.7,0,3.1-1.4,3.1-3.1l0,0c0-1.7-1.4-3.1-3.1-3.1h-19c-1.7,0-3.1,1.4-3.1,3.1l0,0
	C231.5,138.4,232.9,139.8,234.6,139.8z"/>
<path class="st3" d="M234.6,159.8h19c1.7,0,3.1-1.4,3.1-3.1l0,0c0-1.7-1.4-3.1-3.1-3.1h-19c-1.7,0-3.1,1.4-3.1,3.1l0,0
	C231.5,158.4,232.9,159.8,234.6,159.8z"/>
<path class="st3" d="M234.6,179.8h19c1.7,0,3.1-1.4,3.1-3.1l0,0c0-1.7-1.4-3.1-3.1-3.1h-19c-1.7,0-3.1,1.4-3.1,3.1l0,0
	C231.5,178.4,232.9,179.8,234.6,179.8z"/>
<path class="st3" d="M234.6,199.8h19c1.7,0,3.1-1.4,3.1-3.1l0,0c0-1.7-1.4-3.1-3.1-3.1h-19c-1.7,0-3.1,1.4-3.1,3.1l0,0
	C231.5,198.4,232.9,199.8,234.6,199.8z"/>
<path class="st3" d="M234.6,219.8h19c1.7,0,3.1-1.4,3.1-3.1l0,0c0-1.7-1.4-3.1-3.1-3.1h-19c-1.7,0-3.1,1.4-3.1,3.1l0,0
	C231.5,218.4,232.9,219.8,234.6,219.8z"/>
<path class="st3" d="M234.6,239.8h19c1.7,0,3.1-1.4,3.1-3.1l0,0c0-1.7-1.4-3.1-3.1-3.1h-19c-1.7,0-3.1,1.4-3.1,3.1l0,0
	C231.5,238.4,232.9,239.8,234.6,239.8z"/>
<path class="st3" d="M234.6,259.8h19c1.7,0,3.1-1.4,3.1-3.1l0,0c0-1.7-1.4-3.1-3.1-3.1h-19c-1.7,0-3.1,1.4-3.1,3.1l0,0
	C231.5,258.4,232.9,259.8,234.6,259.8z"/>
<path class="st3" d="M234.6,279.8h19c1.7,0,3.1-1.4,3.1-3.1l0,0c0-1.7-1.4-3.1-3.1-3.1h-19c-1.7,0-3.1,1.4-3.1,3.1l0,0
	C231.5,278.4,232.9,279.8,234.6,279.8z"/>
<path class="st3" d="M234.6,299.8h19c1.7,0,3.1-1.4,3.1-3.1l0,0c0-1.7-1.4-3.1-3.1-3.1h-19c-1.7,0-3.1,1.4-3.1,3.1l0,0
	C231.5,298.4,232.9,299.8,234.6,299.8z"/>
<path class="st3" d="M234.6,319.8h19c1.7,0,3.1-1.4,3.1-3.1l0,0c0-1.7-1.4-3.1-3.1-3.1h-19c-1.7,0-3.1,1.4-3.1,3.1l0,0
	C231.5,318.4,232.9,319.8,234.6,319.8z"/>
<line class="st4" x1="278.7" y1="97.1" x2="405" y2="97.1"/>
<line class="st4" x1="278.7" y1="117.1" x2="405" y2="117.1"/>
<line class="st4" x1="278.7" y1="137.1" x2="405" y2="137.1"/>
<line class="st4" x1="278.7" y1="157.1" x2="405" y2="157.1"/>
<line class="st4" x1="278.7" y1="177.1" x2="405" y2="177.1"/>
<line class="st4" x1="278.7" y1="197.1" x2="405" y2="197.1"/>
<line class="st4" x1="278.7" y1="217.1" x2="405" y2="217.1"/>
<line class="st4" x1="278.7" y1="237.1" x2="405" y2="237.1"/>
<line class="st4" x1="278.7" y1="257.1" x2="405" y2="257.1"/>
<line class="st4" x1="278.7" y1="277.1" x2="405" y2="277.1"/>
<line class="st4" x1="278.7" y1="297.1" x2="405" y2="297.1"/>
<line class="st4" x1="278.7" y1="317.1" x2="405" y2="317.1"/>
<polyline class="st2" points="442.7,84.2 449.4,84.2 449.4,342.7 250.4,342.7 250.4,336.6 "/>
<path class="st5" d="M489.2,308.3l7.2-18.8L525.5,116c0.6-3.4-1.7-6.7-5.1-7.2l0,0c-3.4-0.6-6.7,1.7-7.2,5.1L484,287.5l0.7,20.3
	L489.2,308.3z"/>
<line class="st5" x1="491.3" y1="244.3" x2="503.6" y2="246.3"/>
<line class="st5" x1="511.3" y1="124.9" x2="523.6" y2="126.9"/>
<path class="st5" d="M486.8,309.2"/>
<path class="st5" d="M488.3,310.4c-0.2,0.9-1.1,1.6-2,1.4s-1.6-1.1-1.4-2"/>
<rect x="417" y="90.3" class="st4" width="12.8" height="12.8"/>
<rect x="417" y="110.3" class="st4" width="12.8" height="12.8"/>
<rect x="417" y="130.3" class="st4" width="12.8" height="12.8"/>
<rect x="417" y="150.3" class="st4" width="12.8" height="12.8"/>
<rect x="417" y="170.3" class="st4" width="12.8" height="12.8"/>
<rect x="417" y="190.3" class="st4" width="12.8" height="12.8"/>
<rect x="417" y="210.3" class="st4" width="12.8" height="12.8"/>
<rect x="417" y="230.3" class="st4" width="12.8" height="12.8"/>
<rect x="417" y="250.3" class="st4" width="12.8" height="12.8"/>
<rect x="417" y="270.3" class="st4" width="12.8" height="12.8"/>
<rect x="417" y="290.3" class="st4" width="12.8" height="12.8"/>
<rect x="417" y="310.3" class="st4" width="12.8" height="12.8"/>
</svg>
