<?xml version="1.0" encoding="utf-8"?>
<!-- Generator: Adobe Illustrator 23.1.0, SVG Export Plug-In . SVG Version: 6.00 Build 0)  -->
<svg version="1.1" xmlns="http://www.w3.org/2000/svg" xmlns:xlink="http://www.w3.org/1999/xlink" x="0px" y="0px"
	 viewBox="0 0 759.5 447.3" style="enable-background:new 0 0 759.5 447.3;" xml:space="preserve">
<style type="text/css">
	.st0{display:none;}
	.st1{display:inline;fill:#112427;}
	.st2{fill:none;stroke:#27AAE1;stroke-width:2;stroke-linecap:round;stroke-miterlimit:10;}
	.st3{fill:none;stroke:#C43634;stroke-width:2;stroke-linecap:round;stroke-miterlimit:10;}
	.st4{fill:none;stroke:#42BB94;stroke-width:2;stroke-linecap:round;stroke-miterlimit:10;}
	.st5{fill:#27AAE1;}
	.st6{fill:#42BB94;}
	.st7{fill:#C43634;}
	.st8{fill:none;stroke:#42BB94;stroke-miterlimit:10;}
	.st9{fill:none;stroke:#27AAE1;stroke-width:2;stroke-linecap:round;stroke-miterlimit:10;stroke-dasharray:5.8405,5.8405;}
	.st10{fill:none;stroke:#27AAE1;stroke-width:2;stroke-miterlimit:10;}
	.st11{fill:none;stroke:#674B9E;stroke-width:2;stroke-miterlimit:10;}
	.st12{fill:#112427;stroke:#674B9E;stroke-width:2;stroke-miterlimit:10;}
	.st13{fill:none;stroke:#A92829;stroke-width:2;stroke-miterlimit:10;}
	.st14{fill:none;stroke:#6B4FA0;stroke-width:2;stroke-linecap:round;stroke-miterlimit:10;}
	.st15{fill:#6B4FA0;}
	.st16{fill:#112427;stroke:#448ECC;stroke-width:2;stroke-miterlimit:10;}
	.st17{fill:none;stroke:#448ECC;stroke-width:2;stroke-miterlimit:10;}
	.st18{fill:#112427;stroke:#3D81C3;stroke-width:2;stroke-miterlimit:10;}
	.st19{fill:none;stroke:#3D81C3;stroke-width:2;stroke-linecap:round;stroke-miterlimit:10;}
	.st20{fill:#112427;stroke:#3D81C3;stroke-width:2;stroke-linecap:round;stroke-miterlimit:10;}
</style>
<g id="Layer_1" class="st0">
	<rect class="st1" width="759.5" height="447.3"/>
</g>
<g id="Layer_2">
	<line class="st2" x1="129.5" y1="176.2" x2="271.2" y2="96.4"/>
	<line class="st3" x1="271.2" y1="96.4" x2="271.2" y2="176.2"/>
	<line class="st4" x1="129.5" y1="176.2" x2="271.2" y2="176.2"/>
	<g>
		<path class="st5" d="M179.3,120.7c-0.1-0.6,0.1-1.3,0.4-2s0.8-1.4,1.4-2.1s1.3-1.3,2-1.8s1.5-0.9,2.3-1.2s1.6-0.3,2.3-0.1
			s1.4,0.6,1.9,1.3c0,0.2,0,0.3-0.1,0.4s-0.2,0.2-0.3,0.3s-0.2,0.2-0.4,0.3s-0.2,0.2-0.4,0.2c-0.2-0.4-0.5-0.7-0.8-0.9
			s-0.7-0.2-1.1-0.2s-0.8,0.1-1.3,0.3s-0.9,0.4-1.3,0.7s-0.8,0.6-1.2,1s-0.7,0.8-1,1.1s-0.5,0.8-0.7,1.2s-0.2,0.7-0.2,1
			c0,0.5,0.1,0.9,0.3,1.2s0.5,0.6,0.8,0.7s0.7,0.3,1.1,0.4s0.8,0.1,1.3,0.1c0.9,0,1.7-0.1,2.4-0.3s1.3-0.4,1.8-0.6s0.9-0.4,1.3-0.6
			s0.6-0.2,0.7-0.2c0.1,0,0.2,0,0.3,0s0.2,0,0.3,0.1s0.1,0.1,0.2,0.2s0,0.2,0,0.4c0,0.2-0.2,0.4-0.5,0.6s-0.6,0.4-1,0.6
			s-0.9,0.3-1.4,0.5s-1,0.3-1.5,0.4s-1,0.2-1.5,0.2s-0.8,0.1-1.2,0c-0.5,0-1.1-0.1-1.7-0.2s-1.2-0.3-1.7-0.6s-0.9-0.6-1.3-1.1
			S179.3,121.4,179.3,120.7z"/>
	</g>
	<g>
		<path class="st5" d="M192.3,112.3c0.3-0.3,0.6-0.6,1-1s0.8-0.9,1.1-1.3s0.8-1,1.2-1.6c0.4-0.5,0.7-1.1,1-1.6
			c0.3-0.5,0.6-1.1,0.8-1.6c0.2-0.5,0.3-1,0.4-1.4c0.1-0.4,0-0.7-0.1-1c-0.1-0.3-0.4-0.4-0.8-0.5c-0.5,0-0.9,0.1-1.3,0.3
			s-0.8,0.5-1.1,0.7c-0.4,0.3-0.7,0.5-1.1,0.7c-0.4,0.2-0.7,0.3-1.2,0.3c0-0.3,0.1-0.6,0.3-0.8c0.2-0.3,0.4-0.5,0.7-0.8
			c0.3-0.2,0.7-0.5,1-0.7c0.4-0.2,0.8-0.4,1.2-0.5c0.4-0.1,0.8-0.2,1.2-0.2c0.4,0,0.8,0,1.1,0.1s0.6,0.3,0.8,0.5
			c0.2,0.3,0.3,0.6,0.4,1c0,0.4-0.1,0.9-0.2,1.4c-0.1,0.5-0.3,1-0.6,1.5c-0.2,0.5-0.5,1.1-0.8,1.6c-0.3,0.5-0.6,1-0.9,1.5
			s-0.6,0.9-1,1.4c-0.3,0.4-0.6,0.8-0.9,1.1c0.5,0,1,0,1.5,0c0.5-0.1,0.9-0.2,1.3-0.3c0.4-0.1,0.9-0.2,1.3-0.3s0.9-0.1,1.4-0.1
			c0.1,0,0.3,0,0.4,0.1c0.1,0.1,0.2,0.2,0.2,0.4c0,0.2-0.1,0.3-0.2,0.5c-0.1,0.1-0.3,0.2-0.4,0.3c-0.2,0.1-0.4,0.2-0.6,0.2
			c-0.2,0.1-0.4,0.1-0.6,0.1c-0.2,0-0.3,0-0.5,0.1c-0.1,0-0.2,0-0.2,0c-0.1,0-0.4,0.1-0.8,0.2c-0.4,0.1-0.8,0.2-1.3,0.2
			c-0.5,0.1-1,0.1-1.5,0.2c-0.5,0-1,0.1-1.3,0c-0.4,0-0.7-0.1-0.9-0.3C192.3,112.8,192.2,112.6,192.3,112.3z"/>
	</g>
	<g>
		<path class="st6" d="M203.9,200.1c-0.3,0.5-0.7,1-1.2,1.4s-0.9,0.8-1.5,1.1s-1.1,0.5-1.7,0.7s-1.3,0.2-2,0.1c-0.2,0-0.5,0-0.8-0.1
			s-0.5-0.2-0.8-0.3s-0.4-0.3-0.6-0.5s-0.2-0.5-0.2-0.8c-0.1-0.7-0.1-1.3,0.1-2s0.5-1.4,0.9-2.1s0.9-1.3,1.5-1.9s1.2-1.1,1.9-1.5
			s1.3-0.7,2-0.9s1.3-0.2,2-0.1c0.5,0,0.9,0.2,1.1,0.5s0.5,0.7,0.6,1.3s0.2,1.1,0.2,1.8s0,1.4,0.1,2.2s0,1.5,0,2.3s0.1,1.5,0.2,2.1
			c0,0-0.1,0.1-0.2,0.2s-0.2,0.2-0.4,0.3s-0.3,0.1-0.5,0s-0.4-0.2-0.6-0.5c-0.1-0.1-0.1-0.3-0.1-0.6s0-0.6,0-1s0-0.7,0-1
			S203.9,200.2,203.9,200.1z M202.8,194.8c-0.5,0-0.9,0-1.4,0.2s-1,0.4-1.4,0.7s-0.9,0.7-1.3,1.1s-0.8,0.9-1.1,1.3s-0.5,0.9-0.7,1.4
			s-0.2,0.9-0.2,1.3s0.1,0.7,0.4,1s0.6,0.4,1.1,0.5c0.7,0,1.3-0.2,2-0.5s1.2-0.8,1.7-1.3s0.9-1.1,1.3-1.8s0.6-1.2,0.7-1.8
			s0.1-1,0-1.4S203.2,194.8,202.8,194.8z"/>
	</g>
	<g>
		<path class="st6" d="M207.4,191.6c0.3-0.3,0.6-0.6,1-1s0.8-0.9,1.1-1.3s0.8-1,1.2-1.6c0.4-0.5,0.7-1.1,1-1.6
			c0.3-0.5,0.6-1.1,0.8-1.6c0.2-0.5,0.3-1,0.4-1.4c0.1-0.4,0-0.7-0.1-1c-0.1-0.3-0.4-0.4-0.8-0.5c-0.5,0-0.9,0.1-1.3,0.3
			s-0.8,0.5-1.1,0.7c-0.4,0.3-0.7,0.5-1.1,0.7c-0.4,0.2-0.7,0.3-1.2,0.3c0-0.3,0.1-0.6,0.3-0.8c0.2-0.3,0.4-0.5,0.7-0.8
			c0.3-0.2,0.7-0.5,1-0.7c0.4-0.2,0.8-0.4,1.2-0.5c0.4-0.1,0.8-0.2,1.2-0.2c0.4,0,0.8,0,1.1,0.1s0.6,0.3,0.8,0.5
			c0.2,0.3,0.3,0.6,0.4,1c0,0.4-0.1,0.9-0.2,1.4c-0.1,0.5-0.3,1-0.6,1.5c-0.2,0.5-0.5,1.1-0.8,1.6c-0.3,0.5-0.6,1-0.9,1.5
			s-0.6,0.9-1,1.4c-0.3,0.4-0.6,0.8-0.9,1.1c0.5,0,1,0,1.5,0c0.5-0.1,0.9-0.2,1.3-0.3c0.4-0.1,0.9-0.2,1.3-0.3s0.9-0.1,1.4-0.1
			c0.1,0,0.3,0,0.4,0.1c0.1,0.1,0.2,0.2,0.2,0.4c0,0.2-0.1,0.3-0.2,0.5c-0.1,0.1-0.3,0.2-0.4,0.3c-0.2,0.1-0.4,0.2-0.6,0.2
			c-0.2,0.1-0.4,0.1-0.6,0.1c-0.2,0-0.3,0-0.5,0.1c-0.1,0-0.2,0-0.2,0c-0.1,0-0.4,0.1-0.8,0.2c-0.4,0.1-0.8,0.2-1.3,0.2
			c-0.5,0.1-1,0.1-1.5,0.2c-0.5,0-1,0.1-1.3,0c-0.4,0-0.7-0.1-0.9-0.3C207.3,192.1,207.3,191.9,207.4,191.6z"/>
	</g>
	<g>
		<path class="st7" d="M288.8,135.5c0,0.8-0.3,1.5-0.7,2.2s-0.9,1.4-1.6,2.1s-1.3,1.2-2.1,1.8s-1.6,0.9-2.4,1.3s-1.6,0.5-2.4,0.6
			s-1.5,0-2.1-0.2c-0.1-1-0.2-2.1-0.2-3.2s0-2.3,0-3.5s0-2.4,0-3.6s0-2.3,0-3.4c0-0.3,0-0.6,0.2-0.7s0.4-0.2,0.6-0.2
			s0.4,0.1,0.6,0.2s0.3,0.3,0.2,0.5l0.2,8.3c0.5-0.6,1-1.2,1.7-1.8s1.4-1.1,2.1-1.5s1.4-0.8,2.1-1s1.3-0.3,1.9-0.3s1,0.3,1.4,0.7
			S288.8,134.7,288.8,135.5z M287.4,135.8c-0.1-0.4-0.2-0.7-0.5-0.9s-0.6-0.2-1-0.2s-0.8,0.2-1.3,0.4s-1,0.5-1.5,0.8s-1,0.7-1.5,1.2
			s-0.9,0.9-1.2,1.4s-0.7,1-0.9,1.5s-0.3,1-0.3,1.5c-0.1,0.2,0.1,0.3,0.4,0.3s0.7-0.1,1.2-0.2s1.1-0.4,1.7-0.7s1.3-0.7,1.9-1.2
			s1.2-1.1,1.7-1.7S287.1,136.7,287.4,135.8z"/>
	</g>
	<g>
		<path class="st7" d="M289.3,131.6c0.3-0.3,0.6-0.6,1-1s0.8-0.9,1.1-1.3s0.8-1,1.2-1.6c0.4-0.5,0.7-1.1,1-1.6
			c0.3-0.5,0.6-1.1,0.8-1.6c0.2-0.5,0.3-1,0.4-1.4c0.1-0.4,0-0.7-0.1-1c-0.1-0.3-0.4-0.4-0.8-0.5c-0.5,0-0.9,0.1-1.3,0.3
			s-0.8,0.5-1.1,0.7c-0.4,0.3-0.7,0.5-1.1,0.7c-0.4,0.2-0.7,0.3-1.2,0.3c0-0.3,0.1-0.6,0.3-0.8c0.2-0.3,0.4-0.5,0.7-0.8
			c0.3-0.2,0.7-0.5,1-0.7c0.4-0.2,0.8-0.4,1.2-0.5c0.4-0.1,0.8-0.2,1.2-0.2c0.4,0,0.8,0,1.1,0.1s0.6,0.3,0.8,0.5
			c0.2,0.3,0.3,0.6,0.4,1c0,0.4-0.1,0.9-0.2,1.4c-0.1,0.5-0.3,1-0.6,1.5c-0.2,0.5-0.5,1.1-0.8,1.6c-0.3,0.5-0.6,1-0.9,1.5
			s-0.6,0.9-1,1.4c-0.3,0.4-0.6,0.8-0.9,1.1c0.5,0,1,0,1.5,0c0.5-0.1,0.9-0.2,1.3-0.3c0.4-0.1,0.9-0.2,1.3-0.3s0.9-0.1,1.4-0.1
			c0.1,0,0.3,0,0.4,0.1c0.1,0.1,0.2,0.2,0.2,0.4c0,0.2-0.1,0.3-0.2,0.5c-0.1,0.1-0.3,0.2-0.4,0.3c-0.2,0.1-0.4,0.2-0.6,0.2
			c-0.2,0.1-0.4,0.1-0.6,0.1c-0.2,0-0.3,0-0.5,0.1c-0.1,0-0.2,0-0.2,0c-0.1,0-0.4,0.1-0.8,0.2c-0.4,0.1-0.8,0.2-1.3,0.2
			c-0.5,0.1-1,0.1-1.5,0.2c-0.5,0-1,0.1-1.3,0c-0.4,0-0.7-0.1-0.9-0.3C289.3,132.1,289.2,131.9,289.3,131.6z"/>
	</g>
	<g>
		<path class="st6" d="M158.2,231.6c-0.3,0.5-0.7,1-1.2,1.4s-0.9,0.8-1.5,1.1s-1.1,0.5-1.7,0.7s-1.3,0.2-2,0.1c-0.2,0-0.5,0-0.8-0.1
			s-0.5-0.2-0.8-0.3s-0.4-0.3-0.6-0.5s-0.2-0.5-0.2-0.8c-0.1-0.7-0.1-1.3,0.1-2s0.5-1.4,0.9-2.1s0.9-1.3,1.5-1.9s1.2-1.1,1.9-1.5
			s1.3-0.7,2-0.9s1.3-0.2,2-0.1c0.5,0,0.9,0.2,1.1,0.5s0.5,0.7,0.6,1.3s0.2,1.1,0.2,1.8s0,1.4,0.1,2.2s0,1.5,0,2.3s0.1,1.5,0.2,2.1
			c0,0-0.1,0.1-0.2,0.2s-0.2,0.2-0.4,0.3s-0.3,0.1-0.5,0s-0.4-0.2-0.6-0.5c-0.1-0.1-0.1-0.3-0.1-0.6s0-0.6,0-1s0-0.7,0-1
			S158.2,231.8,158.2,231.6z M157.1,226.3c-0.5,0-0.9,0-1.4,0.2s-1,0.4-1.4,0.7s-0.9,0.7-1.3,1.1s-0.8,0.9-1.1,1.3s-0.5,0.9-0.7,1.4
			s-0.2,0.9-0.2,1.3s0.1,0.7,0.4,1s0.6,0.4,1.1,0.5c0.7,0,1.3-0.2,2-0.5s1.2-0.8,1.7-1.3s0.9-1.1,1.3-1.8s0.6-1.2,0.7-1.8
			s0.1-1,0-1.4S157.5,226.3,157.1,226.3z"/>
		<path class="st5" d="M183.8,234.2c0-0.3-0.1-0.7-0.1-1.1s-0.1-0.8-0.1-1.3s-0.1-0.9-0.2-1.3s-0.2-0.8-0.3-1.1
			c-0.3,0-0.6,0-0.9,0.1s-0.6,0.2-0.9,0.2s-0.6,0.2-0.9,0.3s-0.6,0.1-1,0.1c-0.2,0-0.3,0-0.5-0.1s-0.2-0.2-0.2-0.5
			c0-0.2,0.1-0.4,0.3-0.5s0.5-0.2,0.8-0.3s0.7-0.1,1-0.2s0.7-0.1,1-0.1s0.6-0.1,0.8-0.1s0.4-0.1,0.4-0.1v-3.6c0-0.1,0-0.2,0.1-0.2
			s0.1-0.1,0.2-0.1s0.2,0,0.3-0.1s0.2,0,0.2,0c0.3,0,0.4,0,0.5,0.1s0.1,0.3,0.2,0.6c0,0.1,0.1,0.3,0.1,0.6s0.1,0.6,0.1,0.9
			s0.1,0.6,0.1,0.9s0,0.5,0.1,0.6h4.8c0,0.2-0.1,0.4-0.3,0.5s-0.4,0.2-0.8,0.3s-0.7,0.1-1,0.1s-0.7,0-1.1,0s-0.7,0-1,0
			s-0.5,0-0.7,0.1c-0.1,0.4-0.1,0.7,0,1.2s0.1,0.9,0.2,1.3s0.1,0.9,0.2,1.4s0.1,0.9,0,1.3c-0.1,0.1-0.2,0.1-0.3,0.2
			s-0.3,0.1-0.5,0.1s-0.3,0-0.4,0S183.8,234.3,183.8,234.2z"/>
		<path class="st7" d="M211.4,227.1c0,0.8-0.3,1.5-0.7,2.2s-0.9,1.4-1.6,2.1s-1.3,1.2-2.1,1.8s-1.6,0.9-2.4,1.3s-1.6,0.5-2.4,0.6
			s-1.5,0-2.1-0.2c-0.1-1-0.2-2.1-0.2-3.2s0-2.3,0-3.5s0-2.4,0-3.6s0-2.3,0-3.4c0-0.3,0-0.6,0.2-0.7s0.4-0.2,0.6-0.2
			s0.4,0.1,0.6,0.2s0.3,0.3,0.2,0.5l0.2,8.3c0.5-0.6,1-1.2,1.7-1.8s1.4-1.1,2.1-1.5s1.4-0.8,2.1-1s1.3-0.3,1.9-0.3s1,0.3,1.4,0.7
			S211.4,226.3,211.4,227.1z M210,227.4c-0.1-0.4-0.2-0.7-0.5-0.9s-0.6-0.2-1-0.2s-0.8,0.2-1.3,0.4s-1,0.5-1.5,0.8s-1,0.7-1.5,1.2
			s-0.9,0.9-1.2,1.4s-0.7,1-0.9,1.5s-0.3,1-0.3,1.5c-0.1,0.2,0.1,0.3,0.4,0.3s0.7-0.1,1.2-0.2s1.1-0.4,1.7-0.7s1.3-0.7,1.9-1.2
			s1.2-1.1,1.7-1.7S209.7,228.2,210,227.4z"/>
		<path class="st5" d="M231.6,228.2c0,0,0.1,0,0.4-0.1s0.5-0.1,0.9-0.1s0.8-0.1,1.2-0.1s0.9-0.1,1.4-0.2s1-0.1,1.4-0.2
			s0.9-0.1,1.3-0.2c0.2-0.1,0.4-0.1,0.5,0s0.2,0.2,0.2,0.3s0,0.3-0.1,0.4s-0.2,0.3-0.3,0.4l-6.4,0.9c-0.1,0-0.2,0-0.3,0
			s-0.2,0-0.3,0s-0.2-0.1-0.3-0.1s-0.1-0.1-0.2-0.3L231.6,228.2z M231.3,231.5c0-0.1,0-0.1,0.1-0.2s0.2-0.1,0.2-0.1
			c0.6-0.1,1.1-0.2,1.5-0.2s0.8-0.1,1.2-0.2s0.7-0.1,1.1-0.1s0.7-0.1,1-0.1s0.7-0.1,1.2-0.2s0.9-0.2,1.4-0.3c0.3,0,0.6,0.1,0.7,0.3
			s0.1,0.5,0.1,0.8c-0.8,0-1.6,0.1-2.2,0.2s-1.2,0.2-1.8,0.4s-1.2,0.3-1.8,0.4s-1.3,0.2-2.1,0.2c-0.2,0-0.3-0.1-0.4-0.2
			S231.3,231.8,231.3,231.5z"/>
		<path class="st5" d="M250.3,231.8c-0.1-0.6,0.1-1.3,0.4-2s0.8-1.4,1.4-2.1s1.3-1.3,2-1.8s1.5-0.9,2.3-1.2s1.6-0.3,2.3-0.1
			s1.4,0.6,1.9,1.3c0,0.2,0,0.3-0.1,0.4s-0.2,0.2-0.3,0.3s-0.2,0.2-0.4,0.3s-0.2,0.2-0.4,0.2c-0.2-0.4-0.5-0.7-0.8-0.9
			s-0.7-0.2-1.1-0.2s-0.8,0.1-1.3,0.3s-0.9,0.4-1.3,0.7s-0.8,0.6-1.2,1s-0.7,0.8-1,1.1s-0.5,0.8-0.7,1.2s-0.2,0.7-0.2,1
			c0,0.5,0.1,0.9,0.3,1.2s0.5,0.6,0.8,0.7s0.7,0.3,1.1,0.4s0.8,0.1,1.3,0.1c0.9,0,1.7-0.1,2.4-0.3s1.3-0.4,1.8-0.6s0.9-0.4,1.3-0.6
			s0.6-0.2,0.7-0.2c0.1,0,0.2,0,0.3,0s0.2,0,0.3,0.1s0.1,0.1,0.2,0.2s0,0.2,0,0.4c0,0.2-0.2,0.4-0.5,0.6s-0.6,0.4-1,0.6
			s-0.9,0.3-1.4,0.5s-1,0.3-1.5,0.4s-1,0.2-1.5,0.2s-0.8,0.1-1.2,0c-0.5,0-1.1-0.1-1.7-0.2s-1.2-0.3-1.7-0.6s-0.9-0.6-1.3-1.1
			S250.3,232.5,250.3,231.8z"/>
	</g>
	<g>
		<path class="st6" d="M163.9,223.2c0.3-0.3,0.6-0.6,1-1s0.8-0.9,1.1-1.3s0.8-1,1.2-1.6c0.4-0.5,0.7-1.1,1-1.6
			c0.3-0.5,0.6-1.1,0.8-1.6c0.2-0.5,0.3-1,0.4-1.4c0.1-0.4,0-0.7-0.1-1c-0.1-0.3-0.4-0.4-0.8-0.5c-0.5,0-0.9,0.1-1.3,0.3
			s-0.8,0.5-1.1,0.7c-0.4,0.3-0.7,0.5-1.1,0.7c-0.4,0.2-0.7,0.3-1.2,0.3c0-0.3,0.1-0.6,0.3-0.8c0.2-0.3,0.4-0.5,0.7-0.8
			c0.3-0.2,0.7-0.5,1-0.7c0.4-0.2,0.8-0.4,1.2-0.5c0.4-0.1,0.8-0.2,1.2-0.2c0.4,0,0.8,0,1.1,0.1s0.6,0.3,0.8,0.5
			c0.2,0.3,0.3,0.6,0.4,1c0,0.4-0.1,0.9-0.2,1.4c-0.1,0.5-0.3,1-0.6,1.5c-0.2,0.5-0.5,1.1-0.8,1.6c-0.3,0.5-0.6,1-0.9,1.5
			s-0.6,0.9-1,1.4c-0.3,0.4-0.6,0.8-0.9,1.1c0.5,0,1,0,1.5,0c0.5-0.1,0.9-0.2,1.3-0.3c0.4-0.1,0.9-0.2,1.3-0.3s0.9-0.1,1.4-0.1
			c0.1,0,0.3,0,0.4,0.1c0.1,0.1,0.2,0.2,0.2,0.4c0,0.2-0.1,0.3-0.2,0.5c-0.1,0.1-0.3,0.2-0.4,0.3c-0.2,0.1-0.4,0.2-0.6,0.2
			c-0.2,0.1-0.4,0.1-0.6,0.1c-0.2,0-0.3,0-0.5,0.1c-0.1,0-0.2,0-0.2,0c-0.1,0-0.4,0.1-0.8,0.2c-0.4,0.1-0.8,0.2-1.3,0.2
			c-0.5,0.1-1,0.1-1.5,0.2c-0.5,0-1,0.1-1.3,0c-0.4,0-0.7-0.1-0.9-0.3C163.8,223.7,163.8,223.5,163.9,223.2z"/>
	</g>
	<g>
		<g>
			<path class="st7" d="M213.9,223.2c0.3-0.3,0.6-0.6,1-1s0.8-0.9,1.1-1.3s0.8-1,1.2-1.6c0.4-0.5,0.7-1.1,1-1.6
				c0.3-0.5,0.6-1.1,0.8-1.6c0.2-0.5,0.3-1,0.4-1.4c0.1-0.4,0-0.7-0.1-1c-0.1-0.3-0.4-0.4-0.8-0.5c-0.5,0-0.9,0.1-1.3,0.3
				s-0.8,0.5-1.1,0.7c-0.4,0.3-0.7,0.5-1.1,0.7c-0.4,0.2-0.7,0.3-1.2,0.3c0-0.3,0.1-0.6,0.3-0.8c0.2-0.3,0.4-0.5,0.7-0.8
				c0.3-0.2,0.7-0.5,1-0.7c0.4-0.2,0.8-0.4,1.2-0.5c0.4-0.1,0.8-0.2,1.2-0.2c0.4,0,0.8,0,1.1,0.1s0.6,0.3,0.8,0.5
				c0.2,0.3,0.3,0.6,0.4,1c0,0.4-0.1,0.9-0.2,1.4c-0.1,0.5-0.3,1-0.6,1.5c-0.2,0.5-0.5,1.1-0.8,1.6c-0.3,0.5-0.6,1-0.9,1.5
				s-0.6,0.9-1,1.4c-0.3,0.4-0.6,0.8-0.9,1.1c0.5,0,1,0,1.5,0c0.5-0.1,0.9-0.2,1.3-0.3c0.4-0.1,0.9-0.2,1.3-0.3s0.9-0.1,1.4-0.1
				c0.1,0,0.3,0,0.4,0.1c0.1,0.1,0.2,0.2,0.2,0.4c0,0.2-0.1,0.3-0.2,0.5c-0.1,0.1-0.3,0.2-0.4,0.3c-0.2,0.1-0.4,0.2-0.6,0.2
				c-0.2,0.1-0.4,0.1-0.6,0.1c-0.2,0-0.3,0-0.5,0.1c-0.1,0-0.2,0-0.2,0c-0.1,0-0.4,0.1-0.8,0.2c-0.4,0.1-0.8,0.2-1.3,0.2
				c-0.5,0.1-1,0.1-1.5,0.2c-0.5,0-1,0.1-1.3,0c-0.4,0-0.7-0.1-0.9-0.3C213.8,223.7,213.8,223.5,213.9,223.2z"/>
		</g>
	</g>
	<g>
		<g>
			<path class="st5" d="M263.2,223.2c0.3-0.3,0.6-0.6,1-1s0.8-0.9,1.1-1.3s0.8-1,1.2-1.6c0.4-0.5,0.7-1.1,1-1.6
				c0.3-0.5,0.6-1.1,0.8-1.6c0.2-0.5,0.3-1,0.4-1.4c0.1-0.4,0-0.7-0.1-1c-0.1-0.3-0.4-0.4-0.8-0.5c-0.5,0-0.9,0.1-1.3,0.3
				s-0.8,0.5-1.1,0.7c-0.4,0.3-0.7,0.5-1.1,0.7c-0.4,0.2-0.7,0.3-1.2,0.3c0-0.3,0.1-0.6,0.3-0.8c0.2-0.3,0.4-0.5,0.7-0.8
				c0.3-0.2,0.7-0.5,1-0.7c0.4-0.2,0.8-0.4,1.2-0.5c0.4-0.1,0.8-0.2,1.2-0.2c0.4,0,0.8,0,1.1,0.1s0.6,0.3,0.8,0.5
				c0.2,0.3,0.3,0.6,0.4,1c0,0.4-0.1,0.9-0.2,1.4c-0.1,0.5-0.3,1-0.6,1.5c-0.2,0.5-0.5,1.1-0.8,1.6c-0.3,0.5-0.6,1-0.9,1.5
				s-0.6,0.9-1,1.4c-0.3,0.4-0.6,0.8-0.9,1.1c0.5,0,1,0,1.5,0c0.5-0.1,0.9-0.2,1.3-0.3c0.4-0.1,0.9-0.2,1.3-0.3s0.9-0.1,1.4-0.1
				c0.1,0,0.3,0,0.4,0.1c0.1,0.1,0.2,0.2,0.2,0.4c0,0.2-0.1,0.3-0.2,0.5c-0.1,0.1-0.3,0.2-0.4,0.3c-0.2,0.1-0.4,0.2-0.6,0.2
				c-0.2,0.1-0.4,0.1-0.6,0.1c-0.2,0-0.3,0-0.5,0.1c-0.1,0-0.2,0-0.2,0c-0.1,0-0.4,0.1-0.8,0.2c-0.4,0.1-0.8,0.2-1.3,0.2
				c-0.5,0.1-1,0.1-1.5,0.2c-0.5,0-1,0.1-1.3,0c-0.4,0-0.7-0.1-0.9-0.3C263.1,223.7,263.1,223.5,263.2,223.2z"/>
		</g>
	</g>
	<g>
		<g>
			<path class="st8" d="M253.6,348.8c-0.6,0.7-1.3,1.3-2,2.1c-0.3-1.5-0.6-3-1-4.5c1,0.4,1.2,2.6,3,1.7
				C253.6,348.3,253.6,348.5,253.6,348.8z"/>
			<path class="st8" d="M168.6,313.6c0,1,0.3,1.4,1.4,1.1c0.9-0.3,1.9-0.4,3.2-0.6c-0.5,2.4-1.6,4.2-3.3,5.7
				c-0.8,0.8-1.6,1.5-2.5,2.3c-1.5,1.3-1.5,2.9-0.9,4.6c0.9,2.5,0.7,3.2-1.5,4.7c-0.9,0.6-2,1.3-1.2,2.7c0.1,0.3,0.1,0.8,0,1
				c-1.4,1.9-2.5,4-4.2,5.5c-1.2,1-3.3,1-5,1.3c-0.2,0-0.7-0.6-0.8-1c-1.1-2.8-1.9-5.7-3.2-8.4c-0.6-1.3-0.7-2.4-0.1-3.5
				c1.3-2.3,0.4-4.2-1-5.9c-0.7-0.9-1.1-1.7-0.7-2.9c0.4-1.2-0.3-1.3-1.3-2c-2-1.2-3.6-0.4-5.5-0.3c-1.8,0.2-4,0.9-5.5-1.1
				c-0.8-1.1-1.9-2.1-2.7-3.2c-0.3-0.4-0.2-1.2-0.2-1.8c0-1.1-0.3-2.3,0.1-3.2c0.6-1.6,1.7-3,2.6-4.5c0.4-0.7,0.9-1.3,1.4-2
				c0.4-0.6,1-1.1,1.4-1.7c0.6-0.7,1.4-1.4-0.2-2.1c-0.5-0.2-0.7-1.1-0.8-1.8c-0.1-0.8,0.1-1.6,0.2-2.6c1.2,0,2.6,0,4,0
				c0.8-1.9-0.1-2.8-1.4-3.3c2.5-1.6,4.9-3.1,7.5-4.7c0.2-0.8-1.1-2.2,0.9-2.8c0.1,0.4,0.3,0.9,0.5,1.4c-1.3,0.8-0.5,1.4,0.3,1.4
				c1.6,0.1,3.2-0.2,4.7-0.4c0.3,0,0.7-0.7,0.7-1.1c0.2-1.2,0.7-1.5,1.7-0.9c0,0,0.2-0.1,0.4-0.3c-0.2-0.4-0.4-0.9-0.7-1.4
				c1.1-0.3,2.1-0.5,3.4-0.8c-1.7-0.2-3.7,0.1-4.2-0.6c-1.5-1.9,1.2-2.8,2-4.3c-1.2-0.3-2-0.5-2.3,0.9c-0.1,0.3-0.4,0.7-0.7,0.9
				c-1.6,0.9-2.1,1.9-0.8,3.1c-0.5,1-0.9,1.8-1.2,2.6c-0.5,1.1-2.3,1.6-3.1,0.9c0.2-0.3,0.7-0.6,0.7-0.8c-0.2-0.7-0.6-1.3-0.9-1.9
				c-0.3,0.2-0.5,0.3-0.7,0.3c-0.7,0.1-1.4,0.1-2.2,0.1c0-1.1-0.9-2.2,0.2-3.3c2-1.9,4-3.9,6.1-5.7c1.9-1.6,4.2-2.7,6.8-2.6
				c0.6,0,1.2,0.7,1.9,1c1.5,0.6,3,1.1,4.5,1.8c0.4,0.2,0.7,0.7,1,1c-0.4,0.3-0.9,0.9-1.3,0.9c-1,0-1.9-0.3-3-0.5
				c0.6,0.9,1.1,1.8,1.7,2.6c0.2-0.1,0.3-0.2,0.5-0.3c-0.1-0.3-0.3-0.5-0.5-1c0.7,0.2,1.3,0.3,1.8,0.5c-0.1-0.1-0.1-0.3-0.2-0.4
				c0.8-0.5,1.7-1.1,2.7-1.6c0.1-0.4,0.2-1,0.4-1.6c0,0,0.5,0.1,0.8,0.1c-0.1,0.4-0.2,0.7-0.2,1c2.7-0.6,5.5-1.2,8.6-1.9
				c0.4-1.1,0.8-1.1,4.7,0.7c-1.6-1.6-0.9-3.1,0.3-4.3c0.4-0.4,1.4-0.3,2.5-0.5c-1.6,2.4,1.4,5.1-1.7,6.8c2.3,0.5,1.9-1.9,3-2.5
				c-1.5-0.4-1.6-2.1-0.1-3.8c0,0.5,0.1,1,0.1,1.3c0.8-0.3,1.6-0.9,2.3-0.8c0.7,0.1,1.3,0.8,2.3,1.5c-0.7-1.1-1.3-1.9-2.1-3.1
				c1.6-0.1,2.8-0.2,4.2-0.3c-0.6-1.5,0.6-1.8,1.6-2c1.4-0.3,2.9-0.2,4.3-0.5c0.8-0.1,1.7-0.4,2.1-1c1-1.2,1.9-1.3,3-0.3
				c0.3,0.3,0.9,0.3,1.3,0.5c1,0.3,1.9,0.6,2.9,0.9c-0.5,0.7-1,1.4-1.5,2.1c0.1,0.1,0.5,0.2,0.9,0.3c1.5,0.3,3.1,0.7,4.7,0.9
				c0.6,0.1,1.2-0.5,1.8-0.5c0.9-0.1,1.7,0,3,0c-0.6,0.6-0.8,0.9-1.1,1.2c0.7,0.6,1.4,1.1,2.2,1.7c0-0.2,0.1-0.4,0.1-0.6
				c1.2,0,2.3,0,3.5-0.1c0.5-0.1,1.2-0.4,1.5-0.8c1-1,2-0.4,3.1-0.3c2.4,0.2,4.3,2.5,7,1.7c0.3-0.1,1.1,0.1,1.2,0.3
				c0.6,1.8,2.1,1,3.3,1.2c1.1,0.2,2.2,0.4,3.5,0.6c0-0.3-0.1-0.6-0.1-1.2c1.9,0.6,4.4-0.5,5.4,1.6c0.5,1,1,3.1-1,4.1
				c0.3,0.5,0.5,1,0.7,1.4c-1.1,0.3-2.2,0.4-3,1c-1.5,1.2-3.3,1.2-5.1,1.5c-1.3,0.2-1.9,0.9-1.5,2.4c0.2,0.6-0.2,1.5-0.6,2
				c-0.8,1-1.8,1.8-2.7,2.7c-1.4-2.8-1.2-3.9,1.1-5.8c1.1-1,2.2-2.1,3.3-3.1c-0.1-0.1-0.2-0.3-0.4-0.4c-0.6,0.5-1.2,1.1-1.5,1.4
				c-0.9-0.3-1.7-0.8-2.2-0.5c-0.8,0.4-1.4,1.3-2.4,2.3c-3.8-1.2-7.6-0.4-10.4,3.6c1.3,0.3,2.8,0.7,4.3,1.1c0.2,0.8,0.4,1.8,0.6,2.5
				c-0.4,1-0.7,1.8-1,2.7c-0.1,0-0.2-0.1-0.3-0.1c0-1.3,0-2.6,0-4.4c-0.8,1.6-1.1,3-1.9,4c-1,1.3-1.6,3.2-3.9,3
				c-0.7-0.1-1.5,1.5-2.2,2.3c1.5,2.5,1.4,2.7-0.6,3.3c-0.4-1.1-0.8-2.2-1.2-3.5c-0.6,0.1-1.2,0.3-1.9,0.4c0-0.3,0.1-0.6,0.1-1.2
				c-0.8,0.6-1.5,1-2.5,1.7c1.1,0.3,1.9,0.5,2.7,0.8c-0.5,0.4-1.1,0.8-1.6,1.3c1,1.6,2.1,3.1,0.8,5c-1,1.5-1.9,2.9-3.9,3.2
				c-0.8,0.1-2.2,0.3-1.9,1.8c0,0.2-0.5,0.4-0.9,0.7c0.1-0.8,0.1-1.4,0.1-2c-0.7,0.3-1.4,0.6-2.1,0.9c0.8,1.4,2,2.5,2,3.7
				c0,1-1.2,2.1-1.8,3c-1.2-1.1-2.2-2-3.1-2.8c-1,1.9-0.4,3,0.9,4.2c0.6,0.6,0.8,1.7,1,2.9c-0.5-0.3-1.2-0.5-1.3-0.8
				c-0.5-1.7-2.3-2.9-1.8-5.1c0.2-0.9-0.4-2-0.7-3.2c-0.5,0.2-1,0.4-1.3,0.5c-0.7-1.4-1.4-2.6-2.3-4.4c-2.1,1.6-4,3-5.8,4.5
				c-0.3,0.2-0.3,0.8-0.4,1.2c-0.4,1.1-0.8,2.3-1.2,3.4c-0.3,0-0.5,0-0.8,0c-0.9-2.6-1.8-5.1-2.6-7.4c-0.7-0.5-1.3-0.8-1.8-1.4
				c-0.9-0.9-1.7-1.7-3.3-1.6c-1.3,0.1-2.6-0.5-3.9-0.9c-0.2,0-0.4-0.2-0.5-0.1c-1.5,0.5-2.3-0.4-3.1-1.5c-0.2-0.2-0.7-0.3-1-0.4
				c0,0.4-0.2,0.8-0.1,1c0.6,0.9,1.1,1.9,1.9,2.4c0.5,0.3,1.5-0.3,2.4-0.6c0.6,0.5,1.3,1.1,2.2,1.9
				C175.8,311.4,172.2,312.6,168.6,313.6c-0.3-3-4.1-9.2-5.8-9C164.8,307.6,165.2,311.5,168.6,313.6z M156.7,298.8
				c-0.2,0-0.4,0.1-0.6,0.1c-0.9-2.8-2.5-5-5.4-6.3c0.1,2.2,2.2,2.4,3.2,3.5c-0.3,0.3-0.5,0.6-0.6,0.8c-0.2,0.3-0.4,0.6-0.5,0.7
				c-0.5-0.6-0.9-1.3-1.4-1.8c-0.5-0.5-1.3-0.7-1.7-1.2c-0.6-1-1.1-1.4-2.2-0.6c-0.7,0.5-1.7,0.5-2.3,1c-0.9,0.8-1.4,2-2.3,2.9
				c-0.4,0.4-1.1,0.6-1.6,0.9c-0.3,0.2-0.6,0.3-0.9,0.4c0.7,0.4,1.4,0.4,2,0.3c1.8-0.3,3.6-0.8,5.5-1c1.9-0.2,2.1,0,1.6,2
				c1.7,0.8,3.3,1.5,4.5,2c1.1-0.6,1.9-1.4,2.4-1.3c1.7,0.6,3.2,1,5.1,0.8c2.1-0.2,2.8-0.9,2.4-3.2c-3.4,0.5-3.8,0.2-5.3-2.5
				c-0.1-0.3-0.8-0.5-0.9-0.5c-0.3,0.4-0.7,0.8-0.8,1.3C156.7,297.8,156.8,298.3,156.7,298.8z M161.3,291.8c-0.6,1-1.3,2-2.3,3.5
				c3.1,0,5.8,0,8.4,0c0-0.1,0.1-0.3,0.1-0.4c-0.8-0.6-1.6-1.3-2.5-1.9c0.1-0.4,0.2-0.8,0.4-1.4c-0.7,0.2-1.3,0.4-1.9,0.5
				c0.3,0.4,0.5,0.6,0.7,0.8c-0.1,0.2-0.2,0.3-0.4,0.5C163.1,292.9,162.4,292.5,161.3,291.8z M174.2,292.1c-0.1-0.2-0.2-0.5-0.3-0.7
				c-1.1,0.5-2.2,0.9-3.3,1.4c0.2,0.8,0.3,1.3,0.5,1.7c0.2,0.4,0.6,0.7,0.8,1.1c0.2,0.3,0.3,0.6,0.3,0.9c-0.4,2.1,0,2.5,2.5,1.9
				c-0.2-0.8-0.5-1.6-0.7-2.4c0.3-0.1,0.5-0.3,0.7-0.3c-0.7-0.8-1.4-1.5-2.2-2.3C173.2,292.9,173.7,292.5,174.2,292.1z"/>
			<path class="st8" d="M98.4,280.5c-1.2,1-2.5,2-3.6,3.2c-0.6,0.6-1.4,1.8-1.1,2.4c0.4,0.8,1.4,1.4,2.4,1.8
				c1.4,0.7,2.9,1.1,4.4,1.7c0.3,0.1,0.3,0.7,0.5,1c0.3,0.7,0.7,1.4,1.1,2.1c0.2-0.1,0.4-0.1,0.6-0.2c0-0.8,0-1.6,0-2.5
				c2-1.6,2-1.7,0.5-3.2c0.1-0.6,0.3-1.1,0.3-1.7c0-0.5-0.1-1.1-0.2-2.2c1.7,0.7,3.1,1.2,4.4,1.8c0.2,0.1,0.4,0.4,0.5,0.6
				c0.3,0.5,0.7,1.5,1,1.5c0.6-0.1,1.2-0.6,2.2-1.2c0,0,0.2,0.4,0.4,0.7c0.9,1.7,1.7,3.3,3.5,4.2c0.3,0.1,0.7,0.4,0.7,0.5
				c-0.5,2,1.3,3.2,2.1,4.9c-1.4-0.3-2.6-0.5-3.8-0.7c0.4-0.8,0.8-1.7,1.2-2.4c-2,0.3-4,0.7-6,1.1c0,0.1,0,0.3,0,0.4
				c0.6,0,1.1,0,1.3,0c0.3,0.9,0.4,1.8,0.9,2.2c0.3,0.2,1.1-0.2,1.8-0.3c0.2,0.4,0.2,0.4-3.1,2.2c-0.1-0.4-0.1-0.7-0.3-1.5
				c-1,0.9-1.7,1.7-2.5,2.4c-0.2,0.2-0.2,0.5-0.4,0.5c-1.9,0.5-2.2,2.1-2.7,3.6c-0.2,0.7-1,1.3-1.6,1.7c-1.3,0.9-2,1.8-1.1,3.4
				c0.3,0.5,0.2,1.2,0.3,1.8c-0.1,0.1-0.3,0.1-0.4,0.2c-0.4-0.5-0.8-0.9-1.1-1.4c-0.9-1.9-2.1-2.3-4-1.4c-0.3,0.2-0.9,0-1.3,0
				c-1.4-0.2-2.6,0.2-3.2,1.3c-0.9,1.8-0.4,4.6,0.9,5.1c0.7,0.3,1.8-0.1,2.6-0.5c0.7-0.3,1.2-0.9,1.8-1.4c0.1,0.1,0.3,0.3,0.4,0.4
				c-0.2,1.1-0.5,2.1-0.8,3.3c0.5,0,1,0,1.4,0c1.2-0.1,1.7,0.3,1.5,1.7c-0.3,1.8,0.3,2.3,2.2,2.1c0.4,0,0.8,0.1,1.1,0.3
				c1.6,1.2,3.3,1.7,5.4,1.5c0.8-0.1,1.8,1.2,2.7,1.8c0.4,0.3,0.9,0.8,1.3,0.8c2-0.1,3,1.1,3.7,2.8c-0.3,0.3-0.6,0.8-0.8,1.1
				c0.7,0,1.4-0.1,2,0.1c2.2,0.8,4.3,1.7,6.4,2.4c1.5,0.5,1.5,1.7,0.8,2.5c-1.7,1.7-1.9,3.8-2.5,5.9c-0.3,1.2-0.8,2.3-2.5,2.5
				c-1.1,0.1-2.5,0.7-2.6,2.6c-0.1,1.1-1.4,2-2,3.1c-0.7,1.3-1.5,1.9-3,1.5c0.5,2.1,0.3,2.4-1.8,2.9c-0.3,0.1-0.7,0.3-1,0.5
				c-0.5,0.4-0.9,0.8-1.4,1.3c0.6,1.4-0.8,2.1-1.9,3.3c0.5,0.3,0.9,0.6,1.3,0.8c-2.6,2.9-2.5,3.4-0.2,5.7c-0.9,0-1.7,0-2,0
				c-1-1-2-1.7-2.4-2.6c-0.5-1.2-0.5-2.6-0.7-3.9c1.3-0.8,1.4-1.9,0.8-3.5c-0.3-1,0.1-2.2,0.3-3.3c0.5-3.4,1.1-6.8,1.5-10.2
				c0.1-0.6-0.6-1.6-1.2-1.9c-1.6-0.7-2.3-2-3-3.3c-0.5-1-1.1-1.9-1.7-2.9c-0.6-0.9-0.3-3.5,0.7-4.5c0.9-0.8,1-1.8,1.1-2.9
				c0.2-1.2,1.2-2.4,2-3.7c0.2,0.2,0-0.2-0.2-0.1c-1.6,0.5-2.9,0-3.9-1.3c-0.5-0.6-1.2-1.1-1.8-1.5c-0.8-0.5-1.6-0.9-2.5-1.3
				c-0.3-0.2-0.7-0.4-1-0.3c-2.1,0.5-3.6-0.9-5.2-1.7c-0.3-0.1-0.7-0.5-0.7-0.7c0-2.3-2.2-3.1-3.2-4.7c-0.6-0.9-1.3-1.7-1.9-2.5
				c-0.1,0.1-0.3,0.2-0.4,0.3c1,1.6,2.1,3.2,3.1,4.9c-1.9-1.2-3-3.1-4.1-4.9c-0.5-0.8-1.3-1.4-1.9-2.1c-1.5-1.7-2.9-3.6-2.6-6.1
				c0.3-2,0.4-3.8-1.7-4.9c-0.1-0.1-0.3-0.3-0.3-0.4c0-2.9-2.7-4.1-4.2-6.2c0,0.3,0,0.7,0.1,1.3c-1.7-2.9-4.8-2.5-7.1-3.5
				c-0.8,0.5-1.6,1-2.6,1.6c0.1-0.8,0.2-1.2,0.2-1.4c-1.6,1.4-3.1,2.9-4.7,4.3c-0.2-0.2-0.4-0.4-0.6-0.7c0.8-0.4,1.6-0.8,2.4-1.2
				c-0.2-0.2-0.3-0.5-0.5-0.7c-2.2,0-3.8-1-5.2-2.9c1.1-0.7,2.1-1.4,3.2-2.1c-1.6-0.3-3.1,0.3-4.1-1.8c1.4-0.1,2.6-0.2,4.1-0.3
				c-1.2-0.7-2.3-1.3-3.5-2c1.6-0.9,2.9-2.2,4.5-2.4c2.1-0.3,4.3,0.1,6.5,0.4c2,0.3,4,0.9,6,1.3c0.6,0.1,1.2-0.3,1.9-0.4
				c1.3-0.3,2.6-0.5,3.7-0.7c2.1,0.5,4.3,0.6,6.2,1.4c1.8,0.7,3.6,1.1,5.3,1.4c0.6-0.3,1.2-0.7,1.8-0.8c1.4-0.1,2.9,0,4.3,0.1
				c0.4,0,0.7,0.4,1.1,0.6c0.1-0.1,0.4-0.4,0.6-0.7c0.5-0.6,0.8-1.1-0.3-1.5c-0.4-0.1-0.8-0.8-0.7-1.2c0-0.4,0.5-1,0.9-1.1
				c0.3-0.1,0.8,0.4,1.1,0.8c0.5,0.6,0.8,1.2,1.3,1.8c0.3,0.3,0.7,0.4,1.4,0.8c0,0,0.1,0.6,0.2,1.1c0.2,0.1,0.3,0.1,0.5,0.2
				c0.3-0.6,0.9-1.2,0.9-1.9c0-0.4-1-0.7-1.3-1.2c-0.5-0.6-1.1-1.4-1.2-2.1c0-1.3,1-1.7,2.1-1.7c-0.1,0.7-0.2,1.3-0.2,1.8
				c0.8-0.6,1.6-1.3,2.4-1.7c0.1-0.1,0.8,1,1.3,1.6c1.9-1.7,3.2,0.9,5,1.2c0.5,0.1,1,0.3,1.4,0.6c0.8,0.5,1.4,1,0.3,2
				c1.4,0.7,2.6,1.3,4.3,2.1c-0.7,0.4-1.3,0.8-2,1.2c-0.4-0.3-1-0.7-1.6-1.1c-0.1,0.1-0.2,0.2-0.4,0.3c0.6,0.9,1.3,1.9,1.9,2.8
				c-0.1,0.1-0.3,0.2-0.4,0.4c-0.5-0.2-1-0.4-1.8-0.6c0.5,0.6,0.8,0.9,1.2,1.2c-0.2,0.1-0.3,0.2-0.3,0.2c-1.2-0.6-2.3-1.3-3.5-1.9
				c-0.5-0.2-1-0.4-1.6-0.4c-0.5-0.1-1,0-1.5,0c0-0.2,0-0.4,0-0.5c0.4-0.1,0.9,0,1.2-0.3c0.7-0.6,1.4-1.2,1.9-1.9
				c0.1-0.2-0.7-1.1-1.1-1.5c-1.3-1.2-2.8-1.6-4.4-1c0.2,0.8,0.6,1.7,0.5,2.6c0,0.3-1.1,0.6-1.7,0.9C99.1,280,98.7,280.3,98.4,280.5
				L98.4,280.5z"/>
			<path class="st8" d="M96.8,263.4c-0.4-0.4-0.7-0.9-1.4-1.7c2.1-0.2,4-0.4,5.7-0.5c0.5-0.3,0.9-0.9,1.4-0.9
				c3.4,0,6.8-0.7,10.1,0.7c0.2,0.1,0.6,0.1,0.8,0c1.8-0.8,3.5-1.5,5.2-2.4c2.6-1.3,2.7-1.3,4.8,0.2c0.6-0.3,1.1-0.5,1.6-0.8
				c0.2,0.5,0.3,0.9,0.5,1.4c0.5,1.4,0.7,3.1,3.1,2.9c-0.4,0.5-0.7,0.7-1,1c0.9,0.3,1.8,0.5,2.8,0.8c-0.4,0.1-0.6,0.2-0.7,0.2
				c0.3,0.5,0.9,1.1,0.7,1.4c-0.6,1.1,0.3,1.6,0.9,2c1.7,1.4,1.8,2.4,0.2,3.9c-0.4,0.4-1,0.6-1.5,1c-0.6,0.6-1.2,1.4-1.8,2.1
				c-0.4,0.5-0.8,1-1.3,1.3c-1.2,0.7-2.5,1-2.2,3c0.2,1.2-0.7,2.6-1.2,4.1c-0.3,0-0.8,0.1-1.3,0c-2.3-0.5-4.5-1.2-5.6-3.7
				c-0.3-0.6-0.9-1.1-1-1.8c-0.2-1-0.8-2.2,0.6-3c0.4-0.2,0.6-0.6,1.2-1.3c-1.1,0.2-1.8,0.3-2.5,0.5c-0.1-1.7,0.5-2,1.9-1.3
				c0-0.2,0-0.4-0.1-0.6c-0.7-0.2-1.3-0.4-1.8-0.5c-0.4-1.2-0.7-2.6-1.3-3.8c-0.8-1.8-2.5-1.2-4-1.3c-0.1-0.9-0.2-1.8-0.3-2.8
				c0.9-0.3,1.9-0.6,2.9-0.9c-0.4-1.3-1.2-1.5-3-0.7c0.6,0,0.9,0.1,1.3,0.1c0,0.1,0,0.2,0.1,0.3c-2.1,1-4.1,1.9-6.1,2.8
				c0,0,0.2,0.3,0.4,0.6c-1.1,0.7-2.1,1.4-3,1.9c0.2,0,0.8,0.2,1.4,0.4c0,0.1,0,0.3,0,0.4c-2.2,0-4.3,0-6.6,0c0.7-1.4,1.5-2.1,3-1
				c-0.5-0.6-1-1.3-1.4-1.9l-0.1,0.1c0.6,0,1.2,0,2.1,0c-0.7-0.6-1.2-1.1-1.7-1.5c1.5-0.3,2.9-0.6,4.3-0.9c-1.3-0.3-3.1,0.4-3.6-0.2
				C98.1,262,97.5,263,96.8,263.4L96.8,263.4z"/>
			<path class="st8" d="M229.6,346.4c0-0.1,0.1-0.6,0.2-1.3c-0.4,0.4-0.7,0.6-1,0.9c-1.6-2.3-4.1-2.6-6.6-0.8
				c-1.1,0.8-2.6,1.2-3.9,1.7c-0.3,0.1-1-0.5-1.2-0.9c-0.4-1.1-0.5-2.4-0.9-3.4c-1.2-2.6-0.8-4.1,1.9-5c1.9-0.6,2.6-2.3,4-3.4
				c0.8-0.7,1.5-1.5,2.6-0.1c0.4-0.9,0.7-1.5,1-2.1c0.5,0,1,0,1.6,0c0.7,0.1,1.4,0.2,2.1,0.4c-0.2,0.5-0.5,0.9-0.7,1.5
				c1,0.5,1.9,1,3.1,1.6c0.3-1.4,0.6-2.5,0.9-3.9c0.7,1,1.6,1.6,1.8,2.5c0.5,2.3,2.5,3.6,3.7,5.4c1.3,2.1,1.4,3.9,0,5.9
				c-0.4,0.6-1,1.2-1,1.9c-0.1,1.7-1.7,1.8-2.4,1.7c-1.3-0.2-3.1,0.4-3.8-1.6C230.8,347.1,230.2,346.8,229.6,346.4z"/>
			<path class="st8" d="M85.8,273.4c0,0-0.1-0.4-0.1-0.8c0.1-0.1,0.2-0.2,0.3-0.3c0.5,0.4,1,0.7,1.4,1.2c0.7,0.9,1.4,1.9,2.3,3
				c-0.4,0.2-1,0.6-1.6,0.7c-1,0.2-2.1,0.3-3.2,0.2c-1.5-0.1-3-0.5-4.5-0.8c0-0.2,0-0.5,0.1-0.7c0.8-0.1,1.6-0.1,2.4-0.2
				c0-0.1,0-0.2,0-0.3c-0.9,0-1.8,0-3.1,0c0.4-0.5,0.5-0.7,0.7-0.9c-0.3-0.1-0.6-0.3-1.2-0.6c0.7-0.5,1.2-1.1,1.7-1.1
				C82.7,272.9,84.3,273.2,85.8,273.4z"/>
			<path class="st8" d="M228.6,326.9c1.5-1,6,0.3,6.9,2.1c0.4,0.8,1,1.5,1.5,2.5c-2.1-2-4.7-0.8-7-1.5c0.6-1.1,0.1-1.7-1-2
				c-1.2-0.4-2.5-0.5-2.8-2.8C227.2,325.8,227.8,326.3,228.6,326.9z"/>
			<path class="st8" d="M172.4,328.1c0,0.8,0.1,1.5,0,2.2c-0.4,1.5-0.8,3-1.4,4.4c-0.2,0.6-1,1-1.5,1.4c-0.4-0.7-0.9-1.3-1-2
				c-0.1-0.9,0.2-1.9,0.3-2.9c0.1-0.3,0.3-0.7,0.5-0.9C170.3,329.7,171.2,329.1,172.4,328.1z"/>
			<path class="st8" d="M211.7,326.6c-0.5,1.7,0.2,2.5,2.1,2.6c0.9,0,1.8,0.4,2.7,0.7c-3.5,0.6-6.5-1.1-8.3-4
				c-0.8-1.3-1.9-2.5-3.1-4C208.2,322.6,209.5,325.3,211.7,326.6z"/>
			<path class="st8" d="M173.4,270.1c1.9-4.3,5.6-5.7,9.8-6c0.1,0.2,0.1,0.3,0.2,0.5c-0.9,0.3-1.8,0.5-2.7,0.9
				c-1.4,0.7-2.7,1.6-4.1,2.5c-1.3,0.8-1.3,1.9-0.2,3c-0.1,0.1-0.2,0.2-0.3,0.4C175.2,270.9,174.3,270.5,173.4,270.1z"/>
			<path class="st8" d="M213,324.3c1.8,0.2,3.2,0.7,4-1.1c0.1-0.2,0.6-0.3,0.9-0.4c0.2,0.7,0.7,1.4,0.6,2c-0.2,0.8-0.6,2-1.2,2.2
				c-1.1,0.3-2.4,0.1-3.4-0.3C213.5,326.4,213.3,325.2,213,324.3z"/>
			<path class="st8" d="M141.4,286.4c-0.4-0.8-1-1.6-1.2-2.5c-0.1-0.3,0.5-0.9,0.8-1.3c0.4,0.4,1.3,0.9,1.2,1.1
				c-0.5,1.7,1.3,2.2,1.6,3.4c0.1,0.3,0.5,0.7,0.4,0.9c-0.2,0.4-0.6,0.8-1,0.9c-0.8,0.2-1.7,0.3-2.8,0.4
				C140.7,288.2,141.1,287.2,141.4,286.4z"/>
			<path class="st8" d="M98.2,265.8c-1,0.3-2,0.6-3,0.7c-0.4,0-0.8-0.5-1.2-0.8c0.1-0.1,0.3-0.2,0.4-0.4c-0.6-0.2-1.2-0.4-1.9-0.6
				c0.4-0.5,0.7-0.7,0.8-1.1c0.6-1.1,1.2-1.5,2.3-0.5c0.2,0.2,0.8,0.2,1.2,0.2c0,0-0.1-0.1-0.1-0.1c0.2,0.2,0.3,0.5,0.5,0.7
				C97.9,264.4,98.5,264.9,98.2,265.8L98.2,265.8z"/>
			<path class="st8" d="M224.6,295.5c0.3,0.6,0.9,1.1,0.9,1.7c-0.1,2.3-1.8,3-3.7,3.6c-1,0.3-1.9,0.9-2.9,1.4
				c-0.1-0.2-0.2-0.6-0.5-1.2c1.4-0.8,2.7-2,4.2-2.4C224.5,298,224.3,296.7,224.6,295.5L224.6,295.5z"/>
			<path class="st8" d="M155.2,261.1c-0.7,1.1-1.3,2.2-2.1,3.6c-1.3-1.4-2.3-2.6-3.6-4C151.6,260.5,153.5,260.2,155.2,261.1
				L155.2,261.1z"/>
			<path class="st8" d="M81.7,271.8c-1.2,0.8-2,1.1-2.5,1.7c-1.1,1.5-2.3,1.6-3.5,0.3c0.3-0.8,0.5-1.7,0.9-2.7
				C78,271.3,79.7,271.5,81.7,271.8z"/>
			<path class="st8" d="M129.3,276.4c1.3-0.9,5.5-0.6,6.3,0.2c-0.7,1.4-2.1,1.8-3.3,1.6C131.3,278.1,130.4,277.1,129.3,276.4z"/>
			<path class="st8" d="M94.7,268.7c0.4,0.1,1.1,0,1.2,0.2c0.8,1.7,2.1,0.8,3.3,0.8c1,0,2,0,3,0.4c-1.9,1.7-4.1,0.9-6.1,0.9
				c-0.6,0-1.1-1.2-1.7-1.8C94.5,269,94.6,268.8,94.7,268.7z"/>
			<path class="st8" d="M87.7,270c-2.5,1.1-4.7,1.4-7.4,0c0.9-0.4,1.6-0.9,2.2-0.9c0.7,0,1.5,0.5,2.3,0.9c0-0.6,0.1-1,0.1-1.5
				C85.7,268.9,86.5,269.3,87.7,270z"/>
			<path class="st8" d="M246.5,353.7c1.2-1.1,2.4-2.2,3.7-3.4c0.2,0.1,0.5,0.3,0.9,0.5c-0.8,1.1-1.5,2.3-2.4,3.1
				c-0.4,0.4-1.4,0.2-2.1,0.3C246.6,354,246.6,353.9,246.5,353.7z"/>
			<path class="st8" d="M212.7,318.1c-2.4,0.3-3.2,3-5.7,2.2c1.4-1.1,2.7-2.2,4.1-3.3C211.4,317.3,211.8,317.5,212.7,318.1z"/>
			<path class="st8" d="M89.1,273c0.4-0.2,0.8-0.3,1.2-0.5c-0.1-0.2-0.1-0.4-0.2-0.6c0.6,0,1.1,0,2-0.1c-0.1,0.9-0.2,1.7-0.2,2.5
				c-1-0.3-2-0.7-3-1C89,273.3,89,273.2,89.1,273z"/>
			<path class="st8" d="M155.2,261.1c0.1-0.2,0.2-0.3,0.3-0.5c-0.4-0.1-0.9-0.1-1.3-0.2c1.6-0.9,3.2-0.7,5.1-0.4
				C158,261.4,156.6,261.4,155.2,261.1C155.2,261.1,155.2,261.1,155.2,261.1z"/>
			<path class="st8" d="M137.6,288.2c0.6-2.9,0.6-2.9,2.4-2.8C140.3,287.2,139.6,288.1,137.6,288.2z"/>
			<path class="st8" d="M222.2,324.9c-0.8,0.1-1.6,0.1-2.3,0.2c0,0.2,0,0.3,0,0.5c0.4,0,0.9,0,1.2,0c0,0.8,0,1.5,0,2.4
				c-0.4-0.3-0.7-0.5-1-0.8c-0.1,0.4-0.2,0.8-0.3,1.2c-0.1,0-0.2,0-0.3,0c-0.1-0.6-0.4-1.2-0.4-1.8
				C219.1,324.8,219.6,324.5,222.2,324.9z"/>
			<path class="st8" d="M93.3,274.1c-0.1-0.9-0.3-1.8-0.1-1.9c0.8-0.4,1.7-0.5,2.6-0.8c0.1,0.2,0.2,0.4,0.3,0.6
				C95.3,272.6,94.5,273.2,93.3,274.1z"/>
			<path class="st8" d="M98.4,280.6c1.2,0.4,2.3,0.9,3.5,1.3c0,0.1-0.1,0.3-0.1,0.4c-1.2,0-2.3,0-3.5,0
				C98.3,281.7,98.4,281.1,98.4,280.6C98.4,280.5,98.4,280.6,98.4,280.6z"/>
			<path class="st8" d="M81.3,268c-1,1-2.3,1.3-3.7,1.3c-0.1-0.2-0.1-0.4-0.2-0.5c1.2-0.5,2.4-0.9,3.7-1.4
				C81.1,267.5,81.2,267.8,81.3,268z"/>
			<path class="st8" d="M224.6,295.5c0-0.4,0-0.8,0.1-1.2c0.2-0.5,0.6-0.9,0.9-1.4c0.5,0.3,1.2,0.6,2.1,1.2
				C226.6,294.6,225.6,295.1,224.6,295.5C224.6,295.5,224.6,295.5,224.6,295.5z"/>
			<path class="st8" d="M92.1,269.2c-0.4,0.4-0.8,1.2-1.2,1.2c-0.5,0-1.1-0.5-2-1.1c1-0.3,1.8-0.5,2.7-0.8
				C91.7,268.8,91.9,269,92.1,269.2z"/>
			<path class="st8" d="M99.5,311.9c2.1-1,3.7,0.6,5.4,1.3c0,0.1-0.1,0.3-0.1,0.4C103.1,313,101.4,312.5,99.5,311.9z"/>
			<path class="st8" d="M213.9,310.1c0,0.7,0,1.4,0,2.3c0.3,0.1,0.7,0.4,1.1,0.6c0,0.1,0,0.2-0.1,0.2c-0.4-0.1-0.7,0-1.1-0.2
				c-1.7-0.7-1-1.8-0.6-2.9C213.5,310.1,213.7,310.1,213.9,310.1z"/>
			<path class="st8" d="M90.8,267.2c-1-0.2-2-0.5-2.8-0.7c-0.1-0.4-0.2-0.9-0.4-1.6c1.3,0.6,2.4,1.2,3.5,1.7
				C91.1,266.8,91,267,90.8,267.2z"/>
			<path class="st8" d="M234.7,352.4c-0.2-0.6-0.5-1.2-0.8-2.1c0.9,0.1,1.5,0.2,2.4,0.3c-0.4,0.7-0.7,1.3-1,1.8
				C235,352.4,234.9,352.4,234.7,352.4z"/>
			<path class="st8" d="M216.1,317.9c-0.9-0.7-1.4-1-2-1.5c0.7-0.3,1.4-0.6,2.4-1C216.4,316.2,216.3,316.9,216.1,317.9z"/>
			<path class="st8" d="M98.1,265.9c0.4-1-0.2-1.5-0.9-1.9c-0.2-0.1-0.3-0.4-0.5-0.7c0.8-0.3,1.4-1.3,2.5,0c0.5,0.5,2.3-0.1,3.6,0.2
				c-1.4,0.3-2.8,0.6-4.3,0.9c0.5,0.4,1,0.8,1.7,1.5C99.3,265.9,98.7,265.9,98.1,265.9z"/>
		</g>
	</g>
	<g>
		<g>
			<line class="st2" x1="51.2" y1="326.8" x2="54.2" y2="326.8"/>
			<line class="st9" x1="60" y1="326.8" x2="267.3" y2="326.8"/>
			<line class="st2" x1="270.3" y1="326.8" x2="273.3" y2="326.8"/>
		</g>
	</g>
	<g>
		<path class="st5" d="M135.8,360.4c-0.1-0.9,0-1.9,0.2-2.8s0.7-1.8,1.3-2.5s1.3-1.3,2.1-1.8s1.7-0.7,2.7-0.6c0.4,0,0.9,0.1,1.4,0.3
			s1,0.4,1.4,0.8s0.8,0.7,1,1.2s0.3,0.9,0.3,1.4c0,0.2-0.1,0.4-0.4,0.6s-0.6,0.3-1,0.4s-0.9,0.2-1.5,0.2s-1.2,0.1-1.8,0.1
			s-1.3,0-1.9,0.1s-1.3,0-1.8,0.1c-0.3,0.9-0.4,1.6-0.3,2.2s0.4,1,0.9,1.3s1,0.5,1.6,0.5s1.3,0,2-0.1s1.4-0.4,2.1-0.7
			s1.3-0.7,1.8-1.1c0.1,0,0.2,0,0.3,0.1s0.2,0.1,0.3,0.2s0.2,0.2,0.3,0.2s0.1,0.2,0.1,0.2c-0.3,0.5-0.7,1-1.3,1.4s-1.3,0.7-2,1
			s-1.5,0.4-2.3,0.5s-1.6,0-2.3-0.2s-1.3-0.5-1.9-0.9S136,361.1,135.8,360.4z M144.2,355.7c-0.1-0.4-0.2-0.8-0.5-1s-0.6-0.4-1-0.4
			s-0.8-0.1-1.3,0s-0.9,0.2-1.2,0.4s-0.7,0.4-0.9,0.6s-0.4,0.4-0.4,0.7L144.2,355.7z"/>
		<path class="st5" d="M155.7,361.2c-0.3,0.3-0.7,0.6-1.2,0.9s-0.9,0.5-1.4,0.7s-1,0.3-1.5,0.4s-0.9,0.1-1.3,0.1
			c-0.3,0-0.6,0-0.9-0.1s-0.7-0.2-1-0.3s-0.6-0.3-0.8-0.5s-0.3-0.5-0.3-0.9c0-0.7,0-1.4,0.2-2.1s0.5-1.4,0.9-2.1s0.8-1.3,1.4-1.9
			s1.1-1.1,1.7-1.6s1.3-0.8,1.9-1s1.3-0.4,2-0.3c0.2,0,0.4,0,0.7,0.1s0.4,0.1,0.7,0.2s0.4,0.2,0.5,0.4s0.2,0.4,0.3,0.7
			c0,1.3,0,2.6,0,4.1s0,2.9,0,4.4s0.1,3,0.1,4.4s0.1,2.8,0.2,4.1c-0.1,0.2-0.2,0.3-0.4,0.4s-0.3,0.1-0.5,0.2s-0.3,0-0.5-0.1
			s-0.3-0.2-0.4-0.3L155.7,361.2z M149,360.8c0,0.3,0.1,0.5,0.2,0.7s0.2,0.3,0.4,0.3s0.4,0.1,0.6,0.1s0.5,0,0.7,0
			c0.5,0,0.9-0.1,1.3-0.3s0.8-0.3,1.2-0.6s0.7-0.5,1-0.8s0.5-0.6,0.7-0.9c0.2-0.3,0.3-0.7,0.4-1.2s0.2-1,0.2-1.5s0-1-0.1-1.5
			s-0.2-0.8-0.4-1.1c-0.5,0-0.9,0.1-1.4,0.3s-1,0.5-1.4,0.8s-0.9,0.7-1.3,1.2s-0.8,0.9-1.1,1.4s-0.5,1-0.7,1.5S149,360.3,149,360.8z
			"/>
		<path class="st5" d="M158.5,360.4c0-0.3-0.1-0.7-0.1-1.1s0-0.9,0-1.4s0.1-1,0.1-1.6s0.1-1,0.2-1.5s0.2-0.9,0.3-1.2
			s0.2-0.6,0.4-0.8c0.4-0.2,0.7-0.2,0.9-0.1s0.4,0.4,0.3,0.7c0,0.3-0.1,0.7-0.2,1.2s-0.3,1-0.4,1.6s-0.2,1.3-0.3,1.9s0,1.4,0.1,2.1
			c0.1,0.4,0.3,0.7,0.6,1s0.7,0.4,1.2,0.4s0.9,0.1,1.4,0s1-0.2,1.5-0.4s0.9-0.4,1.3-0.7s0.7-0.5,0.9-0.9c0-0.4,0-0.9,0-1.5
			s0-1.1,0-1.7s0-1.2,0-1.8s0-1.3,0-1.9c0.2-0.3,0.5-0.4,0.8-0.3s0.5,0.2,0.7,0.4l0.5,10.1c-0.1,0.1-0.2,0.2-0.4,0.3
			s-0.3,0.1-0.4,0.2s-0.3,0-0.4,0s-0.2-0.1-0.3-0.3l-0.3-1.7c-0.2,0.2-0.5,0.4-1,0.6s-1,0.5-1.6,0.7s-1.2,0.3-1.9,0.4
			s-1.3,0.1-1.9-0.1s-1.1-0.4-1.5-0.9S158.6,361.2,158.5,360.4z"/>
		<path class="st5" d="M178.3,359.6c-0.3,0.5-0.7,1-1.2,1.4s-0.9,0.8-1.5,1.1s-1.1,0.5-1.7,0.7s-1.3,0.2-2,0.1c-0.2,0-0.5,0-0.8-0.1
			s-0.5-0.2-0.8-0.3s-0.4-0.3-0.6-0.5s-0.2-0.5-0.2-0.8c-0.1-0.7-0.1-1.3,0.1-2s0.5-1.4,0.9-2.1s0.9-1.3,1.5-1.9s1.2-1.1,1.9-1.5
			s1.3-0.7,2-0.9s1.3-0.2,2-0.1c0.5,0,0.9,0.2,1.1,0.5s0.5,0.7,0.6,1.3s0.2,1.1,0.2,1.8s0,1.4,0.1,2.2s0,1.5,0,2.3s0.1,1.5,0.2,2.1
			c0,0-0.1,0.1-0.2,0.2s-0.2,0.2-0.4,0.3s-0.3,0.1-0.5,0s-0.4-0.2-0.6-0.5c-0.1-0.1-0.1-0.3-0.1-0.6s0-0.6,0-1s0-0.7,0-1
			S178.4,359.7,178.3,359.6z M177.2,354.3c-0.5,0-0.9,0-1.4,0.2s-1,0.4-1.4,0.7s-0.9,0.7-1.3,1.1s-0.8,0.9-1.1,1.3s-0.5,0.9-0.7,1.4
			s-0.2,0.9-0.2,1.3s0.1,0.7,0.4,1s0.6,0.4,1.1,0.5c0.7,0,1.3-0.2,2-0.5s1.2-0.8,1.7-1.3s0.9-1.1,1.3-1.8s0.6-1.2,0.7-1.8
			s0.1-1,0-1.4S177.7,354.3,177.2,354.3z"/>
		<path class="st5" d="M180.5,355.4c-0.1-0.2-0.1-0.3-0.1-0.5s0.1-0.3,0.2-0.4s0.2-0.2,0.4-0.2h3.3l-0.1-5.5c0-0.1,0.1-0.3,0.3-0.4
			s0.3-0.1,0.5-0.2s0.4,0,0.5,0.1s0.3,0.2,0.4,0.4l0.2,5.5l3.1-0.1c0.2,0.1,0.4,0.3,0.4,0.4s0.1,0.3,0.1,0.5s-0.1,0.3-0.1,0.4
			s-0.2,0.2-0.3,0.2l-3.3,0.1c0,0.7,0,1.4,0,2s0.1,1.1,0.1,1.7s0.1,1.1,0.1,1.7s0,1.2,0,1.9c-0.3,0.2-0.7,0.3-1,0.3
			s-0.6-0.2-0.7-0.4l-0.2-7.1H181C180.7,355.7,180.6,355.6,180.5,355.4z"/>
		<path class="st5" d="M190,359.1c0-1,0.2-1.8,0.5-2.6s0.8-1.5,1.3-2s1.2-1,1.8-1.3s1.4-0.5,2.1-0.6c0.8-0.1,1.5,0,2.2,0.2
			s1.3,0.6,1.8,1.1s0.9,1.1,1.2,1.8s0.4,1.4,0.4,2.3c-0.1,1-0.4,1.8-0.8,2.5s-0.9,1.2-1.5,1.7s-1.3,0.8-2.1,1s-1.7,0.3-2.6,0.3
			c-1.4,0-2.4-0.3-3.1-1S190,360.6,190,359.1z M191.5,359.6c0,0.7,0.3,1.2,0.7,1.6s0.9,0.6,1.5,0.6s1.3,0,2-0.2s1.3-0.5,1.9-0.8
			s1.1-0.8,1.5-1.4s0.6-1.1,0.7-1.8c0-0.3,0-0.7-0.1-1.1s-0.3-0.8-0.5-1.2s-0.6-0.7-1-1s-1-0.5-1.7-0.6c-0.2,0-0.5,0.1-0.9,0.1
			s-0.7,0.2-1.1,0.4s-0.8,0.4-1.1,0.7s-0.7,0.7-1,1.1s-0.5,0.9-0.7,1.5S191.5,358.9,191.5,359.6z"/>
		<path class="st5" d="M202,352.8c0-0.2,0.1-0.4,0.3-0.4s0.3-0.1,0.5,0c0.3,0,0.5,0.2,0.7,0.5s0.3,0.6,0.3,0.9s0.1,0.7,0.1,1
			s0,0.6,0,0.7c0.3-0.3,0.7-0.6,1.1-1s0.9-0.7,1.5-1s1.3-0.5,2.1-0.7s1.8-0.2,2.9,0c0.3,0.1,0.5,0.2,0.6,0.4s0.2,0.4,0.2,0.6
			s-0.1,0.4-0.2,0.6s-0.3,0.3-0.5,0.3c-0.3-0.2-0.7-0.3-1.1-0.4s-1,0-1.5,0.1s-1.1,0.3-1.7,0.6s-1.1,0.6-1.6,1s-0.9,0.8-1.2,1.3
			s-0.6,1.1-0.6,1.7v3.8c0,0.1-0.1,0.1-0.3,0.3s-0.3,0.2-0.6,0.2s-0.4,0-0.6,0s-0.4-0.2-0.5-0.5c0-0.1,0-0.3,0-0.8s0-1,0-1.6
			s0-1.3,0-2.1s0-1.5,0-2.2s0-1.4,0-2S202,353.1,202,352.8z"/>
	</g>
	<g>
		<path class="st5" d="M376.9,95.2c-0.5-0.3-1.1-0.6-1.4-1.1c-0.3-0.4-0.3-1.1-0.4-1.6c0.5-0.1,1.1-0.3,1.6-0.2c1.3,0.3,2.6,1,3.9,1
			c1,0,2-0.8,3-1.2c0.5-0.2,1.2-0.3,1.6,0c0.6,0.5,0.4,1.2-0.3,1.6c-0.6,0.5-1.3,0.9-1.9,1.4C381.1,95.2,379,95.2,376.9,95.2z"/>
		<path class="st5" d="M380.6,24.9c0.3,0.6,0.7,1.2,0.7,1.8c0.1,2,0,4,0,6c0,0.9-0.2,1.7-1.3,1.7c-1,0-1-1-1-1.7c0-2.1,0-4.1,0-6.2
			c0-0.6,0.4-1.1,0.6-1.6C380,24.9,380.3,24.9,380.6,24.9z"/>
		<path class="st5" d="M362.2,54.6c0.6-8.5,5.8-15,13.9-16.9c11.3-2.7,22.2,5.9,22.3,17.5c0.1,5.5-2.1,9.9-5.8,13.7
			c-2,2-3.2,4.4-3.5,7.2c-0.1,1.2-0.7,1.8-1.9,2c-4.5,1.1-9.1,2.3-13.6,3.4c-0.9,0.2-1.7,0.3-2-0.6c-0.3-1.1,0.6-1.4,1.5-1.6
			c4.2-1,8.4-2.1,12.7-3.1c0.7-0.2,1-0.4,1.2-1.2c0.5-3.1,2-5.8,4.3-8c4.7-4.4,6.2-11.3,3.8-17.3c-2.5-6.2-8.2-10.2-14.7-10.2
			c-6.8,0-12.4,3.7-14.9,9.9c-2.5,6.1-0.9,13.1,3.8,17.7c2.8,2.7,4.3,6.1,4.8,9.9c0.1,0.8-0.1,1.4-1,1.6c-0.9,0.1-1.1-0.5-1.2-1.2
			c-0.5-3.5-2-6.5-4.4-9C363.8,64.6,361.9,60.1,362.2,54.6z"/>
		<path class="st5" d="M382.5,63.5c-0.5,0.4-1,0.8-1.5,1.2c-1.1,1-1.6,1-2.5-0.2c-0.3-0.5-0.6-1-0.9-1.5c-0.1,0.1-0.3,0.3-0.4,0.4
			c0.5,2.3,1,4.5,1.4,6.8c0.2,1.3,0.3,2.6,0.2,3.9c0,0.5-0.7,1.3-1.1,1.4c-0.9,0.2-1-0.6-1-1.3c-0.1-4.1-0.8-8-2.4-11.7
			c-0.5-1.1,0.1-1.9,1.3-1.7c1.5,0.2,2.9,0.8,4.7,1.3c0.7-0.3,2-0.9,3.2-1.2c1.7-0.4,2.4,0.5,1.8,2.1c-1.4,3.6-2.3,7.2-2.3,11
			c0,0.7,0,1.6-1,1.6c-1.1,0-1.3-0.9-1.2-1.7c0.4-3,1-6.1,1.5-9.1c0.1-0.4,0.3-0.8,0.4-1.2C382.7,63.6,382.6,63.5,382.5,63.5z"/>
		<path class="st5" d="M372.7,92.1c-0.3-0.3-0.9-0.6-1-1c0-0.4,0.5-1.1,0.9-1.2c4.8-1.3,9.7-2.5,14.5-3.7c0.5-0.1,1.5,0.2,1.7,0.6
			c0.4,1-0.5,1.4-1.3,1.6c-3.6,0.9-7.2,1.8-10.7,2.7C375.5,91.4,374.2,91.7,372.7,92.1z"/>
		<path class="st5" d="M372.5,86.8c-0.2-0.2-0.8-0.6-0.8-1c0-0.4,0.4-1.1,0.8-1.2c4.9-1.3,9.8-2.5,14.8-3.7c0.5-0.1,1.1,0.4,1.6,0.7
			c-0.3,0.5-0.6,1.3-1,1.4c-4.9,1.3-9.9,2.5-14.8,3.7C373,86.8,372.9,86.7,372.5,86.8z"/>
		<path class="st5" d="M405.3,76c-0.4-0.2-0.7-0.3-1-0.5c-2-1.7-4.1-3.4-6.1-5.2c-0.3-0.3-0.6-0.7-0.7-1c0-0.3,0.2-0.8,0.5-1
			c0.3-0.2,0.9-0.2,1.1,0c2.3,1.9,4.7,3.9,6.9,5.9c0.3,0.2,0.3,0.9,0.2,1.3C406.2,75.6,405.6,75.8,405.3,76z"/>
		<path class="st5" d="M354.7,75.7c-0.4-0.3-0.9-0.5-0.9-0.8c0-0.5,0.1-1.1,0.4-1.5c1.4-1.3,2.9-2.5,4.4-3.8c0.5-0.5,1-1,1.6-1.3
			c0.4-0.2,1.2-0.3,1.4-0.1c0.3,0.3,0.2,1,0.2,1.5c0,0.3-0.4,0.5-0.6,0.7c-1.7,1.5-3.4,2.9-5.1,4.4
			C355.7,75.2,355.2,75.4,354.7,75.7z"/>
		<path class="st5" d="M406.5,54c-1.2,0-2.4,0.1-3.6,0c-0.4-0.1-0.8-0.6-1.3-1c0.4-0.4,0.7-1.1,1.1-1.1c2.6-0.1,5.2-0.1,7.9,0
			c0.4,0,0.8,0.7,1.2,1.1c-0.4,0.3-0.9,0.9-1.3,1C409.1,54,407.8,53.9,406.5,54C406.5,54,406.5,54,406.5,54z"/>
		<path class="st5" d="M402.7,34.8c-0.3,0.5-0.5,0.9-0.9,1.2c-1.6,1.4-3.3,2.9-5,4.3c-0.6,0.5-1.3,0.9-2,0.2
			c-0.6-0.7-0.1-1.3,0.5-1.8c1.7-1.5,3.4-3,5.2-4.5c0.3-0.3,0.9-0.3,1.4-0.3C402.2,33.9,402.4,34.4,402.7,34.8z"/>
		<path class="st5" d="M353.5,54c-1.2,0-2.4,0.1-3.6,0c-0.4,0-1-0.6-1-0.9c0-0.4,0.5-1.1,0.9-1.1c2.6-0.1,5.1-0.1,7.7,0
			c0.4,0,0.7,0.7,1.1,1.1c-0.4,0.3-0.8,0.9-1.2,1C356.1,54,354.8,53.9,353.5,54C353.5,53.9,353.5,53.9,353.5,54z"/>
		<path class="st5" d="M365.1,39.6c0,1-1,1.5-1.8,0.9c-1.9-1.5-3.7-3.1-5.5-4.8c-0.3-0.2-0.2-1.1,0.1-1.5c0.1-0.2,1.1-0.2,1.4,0
			c1.8,1.5,3.5,3,5.3,4.6C364.9,39.1,365,39.5,365.1,39.6z"/>
	</g>
	<polyline class="st10" points="399.5,235.7 391.5,233.9 391.5,210.2 	"/>
	<polyline class="st10" points="370.5,210.2 370.5,233.9 361.8,235.7 	"/>
	<line class="st2" x1="370.1" y1="170.3" x2="370.1" y2="176"/>
	<line class="st2" x1="392" y1="170.3" x2="392" y2="176"/>
	<path class="st2" d="M369.1,192.5c0,0,12,10,22.8,0"/>
	<path class="st11" d="M323.1,355.1l-45.7,22.6c0,0-8.7,2.6-6.3,12c1.4,5.7,4.8,10.2,7.3,12.9c0,0,1.7,2.6,9,3.3l58.7,5.7"/>
	<path class="st11" d="M362.7,381.1l94.8,4l-25.8,39c-9.4-6.3-21.9-6.3-21.9-6.3l-37.1-3.4"/>
	<line class="st12" x1="325.3" y1="379.6" x2="334.1" y2="379.9"/>
	<path class="st4" d="M339.3,265.7c-4.3,10.6,3,23.5,3,23.5s6.4,13.4,7.6,51.1h64.8c-0.3-15,8.7-46.8,8.7-46.8s5.2-15.2-1-27.8"/>
	<path class="st4" d="M346.1,338.1"/>
	<path class="st4" d="M425.7,285.1l18.3-1c0,0,1.8-23.5,1-32.9c-0.8-9.4-13.3-11.7-13.3-11.7l-30.2-6.8l-20.7,31.1l-21.7-30.5
		L333,243.4c0,0-13.3,5.5-14.1,10.2c-0.8,4.7,1,31.3,1,31.3l20.2,1"/>
	<g>
		<path class="st10" d="M380.6,135.6c0,0-7,24.8-30.6,34.7c0,0.5,0,1.1,0,1.6c0,22.6,13.8,40.9,30.9,40.9c10.5,0,19.7-6.9,25.3-17.4
			C404.1,172.9,398,143.2,380.6,135.6z"/>
		<path class="st13" d="M376.2,131.5l-2.5-2.3c-25.8-21.1-34.5,9.4-34.5,9.4c-20,50.2,13.5,83.8,13.5,83.8
			c-6.4-9.8-4.5-51.3-4.5-51.3c0.6-0.2,1.2-0.5,1.8-0.7"/>
		<path class="st13" d="M349.9,170.3c23.6-10,30.6-34.7,30.6-34.7l-4.3-4.1"/>
		<path class="st13" d="M406.1,195.4c1.4,15.1,1,26.9,1,26.9c9.3-26.2,16.3-37.6,7.9-74.4c-8.5-37.5-36.7-23.1-36.7-23.1l-5.4,3.4
			l0.9,0.9c0.9,0.7,1.8,1.5,2.7,2.3"/>
		<path class="st13" d="M376.4,131.5c1.3,1.2,2.7,2.6,4.2,4.1c17.5,7.6,23.5,37.3,25.6,59.8"/>
		<path class="st13" d="M376.4,131.5c-0.9-0.8-1.8-1.6-2.7-2.3l2.5,2.3C376.3,131.5,376.3,131.5,376.4,131.5z"/>
	</g>
	<path class="st3" d="M453,392.4c0,0,18.7,10.5,20.7,14.6c2,4.1,7.5,8.8,3.4,12.9c-4.1,4.1-6.1,12.2-17.6,4.7
		c-11.5-7.5-22.2-8.7-22.2-8.7"/>
	<g>
		<path class="st5" d="M495.1,141.6c-0.2-0.5-0.5-1.2-0.8-2s-0.8-1.7-1.2-2.7s-0.9-1.9-1.3-2.9s-0.9-1.9-1.2-2.8s-0.7-1.6-0.9-2.2
			s-0.4-1-0.4-1.2c0-0.1,0.1-0.1,0.2-0.2s0.2-0.2,0.4-0.2c0.2-0.1,0.4-0.2,0.6-0.3c0.5,0.9,1,2,1.6,3.1s1,2.2,1.5,3.3
			s0.9,2.1,1.4,3.1s0.9,1.7,1.3,2.3c0.1-0.1,0.2-0.3,0.4-0.8s0.5-1,0.8-1.7s0.6-1.4,1-2.3s0.7-1.7,1.1-2.5s0.7-1.6,1-2.3
			s0.6-1.4,0.8-1.9c0.2-0.2,0.4-0.4,0.6-0.5s0.4-0.1,0.5-0.1s0.3,0.1,0.4,0.3s0.2,0.3,0.3,0.6l-6.1,14c-0.1,0.1-0.3,0.1-0.4,0.2
			s-0.3,0.1-0.5,0.1s-0.3,0-0.5-0.1S495.2,141.8,495.1,141.6z"/>
		<path class="st5" d="M514,134.9c0,0,0.1,0,0.4-0.1s0.5-0.1,0.9-0.1s0.8-0.1,1.2-0.1s0.9-0.1,1.4-0.2s1-0.1,1.4-0.2
			s0.9-0.1,1.3-0.2c0.2-0.1,0.4-0.1,0.5,0s0.2,0.2,0.2,0.3s0,0.3-0.1,0.4s-0.2,0.3-0.3,0.4l-6.4,0.9c-0.1,0-0.2,0-0.3,0
			s-0.2,0-0.3,0s-0.2-0.1-0.3-0.1s-0.1-0.1-0.2-0.3L514,134.9z M513.7,138.2c0-0.1,0-0.1,0.1-0.2s0.2-0.1,0.2-0.1
			c0.6-0.1,1.1-0.2,1.5-0.2s0.8-0.1,1.2-0.2s0.7-0.1,1.1-0.1s0.7-0.1,1-0.1s0.7-0.1,1.2-0.2s0.9-0.2,1.4-0.3c0.3,0,0.6,0.1,0.7,0.3
			s0.1,0.5,0.1,0.8c-0.8,0-1.6,0.1-2.2,0.2s-1.2,0.2-1.8,0.4s-1.2,0.3-1.8,0.4s-1.3,0.2-2.1,0.2c-0.2,0-0.3-0.1-0.4-0.2
			S513.7,138.5,513.7,138.2z"/>
		<path class="st5" d="M533.1,141.6c-0.1-0.2-0.1-0.5-0.2-1s-0.1-1.1-0.1-1.8s0-1.5,0-2.3s0-1.7,0-2.5s0-1.7,0.1-2.5s0-1.5,0.1-2.1
			s0-1.1,0-1.5c0-0.4,0-0.6,0-0.6c0.2-0.1,0.3-0.2,0.5-0.3s0.3-0.1,0.5-0.1c0.1,0,0.2,0,0.3,0.1s0.2,0.1,0.2,0.3l0.1,14.2
			c0,0.2-0.1,0.3-0.2,0.3s-0.2,0.1-0.3,0.1c-0.2,0-0.3,0-0.5-0.1S533.2,141.7,533.1,141.6z"/>
		<path class="st5" d="M537.4,141.6c0,0.1,0,0.2-0.1,0.3s-0.2,0.1-0.3,0.1s-0.2,0-0.3,0s-0.2,0-0.2,0c-0.3,0-0.5-0.2-0.7-0.5
			s-0.2-0.9-0.2-1.5s0-1.4,0-2.3s0.1-1.9,0.1-2.9s0-2.2,0-3.4s-0.1-2.4-0.2-3.6c0.1-0.2,0.3-0.4,0.4-0.4s0.3,0,0.4,0.1
			s0.3,0.2,0.4,0.4s0.2,0.3,0.3,0.4c0.4-0.4,0.9-0.6,1.5-0.8s1.3-0.3,2.1-0.3s1.5,0,2.3,0.1s1.5,0.2,2.1,0.4s1.2,0.4,1.6,0.7
			c0.4,0.3,0.7,0.6,0.7,0.9s-0.1,0.7-0.6,1.1s-1.2,0.8-2.2,1.3c-0.2,0.1-0.4,0.2-0.8,0.3s-0.7,0.3-1.2,0.4s-0.9,0.3-1.3,0.5
			s-0.9,0.3-1.3,0.5s-0.8,0.3-1.1,0.4s-0.5,0.2-0.7,0.3c0,0.1,0,0.1,0.1,0.2s0.2,0.2,0.4,0.4s0.6,0.4,1,0.6s1.1,0.6,1.8,1.1
			s1.7,1,2.9,1.7s2.6,1.5,4.2,2.5c0.1,0,0.1,0.1,0.2,0.2s0.2,0.1,0.2,0.2s0.1,0.2,0.2,0.3s0.1,0.2,0.1,0.3c0,0.2-0.1,0.3-0.2,0.3
			s-0.3,0.1-0.4,0.2s-0.3,0.1-0.5,0.1s-0.3,0-0.4,0c-0.2,0-0.5-0.1-1-0.3s-1-0.6-1.6-1s-1.3-0.8-2-1.3s-1.4-1-2.1-1.5
			s-1.4-0.9-2-1.4s-1.2-0.8-1.6-1L537.4,141.6z M537.3,129.5c-0.1,0.2-0.2,0.4-0.2,0.7s0,0.6,0,0.9s0.1,0.6,0.2,0.8s0.2,0.4,0.3,0.6
			c0.1,0,0.4,0,0.7,0s0.8-0.2,1.3-0.3s1-0.3,1.6-0.5s1.1-0.4,1.6-0.7s1-0.5,1.4-0.7s0.7-0.5,0.9-0.7s0.2-0.4,0.1-0.6
			s-0.4-0.3-0.9-0.4c-0.2-0.1-0.5-0.1-0.9-0.1s-0.8,0-1.3,0s-1,0-1.5,0.1s-1,0.1-1.5,0.2s-0.9,0.2-1.2,0.4S537.5,129.3,537.3,129.5z
			"/>
	</g>
	<polyline class="st14" points="504.2,170.4 464.3,170.4 464.3,105.5 495.5,105.5 500.2,109.4 507,97.2 515.8,109.4 524.2,97.2 
		531.5,109.4 539.1,97.2 544,105.5 574.6,105.5 574.6,170.4 535.5,170.4 	"/>
	<line class="st14" x1="505.7" y1="160.9" x2="505.7" y2="178.8"/>
	<line class="st14" x1="535.7" y1="160.9" x2="535.7" y2="178.8"/>
	<g>
		<path class="st15" d="M524.8,230.8c0-0.2,0-0.4,0-0.7s0-0.6,0-0.9s0.1-0.6,0.2-0.9s0.3-0.5,0.5-0.6l0.4,0.4v4.4l0.4,0.7
			c0,0-0.1,0.1-0.1,0.1s-0.1,0.1-0.2,0.1s-0.1,0.1-0.2,0.1s-0.1,0-0.2,0c-0.2,0-0.3-0.1-0.4-0.2s-0.2-0.3-0.2-0.5s-0.1-0.4-0.1-0.6
			s0-0.4,0-0.7s0-0.4,0-0.5S524.8,230.8,524.8,230.8z M526.8,230.6c0-0.2,0-0.4,0-0.7s0-0.6,0-0.9s0.1-0.6,0.2-0.9s0.3-0.5,0.5-0.6
			l0.4,0.4v4.4l0.4,0.7c0,0-0.1,0.1-0.1,0.1s-0.1,0.1-0.2,0.1s-0.2,0.1-0.2,0.1s-0.1,0-0.2,0c-0.2,0-0.3-0.1-0.4-0.2
			s-0.2-0.3-0.2-0.5s-0.1-0.4-0.1-0.6s0-0.4,0-0.6s0-0.4,0-0.5S526.8,230.6,526.8,230.6z"/>
		<path class="st15" d="M529.7,243.9c-0.1-0.2-0.1-0.5-0.2-1s-0.1-1.1-0.1-1.8s0-1.5,0-2.3s0-1.7,0-2.5s0-1.7,0.1-2.5s0-1.5,0.1-2.1
			s0-1.1,0-1.5s0-0.6,0-0.6c0.2-0.1,0.3-0.2,0.5-0.3s0.3-0.1,0.5-0.1c0.1,0,0.2,0,0.3,0.1s0.2,0.1,0.2,0.3l0.1,14.2
			c0,0.2-0.1,0.3-0.2,0.3s-0.2,0.1-0.3,0.1c-0.2,0-0.3,0-0.5-0.1S529.9,244,529.7,243.9z"/>
		<path class="st15" d="M540.6,236.5c-0.1-0.2-0.1-0.3-0.1-0.5s0.1-0.3,0.2-0.4s0.2-0.2,0.4-0.2h3.3l-0.1-5.5c0-0.1,0.1-0.3,0.3-0.4
			s0.3-0.1,0.5-0.2s0.4,0,0.5,0.1s0.3,0.2,0.4,0.4l0.2,5.5l3.1-0.1c0.2,0.1,0.4,0.3,0.4,0.4s0.1,0.3,0.1,0.5s-0.1,0.3-0.1,0.4
			s-0.2,0.2-0.3,0.2l-3.3,0.1c0,0.7,0,1.4,0,2s0.1,1.1,0.1,1.7s0.1,1.1,0.1,1.7s0,1.2,0,1.9c-0.3,0.2-0.7,0.3-1,0.3
			s-0.6-0.2-0.7-0.4l-0.2-7.1h-3.4C540.9,236.7,540.7,236.6,540.6,236.5z"/>
		<path class="st15" d="M559,243.8c0-0.4,0-0.8,0-1.3s0-1-0.1-1.6s-0.1-1.1-0.2-1.6s-0.2-1-0.3-1.5s-0.3-0.8-0.5-1.1
			s-0.5-0.5-0.7-0.6c-0.7-0.1-1.3-0.1-1.9,0s-1.1,0.5-1.5,1.1s-0.8,1.4-1,2.5s-0.3,2.5-0.3,4.3c-0.1,0.1-0.3,0.1-0.4,0.2
			s-0.3,0.1-0.5,0.1s-0.3,0-0.5,0s-0.3-0.1-0.5-0.2c0-1.5,0.1-3,0-4.4s-0.1-2.7-0.1-3.8s0-2.3,0-3.3s0.1-1.9,0.2-2.7
			c0.1-0.2,0.3-0.4,0.5-0.5s0.4-0.2,0.6-0.2s0.4,0.1,0.5,0.2s0.2,0.3,0.2,0.4c0,0.1,0,0.3-0.1,0.6s0,0.7-0.1,1.1s0,0.8-0.1,1.3
			s0,0.9,0,1.4s0,0.9,0,1.3s0.1,0.8,0.1,1.1c0.3-0.3,0.6-0.6,0.9-0.9s0.7-0.6,1.1-0.8s0.9-0.4,1.4-0.5s1.2-0.1,1.9,0.1
			c0.5,0.1,0.9,0.4,1.3,0.8s0.6,0.9,0.9,1.4s0.4,1.2,0.5,1.8s0.2,1.3,0.3,2s0.1,1.3,0.1,1.9s0,1.1,0.1,1.6c-0.1,0.1-0.2,0.2-0.4,0.3
			s-0.4,0.1-0.6,0.1s-0.4,0-0.6-0.1S559,244.1,559,243.8z"/>
		<path class="st15" d="M561.5,231c0-0.3,0.1-0.5,0.2-0.6s0.3-0.2,0.5-0.2s0.4,0,0.6,0.1s0.4,0.1,0.5,0.2c0.1,0.4,0.1,0.7-0.1,0.8
			s-0.3,0.3-0.6,0.3s-0.5,0-0.7-0.1S561.6,231.2,561.5,231z M563.5,234c0.1,1.4,0.2,3,0.3,4.6s0.2,3.3,0.2,4.9
			c-0.1,0.2-0.2,0.4-0.4,0.5s-0.4,0.2-0.6,0.2s-0.4,0-0.6-0.1s-0.3-0.2-0.3-0.3V234H563.5z"/>
		<path class="st15" d="M566,244.3c-0.1,0-0.3,0.1-0.4,0.1s-0.3,0-0.5-0.1s-0.3-0.1-0.4-0.2l0-10c0.4-0.3,0.8-0.4,1-0.3
			s0.4,0.2,0.5,0.4s0.2,0.5,0.2,0.9s0.1,0.7,0.1,1c1.2-0.9,2.3-1.5,3.1-1.9s1.6-0.6,2.2-0.6s1.1,0.2,1.5,0.5s0.7,0.8,0.9,1.3
			s0.4,1.2,0.4,1.9s0.1,1.5,0.2,2.3s0,1.6,0,2.3s0,1.5,0.1,2.2c-0.2,0.1-0.3,0.2-0.6,0.2s-0.5,0-0.7,0s-0.4-0.1-0.5-0.1
			s-0.1-0.1,0-0.1c0-0.3-0.1-0.7-0.1-1.2s0-1,0-1.5s0-1.1,0-1.7s0-1.1,0-1.6s0-1-0.1-1.4s-0.1-0.8-0.2-1c-0.1-0.2-0.3-0.4-0.5-0.5
			s-0.6-0.1-0.9-0.1s-0.8,0.1-1.2,0.2s-0.9,0.3-1.3,0.5s-0.9,0.5-1.3,0.8s-0.8,0.6-1.1,1l-0.1,6.4
			C566.2,244.2,566.1,244.2,566,244.3z"/>
		<path class="st15" d="M575.8,244.3c0-1.8,0-3.3,0-4.6s0-2.4-0.1-3.3s0-1.7-0.1-2.4s0-1.2-0.1-1.7s0-0.9-0.1-1.3s0-0.8,0-1.2
			c0.1-0.3,0.2-0.4,0.4-0.5s0.3-0.1,0.5-0.1s0.3,0,0.4,0.1s0.2,0.1,0.2,0.2l0.4,7.8c0.2-0.1,0.5-0.3,0.8-0.5s0.7-0.5,1.1-0.8
			s0.8-0.6,1.2-0.9s0.8-0.6,1.2-0.8s0.7-0.5,1-0.6s0.5-0.2,0.7-0.2c0.1,0,0.2,0,0.3,0s0.2,0.1,0.2,0.2s0.1,0.2,0.1,0.3s0,0.2,0,0.4
			l-6.1,4.5l8,4.3c0,0.4-0.1,0.6-0.2,0.8s-0.4,0.3-0.9,0.3c-0.5-0.2-1.1-0.4-1.6-0.8s-1.1-0.7-1.7-1.1s-1.2-0.8-1.9-1.2
			s-1.4-0.7-2.1-0.9c0,0.2,0,0.4,0,0.7s0,0.6,0.1,1s0,0.7,0,1s-0.1,0.6-0.2,0.9s-0.3,0.4-0.6,0.5S576.2,244.4,575.8,244.3z"/>
		<path class="st15" d="M587.8,242.5c0.1-0.2,0.2-0.3,0.3-0.3s0.2,0,0.4,0c0.1,0,0.2,0,0.3,0s0.2,0.1,0.3,0.1s0.1,0.1,0.2,0.2
			s0,0.2,0,0.3c-0.1,0.2-0.2,0.4-0.3,0.6s-0.3,0.5-0.4,0.7s-0.3,0.5-0.4,0.7s-0.3,0.4-0.4,0.6c0,0.1-0.1,0.1-0.2,0.2
			s-0.2,0.2-0.4,0.3s-0.3,0.2-0.4,0.2s-0.3,0-0.4,0L587.8,242.5z"/>
		<path class="st15" d="M599.1,236.5c-0.1-0.2-0.1-0.3-0.1-0.5s0.1-0.3,0.2-0.4s0.2-0.2,0.4-0.2h3.3l-0.1-5.5c0-0.1,0.1-0.3,0.3-0.4
			s0.3-0.1,0.5-0.2s0.4,0,0.5,0.1s0.3,0.2,0.4,0.4l0.2,5.5l3.1-0.1c0.2,0.1,0.4,0.3,0.4,0.4s0.1,0.3,0.1,0.5s-0.1,0.3-0.1,0.4
			s-0.2,0.2-0.3,0.2l-3.3,0.1c0,0.7,0,1.4,0,2s0.1,1.1,0.1,1.7s0.1,1.1,0.1,1.7s0,1.2,0,1.9c-0.3,0.2-0.7,0.3-1,0.3
			s-0.6-0.2-0.7-0.4l-0.2-7.1h-3.4C599.4,236.7,599.2,236.6,599.1,236.5z"/>
		<path class="st15" d="M617.4,243.8c0-0.4,0-0.8,0-1.3s0-1-0.1-1.6s-0.1-1.1-0.2-1.6s-0.2-1-0.3-1.5s-0.3-0.8-0.5-1.1
			s-0.5-0.5-0.7-0.6c-0.7-0.1-1.3-0.1-1.9,0s-1.1,0.5-1.5,1.1s-0.8,1.4-1,2.5s-0.3,2.5-0.3,4.3c-0.1,0.1-0.3,0.1-0.4,0.2
			s-0.3,0.1-0.5,0.1s-0.3,0-0.5,0s-0.3-0.1-0.5-0.2c0-1.5,0.1-3,0-4.4s-0.1-2.7-0.1-3.8s0-2.3,0-3.3s0.1-1.9,0.2-2.7
			c0.1-0.2,0.3-0.4,0.5-0.5s0.4-0.2,0.6-0.2s0.4,0.1,0.5,0.2s0.2,0.3,0.2,0.4c0,0.1,0,0.3-0.1,0.6s0,0.7-0.1,1.1s0,0.8-0.1,1.3
			s0,0.9,0,1.4s0,0.9,0,1.3s0.1,0.8,0.1,1.1c0.3-0.3,0.6-0.6,0.9-0.9s0.7-0.6,1.1-0.8s0.9-0.4,1.4-0.5s1.2-0.1,1.9,0.1
			c0.5,0.1,0.9,0.4,1.3,0.8s0.6,0.9,0.9,1.4s0.4,1.2,0.5,1.8s0.2,1.3,0.3,2s0.1,1.3,0.1,1.9s0,1.1,0.1,1.6c-0.1,0.1-0.2,0.2-0.4,0.3
			s-0.4,0.1-0.6,0.1s-0.4,0-0.6-0.1S617.4,244.1,617.4,243.8z"/>
		<path class="st15" d="M619.9,241.4c-0.1-0.9,0-1.9,0.2-2.8s0.7-1.8,1.3-2.5s1.3-1.3,2.1-1.8s1.7-0.7,2.7-0.6
			c0.4,0,0.9,0.1,1.4,0.3s1,0.4,1.4,0.8s0.8,0.7,1,1.2s0.3,0.9,0.3,1.4c0,0.2-0.1,0.4-0.4,0.6s-0.6,0.3-1,0.4s-0.9,0.2-1.5,0.2
			s-1.2,0.1-1.8,0.1s-1.3,0-1.9,0.1s-1.3,0-1.8,0.1c-0.3,0.9-0.4,1.6-0.3,2.2s0.4,1,0.9,1.3s1,0.5,1.6,0.5s1.3,0,2-0.1
			s1.4-0.4,2.1-0.7s1.3-0.7,1.8-1.1c0.1,0,0.2,0,0.3,0.1s0.2,0.1,0.3,0.2s0.2,0.2,0.3,0.2s0.1,0.2,0.1,0.2c-0.3,0.5-0.7,1-1.3,1.4
			s-1.3,0.7-2,1s-1.5,0.4-2.3,0.5s-1.6,0-2.3-0.2s-1.3-0.5-1.9-0.9S620.1,242.2,619.9,241.4z M628.3,236.7c-0.1-0.4-0.2-0.8-0.5-1
			s-0.6-0.4-1-0.4s-0.8-0.1-1.3,0s-0.9,0.2-1.2,0.4s-0.7,0.4-0.9,0.6s-0.4,0.4-0.4,0.7L628.3,236.7z"/>
		<path class="st15" d="M631.6,233.8c0-0.2,0.1-0.4,0.3-0.4s0.3-0.1,0.5,0c0.3,0,0.5,0.2,0.7,0.5s0.3,0.6,0.3,0.9s0.1,0.7,0.1,1
			s0,0.6,0,0.7c0.3-0.3,0.7-0.6,1.1-1s0.9-0.7,1.5-1s1.3-0.5,2.1-0.7s1.8-0.2,2.9,0c0.3,0.1,0.5,0.2,0.6,0.4s0.2,0.4,0.2,0.6
			s-0.1,0.4-0.2,0.6s-0.3,0.3-0.5,0.3c-0.3-0.2-0.7-0.3-1.1-0.4s-1,0-1.5,0.1s-1.1,0.3-1.7,0.6s-1.1,0.6-1.6,1s-0.9,0.8-1.2,1.3
			s-0.6,1.1-0.6,1.7v3.8c0,0.1-0.1,0.1-0.3,0.3s-0.3,0.2-0.6,0.2s-0.4,0-0.6,0s-0.4-0.2-0.5-0.5c0-0.1,0-0.3,0-0.8s0-1,0-1.6
			s0-1.3,0-2.1s0-1.5,0-2.2s0-1.4,0-2S631.6,234.2,631.6,233.8z"/>
		<path class="st15" d="M641.6,241.4c-0.1-0.9,0-1.9,0.2-2.8s0.7-1.8,1.3-2.5s1.3-1.3,2.1-1.8s1.7-0.7,2.7-0.6
			c0.4,0,0.9,0.1,1.4,0.3s1,0.4,1.4,0.8s0.8,0.7,1,1.2s0.3,0.9,0.3,1.4c0,0.2-0.1,0.4-0.4,0.6s-0.6,0.3-1,0.4s-0.9,0.2-1.5,0.2
			s-1.2,0.1-1.8,0.1s-1.3,0-1.9,0.1s-1.3,0-1.8,0.1c-0.3,0.9-0.4,1.6-0.3,2.2s0.4,1,0.9,1.3s1,0.5,1.6,0.5s1.3,0,2-0.1
			s1.4-0.4,2.1-0.7s1.3-0.7,1.8-1.1c0.1,0,0.2,0,0.3,0.1s0.2,0.1,0.3,0.2s0.2,0.2,0.3,0.2s0.1,0.2,0.1,0.2c-0.3,0.5-0.7,1-1.3,1.4
			s-1.3,0.7-2,1s-1.5,0.4-2.3,0.5s-1.6,0-2.3-0.2s-1.3-0.5-1.9-0.9S641.8,242.2,641.6,241.4z M650,236.7c-0.1-0.4-0.2-0.8-0.5-1
			s-0.6-0.4-1-0.4s-0.8-0.1-1.3,0s-0.9,0.2-1.2,0.4s-0.7,0.4-0.9,0.6s-0.4,0.4-0.4,0.7L650,236.7z"/>
		<path class="st15" d="M653.6,239.9c-0.1,0-0.2,0-0.3-0.1s-0.2-0.2-0.3-0.3s-0.1-0.3-0.2-0.4s-0.1-0.3-0.1-0.5l3.6-0.5
			c-0.2-1.4-0.3-2.5-0.3-3.5s0-1.8,0.2-2.5s0.3-1.2,0.6-1.6s0.5-0.7,0.8-0.9s0.6-0.3,1-0.4s0.7-0.1,1-0.1c0.4,0,0.8,0,1.2,0.1
			s0.8,0.2,1.2,0.4s0.8,0.4,1.2,0.7s0.7,0.5,1,0.8s0.5,0.6,0.7,0.9s0.2,0.6,0.2,0.9c0,0,0,0.1-0.1,0.2s-0.1,0.1-0.2,0.2
			s-0.1,0.1-0.2,0.2s-0.1,0.1-0.1,0.1c-0.3-0.3-0.6-0.7-0.9-1.1s-0.8-0.8-1.2-1.1s-0.9-0.6-1.4-0.8s-1-0.3-1.4-0.3
			c-0.4,0.1-0.8,0.3-1.1,0.7s-0.5,0.7-0.6,1.2s-0.2,0.9-0.3,1.5s0,1,0,1.5s0.1,1,0.2,1.4s0.2,0.8,0.4,1.1c0.6,0,1.2,0,1.8-0.1
			s1.1-0.1,1.6-0.2s1.1-0.1,1.7-0.2s1.2-0.1,1.9-0.1c0,0,0.1,0,0.1,0.1s0,0.2,0,0.3s0,0.3,0,0.5s0,0.3,0,0.5l-6.7,0.8l0.4,4.9
			l-1.8-0.1c0-0.8,0-1.5-0.1-2.3s-0.2-1.5-0.3-2.3L653.6,239.9z"/>
		<path class="st15" d="M666.2,240.1c0-1,0.2-1.8,0.5-2.6s0.8-1.5,1.3-2s1.2-1,1.8-1.3s1.4-0.5,2.1-0.6c0.8-0.1,1.5,0,2.2,0.2
			s1.3,0.6,1.8,1.1s0.9,1.1,1.2,1.8s0.4,1.4,0.4,2.3c-0.1,1-0.4,1.8-0.8,2.5s-0.9,1.2-1.5,1.7s-1.3,0.8-2.1,1s-1.7,0.3-2.6,0.3
			c-1.4,0-2.4-0.3-3.1-1S666.2,241.6,666.2,240.1z M667.7,240.6c0,0.7,0.3,1.2,0.7,1.6s0.9,0.6,1.5,0.6s1.3,0,2-0.2s1.3-0.5,1.9-0.8
			s1.1-0.8,1.5-1.4s0.6-1.1,0.7-1.8c0-0.3,0-0.7-0.1-1.1s-0.3-0.8-0.5-1.2s-0.6-0.7-1-1s-1-0.5-1.7-0.6c-0.2,0-0.5,0.1-0.9,0.1
			s-0.7,0.2-1.1,0.4s-0.8,0.4-1.1,0.7s-0.7,0.7-1,1.1s-0.5,0.9-0.7,1.5S667.7,239.9,667.7,240.6z"/>
		<path class="st15" d="M678.2,233.8c0-0.2,0.1-0.4,0.3-0.4s0.3-0.1,0.5,0c0.3,0,0.5,0.2,0.7,0.5s0.3,0.6,0.3,0.9s0.1,0.7,0.1,1
			s0,0.6,0,0.7c0.3-0.3,0.7-0.6,1.1-1s0.9-0.7,1.5-1s1.3-0.5,2.1-0.7s1.8-0.2,2.9,0c0.3,0.1,0.5,0.2,0.6,0.4s0.2,0.4,0.2,0.6
			s-0.1,0.4-0.2,0.6s-0.3,0.3-0.5,0.3c-0.3-0.2-0.7-0.3-1.1-0.4s-1,0-1.5,0.1s-1.1,0.3-1.7,0.6s-1.1,0.6-1.6,1s-0.9,0.8-1.2,1.3
			s-0.6,1.1-0.6,1.7v3.8c0,0.1-0.1,0.1-0.3,0.3s-0.3,0.2-0.6,0.2s-0.4,0-0.6,0s-0.4-0.2-0.5-0.5c0-0.1,0-0.3,0-0.8s0-1,0-1.6
			s0-1.3,0-2.1s0-1.5,0-2.2s0-1.4,0-2S678.2,234.2,678.2,233.8z"/>
		<path class="st15" d="M688.2,241.4c-0.1-0.9,0-1.9,0.2-2.8s0.7-1.8,1.3-2.5s1.3-1.3,2.1-1.8s1.7-0.7,2.7-0.6
			c0.4,0,0.9,0.1,1.4,0.3s1,0.4,1.4,0.8s0.8,0.7,1,1.2s0.3,0.9,0.3,1.4c0,0.2-0.1,0.4-0.4,0.6s-0.6,0.3-1,0.4s-0.9,0.2-1.5,0.2
			s-1.2,0.1-1.8,0.1s-1.3,0-1.9,0.1s-1.3,0-1.8,0.1c-0.3,0.9-0.4,1.6-0.3,2.2s0.4,1,0.9,1.3s1,0.5,1.6,0.5s1.3,0,2-0.1
			s1.4-0.4,2.1-0.7s1.3-0.7,1.8-1.1c0.1,0,0.2,0,0.3,0.1s0.2,0.1,0.3,0.2s0.2,0.2,0.3,0.2s0.1,0.2,0.1,0.2c-0.3,0.5-0.7,1-1.3,1.4
			s-1.3,0.7-2,1s-1.5,0.4-2.3,0.5s-1.6,0-2.3-0.2s-1.3-0.5-1.9-0.9S688.4,242.2,688.2,241.4z M696.6,236.7c-0.1-0.4-0.2-0.8-0.5-1
			s-0.6-0.4-1-0.4s-0.8-0.1-1.3,0s-0.9,0.2-1.2,0.4s-0.7,0.4-0.9,0.6s-0.4,0.4-0.4,0.7L696.6,236.7z"/>
		<path class="st15" d="M709.2,243.9c-0.1-0.2-0.1-0.5-0.2-1s-0.1-1.1-0.1-1.8s0-1.5,0-2.3s0-1.7,0-2.5s0-1.7,0.1-2.5s0-1.5,0.1-2.1
			s0-1.1,0-1.5s0-0.6,0-0.6c0.2-0.1,0.3-0.2,0.5-0.3s0.3-0.1,0.5-0.1c0.1,0,0.2,0,0.3,0.1s0.2,0.1,0.2,0.3l0.1,14.2
			c0,0.2-0.1,0.3-0.2,0.3s-0.2,0.1-0.3,0.1c-0.2,0-0.3,0-0.5-0.1S709.4,244,709.2,243.9z"/>
		<path class="st15" d="M729.4,240.6c-0.3,0.5-0.7,1-1.2,1.4s-0.9,0.8-1.5,1.1s-1.1,0.5-1.7,0.7s-1.3,0.2-2,0.1
			c-0.2,0-0.5,0-0.8-0.1s-0.5-0.2-0.8-0.3s-0.4-0.3-0.6-0.5s-0.2-0.5-0.2-0.8c-0.1-0.7-0.1-1.3,0.1-2s0.5-1.4,0.9-2.1
			s0.9-1.3,1.5-1.9s1.2-1.1,1.9-1.5s1.3-0.7,2-0.9s1.3-0.2,2-0.1c0.5,0,0.9,0.2,1.1,0.5s0.5,0.7,0.6,1.3s0.2,1.1,0.2,1.8
			s0,1.4,0.1,2.2s0,1.5,0,2.3s0.1,1.5,0.2,2.1c0,0-0.1,0.1-0.2,0.2s-0.2,0.2-0.4,0.3s-0.3,0.1-0.5,0s-0.4-0.2-0.6-0.5
			c-0.1-0.1-0.1-0.3-0.1-0.6s0-0.6,0-1s0-0.7,0-1S729.4,240.8,729.4,240.6z M728.3,235.3c-0.5,0-0.9,0-1.4,0.2s-1,0.4-1.4,0.7
			s-0.9,0.7-1.3,1.1s-0.8,0.9-1.1,1.3s-0.5,0.9-0.7,1.4s-0.2,0.9-0.2,1.3s0.1,0.7,0.4,1s0.6,0.4,1.1,0.5c0.7,0,1.3-0.2,2-0.5
			s1.2-0.8,1.7-1.3s0.9-1.1,1.3-1.8s0.6-1.2,0.7-1.8s0.1-1,0-1.4S728.8,235.3,728.3,235.3z"/>
		<path class="st15" d="M732.2,243.9c0-0.3,0-0.7,0-1.2s0-1,0.1-1.6s0-1.2,0.1-1.8s0-1.3,0-1.9s0-1.2,0-1.8s-0.1-1.1-0.1-1.6
			c0-0.1,0-0.2,0.1-0.3s0.2-0.1,0.3-0.2s0.3-0.1,0.4-0.1s0.3,0,0.4,0c0.1,0,0.2,0.1,0.2,0.3s0,0.5,0,0.8s0,0.6,0,0.9s0,0.5,0,0.6
			c0.2-0.4,0.5-0.7,0.8-1s0.8-0.6,1.3-0.8s1-0.4,1.5-0.5s1-0.1,1.5,0s0.9,0.3,1.2,0.7s0.6,0.8,0.7,1.5c0.4-0.4,0.8-0.7,1.3-1
			s1-0.6,1.5-0.8s1.1-0.4,1.6-0.5s1-0.1,1.5,0s0.9,0.3,1.2,0.6s0.6,0.8,0.7,1.4l0.3,8.4c0,0-0.1,0.1-0.3,0.1s-0.4,0.1-0.6,0.1
			s-0.5,0-0.7,0s-0.3-0.1-0.3-0.2c0-0.4,0-0.9,0-1.5s0-1.2,0.1-1.8s0-1.2,0-1.8s0-1.2,0-1.7s-0.1-0.9-0.1-1.3s-0.2-0.6-0.3-0.7
			c-0.4-0.1-0.8-0.2-1.3-0.2s-0.9,0.1-1.3,0.3s-0.8,0.5-1.2,0.9s-0.7,0.9-1,1.6s-0.5,1.5-0.7,2.5s-0.2,2.1-0.2,3.5
			c-0.1,0.2-0.2,0.3-0.4,0.4s-0.4,0.1-0.7,0.1s-0.4-0.1-0.6-0.2s-0.2-0.2-0.2-0.3c0.1-0.6,0.2-1.2,0.3-1.9s0.1-1.3,0.1-1.9
			s0-1.2-0.1-1.8s-0.1-1.1-0.2-1.5s-0.2-0.8-0.3-1.1s-0.3-0.4-0.4-0.5c-0.7-0.1-1.3,0-1.7,0.3s-0.9,0.6-1.2,1s-0.6,1-0.8,1.6
			s-0.4,1.2-0.5,1.9s-0.2,1.3-0.2,2s0,1.3,0,2c-0.2,0.1-0.4,0.1-0.6,0.2s-0.5,0.1-0.7,0.1c-0.1,0-0.2,0-0.3-0.1
			S732.3,244.1,732.2,243.9z"/>
		<path class="st15" d="M750.3,230.8c0-0.2,0-0.4,0-0.7s0-0.6,0-0.9s0.1-0.6,0.2-0.9s0.3-0.5,0.5-0.6l0.4,0.4v4.4l0.4,0.7
			c0,0-0.1,0.1-0.1,0.1s-0.1,0.1-0.2,0.1s-0.1,0.1-0.2,0.1s-0.1,0-0.2,0c-0.2,0-0.3-0.1-0.4-0.2s-0.2-0.3-0.2-0.5s-0.1-0.4-0.1-0.6
			s0-0.4,0-0.7s0-0.4,0-0.5S750.3,230.8,750.3,230.8z M752.4,230.6c0-0.2,0-0.4,0-0.7s0-0.6,0-0.9s0.1-0.6,0.2-0.9s0.3-0.5,0.5-0.6
			l0.4,0.4v4.4l0.4,0.7c0,0-0.1,0.1-0.1,0.1s-0.1,0.1-0.2,0.1s-0.2,0.1-0.2,0.1s-0.1,0-0.2,0c-0.2,0-0.3-0.1-0.4-0.2
			s-0.2-0.3-0.2-0.5s-0.1-0.4-0.1-0.6s0-0.4,0-0.6s0-0.4,0-0.5S752.4,230.6,752.4,230.6z"/>
		<path class="st15" d="M524.2,260.6c0-0.2,0.1-0.3,0.3-0.4s0.3-0.1,0.5-0.1c0.7-0.1,1.3-0.2,2-0.3s1.3-0.2,2-0.3
			c0.3,0,0.5,0,0.7,0.1s0.3,0.2,0.4,0.4s0.1,0.3,0,0.4s-0.3,0.3-0.5,0.3l-4.2,0.4c-0.1,0-0.2,0-0.3,0s-0.2,0-0.4-0.1
			s-0.2-0.1-0.3-0.2S524.2,260.7,524.2,260.6z"/>
		<path class="st15" d="M540.2,250.8c0,0,0.1,0,0.3,0s0.3,0,0.5,0s0.3,0.1,0.4,0.1s0.2,0.2,0.3,0.3c0.4-0.1,1-0.2,1.8-0.3
			s1.6,0,2.5,0s1.8,0.2,2.7,0.5s1.7,0.6,2.5,1s1.4,1,1.8,1.7s0.7,1.5,0.7,2.4c0,0.7-0.1,1.4-0.4,2s-0.7,1.3-1.2,1.9
			s-1.1,1.1-1.7,1.7s-1.4,1-2.1,1.4s-1.5,0.8-2.2,1.1s-1.5,0.6-2.2,0.7s-1.3,0.3-1.9,0.3s-1,0-1.4-0.2L540.2,250.8z M552.1,256.7
			c-0.1-0.7-0.3-1.3-0.7-1.9s-0.9-1-1.5-1.3s-1.3-0.6-2-0.8s-1.4-0.3-2.2-0.4s-1.4-0.1-2,0s-1.2,0.2-1.6,0.4l0.2,11.5
			c0.5,0,1.1-0.1,1.7-0.3s1.4-0.5,2.1-0.8s1.5-0.8,2.2-1.3s1.4-1,1.9-1.6s1-1.1,1.4-1.8S552.1,257.4,552.1,256.7z"/>
		<path class="st15" d="M553.8,263c-0.1-0.9,0-1.9,0.2-2.8s0.7-1.8,1.3-2.5s1.3-1.3,2.1-1.8c0.8-0.5,1.7-0.7,2.7-0.6
			c0.4,0,0.9,0.1,1.4,0.3s1,0.4,1.4,0.8c0.4,0.3,0.8,0.7,1,1.2s0.3,0.9,0.3,1.4c0,0.2-0.1,0.4-0.4,0.6s-0.6,0.3-1,0.4
			s-0.9,0.2-1.5,0.2s-1.2,0.1-1.8,0.1s-1.3,0-1.9,0.1s-1.3,0-1.8,0.1c-0.3,0.9-0.4,1.6-0.3,2.2s0.4,1,0.9,1.3s1,0.5,1.6,0.5
			s1.3,0,2-0.1s1.4-0.4,2.1-0.7s1.3-0.7,1.8-1.1c0.1,0,0.2,0,0.3,0.1s0.2,0.1,0.3,0.2s0.2,0.2,0.3,0.2s0.1,0.2,0.1,0.2
			c-0.3,0.5-0.7,1-1.3,1.4s-1.3,0.7-2,1s-1.5,0.4-2.3,0.5s-1.6,0-2.3-0.2s-1.3-0.5-1.9-0.9S554,263.8,553.8,263z M562.2,258.3
			c-0.1-0.4-0.2-0.8-0.5-1s-0.6-0.4-1-0.4s-0.8-0.1-1.3,0s-0.9,0.2-1.2,0.4s-0.7,0.4-0.9,0.6s-0.4,0.4-0.4,0.7L562.2,258.3z"/>
		<path class="st15" d="M566.2,264.6c1.1-0.1,2-0.2,2.9-0.4s1.6-0.5,2.2-0.7s1-0.6,1.3-0.9s0.4-0.6,0.3-0.9
			c-0.1-0.3-0.6-0.5-1.4-0.4s-2.1,0.2-3.7,0.6c-0.5,0-0.9-0.1-1.3-0.3s-0.6-0.4-0.9-0.7s-0.3-0.5-0.4-0.8s0-0.6,0.1-0.8
			c0-0.4,0.1-0.8,0.3-1.1s0.5-0.7,0.9-1s0.8-0.6,1.4-0.8c0.5-0.3,1.1-0.5,1.7-0.6s1.2-0.2,1.8-0.3s1.3,0,1.9,0.1
			c0.3,0.1,0.6,0.3,0.7,0.5c0.2,0.2,0.3,0.4,0.4,0.5s0.1,0.4,0,0.5s-0.2,0.3-0.4,0.4c-0.5-0.2-1-0.4-1.5-0.5s-1.1-0.1-1.6-0.1
			s-1,0.1-1.5,0.2s-0.9,0.3-1.3,0.6s-0.7,0.5-0.9,0.9s-0.4,0.8-0.4,1.2c0,0.2,0.1,0.4,0.3,0.5s0.4,0.1,0.7,0.1s0.5,0,0.8-0.1
			s0.5-0.1,0.7-0.1c1.2-0.2,2.1-0.2,2.9-0.1s1.3,0.2,1.7,0.5s0.6,0.5,0.7,0.9s0,0.7-0.2,1.1s-0.5,0.8-1,1.2s-1,0.8-1.7,1.1
			s-1.4,0.6-2.2,0.9s-1.7,0.4-2.6,0.4c-0.2,0.1-0.4,0.1-0.6,0s-0.3-0.2-0.3-0.4s-0.1-0.4-0.1-0.6S566.1,264.7,566.2,264.6z"/>
		<path class="st15" d="M575.5,262.4c-0.1-0.6,0.1-1.3,0.4-2s0.8-1.4,1.4-2.1s1.3-1.3,2-1.8c0.8-0.5,1.5-0.9,2.3-1.2
			s1.6-0.3,2.3-0.1s1.4,0.6,1.9,1.3c0,0.2,0,0.3-0.1,0.4s-0.2,0.2-0.3,0.3s-0.2,0.2-0.4,0.3s-0.2,0.2-0.4,0.2
			c-0.2-0.4-0.5-0.7-0.8-0.9s-0.7-0.2-1.1-0.2s-0.8,0.1-1.3,0.3s-0.9,0.4-1.3,0.7s-0.8,0.6-1.2,1s-0.7,0.8-1,1.1s-0.5,0.8-0.7,1.2
			s-0.2,0.7-0.2,1c0,0.5,0.1,0.9,0.3,1.2s0.5,0.6,0.8,0.7s0.7,0.3,1.1,0.4s0.8,0.1,1.3,0.1c0.9,0,1.7-0.1,2.4-0.3s1.3-0.4,1.8-0.6
			s0.9-0.4,1.3-0.6s0.6-0.2,0.7-0.2c0.1,0,0.2,0,0.3,0s0.2,0,0.3,0.1s0.1,0.1,0.2,0.2s0,0.2,0,0.4c0,0.2-0.2,0.4-0.5,0.6
			s-0.6,0.4-1,0.6s-0.9,0.3-1.4,0.5s-1,0.3-1.5,0.4s-1,0.2-1.5,0.2s-0.8,0.1-1.2,0c-0.5,0-1.1-0.1-1.7-0.2s-1.2-0.3-1.7-0.6
			s-0.9-0.6-1.3-1.1S575.5,263.1,575.5,262.4z"/>
		<path class="st15" d="M597.4,262.2c-0.3,0.5-0.7,1-1.2,1.4s-0.9,0.8-1.5,1.1s-1.1,0.5-1.7,0.7s-1.3,0.2-2,0.1
			c-0.2,0-0.5,0-0.8-0.1s-0.5-0.2-0.8-0.3s-0.4-0.3-0.6-0.5s-0.2-0.5-0.2-0.8c-0.1-0.7-0.1-1.3,0.1-2s0.5-1.4,0.9-2.1
			s0.9-1.3,1.5-1.9s1.2-1.1,1.9-1.5c0.7-0.4,1.3-0.7,2-0.9s1.3-0.2,2-0.1c0.5,0,0.9,0.2,1.1,0.5c0.3,0.3,0.5,0.7,0.6,1.3
			s0.2,1.1,0.2,1.8s0,1.4,0.1,2.2s0,1.5,0,2.3s0.1,1.5,0.2,2.1c0,0-0.1,0.1-0.2,0.2s-0.2,0.2-0.4,0.3s-0.3,0.1-0.5,0
			s-0.4-0.2-0.6-0.5c-0.1-0.1-0.1-0.3-0.1-0.6s0-0.6,0-1s0-0.7,0-1S597.4,262.4,597.4,262.2z M596.3,256.9c-0.5,0-0.9,0-1.4,0.2
			s-1,0.4-1.4,0.7s-0.9,0.7-1.3,1.1s-0.8,0.9-1.1,1.3s-0.5,0.9-0.7,1.4s-0.2,0.9-0.2,1.3s0.1,0.7,0.4,1s0.6,0.4,1.1,0.5
			c0.7,0,1.3-0.2,2-0.5s1.2-0.8,1.7-1.3s0.9-1.1,1.3-1.8s0.6-1.2,0.7-1.8s0.1-1,0-1.4S596.7,256.9,596.3,256.9z"/>
		<path class="st15" d="M600.1,255.4c0-0.2,0.1-0.4,0.3-0.4s0.3-0.1,0.5,0c0.3,0,0.5,0.2,0.7,0.5s0.3,0.6,0.3,0.9s0.1,0.7,0.1,1
			s0,0.6,0,0.7c0.3-0.3,0.7-0.6,1.1-1s0.9-0.7,1.5-1c0.6-0.3,1.3-0.5,2.1-0.7s1.8-0.2,2.9,0c0.3,0.1,0.5,0.2,0.6,0.4
			s0.2,0.4,0.2,0.6s-0.1,0.4-0.2,0.6s-0.3,0.3-0.5,0.3c-0.3-0.2-0.7-0.3-1.1-0.4s-1,0-1.5,0.1s-1.1,0.3-1.7,0.6s-1.1,0.6-1.6,1
			s-0.9,0.8-1.2,1.3s-0.6,1.1-0.6,1.7v3.8c0,0.1-0.1,0.1-0.3,0.3s-0.3,0.2-0.6,0.2s-0.4,0-0.6,0s-0.4-0.2-0.5-0.5c0-0.1,0-0.3,0-0.8
			s0-1,0-1.6s0-1.3,0-2.1s0-1.5,0-2.2s0-1.4,0-2S600.1,255.8,600.1,255.4z"/>
		<path class="st15" d="M610.7,258.1c-0.1-0.2-0.1-0.3-0.1-0.5s0.1-0.3,0.2-0.4s0.2-0.2,0.4-0.2h3.3l-0.1-5.5c0-0.1,0.1-0.3,0.3-0.4
			s0.3-0.1,0.5-0.2s0.4,0,0.5,0.1s0.3,0.2,0.4,0.4l0.2,5.5l3.1-0.1c0.2,0.1,0.4,0.3,0.4,0.4s0.1,0.3,0.1,0.5s-0.1,0.3-0.1,0.4
			s-0.2,0.2-0.3,0.2l-3.3,0.1c0,0.7,0,1.4,0,2s0.1,1.1,0.1,1.7s0.1,1.1,0.1,1.7s0,1.2,0,1.9c-0.3,0.2-0.7,0.3-1,0.3
			s-0.6-0.2-0.7-0.4l-0.2-7.1h-3.4C611,258.3,610.8,258.2,610.7,258.1z"/>
		<path class="st15" d="M620.4,263c-0.1-0.9,0-1.9,0.2-2.8s0.7-1.8,1.3-2.5s1.3-1.3,2.1-1.8c0.8-0.5,1.7-0.7,2.7-0.6
			c0.4,0,0.9,0.1,1.4,0.3s1,0.4,1.4,0.8c0.4,0.3,0.8,0.7,1,1.2s0.3,0.9,0.3,1.4c0,0.2-0.1,0.4-0.4,0.6s-0.6,0.3-1,0.4
			s-0.9,0.2-1.5,0.2s-1.2,0.1-1.8,0.1s-1.3,0-1.9,0.1s-1.3,0-1.8,0.1c-0.3,0.9-0.4,1.6-0.3,2.2s0.4,1,0.9,1.3s1,0.5,1.6,0.5
			s1.3,0,2-0.1s1.4-0.4,2.1-0.7s1.3-0.7,1.8-1.1c0.1,0,0.2,0,0.3,0.1s0.2,0.1,0.3,0.2s0.2,0.2,0.3,0.2s0.1,0.2,0.1,0.2
			c-0.3,0.5-0.7,1-1.3,1.4s-1.3,0.7-2,1s-1.5,0.4-2.3,0.5s-1.6,0-2.3-0.2s-1.3-0.5-1.9-0.9S620.6,263.8,620.4,263z M628.8,258.3
			c-0.1-0.4-0.2-0.8-0.5-1s-0.6-0.4-1-0.4s-0.8-0.1-1.3,0s-0.9,0.2-1.2,0.4s-0.7,0.4-0.9,0.6s-0.4,0.4-0.4,0.7L628.8,258.3z"/>
		<path class="st15" d="M632.8,264.6c1.1-0.1,2-0.2,2.9-0.4s1.6-0.5,2.2-0.7s1-0.6,1.3-0.9s0.4-0.6,0.3-0.9
			c-0.1-0.3-0.6-0.5-1.4-0.4s-2.1,0.2-3.7,0.6c-0.5,0-0.9-0.1-1.3-0.3s-0.6-0.4-0.9-0.7s-0.3-0.5-0.4-0.8s0-0.6,0.1-0.8
			c0-0.4,0.1-0.8,0.3-1.1s0.5-0.7,0.9-1s0.8-0.6,1.4-0.8c0.5-0.3,1.1-0.5,1.7-0.6s1.2-0.2,1.8-0.3s1.3,0,1.9,0.1
			c0.3,0.1,0.6,0.3,0.7,0.5c0.2,0.2,0.3,0.4,0.4,0.5s0.1,0.4,0,0.5s-0.2,0.3-0.4,0.4c-0.5-0.2-1-0.4-1.5-0.5s-1.1-0.1-1.6-0.1
			s-1,0.1-1.5,0.2s-0.9,0.3-1.3,0.6s-0.7,0.5-0.9,0.9s-0.4,0.8-0.4,1.2c0,0.2,0.1,0.4,0.3,0.5s0.4,0.1,0.7,0.1s0.5,0,0.8-0.1
			s0.5-0.1,0.7-0.1c1.2-0.2,2.1-0.2,2.9-0.1s1.3,0.2,1.7,0.5s0.6,0.5,0.7,0.9s0,0.7-0.2,1.1s-0.5,0.8-1,1.2s-1,0.8-1.7,1.1
			s-1.4,0.6-2.2,0.9s-1.7,0.4-2.6,0.4c-0.2,0.1-0.4,0.1-0.6,0s-0.3-0.2-0.3-0.4s-0.1-0.4-0.1-0.6S632.7,264.7,632.8,264.6z"/>
	</g>
	<g>
		<path class="st7" d="M546.7,217.5c0-0.1,0-0.2,0-0.3c0-0.1,0.1-0.2,0.2-0.3c0.1-0.1,0.2-0.1,0.3-0.1c0.1,0,0.2,0.1,0.2,0.2
			l2.2,4.3l2.1-4.4c0.1,0,0.2-0.1,0.2,0c0.1,0,0.2,0,0.2,0.1s0.1,0.1,0.2,0.2c0,0.1,0.1,0.2,0.1,0.2c-0.3,0.7-0.6,1.4-0.9,1.9
			c-0.2,0.6-0.5,1-0.6,1.4c-0.2,0.4-0.3,0.7-0.4,1c-0.1,0.3-0.2,0.5-0.3,0.6s-0.2,0.3-0.2,0.3c-0.1,0.1-0.2,0.1-0.3,0.1
			c-0.1,0-0.2-0.1-0.3-0.2c-0.1-0.1-0.3-0.3-0.4-0.6c-0.2-0.3-0.3-0.5-0.5-0.9c-0.2-0.3-0.4-0.7-0.6-1.1c-0.2-0.4-0.4-0.8-0.6-1.2
			C547.1,218.4,546.9,218,546.7,217.5z"/>
		<path class="st7" d="M552.4,221.2c-0.1-0.5,0-1,0.1-1.5c0.1-0.5,0.4-1,0.7-1.4s0.7-0.7,1.1-1c0.4-0.2,0.9-0.4,1.5-0.3
			c0.2,0,0.5,0,0.7,0.1c0.3,0.1,0.5,0.2,0.8,0.4s0.4,0.4,0.6,0.6c0.1,0.2,0.2,0.5,0.1,0.8c0,0.1-0.1,0.2-0.2,0.3
			c-0.1,0.1-0.3,0.2-0.6,0.2c-0.2,0.1-0.5,0.1-0.8,0.1c-0.3,0-0.6,0-1,0.1c-0.3,0-0.7,0-1,0s-0.7,0-1,0.1c-0.2,0.5-0.2,0.9-0.2,1.2
			c0.1,0.3,0.2,0.6,0.5,0.7c0.2,0.2,0.5,0.3,0.9,0.3c0.4,0,0.7,0,1.1-0.1c0.4-0.1,0.8-0.2,1.1-0.4s0.7-0.4,1-0.6c0,0,0.1,0,0.1,0
			s0.1,0.1,0.2,0.1c0.1,0,0.1,0.1,0.1,0.1s0.1,0.1,0.1,0.1c-0.2,0.3-0.4,0.5-0.7,0.7c-0.3,0.2-0.7,0.4-1.1,0.5s-0.8,0.2-1.3,0.2
			s-0.9,0-1.2-0.1c-0.4-0.1-0.7-0.3-1-0.5C552.7,222,552.5,221.6,552.4,221.2z M556.9,218.7c0-0.2-0.1-0.4-0.3-0.5
			c-0.2-0.1-0.3-0.2-0.6-0.2c-0.2,0-0.4,0-0.7,0c-0.2,0-0.5,0.1-0.7,0.2c-0.2,0.1-0.4,0.2-0.5,0.3c-0.1,0.1-0.2,0.2-0.2,0.4
			L556.9,218.7z"/>
		<path class="st7" d="M558.7,217.1c0-0.1,0.1-0.2,0.2-0.2c0.1,0,0.2,0,0.3,0c0.2,0,0.3,0.1,0.4,0.3c0.1,0.1,0.1,0.3,0.2,0.5
			c0,0.2,0,0.4,0,0.5s0,0.3,0,0.4c0.2-0.2,0.4-0.3,0.6-0.5c0.2-0.2,0.5-0.4,0.8-0.5c0.3-0.2,0.7-0.3,1.1-0.4s1-0.1,1.6,0
			c0.2,0,0.3,0.1,0.3,0.2c0.1,0.1,0.1,0.2,0.1,0.3c0,0.1,0,0.2-0.1,0.3s-0.2,0.2-0.3,0.2c-0.2-0.1-0.4-0.2-0.6-0.2
			c-0.3,0-0.5,0-0.8,0.1c-0.3,0.1-0.6,0.2-0.9,0.3s-0.6,0.3-0.9,0.5c-0.3,0.2-0.5,0.5-0.7,0.7s-0.3,0.6-0.3,0.9v2.1
			c0,0-0.1,0.1-0.2,0.1c-0.1,0.1-0.2,0.1-0.3,0.1c-0.1,0-0.2,0-0.3,0s-0.2-0.1-0.3-0.3c0,0,0-0.2,0-0.4c0-0.2,0-0.5,0-0.9
			s0-0.7,0-1.1c0-0.4,0-0.8,0-1.2c0-0.4,0-0.7,0-1.1C558.7,217.5,558.7,217.3,558.7,217.1z"/>
		<path class="st7" d="M571.1,218.4c0,0.4-0.1,0.8-0.4,1.2s-0.5,0.8-0.8,1.1c-0.3,0.4-0.7,0.7-1.2,1c-0.4,0.3-0.9,0.5-1.3,0.7
			s-0.9,0.3-1.3,0.3c-0.4,0-0.8,0-1.2-0.1c-0.1-0.5-0.1-1.1-0.1-1.8c0-0.6,0-1.3,0-1.9s0-1.3,0-1.9c0-0.6,0-1.3,0-1.9
			c0-0.2,0-0.3,0.1-0.4s0.2-0.1,0.3-0.1s0.2,0,0.3,0.1c0.1,0.1,0.1,0.2,0.1,0.3l0.1,4.5c0.2-0.3,0.6-0.6,0.9-1
			c0.4-0.3,0.7-0.6,1.1-0.8c0.4-0.2,0.8-0.4,1.2-0.6c0.4-0.1,0.7-0.2,1-0.2c0.3,0,0.6,0.2,0.7,0.4
			C571,217.5,571.1,217.9,571.1,218.4z M570.3,218.5c0-0.2-0.1-0.4-0.3-0.5c-0.1-0.1-0.3-0.1-0.5-0.1c-0.2,0-0.5,0.1-0.7,0.2
			s-0.5,0.3-0.8,0.5c-0.3,0.2-0.5,0.4-0.8,0.6c-0.3,0.2-0.5,0.5-0.7,0.8s-0.4,0.5-0.5,0.8c-0.1,0.3-0.2,0.6-0.2,0.8
			c0,0.1,0,0.2,0.2,0.2c0.2,0,0.4,0,0.7-0.1c0.3-0.1,0.6-0.2,0.9-0.4c0.3-0.2,0.7-0.4,1-0.7c0.3-0.3,0.7-0.6,0.9-0.9
			S570.2,219,570.3,218.5z"/>
	</g>
	<g>
		<path class="st7" d="M626.8,220.8c-0.2,0.3-0.4,0.5-0.6,0.8c-0.2,0.2-0.5,0.4-0.8,0.6s-0.6,0.3-0.9,0.4c-0.3,0.1-0.7,0.1-1.1,0.1
			c-0.1,0-0.3,0-0.4,0s-0.3-0.1-0.4-0.2c-0.1-0.1-0.2-0.2-0.3-0.3c-0.1-0.1-0.1-0.3-0.1-0.4c-0.1-0.4-0.1-0.7,0.1-1.1
			c0.1-0.4,0.3-0.8,0.5-1.1s0.5-0.7,0.8-1c0.3-0.3,0.6-0.6,1-0.8c0.4-0.2,0.7-0.4,1.1-0.5s0.7-0.1,1.1-0.1c0.3,0,0.5,0.1,0.6,0.3
			c0.1,0.2,0.3,0.4,0.3,0.7c0.1,0.3,0.1,0.6,0.1,1c0,0.4,0,0.8,0,1.2s0,0.8,0,1.2s0,0.8,0.1,1.1c0,0,0,0.1-0.1,0.1
			c-0.1,0.1-0.1,0.1-0.2,0.2c-0.1,0-0.2,0-0.3,0c-0.1,0-0.2-0.1-0.3-0.3c0-0.1-0.1-0.2-0.1-0.3c0-0.2,0-0.3,0-0.5c0-0.2,0-0.4,0-0.5
			C626.9,221,626.9,220.9,626.8,220.8z M626.2,217.9c-0.2,0-0.5,0-0.8,0.1c-0.3,0.1-0.5,0.2-0.8,0.4s-0.5,0.4-0.7,0.6
			c-0.2,0.2-0.4,0.5-0.6,0.7c-0.2,0.3-0.3,0.5-0.4,0.7c-0.1,0.2-0.1,0.5-0.1,0.7c0,0.2,0.1,0.4,0.2,0.5s0.3,0.2,0.6,0.3
			c0.4,0,0.7-0.1,1.1-0.3c0.3-0.2,0.6-0.4,0.9-0.7c0.3-0.3,0.5-0.6,0.7-1c0.2-0.3,0.3-0.7,0.4-1c0.1-0.3,0.1-0.6,0-0.8
			C626.6,218.1,626.5,217.9,626.2,217.9z"/>
		<path class="st7" d="M632.9,221.5c-0.3,0.2-0.6,0.4-0.9,0.6c-0.3,0.2-0.6,0.3-1,0.4c-0.3,0.1-0.6,0.2-0.9,0.2c-0.3,0-0.6,0-0.8,0
			s-0.5-0.2-0.7-0.4c-0.2-0.2-0.3-0.4-0.4-0.7c-0.1-0.4-0.1-0.8,0-1.2c0.1-0.4,0.3-0.7,0.5-1c0.2-0.3,0.5-0.6,0.9-0.8
			c0.3-0.2,0.7-0.4,1.1-0.5c0.4-0.1,0.8-0.2,1.2-0.2c0.4,0,0.8,0,1.2,0.2c0-0.1,0-0.3,0-0.5c0-0.2,0-0.5,0-0.7s0-0.5,0-0.7
			c0-0.2,0-0.4,0-0.5c0-0.3,0.1-0.6,0.2-0.7c0.1-0.2,0.3-0.2,0.6-0.2c0,0.5,0,0.9,0,1.4c0,0.4,0,0.8,0,1.2s0,0.7,0,1.1
			c0,0.4,0,0.7,0,1.1c0,0.4,0,0.8,0,1.3c0,0.5,0,1,0.1,1.6c0,0.2,0,0.3-0.1,0.4c-0.1,0.1-0.2,0.1-0.3,0.1c-0.2,0-0.3,0-0.3-0.1
			c-0.1-0.1-0.1-0.2-0.2-0.4s0-0.3,0-0.4C632.9,221.7,632.9,221.6,632.9,221.5z M629,221.1c0,0.3,0.1,0.5,0.3,0.6s0.4,0.2,0.7,0.1
			c0.1,0,0.3,0,0.6-0.1c0.3-0.1,0.6-0.2,0.9-0.3s0.6-0.2,0.8-0.4s0.4-0.3,0.6-0.4V219c-0.2-0.2-0.4-0.3-0.6-0.3c-0.3,0-0.5,0-0.8,0
			c-0.3,0.1-0.6,0.2-0.9,0.3c-0.3,0.1-0.5,0.3-0.8,0.5c-0.2,0.2-0.4,0.5-0.5,0.7C629.1,220.5,629,220.8,629,221.1z"/>
		<path class="st7" d="M634.6,217.5c0-0.1,0-0.2,0-0.3c0-0.1,0.1-0.2,0.2-0.3c0.1-0.1,0.2-0.1,0.3-0.1c0.1,0,0.2,0.1,0.2,0.2
			l2.2,4.3l2.1-4.4c0.1,0,0.2-0.1,0.2,0c0.1,0,0.2,0,0.2,0.1s0.1,0.1,0.2,0.2c0,0.1,0.1,0.2,0.1,0.2c-0.3,0.7-0.6,1.4-0.9,1.9
			c-0.2,0.6-0.5,1-0.6,1.4c-0.2,0.4-0.3,0.7-0.4,1c-0.1,0.3-0.2,0.5-0.3,0.6s-0.2,0.3-0.2,0.3c-0.1,0.1-0.2,0.1-0.3,0.1
			c-0.1,0-0.2-0.1-0.3-0.2c-0.1-0.1-0.3-0.3-0.4-0.6c-0.2-0.3-0.3-0.5-0.5-0.9c-0.2-0.3-0.4-0.7-0.6-1.1c-0.2-0.4-0.4-0.8-0.6-1.2
			C635,218.4,634.8,218,634.6,217.5z"/>
		<path class="st7" d="M640.3,221.2c-0.1-0.5,0-1,0.1-1.5c0.1-0.5,0.4-1,0.7-1.4s0.7-0.7,1.1-1c0.4-0.2,0.9-0.4,1.5-0.3
			c0.2,0,0.5,0,0.7,0.1c0.3,0.1,0.5,0.2,0.8,0.4s0.4,0.4,0.6,0.6c0.1,0.2,0.2,0.5,0.1,0.8c0,0.1-0.1,0.2-0.2,0.3
			c-0.1,0.1-0.3,0.2-0.6,0.2c-0.2,0.1-0.5,0.1-0.8,0.1c-0.3,0-0.6,0-1,0.1c-0.3,0-0.7,0-1,0s-0.7,0-1,0.1c-0.2,0.5-0.2,0.9-0.2,1.2
			c0.1,0.3,0.2,0.6,0.5,0.7c0.2,0.2,0.5,0.3,0.9,0.3c0.4,0,0.7,0,1.1-0.1c0.4-0.1,0.8-0.2,1.1-0.4s0.7-0.4,1-0.6c0,0,0.1,0,0.1,0
			s0.1,0.1,0.2,0.1c0.1,0,0.1,0.1,0.1,0.1s0.1,0.1,0.1,0.1c-0.2,0.3-0.4,0.5-0.7,0.7c-0.3,0.2-0.7,0.4-1.1,0.5s-0.8,0.2-1.3,0.2
			s-0.9,0-1.2-0.1c-0.4-0.1-0.7-0.3-1-0.5C640.6,222,640.4,221.6,640.3,221.2z M644.9,218.7c0-0.2-0.1-0.4-0.3-0.5
			c-0.2-0.1-0.3-0.2-0.6-0.2c-0.2,0-0.4,0-0.7,0c-0.2,0-0.5,0.1-0.7,0.2c-0.2,0.1-0.4,0.2-0.5,0.3c-0.1,0.1-0.2,0.2-0.2,0.4
			L644.9,218.7z"/>
		<path class="st7" d="M646.6,217.1c0-0.1,0.1-0.2,0.2-0.2c0.1,0,0.2,0,0.3,0c0.2,0,0.3,0.1,0.4,0.3c0.1,0.1,0.1,0.3,0.2,0.5
			c0,0.2,0,0.4,0,0.5s0,0.3,0,0.4c0.2-0.2,0.4-0.3,0.6-0.5c0.2-0.2,0.5-0.4,0.8-0.5c0.3-0.2,0.7-0.3,1.1-0.4s1-0.1,1.6,0
			c0.2,0,0.3,0.1,0.3,0.2c0.1,0.1,0.1,0.2,0.1,0.3c0,0.1,0,0.2-0.1,0.3s-0.2,0.2-0.3,0.2c-0.2-0.1-0.4-0.2-0.6-0.2
			c-0.3,0-0.5,0-0.8,0.1c-0.3,0.1-0.6,0.2-0.9,0.3s-0.6,0.3-0.9,0.5c-0.3,0.2-0.5,0.5-0.7,0.7s-0.3,0.6-0.3,0.9v2.1
			c0,0-0.1,0.1-0.2,0.1c-0.1,0.1-0.2,0.1-0.3,0.1c-0.1,0-0.2,0-0.3,0s-0.2-0.1-0.3-0.3c0,0,0-0.2,0-0.4c0-0.2,0-0.5,0-0.9
			s0-0.7,0-1.1c0-0.4,0-0.8,0-1.2c0-0.4,0-0.7,0-1.1C646.6,217.5,646.6,217.3,646.6,217.1z"/>
		<path class="st7" d="M659,218.3c0,0.4-0.1,0.8-0.4,1.2s-0.5,0.8-0.8,1.1c-0.3,0.4-0.7,0.7-1.2,1c-0.4,0.3-0.9,0.5-1.3,0.7
			s-0.9,0.3-1.3,0.3c-0.4,0-0.8,0-1.2-0.1c-0.1-0.5-0.1-1.1-0.1-1.8c0-0.6,0-1.3,0-1.9s0-1.3,0-1.9c0-0.6,0-1.3,0-1.9
			c0-0.2,0-0.3,0.1-0.4s0.2-0.1,0.3-0.1s0.2,0,0.3,0.1c0.1,0.1,0.1,0.2,0.1,0.3l0.1,4.5c0.2-0.3,0.6-0.6,0.9-1
			c0.4-0.3,0.7-0.6,1.1-0.8c0.4-0.2,0.8-0.4,1.2-0.6c0.4-0.1,0.7-0.2,1-0.2c0.3,0,0.6,0.2,0.7,0.4C659,217.5,659,217.9,659,218.3z
			 M658.3,218.5c0-0.2-0.1-0.4-0.3-0.5c-0.1-0.1-0.3-0.1-0.5-0.1c-0.2,0-0.5,0.1-0.7,0.2s-0.5,0.3-0.8,0.5c-0.3,0.2-0.5,0.4-0.8,0.6
			c-0.3,0.2-0.5,0.5-0.7,0.8s-0.4,0.5-0.5,0.8c-0.1,0.3-0.2,0.6-0.2,0.8c0,0.1,0,0.2,0.2,0.2c0.2,0,0.4,0,0.7-0.1
			c0.3-0.1,0.6-0.2,0.9-0.4c0.3-0.2,0.7-0.4,1-0.7c0.3-0.3,0.7-0.6,0.9-0.9S658.1,219,658.3,218.5z"/>
	</g>
	<g>
		<path class="st7" d="M556.4,273.7c0,0,0.1-0.1,0.2-0.1c0.1,0,0.2,0,0.3,0c0.1,0,0.2,0,0.3,0.1c0.1,0.1,0.1,0.2,0.2,0.3
			c0.9-0.3,1.6-0.5,2.2-0.5c0.6,0,1.1,0,1.5,0.2s0.7,0.4,0.9,0.7s0.3,0.6,0.2,1s-0.1,0.7-0.4,1.1c-0.2,0.4-0.5,0.8-0.9,1.1
			s-0.9,0.6-1.5,0.9c-0.6,0.3-1.2,0.4-2,0.5c0,0.1,0,0.2,0,0.4s0,0.4,0,0.7s0,0.5,0,0.8c0,0.3,0,0.6,0,0.8c0,0.3,0,0.5,0,0.7
			c0,0.2,0,0.4,0,0.5c0,0.1,0,0.3,0,0.4c0,0.1-0.1,0.2-0.2,0.2s-0.2,0.1-0.3,0.1c-0.1,0-0.2,0-0.4,0L556.4,273.7z M559.8,274.2
			c-0.2,0-0.5,0-0.8,0.1c-0.3,0.1-0.6,0.1-0.8,0.3c-0.3,0.1-0.5,0.3-0.6,0.5c-0.2,0.2-0.2,0.5-0.2,0.9l0,2.2
			c0.7-0.1,1.3-0.3,1.8-0.5c0.5-0.2,0.9-0.5,1.3-0.8c0.3-0.3,0.6-0.6,0.7-0.9c0.1-0.3,0.2-0.6,0.1-0.9c0-0.3-0.2-0.5-0.4-0.6
			C560.6,274.3,560.2,274.2,559.8,274.2z"/>
		<path class="st7" d="M562.6,273.6c0-0.1,0.1-0.2,0.2-0.2c0.1,0,0.2,0,0.3,0c0.2,0,0.3,0.1,0.4,0.3c0.1,0.1,0.1,0.3,0.2,0.5
			c0,0.2,0,0.4,0,0.5s0,0.3,0,0.4c0.2-0.2,0.4-0.3,0.6-0.5c0.2-0.2,0.5-0.4,0.8-0.5c0.3-0.2,0.7-0.3,1.1-0.4s1-0.1,1.6,0
			c0.2,0,0.3,0.1,0.3,0.2c0.1,0.1,0.1,0.2,0.1,0.3c0,0.1,0,0.2-0.1,0.3s-0.2,0.2-0.3,0.2c-0.2-0.1-0.4-0.2-0.6-0.2
			c-0.3,0-0.5,0-0.8,0.1c-0.3,0.1-0.6,0.2-0.9,0.3s-0.6,0.3-0.9,0.5c-0.3,0.2-0.5,0.5-0.7,0.7s-0.3,0.6-0.3,0.9v2.1
			c0,0-0.1,0.1-0.2,0.1c-0.1,0.1-0.2,0.1-0.3,0.1c-0.1,0-0.2,0-0.3,0s-0.2-0.1-0.3-0.3c0,0,0-0.2,0-0.4c0-0.2,0-0.5,0-0.9
			s0-0.7,0-1.1c0-0.4,0-0.8,0-1.2c0-0.4,0-0.7,0-1.1C562.6,274,562.6,273.8,562.6,273.6z"/>
		<path class="st7" d="M567.8,277c0-0.5,0.1-1,0.3-1.4c0.2-0.4,0.4-0.8,0.7-1.1c0.3-0.3,0.6-0.5,1-0.7c0.4-0.2,0.7-0.3,1.1-0.3
			c0.4-0.1,0.8,0,1.2,0.1c0.4,0.1,0.7,0.3,1,0.6c0.3,0.3,0.5,0.6,0.6,1c0.1,0.4,0.2,0.8,0.2,1.2c-0.1,0.5-0.2,1-0.4,1.3
			c-0.2,0.4-0.5,0.7-0.8,0.9c-0.3,0.2-0.7,0.4-1.2,0.5s-0.9,0.2-1.4,0.2c-0.8,0-1.3-0.2-1.7-0.5S567.8,277.8,567.8,277z
			 M568.7,277.3c0,0.4,0.2,0.7,0.4,0.9c0.2,0.2,0.5,0.3,0.8,0.3c0.3,0,0.7,0,1.1-0.1c0.4-0.1,0.7-0.3,1.1-0.5
			c0.3-0.2,0.6-0.5,0.8-0.8c0.2-0.3,0.3-0.6,0.4-1c0-0.2,0-0.4-0.1-0.6c-0.1-0.2-0.1-0.4-0.3-0.6c-0.1-0.2-0.3-0.4-0.6-0.5
			c-0.2-0.2-0.5-0.3-0.9-0.3c-0.1,0-0.3,0-0.5,0.1c-0.2,0-0.4,0.1-0.6,0.2c-0.2,0.1-0.4,0.2-0.6,0.4c-0.2,0.2-0.4,0.4-0.5,0.6
			c-0.2,0.2-0.3,0.5-0.4,0.8S568.6,276.9,568.7,277.3z"/>
		<path class="st7" d="M574.2,273.7c0,0,0.1-0.1,0.2-0.1c0.1,0,0.2,0,0.3,0c0.1,0,0.2,0,0.3,0.1c0.1,0.1,0.1,0.2,0.2,0.3
			c0.9-0.3,1.6-0.5,2.2-0.5c0.6,0,1.1,0,1.5,0.2s0.7,0.4,0.9,0.7s0.3,0.6,0.2,1s-0.1,0.7-0.4,1.1c-0.2,0.4-0.5,0.8-0.9,1.1
			s-0.9,0.6-1.5,0.9c-0.6,0.3-1.2,0.4-2,0.5c0,0.1,0,0.2,0,0.4s0,0.4,0,0.7s0,0.5,0,0.8c0,0.3,0,0.6,0,0.8c0,0.3,0,0.5,0,0.7
			c0,0.2,0,0.4,0,0.5c0,0.1,0,0.3,0,0.4c0,0.1-0.1,0.2-0.2,0.2s-0.2,0.1-0.3,0.1c-0.1,0-0.2,0-0.4,0L574.2,273.7z M577.6,274.2
			c-0.2,0-0.5,0-0.8,0.1c-0.3,0.1-0.6,0.1-0.8,0.3c-0.3,0.1-0.5,0.3-0.6,0.5c-0.2,0.2-0.2,0.5-0.2,0.9l0,2.2
			c0.7-0.1,1.3-0.3,1.8-0.5c0.5-0.2,0.9-0.5,1.3-0.8c0.3-0.3,0.6-0.6,0.7-0.9c0.1-0.3,0.2-0.6,0.1-0.9c0-0.3-0.2-0.5-0.4-0.6
			C578.3,274.3,578,274.2,577.6,274.2z"/>
		<path class="st7" d="M580.4,277.7c-0.1-0.5,0-1,0.1-1.5c0.1-0.5,0.4-1,0.7-1.4s0.7-0.7,1.1-1c0.4-0.2,0.9-0.4,1.5-0.3
			c0.2,0,0.5,0,0.7,0.1c0.3,0.1,0.5,0.2,0.8,0.4s0.4,0.4,0.6,0.6c0.1,0.2,0.2,0.5,0.1,0.8c0,0.1-0.1,0.2-0.2,0.3
			c-0.1,0.1-0.3,0.2-0.6,0.2c-0.2,0.1-0.5,0.1-0.8,0.1c-0.3,0-0.6,0-1,0.1c-0.3,0-0.7,0-1,0s-0.7,0-1,0.1c-0.2,0.5-0.2,0.9-0.2,1.2
			c0.1,0.3,0.2,0.6,0.5,0.7c0.2,0.2,0.5,0.3,0.9,0.3c0.4,0,0.7,0,1.1-0.1c0.4-0.1,0.8-0.2,1.1-0.4s0.7-0.4,1-0.6c0,0,0.1,0,0.1,0
			s0.1,0.1,0.2,0.1c0.1,0,0.1,0.1,0.1,0.1s0.1,0.1,0.1,0.1c-0.2,0.3-0.4,0.5-0.7,0.7c-0.3,0.2-0.7,0.4-1.1,0.5s-0.8,0.2-1.3,0.2
			s-0.9,0-1.2-0.1c-0.4-0.1-0.7-0.3-1-0.5C580.7,278.4,580.5,278.1,580.4,277.7z M584.9,275.1c0-0.2-0.1-0.4-0.3-0.5
			c-0.2-0.1-0.3-0.2-0.6-0.2c-0.2,0-0.4,0-0.7,0c-0.2,0-0.5,0.1-0.7,0.2c-0.2,0.1-0.4,0.2-0.5,0.3c-0.1,0.1-0.2,0.2-0.2,0.4
			L584.9,275.1z"/>
		<path class="st7" d="M586.7,273.6c0-0.1,0.1-0.2,0.2-0.2c0.1,0,0.2,0,0.3,0c0.2,0,0.3,0.1,0.4,0.3c0.1,0.1,0.1,0.3,0.2,0.5
			c0,0.2,0,0.4,0,0.5s0,0.3,0,0.4c0.2-0.2,0.4-0.3,0.6-0.5c0.2-0.2,0.5-0.4,0.8-0.5c0.3-0.2,0.7-0.3,1.1-0.4s1-0.1,1.6,0
			c0.2,0,0.3,0.1,0.3,0.2c0.1,0.1,0.1,0.2,0.1,0.3c0,0.1,0,0.2-0.1,0.3s-0.2,0.2-0.3,0.2c-0.2-0.1-0.4-0.2-0.6-0.2
			c-0.3,0-0.5,0-0.8,0.1c-0.3,0.1-0.6,0.2-0.9,0.3s-0.6,0.3-0.9,0.5c-0.3,0.2-0.5,0.5-0.7,0.7s-0.3,0.6-0.3,0.9v2.1
			c0,0-0.1,0.1-0.2,0.1c-0.1,0.1-0.2,0.1-0.3,0.1c-0.1,0-0.2,0-0.3,0s-0.2-0.1-0.3-0.3c0,0,0-0.2,0-0.4c0-0.2,0-0.5,0-0.9
			s0-0.7,0-1.1c0-0.4,0-0.8,0-1.2c0-0.4,0-0.7,0-1.1C586.7,274,586.7,273.8,586.7,273.6z"/>
		<path class="st7" d="M598.3,279.3c-0.1,0-0.2,0-0.2,0c-0.1,0-0.2,0-0.3,0c-0.1,0-0.2-0.1-0.2-0.1l0-5.4c0.2-0.1,0.4-0.2,0.5-0.2
			c0.1,0,0.2,0.1,0.3,0.2s0.1,0.3,0.1,0.5s0,0.4,0.1,0.5c0.7-0.5,1.2-0.8,1.7-1c0.5-0.2,0.9-0.3,1.2-0.3c0.3,0,0.6,0.1,0.8,0.3
			c0.2,0.2,0.4,0.4,0.5,0.7c0.1,0.3,0.2,0.6,0.2,1c0,0.4,0.1,0.8,0.1,1.2s0,0.8,0,1.3c0,0.4,0,0.8,0.1,1.2c-0.1,0.1-0.2,0.1-0.3,0.1
			c-0.1,0-0.2,0-0.4,0c-0.1,0-0.2,0-0.2-0.1c-0.1,0-0.1,0,0,0c0-0.2,0-0.4,0-0.6c0-0.3,0-0.5,0-0.8s0-0.6,0-0.9s0-0.6,0-0.9
			c0-0.3,0-0.5,0-0.8c0-0.2-0.1-0.4-0.1-0.6c-0.1-0.1-0.1-0.2-0.3-0.3c-0.1-0.1-0.3-0.1-0.5-0.1c-0.2,0-0.4,0-0.6,0.1
			c-0.2,0.1-0.5,0.2-0.7,0.3c-0.2,0.1-0.5,0.3-0.7,0.4s-0.4,0.3-0.6,0.5l-0.1,3.5C598.4,279.2,598.3,279.2,598.3,279.3z"/>
		<path class="st7" d="M603.4,277c0-0.5,0.1-1,0.3-1.4c0.2-0.4,0.4-0.8,0.7-1.1c0.3-0.3,0.6-0.5,1-0.7c0.4-0.2,0.7-0.3,1.1-0.3
			c0.4-0.1,0.8,0,1.2,0.1c0.4,0.1,0.7,0.3,1,0.6c0.3,0.3,0.5,0.6,0.6,1c0.1,0.4,0.2,0.8,0.2,1.2c-0.1,0.5-0.2,1-0.4,1.3
			c-0.2,0.4-0.5,0.7-0.8,0.9c-0.3,0.2-0.7,0.4-1.2,0.5s-0.9,0.2-1.4,0.2c-0.8,0-1.3-0.2-1.7-0.5S603.4,277.8,603.4,277z
			 M604.2,277.3c0,0.4,0.2,0.7,0.4,0.9c0.2,0.2,0.5,0.3,0.8,0.3c0.3,0,0.7,0,1.1-0.1c0.4-0.1,0.7-0.3,1.1-0.5
			c0.3-0.2,0.6-0.5,0.8-0.8c0.2-0.3,0.3-0.6,0.4-1c0-0.2,0-0.4-0.1-0.6c-0.1-0.2-0.1-0.4-0.3-0.6c-0.1-0.2-0.3-0.4-0.6-0.5
			c-0.2-0.2-0.5-0.3-0.9-0.3c-0.1,0-0.3,0-0.5,0.1c-0.2,0-0.4,0.1-0.6,0.2c-0.2,0.1-0.4,0.2-0.6,0.4c-0.2,0.2-0.4,0.4-0.5,0.6
			c-0.2,0.2-0.3,0.5-0.4,0.8S604.2,276.9,604.2,277.3z"/>
		<path class="st7" d="M609.9,277.7c0-0.2,0-0.4,0-0.6c0-0.2,0-0.5,0-0.8c0-0.3,0-0.6,0.1-0.8c0-0.3,0.1-0.6,0.1-0.8
			c0.1-0.3,0.1-0.5,0.2-0.7c0.1-0.2,0.1-0.3,0.2-0.4c0.2-0.1,0.4-0.1,0.5,0c0.1,0.1,0.2,0.2,0.2,0.4c0,0.2-0.1,0.4-0.1,0.6
			c-0.1,0.3-0.1,0.6-0.2,0.9c-0.1,0.3-0.1,0.7-0.1,1.1s0,0.7,0.1,1.1c0.1,0.2,0.2,0.4,0.3,0.5s0.4,0.2,0.6,0.2c0.2,0,0.5,0,0.8,0
			c0.3,0,0.5-0.1,0.8-0.2s0.5-0.2,0.7-0.4c0.2-0.1,0.4-0.3,0.5-0.5c0-0.2,0-0.5,0-0.8c0-0.3,0-0.6,0-0.9c0-0.3,0-0.7,0-1
			c0-0.3,0-0.7,0-1c0.1-0.1,0.3-0.2,0.4-0.2c0.2,0,0.3,0.1,0.4,0.2l0.3,5.5c-0.1,0.1-0.1,0.1-0.2,0.2s-0.1,0.1-0.2,0.1
			c-0.1,0-0.1,0-0.2,0c-0.1,0-0.1-0.1-0.2-0.1l-0.2-0.9c-0.1,0.1-0.3,0.2-0.5,0.3c-0.3,0.1-0.5,0.2-0.9,0.4c-0.3,0.1-0.7,0.2-1,0.2
			c-0.4,0-0.7,0-1,0c-0.3-0.1-0.6-0.2-0.8-0.5C610.1,278.5,609.9,278.1,609.9,277.7z"/>
		<path class="st7" d="M616.5,279.3c-0.1,0-0.2,0-0.2,0c-0.1,0-0.2,0-0.3,0c-0.1,0-0.2-0.1-0.2-0.1l0-5.4c0.2-0.1,0.4-0.2,0.5-0.2
			c0.1,0,0.2,0.1,0.3,0.2s0.1,0.3,0.1,0.5s0,0.4,0.1,0.5c0.7-0.5,1.2-0.8,1.7-1c0.5-0.2,0.9-0.3,1.2-0.3c0.3,0,0.6,0.1,0.8,0.3
			c0.2,0.2,0.4,0.4,0.5,0.7c0.1,0.3,0.2,0.6,0.2,1c0,0.4,0.1,0.8,0.1,1.2s0,0.8,0,1.3c0,0.4,0,0.8,0.1,1.2c-0.1,0.1-0.2,0.1-0.3,0.1
			c-0.1,0-0.2,0-0.4,0c-0.1,0-0.2,0-0.2-0.1c-0.1,0-0.1,0,0,0c0-0.2,0-0.4,0-0.6c0-0.3,0-0.5,0-0.8s0-0.6,0-0.9s0-0.6,0-0.9
			c0-0.3,0-0.5,0-0.8c0-0.2-0.1-0.4-0.1-0.6c-0.1-0.1-0.1-0.2-0.3-0.3c-0.1-0.1-0.3-0.1-0.5-0.1c-0.2,0-0.4,0-0.6,0.1
			c-0.2,0.1-0.5,0.2-0.7,0.3c-0.2,0.1-0.5,0.3-0.7,0.4s-0.4,0.3-0.6,0.5l-0.1,3.5C616.6,279.2,616.6,279.2,616.5,279.3z"/>
	</g>
	<line class="st4" x1="705.1" y1="314.3" x2="522.3" y2="314.3"/>
	<line class="st4" x1="521.4" y1="326" x2="704.2" y2="326"/>
	<line class="st4" x1="522.3" y1="337.3" x2="705.1" y2="337.3"/>
	<line class="st4" x1="521.4" y1="349" x2="704.2" y2="349"/>
	<line class="st4" x1="522.9" y1="360.1" x2="705.7" y2="360.1"/>
	<ellipse class="st16" cx="548.6" cy="360.9" rx="7.4" ry="4.8"/>
	<ellipse class="st16" cx="568.6" cy="337.9" rx="7.4" ry="4.8"/>
	<ellipse class="st16" cx="587.6" cy="312.9" rx="7.4" ry="4.8"/>
	<ellipse class="st16" cx="611.3" cy="336.9" rx="7.4" ry="4.8"/>
	<ellipse class="st16" cx="648.3" cy="342.9" rx="7.4" ry="4.8"/>
	<ellipse class="st16" cx="678.3" cy="360.9" rx="7.4" ry="4.8"/>
	<path class="st17" d="M419.4,305.6c0,0,4.5,21.3,7.6,25.2c3.1,4,10.2,4,10.2,4l31-42l16-0.8c0,0,6.2,0.4,6.2-6.3v-16.6
		c0,0,0.5-5.4-4.8-5.8l-7-0.5v-11.7c-3.1-11-10.2,0-10.2,0V263c-3.9,0-6.3,8.3-6.3,8.3L441,302.3v-16.5"/>
	<path class="st17" d="M478.6,263c0,0-7.2,0.9-5.7,3.7c0,0-1.6,2.9,3.5,3.7c5.1,0.8,15,0.6,15,0.6"/>
	<path class="st17" d="M478.6,271c0,0-7.2,0.9-5.7,3.7c0,0-1.6,2.9,3.5,3.7c5.1,0.8,15,0.6,15,0.6"/>
	<path class="st17" d="M478.6,279c0,0-7.2,0.9-5.7,3.7c0,0-1.6,2.9,3.5,3.7c5.1,0.8,15,0.6,15,0.6"/>
	<path class="st18" d="M386,406.9"/>
	<polyline class="st14" points="346.1,419.2 322.5,424.2 303.8,408.1 	"/>
	<path class="st14" d="M411.8,340.7c3.3,6.5,21.1,15.4,73.9,29.9c0,0,4.7,0.9,4,11.9c-0.3,3.8-2.1,7.4-3.8,10c0,0-2.9,4.3-7.3,4.6
		l-13.2,1"/>
	<path class="st14" d="M405,382.5c0,0-5.1-8.7-21.6-9.2c-17.2-0.5-20.7,7.9-20.7,7.9"/>
	<path class="st3" d="M317,420.2c3.4-2.7-17.4,13.5-21.2,13.8c-4.5,0.4-10.9,3.7-13.2-1.6c-2.3-5.3-9.1-10.2,2.1-18.1
		c11.2-7.9,5.3-7.3,5.3-7.3"/>
	<path class="st19" d="M322.8,286.2v51.9c0,0-2.2,14.8,5.6,30.5c7.7,15.7,18.7,36,18.7,36v18.6c0,0,0.4,4.5,4.5,4.5h15.8
		c0,0,4.2-1.8,4.2-4.9v-18.7l4.3,2.6c4.4,3,6.1-0.9,6.1-0.9c1-4.4-1.4-7-1.4-7l-15.5-10.7L344,350.3c0,0-2.9,5.7,0.1-56.1"/>
	<line class="st20" x1="355.2" y1="426.7" x2="355.2" y2="406.9"/>
	<line class="st20" x1="363.2" y1="426.7" x2="363.2" y2="406.9"/>
	<path class="st13" d="M362.5,162.9c0,0,8.7-5.7,13.7-2.4"/>
	<path class="st13" d="M388,159.8c0,0,12.1-1.4,12.5,4.4"/>
	<path class="st11" d="M342.9,347.8c0,0,9-0.7,9.5-7.9"/>
</g>
</svg>
