<?xml version="1.0" encoding="utf-8"?>
<!-- Generator: Adobe Illustrator 23.1.0, SVG Export Plug-In . SVG Version: 6.00 Build 0)  -->
<svg version="1.1" id="Layer_1" xmlns="http://www.w3.org/2000/svg" xmlns:xlink="http://www.w3.org/1999/xlink" x="0px" y="0px"
	 viewBox="0 0 50 50" style="enable-background:new 0 0 50 50;" xml:space="preserve">
<style type="text/css">
	.st0{fill:none;stroke:#FFFFFF;stroke-miterlimit:10;}
</style>
<g>
	<path class="st0" d="M28.1,28.2c0.1-2.8,0.2-5.1,0.2-7.4c-0.1-5.5,1-4.6-4.8-4.8c-1.5-0.1-2,0.4-2,2c0.1,3.2,0.1,6.4,0.2,10
		c-1.5-0.1-2.7-0.2-3.8-0.2c-0.4,0-1.2,0.3-1.2,0.6c-0.1,0.6,0.1,1.2,0.4,1.6c2.2,2.2,4.5,4.7,6.8,6.8c0.3,0.3,1.8,0.4,2.1,0.1
		c2.5-2.2,4.8-4.6,6.9-6.9c0.3-0.3,0.6-1,0.4-1.3c-0.2-0.4-0.9-0.7-1.3-0.7C30.8,27.7,29.7,28,28.1,28.2z"/>
	<path class="st0" d="M28.1,28.2c1.6-0.2,2.7-0.4,3.8-0.4c0.4,0,1.1,0.2,1.3,0.7c0.2,0.2-0.1,1-0.4,1.3c-2.3,2.3-4.6,4.8-6.9,6.9
		c-0.3,0.3-1.7,0.3-2.1-0.1c-2.3-2.1-4.7-4.5-6.8-6.8c-0.3-0.3-0.4-1.1-0.4-1.6c0.1-0.3,0.8-0.6,1.2-0.6c1.1,0,2.3,0.1,3.8,0.2
		c0-3.6-0.1-6.8-0.2-10c0-1.6,0.6-2.1,2-2c5.8,0.2,4.8-0.8,4.8,4.8C28.4,22.9,28.2,25.2,28.1,28.2z"/>
</g>
</svg>
