<?xml version="1.0" encoding="utf-8"?>
<!-- Generator: Adobe Illustrator 23.1.0, SVG Export Plug-In . SVG Version: 6.00 Build 0)  -->
<svg version="1.1" id="Layer_1" xmlns="http://www.w3.org/2000/svg" xmlns:xlink="http://www.w3.org/1999/xlink" x="0px" y="0px"
	 viewBox="0 0 28 28" style="enable-background:new 0 0 28 28;" xml:space="preserve">
<style type="text/css">
	.st0{display:none;}
	.st1{display:inline;stroke:#FFFFFF;stroke-miterlimit:10;}
	.st2{fill:none;stroke:#000000;stroke-width:2;stroke-linecap:round;stroke-linejoin:round;stroke-miterlimit:10;}
</style>
<g class="st0">
	<circle class="st1" cx="14" cy="-48" r="30"/>
</g>
<g>
	<path class="st2" d="M21.6,21.7c0.2-2.7,0-5.3-1.4-7.7c-1.8-3.1-4.5-4.7-8-4.8c-2.8-0.1-5.2,1-7.4,2.8c-0.3,0.2-0.8,0.4-0.7,0.9"/>
	<path class="st2" d="M17.7,25.1c0.2-0.9,0.4-1.8,0.5-2.7c0.4-2.5,0.3-4.9-1.2-7c-1-1.4-2.4-2.4-4.2-2.6c-1.1-0.1-2.1-0.2-3.1,0.1
		c-2.1,0.6-3.3,2.1-4.1,4c-0.2,0.6-0.5,1.2-0.5,1.8"/>
	<path class="st2" d="M23.9,13.5c-1.6-2.8-3.8-5-6.7-6.4c-1.8-0.9-3.7-1.3-5.7-1.2C9.6,6,7.8,6.5,6,7.3C6,7.3,5.9,7.4,5.8,7.4
		C5.6,7.5,5.3,7.6,5,7.6"/>
	<path class="st2" d="M13.4,25.8c0.2,0,0.3,0.1,0.4-0.2c0.8-1.9,1.5-3.7,1.4-5.8c-0.2-2.2-1.6-3.7-3.6-3.8c-1.4-0.1-2.6,0.6-3.1,2.7
		c-0.2,1-0.2,2-0.6,2.9c-0.2,0.4-0.3,0.8-0.6,1.1"/>
	<path class="st2" d="M21.5,6.4c-1-1.5-2.3-2.7-4-3.4c-1.2-0.5-2.4-0.7-3.7-0.8c-1.3-0.1-2.6,0.1-3.9,0.3C9.6,2.6,9.7,2.8,9.7,3"/>
	<path class="st2" d="M12.1,19.5c-0.1,0.9,0,1.8-0.3,2.7c-0.3,0.9-0.6,1.8-1.2,2.6c-0.2,0.3-0.4,0.3-0.6,0.3"/>
</g>
</svg>
