<svg width="64" height="56" viewBox="0 0 64 56" fill="none" xmlns="http://www.w3.org/2000/svg">
<g clip-path="url(#clip0)">
<path d="M38.3395 34.3144C38.1841 34.6588 38.0951 34.89 37.9793 35.1072C37.8638 35.3751 37.6787 35.6073 37.4431 35.7797C37.2075 35.9521 36.93 36.0584 36.6394 36.0877C36.3488 36.1169 36.0557 36.068 35.7904 35.946C35.5251 35.8241 35.2972 35.6334 35.1305 35.3939C34.6602 34.9139 34.1631 34.4608 33.6415 34.0368L33.4852 34.1931C33.9113 34.773 34.3395 35.3524 34.7631 35.9348C35.057 36.3389 35.3549 36.7406 35.6332 37.1554C36.2063 38.0098 36.2049 38.7603 35.6451 39.3011C35.298 39.5952 34.8626 39.7654 34.4077 39.7848C33.9529 39.8041 33.5046 39.6714 33.1338 39.4077C32.658 39.0497 32.1872 38.685 31.7103 38.3284C31.5909 38.236 31.4399 38.1942 31.2899 38.2118C31.4146 38.3902 31.5271 38.5786 31.6658 38.7454C32.7473 40.0456 33.8466 41.3312 34.9114 42.6447C35.2836 43.0556 35.5823 43.5271 35.7947 44.0389C35.8797 44.2615 35.9058 44.5022 35.8706 44.7378C35.8354 44.9734 35.74 45.196 35.5937 45.3842C35.4474 45.5723 35.2551 45.7197 35.0352 45.8121C34.8153 45.9045 34.5753 45.9388 34.3383 45.9118C33.8285 45.841 33.3331 45.6906 32.8702 45.466C32.6083 45.3583 32.4492 45.3212 32.2132 45.5314C32.0107 45.7071 31.7747 45.8401 31.5195 45.9225C31.2643 46.0049 30.995 46.035 30.7278 46.011C30.4606 45.987 30.201 45.9094 29.9646 45.7828C29.7282 45.6563 29.5198 45.4833 29.3519 45.2744C28.3102 44.1829 27.1695 43.1856 26.0716 42.1476L25.9421 42.2533L26.228 42.8352C26.4017 43.1598 26.457 43.5346 26.3845 43.8955C26.3119 44.2563 26.116 44.5808 25.8303 44.8132C25.5475 45.0539 25.1859 45.1822 24.8144 45.1737C24.4429 45.1652 24.0876 45.0206 23.8161 44.7673C23.1408 44.1426 22.5191 43.4571 21.9077 42.7682C18.9221 39.404 15.9425 36.0344 12.969 32.6594C10.8172 30.226 8.66239 27.7953 6.5044 25.3674C6.30405 25.1624 6.07483 24.9877 5.82399 24.8488C5.61514 24.7585 5.42809 24.6246 5.27544 24.4561C5.12278 24.2876 5.00808 24.0883 4.93903 23.8718C4.86999 23.6553 4.84822 23.4265 4.87518 23.2008C4.90215 22.9752 4.97723 22.7579 5.09537 22.5637C5.21768 22.3388 5.38383 22.1407 5.58401 21.9809C5.78419 21.8212 6.01437 21.703 6.26098 21.6335C6.50759 21.564 6.76565 21.5444 7.01994 21.576C7.27424 21.6076 7.51963 21.6897 7.74167 21.8174C8.40458 22.279 9.04137 22.7769 9.6491 23.3088C10.0076 23.6139 10.2364 23.7038 10.5622 23.2425C10.8493 22.9545 11.1771 22.7101 11.5353 22.5172C10.9231 21.8533 10.2704 21.233 9.72899 20.5276C9.3617 20.0473 9.0866 19.5032 8.91759 18.9229C8.82762 18.6324 8.84138 18.3196 8.95652 18.038C9.07167 17.7564 9.28108 17.5235 9.54903 17.3789C9.80909 17.2062 10.1177 17.1212 10.4296 17.1363C10.7415 17.1514 11.0404 17.2657 11.2825 17.4627C12.4102 18.2989 13.526 19.1518 14.6465 19.9969L17.4417 22.105L17.5518 21.9935C17.1516 21.5205 16.7233 21.068 16.3589 20.5689C15.9344 20.0255 15.5626 19.4429 15.2485 18.8292C15.1104 18.6055 15.0297 18.3512 15.0133 18.0888C14.997 17.8265 15.0457 17.5642 15.1549 17.3251C15.2642 17.0859 15.4308 16.8774 15.6399 16.7178C15.849 16.5582 16.0943 16.4525 16.3541 16.41C16.4728 16.3619 16.5888 16.3075 16.7016 16.2469C16.5153 15.9258 16.3327 15.6382 16.1774 15.3365C16.0027 15.0449 15.9301 14.7035 15.9711 14.3662C16.0122 14.0288 16.1644 13.7147 16.404 13.4733C16.6547 13.2288 16.9801 13.075 17.3284 13.0364C17.6767 12.9977 18.0279 13.0765 18.3263 13.2601C18.6069 13.4278 18.8731 13.6185 19.1221 13.8302C20.1993 14.7005 21.2698 15.5791 22.3445 16.4525C22.4673 16.5649 22.6293 16.6249 22.7958 16.6195L21.1464 14.7531C20.4601 13.9745 19.7285 13.2295 19.1068 12.4023C18.7759 11.9332 18.5416 11.4032 18.4174 10.843C18.3393 10.5407 18.3587 10.2215 18.4729 9.9308C18.5871 9.64014 18.7902 9.39288 19.0533 9.22424C19.3084 9.02886 19.6175 8.91643 19.9388 8.90215C20.26 8.88787 20.5779 8.97243 20.8494 9.1444C21.3781 9.4463 21.8671 9.81747 22.3736 10.158L22.4774 10.0564C22.2035 9.76296 21.9273 9.47161 21.6562 9.17558C20.9949 8.45372 20.2988 7.75952 19.687 6.99797C19.4398 6.68735 19.3136 6.29789 19.3316 5.90155C19.3497 5.50522 19.5108 5.12881 19.7852 4.8419C20.0596 4.55499 20.4288 4.37698 20.8244 4.34077C21.2201 4.30456 21.6154 4.41259 21.9375 4.64491C23.2106 5.69644 24.4313 6.81589 25.6246 7.95826C27.5275 9.77978 29.3897 11.6437 31.2711 13.4876C31.435 13.6515 31.6219 13.7908 31.8258 13.9012C31.6112 13.0985 31.1432 12.2773 32.0315 11.6356C32.7607 11.1084 33.418 11.5595 34.1475 11.8419C34.0099 11.662 33.8838 11.472 33.7332 11.3044C31.5247 8.84387 29.3145 6.38461 27.1026 3.92666C26.7814 3.56904 26.4513 3.21695 26.1603 2.83566C25.9064 2.52284 25.6918 2.18015 25.5213 1.81525C25.3677 1.53242 25.3215 1.20375 25.3911 0.889617C25.4608 0.575484 25.6415 0.296987 25.9003 0.105284C26.1702 -0.0886934 26.5012 -0.178642 26.8323 -0.147964C27.1634 -0.117285 27.4723 0.0319491 27.7018 0.272202C28.4072 0.896807 29.0907 1.54671 29.7729 2.19658C34.8328 7.00759 39.6013 12.1153 44.0529 17.4927C46.1955 20.0861 48.3006 22.7107 50.4038 25.3363C50.8142 25.8698 51.1872 26.4312 51.5199 27.0162C51.6862 27.3656 51.8246 27.7275 51.9341 28.0986C51.7208 28.0716 51.5109 28.0223 51.308 27.9514C51.0455 27.8302 50.8033 27.6695 50.5897 27.4749C50.0368 26.8987 49.5409 26.6156 48.7629 27.221C48.2232 27.641 47.4877 27.3637 46.9752 26.7714C46.8344 26.5892 46.6762 26.4212 46.5027 26.2697C45.656 25.5927 44.7677 24.9691 43.843 24.4027C44.2785 25.0356 44.6939 25.6835 45.1546 26.2977C45.7652 27.1119 46.3938 27.9145 47.0467 28.6955C47.4211 29.0032 47.664 29.4419 47.726 29.9222C47.788 30.4025 47.6644 30.8884 47.3803 31.2809C47.3576 31.3845 47.3586 31.4918 47.3833 31.5949C47.4079 31.698 47.4556 31.7942 47.5226 31.8764C48.1443 32.6091 48.8023 33.3111 49.4429 34.0277C49.6141 34.209 49.771 34.4034 49.9121 34.609C50.094 34.8616 50.194 35.1639 50.1983 35.475C50.2027 35.7861 50.1113 36.091 49.9365 36.3485C49.7878 36.6245 49.5505 36.8427 49.2629 36.9679C48.9752 37.0932 48.6537 37.1184 48.35 37.0394C47.7389 36.8881 47.164 36.6173 46.6583 36.2427C45.0293 34.9562 43.4576 33.5972 41.8628 32.2674C41.7393 32.1644 41.6057 32.0734 41.4168 31.932C41.9817 33.47 41.9034 34.0938 41.0235 34.7849C40.0359 35.5604 39.1641 35.2239 38.3395 34.3144Z" fill="#F59595"/>
<path d="M33.1712 14.0459C34.938 11.659 34.38 8.35413 32.0554 6.60986C29.7307 4.8656 26.2902 5.41642 24.5235 7.7115C22.7567 10.0984 23.3147 13.4033 25.6393 15.1476" stroke="black" stroke-width="3" stroke-miterlimit="10" stroke-linejoin="round"/>
<path d="M37.5415 13.4033C37.4485 13.4033 37.1695 13.3114 36.6116 13.1278C35.7747 12.9442 34.4729 12.7606 32.8922 12.6688C30.6605 12.6688 27.8709 13.036 25.1743 14.5967C24.4304 15.0557 23.6865 15.5147 22.9426 16.1573C22.6637 16.341 22.5707 16.6164 22.3847 16.8918C22.1988 17.4426 22.2917 18.177 22.7567 18.636C23.1286 19.0033 23.5935 19.2787 24.1515 19.2787C24.5234 19.2787 24.9883 19.0951 25.3603 18.8196C30.1026 14.7803 36.2397 16.7082 36.5186 16.8C37.4485 17.0754 38.4714 16.6164 38.8433 15.6983C39.0293 14.7803 38.4714 13.7705 37.5415 13.4033Z" fill="black"/>
<path d="M45.6314 28C47.0179 28 48.142 26.8902 48.142 25.5213C48.142 24.1523 47.0179 23.0426 45.6314 23.0426C44.2448 23.0426 43.1207 24.1523 43.1207 25.5213C43.1207 26.8902 44.2448 28 45.6314 28Z" fill="black"/>
<path d="M3.97346 30.1115C4.90332 30.5706 5.92617 30.846 6.94902 30.846C7.41395 30.846 7.97187 30.7542 8.4368 30.6624C8.52979 34.6099 9.8316 38.4656 12.1563 41.8624C10.0176 45.3509 10.3895 49.8492 13.0861 52.8787C14.8529 54.8066 17.2705 56.0001 19.9671 56.0919H20.2461C22.7567 56.0919 25.1743 55.082 26.9411 53.3378L28.2429 52.0525C31.5904 52.7869 35.0309 52.8787 38.2854 52.3279L39.1223 53.1542C42.7487 56.6427 48.5139 56.9181 52.2333 53.705C55.1159 51.2263 56.1388 47.2787 54.744 43.6984C55.6738 42.505 56.5107 41.1279 57.3476 39.3837H57.4406C60.6021 39.3837 63.1127 36.905 63.1127 33.7837V26.3476C63.1127 24.8787 62.5548 23.4099 61.532 22.3083C60.5091 21.2066 59.0213 20.6558 57.5336 20.6558H57.4406C56.0458 17.9935 54.0931 15.5148 51.5824 13.4951L51.8614 10.8328C52.1404 8.07875 52.2334 7.25252 52.1404 6.7017C51.9544 5.32465 50.9315 4.40662 49.5367 4.40662H49.4438C46.2822 4.40662 40.796 7.06891 39.1223 7.89514C39.0293 7.89514 38.9363 7.98695 38.8433 7.89514C38.0064 7.80334 36.8906 7.34432 35.5888 7.25252C35.9607 7.80334 36.5187 9.73121 36.5187 10.0066C37.4485 10.0984 37.9135 10.5574 38.3784 10.6492C39.0293 10.741 39.6802 10.6492 40.2381 10.3738C43.3067 8.81317 47.3981 7.25252 49.2578 7.25252C49.2578 7.80334 49.1648 9.27219 48.9788 10.6492L48.6069 14.046C48.6069 14.505 48.7929 14.964 49.1648 15.2394C51.7684 17.2591 53.9071 19.8296 55.2089 22.6755C55.3949 23.1345 55.9528 23.5017 56.5107 23.5017H57.4406C58.1845 23.5017 58.9284 23.7771 59.4863 24.3279C60.0442 24.8787 60.3232 25.6132 60.3232 26.3476V33.7837C60.3232 35.3443 59.0213 36.6296 57.5336 36.6296H56.6037C56.0458 36.6296 55.4879 36.905 55.3019 37.4558C54.279 39.5673 53.2562 41.2197 52.2333 42.4132C51.7684 42.964 51.6754 43.6066 51.9544 44.2492C53.1632 46.8197 52.5123 49.7574 50.3736 51.5935C47.677 53.8886 43.6786 53.705 41.075 51.2263L39.7732 49.941C39.3083 49.6656 38.8433 49.482 38.3784 49.5738C35.0309 50.2165 31.4044 50.1246 27.9639 49.2984C27.499 49.2066 27.0341 49.2984 26.6621 49.6656L24.8954 51.4099C23.6866 52.6033 21.9198 53.3378 20.2461 53.3378H20.0601C18.2004 53.246 16.5266 52.5115 15.2248 51.1345C13.2721 48.9312 13.0861 45.5345 14.7599 43.0558C15.2248 42.3214 15.2248 41.4033 14.7599 40.7607C12.5282 37.5476 11.3194 33.8755 11.3194 30.2033C11.3194 25.8886 12.8072 22.9509 13.737 21.6656C13.737 21.5738 13.83 21.5738 13.83 21.482C15.5967 18.3607 17.6424 15.7902 20.711 13.9542C20.711 12.8525 20.711 12.2099 20.711 11.2001C16.8056 13.3115 13.551 16.341 11.4124 20.1968C11.3194 20.3804 11.2264 20.4722 11.2264 20.6558C11.2264 20.3804 11.4124 20.1968 11.4124 20.1968C10.4825 21.5738 9.08771 24.1443 8.62278 27.9083C7.59993 28.4591 6.3911 28.4591 5.36826 27.9083C4.53138 27.4492 3.97346 26.7148 3.6945 25.8886C3.41554 25.0624 3.50853 24.0525 3.97346 23.2263C4.34541 22.5837 4.06645 21.7574 3.41554 21.3902C2.76464 21.023 1.92776 21.2984 1.55582 21.941C0.718941 23.4099 0.532968 25.0624 1.09089 26.7148C1.46283 28.0001 2.57867 29.3771 3.97346 30.1115Z" fill="black"/>
</g>
<defs>
<clipPath id="clip0">
<rect width="63.9344" height="56" fill="white"/>
</clipPath>
</defs>
</svg>
