<svg width="60" height="60" viewBox="0 0 60 60" fill="none" xmlns="http://www.w3.org/2000/svg">
<g clip-path="url(#clip0)">
<path d="M22.7467 21.317C23.793 20.6377 24.8219 19.93 25.8888 19.2848C28.4682 17.7252 31.0655 16.1953 33.6544 14.6515C33.8457 14.55 34.0265 14.43 34.1943 14.2932C34.5222 13.9841 34.9457 13.7956 35.3951 13.7589C35.8446 13.7221 36.2931 13.8391 36.6671 14.0908C36.8797 14.1901 37.0675 14.3357 37.2166 14.5167C37.3657 14.6978 37.4725 14.9098 37.5291 15.1374C37.5857 15.3649 37.5907 15.6022 37.5438 15.8319C37.4969 16.0616 37.3992 16.2779 37.2578 16.4651C37.1841 16.5832 37.1344 16.7147 37.1118 16.8521C37.0892 16.9894 37.094 17.1299 37.1259 17.2653C37.2932 17.6369 37.3261 18.0549 37.219 18.4479C37.1119 18.841 36.8715 19.1847 36.5387 19.4204C35.4835 20.2461 34.3881 21.0208 33.308 21.8139C32.9036 22.1103 32.4937 22.4007 32.0864 22.6938L32.1934 22.8433C33.336 22.1541 34.4739 21.4556 35.6245 20.7794C36.2786 20.3952 36.9541 20.0474 37.6203 19.6839L37.8536 19.5684C38.2513 19.3337 38.7205 19.2505 39.1748 19.3341C39.629 19.4178 40.0377 19.6626 40.3254 20.0235C40.558 20.4274 40.6208 20.9069 40.4999 21.3569C40.3791 21.8069 40.0845 22.1907 39.6808 22.4241C38.01 23.7364 36.216 24.8948 34.5694 26.235C30.3645 29.6581 26.2122 33.1444 22.0406 36.6079C21.911 36.7097 21.823 36.8552 21.7929 37.0171C22.2598 36.7 22.7311 36.3897 23.1926 36.0648C26.8029 33.3908 30.5859 30.9575 34.517 28.7808C35.7294 28.1568 36.9902 27.6315 38.2872 27.21C38.7033 27.0289 39.1711 27.0055 39.6032 27.144C40.0354 27.2825 40.4021 27.5735 40.6349 27.9625C40.8569 28.355 40.9408 28.8104 40.8733 29.2561C40.8058 29.7018 40.5907 30.112 40.2625 30.4214C39.7229 31.0042 39.0433 31.4558 38.4456 31.9878C38.2675 32.1468 38.0091 32.4014 38.035 32.5758C38.0743 33.0893 37.9626 33.6031 37.7136 34.0541C37.4646 34.5051 37.0891 34.8737 36.6333 35.1145C33.9002 37.2176 31.1337 39.2776 28.3827 41.3577C28.1297 41.549 27.8967 41.7669 27.6544 41.9724L27.7353 42.1108C28.3817 41.8421 29.0473 41.6116 29.6712 41.2982C31.9574 40.1493 34.2188 38.9508 36.5135 37.8191C37.3099 37.4287 38.1422 37.1161 38.9988 36.8855C39.3542 36.7645 39.7417 36.7773 40.0884 36.9214C40.4351 37.0656 40.7171 37.3312 40.8815 37.6684C41.0423 38.0183 41.0687 38.415 40.9558 38.7832C40.8429 39.1513 40.5986 39.4652 40.2691 39.6653C39.6713 40.1168 39.025 40.5045 38.4001 40.9204L38.5006 41.1042C39.4254 40.6524 40.3487 40.197 41.2755 39.7501C41.7441 39.5242 42.2104 39.2865 42.6947 39.1016C43.0529 38.8973 43.4764 38.8393 43.8764 38.9399C44.2764 39.0404 44.6219 39.2917 44.8405 39.6411C45.0591 39.9904 45.1338 40.4107 45.0489 40.8138C44.964 41.2169 44.7262 41.5716 44.3852 41.8035C43.3294 42.6677 42.2136 43.4612 41.1 44.2521C39.5257 45.37 37.9291 46.4563 36.3449 47.56C36.1291 47.6969 35.9604 47.8965 35.8615 48.132C36.8216 47.785 37.7914 47.4627 38.7391 47.0843C39.8075 46.658 40.8498 46.1686 41.9146 45.7344C42.257 45.5999 42.6155 45.5108 42.981 45.4693C43.251 45.4156 43.5311 45.4492 43.7807 45.5651C44.0304 45.6809 44.2366 45.8732 44.3696 46.1139C44.5017 46.3539 44.5571 46.6286 44.5284 46.901C44.4997 47.1733 44.3883 47.4305 44.2091 47.6378L43.8641 48.113C44.1065 48.2009 44.3055 48.2633 44.4966 48.3444C44.7139 48.4232 44.8982 48.5728 45.0198 48.7691C45.1414 48.9653 45.1933 49.1968 45.1671 49.4261C45.1839 49.6705 45.1068 49.9121 44.9515 50.1017C44.7963 50.2914 44.5745 50.4148 44.3313 50.447C43.0103 50.7012 41.7522 51.2121 40.6284 51.9507C37.1829 53.6442 33.7601 55.384 30.3179 57.0846C29.6682 57.3856 29.0025 57.6506 28.3236 57.8783C27.9318 58.0554 27.4902 58.0897 27.0757 57.9752C26.6612 57.8608 26.3 57.6048 26.0549 57.2519C25.7878 56.9111 25.5682 56.9434 25.2239 57.0731C23.4993 57.7234 21.776 58.3808 20.0283 58.9642C19.5254 59.0907 19.0022 59.115 18.4898 59.0356C18.1605 59.0156 17.8455 58.8948 17.5875 58.6896C17.3294 58.4845 17.1409 58.205 17.0475 57.8891C16.9355 57.5799 16.9172 57.2447 16.9947 56.9251C17.0723 56.6056 17.2423 56.3159 17.4837 56.0922C17.8298 55.7866 18.142 55.4446 18.4148 55.0721C18.0116 55.2515 17.598 55.4063 17.176 55.5358C16.5423 55.7366 15.8853 55.8556 15.2213 55.8898C14.9086 55.9015 14.5988 55.8255 14.3271 55.6705C14.0553 55.5155 13.8325 55.2876 13.6837 55.0127C13.5348 54.7378 13.466 54.4268 13.485 54.1149C13.504 53.8029 13.61 53.5025 13.7911 53.2477L13.9613 52.9086C13.6989 52.9086 13.5013 52.8925 13.3073 52.9114C12.8919 53.0102 12.4562 52.9818 12.0571 52.8298C11.6581 52.6779 11.314 52.4095 11.0699 52.0595C10.9865 51.9988 10.889 51.9602 10.7867 51.9473C10.6843 51.9343 10.5803 51.9474 10.4843 51.9854C9.35449 52.6703 8.27658 53.4444 7.12506 54.0883C6.17112 54.631 5.16928 55.085 4.13216 55.4446C3.73312 55.574 3.30198 55.5647 2.9089 55.4183C2.51581 55.2718 2.18394 54.9969 1.96728 54.6381C1.76826 54.3981 1.49806 54.2274 1.19565 54.1507C0.881009 54.1025 0.584535 53.9727 0.335814 53.7743C0.0870936 53.5759 -0.105176 53.3159 -0.221809 53.0201C-0.338443 52.7243 -0.375361 52.4032 -0.328878 52.0887C-0.282396 51.7742 -0.154139 51.4774 0.0430926 51.2279C0.888097 50.2411 1.79138 49.3056 2.74812 48.4265C4.48133 46.6935 6.21958 44.9655 7.96288 43.2425C8.12156 43.0982 8.2276 42.9053 8.26426 42.6942C7.99451 42.8328 7.71706 42.956 7.43327 43.063C6.87311 43.2853 6.29027 43.4457 5.69517 43.5414C5.41864 43.586 5.13536 43.5615 4.87061 43.4701C4.60586 43.3788 4.36789 43.2234 4.17792 43.0178C3.98796 42.8123 3.85192 42.5629 3.78195 42.2921C3.71197 42.0212 3.71024 41.7373 3.77691 41.4656C3.84369 41.0467 3.69945 40.8936 3.35978 40.7313C3.11854 40.6436 2.89801 40.507 2.71196 40.3303C2.52591 40.1536 2.37835 39.9405 2.27848 39.7043C2.17861 39.4681 2.12858 39.2138 2.13151 38.9574C2.13444 38.701 2.19027 38.448 2.29552 38.2141C2.58085 37.4114 3.12026 36.7233 3.83211 36.2541C4.47124 35.782 5.0927 35.286 5.71015 34.8096C5.50333 34.5695 5.34973 34.2884 5.25943 33.9848C5.16913 33.6811 5.14419 33.3619 5.18623 33.048C5.22828 32.734 5.33636 32.4326 5.50339 32.1633C5.67041 31.8941 5.89259 31.6632 6.15533 31.4858C7.54709 30.0644 8.79565 28.4933 10.2604 27.1554C12.2748 25.3152 14.4139 23.6083 16.5354 21.8886C19.7635 19.2144 23.2817 16.9102 27.0242 15.0191C27.4101 14.8215 27.8071 14.6462 28.2132 14.4941C28.4262 14.4029 28.6647 14.3903 28.8862 14.4585C29.1076 14.5267 29.2976 14.6712 29.4222 14.8664C29.548 15.0473 29.6059 15.2667 29.5858 15.4861C29.5656 15.7054 29.4686 15.9106 29.3119 16.0656C29.1276 16.2783 28.9146 16.4642 28.6789 16.6181C26.8204 18.0085 24.9603 19.3965 23.0985 20.7821C22.9369 20.903 22.7944 21.0488 22.6431 21.1841L22.7467 21.317Z" fill="#829ED6"/>
</g>
<path d="M27 29C27 29.5523 26.5523 30 26 30C25.4477 30 25 29.5523 25 29C25 28.4477 25.4477 28 26 28C26.5523 28 27 28.4477 27 29Z" fill="black"/>
<path d="M35 29C35 29.5523 34.5523 30 34 30C33.4477 30 33 29.5523 33 29C33 28.4477 33.4477 28 34 28C34.5523 28 35 28.4477 35 29Z" fill="black"/>
<path d="M27 29L27 16C27 15.7348 26.8946 15.4804 26.7071 15.2929C26.5195 15.1054 26.2652 15 26 15H23.2453L30 7.49487L36.7547 15H34C33.7348 15 33.4805 15.1054 33.2929 15.2929C33.1054 15.4804 33 15.7348 33 16L33 29H35L35 17H39C39.1933 17 39.3825 16.944 39.5446 16.8387C39.7067 16.7334 39.8349 16.5834 39.9135 16.4068C39.9921 16.2303 40.0179 16.0347 39.9877 15.8437C39.9575 15.6528 39.8726 15.4747 39.7433 15.3311L30.7433 5.33105C30.6495 5.22686 30.5349 5.14354 30.4068 5.08651C30.2788 5.02947 30.1402 5 30 5C29.8598 5 29.7212 5.02947 29.5932 5.08651C29.4651 5.14354 29.3505 5.22686 29.2567 5.33105L20.2567 15.3311C20.1274 15.4747 20.0425 15.6528 20.0123 15.8437C19.9821 16.0347 20.0079 16.2303 20.0865 16.4068C20.1651 16.5834 20.2933 16.7334 20.4554 16.8387C20.6175 16.944 20.8067 17 21 17H25L25 29H27Z" fill="black"/>
<path d="M24 49C24 49.5523 23.5523 50 23 50C22.4477 50 22 49.5523 22 49C22 48.4477 22.4477 48 23 48C23.5523 48 24 48.4477 24 49Z" fill="black"/>
<path d="M18 53C18 53.5523 17.5523 54 17 54C16.4477 54 16 53.5523 16 53C16 52.4477 16.4477 52 17 52C17.5523 52 18 52.4477 18 53Z" fill="black"/>
<path d="M10.3311 46.7433C10.4747 46.8726 10.6528 46.9575 10.8437 46.9877C11.0347 47.0179 11.2303 46.9921 11.4068 46.9135C11.5834 46.8349 11.7334 46.7067 11.8387 46.5446C11.944 46.3825 12 46.1933 12 46V42H15C15.2651 42.0003 15.5193 42.1058 15.7068 42.2932C15.8942 42.4807 15.9997 42.7349 16 43V53H18V43C17.9991 42.2046 17.6827 41.4421 17.1203 40.8797C16.5579 40.3173 15.7954 40.0009 15 40H11C10.7348 40 10.4804 40.1054 10.2929 40.2929C10.1054 40.4805 10 40.7348 10 41V43.7547L2.49487 37L10 30.2453V33C10 33.2652 10.1054 33.5195 10.2929 33.7071C10.4804 33.8946 10.7348 34 11 34H16C17.5908 34.0018 19.1158 34.6345 20.2407 35.7593C21.3655 36.8842 21.9982 38.4093 22 40V49H24V40C23.9976 37.879 23.154 35.8456 21.6542 34.3458C20.1544 32.846 18.121 32.0024 16 32H12V28C12 27.8067 11.944 27.6175 11.8387 27.4554C11.7334 27.2933 11.5834 27.1651 11.4068 27.0865C11.2303 27.0079 11.0347 26.9821 10.8437 27.0123C10.6528 27.0425 10.4747 27.1274 10.3311 27.2567L0.331055 36.2567C0.226857 36.3505 0.143539 36.4651 0.0865057 36.5932C0.0294728 36.7212 0 36.8598 0 37C0 37.1402 0.0294728 37.2788 0.0865057 37.4068C0.143539 37.5349 0.226857 37.6495 0.331055 37.7433L10.3311 46.7433Z" fill="black"/>
<path d="M44 53C44 53.5523 43.5523 54 43 54C42.4477 54 42 53.5523 42 53C42 52.4477 42.4477 52 43 52C43.5523 52 44 52.4477 44 53Z" fill="black"/>
<path d="M38 49C38 49.5523 37.5523 50 37 50C36.4477 50 36 49.5523 36 49C36 48.4477 36.4477 48 37 48C37.5523 48 38 48.4477 38 49Z" fill="black"/>
<path d="M59.6689 36.2567L49.6689 27.2567C49.5253 27.1274 49.3472 27.0425 49.1563 27.0123C48.9653 26.9821 48.7697 27.0079 48.5932 27.0865C48.4166 27.1651 48.2666 27.2933 48.1613 27.4554C48.056 27.6175 48 27.8067 48 28V32H44C41.879 32.0024 39.8456 32.846 38.3458 34.3458C36.846 35.8455 36.0024 37.879 36 40V49H38V40C38.0018 38.4092 38.6345 36.8841 39.7593 35.7593C40.8842 34.6345 42.4092 34.0018 44 34H49C49.2652 34 49.5196 33.8946 49.7071 33.7071C49.8946 33.5195 50 33.2652 50 33V30.2453L57.5051 37L50 43.7546V41C50 40.7348 49.8946 40.4804 49.7071 40.2929C49.5196 40.1054 49.2652 40 49 40H45C44.2046 40.0009 43.4421 40.3173 42.8797 40.8797C42.3173 41.4421 42.0009 42.2046 42 43V53H44V43C44.0003 42.7349 44.1058 42.4807 44.2932 42.2932C44.4807 42.1057 44.7349 42.0003 45 42H48V46C48 46.1933 48.056 46.3825 48.1613 46.5446C48.2666 46.7067 48.4166 46.8349 48.5931 46.9135C48.7697 46.9921 48.9653 47.0179 49.1563 46.9877C49.3472 46.9575 49.5253 46.8726 49.6689 46.7433L59.6689 37.7433C59.7731 37.6495 59.8565 37.5349 59.9135 37.4068C59.9705 37.2788 60 37.1402 60 37C60 36.8598 59.9705 36.7212 59.9135 36.5931C59.8565 36.4651 59.7731 36.3505 59.6689 36.2567Z" fill="black"/>
<defs>
<clipPath id="clip0">
<rect width="60" height="60" fill="white"/>
</clipPath>
</defs>
</svg>
