<svg width="60" height="60" viewBox="0 0 60 60" fill="none" xmlns="http://www.w3.org/2000/svg">
<g clip-path="url(#clip0)">
<path d="M23.5471 23.8216C23.4003 23.4734 23.2914 23.2509 23.211 23.0183C23.0932 22.7514 23.0489 22.4577 23.0828 22.1678C23.1168 21.8778 23.2276 21.6021 23.4038 21.3692C23.5801 21.1363 23.8153 20.9547 24.0852 20.8432C24.3551 20.7317 24.6498 20.6944 24.9387 20.7352C25.6105 20.717 26.2808 20.6608 26.9464 20.567L26.9382 20.3461C26.2233 20.264 25.5073 20.1836 24.7923 20.0979C24.2962 20.0384 23.799 19.9835 23.3057 19.9053C22.2896 19.7442 21.7405 19.2326 21.7249 18.4544C21.7455 17.9999 21.9169 17.565 22.2121 17.2184C22.5074 16.8719 22.9096 16.6336 23.3551 16.5411C23.9412 16.436 24.5288 16.339 25.1146 16.2321C25.2635 16.2074 25.3969 16.1252 25.486 16.0032C25.2704 15.9732 25.0558 15.9275 24.8392 15.9158C23.1505 15.824 21.4604 15.7551 19.7732 15.6421C19.2189 15.6354 18.6701 15.5336 18.1505 15.3411C17.9295 15.2519 17.7353 15.1073 17.5866 14.9213C17.4378 14.7352 17.3395 14.5138 17.3012 14.2786C17.2628 14.0434 17.2856 13.8021 17.3675 13.5781C17.4493 13.3541 17.5874 13.1548 17.7685 12.9995C18.1671 12.674 18.6144 12.4132 19.094 12.2267C19.351 12.1081 19.4865 12.0166 19.4929 11.7007C19.5019 11.4327 19.5649 11.1693 19.6782 10.9262C19.7914 10.683 19.9525 10.4651 20.1518 10.2856C20.3512 10.1061 20.5847 9.96868 20.8383 9.8815C21.0919 9.79432 21.3604 9.75922 21.6277 9.7783C23.1364 9.75725 24.6434 9.59963 26.151 9.50095L26.1617 9.33413L25.5406 9.1479C25.1846 9.05438 24.8722 8.83994 24.6571 8.54128C24.442 8.24263 24.3374 7.87833 24.3614 7.51076C24.3774 7.13977 24.5294 6.78745 24.7883 6.52095C25.0472 6.25445 25.3949 6.09239 25.7653 6.06566C26.6825 5.99568 27.6079 6.00633 28.5288 6.02683C33.0256 6.12703 37.5223 6.23534 42.0189 6.35174C45.2662 6.43 48.5137 6.50409 51.7613 6.57398C52.0478 6.56658 52.3318 6.51742 52.6043 6.42805C52.8125 6.33637 53.0379 6.29036 53.2652 6.29311C53.4926 6.29586 53.7167 6.34732 53.9224 6.44402C54.128 6.54071 54.3105 6.68039 54.4576 6.85365C54.6046 7.02692 54.7128 7.22974 54.7748 7.44845C54.8564 7.69107 54.8886 7.94765 54.8695 8.20305C54.8505 8.45846 54.7805 8.70753 54.6637 8.9356C54.5469 9.16366 54.3857 9.36612 54.1895 9.53102C53.9934 9.69593 53.7663 9.81994 53.5216 9.89578C52.7324 10.0677 51.9342 10.1957 51.1309 10.2793C50.6634 10.3345 50.4418 10.4411 50.5583 10.9937C50.5742 11.4 50.5303 11.8066 50.428 12.2004C51.3311 12.2032 52.2297 12.1468 53.115 12.2298C53.717 12.2873 54.3029 12.4558 54.8432 12.7267C55.1174 12.8584 55.3373 13.0813 55.4653 13.3572C55.5934 13.6332 55.6217 13.9451 55.5454 14.2399C55.495 14.548 55.3474 14.832 55.1242 15.0503C54.901 15.2687 54.6138 15.41 54.3047 15.4535C52.9247 15.7112 51.5405 15.9488 50.1589 16.1952L46.7122 16.81L46.719 16.9665C47.338 16.9949 47.961 16.9887 48.5747 17.0612C49.2618 17.1198 49.9417 17.2435 50.6052 17.4307C50.8631 17.4818 51.1045 17.5956 51.3078 17.7621C51.5112 17.9286 51.6704 18.1427 51.7713 18.3854C51.8723 18.6282 51.9118 18.8922 51.8865 19.154C51.8612 19.4159 51.7719 19.6676 51.6263 19.8869C51.5808 20.0066 51.5418 20.1286 51.5094 20.2526C51.8715 20.3344 52.2066 20.3962 52.5333 20.4876C52.8659 20.5579 53.1655 20.737 53.3849 20.9965C53.6042 21.2561 53.7309 21.5814 53.7449 21.9212C53.7535 22.2713 53.6449 22.6144 53.4363 22.896C53.2276 23.1775 52.931 23.3814 52.5934 23.4751C52.2796 23.5668 51.9588 23.6322 51.6342 23.6707C50.2635 23.8682 48.8913 24.0551 47.52 24.2488C47.3541 24.2622 47.2 24.3402 47.0907 24.4659L49.5807 24.5266C50.6182 24.5532 51.662 24.5238 52.6912 24.6309C53.2601 24.7074 53.808 24.8962 54.3031 25.1863C54.5778 25.3347 54.7986 25.566 54.934 25.8475C55.0693 26.1289 55.1124 26.4459 55.057 26.7535C55.0267 27.0735 54.8988 27.3765 54.6907 27.6216C54.4827 27.8668 54.2045 28.0423 53.8937 28.1243C53.3128 28.3064 52.7081 28.4124 52.1139 28.552L52.1177 28.6972C52.5191 28.6961 52.9206 28.6918 53.322 28.6945C54.301 28.7008 55.2833 28.6628 56.2577 28.7324C56.6535 28.7626 57.0249 28.935 57.3031 29.2179C57.5813 29.5007 57.7476 29.8749 57.7712 30.2712C57.7948 30.6675 57.6742 31.0591 57.4316 31.3738C57.189 31.6884 56.8408 31.9047 56.4515 31.9827C54.8147 32.2006 53.1638 32.3337 51.5147 32.4313C48.8851 32.5869 46.2522 32.6839 43.6208 32.8085C43.3891 32.8172 43.1599 32.8593 42.9402 32.9337C43.6746 33.3225 44.5948 33.5381 44.461 34.6257C44.3513 35.5188 43.5735 35.6937 42.8703 36.0363C43.0957 36.0579 43.3208 36.0947 43.5461 36.0982C46.8519 36.1534 50.158 36.2063 53.4643 36.2571C53.9449 36.265 54.4275 36.2625 54.905 36.3086C55.307 36.3353 55.7041 36.4112 56.0876 36.5344C56.3993 36.6143 56.6717 36.804 56.8546 37.0687C57.0375 37.3334 57.1186 37.6554 57.0831 37.9754C57.0417 38.3052 56.8824 38.6091 56.6347 38.8309C56.3869 39.0527 56.0675 39.1775 55.7352 39.1824C54.7975 39.2745 53.8562 39.3334 52.9159 39.3913C45.9474 39.8273 38.9598 39.8477 31.9901 39.4525C28.6317 39.2588 25.276 39.0163 21.9208 38.7718C21.2505 38.7097 20.5853 38.6012 19.9302 38.447C19.561 38.3312 19.2015 38.1866 18.8551 38.0143C19.02 37.8764 19.1989 37.7561 19.3889 37.6555C19.6562 37.5456 19.9388 37.4774 20.2267 37.4532C21.0251 37.4399 21.5701 37.2691 21.6555 36.287C21.7148 35.6057 22.4185 35.2553 23.2012 35.2825C23.4305 35.3032 23.6613 35.3016 23.8903 35.2775C24.9626 35.1174 26.0239 34.8905 27.0681 34.5981C26.3079 34.4867 25.5505 34.3504 24.787 34.2703C23.7747 34.164 22.7589 34.0787 21.7423 34.026C21.262 34.0911 20.7752 33.9707 20.381 33.6894C19.9868 33.4081 19.7148 32.987 19.6203 32.5118C19.5599 32.4247 19.4805 32.3524 19.3882 32.3003C19.2958 32.2483 19.1929 32.2177 19.0871 32.211C18.1271 32.1682 17.1649 32.1729 16.2039 32.1551C15.9545 32.1572 15.7053 32.1399 15.4587 32.1034C15.1498 32.065 14.8602 31.9326 14.6292 31.7242C14.3982 31.5158 14.2369 31.2413 14.1671 30.938C14.0659 30.6412 14.0674 30.319 14.1713 30.0229C14.2752 29.7268 14.4754 29.474 14.7399 29.3051C15.2665 28.9602 15.8561 28.723 16.4746 28.6072C18.5257 28.2884 20.591 28.0609 22.6507 27.7965C22.8102 27.7761 22.9677 27.7401 23.1999 27.6978C21.6883 27.0656 21.2843 26.5839 21.3764 25.4688C21.4798 24.2174 22.3195 23.8073 23.5471 23.8216Z" fill="#F59595"/>
</g>
<path fill-rule="evenodd" clip-rule="evenodd" d="M54.5787 16.1111C54.8534 16.5222 55 17.0055 55 17.5C55 18.163 54.7366 18.7989 54.2678 19.2678C53.7989 19.7366 53.163 20 52.5 20C52.0055 20 51.5222 19.8534 51.1111 19.5787C50.7 19.304 50.3795 18.9135 50.1903 18.4567C50.0011 17.9999 49.9516 17.4972 50.048 17.0123C50.1445 16.5273 50.3826 16.0819 50.7322 15.7322C51.0819 15.3826 51.5273 15.1445 52.0123 15.048C52.4972 14.9516 52.9999 15.0011 53.4567 15.1903C53.9135 15.3795 54.304 15.7 54.5787 16.1111ZM51.8071 17.037C51.7155 17.1741 51.6667 17.3352 51.6667 17.5C51.6667 17.721 51.7545 17.933 51.9107 18.0893C52.067 18.2455 52.279 18.3333 52.5 18.3333C52.6648 18.3333 52.8259 18.2845 52.963 18.1929C53.1 18.1013 53.2068 17.9712 53.2699 17.8189C53.333 17.6666 53.3495 17.4991 53.3173 17.3374C53.2852 17.1758 53.2058 17.0273 53.0893 16.9107C52.9727 16.7942 52.8242 16.7148 52.6626 16.6827C52.5009 16.6505 52.3334 16.667 52.1811 16.7301C52.0288 16.7932 51.8987 16.9 51.8071 17.037Z" fill="black"/>
<path fill-rule="evenodd" clip-rule="evenodd" d="M31.0679 24.1538C32.1643 24.1527 33.2337 23.8112 34.1297 23.176C34.7054 23.7762 35.4915 24.1265 36.3205 24.1523C37.1494 24.178 37.9556 23.8772 38.5671 23.3138C38.9563 23.6722 39.4281 23.9277 39.9399 24.0573C40.4518 24.1869 40.9877 24.1865 41.4994 24.0562C41.6013 24.0302 41.7016 23.9993 41.8 23.9635V49.8602C41.8 50.4401 42.2701 50.9102 42.85 50.9102C43.4299 50.9102 43.9 50.4401 43.9 49.8602V22H46.3469C47.2748 23.3394 48.61 24.3399 50.152 24.8511C51.6939 25.3623 53.3593 25.3567 54.8978 24.835C56.4363 24.3133 57.7648 23.3038 58.6836 21.9581C59.6025 20.6124 60.062 19.0033 59.9933 17.3726C59.9245 15.7419 59.3311 14.1777 58.3022 12.9151C57.2733 11.6524 55.8646 10.7595 54.2877 10.3706C52.7108 9.98174 51.0509 10.1178 49.5576 10.7584C48.2166 11.3336 47.0749 12.2878 46.2681 13.5H43.9236V13.3846C43.9257 12.76 43.7469 12.1483 43.409 11.6242C43.0711 11.1001 42.5887 10.6861 42.0207 10.433C41.4527 10.1798 40.8237 10.0983 40.2104 10.1985C39.5971 10.2987 39.0261 10.5762 38.5671 10.9971C37.9844 10.4541 37.2189 10.1528 36.4244 10.1538C35.6307 10.1571 34.8668 10.4578 34.2818 10.9971C33.6992 10.4541 32.9337 10.1528 32.1392 10.1538C31.3455 10.1571 30.5815 10.4578 29.9966 10.9971C29.414 10.4541 28.6485 10.1528 27.854 10.1538C27.0016 10.1538 26.1841 10.4942 25.5814 11.1001C24.9787 11.706 24.6401 12.5278 24.6401 13.3846H17.052C16.7968 11.8797 16.0206 10.514 14.8607 9.52868C13.7008 8.54336 12.2317 8.00191 10.7131 8H6.42784C4.72359 8.00171 3.08964 8.68303 1.88455 9.89443C0.679465 11.1058 0.0017017 12.7484 0 14.4615C0 14.7472 0.11287 15.0211 0.313779 15.223C0.514688 15.425 0.787179 15.5385 1.07131 15.5385H9.64176V19.8462H1.07131C0.787179 19.8462 0.514688 19.9596 0.313779 20.1616C0.11287 20.3635 0 20.6375 0 20.9231C0.0017017 22.6363 0.679465 24.2788 1.88455 25.4902C3.08964 26.7016 4.72359 27.3829 6.42784 27.3846H10.7131C12.4173 27.3829 14.0513 26.7016 15.2564 25.4902C16.3017 24.4394 16.9502 23.0643 17.1049 21.6H19.3664C19.311 21.9378 19.283 22.2815 19.2835 22.6278C19.2845 23.7982 19.5555 24.9524 20.0752 25.9997L23.5688 33.0234V49.9231C23.5688 50.2087 23.6816 50.4826 23.8825 50.6846C24.0834 50.8865 24.3559 51 24.6401 51C24.9242 51 25.1967 50.8865 25.3976 50.6846C25.5985 50.4826 25.7114 50.2087 25.7114 49.9231V32.7692C25.7115 32.6022 25.673 32.4374 25.5989 32.2878L21.9918 25.0369C21.621 24.2885 21.4274 23.464 21.4261 22.6278C21.427 22.0354 21.5543 21.45 21.7996 20.9113C22.0448 20.3726 22.4022 19.8931 22.8477 19.5051C23.2931 19.1172 23.8162 18.8299 24.3815 18.6626C24.9469 18.4953 25.5414 18.452 26.1249 18.5355L34.1501 19.6889C33.952 20.3562 33.5452 20.9415 32.9899 21.3578C32.4347 21.7742 31.7606 21.9994 31.0679 22H25.7114C25.4272 22 25.1547 22.1135 24.9538 22.3154C24.7529 22.5174 24.6401 22.7913 24.6401 23.0769C24.6401 23.3625 24.7529 23.6365 24.9538 23.8384C25.1547 24.0404 25.4272 24.1538 25.7114 24.1538C26.8479 24.1538 27.9378 24.6077 28.7415 25.4155C29.5451 26.2234 29.9966 27.3191 29.9966 28.4615C29.9966 28.7472 30.1095 29.0211 30.3104 29.223C30.5113 29.425 30.7838 29.5385 31.0679 29.5385C31.352 29.5385 31.6245 29.425 31.8254 29.223C32.0263 29.0211 32.1392 28.7472 32.1392 28.4615C32.1402 26.8711 31.5556 25.3367 30.498 24.1538H31.0679ZM43.9236 15.5V19.8462H46.9329C47.1208 19.8463 47.3053 19.8962 47.4679 19.9907C47.6306 20.0852 47.7656 20.2211 47.8596 20.3846C48.4491 21.4111 49.3592 22.2134 50.4486 22.667C51.538 23.1207 52.7459 23.2002 53.8848 22.8934C55.0238 22.5867 56.0303 21.9106 56.7481 20.9703C57.4659 20.0299 57.855 18.8776 57.855 17.6923C57.855 16.507 57.4659 15.3548 56.7481 14.4144C56.0303 13.474 55.0238 12.798 53.8848 12.4912C52.7459 12.1844 51.538 12.264 50.4486 12.7176C49.3592 13.1712 48.4491 13.9735 47.8596 15C47.7113 15.2344 47.4787 15.4022 47.2104 15.4683C47.1221 15.49 47.0321 15.5002 46.9427 15.4991C46.9285 15.4997 46.9143 15.5 46.9 15.5H43.9236ZM15 20.6C15 20.6521 15.004 20.7034 15.0117 20.7533C15.0028 20.8091 14.9983 20.8659 14.9983 20.9231C14.9983 22.0655 14.5468 23.1612 13.7432 23.9691C12.9395 24.7769 11.8496 25.2308 10.7131 25.2308H6.42784C5.47806 25.2294 4.55553 24.9115 3.80459 24.3269C3.05364 23.7423 2.51664 22.924 2.2776 22H9.64176C10.21 22 10.755 21.7731 11.1568 21.3692C11.5586 20.9652 11.7844 20.4174 11.7844 19.8462V15.5385C11.7844 14.9672 11.5586 14.4194 11.1568 14.0155C10.755 13.6115 10.21 13.3846 9.64176 13.3846H2.2776C2.51664 12.4606 3.05364 11.6423 3.80459 11.0577C4.55553 10.4731 5.47806 10.1553 6.42784 10.1538H10.7131C11.8496 10.1538 12.9395 10.6077 13.7432 11.4155C14.5468 12.2234 14.9983 13.3191 14.9983 14.4615C14.9983 14.7472 15.1112 15.0211 15.3121 15.223C15.513 15.425 15.7855 15.5385 16.0696 15.5385H24.6401V16.4108C23.1519 16.6244 21.7904 17.371 20.8063 18.5133C20.5157 18.8505 20.2638 19.2155 20.0531 19.6014C20.0355 19.6005 20.0178 19.6 20 19.6H16C15.4477 19.6 15 20.0477 15 20.6ZM40.7097 12.3077C40.9938 12.3077 41.2663 12.4212 41.4672 12.6231C41.6681 12.8251 41.781 13.099 41.781 13.3846V20.9231C41.781 21.2087 41.6681 21.4826 41.4672 21.6846C41.2663 21.8865 40.9938 22 40.7097 22C40.4255 22 40.153 21.8865 39.9521 21.6846C39.7512 21.4826 39.6384 21.2087 39.6384 20.9231V13.3846C39.6384 13.099 39.7512 12.8251 39.9521 12.6231C40.153 12.4212 40.4255 12.3077 40.7097 12.3077ZM36.4244 12.3077C36.5672 12.3072 36.7086 12.3362 36.8398 12.3929C36.971 12.4496 37.0893 12.5328 37.1872 12.6372C37.2861 12.7344 37.3645 12.8508 37.4175 12.9792C37.4705 13.1077 37.4971 13.2456 37.4957 13.3846V20.9231C37.4957 21.2087 37.3829 21.4826 37.182 21.6846C36.9811 21.8865 36.7086 22 36.4244 22C36.2668 21.9982 36.1116 21.9611 35.97 21.8914C35.8285 21.8217 35.7041 21.7212 35.606 21.5972C36.1374 20.7505 36.421 19.7704 36.4244 18.7692C36.4245 18.5101 36.3315 18.2596 36.1627 18.0638C35.9939 17.8679 35.7604 17.7399 35.5053 17.7031L35.3531 17.6815V13.3846C35.3531 13.099 35.466 12.8251 35.6669 12.6231C35.8678 12.4212 36.1403 12.3077 36.4244 12.3077ZM32.1392 12.3077C32.282 12.3072 32.4234 12.3362 32.5546 12.3929C32.6858 12.4496 32.804 12.5328 32.902 12.6372C33.0009 12.7344 33.0792 12.8508 33.1323 12.9792C33.1853 13.1077 33.2119 13.2456 33.2105 13.3846V17.3692L31.0679 17.0623V13.3846C31.0679 13.099 31.1808 12.8251 31.3817 12.6231C31.5826 12.4212 31.8551 12.3077 32.1392 12.3077ZM26.7827 13.3846C26.7827 13.099 26.8955 12.8251 27.0965 12.6231C27.2974 12.4212 27.5699 12.3077 27.854 12.3077C27.9968 12.3072 28.1382 12.3362 28.2694 12.3929C28.4006 12.4496 28.5188 12.5328 28.6168 12.6372C28.7157 12.7344 28.794 12.8508 28.847 12.9792C28.9001 13.1077 28.9267 13.2456 28.9253 13.3846V16.7586L26.7827 16.4506V13.3846Z" fill="black"/>
<defs>
<clipPath id="clip0">
<rect width="60" height="60" fill="white"/>
</clipPath>
</defs>
</svg>
