<svg width="83" height="42" viewBox="0 0 83 42" fill="none" xmlns="http://www.w3.org/2000/svg">
<g clip-path="url(#clip0)">
<path d="M56.7935 5.50586C58.035 5.39704 59.2746 5.25496 60.5182 5.18591C63.5247 5.01909 66.5331 4.88698 69.5407 4.73869C69.757 4.7388 69.9728 4.71768 70.1849 4.67563C70.6192 4.55659 71.0811 4.58891 71.4945 4.76727C71.908 4.94562 72.2485 5.25939 72.4599 5.65697C72.6007 5.84444 72.6978 6.06099 72.7442 6.29079C72.7907 6.5206 72.7852 6.75786 72.7282 6.98528C72.6712 7.21269 72.5642 7.42452 72.4149 7.60529C72.2656 7.78606 72.0778 7.93121 71.8653 8.03016C71.7448 8.09982 71.6393 8.19263 71.5548 8.30324C71.4703 8.41386 71.4086 8.54009 71.3731 8.67468C71.346 9.08114 71.1787 9.4656 70.8996 9.76235C70.6206 10.0591 70.2471 10.2497 69.8431 10.3017C68.5249 10.5356 67.1953 10.7056 65.8705 10.899C65.3748 10.9709 64.8771 11.0351 64.3803 11.1027L64.4044 11.2849C65.7354 11.2125 67.0667 11.1296 68.3987 11.0725C69.1558 11.0402 69.9147 11.05 70.6728 11.0417L70.9327 11.0492C71.3935 11.0285 71.8462 11.1752 72.2074 11.4621C72.5686 11.7491 72.8138 12.1569 72.8979 12.6105C72.9132 13.0761 72.7433 13.5289 72.4254 13.8694C72.1075 14.21 71.6675 14.4106 71.2019 14.4273C69.1125 14.802 66.9868 14.983 64.9057 15.3937C59.5907 16.4429 54.2924 17.5727 48.9878 18.6733C48.8258 18.7023 48.6798 18.7894 48.5773 18.9183C49.1378 18.8573 49.6991 18.8045 50.2585 18.7342C54.6974 18.0673 59.1755 17.6939 63.6636 17.6165C65.0255 17.6344 66.3837 17.7621 67.7251 17.9985C68.1769 18.0338 68.6004 18.2326 68.9163 18.5576C69.2322 18.8826 69.4188 19.3115 69.4412 19.7642C69.4525 20.2148 69.3126 20.6562 69.0437 21.0179C68.7748 21.3797 68.3925 21.641 67.9578 21.7601C67.2084 22.0215 66.397 22.1014 65.6202 22.2906C65.3885 22.3474 65.0412 22.451 64.982 22.617C64.7755 23.0888 64.4356 23.49 64.0042 23.7713C63.5729 24.0526 63.0687 24.2018 62.5537 24.2006C59.1564 24.775 55.7498 25.2958 52.3475 25.8415C52.0346 25.8917 51.7268 25.9747 51.4167 26.0425L51.4229 26.2026C52.119 26.2687 52.8141 26.3774 53.5113 26.3934C56.0665 26.4517 58.6231 26.4545 61.1776 26.532C62.0631 26.561 62.9437 26.6754 63.8071 26.8737C64.1773 26.9336 64.5129 27.1267 64.7508 27.4166C64.9887 27.7065 65.1126 28.0733 65.0991 28.4481C65.0764 28.8324 64.9134 29.195 64.6409 29.4671C64.3684 29.7391 64.0055 29.9016 63.6211 29.9236C62.882 30.0418 62.1302 30.0808 61.3839 30.1549L61.3861 30.3642C62.4136 30.3992 63.4415 30.4303 64.4685 30.4706C64.9877 30.4911 65.5104 30.5 66.0243 30.5639C66.436 30.5515 66.8366 30.699 67.142 30.9755C67.4474 31.2519 67.6339 31.6359 67.6625 32.0468C67.691 32.4577 67.5594 32.8638 67.2952 33.1798C67.031 33.4959 66.6548 33.6974 66.2453 33.7421C64.9085 34.0097 63.5521 34.1868 62.1988 34.3626C60.2859 34.6109 58.3681 34.8209 56.453 35.0521C56.1984 35.0717 55.9559 35.1687 55.7581 35.3302C56.7675 35.4742 57.7739 35.6447 58.787 35.7553C59.9292 35.8801 61.078 35.937 62.2207 36.0533C62.5856 36.0952 62.9435 36.1847 63.2853 36.3195C63.5485 36.3988 63.7797 36.5598 63.9453 36.7792C64.1109 36.9987 64.2025 37.2651 64.2066 37.54C64.2103 37.8139 64.1301 38.0823 63.9768 38.3093C63.8236 38.5363 63.6046 38.711 63.3492 38.81L62.8218 39.0676C62.9942 39.259 63.1404 39.4074 63.2708 39.5686C63.4252 39.7401 63.5174 39.9587 63.5324 40.189C63.5475 40.4193 63.4845 40.648 63.3536 40.8381C63.2536 41.0617 63.0722 41.2388 62.8462 41.3334C62.6203 41.428 62.3668 41.4329 62.1373 41.3472C60.8533 40.9519 59.5041 40.8127 58.1665 40.9376C54.3335 40.8162 50.4988 40.7464 46.6654 40.6329C45.9513 40.5938 45.2399 40.5154 44.5345 40.398C44.1059 40.3705 43.7005 40.1936 43.3888 39.8981C43.0772 39.6026 42.879 39.2072 42.8287 38.7807C42.7533 38.3545 42.5446 38.28 42.1802 38.233C40.3543 37.9981 38.5263 37.77 36.7115 37.4651C36.2087 37.3409 35.7361 37.1169 35.3216 36.8064C35.0408 36.6342 34.8199 36.3798 34.6887 36.0777C34.5576 35.7755 34.5228 35.4403 34.5888 35.1177C34.6354 34.7922 34.7767 34.4876 34.9952 34.2419C35.2136 33.9962 35.4996 33.8202 35.8174 33.736C36.2662 33.6286 36.7021 33.4731 37.1175 33.2723C36.6778 33.2415 36.2404 33.1841 35.8077 33.1005C35.1546 32.9804 34.5196 32.7773 33.9181 32.496C33.6369 32.3596 33.3996 32.1472 33.2328 31.8829C33.0661 31.6186 32.9767 31.3129 32.9746 31.0004C32.9726 30.6879 33.058 30.381 33.2213 30.1146C33.3846 29.8481 33.6192 29.6327 33.8985 29.4926L34.2078 29.2731C33.9765 29.1501 33.8099 29.0431 33.63 28.9688C33.2173 28.8611 32.8466 28.6317 32.5662 28.3103C32.2858 27.989 32.1086 27.5906 32.0578 27.1671C32.0127 27.0745 31.945 26.9947 31.8608 26.9352C31.7766 26.8757 31.6788 26.8385 31.5764 26.827C30.2586 26.9016 28.9447 27.0793 27.6271 27.1075C26.5312 27.1391 25.4347 27.0699 24.3515 26.9009C23.9389 26.8279 23.5632 26.6174 23.2855 26.3038C23.0077 25.9901 22.8444 25.5916 22.8219 25.1733C22.7592 24.868 22.6012 24.5906 22.3706 24.381C22.1159 24.1908 21.9155 23.9372 21.7894 23.6454C21.6634 23.3536 21.6161 23.0338 21.6522 22.718C21.6883 22.4021 21.8066 22.1013 21.9953 21.8455C22.184 21.5897 22.4365 21.3879 22.7276 21.2601C23.9361 20.7854 25.1719 20.3833 26.4283 20.056C28.7703 19.3392 31.1145 18.6292 33.4607 17.926C33.6684 17.8731 33.8525 17.7526 33.984 17.5834C33.6811 17.5792 33.3786 17.5578 33.0782 17.5192C32.4799 17.4526 31.8908 17.3208 31.3212 17.1261C31.0565 17.0357 30.8182 16.8812 30.6278 16.6763C30.4373 16.4715 30.3005 16.2227 30.2296 15.9521C30.1587 15.6815 30.1559 15.3976 30.2215 15.1256C30.287 14.8537 30.4189 14.6023 30.6053 14.3937C30.8609 14.0552 30.8057 13.8524 30.5825 13.5498C30.4111 13.3591 30.2808 13.1352 30.1998 12.8919C30.1188 12.6486 30.0888 12.3912 30.1117 12.1359C30.1347 11.8805 30.21 11.6326 30.333 11.4076C30.4561 11.1826 30.6241 10.9855 30.8268 10.8284C31.4554 10.2536 32.2542 9.89923 33.1022 9.81892C33.8874 9.70197 34.6682 9.55566 35.4364 9.42475C35.3668 9.11576 35.3635 8.79555 35.4265 8.48517C35.4895 8.17479 35.6175 7.88125 35.8021 7.62385C35.9866 7.36645 36.2235 7.151 36.4972 6.99167C36.7709 6.83234 37.0753 6.73274 37.3902 6.69939C39.2849 6.09751 41.1236 5.29632 43.0434 4.80233C45.6837 4.12286 48.3713 3.61947 51.0495 3.09661C55.1515 2.2502 59.3355 1.86655 63.523 1.95285C63.9561 1.95946 64.3884 1.99096 64.8179 2.04718C65.0484 2.0666 65.2646 2.16734 65.4278 2.33142C65.591 2.4955 65.6906 2.71223 65.7087 2.94293C65.7347 3.16167 65.6827 3.38254 65.5618 3.56672C65.441 3.7509 65.2591 3.88658 65.0482 3.9499C64.7858 4.05115 64.5106 4.11534 64.2306 4.14061C61.939 4.49626 59.6472 4.84895 57.355 5.19866C57.1557 5.2296 56.9616 5.2915 56.7647 5.33993L56.7935 5.50586Z" fill="#EF7B5F"/>
<path d="M80.9219 13.5484H75.4844V9.48387C75.4844 8.40589 75.0547 7.37207 74.2899 6.60982C73.5251 5.84758 72.4878 5.41935 71.4062 5.41935H68.6875C68.2234 5.42385 67.7635 5.50818 67.3281 5.66865V4.06452C67.3281 2.98654 66.8985 1.95271 66.1337 1.19047C65.3689 0.428224 64.3316 0 63.25 0H60.5312C59.4497 0 58.4124 0.428224 57.6476 1.19047C56.8828 1.95271 56.4531 2.98654 56.4531 4.06452V13.5484H26.5469V5.41935C26.5469 4.34138 26.1172 3.30755 25.3524 2.54531C24.5876 1.78306 23.5503 1.35484 22.4688 1.35484H19.75C18.6684 1.35484 17.6311 1.78306 16.8663 2.54531C16.1015 3.30755 15.6719 4.34138 15.6719 5.41935V7.02348C15.2365 6.86302 14.7766 6.77868 14.3125 6.77419H11.5938C10.5122 6.77419 9.47488 7.20242 8.71008 7.96466C7.94528 8.72691 7.51562 9.76073 7.51562 10.8387V13.5484H2.07812C1.7176 13.5484 1.37183 13.6911 1.1169 13.9452C0.861969 14.1993 0.71875 14.5439 0.71875 14.9032V28.4516C0.71875 28.8109 0.861969 29.1555 1.1169 29.4096C1.37183 29.6637 1.7176 29.8065 2.07812 29.8065H7.51562V33.871C7.51562 34.9489 7.94528 35.9828 8.71008 36.745C9.47488 37.5073 10.5122 37.9355 11.5938 37.9355H14.3125C14.7766 37.931 15.2365 37.8467 15.6719 37.6862V37.9355C15.6719 39.0135 16.1015 40.0473 16.8663 40.8095C17.6311 41.5718 18.6684 42 19.75 42H22.4688C23.5503 42 24.5876 41.5718 25.3524 40.8095C26.1172 40.0473 26.5469 39.0135 26.5469 37.9355V29.8065H56.4531V36.5806C56.4531 37.6586 56.8828 38.6924 57.6476 39.4547C58.4124 40.2169 59.4497 40.6452 60.5312 40.6452H63.25C64.3316 40.6452 65.3689 40.2169 66.1337 39.4547C66.8985 38.6924 67.3281 37.6586 67.3281 36.5806V36.3314C67.7635 36.4918 68.2234 36.5762 68.6875 36.5806H71.4062C72.4878 36.5806 73.5251 36.1524 74.2899 35.3902C75.0547 34.6279 75.4844 33.5941 75.4844 32.5161V29.8065H80.9219C81.2824 29.8065 81.6282 29.6637 81.8831 29.4096C82.138 29.1555 82.2812 28.8109 82.2812 28.4516V14.9032C82.2812 14.5439 82.138 14.1993 81.8831 13.9452C81.6282 13.6911 81.2824 13.5484 80.9219 13.5484ZM3.4375 27.0968V16.2581H7.51562V27.0968H3.4375ZM14.3125 35.2258H11.5938C11.2332 35.2258 10.8875 35.0831 10.6325 34.829C10.3776 34.5749 10.2344 34.2303 10.2344 33.871V10.8387C10.2344 10.4794 10.3776 10.1348 10.6325 9.88069C10.8875 9.62661 11.2332 9.48387 11.5938 9.48387H14.3125C14.673 9.48387 15.0188 9.62661 15.2737 9.88069C15.5287 10.1348 15.6719 10.4794 15.6719 10.8387V33.871C15.6719 34.2303 15.5287 34.5749 15.2737 34.829C15.0188 35.0831 14.673 35.2258 14.3125 35.2258ZM23.8281 37.9355C23.8281 38.2948 23.6849 38.6394 23.43 38.8935C23.175 39.1476 22.8293 39.2903 22.4688 39.2903H19.75C19.3895 39.2903 19.0437 39.1476 18.7888 38.8935C18.5338 38.6394 18.3906 38.2948 18.3906 37.9355V5.41935C18.3906 5.06003 18.5338 4.71542 18.7888 4.46134C19.0437 4.20726 19.3895 4.06452 19.75 4.06452H22.4688C22.8293 4.06452 23.175 4.20726 23.43 4.46134C23.6849 4.71542 23.8281 5.06003 23.8281 5.41935V37.9355ZM26.5469 27.0968V16.2581H56.4531V27.0968H26.5469ZM64.6094 36.5806C64.6094 36.94 64.4662 37.2846 64.2112 37.5387C63.9563 37.7927 63.6105 37.9355 63.25 37.9355H60.5312C60.1707 37.9355 59.825 37.7927 59.57 37.5387C59.3151 37.2846 59.1719 36.94 59.1719 36.5806V4.06452C59.1719 3.70519 59.3151 3.36058 59.57 3.1065C59.825 2.85242 60.1707 2.70968 60.5312 2.70968H63.25C63.6105 2.70968 63.9563 2.85242 64.2112 3.1065C64.4662 3.36058 64.6094 3.70519 64.6094 4.06452V36.5806ZM72.7656 32.5161C72.7656 32.8755 72.6224 33.2201 72.3675 33.4741C72.1125 33.7282 71.7668 33.871 71.4062 33.871H68.6875C68.327 33.871 67.9812 33.7282 67.7263 33.4741C67.4713 33.2201 67.3281 32.8755 67.3281 32.5161V9.48387C67.3281 9.12455 67.4713 8.77994 67.7263 8.52585C67.9812 8.27177 68.327 8.12903 68.6875 8.12903H71.4062C71.7668 8.12903 72.1125 8.27177 72.3675 8.52585C72.6224 8.77994 72.7656 9.12455 72.7656 9.48387V32.5161ZM79.5625 27.0968H75.4844V16.2581H79.5625V27.0968Z" fill="black"/>
</g>
<defs>
<clipPath id="clip0">
<rect width="83" height="42" fill="white"/>
</clipPath>
</defs>
</svg>
