<svg width="60" height="53" viewBox="0 0 60 53" fill="none" xmlns="http://www.w3.org/2000/svg">
<g clip-path="url(#clip0)">
<path d="M48.3696 19.7053C48.6709 19.9332 48.8766 20.0713 49.0626 20.2323C49.2982 20.4043 49.4835 20.6362 49.5992 20.9039C49.715 21.1716 49.7571 21.4654 49.7211 21.7549C49.685 22.0443 49.5723 22.3188 49.3944 22.55C49.2166 22.7812 48.9802 22.9606 48.7096 23.0697C48.1372 23.4208 47.5851 23.8041 47.0559 24.2176L47.1735 24.4046C47.8335 24.1186 48.4935 23.8306 49.1554 23.5477C49.6146 23.3514 50.0724 23.1506 50.5386 22.972C51.4989 22.6039 52.2303 22.7722 52.6332 23.4375C52.843 23.8408 52.9122 24.3026 52.83 24.7497C52.7479 25.1968 52.519 25.6038 52.1796 25.9062C51.7249 26.2898 51.2647 26.6671 50.8112 27.0521C50.6946 27.1479 50.6203 27.2855 50.6042 27.4356C50.8058 27.3538 51.0145 27.2862 51.2079 27.1882C52.7156 26.4243 54.2132 25.6399 55.7303 24.8952C56.2135 24.6243 56.7396 24.4382 57.2857 24.3452C57.5216 24.312 57.7621 24.3401 57.984 24.4268C58.2059 24.5134 58.4017 24.6558 58.5527 24.8401C58.7036 25.0244 58.8046 25.2444 58.8458 25.479C58.8871 25.7136 58.8673 25.9549 58.7883 26.1797C58.6061 26.6603 58.3494 27.1092 58.0276 27.5099C57.8645 27.7409 57.793 27.8877 57.9456 28.1641C58.0719 28.4003 58.1492 28.6596 58.1728 28.9265C58.1965 29.1933 58.1661 29.4622 58.0834 29.717C58.0006 29.9718 57.8673 30.2072 57.6914 30.4093C57.5155 30.6113 57.3006 30.7757 57.0596 30.8927C55.7642 31.6643 54.5385 32.5531 53.2828 33.3913L53.357 33.5409L53.9879 33.3918C54.3429 33.2949 54.7206 33.3244 55.0563 33.4753C55.392 33.6262 55.6649 33.8891 55.8281 34.2189C55.9999 34.5478 56.0447 34.9284 55.9539 35.2881C55.8632 35.6479 55.6433 35.9617 55.336 36.1698C54.577 36.6883 53.7706 37.1412 52.9632 37.5833C49.0203 39.7421 45.0735 41.8938 41.1227 44.0384C38.2724 45.5923 35.4241 47.1498 32.5778 48.711C32.3335 48.8605 32.1122 49.0448 31.9211 49.2581C31.7868 49.4414 31.6147 49.5937 31.4165 49.7049C31.2183 49.816 30.9985 49.8834 30.7721 49.9025C30.5457 49.9216 30.3178 49.8919 30.1037 49.8155C29.8897 49.739 29.6946 49.6176 29.5315 49.4594C29.3394 49.2903 29.1831 49.0845 29.0718 48.8541C28.9605 48.6237 28.8964 48.3733 28.8834 48.1177C28.8703 47.8622 28.9085 47.6066 28.9958 47.366C29.0831 47.1255 29.2176 46.9048 29.3914 46.717C29.9886 46.1742 30.6155 45.6649 31.269 45.1915C31.6461 44.9104 31.7846 44.7075 31.4072 44.2878C31.1901 43.9442 31.0246 43.5707 30.916 43.1791C30.1328 43.6276 29.3832 44.1251 28.5752 44.4953C28.0254 44.7461 27.4338 44.893 26.8305 44.9285C26.5273 44.9515 26.2254 44.8686 25.9764 44.6939C25.7275 44.5191 25.5468 44.2635 25.4653 43.9704C25.3548 43.6788 25.3404 43.3595 25.4244 43.0592C25.5083 42.7588 25.6862 42.4933 25.9319 42.3013C26.9976 41.3893 28.0769 40.4927 29.1497 39.5896L31.8256 37.3369L31.7414 37.2049C31.1914 37.4893 30.6551 37.8058 30.0876 38.0496C29.4635 38.342 28.813 38.5745 28.1449 38.7439C27.8961 38.8285 27.6302 38.8506 27.3708 38.8082C27.1114 38.7657 26.8665 38.66 26.6576 38.5005C26.4488 38.3409 26.2824 38.1324 26.1732 37.8933C26.0641 37.6542 26.0155 37.3919 26.0317 37.1295C26.0112 37.0032 25.9839 36.8782 25.9499 36.7549C25.5955 36.8649 25.2745 36.9787 24.9459 37.0629C24.6228 37.1681 24.2738 37.1629 23.954 37.0479C23.6342 36.9329 23.3618 36.7148 23.1796 36.4279C22.9969 36.1295 22.9192 35.7785 22.9589 35.4308C22.9986 35.0831 23.1534 34.7586 23.3986 34.509C23.6244 34.273 23.8694 34.0562 24.1311 33.8609C25.2188 33.0056 26.3132 32.1587 27.4033 31.3066C27.5402 31.2121 27.6346 31.0677 27.6663 30.9044L25.4804 32.0953C24.5689 32.5903 23.6801 33.137 22.7356 33.5583C22.2048 33.7762 21.636 33.8865 21.0622 33.8828C20.7502 33.8916 20.4432 33.8017 20.1852 33.6259C19.9272 33.4502 19.7312 33.1974 19.6252 32.9038C19.4914 32.6119 19.4504 32.2859 19.5078 31.97C19.5652 31.6541 19.7182 31.3634 19.9462 31.1373C20.3579 30.6897 20.8284 30.2961 21.2729 29.8787L21.1969 29.755C20.8499 29.9564 20.5045 30.1606 20.1557 30.3587C19.3051 30.842 18.4737 31.3654 17.5954 31.7918C17.2377 31.9634 16.8299 31.9997 16.4475 31.8939C16.0651 31.7882 15.7339 31.5477 15.5151 31.2167C15.2963 30.8857 15.2047 30.4868 15.2573 30.0935C15.3098 29.7003 15.5029 29.3393 15.8009 29.0774C17.1088 28.0717 18.4713 27.1322 19.85 26.2243C22.0485 24.7766 24.2792 23.3781 26.4947 21.9563C26.6909 21.8332 26.8682 21.6822 27.0212 21.5082C26.1909 21.5387 25.2864 21.8117 24.8579 20.8042C24.5059 19.977 25.0917 19.4373 25.5289 18.7899C25.323 18.8838 25.1097 18.9643 24.9129 19.0738C22.0236 20.6769 19.1351 22.2819 16.2475 23.8889C15.8276 24.1221 15.411 24.3652 14.9746 24.5638C14.6133 24.7414 14.2315 24.8742 13.8379 24.959C13.528 25.0456 13.1973 25.0176 12.9065 24.8799C12.6157 24.7423 12.3843 24.5043 12.2549 24.2098C12.1257 23.9039 12.1115 23.5616 12.2149 23.246C12.3184 22.9305 12.5324 22.663 12.8176 22.4929C13.5832 21.945 14.3686 21.4241 15.1537 20.9044C20.9678 17.0477 27.0065 13.5408 33.2377 10.4024C36.2419 8.89296 39.2682 7.42699 42.2951 5.96311C42.9064 5.6821 43.5365 5.44382 44.1808 5.24998C44.5584 5.16579 44.942 5.11143 45.328 5.0874C45.2544 5.28906 45.1597 5.4824 45.0455 5.66424C44.8691 5.89281 44.6587 6.09292 44.4215 6.25758C43.737 6.66777 43.3508 7.08764 43.7683 7.97974C44.058 8.5986 43.6242 9.25299 42.933 9.62028C42.7241 9.71686 42.5252 9.83357 42.339 9.96876C41.4908 10.6426 40.6857 11.3688 39.9281 12.1431C40.6419 11.8599 41.3658 11.5995 42.0669 11.2876C42.9964 10.8741 43.9184 10.4406 44.8248 9.97855C45.208 9.68244 45.6896 9.54347 46.1717 9.58992C46.6537 9.63636 47.1 9.86475 47.4196 10.2286C47.5155 10.2737 47.6203 10.2966 47.7263 10.2955C47.8323 10.2945 47.9367 10.2695 48.0317 10.2224C48.8841 9.78011 49.7147 9.29556 50.5556 8.83114C50.7704 8.70478 50.9947 8.59529 51.2266 8.50367C51.5132 8.38265 51.8301 8.35257 52.1344 8.41749C52.4386 8.48241 52.7156 8.6392 52.9279 8.86667C53.164 9.07284 53.324 9.3523 53.3823 9.66026C53.4405 9.96821 53.3937 10.2868 53.2492 10.565C52.966 11.1262 52.5743 11.6258 52.0969 12.0348C50.4809 13.3348 48.8069 14.5628 47.1562 15.8199C47.0284 15.9172 46.91 16.027 46.7302 16.1795C48.3551 15.9715 48.9459 16.1864 49.4243 17.1968C49.9611 18.3307 49.4395 19.1047 48.3696 19.7053Z" fill="#9E7AD9"/>
<path d="M43.4987 3.31152C50.76 3.31152 56.6667 9.18127 56.6667 16.3966C56.6667 19.8913 55.2967 23.1766 52.81 25.6477L30.0007 48.3158L7.20067 25.6583C4.70733 23.1859 3.33333 19.8966 3.33333 16.3966C3.33333 9.18127 9.24 3.31152 16.5007 3.31152C20.7773 3.31152 24.8047 5.3931 27.274 8.87984L30 12.729L32.726 8.87918C35.1947 5.3931 39.222 3.31152 43.4987 3.31152ZM43.4987 -0.000976562C37.9167 -0.000976562 32.9853 2.75701 30 6.97316C27.014 2.75635 22.0827 -0.000976562 16.5007 -0.000976562C7.38667 -0.000976562 0 7.34019 0 16.3966C0 20.9314 1.85267 25.0356 4.84667 28.0036L30.0007 53.001L55.1673 27.9903H55.1667C58.1527 25.023 60 20.9241 60 16.3966C60 7.34019 52.612 -0.000976562 43.4987 -0.000976562Z" fill="black"/>
</g>
<defs>
<clipPath id="clip0">
<rect width="60" height="53" fill="white"/>
</clipPath>
</defs>
</svg>
