<svg width="64" height="60" viewBox="0 0 64 60" fill="none" xmlns="http://www.w3.org/2000/svg">
<path d="M23.7464 21.317C24.7927 20.6377 25.8217 19.93 26.8886 19.2848C29.4679 17.7251 32.0652 16.1953 34.6542 14.6515C34.8455 14.55 35.0263 14.43 35.194 14.2932C35.522 13.9841 35.9455 13.7956 36.3949 13.7588C36.8443 13.722 37.2929 13.8391 37.6668 14.0907C37.8795 14.1901 38.0672 14.3356 38.2163 14.5167C38.3655 14.6978 38.4723 14.9098 38.5289 15.1373C38.5855 15.3649 38.5905 15.6021 38.5436 15.8319C38.4966 16.0616 38.3989 16.2779 38.2576 16.4651C38.1838 16.5832 38.1342 16.7147 38.1116 16.852C38.0889 16.9894 38.0937 17.1298 38.1257 17.2653C38.293 17.6368 38.3259 18.0548 38.2188 18.4479C38.1117 18.841 37.8712 19.1847 37.5385 19.4204C36.4833 20.2461 35.3878 21.0208 34.3077 21.8139C33.9033 22.1102 33.4935 22.4007 33.0862 22.6938L33.1931 22.8433C34.3358 22.1541 35.4736 21.4555 36.6242 20.7794C37.2784 20.3951 37.9538 20.0473 38.6201 19.6838L38.8534 19.5684C39.251 19.3337 39.7203 19.2505 40.1745 19.3341C40.6288 19.4177 41.0374 19.6626 41.3251 20.0235C41.5577 20.4273 41.6205 20.9068 41.4997 21.3568C41.3788 21.8068 41.0843 22.1906 40.6805 22.4241C39.0098 23.7364 37.2157 24.8948 35.5692 26.235C31.3642 29.658 27.2119 33.1444 23.0404 36.6079C22.9108 36.7097 22.8227 36.8551 22.7927 37.0171C23.2595 36.6999 23.7308 36.3896 24.1923 36.0648C27.8027 33.3908 31.5857 30.9575 35.5168 28.7808C36.7292 28.1567 37.99 27.6314 39.287 27.21C39.703 27.0289 40.1709 27.0054 40.603 27.1439C41.0351 27.2824 41.4019 27.5734 41.6347 27.9625C41.8566 28.355 41.9405 28.8104 41.873 29.2561C41.8055 29.7017 41.5905 30.112 41.2622 30.4213C40.7227 31.0041 40.043 31.4558 39.4453 31.9878C39.2672 32.1468 39.0089 32.4014 39.0347 32.5758C39.074 33.0893 38.9623 33.6031 38.7133 34.0541C38.4643 34.5051 38.0888 34.8736 37.633 35.1145C34.8999 37.2176 32.1335 39.2776 29.3825 41.3577C29.1294 41.549 28.8965 41.7668 28.6542 41.9724L28.735 42.1108C29.3814 41.8421 30.0471 41.6115 30.6709 41.2981C32.9572 40.1492 35.2185 38.9507 37.5133 37.819C38.3097 37.4287 39.1419 37.1161 39.9985 36.8855C40.354 36.7645 40.7414 36.7772 41.0881 36.9214C41.4348 37.0655 41.7169 37.3312 41.8813 37.6683C42.042 38.0183 42.0685 38.415 41.9556 38.7832C41.8427 39.1513 41.5983 39.4652 41.2689 39.6653C40.671 40.1168 40.0248 40.5044 39.3999 40.9204L39.5004 41.1041C40.4251 40.6523 41.3484 40.197 42.2753 39.75C42.7439 39.5242 43.2101 39.2865 43.6945 39.1016C44.0527 38.8972 44.4761 38.8393 44.8762 38.9398C45.2762 39.0404 45.6217 39.2917 45.8403 39.6411C46.0588 39.9904 46.1335 40.4107 46.0486 40.8138C45.9638 41.2169 45.7259 41.5716 45.385 41.8034C44.3292 42.6677 43.2134 43.4612 42.0997 44.252C40.5254 45.37 38.9289 46.4563 37.3447 47.56C37.1288 47.6969 36.9601 47.8965 36.8612 48.132C37.8213 47.7849 38.7912 47.4626 39.7388 47.0843C40.8072 46.658 41.8495 46.1685 42.9144 45.7343C43.2567 45.5999 43.6152 45.5108 43.9807 45.4692C44.2507 45.4156 44.5308 45.4491 44.7805 45.565C45.0301 45.6809 45.2364 45.8731 45.3694 46.1138C45.5014 46.3539 45.5568 46.6285 45.5281 46.9009C45.4994 47.1733 45.388 47.4304 45.2088 47.6378L44.8638 48.113C45.1063 48.2009 45.3053 48.2633 45.4964 48.3443C45.7136 48.4232 45.8979 48.5728 46.0196 48.769C46.1412 48.9653 46.1931 49.1968 46.1668 49.4261C46.1836 49.6705 46.1066 49.912 45.9513 50.1017C45.7961 50.2913 45.5743 50.4148 45.3311 50.4469C44.0101 50.7011 42.7519 51.2121 41.6281 51.9507C38.1826 53.6442 34.7599 55.384 31.3176 57.0846C30.668 57.3856 30.0022 57.6505 29.3234 57.8783C28.9316 58.0554 28.49 58.0897 28.0755 57.9752C27.6609 57.8608 27.2997 57.6048 27.0546 57.2519C26.7875 56.9111 26.5679 56.9434 26.2236 57.073C24.499 57.7234 22.7758 58.3808 21.028 58.9642C20.5252 59.0907 20.002 59.115 19.4895 59.0356C19.1603 59.0155 18.8453 58.8947 18.5872 58.6896C18.3292 58.4845 18.1407 58.205 18.0473 57.8891C17.9353 57.5799 17.9169 57.2446 17.9945 56.9251C18.072 56.6055 18.2421 56.3159 18.4834 56.0922C18.8296 55.7865 19.1418 55.4445 19.4146 55.0721C19.0114 55.2515 18.5977 55.4063 18.1758 55.5358C17.542 55.7366 16.8851 55.8555 16.221 55.8898C15.9083 55.9014 15.5986 55.8255 15.3268 55.6705C15.0551 55.5155 14.8322 55.2876 14.6834 55.0127C14.5346 54.7378 14.4658 54.4268 14.4848 54.1148C14.5038 53.8029 14.6098 53.5025 14.7908 53.2476L14.9611 52.9086C14.6987 52.9086 14.501 52.8924 14.3071 52.9114C13.8916 53.0102 13.456 52.9818 13.0569 52.8298C12.6578 52.6779 12.3138 52.4094 12.0697 52.0595C11.9862 51.9988 11.8888 51.9602 11.7864 51.9473C11.684 51.9343 11.58 51.9474 11.4841 51.9854C10.3542 52.6703 9.27634 53.4444 8.12482 54.0883C7.17088 54.631 6.16903 55.085 5.13192 55.4446C4.73288 55.574 4.30173 55.5647 3.90865 55.4183C3.51557 55.2718 3.1837 54.9968 2.96704 54.638C2.76801 54.3981 2.49782 54.2274 2.1954 54.1507C1.88076 54.1024 1.58429 53.9727 1.33557 53.7743C1.08685 53.5759 0.89458 53.3158 0.777947 53.0201C0.661313 52.7243 0.624395 52.4031 0.670878 52.0886C0.71736 51.7742 0.845616 51.4774 1.04285 51.2279C1.88785 50.2411 2.79114 49.3056 3.74787 48.4264C5.48108 46.6934 7.21934 44.9655 8.96264 43.2425C9.12131 43.0982 9.22735 42.9053 9.26402 42.6942C8.99427 42.8328 8.71682 42.9559 8.43303 43.063C7.87286 43.2853 7.29002 43.4457 6.69492 43.5414C6.4184 43.5859 6.13511 43.5615 5.87037 43.4701C5.60562 43.3788 5.36764 43.2234 5.17768 43.0178C4.98772 42.8122 4.85167 42.5629 4.7817 42.292C4.71173 42.0212 4.71 41.7373 4.77667 41.4656C4.84344 41.0467 4.69921 40.8936 4.35954 40.7313C4.11829 40.6435 3.89776 40.507 3.71172 40.3303C3.52567 40.1536 3.3781 39.9405 3.27823 39.7042C3.17836 39.468 3.12833 39.2138 3.13127 38.9574C3.1342 38.701 3.19003 38.448 3.29528 38.2141C3.5806 37.4114 4.12001 36.7233 4.83187 36.254C5.47099 35.7819 6.09245 35.286 6.70991 34.8095C6.50309 34.5694 6.34948 34.2883 6.25918 33.9847C6.16889 33.6811 6.14394 33.3619 6.18599 33.0479C6.22803 32.734 6.33612 32.4325 6.50314 32.1633C6.67016 31.894 6.89234 31.6631 7.15508 31.4857C8.54684 30.0644 9.79541 28.4933 11.2602 27.1553C13.2746 25.3152 15.4136 23.6082 17.5352 21.8885C20.7633 19.2143 24.2815 16.9101 28.0239 15.0191C28.4099 14.8215 28.8069 14.6462 29.213 14.4941C29.426 14.4029 29.6645 14.3903 29.8859 14.4585C30.1074 14.5267 30.2973 14.6712 30.4219 14.8663C30.5478 15.0473 30.6057 15.2667 30.5855 15.486C30.5654 15.7054 30.4684 15.9106 30.3117 16.0656C30.1274 16.2782 29.9143 16.4642 29.6786 16.618C27.8202 18.0085 25.9601 19.3965 24.0982 20.782C23.9366 20.903 23.7942 21.0488 23.6428 21.1841L23.7464 21.317Z" fill="#6182C1"/>
<path d="M37.856 28.4545C38.0332 28.8005 38.3857 29.0004 38.7502 29.0004C38.9024 29.0004 39.0586 28.9654 39.2039 28.8915C39.2629 28.8615 45.1572 25.8714 48.0642 24.9544C48.591 24.7874 48.8833 24.2254 48.7161 23.6995C48.5498 23.1734 47.9911 22.8804 47.4594 23.0465C44.3971 24.0135 38.543 26.9835 38.2946 27.1095C37.8019 27.3595 37.6057 27.9616 37.856 28.4545Z" fill="black"/>
<path d="M38.7502 17.0006C38.9024 17.0006 39.0586 16.9655 39.2039 16.8916C39.2629 16.8616 45.1572 13.8715 48.0642 12.9545C48.591 12.7875 48.8833 12.2255 48.7161 11.6996C48.5498 11.1735 47.9911 10.8806 47.4593 11.0466C44.3971 12.0136 38.5429 14.9836 38.2946 15.1096C37.802 15.3596 37.6057 15.9616 37.856 16.4546C38.0332 16.8005 38.3857 17.0006 38.7502 17.0006Z" fill="black"/>
<path d="M62.7833 15.0005C62.2295 15.0005 61.7819 15.4485 61.7819 16.0004V55.0004C61.7819 56.6544 60.434 58.0004 58.7777 58.0004H34.7444V55.6995C36.2044 55.1895 40.0076 54.0005 43.7569 54.0005C52.48 54.0005 58.4033 55.9295 58.4623 55.9494C58.7637 56.0494 59.1002 55.9995 59.3636 55.8114C59.6249 55.6234 59.7791 55.3214 59.7791 55.0003V11.0005C59.7791 10.5315 59.4537 10.1255 58.995 10.0245C58.995 10.0245 58.2099 9.8495 56.868 9.6034C56.3262 9.50344 55.8026 9.86344 55.7023 10.4054C55.6022 10.9494 55.9617 11.4704 56.5055 11.5704C57.0173 11.6644 57.4458 11.7474 57.7763 11.8134V53.6714C55.5071 53.0774 50.4682 52.0004 43.7568 52.0004C39.3937 52.0004 35.1078 53.4314 33.7819 53.9165C32.6032 53.3965 29.0403 52.0004 24.7303 52.0004C17.8326 52.0004 12.1508 53.1365 9.7094 53.7135V11.7744C11.7092 11.2834 17.6154 10.0004 24.7303 10.0004C28.3814 10.0004 31.5126 11.1354 32.7414 11.6484V51.0005C32.7414 51.3605 32.9356 51.6935 33.2491 51.8705C33.5625 52.0485 33.9491 52.0434 34.2585 51.8575C34.3577 51.7985 44.2794 45.8804 53.0857 42.9495C53.4952 42.8125 53.7706 42.4315 53.7706 42.0005V1.00044C53.7706 0.672429 53.6094 0.365398 53.339 0.178484C53.0706 -0.00854718 52.7262 -0.051555 52.4168 0.0635231C44.4047 3.06446 36.2975 8.10247 36.2163 8.15251C35.7476 8.44548 35.6044 9.06247 35.8978 9.53052C36.1902 9.99856 36.8081 10.1415 37.2777 9.84856C37.3518 9.80157 44.4047 5.41958 51.7678 2.46259V41.2846C44.9323 43.6566 37.7954 47.5296 34.7441 49.2635V11.0005C34.7441 10.6215 34.5298 10.2755 34.1904 10.1056C34.0181 10.0206 29.9145 8.00051 24.7303 8.00051C15.6817 8.00051 8.72506 9.95555 8.43263 10.0395C8.00301 10.1615 7.70658 10.5545 7.70658 11.0005V55.0006C7.70658 55.3136 7.85479 55.6096 8.10416 55.7986C8.28042 55.9316 8.49271 56.0006 8.70805 56.0006C8.80017 56.0006 8.89229 55.9876 8.98241 55.9616C9.05153 55.9426 15.9762 54.0006 24.7303 54.0006C28.3914 54.0006 31.5197 55.1386 32.7414 55.6495V58.0006H8.70805C7.05176 58.0006 5.70388 56.6545 5.70388 55.0006V16.0006C5.70388 15.4486 5.25524 15.0006 4.70252 15.0006C4.1498 15.0006 3.70117 15.4486 3.70117 16.0006V55.0006C3.70117 57.7575 5.94726 60.0006 8.70816 60.0006H58.7777C61.5385 60.0006 63.7847 57.7576 63.7847 55.0006V16.0006C63.7846 15.4485 63.337 15.0005 62.7833 15.0005Z" fill="black"/>
<path d="M37.856 22.4545C38.0332 22.8005 38.3857 23.0004 38.7502 23.0004C38.9024 23.0004 39.0586 22.9654 39.2039 22.8915C39.2629 22.8615 45.1572 19.8714 48.0642 18.9544C48.591 18.7874 48.8833 18.2254 48.7161 17.6995C48.5498 17.1734 47.9911 16.8804 47.4594 17.0465C44.3971 18.0135 38.543 20.9835 38.2946 21.1095C37.8019 21.3595 37.6057 21.9616 37.856 22.4545Z" fill="black"/>
<path d="M37.856 34.4545C38.0332 34.8005 38.3857 35.0004 38.7502 35.0004C38.9024 35.0004 39.0586 34.9654 39.2039 34.8915C39.2629 34.8615 45.1572 31.8714 48.0642 30.9544C48.591 30.7874 48.8833 30.2254 48.7161 29.6995C48.5498 29.1734 47.9911 28.8804 47.4594 29.0465C44.3971 30.0135 38.543 32.9835 38.2946 33.1095C37.8019 33.3595 37.6057 33.9616 37.856 34.4545Z" fill="black"/>
<path d="M27.9622 18.5586C21.7786 17.1095 14.7518 18.9556 14.4564 19.0346C13.9227 19.1775 13.6053 19.7255 13.7485 20.2595C13.8686 20.7065 14.2731 21.0005 14.7148 21.0005C14.801 21.0005 14.8881 20.9895 14.9752 20.9665C15.0424 20.9475 21.8077 19.1705 27.5057 20.5055C28.0414 20.6305 28.5832 20.2975 28.7094 19.7595C28.8354 19.2225 28.5009 18.6845 27.9622 18.5586Z" fill="black"/>
<path d="M27.9622 24.5585C21.7786 23.1105 14.7518 24.9555 14.4564 25.0345C13.9227 25.1774 13.6053 25.7255 13.7485 26.2594C13.8686 26.7064 14.2731 27.0004 14.7148 27.0004C14.801 27.0004 14.8881 26.9894 14.9752 26.9664C15.0424 26.9474 21.8077 25.1704 27.5057 26.5054C28.0414 26.6304 28.5832 26.2974 28.7094 25.7594C28.8354 25.2224 28.5009 24.6844 27.9622 24.5585Z" fill="black"/>
<path d="M37.856 40.4545C38.0332 40.8005 38.3857 41.0004 38.7502 41.0004C38.9024 41.0004 39.0586 40.9654 39.2039 40.8914C39.2629 40.8614 45.1572 37.8714 48.0642 36.9544C48.591 36.7874 48.8833 36.2254 48.7161 35.6995C48.5498 35.1735 47.9911 34.8804 47.4594 35.0465C44.3971 36.0135 38.543 38.9835 38.2946 39.1095C37.8019 39.3595 37.6057 39.9616 37.856 40.4545Z" fill="black"/>
<path d="M27.9622 30.5585C21.7786 29.1105 14.7518 30.9545 14.4564 31.0345C13.9227 31.1775 13.6053 31.7256 13.7485 32.2595C13.8686 32.7064 14.2731 33.0015 14.7148 33.0015C14.801 33.0015 14.8881 32.9896 14.9752 32.9665C15.0424 32.9475 21.8077 31.1705 27.5057 32.5055C28.0414 32.6305 28.5832 32.2975 28.7094 31.7595C28.8354 31.2225 28.5009 30.6845 27.9622 30.5585Z" fill="black"/>
<path d="M27.9622 42.5586C21.7786 41.1095 14.7518 42.9556 14.4564 43.0346C13.9227 43.1775 13.6053 43.7256 13.7485 44.2595C13.8686 44.7065 14.2731 45.0016 14.7148 45.0016C14.801 45.0016 14.8881 44.9896 14.9752 44.9665C15.0424 44.9475 21.8077 43.1705 27.5057 44.5055C28.0414 44.6295 28.5832 44.2975 28.7094 43.7595C28.8354 43.2225 28.5009 42.6845 27.9622 42.5586Z" fill="black"/>
<path d="M27.9622 36.5585C21.7786 35.1095 14.7518 36.9545 14.4564 37.0345C13.9227 37.1775 13.6053 37.7256 13.7485 38.2595C13.8686 38.7064 14.2731 39.0015 14.7148 39.0015C14.801 39.0015 14.8881 38.9896 14.9752 38.9665C15.0424 38.9475 21.8077 37.1704 27.5057 38.5054C28.0414 38.6305 28.5832 38.2974 28.7094 37.7594C28.8354 37.2225 28.5009 36.6845 27.9622 36.5585Z" fill="black"/>
</svg>
