<svg width="49" height="57" viewBox="0 0 49 57" fill="none" xmlns="http://www.w3.org/2000/svg">
<path d="M38.183 31.5184C38.8623 32.5633 39.57 33.5908 40.2152 34.6562C41.7749 37.232 43.3047 39.8257 44.8485 42.4111C44.95 42.602 45.07 42.7826 45.2068 42.9502C45.5159 43.2776 45.7044 43.7005 45.7412 44.1493C45.778 44.5981 45.6609 45.0461 45.4093 45.4195C45.3099 45.6319 45.1644 45.8193 44.9833 45.9683C44.8022 46.1172 44.5902 46.2238 44.3627 46.2803C44.1351 46.3369 43.8979 46.3419 43.6681 46.295C43.4384 46.2481 43.2221 46.1506 43.0349 46.0094C42.9168 45.9358 42.7853 45.8862 42.648 45.8636C42.5106 45.841 42.3702 45.8458 42.2347 45.8777C41.8632 46.0448 41.4452 46.0776 41.0521 45.9707C40.659 45.8637 40.3153 45.6236 40.0796 45.2913C39.2539 44.2376 38.4792 43.1437 37.6861 42.065C37.3898 41.6612 37.0993 41.2519 36.8062 40.8452L36.6567 40.952C37.3459 42.093 38.0445 43.2293 38.7206 44.3784C39.1049 45.0316 39.4527 45.7061 39.8162 46.3715L39.9316 46.6044C40.1663 47.0015 40.2495 47.4701 40.1659 47.9237C40.0823 48.3773 39.8374 48.7854 39.4765 49.0727C39.0727 49.305 38.5932 49.3677 38.1432 49.247C37.6932 49.1264 37.3094 48.8322 37.0759 48.429C35.7636 46.7606 34.6052 44.969 33.265 43.3248C29.842 39.1256 26.3556 34.9791 22.8921 30.8133C22.7903 30.6839 22.6449 30.596 22.4829 30.566C22.8001 31.0322 23.1104 31.5029 23.4352 31.9637C26.1092 35.569 28.5425 39.3468 30.7192 43.2725C31.3433 44.4831 31.8686 45.7422 32.29 47.0374C32.4711 47.4528 32.4946 47.9201 32.3561 48.3516C32.2176 48.7831 31.9266 49.1494 31.5375 49.3818C31.145 49.6035 30.6896 49.6873 30.2439 49.6199C29.7983 49.5524 29.388 49.3377 29.0787 49.0099C28.4959 48.4711 28.0442 47.7924 27.5122 47.1955C27.3532 47.0177 27.0986 46.7597 26.9242 46.7855C26.4107 46.8248 25.8969 46.7132 25.4459 46.4645C24.9949 46.2159 24.6264 45.8409 24.3855 45.3857C22.2824 42.6564 20.2224 39.8938 18.1423 37.1466C17.951 36.894 17.7332 36.6613 17.5276 36.4193L17.3892 36.5001C17.6579 37.1456 17.8885 37.8103 18.2019 38.4333C19.3508 40.7164 20.5493 42.9746 21.681 45.2661C22.0713 46.0614 22.3839 46.8926 22.6145 47.7479C22.7355 48.1029 22.7228 48.4898 22.5786 48.8361C22.4345 49.1823 22.1688 49.4639 21.8317 49.6281C21.4817 49.7886 21.085 49.815 20.7168 49.7023C20.3487 49.5895 20.0348 49.3455 19.8347 49.0166C19.3832 48.4195 18.9956 47.7742 18.5796 47.1502L18.3959 47.2505C18.8477 48.174 19.303 49.096 19.75 50.0215C19.9758 50.4895 20.2135 50.9551 20.3984 51.4388C20.6028 51.7965 20.6607 52.2193 20.5602 52.6188C20.4596 53.0183 20.2083 53.3633 19.8589 53.5816C19.5096 53.7998 19.0893 53.8744 18.6862 53.7897C18.2831 53.7049 17.9284 53.4674 17.6966 53.1269C16.8323 52.0726 16.0388 50.9584 15.248 49.8462C14.13 48.2741 13.0437 46.6798 11.94 45.0978C11.8031 44.8822 11.6035 44.7138 11.368 44.615C11.7151 45.5738 12.0374 46.5423 12.4157 47.4886C12.842 48.5555 13.3315 49.5964 13.7657 50.6598C13.9001 51.0016 13.9892 51.3596 14.0308 51.7246C14.0844 51.9943 14.0509 52.274 13.935 52.5233C13.8191 52.7726 13.6269 52.9785 13.3862 53.1114C13.1461 53.2432 12.8715 53.2985 12.5991 53.2699C12.3267 53.2412 12.0696 53.13 11.8622 52.951L11.387 52.6065C11.2991 52.8486 11.2367 53.0473 11.1557 53.2382C11.0768 53.4551 10.9272 53.6392 10.731 53.7606C10.5347 53.8821 10.3032 53.9339 10.0739 53.9077C9.82954 53.9245 9.58795 53.8475 9.3983 53.6925C9.20866 53.5374 9.08521 53.316 9.05307 53.0731C8.79886 51.7539 8.28792 50.4975 7.54929 49.3753C5.85583 45.9346 4.11599 42.5166 2.41542 39.0791C2.11444 38.4304 1.84947 37.7656 1.62173 37.0876C1.44465 36.6964 1.41035 36.2554 1.52479 35.8415C1.63924 35.4275 1.89519 35.0668 2.24811 34.822C2.58894 34.5553 2.55664 34.336 2.42697 33.9922C1.77659 32.27 1.11924 30.5491 0.535831 28.8038C0.409293 28.3016 0.385005 27.7792 0.464408 27.2674C0.48445 26.9387 0.605251 26.6241 0.810382 26.3664C1.01551 26.1087 1.29503 25.9204 1.61092 25.8272C1.92011 25.7154 2.25538 25.697 2.57492 25.7745C2.89447 25.8519 3.18414 26.0217 3.40781 26.2627C3.71345 26.6084 4.05546 26.9202 4.42792 27.1926C4.24853 26.79 4.09369 26.3769 3.96425 25.9555C3.76345 25.3226 3.64448 24.6666 3.61023 24.0035C3.59858 23.6912 3.67455 23.3819 3.82955 23.1105C3.98455 22.8392 4.21239 22.6166 4.4873 22.468C4.76221 22.3194 5.07322 22.2507 5.38515 22.2696C5.69708 22.2886 5.99748 22.3945 6.25237 22.5753L6.59142 22.7453C6.59142 22.4833 6.60757 22.2859 6.5886 22.0922C6.48981 21.6773 6.51825 21.2423 6.6702 20.8437C6.82215 20.4452 7.09058 20.1017 7.44052 19.8579C7.50119 19.7746 7.53979 19.6773 7.55275 19.575C7.5657 19.4728 7.55258 19.3689 7.51461 19.2731C6.8297 18.1448 6.05558 17.0684 5.41172 15.9185C4.86905 14.9659 4.41503 13.9654 4.05538 12.9298C3.92599 12.5313 3.93528 12.1007 4.08173 11.7082C4.22818 11.3157 4.50318 10.9843 4.86195 10.7679C5.10193 10.5691 5.27259 10.2993 5.34933 9.99733C5.39756 9.68313 5.52734 9.38707 5.72573 9.1387C5.92412 8.89032 6.18418 8.69832 6.47995 8.58185C6.77573 8.46537 7.09688 8.42851 7.41135 8.47493C7.72583 8.52134 8.02262 8.64942 8.27214 8.84638C9.25891 9.69021 10.1944 10.5922 11.0736 11.5476C12.8066 13.2785 14.5345 15.0143 16.2575 16.7552C16.4018 16.9136 16.5947 17.0195 16.8058 17.0561C16.6672 16.7868 16.5441 16.5097 16.437 16.2263C16.2147 15.6669 16.0543 15.0849 15.9586 14.4906C15.9141 14.2145 15.9385 13.9316 16.0299 13.6672C16.1212 13.4028 16.2766 13.1652 16.4822 12.9755C16.6878 12.7858 16.9371 12.6499 17.208 12.58C17.4788 12.5102 17.7627 12.5084 18.0344 12.575C18.4533 12.6417 18.6064 12.4977 18.7687 12.1585C18.8565 11.9176 18.993 11.6973 19.1697 11.5115C19.3464 11.3258 19.5595 11.1784 19.7958 11.0787C20.032 10.9789 20.2862 10.929 20.5426 10.9319C20.799 10.9348 21.052 10.9906 21.2859 11.0957C22.0886 11.3806 22.7767 11.9193 23.246 12.6301C23.7181 13.2684 24.214 13.889 24.6905 14.5056C24.9306 14.299 25.2117 14.1456 25.5153 14.0555C25.8189 13.9653 26.1381 13.9404 26.4521 13.9824C26.766 14.0244 27.0675 14.1323 27.3367 14.2991C27.606 14.4659 27.8369 14.6878 28.0143 14.9501C29.4356 16.34 31.0067 17.5868 32.3447 19.0495C34.1848 21.0611 35.8918 23.1972 37.6115 25.3158C40.2857 28.5394 42.5899 32.0528 44.4809 35.79C44.6785 36.1754 44.8538 36.5719 45.0059 36.9774C45.0971 37.1901 45.1097 37.4283 45.0415 37.6494C44.9733 37.8705 44.8288 38.0603 44.6337 38.1847C44.4527 38.3103 44.2333 38.3682 44.014 38.348C43.7946 38.3279 43.5894 38.2311 43.4344 38.0746C43.2218 37.8905 43.0358 37.6778 42.882 37.4424C41.4915 35.5865 40.1035 33.729 38.718 31.8698C38.597 31.7084 38.4512 31.5661 38.3159 31.415L38.183 31.5184Z" fill="#FFCF33"/>
<path d="M47.7297 27.9473H43.9189C43.2203 27.9473 42.6486 28.5157 42.6486 29.2105V35.5263H39.473H29.9459V31.7368H35.027C37.123 31.7368 38.8378 30.0315 38.8378 27.9473V3.94731C38.8378 1.8631 37.123 0.157837 35.027 0.157837H15.973C13.877 0.157837 12.1622 1.8631 12.1622 3.94731V27.9473C12.1622 30.0315 13.877 31.7368 15.973 31.7368H21.0541V35.5263H11.527H8.35135V29.2105C8.35135 28.5157 7.77973 27.9473 7.08108 27.9473H3.27027C2.57162 27.9473 2 28.5157 2 29.2105C2 29.9052 2.57162 30.4736 3.27027 30.4736H5.81081V36.7894C5.81081 37.4842 6.38243 38.0526 7.08108 38.0526C7.14459 38.0526 7.20811 38.0526 7.20811 38.0526C7.27162 38.0526 7.33513 38.0526 7.33513 38.0526H10.2568V40.5789C10.2568 42.6631 11.9716 44.3684 14.0676 44.3684H24.2297V51.3157H18.9581C18.3865 49.4842 16.7351 48.1578 14.7027 48.1578C12.2257 48.1578 10.2568 50.1157 10.2568 52.5789C10.2568 55.042 12.2257 56.9999 14.7027 56.9999C16.7351 56.9999 18.3865 55.6736 18.9581 53.842H32.0419C32.6135 55.6736 34.2649 56.9999 36.2973 56.9999C38.7743 56.9999 40.7432 55.042 40.7432 52.5789C40.7432 50.1157 38.7743 48.1578 36.2973 48.1578C34.2649 48.1578 32.6135 49.4842 32.0419 51.3157H26.7703V44.3684H36.9324C39.0284 44.3684 40.7432 42.6631 40.7432 40.5789V38.0526H43.6013C43.6649 38.0526 43.7284 38.0526 43.7284 38.0526C43.7919 38.0526 43.8554 38.0526 43.8554 38.0526C44.5541 38.0526 45.1257 37.4842 45.1257 36.7894V30.4736H47.6662C48.3649 30.4736 48.9365 29.9052 48.9365 29.2105C48.9365 28.5157 48.4284 27.9473 47.7297 27.9473ZM14.7027 54.4736C13.623 54.4736 12.7973 53.6526 12.7973 52.5789C12.7973 51.5052 13.623 50.6842 14.7027 50.6842C15.7824 50.6842 16.6081 51.5052 16.6081 52.5789C16.6081 53.6526 15.7824 54.4736 14.7027 54.4736ZM36.2973 50.6842C37.377 50.6842 38.2027 51.5052 38.2027 52.5789C38.2027 53.6526 37.377 54.4736 36.2973 54.4736C35.2176 54.4736 34.3919 53.6526 34.3919 52.5789C34.3919 51.5052 35.2176 50.6842 36.2973 50.6842ZM14.7027 27.9473V3.94731C14.7027 3.25257 15.2743 2.68415 15.973 2.68415H35.027C35.7257 2.68415 36.2973 3.25257 36.2973 3.94731V27.9473C36.2973 28.642 35.7257 29.2105 35.027 29.2105H28.6757H22.3243H15.973C15.2743 29.2105 14.7027 28.642 14.7027 27.9473ZM23.5946 31.7368H27.4054V35.5263H23.5946V31.7368ZM38.2027 40.5789C38.2027 41.2736 37.6311 41.842 36.9324 41.842H14.0676C13.3689 41.842 12.7973 41.2736 12.7973 40.5789V38.0526H22.3243H28.6757H38.2027V40.5789Z" fill="black"/>
</svg>
