<svg width="61" height="57" viewBox="0 0 61 57" fill="none" xmlns="http://www.w3.org/2000/svg">
<g clip-path="url(#clip0)">
<path d="M19.6962 44.0111C19.2728 44.0697 18.9977 44.1237 18.7201 44.1437C18.394 44.1945 18.0602 44.1572 17.7534 44.0358C17.4465 43.9144 17.1778 43.7133 16.975 43.4532C16.7723 43.1932 16.6428 42.8837 16.6001 42.5569C16.5575 42.2301 16.6031 41.8979 16.7323 41.5946C16.9093 40.8566 17.0444 40.1092 17.137 39.356L16.8933 39.3005C16.594 40.0564 16.2964 40.8138 15.9932 41.5687C15.7828 42.0926 15.5771 42.6188 15.3471 43.134C14.8732 44.1954 14.1533 44.6453 13.2986 44.4357C12.8081 44.2809 12.3833 43.9673 12.0912 43.5444C11.7992 43.1215 11.6567 42.6135 11.6863 42.1007C11.7433 41.4308 11.8095 40.7617 11.8644 40.0917C11.881 39.9221 11.8303 39.7527 11.7232 39.6199C11.6273 39.8463 11.5144 40.0671 11.4381 40.3C10.8429 42.115 10.2723 43.9383 9.65428 45.7455C9.48446 46.3481 9.21237 46.9171 8.84984 47.4277C8.68766 47.6427 8.47277 47.8124 8.22588 47.9205C7.97899 48.0285 7.70841 48.0713 7.44017 48.0447C7.17194 48.018 6.91508 47.9229 6.69434 47.7684C6.47359 47.6139 6.29639 47.4052 6.17979 47.1626C5.94102 46.633 5.78723 46.0692 5.72406 45.4919C5.66975 45.177 5.60955 45.0026 5.2663 44.9037C4.97622 44.8158 4.7069 44.6704 4.47445 44.4761C4.24201 44.2818 4.05124 44.0427 3.91356 43.773C3.77589 43.5033 3.69415 43.2087 3.67325 42.9067C3.65234 42.6047 3.6927 42.3016 3.7919 42.0156C4.21111 40.364 4.4806 38.6746 4.8147 37.0015L4.63559 36.9413L4.2501 37.5644C4.04357 37.9256 3.71775 38.2038 3.32843 38.3515C2.9391 38.4991 2.51049 38.5071 2.11596 38.3739C1.71536 38.2484 1.37501 37.9801 1.15975 37.6202C0.944488 37.2602 0.869378 36.8337 0.948726 36.422C1.14112 35.4013 1.42399 34.3951 1.71629 33.3967C3.1438 28.5214 4.58012 23.6486 6.02523 18.7784C7.06256 15.2594 8.09533 11.7391 9.12356 8.2175C9.19946 7.90283 9.22899 7.57879 9.21122 7.25562C9.17209 7.00183 9.18788 6.74261 9.25753 6.49544C9.32718 6.24826 9.44908 6.01886 9.615 5.82269C9.78092 5.62652 9.98701 5.46813 10.2194 5.35821C10.4518 5.24828 10.705 5.18937 10.9621 5.18543C11.2511 5.16706 11.5409 5.20663 11.8143 5.3018C12.0877 5.39697 12.3393 5.54583 12.5542 5.73961C12.7692 5.93338 12.9431 6.16815 13.0657 6.43008C13.1884 6.69202 13.2573 6.97581 13.2684 7.26476C13.2249 8.17562 13.1309 9.08337 12.9867 9.98384C12.91 10.5098 12.9615 10.7825 13.5993 10.8163C14.0479 10.9173 14.4792 11.0836 14.8794 11.3098C15.1472 10.3256 15.3489 9.32914 15.6991 8.38774C15.9384 7.74801 16.2942 7.15802 16.7485 6.64759C16.9728 6.38689 17.2806 6.21197 17.6196 6.15265C17.9586 6.09333 18.3077 6.15329 18.6074 6.32231C18.9292 6.46694 19.1962 6.71061 19.3693 7.01767C19.5424 7.32472 19.6126 7.67904 19.5696 8.02879C19.4466 9.60898 19.3004 11.1878 19.1647 12.7665L18.826 16.7045L18.9991 16.7426C19.2115 16.0759 19.3874 15.3946 19.6464 14.7464C19.9118 14.014 20.2463 13.3085 20.6453 12.6394C20.7766 12.3729 20.9717 12.1429 21.2132 11.9695C21.4547 11.7962 21.7352 11.6849 22.03 11.6455C22.3248 11.6061 22.6248 11.6398 22.9034 11.7436C23.1821 11.8475 23.4309 12.0182 23.6278 12.2408C23.7452 12.3253 23.8671 12.4034 23.993 12.4748C24.1886 12.1037 24.3543 11.7562 24.5499 11.4265C24.7242 11.0842 25.0076 10.8096 25.3555 10.6459C25.7033 10.4823 26.0958 10.4388 26.4711 10.5225C26.8561 10.615 27.1991 10.8334 27.4456 11.1429C27.692 11.4524 27.8278 11.8353 27.8313 12.2308C27.8394 12.5997 27.8168 12.9687 27.7638 13.3339C27.5778 14.8863 27.3798 16.4374 27.1894 17.9893C27.1555 18.1742 27.1954 18.365 27.3007 18.5208L28.0969 15.8227C28.4301 14.6989 28.7038 13.5519 29.1225 12.4606C29.3729 11.8624 29.7397 11.3198 30.2017 10.8643C30.4444 10.6079 30.7618 10.4345 31.1089 10.3688C31.4561 10.3031 31.8151 10.3484 32.1349 10.4984C32.4755 10.6246 32.769 10.8523 32.9759 11.1506C33.1827 11.4489 33.2929 11.8034 33.2914 12.1663C33.3201 12.8529 33.2586 13.5432 33.237 14.232L33.3967 14.27C33.5131 13.8319 33.6261 13.3928 33.7467 12.9558C34.0406 11.8899 34.287 10.8075 34.6487 9.76499C34.7976 9.34207 35.0948 8.98728 35.4854 8.7662C35.8759 8.54513 36.3334 8.47271 36.7733 8.56233C37.2131 8.65195 37.6057 8.89756 37.8783 9.25375C38.1509 9.60994 38.2851 10.0526 38.2563 10.5C38.0145 12.3486 37.6761 14.1879 37.2993 16.0149C36.6986 18.9282 36.0328 21.828 35.3977 24.7342C35.3392 24.9894 35.3181 25.2517 35.335 25.5129C35.9749 24.8252 36.4802 23.8843 37.6292 24.347C38.5727 24.7267 38.5358 25.6259 38.704 26.4926C38.7936 26.253 38.8998 26.0182 38.9697 25.7735C39.9989 22.1841 41.0257 18.5937 42.0503 15.0025C42.1998 14.4806 42.3386 13.9535 42.5288 13.4462C42.6758 13.0155 42.8751 12.6045 43.1221 12.2222C43.3007 11.9054 43.5878 11.6636 43.9306 11.5412C44.2734 11.4188 44.6489 11.424 44.9882 11.5559C45.3363 11.6971 45.6216 11.9593 45.7913 12.2941C45.961 12.6288 46.0038 13.0136 45.9116 13.3774C45.7375 14.4269 45.5259 15.4707 45.3135 16.5132C43.7473 24.2402 41.7216 31.8672 39.247 39.3536C38.051 42.9601 36.8025 46.5494 35.552 50.1376C35.2877 50.8506 34.9742 51.5444 34.6137 52.2141C34.379 52.583 34.1156 52.9329 33.8259 53.2606C33.7235 53.0406 33.6446 52.8105 33.5904 52.574C33.5487 52.2504 33.557 51.9224 33.615 51.6013C33.8345 50.7266 33.8075 50.0826 32.7597 49.7034C32.0328 49.4403 31.8562 48.5709 32.1154 47.7251C32.2052 47.4811 32.271 47.2289 32.3118 46.9721C32.4513 45.756 32.5145 44.5324 32.5011 43.3085C32.1566 44.1051 31.7857 44.8915 31.4744 45.7009C31.0615 46.774 30.6707 47.8571 30.3151 48.9504C30.2454 49.4932 29.9712 49.9891 29.5484 50.3371C29.1255 50.6852 28.5857 50.8593 28.0389 50.8239C27.926 50.8645 27.8238 50.93 27.7399 51.0156C27.6559 51.1011 27.5924 51.2045 27.554 51.318C27.2259 52.3524 26.949 53.4033 26.6479 54.4462C26.5771 54.7188 26.4852 54.9855 26.373 55.2439C26.2405 55.5697 26.011 55.8469 25.7156 56.0381C25.4202 56.2294 25.0731 56.3255 24.7212 56.3133C24.3674 56.3372 24.0158 56.2418 23.7228 56.0422C23.4297 55.8427 23.2123 55.5507 23.1053 55.2131C22.8828 54.5383 22.7965 53.8262 22.8513 53.118C23.1042 50.7881 23.461 48.4693 23.7759 46.146C23.8003 45.9661 23.8071 45.7838 23.8291 45.5183C22.6954 46.9828 22.0507 47.2831 20.8595 46.8581C19.5227 46.3809 19.3208 45.3458 19.6962 44.0111Z" fill="#5DC1B8"/>
<path d="M21.6728 0C21.0067 0 20.4666 0.52735 20.4666 1.17778V8.39167C18.3895 8.91648 16.8479 10.7711 16.8479 12.9556C16.8479 15.5435 19.0224 17.6667 21.6728 17.6667C24.3233 17.6667 26.4977 15.5435 26.4977 12.9556C26.4977 10.7758 24.9494 8.93952 22.879 8.41011V1.17778C22.879 0.52735 22.339 0 21.6728 0ZM45.7972 0C45.1311 0 44.591 0.52735 44.591 1.17778V8.39167C42.5139 8.91648 40.9723 10.7711 40.9723 12.9556C40.9723 15.5435 43.1468 17.6667 45.7972 17.6667C48.4477 17.6667 50.6221 15.5435 50.6221 12.9556C50.6221 10.7758 49.0738 8.93952 47.0034 8.41011V1.17778C47.0034 0.52735 46.4634 0 45.7972 0ZM13.2292 3.53333C9.89947 3.53333 7.17932 6.18935 7.17932 9.44066V47.0927C7.17932 50.3441 9.89947 53 13.2292 53H54.2031C57.5329 53 60.253 50.3441 60.253 47.0927V9.44066C60.253 6.18935 57.5329 3.53333 54.2031 3.53333H50.6033C49.966 3.5245 49.3782 4.08883 49.3782 4.71111C49.3782 5.33345 49.966 5.89772 50.6033 5.88889H54.2031C56.2358 5.88889 57.8406 7.45581 57.8406 9.44066V20.0222H9.59176V9.44066C9.59176 7.45581 11.1965 5.88889 13.2292 5.88889H16.8291C17.4663 5.89772 18.0541 5.33345 18.0541 4.71111C18.0541 4.08883 17.4663 3.52456 16.8291 3.53333H13.2292ZM26.4789 3.53333C25.8127 3.53333 25.2726 4.06062 25.2726 4.71111C25.2726 5.3616 25.8127 5.88889 26.4789 5.88889H40.9535C41.6197 5.88889 42.1597 5.3616 42.1597 4.71111C42.1597 4.06062 41.6197 3.53333 40.9535 3.53333H26.4789ZM21.6728 10.6C23.0194 10.6 24.0852 11.6407 24.0852 12.9556C24.0852 14.2705 23.0194 15.3111 21.6728 15.3111C20.3262 15.3111 19.2603 14.2705 19.2603 12.9556C19.2603 11.6407 20.3262 10.6 21.6728 10.6ZM45.7972 10.6C47.1438 10.6 48.2096 11.6407 48.2096 12.9556C48.2096 14.2705 47.1438 15.3111 45.7972 15.3111C44.4506 15.3111 43.3848 14.2705 43.3848 12.9556C43.3848 11.6407 44.4506 10.6 45.7972 10.6ZM9.59176 22.3778H57.8406V47.0927C57.8406 49.0776 56.2358 50.6445 54.2031 50.6445H13.2292C11.1965 50.6445 9.59176 49.0776 9.59176 47.0927V22.3778Z" fill="black"/>
</g>
<defs>
<clipPath id="clip0">
<rect width="61" height="57" fill="white"/>
</clipPath>
</defs>
</svg>
